<svg fill="none" stroke="currentColor" viewBox="0 0 24 24">
  <path fill="#1F2937" fill-rule="evenodd" d="M12 4a8 8 0 1 0 0 16 8 8 0 0 0 0-16zM2 12C2 6.477 6.477 2 12 2s10 4.477 10 10-4.477 10-10 10S2 17.523 2 12z" clip-rule="evenodd"/>
  <path fill="#1F2937" fill-rule="evenodd" d="M8.051 10.184a1 1 0 0 1 1.265-.633l2.684.895 2.684-.895a1 1 0 0 1 .632 1.898L13 12.22v.976l1.832 2.748a1 1 0 1 1-1.664 1.11L12 15.303l-1.168 1.752a1 1 0 1 1-1.664-1.11L11 13.197v-.976l-2.316-.772a1 1 0 0 1-.633-1.265zM10.5 7.496a1.5 1.5 0 1 1 3 0 1.5 1.5 0 0 1-3 0z" clip-rule="evenodd"/>
</svg>
