<svg fill="none" stroke="currentColor" viewBox="0 0 24 24">
  <path fill="#1F2937" fill-rule="evenodd" d="M5 6.004a1 1 0 0 0-1 1v10a1 1 0 0 0 1 1h14a1 1 0 0 0 1-1v-10a1 1 0 0 0-1-1H5zm-3 1a3 3 0 0 1 3-3h14a3 3 0 0 1 3 3v10a3 3 0 0 1-3 3H5a3 3 0 0 1-3-3v-10z" clip-rule="evenodd"/>
  <path fill="#1F2937" fill-rule="evenodd" d="M9 10a1 1 0 0 0-1 1v4a1 1 0 1 1-2 0v-4a3 3 0 0 1 6 0v4a1 1 0 1 1-2 0v-4a1 1 0 0 0-1-1z" clip-rule="evenodd"/>
  <path fill="#1F2937" fill-rule="evenodd" d="M8 13v-1.004h2V14l-2-.004V13zM17 8a1 1 0 0 1 1 1v6a1 1 0 0 1-1 1h-1.5a2.5 2.5 0 1 1 .5-4.95V9a1 1 0 0 1 1-1zm-1 5.5a.5.5 0 1 0-.5.5h.5v-.5z" clip-rule="evenodd"/>
</svg>
