<svg fill="none" stroke="currentColor" viewBox="0 0 24 24">
  <path fill="#1F2937" fill-rule="evenodd" d="M10.083 16.604a1 1 0 0 1 1.317-.517 1.5 1.5 0 0 0 1.2 0 1 1 0 0 1 .8 1.833 3.5 3.5 0 0 1-2.8 0 1 1 0 0 1-.517-1.316z" clip-rule="evenodd"/>
  <path fill="#1F2937" fill-rule="evenodd" d="M5.896 3.773C7.43 2.624 9.506 2 12 2c2.495 0 4.569.624 6.104 1.772 1.545 1.156 2.477 2.795 2.747 4.677a12.89 12.89 0 0 1-2.164 9.306 11.776 11.776 0 0 1-3.493 3.345l-.015.009c-1.982 1.188-4.39 1.18-6.372-.01-1.383-.86-2.573-1.999-3.493-3.343a12.816 12.816 0 0 1-2.165-9.308c.27-1.882 1.202-3.52 2.747-4.675zm3.96 15.625a4.114 4.114 0 0 0 4.288 0 9.778 9.778 0 0 0 2.895-2.776l.005-.007a10.89 10.89 0 0 0 1.83-7.869l-.002-.01c-.197-1.38-.863-2.537-1.966-3.362C15.793 4.54 14.17 4 12 4c-2.17 0-3.793.541-4.906 1.374C5.99 6.2 5.325 7.356 5.128 8.736l-.002.012a10.816 10.816 0 0 0 1.83 7.865l.005.01a9.778 9.778 0 0 0 2.895 2.775z" clip-rule="evenodd"/>
  <path fill="#1F2937" fill-rule="evenodd" d="M7.293 10.297a1 1 0 0 1 1.414 0l2 2a1 1 0 0 1-1.414 1.414l-2-2a1 1 0 0 1 0-1.414zM16.707 10.297a1 1 0 0 1 0 1.414l-2 2a1 1 0 0 1-1.414-1.414l2-2a1 1 0 0 1 1.414 0z" clip-rule="evenodd"/>
</svg>
