<svg fill="none" stroke="currentColor" viewBox="0 0 24 24">
  <path fill="#1F2937" fill-rule="evenodd" d="M7 15.75a1.25 1.25 0 1 0 0 2.5 1.25 1.25 0 0 0 0-2.5zM4.25 17a2.75 2.75 0 1 1 5.5 0 2.75 2.75 0 0 1-5.5 0zM17 15.75a1.25 1.25 0 1 0 0 2.5 1.25 1.25 0 0 0 0-2.5zM14.25 17a2.75 2.75 0 1 1 5.5 0 2.75 2.75 0 0 1-5.5 0z" clip-rule="evenodd"/>
  <path fill="#1F2937" fill-rule="evenodd" d="M2.586 4.586A2 2 0 0 1 4 4h9a1 1 0 0 1 1 1h4a1 1 0 0 1 .858.486l3 5A1 1 0 0 1 22 11v6a1 1 0 0 1-1 1h-2a1 1 0 0 1-.707-.293L14 13.414V16h1a1 1 0 1 1 0 2H3a1 1 0 0 1-1-1V6a2 2 0 0 1 .586-1.414zM12 16V6H4v10h8zm2-9v3h5.234l-1.8-3H14zm6 5h-4.586l4 4H20v-4z" clip-rule="evenodd"/>
  <path fill="#1F2937" fill-rule="evenodd" d="M8 7.25a.75.75 0 0 1 .75.75v1.25H10a.75.75 0 0 1 0 1.5H8.75V12a.75.75 0 0 1-1.5 0v-1.25H6a.75.75 0 0 1 0-1.5h1.25V8A.75.75 0 0 1 8 7.25z" clip-rule="evenodd"/>
</svg>
