<svg fill="none" stroke="currentColor" viewBox="0 0 24 24">
  <path fill="#1F2937" fill-rule="evenodd" d="M3 8.996a1 1 0 0 1 1 1v6a1 1 0 1 1-2 0v-6a1 1 0 0 1 1-1zM21 8.996a1 1 0 0 1 1 1v6a1 1 0 1 1-2 0v-6a1 1 0 0 1 1-1zM12 4.996a4 4 0 0 0-3.873 3h7.746a4 4 0 0 0-3.873-3zm6 4a6 6 0 1 0-12 0v8a2 2 0 0 0 2 2h8a2 2 0 0 0 2-2v-8zm-2 1H8v7h8v-7z" clip-rule="evenodd"/>
  <path fill="#1F2937" fill-rule="evenodd" d="M7.553 2.106a1 1 0 0 1 1.341.447l1 2a1 1 0 1 1-1.788.894l-1-2a1 1 0 0 1 .447-1.341zM16.447 2.106a1 1 0 0 1 .447 1.341l-1 2a1 1 0 0 1-1.789-.894l1-2a1 1 0 0 1 1.342-.447zM9 17a1 1 0 0 1 1 1v3a1 1 0 1 1-2 0v-3a1 1 0 0 1 1-1zM15 17a1 1 0 0 1 1 1v3a1 1 0 1 1-2 0v-3a1 1 0 0 1 1-1z" clip-rule="evenodd"/>
</svg>
