<svg fill="none" stroke="currentColor" viewBox="0 0 24 24">
  <path fill="#1F2937" fill-rule="evenodd" d="M15.572 6.006c.412.03 1.145.192 1.915.542.78.356 1.69.946 2.338 1.89a1 1 0 0 1-.345 1.443c-.091.05-.184.087-.286.128-.224.09-.49.198-.874.492-.477.365-.826.838-.82 1.493.017 1.573 1.235 1.903 1.704 2.03.056.015.101.027.132.038a1 1 0 0 1 .664.942c0 1.339-.793 2.811-1.661 3.88-.452.556-.97 1.062-1.507 1.438-.511.36-1.155.682-1.832.682a5.626 5.626 0 0 1-1.87-.296l-.035-.011c-.362-.114-.615-.193-1.095-.193-.532 0-.912.088-1.33.199l-.124.033c-.4.108-.893.241-1.504.267H9c-.88 0-1.621-.487-2.176-1.042-.57-.57-1.064-1.326-1.468-2.135C4.55 16.216 4 14.188 4 12.504c0-1.358.267-2.927 1.013-4.195C5.79 6.991 7.092 6.004 9 6.004c.806 0 1.579.356 2.086.596l.211.101c.188.09.339.162.483.222.119.049.186.068.215.076.03-.009.106-.031.25-.091.138-.057.252-.109.384-.169.12-.055.256-.116.439-.195.63-.272 1.53-.612 2.505-.538zm-2.562 2.75c-.242.1-.622.248-1.01.248-.379 0-.737-.13-.982-.232-.202-.083-.425-.19-.625-.286a37.757 37.757 0 0 0-.164-.079c-.548-.26-.935-.403-1.229-.403-1.092 0-1.789.513-2.263 1.32C6.233 10.18 6 11.36 6 12.503c0 1.316.45 3.038 1.144 4.428.346.69.726 1.246 1.094 1.615.368.367.622.45.747.456.367-.018.653-.095 1.058-.203l.113-.03c.479-.127 1.055-.266 1.844-.266.788 0 1.278.154 1.685.282l.044.014c.35.11.663.204 1.271.204.073 0 .304-.053.683-.319a5.73 5.73 0 0 0 1.103-1.062c.528-.649.91-1.345 1.093-1.931-.933-.425-2.355-1.453-2.379-3.677v-.002c-.013-1.515.846-2.519 1.603-3.1.074-.056.152-.112.231-.165a4.458 4.458 0 0 0-.676-.38c-.585-.266-1.087-.357-1.225-.366L15.423 8c-.456-.035-.97.124-1.563.38-.096.04-.22.097-.348.154-.18.08-.367.165-.502.221zM11.879 1.882A3 3 0 0 1 14 1.004a1 1 0 0 1 1 1 3 3 0 0 1-3 3 1 1 0 0 1-1-1 3 3 0 0 1 .879-2.122z" clip-rule="evenodd"/>
</svg>
