<svg fill="none" stroke="currentColor" viewBox="0 0 24 24">
  <path fill="#1F2937" fill-rule="evenodd" d="M5 4.996a1 1 0 1 0 0 2h14a1 1 0 1 0 0-2H5zm-3 1a3 3 0 0 1 3-3h14a3 3 0 1 1 0 6H5a3 3 0 0 1-3-3z" clip-rule="evenodd"/>
  <path fill="#1F2937" fill-rule="evenodd" d="M5 7.004a1 1 0 0 1 1 1v10a1 1 0 0 0 1 1h10a1 1 0 0 0 1-1v-10a1 1 0 1 1 2 0v10a3 3 0 0 1-3 3H7a3 3 0 0 1-3-3v-10a1 1 0 0 1 1-1z" clip-rule="evenodd"/>
  <path fill="#1F2937" fill-rule="evenodd" d="M9 12a1 1 0 0 1 1-1h4a1 1 0 1 1 0 2h-4a1 1 0 0 1-1-1z" clip-rule="evenodd"/>
</svg>
