<svg fill="none" stroke="currentColor" viewBox="0 0 24 24">
  <path fill="#1F2937" fill-rule="evenodd" d="M12 2.996a1 1 0 0 1 1 1v10a1 1 0 1 1-2 0v-10a1 1 0 0 1 1-1z" clip-rule="evenodd"/>
  <path fill="#1F2937" fill-rule="evenodd" d="M11.293 3.29a1 1 0 0 1 1.414 0l4 4a1 1 0 0 1-1.414 1.413l-4-4a1 1 0 0 1 0-1.414z" clip-rule="evenodd"/>
  <path fill="#1F2937" fill-rule="evenodd" d="M12.707 3.29a1 1 0 0 1 0 1.413l-4 4A1 1 0 1 1 7.293 7.29l4-4a1 1 0 0 1 1.414 0zM3 20.004a1 1 0 0 1 1-1h16a1 1 0 1 1 0 2H4a1 1 0 0 1-1-1z" clip-rule="evenodd"/>
</svg>
