<svg fill="none" stroke="currentColor" viewBox="0 0 24 24">
  <path fill="#1F2937" fill-rule="evenodd" d="M15 3.996a1 1 0 0 1 1-1h4a1 1 0 0 1 1 1v4a1 1 0 1 1-2 0v-3h-3a1 1 0 0 1-1-1z" clip-rule="evenodd"/>
  <path fill="#1F2937" fill-rule="evenodd" d="M20.707 3.29a1 1 0 0 1 0 1.413l-6 6a1 1 0 0 1-1.414-1.414l6-6a1 1 0 0 1 1.414 0zM4 14.996a1 1 0 0 1 1 1v3h3a1 1 0 1 1 0 2H4a1 1 0 0 1-1-1v-4a1 1 0 0 1 1-1z" clip-rule="evenodd"/>
  <path fill="#1F2937" fill-rule="evenodd" d="M10.707 13.297a1 1 0 0 1 0 1.414l-6 6a1 1 0 0 1-1.414-1.414l6-6a1 1 0 0 1 1.414 0z" clip-rule="evenodd"/>
</svg>
