<svg fill="none" stroke="currentColor" viewBox="0 0 24 24">
  <path fill="#1F2937" fill-rule="evenodd" d="M7 9.004a2 2 0 0 1 2-2h6a2 2 0 0 1 2 2v6a2 2 0 0 1-2 2H9a2 2 0 0 1-2-2v-6zm8 0H9v6h6v-6zM2 8.004a1 1 0 0 1 1-1h1a1 1 0 0 1 0 2H3a1 1 0 0 1-1-1zM2 15.996a1 1 0 0 1 1-1h1a1 1 0 1 1 0 2H3a1 1 0 0 1-1-1zM8 2a1 1 0 0 1 1 1v1a1 1 0 0 1-2 0V3a1 1 0 0 1 1-1zM16 2a1 1 0 0 1 1 1v1a1 1 0 1 1-2 0V3a1 1 0 0 1 1-1zM19 8.004a1 1 0 0 1 1-1h1a1 1 0 1 1 0 2h-1a1 1 0 0 1-1-1zM19 15.996a1 1 0 0 1 1-1h1a1 1 0 1 1 0 2h-1a1 1 0 0 1-1-1zM8 19.004a1 1 0 0 1 1 1v1a1 1 0 1 1-2 0v-1a1 1 0 0 1 1-1zM16 19.004a1 1 0 0 1 1 1v1a1 1 0 1 1-2 0v-1a1 1 0 0 1 1-1z" clip-rule="evenodd"/>
</svg>
