<svg fill="none" stroke="currentColor" viewBox="0 0 24 24">
  <path fill="#1F2937" fill-rule="evenodd" d="M12 11a1 1 0 0 1 1 1v.01a1 1 0 1 1-2 0V12a1 1 0 0 1 1-1z" clip-rule="evenodd"/>
  <path fill="#1F2937" fill-rule="evenodd" d="M17.433 3.382c.867-.015 1.72.211 2.345.837.62.62.852 1.469.837 2.345-.015.871-.271 1.836-.696 2.827-.428.999-1.038 2.05-1.787 3.095a24.611 24.611 0 0 1-2.596 3.047c-1.939 1.938-4.138 3.525-6.142 4.383-1.001.43-1.963.681-2.827.696-.867.015-1.72-.21-2.345-.837-.626-.625-.852-1.478-.837-2.345.015-.863.267-1.825.696-2.827C4.94 12.6 6.526 10.4 8.464 8.462c1.94-1.939 4.138-3.525 6.142-4.384 1.002-.43 1.964-.68 2.827-.696zm.931 2.251c-.124-.124-.38-.26-.896-.251-.52.009-1.219.168-2.074.534-1.71.733-3.703 2.148-5.515 3.96-1.812 1.812-3.227 3.806-3.96 5.515-.366.855-.525 1.554-.534 2.074-.01.517.127.772.251.896.125.125.38.26.896.252.52-.01 1.219-.168 2.074-.535 1.71-.732 3.703-2.147 5.515-3.96a22.632 22.632 0 0 0 2.385-2.796c.683-.954 1.215-1.879 1.575-2.719.363-.847.525-1.548.534-2.074.01-.52-.128-.773-.251-.896z" clip-rule="evenodd"/>
  <path fill="#1F2937" fill-rule="evenodd" d="M3.385 6.567c-.015-.866.211-1.719.837-2.345.62-.62 1.469-.852 2.345-.837.871.016 1.836.272 2.827.696.999.428 2.05 1.039 3.095 1.787a24.61 24.61 0 0 1 3.047 2.597c1.938 1.938 3.525 4.138 4.383 6.142.43 1 .681 1.963.696 2.826.015.867-.21 1.72-.837 2.346-.625.625-1.478.852-2.345.837-.863-.016-1.825-.267-2.827-.696-2.004-.86-4.203-2.445-6.141-4.384-1.939-1.939-3.525-4.138-4.384-6.142-.43-1.001-.68-1.963-.696-2.827zm2.251-.93c-.124.124-.26.379-.251.896.009.52.168 1.218.534 2.074.733 1.709 2.148 3.703 3.96 5.515 1.812 1.812 3.806 3.227 5.515 3.96.855.366 1.554.525 2.074.534.517.009.772-.127.896-.252.125-.124.26-.379.252-.896-.01-.52-.168-1.218-.535-2.074-.732-1.709-2.147-3.703-3.96-5.515a22.62 22.62 0 0 0-2.796-2.384c-.954-.683-1.879-1.215-2.719-1.575-.847-.364-1.548-.526-2.074-.535-.52-.009-.773.129-.896.251z" clip-rule="evenodd"/>
</svg>
