<svg fill="none" stroke="currentColor" viewBox="0 0 24 24">
  <path fill="#1F2937" fill-rule="evenodd" d="M12 10a2 2 0 1 0 0 4 2 2 0 0 0 0-4zm-4 2a4 4 0 1 1 8 0 4 4 0 0 1-8 0zM12 20a1 1 0 0 1 1 1v.01a1 1 0 1 1-2 0V21a1 1 0 0 1 1-1zM3 8a1 1 0 0 1 1 1v.01a1 1 0 0 1-2 0V9a1 1 0 0 1 1-1zM21 8a1 1 0 0 1 1 1v.01a1 1 0 1 1-2 0V9a1 1 0 0 1 1-1zM2.89 12.002a1 1 0 0 1 1.104.884 8 8 0 0 0 4.444 6.312 1 1 0 0 1-.876 1.797 10 10 0 0 1-5.556-7.889 1 1 0 0 1 .884-1.104zM21.11 12.002a1 1 0 0 1 .884 1.104 10 10 0 0 1-5.555 7.89 1 1 0 0 1-.877-1.798 8 8 0 0 0 4.444-6.312 1 1 0 0 1 1.104-.884zM11.9 3.965a8 8 0 0 0-5.066 1.809 1 1 0 0 1-1.267-1.548 10 10 0 0 1 12.667 0 1 1 0 0 1-1.267 1.548A8 8 0 0 0 11.9 3.965z" clip-rule="evenodd"/>
</svg>
