<svg fill="none" stroke="currentColor" viewBox="0 0 24 24">
  <path fill="#1F2937" fill-rule="evenodd" d="M8.293 5.293A1 1 0 0 1 9 5h11a2 2 0 0 1 2 2v10a2 2 0 0 1-2 2H9a1 1 0 0 1-.707-.293l-5-5a2.5 2.5 0 0 1 0-3.414l5-5zM9.414 7l-4.682 4.682a.5.5 0 0 0 0 .636L9.414 17H20V7H9.414z" clip-rule="evenodd"/>
  <path fill="#1F2937" fill-rule="evenodd" d="M11.293 9.29a1 1 0 0 1 1.414 0L14 10.581l1.293-1.293a1 1 0 1 1 1.414 1.414l-1.293 1.293 1.293 1.293a1 1 0 0 1-1.414 1.414L14 13.41l-1.293 1.293a1 1 0 0 1-1.414-1.414l1.293-1.293-1.293-1.293a1 1 0 0 1 0-1.414z" clip-rule="evenodd"/>
</svg>
