<svg fill="none" stroke="currentColor" viewBox="0 0 24 24">
  <path fill="#1F2937" fill-rule="evenodd" d="M12 4a8 8 0 1 0 0 16 8 8 0 0 0 0-16zM2 12C2 6.477 6.477 2 12 2s10 4.477 10 10-4.477 10-10 10S2 17.523 2 12z" clip-rule="evenodd"/>
  <path fill="#1F2937" fill-rule="evenodd" d="M4.943 4.941a1 1 0 0 1 1.414 0l12.7 12.7a1 1 0 0 1-1.414 1.415l-12.7-12.7a1 1 0 0 1 0-1.415z" clip-rule="evenodd"/>
  <path fill="#1F2937" fill-rule="evenodd" d="M19.057 4.941a1 1 0 0 1 0 1.415l-12.7 12.7a1 1 0 0 1-1.414-1.415l12.7-12.7a1 1 0 0 1 1.414 0z" clip-rule="evenodd"/>
  <path fill="#1F2937" fill-rule="evenodd" d="M12 2a1 1 0 0 1 1 1 8 8 0 0 0 8 8 1 1 0 1 1 0 2A10 10 0 0 1 11 3a1 1 0 0 1 1-1zM2 12a1 1 0 0 1 1-1 10 10 0 0 1 10 10 1 1 0 1 1-2 0 8 8 0 0 0-8-8 1 1 0 0 1-1-1z" clip-rule="evenodd"/>
</svg>
