<svg fill="none" stroke="currentColor" viewBox="0 0 24 24">
  <path fill="#1F2937" fill-rule="evenodd" d="M12 2.996a1 1 0 0 1 .768.36l5 6a1 1 0 1 1-1.536 1.28L12 5.558l-4.232 5.078a1 1 0 1 1-1.536-1.28l5-6a1 1 0 0 1 .768-.36z" clip-rule="evenodd"/>
  <path fill="#1F2937" fill-rule="evenodd" d="M2.212 9.38A1 1 0 0 1 3 8.997h18a1 1 0 0 1 .97 1.243L19.98 18.2c-.13.737-.462 1.434-.983 1.955-.534.534-1.242.855-2.008.84H7.01c-.766.015-1.474-.306-2.008-.84-.521-.521-.854-1.218-.983-1.955L2.03 10.24a1 1 0 0 1 .182-.858zm2.069 1.616 1.69 6.758a.998.998 0 0 1 .016.081c.064.393.231.708.43.907.194.194.394.259.558.255h10.05c.164.004.364-.061.558-.255.199-.2.366-.514.43-.907a.942.942 0 0 1 .017-.081l1.69-6.758H4.28z" clip-rule="evenodd"/>
  <path fill="#1F2937" fill-rule="evenodd" d="M12 13.996a1 1 0 1 0 0 2 1 1 0 0 0 0-2zm-3 1a3 3 0 1 1 6 0 3 3 0 0 1-6 0z" clip-rule="evenodd"/>
</svg>
