<svg fill="none" stroke="currentColor" viewBox="0 0 24 24">
  <path fill="#1F2937" fill-rule="evenodd" d="M12 4a1 1 0 0 0-1 .984 1.003 1.003 0 0 1-.591.929A6 6 0 0 0 7 11.024V14c0 .04-.002.08-.007.12A5 5 0 0 1 6.37 16h11.26a5 5 0 0 1-.623-1.88A1.006 1.006 0 0 1 17 14v-2.976a6 6 0 0 0-3.427-5.12A1 1 0 0 1 13 5a1 1 0 0 0-1-1zm-2.93.356a3 3 0 0 1 5.86 0A8 8 0 0 1 19 11v2.935a3 3 0 0 0 1.493 2.195A1 1 0 0 1 20 18H4a1 1 0 0 1-.493-1.87A3 3 0 0 0 5 13.935V11l.001-.047a8 8 0 0 1 4.07-6.597z" clip-rule="evenodd"/>
  <path fill="#1F2937" fill-rule="evenodd" d="M9 16.004a1 1 0 0 1 1 1v1a2 2 0 0 0 4 0v-1a1 1 0 1 1 2 0v1a4 4 0 1 1-8 0v-1a1 1 0 0 1 1-1z" clip-rule="evenodd"/>
</svg>
