<svg fill="none" stroke="currentColor" viewBox="0 0 24 24">
  <path fill="#1F2937" fill-rule="evenodd" d="M5 16a2 2 0 1 0 0 4 2 2 0 0 0 0-4zm-4 2a4 4 0 1 1 8 0 4 4 0 0 1-8 0zM19 16a2 2 0 1 0 0 4 2 2 0 0 0 0-4zm-4 2a4 4 0 1 1 8 0 4 4 0 0 1-8 0z" clip-rule="evenodd"/>
  <path fill="#1F2937" fill-rule="evenodd" d="M14.153 7.016a1 1 0 0 1 .68.433l1.702 2.555H19a1 1 0 1 1 0 2h-3a1 1 0 0 1-.832-.446l-1.395-2.092-3.276 2.62 2.21 2.21a1 1 0 0 1 .293.708v4a1 1 0 1 1-2 0v-3.586L8.293 12.71a1 1 0 0 1 .082-1.488l5-4a1 1 0 0 1 .778-.207zM15 4.996a2 2 0 1 1 4 0 2 2 0 0 1-4 0z" clip-rule="evenodd"/>
</svg>
