<svg fill="none" stroke="currentColor" viewBox="0 0 24 24">
  <path fill="#1F2937" fill-rule="evenodd" d="M7.5 18.79a8 8 0 0 0-4 1.07 1 1 0 0 1-1-1.731 10 10 0 0 1 9.5-.27 10 10 0 0 1 9.5.27 1 1 0 1 1-1 1.732 8 8 0 0 0-8 0 1 1 0 0 1-1 0 8 8 0 0 0-4-1.072zM7.5 5.793a8 8 0 0 0-4 1.072 1 1 0 1 1-1-1.732 10 10 0 0 1 9.5-.27 10 10 0 0 1 9.5.27 1 1 0 1 1-1 1.732 8 8 0 0 0-8 0 1 1 0 0 1-1 0 8 8 0 0 0-4-1.072z" clip-rule="evenodd"/>
  <path fill="#1F2937" fill-rule="evenodd" d="M3 5a1 1 0 0 1 1 1v13a1 1 0 1 1-2 0V6a1 1 0 0 1 1-1zM12 5a1 1 0 0 1 1 1v13a1 1 0 1 1-2 0V6a1 1 0 0 1 1-1zM21 5a1 1 0 0 1 1 1v13a1 1 0 1 1-2 0V6a1 1 0 0 1 1-1z" clip-rule="evenodd"/>
</svg>
