<svg fill="none" stroke="currentColor" viewBox="0 0 24 24">
  <path fill="#1F2937" fill-rule="evenodd" d="M15.01 3.996a1 1 0 1 1 1 1 1 1 0 0 1-1-1zm4 0a1 1 0 1 1 2 0 1 1 0 1 1-2 0zm1 3a1 1 0 1 1-1 1.001v-.001a1 1 0 0 1 1-1zm0 4a1 1 0 1 1-1 1.001v-.001a1 1 0 0 1 1-1zm-16 3.99a1 1 0 1 1-1 1 1 1 0 0 1 1-1zm16 .01a1 1 0 1 1-1 1.001v-.001a1 1 0 0 1 1-1zM4.72 19.29a1 1 0 0 0-1.71.705 1 1 0 1 0 1.71-.705zm15.29-.295a1 1 0 1 1 0 2 1 1 0 1 1 0-2zm-13 1a1 1 0 1 1 1.001 1H8.01a1 1 0 0 1-1-1zm4 0a1 1 0 1 1 1.001 1h-.002a1 1 0 0 1-1-1zm4 0a1 1 0 1 1 1.001 1h-.002a1 1 0 0 1-1-1zM8 4.996a3 3 0 0 0-3 3v4a1 1 0 1 1-2 0v-4a5 5 0 0 1 5-5h4a1 1 0 1 1 0 2H8z" clip-rule="evenodd"/>
</svg>
