<svg fill="none" stroke="currentColor" viewBox="0 0 24 24">
  <path fill="#1F2937" fill-rule="evenodd" d="M11.51 2.128a1 1 0 0 1 .98 0l8 4.5A1 1 0 0 1 21 7.5v9a1 1 0 0 1-.51.872l-8 4.5a1 1 0 0 1-.98 0l-8-4.5A1 1 0 0 1 3 16.5v-9a1 1 0 0 1 .51-.872l8-4.5zM5 8.085v7.83l7 3.938 7-3.938v-7.83l-7-3.938-7 3.938z" clip-rule="evenodd"/>
  <path fill="#1F2937" fill-rule="evenodd" d="M20.872 7.01a1 1 0 0 1-.382 1.362l-8 4.5a1 1 0 1 1-.98-1.743l8-4.5a1 1 0 0 1 1.362.38z" clip-rule="evenodd"/>
  <path fill="#1F2937" fill-rule="evenodd" d="M12 11a1 1 0 0 1 1 1v9a1 1 0 1 1-2 0v-9a1 1 0 0 1 1-1z" clip-rule="evenodd"/>
  <path fill="#1F2937" fill-rule="evenodd" d="M3.129 7.01a1 1 0 0 1 1.361-.382l8 4.5a1 1 0 1 1-.98 1.744l-8-4.5a1 1 0 0 1-.381-1.362z" clip-rule="evenodd"/>
</svg>
