<svg fill="none" stroke="currentColor" viewBox="0 0 24 24">
  <path fill="#1F2937" fill-rule="evenodd" d="M4.879 3.875A3 3 0 0 1 7 2.996a1 1 0 1 1 0 2 1 1 0 0 0-1 1v3c0 .958-.25 1.922-.754 2.676a3.527 3.527 0 0 1-.243.324c.087.103.168.212.243.324.503.754.754 1.719.754 2.676v3a1 1 0 0 0 1 1 1 1 0 1 1 0 2 3 3 0 0 1-3-3v-3c0-.634-.17-1.195-.418-1.566-.247-.37-.478-.434-.582-.434a1 1 0 1 1 0-2c.104 0 .335-.063.582-.433C3.83 10.192 4 9.63 4 8.996v-3a3 3 0 0 1 .879-2.121zM16 3.996a1 1 0 0 1 1-1 3 3 0 0 1 3 3v3c0 .634.17 1.196.418 1.567.247.37.478.433.582.433a1 1 0 1 1 0 2c-.104 0-.335.063-.582.434-.247.37-.418.932-.418 1.566v3a3 3 0 0 1-3 3 1 1 0 1 1 0-2 1 1 0 0 0 1-1v-3c0-.957.25-1.922.754-2.676.075-.112.156-.22.243-.324a3.533 3.533 0 0 1-.243-.324C18.25 10.918 18 9.954 18 8.996v-3a1 1 0 0 0-1-1 1 1 0 0 1-1-1z" clip-rule="evenodd"/>
</svg>
