<svg fill="none" stroke="currentColor" viewBox="0 0 24 24">
  <path fill="#000" fill-rule="evenodd" d="M21.661 3.246a1 1 0 0 1 .31.993l-4 16a1 1 0 0 1-1.678.464l-4.185-4.184L9.8 19.596a1 1 0 0 1-1.749-.283l-1.869-5.607-3.63-1.815a1 1 0 0 1 .086-1.827l18-7a1 1 0 0 1 1.023.182zM12.72 14.301a.96.96 0 0 0-.022-.022l-.283-.283 3.293-3.293a1 1 0 0 0-1.414-1.414l-4 4a1 1 0 0 0 0 1.415l.387.386-1.335 1.78-1.396-4.19a1 1 0 0 0-.502-.578l-1.982-.991L19.56 5.629 16.458 18.04l-3.739-3.739z" clip-rule="evenodd"/>
</svg>
