<svg fill="none" stroke="currentColor" viewBox="0 0 24 24">
  <path fill="#000" fill-rule="evenodd" d="m19.281 3.883.253-.07c.721-.197 1.338-.366 1.99-.68a1 1 0 0 1 1.476.88 1 1 0 0 1-.036.268c-.193.75-.7 1.783-1.098 2.563l-.284.552c-.099.192-.188.363-.267.52a9.186 9.186 0 0 0-.133.275 14.841 14.841 0 0 1-.533 3.852l-.001.005c-1.228 4.37-4.442 7.301-8.335 8.432-3.436.998-7.315.296-10.791-1.6a1 1 0 0 1 .517-1.877c1.406.055 2.655-.298 3.91-.942-1.299-.802-2.231-1.737-2.87-2.747-.883-1.394-1.16-2.856-1.147-4.159.013-1.294.311-2.447.599-3.266a10.697 10.697 0 0 1 .536-1.262c.017-.033.031-.06.042-.078l.013-.024.004-.008.001-.002.001-.002.872.49-.871-.49a1 1 0 0 1 1.684-.092C6.3 6.496 8.495 7.766 11 7.975c-.012-2.105 1.313-3.913 3.27-4.646 1.624-.608 3.546-.678 5.011.554zM4.301 6.91a8.102 8.102 0 0 0-.37 2.266c-.01 1.002.202 2.066.837 3.07.634 1 1.736 2.015 3.632 2.841a1 1 0 0 1 .155 1.749c-.952.634-1.933 1.188-2.986 1.578 2.155.63 4.29.697 6.186.146M4.3 6.91c2.014 2.042 4.737 3.17 7.726 3.093a1 1 0 0 0 .974-1V7.99c-.017-1.231.746-2.328 1.97-2.787 1.391-.52 2.544-.368 3.282.464a1 1 0 0 0 1.031.296c.208-.062.428-.121.655-.183l.262-.072a41.732 41.732 0 0 1-.386.753c-.106.207-.206.4-.285.558a9.094 9.094 0 0 0-.198.412c-.026.06-.055.13-.079.2l-.001.005c-.015.041-.07.202-.069.395a12.84 12.84 0 0 1-.46 3.48c-1.031 3.667-3.7 6.1-6.967 7.05" clip-rule="evenodd"/>
</svg>
