<svg fill="none" stroke="currentColor" viewBox="0 0 24 24">
  <path fill="#000" fill-rule="evenodd" d="M12 4a8 8 0 1 0 0 16 8 8 0 0 0 0-16zM2 12C2 6.477 6.477 2 12 2s10 4.477 10 10-4.477 10-10 10S2 17.523 2 12z" clip-rule="evenodd"/>
  <path fill="#000" fill-rule="evenodd" d="M10.736 8.975c-.435.725-.736 1.79-.736 3.021 0 1.231.301 2.297.736 3.021.447.745.925.98 1.264.98.34 0 .817-.235 1.264-.98.435-.724.736-1.79.736-3.02 0-1.231-.301-2.297-.736-3.022-.447-.744-.925-.979-1.264-.979-.34 0-.817.235-1.264.98zM9.021 7.946c.64-1.065 1.661-1.95 2.979-1.95s2.34.885 2.979 1.95c.65 1.085 1.021 2.52 1.021 4.05 0 1.531-.37 2.965-1.021 4.05-.64 1.065-1.661 1.95-2.979 1.95s-2.34-.885-2.979-1.95C8.371 14.961 8 13.527 8 11.996c0-1.53.37-2.965 1.021-4.05z" clip-rule="evenodd"/>
</svg>
