<svg fill="none" stroke="currentColor" viewBox="0 0 24 24">
  <path fill="#000" fill-rule="evenodd" d="M5.605 2.605C5.933 2.278 6.425 2 7 2h5.538c1.759 0 3.273.578 4.348 1.675.755.772 1.248 1.754 1.473 2.866C20.206 7.797 21 9.891 21 12c0 1.588-.815 2.972-1.922 3.933-1.096.951-2.559 1.562-4.041 1.572h-1.79l-.443 2.804A2 2 0 0 1 10.827 22h-.001l-2.71-.002m10.2-12.66c.455.739.684 1.653.684 2.663 0 .879-.455 1.747-1.233 2.422-.78.677-1.802 1.083-2.767 1.083h-2.608a1 1 0 0 0-.988.844L10.828 20l-2.127-.002.127-.806 1.146-4.966c.006-.023.01-.046.014-.07a.585.585 0 0 1 .045-.155l2.505-.003M5.605 2.605c-.311.312-.577.771-.603 1.31l.603-1.31zm-.603 1.31L3.01 17.859A1 1 0 0 0 3 18c0 .575.278 1.067.605 1.395.328.328.82.605 1.395.605h1.676l-.042.263M7 4.043 7 4.043a1 1 0 0 1-.009.097L5.014 17.974a.179.179 0 0 0 .028.025L7.051 18l.968-4.194c.071-.416.244-.851.57-1.2A1.9 1.9 0 0 1 9.999 12M7 4.042a.179.179 0 0 1 .02-.022L7 4.042zm.02-.022A.179.179 0 0 1 7.042 4l-.022.02zM7.042 4z" clip-rule="evenodd"/>
</svg>
