<svg fill="none" stroke="currentColor" viewBox="0 0 24 24">
  <path fill="#000" fill-rule="evenodd" d="M7.84 3.687a5.882 5.882 0 0 1 10.042 4.16c0 .703.007 1.324.031 1.878.387-.535.858-1.063 1.38-1.585a1 1 0 1 1 1.414 1.415c-1.497 1.496-1.907 2.441-1.838 3.073.065.59.618 1.398 2.562 2.434a1 1 0 0 1-.067 1.835c-1.038.458-1.323.602-1.532.811-.222.222-.394.553-.928 1.684a1 1 0 0 1-.904.573c-1.241 0-2.06.4-2.879.868-.083.047-.168.097-.256.149-.743.434-1.679.983-2.865.983-1.186 0-2.122-.549-2.865-.983a28.554 28.554 0 0 0-.256-.15c-.82-.468-1.638-.867-2.879-.867a1 1 0 0 1-.904-.573c-.534-1.13-.706-1.462-.928-1.684-.21-.209-.494-.353-1.532-.81a.996.996 0 0 1-.631-1.03 1 1 0 0 1 .564-.806c1.944-1.036 2.497-1.843 2.562-2.434.07-.632-.342-1.577-1.838-3.073A1 1 0 0 1 4.707 8.14c.522.522.993 1.05 1.38 1.585.024-.554.031-1.175.031-1.878 0-1.56.62-3.057 1.723-4.16zM5.158 15.938c.152.108.294.225.425.356.426.426.721.982 1.064 1.699 1.41.124 2.414.64 3.225 1.103l.231.133c.82.471 1.28.736 1.898.736.617 0 1.077-.265 1.898-.736l.23-.133c.812-.463 1.815-.98 3.226-1.103.343-.717.638-1.273 1.064-1.699a3.23 3.23 0 0 1 .425-.356c-1.09-.73-1.828-1.593-2.288-2.682-.634-1.5-.673-3.313-.673-5.41a3.882 3.882 0 1 0-7.764 0c0 2.097-.04 3.91-.673 5.41-.46 1.089-1.2 1.952-2.288 2.682z" clip-rule="evenodd"/>
</svg>
