<svg fill="none" stroke="currentColor" viewBox="0 0 24 24">
  <path fill="#000" fill-rule="evenodd" d="M7.538 3.008h8.926a1.999 1.999 0 0 1 1.65.873l3.536 5.193c.523.767.45 1.793-.173 2.48m0 0-7.993 8.79a2.007 2.007 0 0 1-2.971 0l-7.99-8.79s0 .001 0 0a2.008 2.008 0 0 1-.174-2.482l3.539-5.19a2 2 0 0 1 1.65-.874m-4.276 7.874.74-.673 7.99 8.79.003.001h.007l.002-.002 7.993-8.79v-.001l.002-.003v-.002M7.54 5.008 4 10.199a.018.018 0 0 0-.001.002v.003a.01.01 0 0 0 0 .003l.002.002-.74.673" clip-rule="evenodd"/>
</svg>
