<svg fill="none" stroke="currentColor" viewBox="0 0 24 24">
  <path fill="#000" fill-rule="evenodd" d="M9.062 3.219a13.334 13.334 0 0 1 5.876 0c1.11-.673 1.971-.991 2.612-1.128.355-.076.642-.096.862-.09a2.22 2.22 0 0 1 .416.052l.018.004.008.002.004.001h.002c0 .001.002.001-.273.963l.275-.962a1 1 0 0 1 .638.554 5.192 5.192 0 0 1 .291 3.396A5.567 5.567 0 0 1 21 9.457v.003c0 2.54-.745 4.287-2.049 5.416-.875.758-1.927 1.168-2.976 1.4.038.299.033.642.028.948L16 17.5V21a1 1 0 1 1-2 0v-3.5c0-.133.002-.255.003-.363v-.018l.003-.27c0-.172-.007-.27-.018-.336a.321.321 0 0 0-.035-.11.89.89 0 0 0-.158-.194 1 1 0 0 1 .598-1.703c1.334-.144 2.458-.457 3.25-1.142.747-.647 1.357-1.77 1.357-3.902a3.567 3.567 0 0 0-1.041-2.506 1 1 0 0 1-.224-1.068 3.192 3.192 0 0 0 .146-1.821c-.435.106-1.166.377-2.227 1.063a1 1 0 0 1-.795.128 11.334 11.334 0 0 0-5.718 0 1 1 0 0 1-.794-.128c-1.062-.685-1.793-.957-2.228-1.063a3.191 3.191 0 0 0 .146 1.821 1 1 0 0 1-.224 1.068A3.566 3.566 0 0 0 5 9.483v.003c0 2.114.608 3.221 1.355 3.863.794.683 1.921.997 3.264 1.158a1 1 0 0 1 .587 1.701c-.15.15-.194.26-.216.384-.032.178-.024.402.007.835A.998.998 0 0 1 10 17.5V21a1 1 0 1 1-2 0v-.756c-.656.079-1.247.036-1.784-.12-.875-.254-1.484-.773-1.935-1.293a9.101 9.101 0 0 1-.578-.754 44.23 44.23 0 0 1-.141-.202c-.109-.157-.203-.292-.302-.424-.288-.38-.434-.463-.514-.484a1 1 0 1 1 .508-1.934c.777.204 1.273.778 1.602 1.213.126.166.254.351.37.52l.114.163c.154.22.298.415.45.59.299.343.6.573.984.685.282.082.673.118 1.226.018v-.685c-.027-.37-.06-.826.017-1.274-1.044-.238-2.092-.647-2.965-1.397C3.747 13.746 3 12.012 3 9.487m2.413-6.464c-.275-.961-.274-.962-.273-.962h.002l.004-.002.008-.002.017-.004a1.311 1.311 0 0 1 .14-.028c.075-.012.167-.021.277-.024.22-.006.506.014.862.09.64.137 1.502.455 2.612 1.128" clip-rule="evenodd"/>
</svg>
