<svg fill="none" stroke="currentColor" viewBox="0 0 24 24">
  <path fill="#1F2937" fill-rule="evenodd" d="M5 7.996a1 1 0 0 0-1 1v9a1 1 0 0 0 1 1h14a1 1 0 0 0 1-1v-9a1 1 0 0 0-1-1H5zm-3 1a3 3 0 0 1 3-3h14a3 3 0 0 1 3 3v9a3 3 0 0 1-3 3H5a3 3 0 0 1-3-3v-9z" clip-rule="evenodd"/>
  <path fill="#1F2937" fill-rule="evenodd" d="M10 4a1 1 0 0 0-1 1v2a1 1 0 0 1-2 0V5a3 3 0 0 1 3-3h4a3 3 0 0 1 3 3v2a1 1 0 1 1-2 0V5a1 1 0 0 0-1-1h-4zM12 11a1 1 0 0 1 1 1v.01a1 1 0 1 1-2 0V12a1 1 0 0 1 1-1z" clip-rule="evenodd"/>
  <path fill="#1F2937" fill-rule="evenodd" d="M2.107 12.546a1 1 0 0 1 1.343-.443 19 19 0 0 0 17.1 0 1 1 0 0 1 .9 1.786 20.999 20.999 0 0 1-18.9 0 1 1 0 0 1-.443-1.343z" clip-rule="evenodd"/>
</svg>
