<svg fill="none" stroke="currentColor" viewBox="0 0 24 24">
  <path fill="#1F2937" fill-rule="evenodd" d="M12 10a2 2 0 1 0 0 4 2 2 0 0 0 0-4zm-4 2a4 4 0 1 1 8 0 4 4 0 0 1-8 0zM12 2a1 1 0 0 1 1 1v2a1 1 0 1 1-2 0V3a1 1 0 0 1 1-1zM19.107 4.894a1 1 0 0 1 0 1.415l-1.4 1.4a1 1 0 1 1-1.414-1.415l1.4-1.4a1 1 0 0 1 1.414 0zM18 12a1 1 0 0 1 1-1h2a1 1 0 1 1 0 2h-2a1 1 0 0 1-1-1zM16.293 16.297a1 1 0 0 1 1.414 0l1.4 1.4a1 1 0 0 1-1.414 1.414l-1.4-1.4a1 1 0 0 1 0-1.414zM12 17.996a1 1 0 0 1 1 1v2a1 1 0 1 1-2 0v-2a1 1 0 0 1 1-1zM7.707 16.297a1 1 0 0 1 0 1.414l-1.4 1.4a1 1 0 0 1-1.414-1.414l1.4-1.4a1 1 0 0 1 1.414 0zM3 12a1 1 0 0 1 1-1h2a1 1 0 1 1 0 2H4a1 1 0 0 1-1-1zM4.893 4.894a1 1 0 0 1 1.414 0l1.4 1.4A1 1 0 1 1 6.293 7.71l-1.4-1.4a1 1 0 0 1 0-1.415z" clip-rule="evenodd"/>
</svg>
