<svg fill="none" stroke="currentColor" viewBox="0 0 24 24">
  <path fill="#1F2937" fill-rule="evenodd" d="M7.585 14.054A3 3 0 0 0 4 16.996v3h3a3 3 0 0 0 .585-5.942zm-2.498-1.677A5 5 0 1 1 7 21.997H3a1 1 0 0 1-1-1v-4a5 5 0 0 1 3.087-4.62z" clip-rule="evenodd"/>
  <path fill="#1F2937" fill-rule="evenodd" d="M21.99 2.864a1 1 0 0 1-.854 1.127 15 15 0 0 0-12 9.562 1 1 0 0 1-1.872-.706 17 17 0 0 1 13.6-10.838 1 1 0 0 1 1.127.855z" clip-rule="evenodd"/>
  <path fill="#1F2937" fill-rule="evenodd" d="M21.136 2.01a1 1 0 0 1 .855 1.126 16.999 16.999 0 0 1-10.838 13.6 1 1 0 0 1-.706-1.872 15 15 0 0 0 9.562-12 1 1 0 0 1 1.127-.855z" clip-rule="evenodd"/>
  <path fill="#1F2937" fill-rule="evenodd" d="M9.692 8.58a1 1 0 0 1 1.327-.488 10 10 0 0 1 4.89 4.889 1 1 0 0 1-1.817.838 8 8 0 0 0-3.911-3.911 1 1 0 0 1-.489-1.327z" clip-rule="evenodd"/>
</svg>
