<svg fill="none" stroke="currentColor" viewBox="0 0 24 24">
  <path fill="#1F2937" fill-rule="evenodd" d="M4.22 8.374A1 1 0 0 1 5 8h14a1 1 0 0 1 .976 1.217l-1.994 8.974c-.127.742-.46 1.444-.985 1.969-.534.533-1.242.855-2.008.84H9.01c-.766.015-1.474-.307-2.008-.84-.524-.525-.858-1.227-.985-1.969L4.024 9.217a1 1 0 0 1 .196-.843zM6.247 10l1.73 7.783a.976.976 0 0 1 .01.056c.064.393.231.707.43.907.194.194.394.258.558.254H15.025c.164.004.364-.06.558-.254.199-.2.366-.514.43-.907a.95.95 0 0 1 .01-.056L17.754 10H6.247z" clip-rule="evenodd"/>
  <path fill="#1F2937" fill-rule="evenodd" d="M12 4.996a4 4 0 0 0-4 4 1 1 0 0 1-2 0 6 6 0 1 1 12 0 1 1 0 1 1-2 0 4 4 0 0 0-4-4z" clip-rule="evenodd"/>
</svg>
