<svg fill="none" stroke="currentColor" viewBox="0 0 24 24">
  <path fill="#1F2937" fill-rule="evenodd" d="M12 6.004a2 2 0 0 0-2 2v1a1 1 0 1 1-2 0v-1a4 4 0 0 1 8 0v1a1 1 0 1 1-2 0v-1a2 2 0 0 0-2-2z" clip-rule="evenodd"/>
  <path fill="#1F2937" fill-rule="evenodd" d="M7.159 8.459A7 7 0 0 0 6 12v3a6 6 0 1 0 12 0v-3c0-.018 0-.037-.002-.055a7 7 0 0 0-1.166-3.5A1 1 0 0 0 16 8H8.015a1.005 1.005 0 0 0-.856.459zM8.567 10A5 5 0 0 0 8 12.029V15a4 4 0 1 0 8 0v-2.971A5 5 0 0 0 15.433 10H8.567z" clip-rule="evenodd"/>
  <path fill="#1F2937" fill-rule="evenodd" d="M2 12.996a1 1 0 0 1 1-1h4a1 1 0 1 1 0 2H3a1 1 0 0 1-1-1zM16 12.996a1 1 0 0 1 1-1h4a1 1 0 1 1 0 2h-4a1 1 0 0 1-1-1zM12 13.004a1 1 0 0 1 1 1v6a1 1 0 1 1-2 0v-6a1 1 0 0 1 1-1zM8.209 16.491a1 1 0 0 1-.346 1.371l-3.35 2a1 1 0 0 1-1.025-1.717l3.35-2a1 1 0 0 1 1.37.346zM15.791 16.491a1 1 0 0 1 1.372-.346l3.35 2a1 1 0 1 1-1.026 1.717l-3.35-2a1 1 0 0 1-.346-1.37zM3.158 6.457a1 1 0 0 1 1.381-.303l3.75 2.4a1 1 0 0 1-1.078 1.684l-3.75-2.4a1 1 0 0 1-.303-1.38zM20.842 6.457a1 1 0 0 1-.303 1.381l-3.75 2.4a1 1 0 0 1-1.078-1.684l3.75-2.4a1 1 0 0 1 1.381.303z" clip-rule="evenodd"/>
</svg>
