<svg fill="none" stroke="currentColor" viewBox="0 0 24 24">
  <path fill="#1F2937" fill-rule="evenodd" d="M6 4.004a1 1 0 0 1 1 1v14a1 1 0 0 1-2 0v-14a1 1 0 0 1 1-1zM18 4.004a1 1 0 0 1 1 1v14a1 1 0 0 1-2 0v-14a1 1 0 0 1 1-1z" clip-rule="evenodd"/>
  <path fill="#1F2937" fill-rule="evenodd" d="M1 15a1 1 0 0 1 1-1h20a1 1 0 1 1 0 2H2a1 1 0 0 1-1-1zM6.172 5.015a1 1 0 0 1 .75.6 5.5 5.5 0 0 0 10.155 0 1 1 0 0 1 1.661-.29 6.5 6.5 0 0 0 2.6 1.734 1 1 0 1 1-.677 1.882 8.502 8.502 0 0 1-2.39-1.327 7.5 7.5 0 0 1-12.542 0 8.5 8.5 0 0 1-2.39 1.327 1 1 0 0 1-.678-1.882 6.5 6.5 0 0 0 2.6-1.733 1 1 0 0 1 .91-.311z" clip-rule="evenodd"/>
  <path fill="#1F2937" fill-rule="evenodd" d="M12 8.996a1 1 0 0 1 1 1v5a1 1 0 1 1-2 0v-5a1 1 0 0 1 1-1z" clip-rule="evenodd"/>
</svg>
