<svg fill="none" stroke="currentColor" viewBox="0 0 24 24">
  <path fill="#1F2937" fill-rule="evenodd" d="M2 21a1 1 0 0 1 1-1h18a1 1 0 1 1 0 2H3a1 1 0 0 1-1-1zM2 9.996a1 1 0 0 1 1-1h18a1 1 0 1 1 0 2H3a1 1 0 0 1-1-1zM11.606 2.08a1 1 0 0 1 .788 0l7 3a1 1 0 1 1-.788 1.84L12 4.087 5.394 6.919a1 1 0 0 1-.788-1.838l7-3z" clip-rule="evenodd"/>
  <path fill="#1F2937" fill-rule="evenodd" d="M4 8.996a1 1 0 0 1 1 1v11a1 1 0 1 1-2 0v-11a1 1 0 0 1 1-1zM20 8.996a1 1 0 0 1 1 1v11a1 1 0 1 1-2 0v-11a1 1 0 0 1 1-1zM8 13.004a1 1 0 0 1 1 1v3a1 1 0 0 1-2 0v-3a1 1 0 0 1 1-1zM12 13.004a1 1 0 0 1 1 1v3a1 1 0 0 1-2 0v-3a1 1 0 0 1 1-1zM16 13.004a1 1 0 0 1 1 1v3a1 1 0 0 1-2 0v-3a1 1 0 0 1 1-1z" clip-rule="evenodd"/>
</svg>
