<svg fill="none" stroke="currentColor" viewBox="0 0 24 24">
  <path fill="#1F2937" fill-rule="evenodd" d="M12 16.996a1 1 0 0 0-1 1v3a1 1 0 0 1-1 1H3a1 1 0 1 1 0-2h6v-2a3 3 0 0 1 6 0v2h6a1 1 0 0 1 0 2h-7a1 1 0 0 1-1-1v-3a1 1 0 0 0-1-1z" clip-rule="evenodd"/>
  <path fill="#1F2937" fill-rule="evenodd" d="M6 11a1 1 0 0 1 1 1v9a1 1 0 1 1-2 0v-9a1 1 0 0 1 1-1zM18 11a1 1 0 0 1 1 1v9a1 1 0 1 1-2 0v-9a1 1 0 0 1 1-1z" clip-rule="evenodd"/>
  <path fill="#1F2937" fill-rule="evenodd" d="M12 2a1 1 0 0 1 .96.722c.44 1.516 1.455 2.88 2.91 3.85 1.457.97 3.256 1.48 5.102 1.428A1 1 0 0 1 22 9a4 4 0 0 1-4 4H6a4 4 0 0 1-4-4 1 1 0 0 1 1.028-1c1.846.052 3.645-.457 5.102-1.428 1.455-.97 2.47-2.334 2.91-3.85A1 1 0 0 1 12 2zm0 3.42a9.372 9.372 0 0 1-2.76 2.816c-1.47.98-3.199 1.57-4.993 1.726A1.998 1.998 0 0 0 6 11h12a2 2 0 0 0 1.753-1.038 10.679 10.679 0 0 1-4.992-1.726A9.371 9.371 0 0 1 12 5.42z" clip-rule="evenodd"/>
</svg>
