<svg fill="none" stroke="currentColor" viewBox="0 0 24 24">
  <path fill="#1F2937" fill-rule="evenodd" d="M8.586 2.586A2 2 0 0 1 10 2h10a2 2 0 0 1 2 2v17a1 1 0 0 1-1 1H3a1 1 0 0 1-1-1v-7a1 1 0 0 1 .293-.707l5-5A.997.997 0 0 1 8 8V4a2 2 0 0 1 .586-1.414zM7 11.414l-3 3V20h3v-8.586zM9 20h3v-5.586l-3-3V20zm5 0v-6a1 1 0 0 0-.293-.707L10 9.586V4h10v16h-6z" clip-rule="evenodd"/>
  <path fill="#1F2937" fill-rule="evenodd" d="M13 5.996a1 1 0 0 1 1 1v.01a1 1 0 1 1-2 0v-.01a1 1 0 0 1 1-1zM17 5.996a1 1 0 0 1 1 1v.01a1 1 0 1 1-2 0v-.01a1 1 0 0 1 1-1zM17 10.004a1 1 0 0 1 1 1v.01a1 1 0 0 1-2 0v-.01a1 1 0 0 1 1-1zM17 14a1 1 0 0 1 1 1v.01a1 1 0 1 1-2 0V15a1 1 0 0 1 1-1z" clip-rule="evenodd"/>
</svg>
