<svg fill="none" stroke="currentColor" viewBox="0 0 24 24">
  <path fill="#1F2937" fill-rule="evenodd" d="M2 21a1 1 0 0 1 1-1h18a1 1 0 1 1 0 2H3a1 1 0 0 1-1-1zM8 8.004a1 1 0 0 1 1-1h1a1 1 0 1 1 0 2H9a1 1 0 0 1-1-1zM8 12a1 1 0 0 1 1-1h1a1 1 0 1 1 0 2H9a1 1 0 0 1-1-1zM8 15.996a1 1 0 0 1 1-1h1a1 1 0 0 1 0 2H9a1 1 0 0 1-1-1zM13 8.004a1 1 0 0 1 1-1h1a1 1 0 1 1 0 2h-1a1 1 0 0 1-1-1zM13 12a1 1 0 0 1 1-1h1a1 1 0 1 1 0 2h-1a1 1 0 0 1-1-1zM13 15.996a1 1 0 0 1 1-1h1a1 1 0 0 1 0 2h-1a1 1 0 0 1-1-1z" clip-rule="evenodd"/>
  <path fill="#1F2937" fill-rule="evenodd" d="M7 4a1 1 0 0 0-1 1v16a1 1 0 1 1-2 0V5a3 3 0 0 1 3-3h10a3 3 0 0 1 3 3v16a1 1 0 1 1-2 0V5a1 1 0 0 0-1-1H7z" clip-rule="evenodd"/>
</svg>
