<svg fill="none" stroke="currentColor" viewBox="0 0 24 24">
  <path fill="#1F2937" fill-rule="evenodd" d="M2 21a1 1 0 0 1 1-1h18a1 1 0 1 1 0 2H3a1 1 0 0 1-1-1z" clip-rule="evenodd"/>
  <path fill="#1F2937" fill-rule="evenodd" d="M12 16a1 1 0 0 0-1 1v4a1 1 0 1 1-2 0v-4a3 3 0 1 1 6 0v4a1 1 0 1 1-2 0v-4a1 1 0 0 0-1-1zM9 5.004a1 1 0 0 1 1-1h4a1 1 0 1 1 0 2h-4a1 1 0 0 1-1-1z" clip-rule="evenodd"/>
  <path fill="#1F2937" fill-rule="evenodd" d="M12 2a1 1 0 0 1 1 1v5a1 1 0 1 1-2 0V3a1 1 0 0 1 1-1z" clip-rule="evenodd"/>
  <path fill="#1F2937" fill-rule="evenodd" d="M12 7.004a1 1 0 0 1 .707.293l8 8a1 1 0 0 1-1.414 1.414L19 16.418v4.586a1 1 0 0 1-2 0v-6.586l-5-5-5 5v6.586a1 1 0 0 1-2 0v-4.586l-.293.293a1 1 0 0 1-1.414-1.414l2-2 6-6A1 1 0 0 1 12 7.004z" clip-rule="evenodd"/>
</svg>
