<svg fill="none" stroke="currentColor" viewBox="0 0 24 24">
  <path fill="#1F2937" fill-rule="evenodd" d="M2 21a1 1 0 0 1 1-1h18a1 1 0 1 1 0 2H3a1 1 0 0 1-1-1zM4.106 2.553A1 1 0 0 1 5 2h14a1 1 0 0 1 .894.553l1.991 3.982A.991.991 0 0 1 22 7.02V8a4 4 0 0 1-7 2.646 4 4 0 0 1-6 0A4 4 0 0 1 2 8V6.985a.995.995 0 0 1 .115-.45l1.99-3.982zm6.069 6.265a1.999 1.999 0 0 0 3.817-.636l-3.817.636zM15.004 6H4.618l1-2h12.764l1 2h-4.378zM16 8a2 2 0 1 0 4 0h-4zM4 8h4a2 2 0 1 1-4 0z" clip-rule="evenodd"/>
  <path fill="#1F2937" fill-rule="evenodd" d="M5 9.851a1 1 0 0 1 1 1v10.15a1 1 0 1 1-2 0v-10.15a1 1 0 0 1 1-1zM19 9.851a1 1 0 0 1 1 1v10.15a1 1 0 1 1-2 0v-10.15a1 1 0 0 1 1-1zM11 16a1 1 0 0 0-1 1v4a1 1 0 1 1-2 0v-4a3 3 0 0 1 3-3h2a3 3 0 0 1 3 3v4a1 1 0 1 1-2 0v-4a1 1 0 0 0-1-1h-2z" clip-rule="evenodd"/>
</svg>
