<svg fill="none" stroke="currentColor" viewBox="0 0 24 24">
  <path fill="#1F2937" fill-rule="evenodd" d="M2 21a1 1 0 0 1 1-1h18a1 1 0 1 1 0 2H3a1 1 0 0 1-1-1z" clip-rule="evenodd"/>
  <path fill="#1F2937" fill-rule="evenodd" d="M7 4a1 1 0 0 0-1 1v16a1 1 0 1 1-2 0V5a3 3 0 0 1 3-3h10a3 3 0 0 1 3 3v16a1 1 0 1 1-2 0V5a1 1 0 0 0-1-1H7z" clip-rule="evenodd"/>
  <path fill="#1F2937" fill-rule="evenodd" d="M11 16a1 1 0 0 0-1 1v4a1 1 0 1 1-2 0v-4a3 3 0 0 1 3-3h2a3 3 0 0 1 3 3v4a1 1 0 1 1-2 0v-4a1 1 0 0 0-1-1h-2zM9 9a1 1 0 0 1 1-1h4a1 1 0 1 1 0 2h-4a1 1 0 0 1-1-1z" clip-rule="evenodd"/>
  <path fill="#1F2937" fill-rule="evenodd" d="M12 5.996a1 1 0 0 1 1 1v4a1 1 0 1 1-2 0v-4a1 1 0 0 1 1-1z" clip-rule="evenodd"/>
</svg>
