<svg fill="none" stroke="currentColor" viewBox="0 0 24 24">
  <path fill="#1F2937" fill-rule="evenodd" d="M2 21a1 1 0 0 1 1-1h18a1 1 0 1 1 0 2H3a1 1 0 0 1-1-1z" clip-rule="evenodd"/>
  <path fill="#1F2937" fill-rule="evenodd" d="M6 4.996a1 1 0 0 0-1 1v15a1 1 0 1 1-2 0v-15a3 3 0 0 1 3-3h12a3 3 0 0 1 3 3v15a1 1 0 1 1-2 0v-15a1 1 0 0 0-1-1H6z" clip-rule="evenodd"/>
  <path fill="#1F2937" fill-rule="evenodd" d="M12 10.996a2 2 0 0 0-2 2v8a1 1 0 1 1-2 0v-8a4 4 0 0 1 8 0v8a1 1 0 1 1-2 0v-8a2 2 0 0 0-2-2z" clip-rule="evenodd"/>
</svg>
