<svg fill="none" stroke="currentColor" viewBox="0 0 24 24">
  <path fill="#1F2937" fill-rule="evenodd" d="M12 2a1 1 0 0 1 1 1v1a1 1 0 1 1-2 0V3a1 1 0 0 1 1-1zM4.893 4.893a1 1 0 0 1 1.414 0l.7.7a1 1 0 0 1-1.414 1.414l-.7-.7a1 1 0 0 1 0-1.414zm14.214 0a1 1 0 0 1 0 1.414l-.7.7a1 1 0 1 1-1.414-1.414l.7-.7a1 1 0 0 1 1.414 0zM2 12a1 1 0 0 1 1-1h1a1 1 0 1 1 0 2H3a1 1 0 0 1-1-1zm17 0a1 1 0 0 1 1-1h1a1 1 0 1 1 0 2h-1a1 1 0 0 1-1-1zM12 7.996a4 4 0 0 0-2.412 7.191.987.987 0 0 1 .13.112 4.5 4.5 0 0 1 1.284 3.754 1 1 0 0 0 1.996 0 4.5 4.5 0 0 1 1.299-3.768 1 1 0 0 1 .103-.089 4 4 0 0 0-2.4-7.2zM8.338 16.75a6 6 0 1 1 7.324 0 2.5 2.5 0 0 0-.673 2.1c.007.05.011.098.011.147a3 3 0 0 1-6 0 1 1 0 0 1 .01-.146 2.5 2.5 0 0 0-.672-2.1z" clip-rule="evenodd"/>
  <path fill="#1F2937" fill-rule="evenodd" d="M8.7 17.004a1 1 0 0 1 1-1h4.6a1 1 0 1 1 0 2H9.7a1 1 0 0 1-1-1z" clip-rule="evenodd"/>
</svg>
