<svg fill="none" stroke="currentColor" viewBox="0 0 24 24">
  <path fill="#1F2937" fill-rule="evenodd" d="M6 16a1 1 0 1 0 0 2 1 1 0 0 0 0-2zm-3 1a3 3 0 1 1 6 0 3 3 0 0 1-6 0zM18 16a1 1 0 1 0 0 2 1 1 0 0 0 0-2zm-3 1a3 3 0 1 1 6 0 3 3 0 0 1-6 0z" clip-rule="evenodd"/>
  <path fill="#1F2937" fill-rule="evenodd" d="M1.586 4.59A2 2 0 0 1 3 4.003h14c1.72 0 3.27.957 4.35 2.469C22.425 7.98 23 9.97 23 12.003v5a1 1 0 0 1-1 1H2a1 1 0 0 1-1-1v-11a2 2 0 0 1 .586-1.414zM21 16.003v-4c0-1.681-.48-3.25-1.278-4.369-.796-1.114-1.79-1.631-2.722-1.631H3v10h18z" clip-rule="evenodd"/>
  <path fill="#1F2937" fill-rule="evenodd" d="M15.79 4.026a1 1 0 0 1 1.188.768l1.33 6.21H22a1 1 0 1 1 0 2h-4.5a1 1 0 0 1-.978-.79l-1.5-7a1 1 0 0 1 .769-1.188z" clip-rule="evenodd"/>
  <path fill="#1F2937" fill-rule="evenodd" d="M1 9.996a1 1 0 0 1 1-1h15a1 1 0 1 1 0 2H2a1 1 0 0 1-1-1z" clip-rule="evenodd"/>
  <path fill="#1F2937" fill-rule="evenodd" d="M7 4.004a1 1 0 0 1 1 1v5a1 1 0 0 1-2 0v-5a1 1 0 0 1 1-1zM12 4.004a1 1 0 0 1 1 1v5a1 1 0 0 1-2 0v-5a1 1 0 0 1 1-1z" clip-rule="evenodd"/>
</svg>
