<svg fill="none" stroke="currentColor" viewBox="0 0 24 24">
  <path fill="#1F2937" fill-rule="evenodd" d="M6 4a1 1 0 0 0-1 1v14a1 1 0 0 0 1 1h12a1 1 0 0 0 1-1V5a1 1 0 0 0-1-1H6zM3 5a3 3 0 0 1 3-3h12a3 3 0 0 1 3 3v14a3 3 0 0 1-3 3H6a3 3 0 0 1-3-3V5z" clip-rule="evenodd"/>
  <path fill="#1F2937" fill-rule="evenodd" d="M7 7.996a2 2 0 0 1 2-2h6a2 2 0 0 1 2 2v1a2 2 0 0 1-2 2H9a2 2 0 0 1-2-2v-1zm8 0H9v1h6v-1zM8 13.004a1 1 0 0 1 1 1v.01a1 1 0 0 1-2 0v-.01a1 1 0 0 1 1-1zM12 13.004a1 1 0 0 1 1 1v.01a1 1 0 0 1-2 0v-.01a1 1 0 0 1 1-1zM16 13.004a1 1 0 0 1 1 1v.01a1 1 0 0 1-2 0v-.01a1 1 0 0 1 1-1zM8 16.004a1 1 0 0 1 1 1v.01a1 1 0 0 1-2 0v-.01a1 1 0 0 1 1-1zM12 16.004a1 1 0 0 1 1 1v.01a1 1 0 0 1-2 0v-.01a1 1 0 0 1 1-1zM16 16.004a1 1 0 0 1 1 1v.01a1 1 0 0 1-2 0v-.01a1 1 0 0 1 1-1z" clip-rule="evenodd"/>
</svg>
