<svg fill="none" stroke="currentColor" viewBox="0 0 24 24">
  <path fill="#1F2937" fill-rule="evenodd" d="M7.586 3.593A2 2 0 0 1 9 3.008h6a2 2 0 0 1 2 2 1 1 0 0 0 1 1h1a3 3 0 0 1 3 3v9a3 3 0 0 1-3 3H5a3 3 0 0 1-3-3v-9a3 3 0 0 1 3-3h1a1 1 0 0 0 1-1 2 2 0 0 1 .586-1.415zM5 8.008a1 1 0 0 0-1 1v9a1 1 0 0 0 1 1h14a1 1 0 0 0 1-1v-9a1 1 0 0 0-1-1h-1a3 3 0 0 1-3-3H9a3 3 0 0 1-3 3H5z" clip-rule="evenodd"/>
  <path fill="#1F2937" fill-rule="evenodd" d="M12 11.008a2 2 0 1 0 0 4 2 2 0 0 0 0-4zm-4 2a4 4 0 1 1 8 0 4 4 0 0 1-8 0z" clip-rule="evenodd"/>
</svg>
