<svg fill="none" stroke="currentColor" viewBox="0 0 24 24">
  <path fill="#1F2937" fill-rule="evenodd" d="M7 16a1 1 0 1 0 0 2 1 1 0 0 0 0-2zm-3 1a3 3 0 1 1 6 0 3 3 0 0 1-6 0zM17 16a1 1 0 1 0 0 2 1 1 0 0 0 0-2zm-3 1a3 3 0 1 1 6 0 3 3 0 0 1-6 0z" clip-rule="evenodd"/>
  <path fill="#1F2937" fill-rule="evenodd" d="M4.072 5.629A1 1 0 0 1 5 5h9a1 1 0 0 1 .78.375L18.48 10H19a3 3 0 0 1 3 3v4a1 1 0 0 1-1 1H3a1 1 0 0 1-1-1v-6c0-.14.028-.272.08-.392l1.992-4.98zM4 12h15a1 1 0 0 1 1 1v3H4v-4zm11.92-2H13V7h.52l2.4 3zM11 7H5.677l-1.2 3H11V7z" clip-rule="evenodd"/>
</svg>
