<svg fill="none" stroke="currentColor" viewBox="0 0 24 24">
  <path fill="#1F2937" fill-rule="evenodd" d="M9 10a1 1 0 0 0-1 1v6a1 1 0 0 0 1 1h10a1 1 0 0 0 1-1v-6a1 1 0 0 0-1-1H9zm-3 1a3 3 0 0 1 3-3h10a3 3 0 0 1 3 3v6a3 3 0 0 1-3 3H9a3 3 0 0 1-3-3v-6z" clip-rule="evenodd"/>
  <path fill="#1F2937" fill-rule="evenodd" d="M14 13a1 1 0 1 0 0 2 1 1 0 0 0 0-2zm-3 1a3 3 0 1 1 6 0 3 3 0 0 1-6 0z" clip-rule="evenodd"/>
  <path fill="#1F2937" fill-rule="evenodd" d="M2.879 4.871A3 3 0 0 1 5 3.993h10a3 3 0 0 1 3 3v2a1 1 0 1 1-2 0v-2a1 1 0 0 0-1-1H5a1 1 0 0 0-1 1v6a1 1 0 0 0 1 1h2a1 1 0 1 1 0 2H5a3 3 0 0 1-3-3v-6a3 3 0 0 1 .879-2.122z" clip-rule="evenodd"/>
</svg>
