<svg fill="none" stroke="currentColor" viewBox="0 0 24 24">
  <path fill="#1F2937" fill-rule="evenodd" d="M2 19.007a1 1 0 0 1 1-1h.01a1 1 0 0 1 0 2H3a1 1 0 0 1-1-1zM2 15a1 1 0 0 1 1-1 5 5 0 0 1 5 5 1 1 0 1 1-2 0 3 3 0 0 0-3-3 1 1 0 0 1-1-1z" clip-rule="evenodd"/>
  <path fill="#1F2937" fill-rule="evenodd" d="M2 10.993a1 1 0 0 1 1-1 9 9 0 0 1 9 9 1 1 0 0 1-2 0 7 7 0 0 0-7-7 1 1 0 0 1-1-1z" clip-rule="evenodd"/>
  <path fill="#1F2937" fill-rule="evenodd" d="M6 3.992h12a4 4 0 0 1 4 4v8a4 4 0 0 1-4 4h-3a1 1 0 1 1 0-2h3a2 2 0 0 0 2-2v-8a2 2 0 0 0-2-2H6.005a2 2 0 0 0-1.862 1.334 1 1 0 1 1-1.886-.667A4 4 0 0 1 5.99 3.993H6z" clip-rule="evenodd"/>
</svg>
