<svg fill="none" stroke="currentColor" viewBox="0 0 24 24">
  <path fill="#1F2937" fill-rule="evenodd" d="M15.945 9.009a1 1 0 0 1 .762.291l4 4a1 1 0 0 1 .293.707v5a1 1 0 0 1-1 1H4a1 1 0 0 1-.832-1.554l4-6a1 1 0 0 1 1.28-.34l3.276 1.639 3.495-4.37a1 1 0 0 1 .726-.373zm.138 2.496-3.302 4.127a1 1 0 0 1-1.228.27l-3.21-1.605-2.474 3.71H19v-3.585l-2.917-2.917z" clip-rule="evenodd"/>
  <path fill="#1F2937" fill-rule="evenodd" d="M15.955 3.008a1 1 0 0 1 .752.292l4 4a1 1 0 0 1-1.414 1.415l-3.226-3.226-4.299 5.159a1 1 0 0 1-1.215.254L7.299 9.275 4.8 12.607a1 1 0 1 1-1.6-1.2l3-4a1 1 0 0 1 1.247-.294l3.292 1.646 4.493-5.392a1 1 0 0 1 .723-.359z" clip-rule="evenodd"/>
</svg>
