<svg fill="none" stroke="currentColor" viewBox="0 0 24 24">
  <path fill="#1F2937" fill-rule="evenodd" d="M9.883 2.2A1.9 1.9 0 0 1 12 3.993v7a1 1 0 0 0 1 1h6.8a2 2 0 0 1 2 2 .998.998 0 0 1-.026.226 10 10 0 1 1-12-12 .998.998 0 0 1 .11-.019zM10 4.223a8 8 0 1 0 9.77 9.77H13a3 3 0 0 1-3-3v-6.77z" clip-rule="evenodd"/>
  <path fill="#1F2937" fill-rule="evenodd" d="M14.422 2.676a1 1 0 0 1 .91-.127 10 10 0 0 1 6.111 6.111 1 1 0 0 1-.943 1.333H16a2 2 0 0 1-2-2v-4.5a1 1 0 0 1 .422-.817zM16 5.047v2.946h2.945A8 8 0 0 0 16 5.047z" clip-rule="evenodd"/>
</svg>
