<svg fill="none" stroke="currentColor" viewBox="0 0 24 24">
  <path fill="#1F2937" fill-rule="evenodd" d="M9.883 2.2A1.9 1.9 0 0 1 12 3.993v4a1 1 0 0 1-.748.968 3.1 3.1 0 1 0 3.78 3.78 1 1 0 0 1 .968-.748h3.8a2 2 0 0 1 2 2 .998.998 0 0 1-.026.226 10 10 0 1 1-12-12 .998.998 0 0 1 .11-.019zM10 4.223a8 8 0 1 0 9.77 9.77h-3.06A5.1 5.1 0 1 1 10 7.283v-3.06z" clip-rule="evenodd"/>
  <path fill="#1F2937" fill-rule="evenodd" d="M14.422 2.676a1 1 0 0 1 .91-.127 10 10 0 0 1 6.111 6.111 1 1 0 0 1-.943 1.333H16a1 1 0 0 1-.76-.351 7.993 7.993 0 0 0-.89-.889 1 1 0 0 1-.35-.76v-4.5a1 1 0 0 1 .422-.817zM16 5.047v2.5a10 10 0 0 1 .447.446h2.498A8 8 0 0 0 16 5.047z" clip-rule="evenodd"/>
</svg>
