<svg fill="none" stroke="currentColor" viewBox="0 0 24 24">
  <path fill="#1F2937" fill-rule="evenodd" d="M2 13a2 2 0 0 1 2-2h4a2 2 0 0 1 2 2v6a2 2 0 0 1-2 2H4a2 2 0 0 1-2-2v-6zm6 0H4v6h4v-6z" clip-rule="evenodd"/>
  <path fill="#1F2937" fill-rule="evenodd" d="M8 8.993a2 2 0 0 1 2-2h4a2 2 0 0 1 2 2v10a2 2 0 0 1-2 2h-4a2 2 0 0 1-2-2v-10zm6 0h-4v10h4v-10z" clip-rule="evenodd"/>
  <path fill="#1F2937" fill-rule="evenodd" d="M14 5.007a2 2 0 0 1 2-2h4a2 2 0 0 1 2 2v14a2 2 0 0 1-2 2h-4a2 2 0 0 1-2-2v-14zm6 0h-4v14h4v-14z" clip-rule="evenodd"/>
  <path fill="#1F2937" fill-rule="evenodd" d="M3 19.993a1 1 0 0 1 1-1h14a1 1 0 1 1 0 2H4a1 1 0 0 1-1-1z" clip-rule="evenodd"/>
</svg>
