<svg fill="none" stroke="currentColor" viewBox="0 0 24 24">
  <path fill="#1F2937" fill-rule="evenodd" d="M15 6.996a1 1 0 0 1 1-1h1a3 3 0 0 1 3 3v.086a1.5 1.5 0 0 1 1 1.414v3a1.5 1.5 0 0 1-1 1.415v.085a3 3 0 0 1-3 3h-2a1 1 0 1 1 0-2h2a1 1 0 0 0 1-1v-.5a1.5 1.5 0 0 1 1-1.414v-2.171a1.5 1.5 0 0 1-1-1.415v-.5a1 1 0 0 0-1-1h-1a1 1 0 0 1-1-1zM3.879 6.875A3 3 0 0 1 6 5.996h2a1 1 0 1 1 0 2H6a1 1 0 0 0-1 1v6a1 1 0 0 0 1 1h1a1 1 0 0 1 0 2H6a3 3 0 0 1-3-3v-6a3 3 0 0 1 .879-2.121zM12.447 7.11a1 1 0 0 1 .447 1.34l-1.276 2.554H13a1 1 0 0 1 .894 1.447l-2 4a1 1 0 1 1-1.788-.895l1.276-2.552H10a1 1 0 0 1-.894-1.448l2-4a1 1 0 0 1 1.341-.447z" clip-rule="evenodd"/>
</svg>
