<svg fill="none" stroke="currentColor" viewBox="0 0 24 24">
  <path fill="#1F2937" fill-rule="evenodd" d="M6.793 3.793a1 1 0 0 1 1.414 1.414l-2.5 2.5a1 1 0 0 1-1.414 0l-1.5-1.5a1 1 0 0 1 1.414-1.414L5 5.586l1.793-1.793zM6.793 9.793a1 1 0 0 1 1.414 1.414l-2.5 2.5a1 1 0 0 1-1.414 0l-1.5-1.5a1 1 0 1 1 1.414-1.414l.793.793 1.793-1.793zM6.793 15.793a1 1 0 0 1 1.414 1.414l-2.5 2.5a1 1 0 0 1-1.414 0l-1.5-1.5a1 1 0 1 1 1.414-1.414l.793.793 1.793-1.793zM10 6a1 1 0 0 1 1-1h9a1 1 0 1 1 0 2h-9a1 1 0 0 1-1-1zM10 12a1 1 0 0 1 1-1h9a1 1 0 1 1 0 2h-9a1 1 0 0 1-1-1zM10 18a1 1 0 0 1 1-1h9a1 1 0 1 1 0 2h-9a1 1 0 0 1-1-1z" clip-rule="evenodd"/>
</svg>
