<svg fill="none" stroke="currentColor" viewBox="0 0 24 24">
  <path fill="#1F2937" fill-rule="evenodd" d="M12 4a8 8 0 1 0 0 16 8 8 0 0 0 0-16zM2 12C2 6.477 6.477 2 12 2s10 4.477 10 10-4.477 10-10 10S2 17.523 2 12z" clip-rule="evenodd"/>
  <path fill="#1F2937" fill-rule="evenodd" d="M9.293 9.3a1 1 0 0 1 1.414 0L12 10.593 13.293 9.3a1 1 0 1 1 1.414 1.415l-1.293 1.292 1.293 1.293a1 1 0 0 1-1.414 1.415L12 13.422l-1.293 1.293A1 1 0 0 1 9.293 13.3l1.293-1.293-1.293-1.292a1 1 0 0 1 0-1.415z" clip-rule="evenodd"/>
</svg>
