<svg fill="none" stroke="currentColor" viewBox="0 0 24 24">
  <path fill="#1F2937" fill-rule="evenodd" d="M16.293 14.293a1 1 0 0 1 1.414 0L19 15.586l1.293-1.293a1 1 0 0 1 1.414 1.414L20.414 17l1.293 1.293a1 1 0 0 1-1.414 1.414L19 18.414l-1.293 1.293a1 1 0 0 1-1.414-1.414L17.586 17l-1.293-1.293a1 1 0 0 1 0-1.414zM6 4.992a1 1 0 0 1 1-1h11a1 1 0 0 1 1 1v1a1 1 0 1 1-2 0H8a1 1 0 1 1-2 0v-1zM6 19.008a1 1 0 0 1 1-1h4a1 1 0 1 1 0 2H7a1 1 0 0 1-1-1z" clip-rule="evenodd"/>
  <path fill="#1F2937" fill-rule="evenodd" d="M13.274 4.031a1 1 0 0 1 .687 1.236l-4 14a1 1 0 1 1-1.923-.55l4-14a1 1 0 0 1 1.236-.686z" clip-rule="evenodd"/>
</svg>
