<svg fill="none" stroke="currentColor" viewBox="0 0 24 24">
  <path fill="#1F2937" fill-rule="evenodd" d="M2 12a1 1 0 0 1 1-1h3a1 1 0 1 1 0 2H3a1 1 0 0 1-1-1zM12 2a1 1 0 0 1 1 1v3a1 1 0 1 1-2 0V3a1 1 0 0 1 1-1zM4.893 4.895a1 1 0 0 1 1.414 0l2.2 2.2a1 1 0 1 1-1.414 1.414l-2.2-2.2a1 1 0 0 1 0-1.414zM19.107 4.895a1 1 0 0 1 0 1.414l-2.2 2.2a1 1 0 1 1-1.414-1.414l2.2-2.2a1 1 0 0 1 1.414 0zM8.507 15.488a1 1 0 0 1 0 1.414l-2.2 2.2a1 1 0 0 1-1.414-1.414l2.2-2.2a1 1 0 0 1 1.414 0zM11.293 11.293a1 1 0 0 1 1.023-.242l9 3a1 1 0 0 1 .131 1.844l-3.702 1.85-1.85 3.702a1 1 0 0 1-1.844-.13l-3-9a1 1 0 0 1 .242-1.024zm2.288 2.288 1.604 4.813.92-1.841a1 1 0 0 1 .448-.447l1.84-.92-4.812-1.605z" clip-rule="evenodd"/>
</svg>
