<svg fill="none" stroke="currentColor" viewBox="0 0 24 24">
  <path fill="#1F2937" fill-rule="evenodd" d="M4.879 4.871A3 3 0 0 1 7 3.992h2a1 1 0 0 1 0 2H7a1 1 0 0 0-1 1v12a1 1 0 0 0 1 1h10a1 1 0 0 0 1-1v-12a1 1 0 0 0-1-1h-2a1 1 0 1 1 0-2h2a3 3 0 0 1 3 3v12a3 3 0 0 1-3 3H7a3 3 0 0 1-3-3v-12a3 3 0 0 1 .879-2.12z" clip-rule="evenodd"/>
  <path fill="#1F2937" fill-rule="evenodd" d="M11 4a1 1 0 1 0 0 2h2a1 1 0 1 0 0-2h-2zM8 5a3 3 0 0 1 3-3h2a3 3 0 1 1 0 6h-2a3 3 0 0 1-3-3z" clip-rule="evenodd"/>
</svg>
