<svg fill="none" stroke="currentColor" viewBox="0 0 24 24">
  <path fill="#1F2937" fill-rule="evenodd" d="M13.432 6.03a5.223 5.223 0 0 0-1.837-.006c-.606.107-1.179.32-1.686.622-1.023.612-1.703 1.544-1.933 2.568L7 8.995v1c-.997 0-1.944.38-2.635 1.041a3.403 3.403 0 0 0-1.07 2.46c0 .913.38 1.798 1.07 2.459A3.815 3.815 0 0 0 7 16.995a1 1 0 1 1 0 2A5.815 5.815 0 0 1 2.982 17.4a5.403 5.403 0 0 1-1.687-3.905c0-1.473.613-2.877 1.687-3.904a5.788 5.788 0 0 1 3.26-1.547c.478-1.286 1.413-2.38 2.642-3.114a6.971 6.971 0 0 1 2.364-.875 7.224 7.224 0 0 1 2.542.006c.839.153 1.64.453 2.359.888a6.361 6.361 0 0 1 1.83 1.66c.489.662.832 1.41 1.005 2.203.085.391.127.788.127 1.185A4.5 4.5 0 0 1 19 18.995a1 1 0 1 1 0-2 2.5 2.5 0 0 0 0-5h-1a1 1 0 0 1-.976-1.219c.114-.508.116-1.03.005-1.539a3.785 3.785 0 0 0-.659-1.441 4.363 4.363 0 0 0-1.257-1.136 4.964 4.964 0 0 0-1.68-.63z" clip-rule="evenodd"/>
  <path fill="#1F2937" fill-rule="evenodd" d="M11 12.007a1 1 0 0 1 1 1v2a1 1 0 1 1-2 0v-2a1 1 0 0 1 1-1zm4 2a1 1 0 0 1 1 1v2a1 1 0 1 1-2 0v-2a1 1 0 0 1 1-1zm-4 3a1 1 0 0 1 1 1v2a1 1 0 1 1-2 0v-2a1 1 0 0 1 1-1zm4 2a1 1 0 0 1 1 1v2a1 1 0 1 1-2 0v-2a1 1 0 0 1 1-1z" clip-rule="evenodd"/>
</svg>
