<svg fill="none" stroke="currentColor" viewBox="0 0 24 24">
  <path fill="#1F2937" fill-rule="evenodd" d="M11.248 4.055a7.224 7.224 0 0 1 2.542.006c.839.153 1.64.453 2.36.888a6.36 6.36 0 0 1 1.83 1.66c.488.662.831 1.41 1.004 2.203.085.391.127.788.127 1.185A4.5 4.5 0 0 1 19 18.995a1 1 0 1 1 0-2 2.5 2.5 0 0 0 0-5h-1a1 1 0 0 1-.976-1.219c.114-.508.116-1.03.005-1.539a3.785 3.785 0 0 0-.659-1.441 4.362 4.362 0 0 0-1.257-1.136 4.964 4.964 0 0 0-1.68-.63 5.223 5.223 0 0 0-1.838-.006c-.606.107-1.179.32-1.686.622-1.023.612-1.703 1.544-1.933 2.568a1 1 0 0 1-1.016.78 3.744 3.744 0 0 0-2.34.697 3.39 3.39 0 0 0-1.316 1.92 3.227 3.227 0 0 0 .26 2.256c.36.705.97 1.278 1.736 1.612a1 1 0 0 1-.8 1.833 5.513 5.513 0 0 1-2.717-2.535 5.227 5.227 0 0 1-.42-3.651A5.39 5.39 0 0 1 3.449 9.07a5.722 5.722 0 0 1 2.803-1.053c.481-1.275 1.412-2.36 2.633-3.088a6.971 6.971 0 0 1 2.364-.875z" clip-rule="evenodd"/>
  <path fill="#1F2937" fill-rule="evenodd" d="M12 12.007a1 1 0 0 1 1 1v9a1 1 0 1 1-2 0v-9a1 1 0 0 1 1-1z" clip-rule="evenodd"/>
  <path fill="#1F2937" fill-rule="evenodd" d="M8.293 18.3a1 1 0 0 1 1.414 0L12 20.593l2.293-2.293a1 1 0 0 1 1.414 1.415l-3 3a1 1 0 0 1-1.414 0l-3-3a1 1 0 0 1 0-1.415z" clip-rule="evenodd"/>
</svg>
