<svg fill="none" stroke="currentColor" viewBox="0 0 24 24">
  <path fill="#1F2937" fill-rule="evenodd" d="M12.879 2.879A3 3 0 0 1 15 2h4a3 3 0 0 1 3 3v12a5 5 0 1 1-10 0V5a3 3 0 0 1 .879-2.121zM15 4a1 1 0 0 0-1 1v12a3 3 0 0 0 6 0V5a1 1 0 0 0-1-1h-4z" clip-rule="evenodd"/>
  <path fill="#1F2937" fill-rule="evenodd" d="M7.465 4.636a3 3 0 0 1 4.242 0l2 2a1 1 0 0 1-1.414 1.415l-2-2a1 1 0 0 0-1.414 0m0 0L6.051 8.879a1 1 0 0 0 0 1.413l9 9a1 1 0 0 1-1.414 1.415l-9-9a3 3 0 0 1 0-4.242l2.828-2.829" clip-rule="evenodd"/>
  <path fill="#1F2937" fill-rule="evenodd" d="M2.879 12.886A3 3 0 0 1 5 12.007h2.3a1 1 0 0 1 0 2H5a1 1 0 0 0-1 1v4a1 1 0 0 0 1 1h12a1 1 0 0 1 0 2H5a3 3 0 0 1-3-3v-4a3 3 0 0 1 .879-2.12zM17 15.993a1 1 0 0 1 1 1v.01a1 1 0 0 1-2 0v-.01a1 1 0 0 1 1-1z" clip-rule="evenodd"/>
</svg>
