<svg fill="none" stroke="currentColor" viewBox="0 0 24 24">
  <path fill="#1F2937" fill-rule="evenodd" d="M3 6a1 1 0 0 1 1-1h5.5a1 1 0 1 1 0 2H4a1 1 0 0 1-1-1zM3 10.008a1 1 0 0 1 1-1h5.5a1 1 0 1 1 0 2H4a1 1 0 0 1-1-1zM3 13.992a1 1 0 0 1 1-1h5.5a1 1 0 1 1 0 2H4a1 1 0 0 1-1-1zM3 18a1 1 0 0 1 1-1h5.5a1 1 0 1 1 0 2H4a1 1 0 0 1-1-1zM13.5 6a1 1 0 0 1 1-1H20a1 1 0 1 1 0 2h-5.5a1 1 0 0 1-1-1zM13.5 10.008a1 1 0 0 1 1-1H20a1 1 0 1 1 0 2h-5.5a1 1 0 0 1-1-1zM13.5 13.992a1 1 0 0 1 1-1H20a1 1 0 1 1 0 2h-5.5a1 1 0 0 1-1-1zM13.5 18a1 1 0 0 1 1-1H20a1 1 0 1 1 0 2h-5.5a1 1 0 0 1-1-1z" clip-rule="evenodd"/>
</svg>
