<svg fill="none" stroke="currentColor" viewBox="0 0 24 24">
  <path fill="#1F2937" fill-rule="evenodd" d="M16.707 7.285a1 1 0 0 1 .242 1.024l-2 6a1 1 0 0 1-.633.632l-6 2a1 1 0 0 1-1.265-1.265l2-6a1 1 0 0 1 .633-.632l6-2a1 1 0 0 1 1.023.241zm-5.916 3.498-1.21 3.628 3.629-1.21 1.209-3.627-3.628 1.209z" clip-rule="evenodd"/>
  <path fill="#1F2937" fill-rule="evenodd" d="M12 4a8 8 0 1 0 0 16 8 8 0 0 0 0-16zM2 12C2 6.477 6.477 2 12 2s10 4.477 10 10-4.477 10-10 10S2 17.523 2 12z" clip-rule="evenodd"/>
</svg>
