<svg fill="none" stroke="currentColor" viewBox="0 0 24 24">
  <path fill="#1F2937" fill-rule="evenodd" d="M12 4a8 8 0 1 0 0 16 8 8 0 0 0 0-16zM2 12C2 6.477 6.477 2 12 2s10 4.477 10 10-4.477 10-10 10S2 17.523 2 12z" clip-rule="evenodd"/>
  <path fill="#1F2937" fill-rule="evenodd" d="M10.287 7.458a4.107 4.107 0 0 1 2.588-.406c.884.152 1.693.589 2.335 1.236a1 1 0 1 1-1.42 1.409 2.329 2.329 0 0 0-1.254-.674 2.107 2.107 0 0 0-1.332.213c-.428.22-.811.588-1.089 1.079a3.425 3.425 0 0 0-.43 1.678c0 .604.153 1.187.43 1.678.278.49.66.858 1.088 1.079.426.22.887.29 1.333.213a2.328 2.328 0 0 0 1.254-.675 1 1 0 1 1 1.42 1.409 4.327 4.327 0 0 1-2.335 1.237 4.106 4.106 0 0 1-2.588-.407 4.68 4.68 0 0 1-1.913-1.873 5.424 5.424 0 0 1-.689-2.661c0-.936.236-1.86.69-2.662a4.68 4.68 0 0 1 1.912-1.873z" clip-rule="evenodd"/>
</svg>
