<svg fill="none" stroke="currentColor" viewBox="0 0 24 24">
  <path fill="#1F2937" fill-rule="evenodd" d="M6 5.993a2 2 0 0 0-2 2v8a2 2 0 0 0 2 2h12a2 2 0 0 0 2-2v-8a2 2 0 0 0-2-2H6zm-4 2a4 4 0 0 1 4-4h12a4 4 0 0 1 4 4v8a4 4 0 0 1-4 4H6a4 4 0 0 1-4-4v-8z" clip-rule="evenodd"/>
  <path fill="#1F2937" fill-rule="evenodd" d="M2 10.007a1 1 0 0 1 1-1h18a1 1 0 1 1 0 2H3a1 1 0 0 1-1-1zM6 15a1 1 0 0 1 1-1h.01a1 1 0 1 1 0 2H7a1 1 0 0 1-1-1zM10 15a1 1 0 0 1 1-1h2a1 1 0 1 1 0 2h-2a1 1 0 0 1-1-1z" clip-rule="evenodd"/>
</svg>
