<svg fill="none" stroke="currentColor" viewBox="0 0 24 24">
  <path fill="#1F2937" fill-rule="evenodd" d="M10.236 4.641a6.212 6.212 0 0 1 4.108-.5c1.385.308 2.636 1.082 3.609 2.193a1 1 0 1 1-1.505 1.317c-.716-.818-1.603-1.35-2.539-1.558a4.212 4.212 0 0 0-2.792.344c-.893.438-1.68 1.186-2.244 2.176A6.857 6.857 0 0 0 8 11.993c0 1.212.307 2.388.872 3.379.563.99 1.35 1.738 2.244 2.176.89.436 1.858.552 2.792.344.936-.208 1.823-.74 2.539-1.558a1 1 0 1 1 1.505 1.317c-.973 1.112-2.224 1.885-3.61 2.193a6.212 6.212 0 0 1-4.107-.5c-1.285-.63-2.357-1.676-3.101-2.982A8.856 8.856 0 0 1 6 11.992c0-1.544.39-3.063 1.134-4.368.744-1.307 1.816-2.353 3.101-2.983z" clip-rule="evenodd"/>
  <path fill="#1F2937" fill-rule="evenodd" d="M4 10.007a1 1 0 0 1 1-1h8a1 1 0 1 1 0 2H5a1 1 0 0 1-1-1zm0 4a1 1 0 0 1 1-1h8a1 1 0 0 1 0 2H5a1 1 0 0 1-1-1z" clip-rule="evenodd"/>
</svg>
