<svg fill="none" stroke="currentColor" viewBox="0 0 24 24">
  <path fill="#1F2937" fill-rule="evenodd" d="M14.138 6.24A3 3 0 0 0 10 8.995v2.997h3.9a1 1 0 1 1 0 2H10v2.5c0 .037-.002.074-.006.111-.022.19-.057.378-.104.562a6.997 6.997 0 0 1 2.436.381c.03.01.061.023.09.037a5 5 0 0 0 4.167 0 1 1 0 1 1 .834 1.818 7.001 7.001 0 0 1-5.786.021 5.001 5.001 0 0 0-3.453.101c-.265.17-.55.31-.851.413a1 1 0 0 1-.834-1.806c.234-.138.475-.261.722-.37A2 2 0 0 0 8 16.43v-2.438H6.9a1 1 0 1 1 0-2H8V8.985a5 5 0 0 1 9.312-2.5 1 1 0 1 1-1.725 1.013 3 3 0 0 0-1.45-1.258z" clip-rule="evenodd"/>
</svg>
