<svg fill="none" stroke="currentColor" viewBox="0 0 24 24">
  <path fill="#1F2937" fill-rule="evenodd" d="M7.172 6.172A4 4 0 0 1 10 5h4.043a4 4 0 0 1 3.6 2.668 1 1 0 1 1-1.886.664A2 2 0 0 0 13.977 7H10a2 2 0 1 0 0 4h4a4 4 0 1 1 0 8H9.957a4 4 0 0 1-3.6-2.668 1 1 0 1 1 1.886-.664A2 2 0 0 0 10.023 17H14a2 2 0 0 0 0-4h-4a4 4 0 0 1-2.828-6.828z" clip-rule="evenodd"/>
  <path fill="#1F2937" fill-rule="evenodd" d="M12 2a1 1 0 0 1 1 1v3a1 1 0 1 1-2 0V3a1 1 0 0 1 1-1zm0 15a1 1 0 0 1 1 1v3a1 1 0 1 1-2 0v-3a1 1 0 0 1 1-1z" clip-rule="evenodd"/>
</svg>
