<svg fill="none" stroke="currentColor" viewBox="0 0 24 24">
  <path fill="#1F2937" fill-rule="evenodd" d="M5.292 5.58C5.01 5.83 5 5.975 5 6c0 .026.01.17.292.42.28.248.744.518 1.402.765C8.004 7.675 9.88 8 12 8s3.997-.324 5.306-.815c.658-.247 1.121-.517 1.402-.766C18.99 6.17 19 6.026 19 6c0-.026-.01-.17-.292-.42-.28-.248-.744-.518-1.402-.765C15.996 4.325 14.12 4 12 4s-3.997.324-5.306.815c-.658.247-1.121.517-1.402.766zm.7-2.638C7.578 2.347 9.702 2 12 2c2.297 0 4.422.347 6.008.942.79.296 1.498.673 2.027 1.142C20.562 4.552 21 5.197 21 6c0 .803-.438 1.448-.965 1.916-.53.469-1.238.846-2.027 1.142-1.586.595-3.71.942-6.008.942-2.297 0-4.422-.347-6.008-.942-.79-.296-1.498-.673-2.027-1.142C3.437 7.448 3 6.803 3 6c0-.803.437-1.448.965-1.916.53-.469 1.238-.846 2.027-1.142z" clip-rule="evenodd"/>
  <path fill="#1F2937" fill-rule="evenodd" d="M4 5a1 1 0 0 1 1 1v6c0 .019.007.16.28.407.273.247.734.523 1.414.778C8.052 13.695 9.962 14 12 14c2.039 0 3.948-.306 5.306-.815.68-.255 1.141-.531 1.414-.778.273-.248.28-.388.28-.407V6a1 1 0 1 1 2 0v6c0 .777-.415 1.416-.938 1.89-.524.473-1.234.86-2.054 1.168-1.642.616-3.803.942-6.008.942s-4.366-.326-6.008-.942c-.82-.308-1.53-.695-2.054-1.169C3.415 13.416 3 12.777 3 12V6a1 1 0 0 1 1-1z" clip-rule="evenodd"/>
  <path fill="#1F2937" fill-rule="evenodd" d="M4 11a1 1 0 0 1 1 1v6c0 .019.007.16.28.407.273.247.734.523 1.414.778C8.052 19.695 9.962 20 12 20c2.039 0 3.948-.306 5.306-.815.68-.255 1.141-.531 1.414-.778.273-.248.28-.388.28-.407v-6a1 1 0 1 1 2 0v6c0 .777-.415 1.416-.938 1.89-.524.473-1.234.86-2.054 1.168-1.642.616-3.803.942-6.008.942s-4.366-.326-6.008-.942c-.82-.308-1.53-.695-2.054-1.169C3.415 19.416 3 18.777 3 18v-6a1 1 0 0 1 1-1z" clip-rule="evenodd"/>
</svg>
