<svg fill="none" stroke="currentColor" viewBox="0 0 24 24">
  <path fill="#1F2937" fill-rule="evenodd" d="M4 7a1 1 0 0 0-1 1v8a1 1 0 0 0 1 1h16a1 1 0 0 0 1-1V8a1 1 0 0 0-1-1H4zM1 8a3 3 0 0 1 3-3h16a3 3 0 0 1 3 3v8a3 3 0 0 1-3 3H4a3 3 0 0 1-3-3V8z" clip-rule="evenodd"/>
  <path fill="#1F2937" fill-rule="evenodd" d="M8 9.008a1 1 0 0 1 1 1v1h1a1 1 0 1 1 0 2H9v1a1 1 0 1 1-2 0v-1H6a1 1 0 1 1 0-2h1v-1a1 1 0 0 1 1-1zM15 9.992a1 1 0 0 1 1 1v.01a1 1 0 1 1-2 0v-.01a1 1 0 0 1 1-1zM18 12.008a1 1 0 0 1 1 1v.01a1 1 0 1 1-2 0v-.01a1 1 0 0 1 1-1z" clip-rule="evenodd"/>
</svg>
