<svg fill="none" stroke="currentColor" viewBox="0 0 24 24">
  <path fill="#1F2937" fill-rule="evenodd" d="M12.107 4.006 5.265 16.099l6.628 3.94 6.842-12.093-6.628-3.94zm6.633 3.93zm-6.853 12.113zm-6.627-3.94zm5.13-13.13c.532-.94 1.723-1.296 2.677-.729l6.677 3.97c.955.567 1.245 1.803.713 2.742L13.61 21.067c-.531.94-1.722 1.295-2.676.728l-6.678-3.97c-.954-.567-1.244-1.803-.712-2.742L10.39 2.978z" clip-rule="evenodd"/>
  <path fill="#1F2937" fill-rule="evenodd" d="M13.396 4.866a1 1 0 0 1 1.345-.437l1.782.908a1 1 0 0 1-.908 1.782l-1.782-.908a1 1 0 0 1-.437-1.345zM10.185 15.563a1 1 0 0 1 .436 1.344l-.005.01a1 1 0 0 1-1.781-.91L8.839 16a1 1 0 0 1 1.346-.437zM6.894 3.56a1 1 0 0 1-.447 1.342L5 5.626v1.882a1 1 0 0 1-.553.894L3 9.126v1.882a1 1 0 1 1-2 0v-2.5a1 1 0 0 1 .553-.895L3 6.89V5.008a1 1 0 0 1 .553-.895l2-1a1 1 0 0 1 1.341.447zM22 12.008a1 1 0 0 1 1 1v2.5a1 1 0 0 1-.553.894L21 17.126v1.882a1 1 0 0 1-.553.894l-2 1a1 1 0 1 1-.894-1.789L19 18.39v-1.882a1 1 0 0 1 .553-.895L21 14.89v-1.882a1 1 0 0 1 1-1z" clip-rule="evenodd"/>
</svg>
