<svg fill="none" stroke="currentColor" viewBox="0 0 24 24">
  <path fill="#1F2937" fill-rule="evenodd" d="M9 7a2 2 0 0 0-2 2v6a2 2 0 0 0 2 2h6a2 2 0 0 0 2-2V9a2 2 0 0 0-2-2H9zM5 9a4 4 0 0 1 4-4h6a4 4 0 0 1 4 4v6a4 4 0 0 1-4 4H9a4 4 0 0 1-4-4V9z" clip-rule="evenodd"/>
  <path fill="#1F2937" fill-rule="evenodd" d="M9 17a1 1 0 0 1 1 1v2h4v-2a1 1 0 1 1 2 0v3a1 1 0 0 1-1 1H9a1 1 0 0 1-1-1v-3a1 1 0 0 1 1-1zM8 3a1 1 0 0 1 1-1h6a1 1 0 0 1 1 1v3a1 1 0 1 1-2 0V4h-4v2a1 1 0 0 1-2 0V3z" clip-rule="evenodd"/>
</svg>
