<svg fill="none" stroke="currentColor" viewBox="0 0 24 24">
  <path fill="#1F2937" fill-rule="evenodd" d="M6 5.008a1 1 0 0 0-1 1v12a1 1 0 0 0 1 1h12a1 1 0 0 0 1-1V8.422l-3.414-3.414H6zM3.879 3.886A3 3 0 0 1 6 3.008h10a1 1 0 0 1 .707.292l4 4a1 1 0 0 1 .293.708v10a3 3 0 0 1-3 3H6a3 3 0 0 1-3-3v-12a3 3 0 0 1 .879-2.122z" clip-rule="evenodd"/>
  <path fill="#1F2937" fill-rule="evenodd" d="M12 13a1 1 0 1 0 0 2 1 1 0 0 0 0-2zm-3 1a3 3 0 1 1 6 0 3 3 0 0 1-6 0zM8 3.008a1 1 0 0 1 1 1v3h4v-3a1 1 0 1 1 2 0v4a1 1 0 0 1-1 1H8a1 1 0 0 1-1-1v-4a1 1 0 0 1 1-1z" clip-rule="evenodd"/>
</svg>
