<svg fill="none" stroke="currentColor" viewBox="0 0 24 24">
  <path fill="#1F2937" fill-rule="evenodd" d="M5.143 4.478A1 1 0 0 1 6 3.993h12a1 1 0 0 1 .858.485l3 5a1 1 0 0 1-.113 1.181l-8.5 9.5a1.7 1.7 0 0 1-2.49 0l-8.5-9.5a1 1 0 0 1-.112-1.18l3-5zm1.423 1.515-2.33 3.882L12 18.552l7.763-8.677-2.33-3.882H6.567z" clip-rule="evenodd"/>
  <path fill="#1F2937" fill-rule="evenodd" d="M9.115 7.955a1 1 0 0 1 .343 1.372l-.218.362 1.5 1.65a1 1 0 0 1-1.48 1.346l-2-2.2a1 1 0 0 1-.117-1.187l.6-1a1 1 0 0 1 1.372-.343z" clip-rule="evenodd"/>
</svg>
