<svg fill="none" stroke="currentColor" viewBox="0 0 24 24">
  <path fill="#1F2937" fill-rule="evenodd" d="M6 5.007a1 1 0 0 0-1 1v12a1 1 0 0 0 1 1h12a1 1 0 0 0 1-1v-12a1 1 0 0 0-1-1H6zm-3 1a3 3 0 0 1 3-3h12a3 3 0 0 1 3 3v12a3 3 0 0 1-3 3H6a3 3 0 0 1-3-3v-12z" clip-rule="evenodd"/>
  <path fill="#1F2937" d="M8.5 8.993a.5.5 0 1 0 0-1 .5.5 0 0 0 0 1z"/>
  <path fill="#1F2937" fill-rule="evenodd" d="M8.5 8.993a.5.5 0 1 0 0-1 .5.5 0 0 0 0 1zm-1.5-.5a1.5 1.5 0 1 1 3 0 1.5 1.5 0 0 1-3 0z" clip-rule="evenodd"/>
  <path fill="#1F2937" d="M15.5 8.993a.5.5 0 1 0 0-1 .5.5 0 0 0 0 1z"/>
  <path fill="#1F2937" fill-rule="evenodd" d="M15.5 8.993a.5.5 0 1 0 0-1 .5.5 0 0 0 0 1zm-1.5-.5a1.5 1.5 0 1 1 3 0 1.5 1.5 0 0 1-3 0z" clip-rule="evenodd"/>
  <path fill="#1F2937" d="M15.5 16a.5.5 0 1 0 0-1 .5.5 0 0 0 0 1z"/>
  <path fill="#1F2937" fill-rule="evenodd" d="M15.5 16a.5.5 0 1 0 0-1 .5.5 0 0 0 0 1zm-1.5-.5a1.5 1.5 0 1 1 3 0 1.5 1.5 0 0 1-3 0z" clip-rule="evenodd"/>
  <path fill="#1F2937" d="M8.5 16a.5.5 0 1 0 0-1 .5.5 0 0 0 0 1z"/>
  <path fill="#1F2937" fill-rule="evenodd" d="M8.5 16a.5.5 0 1 0 0-1 .5.5 0 0 0 0 1zM7 15.5a1.5 1.5 0 1 1 3 0 1.5 1.5 0 0 1-3 0z" clip-rule="evenodd"/>
</svg>
