<svg fill="none" stroke="currentColor" viewBox="0 0 24 24">
  <path fill="#1F2937" fill-rule="evenodd" d="M7.586 4.578A2 2 0 0 1 9 3.993h10a1 1 0 0 1 .707.292l2 2a1 1 0 0 1 0 1.415l-2 2a1 1 0 0 1-.707.293H9a2 2 0 0 1-2-2v-2a2 2 0 0 1 .586-1.415zm11 1.415H9v2h9.586l1-1-1-1zM5.293 12.3A1 1 0 0 1 6 12.007h7a2 2 0 0 1 2 2v2a2 2 0 0 1-2 2H6a1 1 0 0 1-.707-.292l-2-2a1 1 0 0 1 0-1.415l2-2zm1.121 1.707-1 1 1 1H13v-2H6.414z" clip-rule="evenodd"/>
  <path fill="#1F2937" fill-rule="evenodd" d="M12 15.993a1 1 0 0 1 1 1v5a1 1 0 0 1-2 0v-5a1 1 0 0 1 1-1zM12 8a1 1 0 0 1 1 1v4a1 1 0 1 1-2 0V9a1 1 0 0 1 1-1zM12 2a1 1 0 0 1 1 1v2a1 1 0 1 1-2 0V3a1 1 0 0 1 1-1z" clip-rule="evenodd"/>
</svg>
