<svg fill="none" stroke="currentColor" viewBox="0 0 24 24">
  <path fill="#1F2937" fill-rule="evenodd" d="M11 4a1 1 0 1 0 0 2 1 1 0 0 0 0-2zM8 5a3 3 0 1 1 6 0 3 3 0 0 1-6 0z" clip-rule="evenodd"/>
  <path fill="#1F2937" fill-rule="evenodd" d="M11 6.008a1 1 0 0 1 1 1v7h3a1 1 0 0 1 .78.375l4 5a1 1 0 1 1-1.56 1.25l-3.7-4.625H11a1 1 0 0 1-1-1v-8a1 1 0 0 1 1-1z" clip-rule="evenodd"/>
  <path fill="#1F2937" fill-rule="evenodd" d="M10 10.992a1 1 0 0 1 1-1h5a1 1 0 1 1 0 2h-5a1 1 0 0 1-1-1zM7.915 11.105a1 1 0 0 1-.513 1.318 3.97 3.97 0 1 0 4.793 5.991 1 1 0 1 1 1.61 1.187 5.969 5.969 0 1 1-7.208-9.009 1 1 0 0 1 1.318.513z" clip-rule="evenodd"/>
</svg>
