<svg fill="none" stroke="currentColor" viewBox="0 0 24 24">
  <path fill="#1F2937" fill-rule="evenodd" d="M15.707 8.293a1 1 0 0 1 0 1.414l-6 6a1 1 0 0 1-1.414-1.414l6-6a1 1 0 0 1 1.414 0z" clip-rule="evenodd"/>
  <path fill="#1F2937" d="M9.5 10a.5.5 0 1 0 0-1 .5.5 0 0 0 0 1z"/>
  <path fill="#1F2937" fill-rule="evenodd" d="M9.5 10a.5.5 0 1 0 0-1 .5.5 0 0 0 0 1zM8 9.5a1.5 1.5 0 1 1 3 0 1.5 1.5 0 0 1-3 0z" clip-rule="evenodd"/>
  <path fill="#1F2937" d="M14.5 14.993a.5.5 0 1 0 0-1 .5.5 0 0 0 0 1z"/>
  <path fill="#1F2937" fill-rule="evenodd" d="M14.5 14.993a.5.5 0 1 0 0-1 .5.5 0 0 0 0 1zm-1.5-.5a1.5 1.5 0 1 1 3 0 1.5 1.5 0 0 1-3 0z" clip-rule="evenodd"/>
  <path fill="#1F2937" fill-rule="evenodd" d="M12.01 4a1.2 1.2 0 0 0-.85.354l-.003.002-.7.7-.002.002a3.2 3.2 0 0 1-2.254.93H7.2a1.2 1.2 0 0 0-1.2 1.2v1c0 .846-.335 1.657-.93 2.256l-.003.002-.7.7-.002.002a1.2 1.2 0 0 0 0 1.702l.002.002.702.702c.596.599.93 1.41.931 2.254v1a1.2 1.2 0 0 0 1.2 1.2h1c.845.001 1.656.336 2.255.932l.002.002.702.702a1.199 1.199 0 0 0 1.702 0l.002-.002.7-.7.002-.002a3.2 3.2 0 0 1 2.254-.931h1.001a1.2 1.2 0 0 0 1.2-1.2v-1c0-.845.335-1.656.93-2.255l.003-.002.7-.7.002-.002a1.2 1.2 0 0 0 0-1.702l-.002-.002-.7-.7-.002-.002a3.2 3.2 0 0 1-.931-2.255v-1a1.2 1.2 0 0 0-1.2-1.2h-1a3.201 3.201 0 0 1-2.255-.931l-.002-.002-.7-.7-.002-.002A1.2 1.2 0 0 0 12.01 4zM4 8.188a1.2 1.2 0 0 1-.35.846l-.695.696h-.001a3.2 3.2 0 0 0 0 4.537l.697.697A1.2 1.2 0 0 1 4 15.81v1a3.2 3.2 0 0 0 3.2 3.2h1a1.2 1.2 0 0 1 .844.348l.697.697.001.001a3.201 3.201 0 0 0 4.537-.001l.696-.696.001-.001a1.2 1.2 0 0 1 .844-.348h1a3.2 3.2 0 0 0 3.2-3.2v-1a1.2 1.2 0 0 1 .35-.845l.695-.696.001-.002a3.2 3.2 0 0 0 0-4.535V9.73l-.697-.696a1.202 1.202 0 0 1-.349-.846v-1a3.2 3.2 0 0 0-3.2-3.2h-1a1.2 1.2 0 0 1-.844-.347V3.64l-.697-.696-.001-.001a3.2 3.2 0 0 0-4.536 0h-.001l-.696.697h-.001a1.2 1.2 0 0 1-.844.349h-1a3.2 3.2 0 0 0-3.2 3.2v1z" clip-rule="evenodd"/>
</svg>
