<svg fill="none" stroke="currentColor" viewBox="0 0 24 24">
  <path fill="#1F2937" fill-rule="evenodd" d="M16.963 3.012c.76-.049 1.449.274 1.967.792.52.52.867 1.228 1.044 1.98l.007.032 1 5c.012.065.019.13.019.196a3 3 0 0 1-3 3h-2v4a3 3 0 0 1-6 0v-1a3 3 0 0 0-3-3H4a2 2 0 0 1-2-2v-7a2 2 0 0 1 2-2h2a2 2 0 0 1 1.6.8 4 4 0 0 1 2.4-.8h6.963zM6 5.012H4v7h2v-7zm2 7.101v-5.1a2 2 0 0 1 2-2h7a1 1 0 0 0 .085-.004c.087-.008.238.017.43.21.2.198.396.54.508 1.006l.974 4.87a1 1 0 0 1-.997.917h-3a1 1 0 0 0-1 1v5a1 1 0 0 1-2 0v-1a5 5 0 0 0-4-4.899z" clip-rule="evenodd"/>
</svg>
