<svg fill="none" stroke="currentColor" viewBox="0 0 24 24">
  <path fill="#1F2937" fill-rule="evenodd" d="M4 15.993a1 1 0 0 1 1 1v2a1 1 0 0 0 1 1h12a1 1 0 0 0 1-1v-2a1 1 0 1 1 2 0v2a3 3 0 0 1-3 3H6a3 3 0 0 1-3-3v-2a1 1 0 0 1 1-1z" clip-rule="evenodd"/>
  <path fill="#1F2937" fill-rule="evenodd" d="M6.293 10.285a1 1 0 0 1 1.414 0L12 14.578l4.293-4.293a1 1 0 0 1 1.414 1.415l-5 5a1 1 0 0 1-1.414 0l-5-5a1 1 0 0 1 0-1.415z" clip-rule="evenodd"/>
  <path fill="#1F2937" fill-rule="evenodd" d="M12 3.007a1 1 0 0 1 1 1v12a1 1 0 1 1-2 0v-12a1 1 0 0 1 1-1z" clip-rule="evenodd"/>
</svg>
