<svg fill="none" stroke="currentColor" viewBox="0 0 24 24">
  <path fill="#1F2937" fill-rule="evenodd" d="M3 4.007a1 1 0 1 1 2.001-.001A1 1 0 0 1 3 4.008zm4 0a1 1 0 1 1 1.001 1H8a1 1 0 0 1-1-1zm4 0a1 1 0 1 1 1.001 1h-.002a1 1 0 0 1-1-1zm4 0a1 1 0 1 1 2 0v.001a1 1 0 1 1-2 0zm1 3a1 1 0 1 1-1 1 1 1 0 0 1 1-1zM4 7.01a1 1 0 0 1 1 1v.001a1 1 0 0 1-2 0 1 1 0 0 1 1-1zm0 4.004a1 1 0 1 1-1 1.001v-.001a1 1 0 0 1 1-1zm.71 4.298a1 1 0 0 0-1.71.705 1 1 0 1 0 1.71-.705zm2.29.705a1 1 0 1 1 1 1 1 1 0 0 1-1-1z" clip-rule="evenodd"/>
  <path fill="#1F2937" fill-rule="evenodd" d="M10 8.993a1 1 0 0 0-1 1v8a1 1 0 0 0 1 1h8a1 1 0 0 0 1-1v-8a1 1 0 0 0-1-1h-8zm-3 1a3 3 0 0 1 3-3h8a3 3 0 0 1 3 3v8a3 3 0 0 1-3 3h-8a3 3 0 0 1-3-3v-8z" clip-rule="evenodd"/>
</svg>
