<svg fill="none" stroke="currentColor" viewBox="0 0 24 24">
  <path fill="#1F2937" fill-rule="evenodd" d="M2 3a1 1 0 1 1 2.001-.001A1 1 0 0 1 2 3.001V3zm4 0A1 1 0 1 1 7 4H7a1 1 0 0 1-1-1zm4 0A1 1 0 1 1 11 4h-.002a1 1 0 0 1-1-1zm4 0a1 1 0 1 1 2 0 1 1 0 1 1-2 0zm1 3a1 1 0 1 1-1 1 1 1 0 0 1 1-1zM3 6.003a1 1 0 1 1-1 1.001v-.001a1 1 0 0 1 1-1zm0 4.003a1 1 0 0 1 1 1v.001a1 1 0 1 1-2 0 1 1 0 0 1 1-1zm.71 4.299A1 1 0 0 0 2 15.01a1 1 0 1 0 1.71-.705zM6 15.01a1 1 0 1 1 1 1 1 1 0 0 1-1-1z" clip-rule="evenodd"/>
  <path fill="#1F2937" fill-rule="evenodd" d="M6.879 6.886A3 3 0 0 1 9 6.007h8a3 3 0 0 1 3 3v2a1 1 0 1 1-2 0v-2a1 1 0 0 0-1-1H9a1 1 0 0 0-1 1v8a1 1 0 0 0 1 1h2a1 1 0 0 1 0 2H9a3 3 0 0 1-3-3v-8a3 3 0 0 1 .879-2.12z" clip-rule="evenodd"/>
  <path fill="#1F2937" fill-rule="evenodd" d="M12.293 12.3a1 1 0 0 1 1.023-.241l9 3a1 1 0 0 1 .131 1.843l-3.702 1.85-1.85 3.703a1 1 0 0 1-1.844-.131l-3-9a1 1 0 0 1 .242-1.024zm2.288 2.289 1.604 4.812.92-1.84a1 1 0 0 1 .448-.448l1.84-.92-4.812-1.604z" clip-rule="evenodd"/>
</svg>
