<svg fill="none" stroke="currentColor" viewBox="0 0 24 24">
  <path fill="#1F2937" fill-rule="evenodd" d="M12 4a8 8 0 1 0 0 16 8 8 0 0 0 0-16zM2 12C2 6.477 6.477 2 12 2s10 4.477 10 10-4.477 10-10 10S2 17.523 2 12z" clip-rule="evenodd"/>
  <path fill="#1F2937" fill-rule="evenodd" d="M8.36 2.83a1 1 0 0 1 1.408.127c5.094 6.113 7.206 10.799 7.728 16.753a1 1 0 1 1-1.992.175c-.478-5.446-2.366-9.76-7.272-15.647a1 1 0 0 1 .128-1.409z" clip-rule="evenodd"/>
  <path fill="#1F2937" fill-rule="evenodd" d="m7.65 19.163-.543.544a1 1 0 0 1-1.414-1.414l.544-.548c1.516-1.529 3.02-3.045 5.054-4.17 2.314-1.28 5.246-2.026 9.62-1.975a1 1 0 1 1-.023 2c-4.125-.048-6.693.655-8.63 1.725-1.768.978-3.067 2.286-4.609 3.838zM19.18 5.11a1 1 0 0 1-.123 1.41C13.293 11.36 8.195 11.753 3.1 11.753a1 1 0 1 1 0-2c4.905 0 9.435-.368 14.67-4.766a1 1 0 0 1 1.41.122z" clip-rule="evenodd"/>
</svg>
