<svg fill="none" stroke="currentColor" viewBox="0 0 24 24">
  <path fill="#1F2937" fill-rule="evenodd" d="M14.601 4.218A6 6 0 0 0 7 10.005a1 1 0 0 1-2 .002 8 8 0 1 1 14.857 4.114.97.97 0 0 1-.057.085 11 11 0 0 1-2.153 2.164 6.999 6.999 0 0 0-1.711 2.589 1.02 1.02 0 0 1-.052.114 5.5 5.5 0 0 1-8.311 1.712 1 1 0 0 1 1.254-1.558 3.5 3.5 0 0 0 5.262-1.039 8.999 8.999 0 0 1 2.225-3.31.982.982 0 0 1 .086-.072 9.001 9.001 0 0 0 1.769-1.759 6 6 0 0 0-3.568-8.83z" clip-rule="evenodd"/>
  <path fill="#1F2937" fill-rule="evenodd" d="M13.806 8.13A2 2 0 0 0 11 9.986a1 1 0 1 1-2 .024 4 4 0 1 1 6.667 2.934 1 1 0 0 1-1.333-1.491 2 2 0 0 0-.528-3.321z" clip-rule="evenodd"/>
</svg>
