<svg fill="none" stroke="currentColor" viewBox="0 0 24 24">
  <path fill="#1F2937" fill-rule="evenodd" d="M3.879 6.886A3 3 0 0 1 6 6.007h3a1 1 0 1 1 0 2H6a1 1 0 0 0-1 1v9a1 1 0 0 0 1 1h9a1 1 0 0 0 1-1v-3a1 1 0 0 1 2 0v3a3 3 0 0 1-3 3H6a3 3 0 0 1-3-3v-9a3 3 0 0 1 .879-2.12z" clip-rule="evenodd"/>
  <path fill="#1F2937" fill-rule="evenodd" d="M16.793 2.797a3.121 3.121 0 0 1 4.414 4.414l-8.5 8.5a1 1 0 0 1-.707.293H9a1 1 0 0 1-1-1v-3a1 1 0 0 1 .293-.707l8.5-8.5.707.707-.707-.707zM19 3.882c-.297 0-.583.119-.793.329L10 12.418v1.586h1.586l8.207-8.207A1.121 1.121 0 0 0 19 3.882z" clip-rule="evenodd"/>
  <path fill="#1F2937" fill-rule="evenodd" d="M15.293 4.285a1 1 0 0 1 1.414 0l3 3A1 1 0 0 1 18.293 8.7l-3-3a1 1 0 0 1 0-1.415z" clip-rule="evenodd"/>
</svg>
