<svg fill="none" stroke="currentColor" viewBox="0 0 24 24">
  <path fill="#1F2937" fill-rule="evenodd" d="M13.295 2.886a2 2 0 0 1 2.82 0l.002.002 5.002 5.003a2 2 0 0 1 0 2.82l-.002.002-7.293 7.293H19a1 1 0 1 1 0 2H7.999a1 1 0 0 1-.706-.293l-4-4-.002-.002a2 2 0 0 1 0-2.82l.002-.002 10-10 .002-.003zm-2.3 15.12L19.702 9.3l-4.996-4.996L4.709 14.3l3.705 3.705h2.582z" clip-rule="evenodd"/>
  <path fill="#1F2937" fill-rule="evenodd" d="M10.993 5.293a1 1 0 0 1 1.414 0l6.3 6.3a1 1 0 0 1-1.414 1.414l-6.3-6.3a1 1 0 0 1 0-1.414z" clip-rule="evenodd"/>
</svg>
