<svg fill="none" stroke="currentColor" viewBox="0 0 24 24">
  <path fill="#1F2937" fill-rule="evenodd" d="M5 17.007a1 1 0 1 0 0 2 1 1 0 0 0 0-2zm-3 1a3 3 0 1 1 6 0 3 3 0 0 1-6 0zM19 5.007a1 1 0 1 0 0 2 1 1 0 0 0 0-2zm-3 1a3 3 0 1 1 6 0 3 3 0 0 1-6 0z" clip-rule="evenodd"/>
  <path fill="#1F2937" fill-rule="evenodd" d="M19 6.993a1 1 0 0 1 1 1v5a6 6 0 0 1-6 6h-.586l1.293 1.292a1 1 0 0 1-1.414 1.415l-3-3a1 1 0 0 1 0-1.415l3-3a1 1 0 0 1 1.414 1.415l-1.293 1.293H14a4 4 0 0 0 4-4v-5a1 1 0 0 1 1-1zM9.293 2.293a1 1 0 0 1 1.414 0l3 3a1 1 0 0 1 0 1.414l-3 3a1 1 0 0 1-1.414-1.414L10.586 7H10a4 4 0 0 0-4 4v5a1 1 0 1 1-2 0v-5a6 6 0 0 1 6-6h.586L9.293 3.707a1 1 0 0 1 0-1.414z" clip-rule="evenodd"/>
</svg>
