<svg fill="none" stroke="currentColor" viewBox="0 0 24 24">
  <path fill="#1F2937" fill-rule="evenodd" d="M6 5.007a1 1 0 0 0-1 1v12a1 1 0 0 0 1 1h12a1 1 0 0 0 1-1v-12a1 1 0 0 0-1-1H6zm-3 1a3 3 0 0 1 3-3h12a3 3 0 0 1 3 3v12a3 3 0 0 1-3 3H6a3 3 0 0 1-3-3v-12z" clip-rule="evenodd"/>
  <path fill="#1F2937" fill-rule="evenodd" d="M20.107 3.91a1 1 0 0 1 0 1.414l-14.8 14.8a1 1 0 1 1-1.414-1.414l14.8-14.8a1 1 0 0 1 1.414 0zM9 6.007a1 1 0 0 1 1 1v1h1a1 1 0 1 1 0 2h-1v1a1 1 0 1 1-2 0v-1H7a1 1 0 1 1 0-2h1v-1a1 1 0 0 1 1-1zM12 16.007a1 1 0 0 1 1-1h4a1 1 0 0 1 0 2h-4a1 1 0 0 1-1-1z" clip-rule="evenodd"/>
</svg>
