<svg fill="none" stroke="currentColor" viewBox="0 0 24 24">
  <path fill="#1F2937" fill-rule="evenodd" d="M3.879 6.886A3 3 0 0 1 6 6.007h5a1 1 0 1 1 0 2H6a1 1 0 0 0-1 1v9a1 1 0 0 0 1 1h9a1 1 0 0 0 1-1v-5a1 1 0 0 1 2 0v5a3 3 0 0 1-3 3H6a3 3 0 0 1-3-3v-9a3 3 0 0 1 .879-2.12z" clip-rule="evenodd"/>
  <path fill="#1F2937" fill-rule="evenodd" d="M20.707 3.3a1 1 0 0 1 0 1.415l-10 10A1 1 0 0 1 9.293 13.3l10-10a1 1 0 0 1 1.414 0z" clip-rule="evenodd"/>
  <path fill="#1F2937" fill-rule="evenodd" d="M14 4.007a1 1 0 0 1 1-1h5a1 1 0 0 1 1 1v5a1 1 0 0 1-2 0v-4h-4a1 1 0 0 1-1-1z" clip-rule="evenodd"/>
</svg>
