<svg fill="none" stroke="currentColor" viewBox="0 0 24 24">
  <path fill="#1F2937" fill-rule="evenodd" d="M12 11.007a1 1 0 1 0 0 2 1 1 0 0 0 0-2zm-3 1a3 3 0 1 1 6 0 3 3 0 0 1-6 0z" clip-rule="evenodd"/>
  <path fill="#1F2937" fill-rule="evenodd" d="M1.4 11.2a1 1 0 0 1 1.4.2l1.486 1.982a10 10 0 0 0 15.428 0L21.2 11.4a1 1 0 1 1 1.6 1.2l-1.5 2a12 12 0 0 1-18.6 0l-1.5-2a1 1 0 0 1 .2-1.4z" clip-rule="evenodd"/>
  <path fill="#1F2937" fill-rule="evenodd" d="M12 6.977a10 10 0 0 0-7.714 3.636L2.8 12.595a1 1 0 0 1-1.6-1.2l1.5-2 .027-.035a12 12 0 0 1 18.573.034l1.5 2a1 1 0 0 1-1.6 1.2l-1.486-1.981A10 10 0 0 0 12 6.977z" clip-rule="evenodd"/>
</svg>
