<svg fill="none" stroke="currentColor" viewBox="0 0 24 24">
  <path fill="#1F2937" fill-rule="evenodd" d="M6 5.007a1 1 0 0 0-1 1v2a1 1 0 0 1-2 0v-2a3 3 0 0 1 3-3h2a1 1 0 1 1 0 2H6zM4 15.007a1 1 0 0 1 1 1v2a1 1 0 0 0 1 1h2a1 1 0 0 1 0 2H6a3 3 0 0 1-3-3v-2a1 1 0 0 1 1-1zM15 4.007a1 1 0 0 1 1-1h2a3 3 0 0 1 3 3v2a1 1 0 1 1-2 0v-2a1 1 0 0 0-1-1h-2a1 1 0 0 1-1-1zM20 15.007a1 1 0 0 1 1 1v2a3 3 0 0 1-3 3h-2a1 1 0 1 1 0-2h2a1 1 0 0 0 1-1v-2a1 1 0 0 1 1-1zM8 10.007a1 1 0 0 1 1-1h.01a1 1 0 1 1 0 2H9a1 1 0 0 1-1-1zM14 10.007a1 1 0 0 1 1-1h.01a1 1 0 1 1 0 2H15a1 1 0 0 1-1-1zM8.8 14.286a1 1 0 0 1 1.414.014 2.5 2.5 0 0 0 3.572 0 1 1 0 0 1 1.428 1.4 4.5 4.5 0 0 1-6.428 0 1 1 0 0 1 .014-1.414z" clip-rule="evenodd"/>
</svg>
