<svg fill="none" stroke="currentColor" viewBox="0 0 24 24">
  <path fill="#1F2937" fill-rule="evenodd" d="M14 2a1 1 0 0 1 1 1v4h4a1 1 0 1 1 0 2h-4a2 2 0 0 1-2-2V3a1 1 0 0 1 1-1z" clip-rule="evenodd"/>
  <path fill="#1F2937" fill-rule="evenodd" d="M7 4a1 1 0 0 0-1 1v14a1 1 0 0 0 1 1h10a1 1 0 0 0 1-1V8.414L13.586 4H7zM4.879 2.879A3 3 0 0 1 7 2h7a1 1 0 0 1 .707.293l5 5A1 1 0 0 1 20 8v11a3 3 0 0 1-3 3H7a3 3 0 0 1-3-3V5a3 3 0 0 1 .879-2.121z" clip-rule="evenodd"/>
  <path fill="#1F2937" fill-rule="evenodd" d="M10.447 12.113a1 1 0 0 1 .447 1.342l-.776 1.553.776 1.552a1 1 0 0 1-1.788.895l-1-2a1 1 0 0 1 0-.895l1-2a1 1 0 0 1 1.341-.447zM13.553 12.113a1 1 0 0 1 1.341.447l1 2a1 1 0 0 1 0 .895l-1 2a1 1 0 0 1-1.789-.895l.777-1.552-.777-1.553a1 1 0 0 1 .448-1.342z" clip-rule="evenodd"/>
</svg>
