<svg fill="none" stroke="currentColor" viewBox="0 0 24 24">
  <path fill="#1F2937" fill-rule="evenodd" d="M14 2a1 1 0 0 1 1 1v4h4a1 1 0 1 1 0 2h-4a2 2 0 0 1-2-2V3a1 1 0 0 1 1-1z" clip-rule="evenodd"/>
  <path fill="#1F2937" fill-rule="evenodd" d="M7 4a1 1 0 0 0-1 1v14a1 1 0 0 0 1 1h10a1 1 0 0 0 1-1V8.414L13.586 4H7zM4.879 2.879A3 3 0 0 1 7 2h7a1 1 0 0 1 .707.293l5 5A1 1 0 0 1 20 8v11a3 3 0 0 1-3 3H7a3 3 0 0 1-3-3V5a3 3 0 0 1 .879-2.121z" clip-rule="evenodd"/>
  <path fill="#1F2937" fill-rule="evenodd" d="M9 16a2 2 0 1 1 4 0 2 2 0 0 1-4 0z" clip-rule="evenodd"/>
  <path fill="#1F2937" fill-rule="evenodd" d="M11.474 10.142a1 1 0 0 1 .973-.044l2 1a1 1 0 1 1-.894 1.789L13 12.61v3.382a1 1 0 1 1-2 0v-5a1 1 0 0 1 .474-.85z" clip-rule="evenodd"/>
</svg>
