<svg fill="none" stroke="currentColor" viewBox="0 0 24 24">
  <path fill="#1F2937" fill-rule="evenodd" d="M14 2a1 1 0 0 1 1 1v4h4a1 1 0 1 1 0 2h-4a2 2 0 0 1-2-2V3a1 1 0 0 1 1-1z" clip-rule="evenodd"/>
  <path fill="#1F2937" fill-rule="evenodd" d="M7 4a1 1 0 0 0-1 1v7a1 1 0 1 1-2 0V5a3 3 0 0 1 3-3h7a1 1 0 0 1 .707.293l5 5A1 1 0 0 1 20 8v4a1 1 0 1 1-2 0V8.414L13.586 4H7z" clip-rule="evenodd"/>
  <path fill="#1F2937" fill-rule="evenodd" d="M2 12a1 1 0 0 1 1-1h18a1 1 0 1 1 0 2H3a1 1 0 0 1-1-1zM6 15.008a1 1 0 0 1 1 1v2a1 1 0 1 1-2 0v-2a1 1 0 0 1 1-1zM10 15.008a1 1 0 0 1 1 1v6a1 1 0 1 1-2 0v-6a1 1 0 0 1 1-1zM14 15.008a1 1 0 0 1 1 1v2a1 1 0 1 1-2 0v-2a1 1 0 0 1 1-1zM18 15.008a1 1 0 0 1 1 1v4a1 1 0 1 1-2 0v-4a1 1 0 0 1 1-1z" clip-rule="evenodd"/>
</svg>
