<svg fill="none" stroke="currentColor" viewBox="0 0 24 24">
  <path fill="#1F2937" fill-rule="evenodd" d="M18.384 6.15a1 1 0 0 1 1.373.341A9 9 0 0 1 21 12.061v.948a5 5 0 0 0 .667 2.5 1 1 0 0 1-1.734.997 7 7 0 0 1-.933-3.5s0 .001 0 0v-.998c0-.037.002-.073.006-.11a7 7 0 0 0-.962-4.374 1 1 0 0 1 .34-1.373zM12 8.007a3 3 0 0 0-3 3 1 1 0 1 1-2 0 5 5 0 0 1 10 0v1a9 9 0 0 0 1.8 5.4 1 1 0 1 1-1.6 1.2 11 11 0 0 1-2.2-6.6v-1a3 3 0 0 0-3-3z" clip-rule="evenodd"/>
  <path fill="#1F2937" fill-rule="evenodd" d="M12 9.993a1 1 0 0 1 1 1v2a13 13 0 0 0 2.321 7.43 1 1 0 1 1-1.642 1.14A15 15 0 0 1 11 12.992v-2a1 1 0 0 1 1-1zM7.884 14.007a1 1 0 0 1 1.11.877 17 17 0 0 0 1.7 5.666 1 1 0 0 1-1.787.9 19 19 0 0 1-1.9-6.334 1 1 0 0 1 .877-1.11z" clip-rule="evenodd"/>
  <path fill="#1F2937" fill-rule="evenodd" d="M15.5 4.914A7 7 0 0 0 5 10.995v1.003a21 21 0 0 0 .859 6.715 1 1 0 1 1-1.918.57A23 23 0 0 1 3 11.982v-.983a9 9 0 0 1 13.5-7.817 1 1 0 1 1-1 1.732z" clip-rule="evenodd"/>
</svg>
