<svg fill="none" stroke="currentColor" viewBox="0 0 24 24">
  <path fill="#1F2937" fill-rule="evenodd" d="M5 3.993a1 1 0 0 1 1 1v16a1 1 0 0 1-2 0v-16a1 1 0 0 1 1-1zM19 3.993a1 1 0 0 1 1 1v9a1 1 0 0 1-2 0v-9a1 1 0 0 1 1-1z" clip-rule="evenodd"/>
  <path fill="#1F2937" fill-rule="evenodd" d="M8.5 4.586a4 4 0 0 0-2.8 1.143 1 1 0 1 1-1.4-1.428 6 6 0 0 1 8.4 0 4 4 0 0 0 5.6 0 1 1 0 1 1 1.4 1.428 6 6 0 0 1-8.4 0 4 4 0 0 0-2.8-1.143zM8.5 13.586a4 4 0 0 0-2.8 1.143 1 1 0 1 1-1.4-1.428 6 6 0 0 1 8.4 0 4 4 0 0 0 5.6 0 1 1 0 0 1 1.4 1.428 6 6 0 0 1-8.4 0 4 4 0 0 0-2.8-1.143z" clip-rule="evenodd"/>
</svg>
