<svg fill="none" stroke="currentColor" viewBox="0 0 24 24">
  <path fill="#1F2937" d="M12 12.507a.5.5 0 1 0 0-1 .5.5 0 0 0 0 1z"/>
  <path fill="#1F2937" fill-rule="evenodd" d="M12 12.507a.5.5 0 1 0 0-1 .5.5 0 0 0 0 1zm-1.5-.5a1.5 1.5 0 1 1 3 0 1.5 1.5 0 0 1-3 0z" clip-rule="evenodd"/>
  <path fill="#1F2937" fill-rule="evenodd" d="M12 5.993a6 6 0 1 0 0 12 6 6 0 0 0 0-12zm-8 6a8 8 0 1 1 16 0 8 8 0 0 1-16 0z" clip-rule="evenodd"/>
  <path fill="#1F2937" fill-rule="evenodd" d="M12 2a1 1 0 0 1 1 1v2a1 1 0 1 1-2 0V3a1 1 0 0 1 1-1zM2 12a1 1 0 0 1 1-1h2a1 1 0 1 1 0 2H3a1 1 0 0 1-1-1zM12 18.007a1 1 0 0 1 1 1v2a1 1 0 1 1-2 0v-2a1 1 0 0 1 1-1zM18 12a1 1 0 0 1 1-1h2a1 1 0 1 1 0 2h-2a1 1 0 0 1-1-1z" clip-rule="evenodd"/>
</svg>
