<svg fill="none" stroke="currentColor" viewBox="0 0 24 24">
  <path fill="#1F2937" fill-rule="evenodd" d="M5 5.008a1 1 0 0 0-1 1v11a1 1 0 0 0 1 1h14a1 1 0 0 0 1-1v-8a1 1 0 0 0-1-1h-7a1 1 0 0 1-.707-.293L8.586 5.008H5zM2.879 3.886A3 3 0 0 1 5 3.008h4a1 1 0 0 1 .707.292l2.707 2.708H19a3 3 0 0 1 3 3v8a3 3 0 0 1-3 3H5a3 3 0 0 1-3-3v-11a3 3 0 0 1 .879-2.122z" clip-rule="evenodd"/>
  <path fill="#1F2937" fill-rule="evenodd" d="M12 9.008a1 1 0 0 1 1 1v6a1 1 0 1 1-2 0v-6a1 1 0 0 1 1-1z" clip-rule="evenodd"/>
  <path fill="#1F2937" fill-rule="evenodd" d="M8 13.008a1 1 0 0 1 1-1h6a1 1 0 1 1 0 2H9a1 1 0 0 1-1-1z" clip-rule="evenodd"/>
</svg>
