<svg fill="none" stroke="currentColor" viewBox="0 0 24 24">
  <path fill="#1F2937" fill-rule="evenodd" d="M5 5.008a1 1 0 0 0-1 1v11a1 1 0 0 0 1 1h14a1 1 0 0 0 1-1v-8a1 1 0 0 0-1-1h-7a1 1 0 0 1-.707-.293L8.586 5.008H5zM2.879 3.886A3 3 0 0 1 5 3.008h4a1 1 0 0 1 .707.292l2.707 2.708H19a3 3 0 0 1 3 3v8a3 3 0 0 1-3 3H5a3 3 0 0 1-3-3v-11a3 3 0 0 1 .879-2.122z" clip-rule="evenodd"/>
  <path fill="#1F2937" fill-rule="evenodd" d="M9.293 10.285a1 1 0 0 1 1.414 0L12 11.578l1.293-1.293a1 1 0 0 1 1.414 1.415l-1.293 1.292 1.293 1.293a1 1 0 0 1-1.414 1.415L12 14.407 10.707 15.7a1 1 0 1 1-1.414-1.415l1.293-1.293L9.293 11.7a1 1 0 0 1 0-1.414z" clip-rule="evenodd"/>
</svg>
