<svg fill="none" stroke="currentColor" viewBox="0 0 24 24">
  <path fill="#1F2937" fill-rule="evenodd" d="M9 5.008a1 1 0 0 0-1 1v9a1 1 0 0 0 1 1h10a1 1 0 0 0 1-1v-7a1 1 0 0 0-1-1h-5a1 1 0 0 1-.707-.293l-1.707-1.707H9zM6.879 3.886A3 3 0 0 1 9 3.008h3a1 1 0 0 1 .707.292l1.707 1.708H19a3 3 0 0 1 3 3v7a3 3 0 0 1-3 3H9a3 3 0 0 1-3-3v-9a3 3 0 0 1 .879-2.122z" clip-rule="evenodd"/>
  <path fill="#1F2937" fill-rule="evenodd" d="M5 8.992a1 1 0 0 0-1 1v9a1 1 0 0 0 1 1h10a1 1 0 0 0 1-1v-2a1 1 0 1 1 2 0v2a3 3 0 0 1-3 3H5a3 3 0 0 1-3-3v-9a3 3 0 0 1 3-3h2a1 1 0 0 1 0 2H5z" clip-rule="evenodd"/>
</svg>
