<svg fill="none" stroke="currentColor" viewBox="0 0 24 24">
  <path fill="#1F2937" fill-rule="evenodd" d="M5 16a1 1 0 1 0 0 2 1 1 0 0 0 0-2zm-3 1a3 3 0 1 1 6 0 3 3 0 0 1-6 0zM14 16a1 1 0 1 0 0 2 1 1 0 0 0 0-2zm-3 1a3 3 0 1 1 6 0 3 3 0 0 1-6 0z" clip-rule="evenodd"/>
  <path fill="#1F2937" fill-rule="evenodd" d="M6 16.992a1 1 0 0 1 1-1h5a1 1 0 1 1 0 2H7a1 1 0 0 1-1-1z" clip-rule="evenodd"/>
  <path fill="#1F2937" fill-rule="evenodd" d="M2 10.992a1 1 0 0 1 1-1h13a1 1 0 0 1 1 1v6a1 1 0 1 1-2 0v-5H4v5a1 1 0 1 1-2 0v-6z" clip-rule="evenodd"/>
  <path fill="#1F2937" fill-rule="evenodd" d="M4 7.008a1 1 0 0 1 1-1h4a1 1 0 1 1 0 2H6v3a1 1 0 1 1-2 0v-4z" clip-rule="evenodd"/>
  <path fill="#1F2937" fill-rule="evenodd" d="M8 4.992a1 1 0 0 1 1-1h4a1 1 0 0 1 .894.553l3 6a1 1 0 1 1-1.788.895l-2.724-5.448H10v5a1 1 0 1 1-2 0v-6zM19 3.992a1 1 0 0 1 1 1v9h2a1 1 0 1 1 0 2h-3a1 1 0 0 1-1-1v-10a1 1 0 0 1 1-1z" clip-rule="evenodd"/>
  <path fill="#1F2937" fill-rule="evenodd" d="M15 13.008a1 1 0 0 1 1-1h3a1 1 0 1 1 0 2h-3a1 1 0 0 1-1-1z" clip-rule="evenodd"/>
</svg>
