<svg fill="none" stroke="currentColor" viewBox="0 0 24 24">
  <path fill="#1F2937" fill-rule="evenodd" d="M7 4a1 1 0 1 0 0 2 1 1 0 0 0 0-2zM4 5a3 3 0 1 1 6 0 3 3 0 0 1-6 0zM3.586 10.578A2 2 0 0 1 5 9.992h4a2 2 0 0 1 2 2v4a1 1 0 0 1-.293.707l-.707.708v4.585a1 1 0 1 1-2 0v-5a1 1 0 0 1 .293-.707L9 15.578v-3.586H5v3.586l.707.707a1 1 0 0 1 .293.707v5a1 1 0 1 1-2 0v-4.585l-.707-.707A1 1 0 0 1 3 15.992v-4a2 2 0 0 1 .586-1.414zM17 4a1 1 0 1 0 0 2 1 1 0 0 0 0-2zm-3 1a3 3 0 1 1 6 0 3 3 0 0 1-6 0zM14.586 10.578A2 2 0 0 1 16 9.992h2a2 2 0 0 1 1.991 1.811l1.958 5.873A1 1 0 0 1 21 18.992h-1v3a1 1 0 1 1-2 0v-4a1 1 0 0 1 1-1h.613L18.05 12.31a1 1 0 0 1-.051-.317h-2a1 1 0 0 1-.051.317l-1.562 4.683H15a1 1 0 0 1 1 1v4a1 1 0 1 1-2 0v-3h-1a1 1 0 0 1-.949-1.316l1.958-5.873a2 2 0 0 1 .577-1.225z" clip-rule="evenodd"/>
</svg>
