<svg fill="none" stroke="currentColor" viewBox="0 0 24 24">
  <path fill="#1F2937" fill-rule="evenodd" d="M12 5.007a6 6 0 0 0-6 6v7a1 1 0 0 1-.008.125.78.78 0 0 0 1.345.629 2.65 2.65 0 0 1 4.151.03.65.65 0 0 0 1.024 0 2.65 2.65 0 0 1 4.151-.03.78.78 0 0 0 1.345-.63.995.995 0 0 1-.008-.124v-7a6 6 0 0 0-6-6zm-8 6a8 8 0 0 1 16 0v6.945a2.78 2.78 0 0 1-4.888 2.071.65.65 0 0 0-1.024 0 2.65 2.65 0 0 1-4.176 0 .65.65 0 0 0-1.024 0A2.78 2.78 0 0 1 4 17.952v-6.945z" clip-rule="evenodd"/>
  <path fill="#1F2937" fill-rule="evenodd" d="M9 10.007a1 1 0 0 1 1-1h.01a1 1 0 1 1 0 2H10a1 1 0 0 1-1-1zM13 10.007a1 1 0 0 1 1-1h.01a1 1 0 1 1 0 2H14a1 1 0 0 1-1-1zM9.18 13.421a1 1 0 0 1 1.392-.25 2.5 2.5 0 0 0 2.857 0 1 1 0 1 1 1.143 1.642 4.5 4.5 0 0 1-5.143 0 1 1 0 0 1-.25-1.392z" clip-rule="evenodd"/>
</svg>
