<svg fill="none" stroke="currentColor" viewBox="0 0 24 24">
  <path fill="#1F2937" fill-rule="evenodd" d="M2 8.993a2 2 0 0 1 2-2h16a2 2 0 0 1 2 2v2a2 2 0 0 1-2 2H4a2 2 0 0 1-2-2v-2zm18 0H4v2h16v-2z" clip-rule="evenodd"/>
  <path fill="#1F2937" fill-rule="evenodd" d="M12 6.993a1 1 0 0 1 1 1v13a1 1 0 0 1-2 0v-13a1 1 0 0 1 1-1z" clip-rule="evenodd"/>
  <path fill="#1F2937" fill-rule="evenodd" d="M5 11a1 1 0 0 1 1 1v7a1 1 0 0 0 1 1h10a1 1 0 0 0 1-1v-7a1 1 0 1 1 2 0v7a3 3 0 0 1-3 3H7a3 3 0 0 1-3-3v-7a1 1 0 0 1 1-1zM9.47 5.012C8.81 4.28 8.123 3.99 7.516 4H7.5a1.5 1.5 0 1 0 0 3 1 1 0 1 1 0 2 3.5 3.5 0 0 1-.009-7c1.32-.02 2.522.626 3.465 1.674.394.438.743.944 1.044 1.503a7.711 7.711 0 0 1 1.044-1.503C13.987 2.626 15.19 1.98 16.509 2a3.5 3.5 0 0 1-.009 7 1 1 0 1 1 0-2 1.5 1.5 0 0 0 0-3h-.017c-.607-.01-1.292.279-1.952 1.012-.666.74-1.226 1.85-1.56 3.224a1 1 0 0 1-1.943 0c-.333-1.373-.893-2.485-1.559-3.224z" clip-rule="evenodd"/>
</svg>
