<svg fill="none" stroke="currentColor" viewBox="0 0 24 24">
  <path fill="#1F2937" fill-rule="evenodd" d="M6 5.008a1 1 0 1 0 0 2 1 1 0 0 0 0-2zm-3 1a3 3 0 1 1 6 0 3 3 0 0 1-6 0zM18 17.008a1 1 0 1 0 0 2 1 1 0 0 0 0-2zm-3 1a3 3 0 1 1 6 0 3 3 0 0 1-6 0z" clip-rule="evenodd"/>
  <path fill="#1F2937" fill-rule="evenodd" d="M10 6a1 1 0 0 1 1-1h5a3 3 0 0 1 3 3v8a1 1 0 1 1-2 0V8a1 1 0 0 0-1-1h-5a1 1 0 0 1-1-1z" clip-rule="evenodd"/>
  <path fill="#1F2937" fill-rule="evenodd" d="M14.707 2.293a1 1 0 0 1 0 1.414L12.414 6l2.293 2.293a1 1 0 0 1-1.414 1.414l-3-3a1 1 0 0 1 0-1.414l3-3a1 1 0 0 1 1.414 0zM6 6.992a1 1 0 0 1 1 1v8a1 1 0 0 0 1 1h5a1 1 0 1 1 0 2H8a3 3 0 0 1-3-3v-8a1 1 0 0 1 1-1z" clip-rule="evenodd"/>
  <path fill="#1F2937" fill-rule="evenodd" d="M9.293 14.293a1 1 0 0 1 1.414 0l3 3a1 1 0 0 1 0 1.414l-3 3a1 1 0 0 1-1.414-1.414L11.586 18l-2.293-2.293a1 1 0 0 1 0-1.414z" clip-rule="evenodd"/>
</svg>
