<svg fill="none" stroke="currentColor" viewBox="0 0 24 24">
  <path fill="#1F2937" fill-rule="evenodd" d="M7 17.008a1 1 0 1 0 0 2 1 1 0 0 0 0-2zm-3 1a3 3 0 1 1 6 0 3 3 0 0 1-6 0zM7 5.008a1 1 0 1 0 0 2 1 1 0 0 0 0-2zm-3 1a3 3 0 1 1 6 0 3 3 0 0 1-6 0zM17 11.008a1 1 0 1 0 0 2 1 1 0 0 0 0-2zm-3 1a3 3 0 1 1 6 0 3 3 0 0 1-6 0z" clip-rule="evenodd"/>
  <path fill="#1F2937" fill-rule="evenodd" d="M7 6.992a1 1 0 0 1 1 1v8a1 1 0 1 1-2 0v-8a1 1 0 0 1 1-1z" clip-rule="evenodd"/>
  <path fill="#1F2937" fill-rule="evenodd" d="M7 6.992a1 1 0 0 1 1 1 3 3 0 0 0 3 3h4a1 1 0 1 1 0 2h-4a5 5 0 0 1-5-5 1 1 0 0 1 1-1z" clip-rule="evenodd"/>
</svg>
