<svg fill="none" stroke="currentColor" viewBox="0 0 24 24">
  <path fill="#1F2937" fill-rule="evenodd" d="M6 14.008a1 1 0 0 0-1 1v3a1 1 0 0 0 1 1h1a1 1 0 0 0 1-1v-3a1 1 0 0 0-1-1H6zm-3 1a3 3 0 0 1 3-3h1a3 3 0 0 1 3 3v3a3 3 0 0 1-3 3H6a3 3 0 0 1-3-3v-3zM17 14.008a1 1 0 0 0-1 1v3a1 1 0 0 0 1 1h1a1 1 0 0 0 1-1v-3a1 1 0 0 0-1-1h-1zm-3 1a3 3 0 0 1 3-3h1a3 3 0 0 1 3 3v3a3 3 0 0 1-3 3h-1a3 3 0 0 1-3-3v-3z" clip-rule="evenodd"/>
  <path fill="#1F2937" fill-rule="evenodd" d="M12 5.008a7 7 0 0 0-7 7v3a1 1 0 1 1-2 0v-3a9 9 0 1 1 18 0v3a1 1 0 1 1-2 0v-3a7 7 0 0 0-7-7z" clip-rule="evenodd"/>
</svg>
