<svg fill="none" stroke="currentColor" viewBox="0 0 24 24">
  <path fill="#1F2937" fill-rule="evenodd" d="M6 14.008a1 1 0 0 0-1 1v2a1 1 0 1 0 2 0v-2a1 1 0 0 0-1-1zm-3 1a3 3 0 1 1 6 0v2a3 3 0 0 1-6 0v-2zM18 14.008a1 1 0 0 0-1 1v2a1 1 0 1 0 2 0v-2a1 1 0 0 0-1-1zm-3 1a3 3 0 1 1 6 0v2a3 3 0 0 1-6 0v-2z" clip-rule="evenodd"/>
  <path fill="#1F2937" fill-rule="evenodd" d="M12 5.008a7 7 0 0 0-7 7v3a1 1 0 1 1-2 0v-3a9 9 0 1 1 18 0v3a1 1 0 1 1-2 0v-3a7 7 0 0 0-7-7zM18 18.008a1 1 0 0 1 1 1c0 1.366-1.061 2.39-2.31 3.015-1.296.648-2.984.985-4.69.985a1 1 0 1 1 0-2c1.476 0 2.84-.296 3.795-.773C16.797 19.733 17 19.233 17 19.008a1 1 0 0 1 1-1z" clip-rule="evenodd"/>
</svg>
