<svg fill="none" stroke="currentColor" viewBox="0 0 24 24">
  <path fill="#1F2937" fill-rule="evenodd" d="M12 4a8 8 0 1 0 0 16 8 8 0 0 0 0-16zM2 12C2 6.477 6.477 2 12 2s10 4.477 10 10-4.477 10-10 10S2 17.523 2 12z" clip-rule="evenodd"/>
  <path fill="#1F2937" fill-rule="evenodd" d="M12 15.993a1 1 0 0 1 1 1v.01a1 1 0 0 1-2 0v-.01a1 1 0 0 1 1-1zM10.475 6.335a3.6 3.6 0 1 1 2.857 6.598.5.5 0 0 0-.334.5 1 1 0 1 1-1.996.113 2.5 2.5 0 0 1 1.65-2.494 1.6 1.6 0 1 0-1.855-2.458 1 1 0 1 1-1.594-1.209 3.6 3.6 0 0 1 1.272-1.05z" clip-rule="evenodd"/>
</svg>
