<svg fill="none" stroke="currentColor" viewBox="0 0 24 24">
  <path fill="#1F2937" fill-rule="evenodd" d="M12 6.992a1 1 0 0 1 1 1v3.586l1.707 1.707a1 1 0 0 1-1.414 1.415l-2-2a1 1 0 0 1-.293-.708v-4a1 1 0 0 1 1-1z" clip-rule="evenodd"/>
  <path fill="#1F2937" fill-rule="evenodd" d="M17.3 5.879A8.03 8.03 0 0 0 6.617 6a7.994 7.994 0 0 0-2.557 4.985l.377 3.008h3.626a1.001 1.001 0 1 1 0 2h-2.93a8.011 8.011 0 0 0 3.107 2.965 8.035 8.035 0 0 0 10.383-2.505 7.986 7.986 0 0 0-1.325-10.575zM4.054 17.968a10.044 10.044 0 0 0 10.328 3.659 10.024 10.024 0 0 0 5.89-4.036 9.982 9.982 0 0 0-1.656-13.219 10.037 10.037 0 0 0-13.351.152 9.992 9.992 0 0 0-3.21 6.37.998.998 0 0 0 .002.224l.386 3.082a.998.998 0 0 0-.394.795v5a1.001 1.001 0 0 0 2.005 0v-2.027z" clip-rule="evenodd"/>
</svg>
