<svg fill="none" stroke="currentColor" viewBox="0 0 24 24">
  <path fill="#1F2937" fill-rule="evenodd" d="M11.293 2.293a1 1 0 0 1 1.414 0l9 9A1 1 0 0 1 21 13h-2a1 1 0 0 1-.35-1.937L12 4.414l-6.65 6.65A1 1 0 0 1 5 13H3a1 1 0 0 1-.707-1.707l9-9z" clip-rule="evenodd"/>
  <path fill="#1F2937" fill-rule="evenodd" d="M5 11a1 1 0 0 1 1 1v7a1 1 0 0 0 1 1h10a1 1 0 0 0 1-1v-7a1 1 0 1 1 2 0v7a3 3 0 0 1-3 3H7a3 3 0 0 1-3-3v-7a1 1 0 0 1 1-1z" clip-rule="evenodd"/>
  <path fill="#1F2937" fill-rule="evenodd" d="M11 14.007a1 1 0 0 0-1 1v6a1 1 0 1 1-2 0v-6a3 3 0 0 1 3-3h2a3 3 0 0 1 3 3v6a1 1 0 1 1-2 0v-6a1 1 0 0 0-1-1h-2z" clip-rule="evenodd"/>
</svg>
