<svg fill="none" stroke="currentColor" viewBox="0 0 24 24">
  <path fill="#1F2937" fill-rule="evenodd" d="M8.707 15.3a1 1 0 0 1 0 1.415l-4 4A1 1 0 0 1 3.293 19.3l4-4a1 1 0 0 1 1.414 0z" clip-rule="evenodd"/>
  <path fill="#1F2937" fill-rule="evenodd" d="M4.293 12.3a1 1 0 0 1 1.414 0l6 6a1 1 0 0 1-1.414 1.415l-6-6a1 1 0 0 1 0-1.415z" clip-rule="evenodd"/>
  <path fill="#1F2937" fill-rule="evenodd" d="M11.293 5.293a5.243 5.243 0 0 1 7.414 7.414l-7 7a1 1 0 0 1-1.414-1.414l7-7a3.243 3.243 0 0 0-4.586-4.586l-7 7a1 1 0 0 1-1.414-1.414l7-7z" clip-rule="evenodd"/>
</svg>
