<svg fill="none" stroke="currentColor" viewBox="0 0 24 24">
  <path fill="#1F2937" fill-rule="evenodd" d="M6 5.008a2 2 0 0 0-2 2v10a2 2 0 0 0 2 2h12a2 2 0 0 0 2-2v-10a2 2 0 0 0-2-2H6zm-4 2a4 4 0 0 1 4-4h12a4 4 0 0 1 4 4v10a4 4 0 0 1-4 4H6a4 4 0 0 1-4-4v-10z" clip-rule="evenodd"/>
  <path fill="#1F2937" fill-rule="evenodd" d="M9 8.992a1 1 0 1 0 0 2 1 1 0 0 0 0-2zm-3 1a3 3 0 1 1 6 0 3 3 0 0 1-6 0zM14 7.992a1 1 0 0 1 1-1h2a1 1 0 1 1 0 2h-2a1 1 0 0 1-1-1zM14 12a1 1 0 0 1 1-1h2a1 1 0 1 1 0 2h-2a1 1 0 0 1-1-1zM6 16.008a1 1 0 0 1 1-1h10a1 1 0 1 1 0 2H7a1 1 0 0 1-1-1z" clip-rule="evenodd"/>
</svg>
