<svg fill="none" stroke="currentColor" viewBox="0 0 24 24">
  <path fill="#1F2937" fill-rule="evenodd" d="M6 5.007a1 1 0 0 0-1 1v12a1 1 0 0 0 1 1h12a1 1 0 0 0 1-1v-12a1 1 0 0 0-1-1H6zm-3 1a3 3 0 0 1 3-3h12a3 3 0 0 1 3 3v12a3 3 0 0 1-3 3H6a3 3 0 0 1-3-3v-12z" clip-rule="evenodd"/>
  <path fill="#1F2937" fill-rule="evenodd" d="M3 13.007a1 1 0 0 1 1-1h3a1 1 0 0 1 .707.293l2.707 2.707h3.172l2.707-2.707a1 1 0 0 1 .707-.293h3a1 1 0 0 1 0 2h-2.586l-2.707 2.708a1 1 0 0 1-.707.292h-4a1 1 0 0 1-.707-.292l-2.707-2.708H4a1 1 0 0 1-1-1z" clip-rule="evenodd"/>
</svg>
