<svg fill="none" stroke="currentColor" viewBox="0 0 24 24">
  <path fill="#1F2937" fill-rule="evenodd" d="M5.086 7.373a5 5 0 0 1 5.431 1.067c.55.5 1.046 1.055 1.483 1.653.436-.598.933-1.153 1.483-1.653a5 5 0 1 1 0 7.105c-.55-.5-1.047-1.055-1.483-1.653a11.002 11.002 0 0 1-1.483 1.653 5 5 0 1 1-5.431-8.172zm5.772 4.62a9 9 0 0 0-1.742-2.126 3 3 0 1 0 .04 4.213 9 9 0 0 0 1.702-2.088zm2.284 0a8.997 8.997 0 0 0 1.737 2.12 3 3 0 1 0-.035-4.208 8.998 8.998 0 0 0-1.702 2.088z" clip-rule="evenodd"/>
</svg>
