<svg fill="none" stroke="currentColor" viewBox="0 0 24 24">
  <path fill="#1F2937" fill-rule="evenodd" d="M5 5.007a1 1 0 0 0-1 1v12a1 1 0 0 0 1 1h14a1 1 0 0 0 1-1v-12a1 1 0 0 0-1-1H5zm-3 1a3 3 0 0 1 3-3h14a3 3 0 0 1 3 3v12a3 3 0 0 1-3 3H5a3 3 0 0 1-3-3v-12z" clip-rule="evenodd"/>
  <path fill="#1F2937" fill-rule="evenodd" d="M7 6.993a1 1 0 0 1 1 1v.01a1 1 0 1 1-2 0v-.01a1 1 0 0 1 1-1zM12 6.993a1 1 0 0 1 1 1v.01a1 1 0 1 1-2 0v-.01a1 1 0 0 1 1-1zM17 6.993a1 1 0 0 1 1 1v.01a1 1 0 1 1-2 0v-.01a1 1 0 0 1 1-1zM7 11a1 1 0 0 1 1 1v.01a1 1 0 1 1-2 0V12a1 1 0 0 1 1-1zM12 11a1 1 0 0 1 1 1v.01a1 1 0 1 1-2 0V12a1 1 0 0 1 1-1zM17 11a1 1 0 0 1 1 1v.01a1 1 0 1 1-2 0V12a1 1 0 0 1 1-1zM6 16.007a1 1 0 0 1 1-1h10a1 1 0 0 1 0 2H7a1 1 0 0 1-1-1z" clip-rule="evenodd"/>
</svg>
