<svg fill="none" stroke="currentColor" viewBox="0 0 24 24">
  <path fill="#1F2937" fill-rule="evenodd" d="M10 5.007a1 1 0 0 0-1 1v2a1 1 0 0 1-1 1H6a1 1 0 0 0-1 1v8a1 1 0 0 0 1 1h8a1 1 0 0 0 1-1v-2a1 1 0 0 1 1-1h2a1 1 0 0 0 1-1v-8a1 1 0 0 0-1-1h-8zm-2.121-1.12A3 3 0 0 1 10 3.006h8a3 3 0 0 1 3 3v8a3 3 0 0 1-3 3h-1v1a3 3 0 0 1-3 3H6a3 3 0 0 1-3-3v-8a3 3 0 0 1 3-3h1v-1a3 3 0 0 1 .879-2.12z" clip-rule="evenodd"/>
  <path fill="#1F2937" fill-rule="evenodd" d="M7 7.993a1 1 0 0 1 1-1h2a1 1 0 1 1 0 2H9v1a1 1 0 0 1-2 0v-2zm6 0a1 1 0 0 1 1-1h2a1 1 0 0 1 1 1v2a1 1 0 0 1-2 0v-1h-1a1 1 0 0 1-1-1zm-5 5a1 1 0 0 1 1 1v1h1a1 1 0 1 1 0 2H8a1 1 0 0 1-1-1v-2a1 1 0 0 1 1-1zm8 0a1 1 0 0 1 1 1v2a1 1 0 0 1-1 1h-2a1 1 0 0 1 0-2h1v-1a1 1 0 0 1 1-1z" clip-rule="evenodd"/>
</svg>
