<svg fill="none" stroke="currentColor" viewBox="0 0 24 24">
  <path fill="#1F2937" fill-rule="evenodd" d="M6 5.008a1 1 0 0 0-1 1v1a1 1 0 0 0 1 1h2a1 1 0 0 0 1-1v-1a1 1 0 0 0-1-1H6zm-3 1a3 3 0 0 1 3-3h2a3 3 0 0 1 3 3v1a3 3 0 0 1-3 3H6a3 3 0 0 1-3-3v-1zM6 14.008a1 1 0 0 0-1 1v3a1 1 0 0 0 1 1h2a1 1 0 0 0 1-1v-3a1 1 0 0 0-1-1H6zm-3 1a3 3 0 0 1 3-3h2a3 3 0 0 1 3 3v3a3 3 0 0 1-3 3H6a3 3 0 0 1-3-3v-3zM16 5.008a1 1 0 0 0-1 1v3a1 1 0 0 0 1 1h2a1 1 0 0 0 1-1v-3a1 1 0 0 0-1-1h-2zm-3 1a3 3 0 0 1 3-3h2a3 3 0 0 1 3 3v3a3 3 0 0 1-3 3h-2a3 3 0 0 1-3-3v-3zM16 16a1 1 0 0 0-1 1v1a1 1 0 0 0 1 1h2a1 1 0 0 0 1-1v-1a1 1 0 0 0-1-1h-2zm-3 1a3 3 0 0 1 3-3h2a3 3 0 0 1 3 3v1a3 3 0 0 1-3 3h-2a3 3 0 0 1-3-3v-1z" clip-rule="evenodd"/>
</svg>
