<svg fill="none" stroke="currentColor" viewBox="0 0 24 24">
  <path fill="#1F2937" fill-rule="evenodd" d="M8.5 10.993a1 1 0 0 1 1-1h.01a1 1 0 0 1 0 2H9.5a1 1 0 0 1-1-1zM13.5 10.993a1 1 0 0 1 1-1h.01a1 1 0 0 1 0 2h-.01a1 1 0 0 1-1-1zM8.8 14.286a1 1 0 0 1 1.414.014 2.5 2.5 0 0 0 3.572 0 1 1 0 0 1 1.428 1.4 4.5 4.5 0 0 1-6.428 0 1 1 0 0 1 .014-1.414z" clip-rule="evenodd"/>
  <path fill="#1F2937" fill-rule="evenodd" d="M7 3a1 1 0 0 1 1-1h8a1 1 0 0 1 1 1v1a4 4 0 0 1 4 4v9a4 4 0 0 1-3 3.873V21a1 1 0 0 1-1 1H7a1 1 0 0 1-1-1v-.127A4 4 0 0 1 3 17V8a4 4 0 0 1 4-4V3zm2 1v1a1 1 0 0 1-1 1H7a2 2 0 0 0-2 2v9a2 2 0 0 0 2 2 1 1 0 0 1 1 1h8a1 1 0 0 1 1-1 2 2 0 0 0 2-2V8a2 2 0 0 0-2-2h-1a1 1 0 0 1-1-1V4H9z" clip-rule="evenodd"/>
</svg>
