<svg fill="none" stroke="currentColor" viewBox="0 0 24 24">
  <path fill="#1F2937" fill-rule="evenodd" d="M12 8.993a3 3 0 1 0 0 6 3 3 0 0 0 0-6zm-5 3a5 5 0 1 1 10 0 5 5 0 0 1-10 0z" clip-rule="evenodd"/>
  <path fill="#1F2937" fill-rule="evenodd" d="M12 4a8 8 0 1 0 0 16 8 8 0 0 0 0-16zM2 12C2 6.477 6.477 2 12 2s10 4.477 10 10-4.477 10-10 10S2 17.523 2 12z" clip-rule="evenodd"/>
  <path fill="#1F2937" fill-rule="evenodd" d="M14.293 14.293a1 1 0 0 1 1.414 0l3.35 3.35a1 1 0 0 1-1.414 1.414l-3.35-3.35a1 1 0 0 1 0-1.414zM9.707 14.293a1 1 0 0 1 0 1.414l-3.35 3.35a1 1 0 0 1-1.414-1.414l3.35-3.35a1 1 0 0 1 1.414 0zM4.943 4.941a1 1 0 0 1 1.414 0l3.35 3.35a1 1 0 0 1-1.414 1.414l-3.35-3.35a1 1 0 0 1 0-1.414zM19.057 4.941a1 1 0 0 1 0 1.414l-3.35 3.35a1 1 0 1 1-1.414-1.414l3.35-3.35a1 1 0 0 1 1.414 0z" clip-rule="evenodd"/>
</svg>
