<svg fill="none" stroke="currentColor" viewBox="0 0 24 24">
  <path fill="#1F2937" fill-rule="evenodd" d="M13 5.007a1 1 0 0 0-1 1v1a5 5 0 0 1-4 4.9v5.1a2 2 0 0 0 2 2h7a1 1 0 0 1 .085.004c.087.007.238-.017.43-.21.2-.199.396-.54.508-1.007l.974-4.869a1 1 0 0 0-.997-.918h-3a1 1 0 0 1-1-1v-5a1 1 0 0 0-1-1zm-5.4 15.2a2.007 2.007 0 0 1-1.6.8H4a2 2 0 0 1-2-2v-7a2 2 0 0 1 2-2h3a3 3 0 0 0 3-3v-1a3 3 0 0 1 6 0v4h2a3 3 0 0 1 3 3c0 .066-.006.132-.02.197l-1 5-.006.032c-.177.752-.524 1.46-1.044 1.98-.518.517-1.207.84-1.967.791H10a4 4 0 0 1-2.4-.8zm-1.6-8.2H4v7h2v-7z" clip-rule="evenodd"/>
</svg>
