<svg fill="none" stroke="currentColor" viewBox="0 0 24 24">
  <path fill="#1F2937" fill-rule="evenodd" d="M5.293 4.285a1 1 0 0 1 1.414 0l3 3A1 1 0 0 1 8.293 8.7L6 6.407 3.707 8.7a1 1 0 0 1-1.414-1.415l3-3zM2.293 15.3a1 1 0 0 1 1.414 0L6 17.593 8.293 15.3a1 1 0 0 1 1.414 1.415l-3 3a1 1 0 0 1-1.414 0l-3-3a1 1 0 0 1 0-1.415z" clip-rule="evenodd"/>
  <path fill="#1F2937" fill-rule="evenodd" d="M6 3.992a1 1 0 0 1 1 1v14a1 1 0 1 1-2 0v-14a1 1 0 0 1 1-1zM12 6a1 1 0 0 1 1-1h7a1 1 0 1 1 0 2h-7a1 1 0 0 1-1-1zM12 12a1 1 0 0 1 1-1h7a1 1 0 1 1 0 2h-7a1 1 0 0 1-1-1zM12 18a1 1 0 0 1 1-1h7a1 1 0 1 1 0 2h-7a1 1 0 0 1-1-1z" clip-rule="evenodd"/>
</svg>
