<svg fill="none" stroke="currentColor" viewBox="0 0 24 24">
  <path fill="#1F2937" fill-rule="evenodd" d="M13.293 4.29a4.536 4.536 0 0 1 6.414 6.413L15.71 14.7a4.5 4.5 0 0 1-6.424-.004 1 1 0 0 1 1.428-1.4 2.5 2.5 0 0 0 3.572 0l.007-.007 4-4a2.536 2.536 0 0 0-3.586-3.586l-.5.5a1 1 0 1 1-1.414-1.414l.5-.5z" clip-rule="evenodd"/>
  <path fill="#1F2937" fill-rule="evenodd" d="M9.757 8.305a4.5 4.5 0 0 1 4.957.999 1 1 0 0 1-1.428 1.4 2.5 2.5 0 0 0-3.572 0l-.007.007-4 4a2.535 2.535 0 1 0 3.586 3.586l.5-.5a1 1 0 1 1 1.414 1.414l-.5.5a4.536 4.536 0 0 1-6.414-6.414L8.289 9.3a4.5 4.5 0 0 1 1.468-.995z" clip-rule="evenodd"/>
</svg>
