<svg fill="none" stroke="currentColor" viewBox="0 0 24 24">
  <path fill="#1F2937" fill-rule="evenodd" d="M10 11.993a2 2 0 1 1 4 0 2 2 0 0 1-4 0z" clip-rule="evenodd"/>
  <path fill="#1F2937" fill-rule="evenodd" d="M12 8.007a4 4 0 1 0 0 8 4 4 0 0 0 0-8zm-6 4a6 6 0 1 1 12 0 6 6 0 0 1-12 0zM11 3a1 1 0 1 1 2 0 1 1 0 0 1-2 0zm3.52.3a1 1 0 1 1 1.848.766 1 1 0 0 1-1.847-.766zm-5.04 0a1 1 0 1 1-1.848.766A1 1 0 0 1 9.479 3.3zm8.177 1.629a1 1 0 1 1 1.414 1.414 1 1 0 0 1-1.415-1.414zm-11.314 0A1 1 0 1 1 4.93 6.343a1 1 0 0 1 1.414-1.414zm13.59 2.702a1 1 0 1 1 .767 1.847 1 1 0 0 1-.766-1.847zm-15.867 0A1 1 0 1 1 3.3 9.478a1 1 0 0 1 .766-1.847zM21 11a1 1 0 1 1 0 2 1 1 0 0 1 0-2zM3 11a1 1 0 1 1 0 2 1 1 0 0 1 0-2zm17.7 3.52a1 1 0 1 1-.766 1.849 1 1 0 0 1 .766-1.848zm-17.4 0a1 1 0 1 1 .766 1.848 1 1 0 0 1-.766-1.847zm15.771 3.137a1 1 0 1 1-1.414 1.414 1 1 0 0 1 1.414-1.415zm-14.142 0a1 1 0 1 1 1.414 1.414 1 1 0 0 1-1.414-1.415zm11.44 2.277a1 1 0 1 1-1.847.766 1 1 0 0 1 1.847-.766zm-8.738 0a1 1 0 1 1 1.847.766 1 1 0 0 1-1.847-.766zM11 21a1 1 0 1 1 2 0 1 1 0 0 1-2 0z" clip-rule="evenodd"/>
</svg>
