<svg fill="none" stroke="currentColor" viewBox="0 0 24 24">
  <path fill="#1F2937" fill-rule="evenodd" d="M2.879 3.886A3 3 0 0 1 5 3.007h7a3 3 0 0 1 3 3v2a1 1 0 1 1-2 0v-2a1 1 0 0 0-1-1H5a1 1 0 0 0-1 1v12a1 1 0 0 0 1 1h7a1 1 0 0 0 1-1v-2a1 1 0 0 1 2 0v2a3 3 0 0 1-3 3H5a3 3 0 0 1-3-3v-12a3 3 0 0 1 .879-2.12z" clip-rule="evenodd"/>
  <path fill="#1F2937" fill-rule="evenodd" d="M10.707 8.293a1 1 0 0 1 0 1.414L9.414 11H20a1 1 0 1 1 0 2H9.414l1.293 1.293a1 1 0 0 1-1.414 1.414l-3-3a1 1 0 0 1 0-1.414l3-3a1 1 0 0 1 1.414 0z" clip-rule="evenodd"/>
</svg>
