<svg fill="none" stroke="currentColor" viewBox="0 0 24 24">
  <path fill="#1F2937" fill-rule="evenodd" d="M6 4a1 1 0 0 0-1 1v8a7 7 0 1 0 14 0V5a1 1 0 0 0-1-1h-1a1 1 0 0 0-1 1v8a4 4 0 1 1-8 0V5a1 1 0 0 0-1-1H6zm-3 9V5a3 3 0 0 1 3-3h1a3 3 0 0 1 3 3v8a2 2 0 0 0 4 0V5a3 3 0 0 1 3-3h1a3 3 0 0 1 3 3v8a9 9 0 0 1-18 0z" clip-rule="evenodd"/>
  <path fill="#1F2937" fill-rule="evenodd" d="M3 7.993a1 1 0 0 1 1-1h5a1 1 0 0 1 0 2H4a1 1 0 0 1-1-1zM14 7.993a1 1 0 0 1 1-1h4a1 1 0 1 1 0 2h-4a1 1 0 0 1-1-1z" clip-rule="evenodd"/>
</svg>
