<svg fill="none" stroke="currentColor" viewBox="0 0 24 24">
  <path fill="#1F2937" fill-rule="evenodd" d="M11.445 2.168a1 1 0 0 1 1.11 0l9 6a1 1 0 0 1 0 1.664l-9 6a1 1 0 0 1-1.11 0l-9-6a1 1 0 0 1 0-1.664l9-6zM4.803 9 12 13.798 19.197 9 12 4.202 4.803 9z" clip-rule="evenodd"/>
  <path fill="#1F2937" fill-rule="evenodd" d="M3 8a1 1 0 0 1 1 1v10a1 1 0 0 0 1 1h14a1 1 0 0 0 1-1V9a1 1 0 1 1 2 0v10a3 3 0 0 1-3 3H5a3 3 0 0 1-3-3V9a1 1 0 0 1 1-1z" clip-rule="evenodd"/>
  <path fill="#1F2937" fill-rule="evenodd" d="M9.707 12.3a1 1 0 0 1 0 1.415l-6 6A1 1 0 0 1 2.293 18.3l6-6a1 1 0 0 1 1.414 0zM14.293 12.3a1 1 0 0 1 1.414 0l6 6a1 1 0 0 1-1.414 1.415l-6-6a1 1 0 0 1 0-1.415z" clip-rule="evenodd"/>
</svg>
