<svg fill="none" stroke="currentColor" viewBox="0 0 24 24">
  <path fill="#1F2937" fill-rule="evenodd" d="M21.526 3.157a1 1 0 0 1 .474.85v13a1 1 0 0 1-.553.895l-6 3a1 1 0 0 1-.894 0L9 18.125l-5.553 2.777A1 1 0 0 1 2 20.007v-13a1 1 0 0 1 .553-.894l6-3a1 1 0 0 1 .894 0L15 5.889l5.553-2.776a1 1 0 0 1 .973.044zM4 7.625V18.39l4.553-2.276a1 1 0 0 1 .894 0L15 18.889l5-2.5V5.625l-4.553 2.277a1 1 0 0 1-.894 0L9 5.125l-5 2.5z" clip-rule="evenodd"/>
  <path fill="#1F2937" fill-rule="evenodd" d="M9 3.007a1 1 0 0 1 1 1v13a1 1 0 1 1-2 0v-13a1 1 0 0 1 1-1zM15 6.007a1 1 0 0 1 1 1v13a1 1 0 1 1-2 0v-13a1 1 0 0 1 1-1z" clip-rule="evenodd"/>
</svg>
