<svg fill="none" stroke="currentColor" viewBox="0 0 24 24">
  <path fill="#1F2937" fill-rule="evenodd" d="M15.293 12.3a1 1 0 0 1 1.414 0L18 13.593l1.293-1.293a1 1 0 0 1 1.414 1.415l-1.293 1.292 1.293 1.293a1 1 0 0 1-1.414 1.415L18 16.422l-1.293 1.293a1 1 0 0 1-1.414-1.415l1.293-1.293-1.293-1.292a1 1 0 0 1 0-1.415z" clip-rule="evenodd"/>
  <path fill="#1F2937" fill-rule="evenodd" d="M12.039 4.718A1 1 0 0 1 13 3.993h7a1 1 0 1 1 0 2h-6.246L9.962 19.267a1 1 0 0 1-1.856.173l-2.724-5.447H4a1 1 0 0 1 0-2h2a1 1 0 0 1 .894.552l1.85 3.7L12.04 4.719z" clip-rule="evenodd"/>
</svg>
