<svg fill="none" stroke="currentColor" viewBox="0 0 24 24">
  <path fill="#1F2937" fill-rule="evenodd" d="M9.586 2.586A2 2 0 0 1 11 2h9a2 2 0 0 1 2 2v10a1 1 0 0 1-1.707.707L17.586 12H11a2 2 0 0 1-2-2V4a2 2 0 0 1 .586-1.414zM20 4h-9v6h7a1 1 0 0 1 .707.293L20 11.586V4z" clip-rule="evenodd"/>
  <path fill="#1F2937" fill-rule="evenodd" d="M2.586 9.593A2 2 0 0 1 4 9.008h2a1 1 0 0 1 0 2H4v7.585L5.293 17.3A1 1 0 0 1 6 17.008h7v-2a1 1 0 1 1 2 0v2a2 2 0 0 1-2 2H6.414l-2.707 2.707A1 1 0 0 1 2 21.008v-10a2 2 0 0 1 .586-1.415z" clip-rule="evenodd"/>
</svg>
