<svg fill="none" stroke="currentColor" viewBox="0 0 24 24">
  <path fill="#1F2937" fill-rule="evenodd" d="M12.384 4.992c-1.969-.08-3.89.48-5.406 1.556-1.514 1.074-2.51 2.579-2.842 4.218-.33 1.637.014 3.332.992 4.78a1 1 0 0 1 .12.876l-.747 2.242 2.99-.636a1 1 0 0 1 .646.078c1.714.832 3.72 1.086 5.64.706 1.92-.38 3.594-1.363 4.725-2.735 1.129-1.37 1.645-3.035 1.483-4.689-.162-1.656-.997-3.228-2.389-4.415-1.393-1.189-3.244-1.901-5.212-1.98zm-9.44 16.012a.997.997 0 0 0 .28-.024l4.358-.927c2.04.907 4.363 1.161 6.584.721 2.338-.463 4.433-1.67 5.88-3.425 1.45-1.759 2.146-3.947 1.93-6.156-.217-2.207-1.325-4.243-3.082-5.742-1.754-1.495-4.04-2.36-6.43-2.457-2.389-.097-4.75.58-6.643 1.922-1.895 1.345-3.204 3.277-3.645 5.454-.408 2.017-.038 4.086 1.025 5.87l-1.144 3.433a.995.995 0 0 0 .197 1 .993.993 0 0 0 .69.331z" clip-rule="evenodd"/>
  <path fill="#1F2937" fill-rule="evenodd" d="M12 11a1 1 0 0 1 1 1v.01a1 1 0 1 1-2 0V12a1 1 0 0 1 1-1zM8 11a1 1 0 0 1 1 1v.01a1 1 0 1 1-2 0V12a1 1 0 0 1 1-1zM16 11a1 1 0 0 1 1 1v.01a1 1 0 1 1-2 0V12a1 1 0 0 1 1-1z" clip-rule="evenodd"/>
</svg>
