<svg fill="none" stroke="currentColor" viewBox="0 0 24 24">
  <path fill="#1F2937" fill-rule="evenodd" d="M12 2.992a2 2 0 0 0-2 2v5a2 2 0 1 0 4 0v-5a2 2 0 0 0-2-2zm-4 2a4 4 0 1 1 8 0v5a4 4 0 0 1-8 0v-5z" clip-rule="evenodd"/>
  <path fill="#1F2937" fill-rule="evenodd" d="M5 9.008a1 1 0 0 1 1 1 6 6 0 1 0 12 0 1 1 0 1 1 2 0 8 8 0 0 1-16 0 1 1 0 0 1 1-1zM7 21a1 1 0 0 1 1-1h8a1 1 0 1 1 0 2H8a1 1 0 0 1-1-1z" clip-rule="evenodd"/>
  <path fill="#1F2937" fill-rule="evenodd" d="M12 15.992a1 1 0 0 1 1 1v4a1 1 0 1 1-2 0v-4a1 1 0 0 1 1-1z" clip-rule="evenodd"/>
</svg>
