<svg fill="none" stroke="currentColor" viewBox="0 0 24 24">
  <path fill="#1F2937" fill-rule="evenodd" d="M12 4a8 8 0 1 0 0 16 8 8 0 0 0 0-16zM2 12C2 6.477 6.477 2 12 2s10 4.477 10 10-4.477 10-10 10S2 17.523 2 12z" clip-rule="evenodd"/>
  <path fill="#1F2937" fill-rule="evenodd" d="M8 10.008a1 1 0 0 1 1-1h.01a1 1 0 0 1 0 2H9a1 1 0 0 1-1-1zM14 10.008a1 1 0 0 1 1-1h.01a1 1 0 1 1 0 2H15a1 1 0 0 1-1-1zM12 15.203a2.5 2.5 0 0 0-1.786.75 1 1 0 0 1-1.428-1.4 4.5 4.5 0 0 1 6.428 0 1 1 0 0 1-1.428 1.4 2.501 2.501 0 0 0-1.786-.75z" clip-rule="evenodd"/>
</svg>
