<svg fill="none" stroke="currentColor" viewBox="0 0 24 24">
  <path fill="#1F2937" fill-rule="evenodd" d="M6 5.008a1 1 0 0 0-1 1v12a1 1 0 0 0 1 1h12a1 1 0 0 0 1-1v-12a1 1 0 0 0-1-1H6zm-3 1a3 3 0 0 1 3-3h12a3 3 0 0 1 3 3v12a3 3 0 0 1-3 3H6a3 3 0 0 1-3-3v-12z" clip-rule="evenodd"/>
  <path fill="#1F2937" fill-rule="evenodd" d="M8 3.008a1 1 0 0 1 1 1v16a1 1 0 1 1-2 0v-16a1 1 0 0 1 1-1zM16 3.008a1 1 0 0 1 1 1v16a1 1 0 1 1-2 0v-16a1 1 0 0 1 1-1z" clip-rule="evenodd"/>
  <path fill="#1F2937" fill-rule="evenodd" d="M3 7.992a1 1 0 0 1 1-1h4a1 1 0 0 1 0 2H4a1 1 0 0 1-1-1zM3 16.008a1 1 0 0 1 1-1h4a1 1 0 1 1 0 2H4a1 1 0 0 1-1-1zM3 12a1 1 0 0 1 1-1h16a1 1 0 1 1 0 2H4a1 1 0 0 1-1-1zM15 7.992a1 1 0 0 1 1-1h4a1 1 0 1 1 0 2h-4a1 1 0 0 1-1-1zM15 16.008a1 1 0 0 1 1-1h4a1 1 0 1 1 0 2h-4a1 1 0 0 1-1-1z" clip-rule="evenodd"/>
</svg>
