<svg fill="none" stroke="currentColor" viewBox="0 0 24 24">
  <path fill="#1F2937" fill-rule="evenodd" d="M6 14.992a2 2 0 1 0 0 4 2 2 0 0 0 0-4zm-4 2a4 4 0 1 1 8 0 4 4 0 0 1-8 0zM16 14.992a2 2 0 1 0 0 4 2 2 0 0 0 0-4zm-4 2a4 4 0 1 1 8 0 4 4 0 0 1-8 0z" clip-rule="evenodd"/>
  <path fill="#1F2937" fill-rule="evenodd" d="M8 4.008a1 1 0 0 1 1-1h10a1 1 0 0 1 1 1v13a1 1 0 1 1-2 0v-12h-8v12a1 1 0 1 1-2 0v-13z" clip-rule="evenodd"/>
  <path fill="#1F2937" fill-rule="evenodd" d="M8 7.992a1 1 0 0 1 1-1h10a1 1 0 1 1 0 2H9a1 1 0 0 1-1-1z" clip-rule="evenodd"/>
</svg>
