<svg fill="none" stroke="currentColor" viewBox="0 0 24 24">
  <path fill="#1F2937" fill-rule="evenodd" d="M8 12a1 1 0 0 1 1-1h6a1 1 0 1 1 0 2H9a1 1 0 0 1-1-1z" clip-rule="evenodd"/>
  <path fill="#1F2937" fill-rule="evenodd" d="M12 8a1 1 0 0 1 1 1v6a1 1 0 1 1-2 0V9a1 1 0 0 1 1-1zM3.586 3.593A2 2 0 0 1 5 3.007h1a1 1 0 0 1 .707 1.708l-2 2A1 1 0 0 1 3 6.007v-1a2 2 0 0 1 .586-1.414zM10 4.007a1 1 0 0 1 1-1h2a1 1 0 1 1 0 2h-2a1 1 0 0 1-1-1zm7.076-.382A1 1 0 0 1 18 3.007h1a2 2 0 0 1 2 2v1a1 1 0 0 1-1.707.708l-2-2a1 1 0 0 1-.217-1.09zM4 10.007a1 1 0 0 1 1 1v2a1 1 0 1 1-2 0v-2a1 1 0 0 1 1-1zm15 1a1 1 0 0 1 2 0v2a1 1 0 1 1-2 0v-2zM3.617 17.084a1 1 0 0 1 1.09.216l2 2A1 1 0 0 1 6 21.007H5a2 2 0 0 1-2-2v-1a1 1 0 0 1 .617-.923zm16.766 0a1 1 0 0 1 .617.923v1a2 2 0 0 1-2 2h-1a1 1 0 0 1-.707-1.707l2-2a1 1 0 0 1 1.09-.216zM10 20.007a1 1 0 0 1 1-1h2a1 1 0 0 1 0 2h-2a1 1 0 0 1-1-1z" clip-rule="evenodd"/>
</svg>
