<svg fill="none" stroke="currentColor" viewBox="0 0 24 24">
  <path fill="#1F2937" fill-rule="evenodd" d="M3.586 3.593A2 2 0 0 1 5 3.008h10a2 2 0 0 1 2 2h2a2 2 0 0 1 2 2v11a3 3 0 0 1-3 3H7a4 4 0 0 1-4-4v-12a2 2 0 0 1 .586-1.415zm11.586 15.415H7a2 2 0 0 1-2-2v-12h10v13a3 3 0 0 0 .172 1zm1.828-12v11a1 1 0 0 0 2 0v-11h-2z" clip-rule="evenodd"/>
  <path fill="#1F2937" fill-rule="evenodd" d="M7 7.992a1 1 0 0 1 1-1h4a1 1 0 1 1 0 2H8a1 1 0 0 1-1-1zM7 12a1 1 0 0 1 1-1h4a1 1 0 1 1 0 2H8a1 1 0 0 1-1-1zM7 16.008a1 1 0 0 1 1-1h4a1 1 0 1 1 0 2H8a1 1 0 0 1-1-1z" clip-rule="evenodd"/>
</svg>
