<svg fill="none" stroke="currentColor" viewBox="0 0 24 24">
  <path fill="#1F2937" fill-rule="evenodd" d="M4.586 3.593A2 2 0 0 1 6 3.008h11a3 3 0 0 1 3 3v12a3 3 0 0 1-3 3h-7v1a1 1 0 1 1-2 0v-1H6a2 2 0 0 1-2-2v-14a2 2 0 0 1 .586-1.415zM10 19.008h7a1 1 0 0 0 1-1v-12a1 1 0 0 0-1-1h-7v14zm-2-14v14H6v-14h2z" clip-rule="evenodd"/>
  <path fill="#1F2937" fill-rule="evenodd" d="M12 7.992a1 1 0 0 1 1-1h2a1 1 0 1 1 0 2h-2a1 1 0 0 1-1-1zM12 12a1 1 0 0 1 1-1h2a1 1 0 1 1 0 2h-2a1 1 0 0 1-1-1z" clip-rule="evenodd"/>
</svg>
