<svg fill="none" stroke="currentColor" viewBox="0 0 24 24">
  <path fill="#1F2937" fill-rule="evenodd" d="M7 4a1 1 0 0 0-1 1v2a1 1 0 0 0 1 1h10a1 1 0 0 0 1-1V5a1 1 0 0 0-1-1H7zM4 5a3 3 0 0 1 3-3h10a3 3 0 0 1 3 3v2a3 3 0 0 1-3 3H7a3 3 0 0 1-3-3V5z" clip-rule="evenodd"/>
  <path fill="#1F2937" fill-rule="evenodd" d="M18 6a1 1 0 0 1 1-1h1a3 3 0 0 1 3 3 6 6 0 0 1-6 6h-4v1a1 1 0 1 1-2 0v-2a1 1 0 0 1 1-1h5a4 4 0 0 0 4-4 1 1 0 0 0-1-1h-1a1 1 0 0 1-1-1z" clip-rule="evenodd"/>
  <path fill="#1F2937" fill-rule="evenodd" d="M9 16a2 2 0 0 1 2-2h2a2 2 0 0 1 2 2v4a2 2 0 0 1-2 2h-2a2 2 0 0 1-2-2v-4zm4 0h-2v4h2v-4z" clip-rule="evenodd"/>
</svg>
