<svg fill="none" stroke="currentColor" viewBox="0 0 24 24">
  <path fill="#1F2937" fill-rule="evenodd" d="M13.793 4.785a3.828 3.828 0 1 1 5.414 5.415l-10.5 10.5a1 1 0 0 1-.707.293H4a1 1 0 0 1-1-1v-4a1 1 0 0 1 .293-.708l10.5-10.5zm2.707.88c-.485 0-.95.192-1.293.535L5 16.407v2.585h2.586L17.793 8.785a1.828 1.828 0 0 0-1.293-3.12z" clip-rule="evenodd"/>
  <path fill="#1F2937" fill-rule="evenodd" d="M12.793 5.785a1 1 0 0 1 1.414 0l4 4a1 1 0 0 1-1.414 1.415l-4-4a1 1 0 0 1 0-1.415z" clip-rule="evenodd"/>
</svg>
