<svg fill="none" stroke="currentColor" viewBox="0 0 24 24">
  <path fill="#1F2937" fill-rule="evenodd" d="M5 5.008a1 1 0 0 0-1 .974 15 15 0 0 0 14.026 14.025 1 1 0 0 0 .974-1v-3.322l-3.58-1.433-1.063 1.77a1 1 0 0 1-1.3.382 12 12 0 0 1-5.454-5.454 1 1 0 0 1 .383-1.3l1.77-1.062-1.433-3.58H5zM2.879 3.886A3 3 0 0 1 5 3.008h4a1 1 0 0 1 .928.628l2 5a1 1 0 0 1-.414 1.23L9.841 10.87a10.001 10.001 0 0 0 3.297 3.297l1.005-1.674a1 1 0 0 1 1.228-.414l5 2a1 1 0 0 1 .629.929v4a3 3 0 0 1-3.06 2.998A17 17 0 0 1 2 6.008a3 3 0 0 1 .879-2.122z" clip-rule="evenodd"/>
  <path fill="#1F2937" fill-rule="evenodd" d="M20.707 3.3a1 1 0 0 1 0 1.415l-5 5A1 1 0 1 1 14.293 8.3l5-5a1 1 0 0 1 1.414 0z" clip-rule="evenodd"/>
  <path fill="#1F2937" fill-rule="evenodd" d="M15 3.992a1 1 0 0 1 1 1v3h3a1 1 0 1 1 0 2h-4a1 1 0 0 1-1-1v-4a1 1 0 0 1 1-1z" clip-rule="evenodd"/>
</svg>
