<svg fill="none" stroke="currentColor" viewBox="0 0 24 24">
  <path fill="#1F2937" fill-rule="evenodd" d="M14 7.992a1 1 0 0 1 1-1h.01a1 1 0 1 1 0 2H15a1 1 0 0 1-1-1z" clip-rule="evenodd"/>
  <path fill="#1F2937" fill-rule="evenodd" d="M7 5.008a2 2 0 0 0-2 2v10a2 2 0 0 0 2 2h10a2 2 0 0 0 2-2v-10a2 2 0 0 0-2-2H7zm-4 2a4 4 0 0 1 4-4h10a4 4 0 0 1 4 4v10a4 4 0 0 1-4 4H7a4 4 0 0 1-4-4v-10z" clip-rule="evenodd"/>
  <path fill="#1F2937" fill-rule="evenodd" d="m8.7 11.72-3.993 3.993a1 1 0 0 1-1.414-1.415l4-4 .014-.013c.602-.58 1.357-.95 2.193-.95.836 0 1.591.37 2.193.95l.014.014 5 5a1 1 0 0 1-1.414 1.414L10.3 11.72c-.307-.293-.584-.384-.8-.384-.216 0-.493.09-.8.384z" clip-rule="evenodd"/>
  <path fill="#1F2937" fill-rule="evenodd" d="m15.7 13.713-.993.992a1 1 0 1 1-1.414-1.414l1-1 .014-.013c.602-.58 1.357-.95 2.193-.95.836 0 1.591.37 2.193.95l.014.013 2 2a1 1 0 0 1-1.414 1.414L17.3 13.713c-.307-.293-.584-.385-.8-.385-.216 0-.493.091-.8.385z" clip-rule="evenodd"/>
</svg>
