<svg fill="none" stroke="currentColor" viewBox="0 0 24 24">
  <path fill="#1F2937" fill-rule="evenodd" d="M4.112 7.494c.13-.005.299.001.511.025.741.085 1.783.363 3.041.84a1 1 0 1 0 .71-1.87c-1.331-.504-2.549-.846-3.524-.957-.484-.055-.967-.06-1.397.033-.426.093-.934.318-1.234.831-.24.411-.253.851-.18 1.22.07.358.23.7.418 1.01.375.62.973 1.29 1.7 1.966 1.465 1.363 3.627 2.912 6.135 4.345 2.509 1.432 4.945 2.509 6.87 3.082.956.285 1.839.462 2.566.473.364.006.74-.029 1.085-.146.353-.12.728-.348.967-.757.306-.524.244-1.084.106-1.506-.139-.423-.393-.841-.692-1.235-.601-.793-1.533-1.68-2.667-2.581a1 1 0 0 0-1.245 1.565c1.074.854 1.86 1.621 2.32 2.225.13.174.223.318.287.434a2.532 2.532 0 0 1-.13.001c-.464-.007-1.148-.128-2.026-.39-1.74-.518-4.033-1.522-6.45-2.902-2.415-1.38-4.44-2.841-5.764-4.072-.668-.622-1.114-1.145-1.351-1.537a2.449 2.449 0 0 1-.056-.097zm-.295.043.004-.002a.025.025 0 0 1-.004.002zm16.184 9.229v-.004.004z" clip-rule="evenodd"/>
  <path fill="#1F2937" fill-rule="evenodd" d="M12 7a5 5 0 1 0 0 10 5 5 0 0 0 0-10zm-7 5a7 7 0 1 1 14 0 7 7 0 0 1-14 0z" clip-rule="evenodd"/>
</svg>
