<svg fill="none" stroke="currentColor" viewBox="0 0 24 24">
  <g fill="#1F2937" fill-rule="evenodd" clip-path="url(#clip0)" clip-rule="evenodd">
    <path d="M5.139 4.94a1 1 0 0 1 .668-.592l2.898-.776a1 1 0 0 1 .969.262l5.267 5.314 4.269-1.144a3 3 0 1 1 1.553 5.796l-14.49 3.882a1 1 0 0 1-1.006-.302L.816 12.36a1 1 0 0 1 .49-1.629l2.897-.776a1 1 0 0 1 .759.1l2.09 1.207 1.218-.327L5.208 5.83a1 1 0 0 1-.07-.89zm2.466.997 3.062 5.107a1 1 0 0 1-.599 1.48l-2.898.777a1 1 0 0 1-.758-.1L4.32 11.994l-.935.25 2.967 3.346 13.892-3.722a1 1 0 0 0-.518-1.932l-4.83 1.294a1 1 0 0 1-.968-.262L8.662 5.654l-1.057.283zM2 21a1 1 0 0 1 1-1h18a1 1 0 1 1 0 2H3a1 1 0 0 1-1-1z"/>
  </g>
  <defs>
    <clipPath id="clip0">
      <path fill="#fff" d="M0 0h24v24H0z"/>
    </clipPath>
  </defs>
</svg>
