<svg fill="none" stroke="currentColor" viewBox="0 0 24 24">
  <g fill="#1F2937" fill-rule="evenodd" clip-path="url(#clip0)" clip-rule="evenodd">
    <path d="M9.591 2.452a1 1 0 0 1 .875-.178l2.897.777a1 1 0 0 1 .709.711l1.904 7.236 4.269 1.144a3 3 0 1 1-1.553 5.795L4.203 14.055a1 1 0 0 1-.72-.766L2.136 6.717a1 1 0 0 1 1.239-1.166l2.898.776a1 1 0 0 1 .607.466l1.207 2.091 1.217.326-.098-5.953a1 1 0 0 1 .384-.805zm1.638 2.097.098 5.954a1 1 0 0 1-1.259.982L7.17 10.71a1 1 0 0 1-.607-.466L5.356 8.152l-.935-.25.897 4.38 13.892 3.723a1 1 0 0 0 .517-1.932l-4.83-1.294a1 1 0 0 1-.708-.711l-1.904-7.236-1.056-.283zM2 21a1 1 0 0 1 1-1h18a1 1 0 1 1 0 2H3a1 1 0 0 1-1-1z"/>
  </g>
  <defs>
    <clipPath id="clip0">
      <path fill="#fff" d="M0 0h24v24H0z"/>
    </clipPath>
  </defs>
</svg>
