<svg fill="none" stroke="currentColor" viewBox="0 0 24 24">
  <path fill="#1F2937" fill-rule="evenodd" d="M8.202 2.398A1 1 0 0 1 9 2h3a1 1 0 0 1 .868.504L16.58 9H20a3 3 0 1 1 0 6h-3.42l-3.712 6.496A1 1 0 0 1 12 22H9a1 1 0 0 1-.962-1.275L9.674 15h-2.26l-1.707 1.707A1 1 0 0 1 5 17H2a1 1 0 0 1-.894-1.447L2.882 12 1.106 8.447A1 1 0 0 1 2 7h3a1 1 0 0 1 .707.293L7.414 9h2.26L8.038 3.275a1 1 0 0 1 .164-.877zM10.326 4l1.635 5.725A1 1 0 0 1 11 11H7a1 1 0 0 1-.707-.293L4.586 9h-.968l1.276 2.553a1 1 0 0 1 0 .894L3.618 15h.968l1.707-1.707A1 1 0 0 1 7 13h4a1 1 0 0 1 .961 1.275L10.326 20h1.094l3.712-6.496A1 1 0 0 1 16 13h4a1 1 0 0 0 0-2h-4a1 1 0 0 1-.868-.504L11.42 4h-1.094z" clip-rule="evenodd"/>
</svg>
