<svg fill="none" stroke="currentColor" viewBox="0 0 24 24">
  <path fill="#1F2937" fill-rule="evenodd" d="M6 7.008a1 1 0 0 1 1-1h10a1 1 0 0 1 1 1v6a4 4 0 0 1-4 4h-4a4 4 0 0 1-4-4v-6zm2 1v5a2 2 0 0 0 2 2h4a2 2 0 0 0 2-2v-5H8z" clip-rule="evenodd"/>
  <path fill="#1F2937" fill-rule="evenodd" d="M9 2a1 1 0 0 1 1 1v4a1 1 0 0 1-2 0V3a1 1 0 0 1 1-1zM15 2a1 1 0 0 1 1 1v4a1 1 0 1 1-2 0V3a1 1 0 0 1 1-1zM12 15.008a1 1 0 0 1 1 1v2a1 1 0 0 0 1 1h3a1 1 0 1 1 0 2h-3a3 3 0 0 1-3-3v-2a1 1 0 0 1 1-1z" clip-rule="evenodd"/>
</svg>
