<svg fill="none" stroke="currentColor" viewBox="0 0 24 24">
  <path fill="#1F2937" fill-rule="evenodd" d="M2 4.007a1 1 0 0 1 1-1h18a1 1 0 1 1 0 2H3a1 1 0 0 1-1-1z" clip-rule="evenodd"/>
  <path fill="#1F2937" fill-rule="evenodd" d="M4 3.007a1 1 0 0 1 1 1v10a1 1 0 0 0 1 1h12a1 1 0 0 0 1-1v-10a1 1 0 1 1 2 0v10a3 3 0 0 1-3 3H6a3 3 0 0 1-3-3v-10a1 1 0 0 1 1-1z" clip-rule="evenodd"/>
  <path fill="#1F2937" fill-rule="evenodd" d="M12 15.007a1 1 0 0 1 1 1v4a1 1 0 1 1-2 0v-4a1 1 0 0 1 1-1z" clip-rule="evenodd"/>
  <path fill="#1F2937" fill-rule="evenodd" d="M8 19.993a1 1 0 0 1 1-1h6a1 1 0 1 1 0 2H9a1 1 0 0 1-1-1zM16.707 7.285a1 1 0 0 1 0 1.415l-3 3a1 1 0 0 1-1.414 0L11 10.407 8.707 12.7a1 1 0 0 1-1.414-1.415l3-3a1 1 0 0 1 1.414 0L13 9.578l2.293-2.293a1 1 0 0 1 1.414 0z" clip-rule="evenodd"/>
</svg>
