<svg fill="none" stroke="currentColor" viewBox="0 0 24 24">
  <path fill="#1F2937" fill-rule="evenodd" d="M2.879 8.879A3 3 0 0 1 5 8h14a3 3 0 0 1 3 3v4a3 3 0 0 1-3 3h-2a1 1 0 1 1 0-2h2a1 1 0 0 0 1-1v-4a1 1 0 0 0-1-1H5a1 1 0 0 0-1 1v4a1 1 0 0 0 1 1h2a1 1 0 1 1 0 2H5a3 3 0 0 1-3-3v-4a3 3 0 0 1 .879-2.121z" clip-rule="evenodd"/>
  <path fill="#1F2937" fill-rule="evenodd" d="M6.879 2.879A3 3 0 0 1 9 2h6a3 3 0 0 1 3 3v4a1 1 0 1 1-2 0V5a1 1 0 0 0-1-1H9a1 1 0 0 0-1 1v4a1 1 0 0 1-2 0V5a3 3 0 0 1 .879-2.121zM9 14.008a1 1 0 0 0-1 1v4a1 1 0 0 0 1 1h6a1 1 0 0 0 1-1v-4a1 1 0 0 0-1-1H9zm-3 1a3 3 0 0 1 3-3h6a3 3 0 0 1 3 3v4a3 3 0 0 1-3 3H9a3 3 0 0 1-3-3v-4z" clip-rule="evenodd"/>
</svg>
