<svg fill="none" stroke="currentColor" viewBox="0 0 24 24">
  <path fill="#1F2937" fill-rule="evenodd" d="M10 4a1 1 0 0 0-1 1v1a2 2 0 0 1-2 2H4v3h1a3 3 0 0 1 0 6H4v3h3v-1a3 3 0 1 1 6 0v1h3v-3a2 2 0 0 1 2-2h1a1 1 0 0 0 0-2h-1a2 2 0 0 1-2-2V8h-3a2 2 0 0 1-2-2V5a1 1 0 0 0-1-1zM4 6a2 2 0 0 0-2 2v3a2 2 0 0 0 2 2h1a1 1 0 0 1 0 2H4a2 2 0 0 0-2 2v3a2 2 0 0 0 2 2h3a2 2 0 0 0 2-2v-1a1 1 0 1 1 2 0v1a2 2 0 0 0 2 2h3a2 2 0 0 0 2-2v-3h1a3 3 0 0 0 0-6h-1V8a2 2 0 0 0-2-2h-3V5a3 3 0 0 0-6 0v1H4z" clip-rule="evenodd"/>
</svg>
