<svg fill="none" stroke="currentColor" viewBox="0 0 24 24">
  <path fill="#1F2937" fill-rule="evenodd" d="M3 5.007a2 2 0 0 1 2-2h4a2 2 0 0 1 2 2v4a2 2 0 0 1-2 2H5a2 2 0 0 1-2-2v-4zm6 0H5v4h4v-4zM7 15.993a1 1 0 0 1 1 1v.01a1 1 0 0 1-2 0v-.01a1 1 0 0 1 1-1zM13 5.007a2 2 0 0 1 2-2h4a2 2 0 0 1 2 2v4a2 2 0 0 1-2 2h-4a2 2 0 0 1-2-2v-4zm6 0h-4v4h4v-4z" clip-rule="evenodd"/>
  <path fill="#1F2937" fill-rule="evenodd" d="M7 6.007a1 1 0 0 1 1 1v.01a1 1 0 0 1-2 0v-.01a1 1 0 0 1 1-1zM3 14.993a2 2 0 0 1 2-2h4a2 2 0 0 1 2 2v4a2 2 0 0 1-2 2H5a2 2 0 0 1-2-2v-4zm6 0H5v4h4v-4zM17 6.007a1 1 0 0 1 1 1v.01a1 1 0 1 1-2 0v-.01a1 1 0 0 1 1-1zM13 13.993a1 1 0 0 1 1-1h3a1 1 0 1 1 0 2h-3a1 1 0 0 1-1-1zM20 12.993a1 1 0 0 1 1 1v.01a1 1 0 0 1-2 0v-.01a1 1 0 0 1 1-1z" clip-rule="evenodd"/>
  <path fill="#1F2937" fill-rule="evenodd" d="M14 12.993a1 1 0 0 1 1 1v3a1 1 0 0 1-2 0v-3a1 1 0 0 1 1-1zM13 19.993a1 1 0 0 1 1-1h3a1 1 0 1 1 0 2h-3a1 1 0 0 1-1-1zM16 16.993a1 1 0 0 1 1-1h3a1 1 0 1 1 0 2h-3a1 1 0 0 1-1-1z" clip-rule="evenodd"/>
  <path fill="#1F2937" fill-rule="evenodd" d="M20 15.993a1 1 0 0 1 1 1v3a1 1 0 0 1-2 0v-3a1 1 0 0 1 1-1z" clip-rule="evenodd"/>
</svg>
