<svg fill="none" stroke="currentColor" viewBox="0 0 24 24">
  <path fill="#1F2937" fill-rule="evenodd" d="M10.759 2.29a3 3 0 0 1 3.803 1.135l3 5.196.866-.5a1 1 0 0 1 1.466 1.125l-.732 2.732a1 1 0 0 1-1.224.707l-2.733-.732a1 1 0 0 1-.24-1.832l.865-.5-2.985-5.17a1 1 0 0 0-1.585-.09l-.556.917a1 1 0 1 1-1.71-1.035l.59-.977a.998.998 0 0 1 .067-.096 3 3 0 0 1 1.108-.88zM8.304 7.408a1 1 0 0 1 .466.607l.732 2.732a1 1 0 0 1-1.466 1.125l-.866-.5-2.985 5.17A1 1 0 0 0 4.9 17.96l1.072.022a1 1 0 1 1-.041 2l-1.141-.024a1.01 1.01 0 0 1-.117-.01 3 3 0 0 1-2.235-4.38l3-5.196-.866-.5a1 1 0 0 1 .241-1.832l2.732-.732a1 1 0 0 1 .759.1zm11.414 6.973a1 1 0 0 1 1.358.395l.55 1a1 1 0 0 1 .05.105A3 3 0 0 1 19 20.008h-6v1a1 1 0 0 1-1.707.707l-2-2a1 1 0 0 1 0-1.415l2-2a1 1 0 0 1 1.707.707v1h5.97a1.001 1.001 0 0 0 .87-1.328l-.516-.94a1 1 0 0 1 .394-1.358z" clip-rule="evenodd"/>
</svg>
