<svg fill="none" stroke="currentColor" viewBox="0 0 24 24">
  <path fill="#1F2937" fill-rule="evenodd" d="M2 4a2 2 0 0 1 2-2h4a2 2 0 0 1 2 2v4a2 2 0 0 1-2 2H4a2 2 0 0 1-2-2V4zm6 0H4v4h4V4zM14 16a2 2 0 0 1 2-2h4a2 2 0 0 1 2 2v4a2 2 0 0 1-2 2h-4a2 2 0 0 1-2-2v-4zm6 0h-4v4h4v-4zM16.707 2.293a1 1 0 0 1 0 1.414L15.414 5H19a3 3 0 0 1 3 3v3a1 1 0 1 1-2 0V8a1 1 0 0 0-1-1h-3.586l1.293 1.293a1 1 0 0 1-1.414 1.414l-3-3a1 1 0 0 1 0-1.414l3-3a1 1 0 0 1 1.414 0zM3 12.007a1 1 0 0 1 1 1v3a1 1 0 0 0 1 1h3.586l-1.293-1.292A1 1 0 0 1 8.707 14.3l3 3a1 1 0 0 1 0 1.415l-3 3A1 1 0 0 1 7.293 20.3l1.293-1.293H5a3 3 0 0 1-3-3v-3a1 1 0 0 1 1-1z" clip-rule="evenodd"/>
</svg>
