<svg fill="none" stroke="currentColor" viewBox="0 0 24 24">
  <path fill="#1F2937" fill-rule="evenodd" d="M14.755 5.523a7.031 7.031 0 0 0-5.381-.053 1 1 0 1 1-.748-1.855 9.031 9.031 0 0 1 9.08 15.377H20a1 1 0 1 1 0 2h-5a1 1 0 0 1-1-1v-5a1 1 0 1 1 2 0v2.783a7.032 7.032 0 0 0-1.245-12.252zM6.309 6.355A1 1 0 1 1 5.09 7.942 1 1 0 0 1 6.31 6.355zM4.247 9.98a1 1 0 1 1-1.122.862v-.001a1 1 0 0 1 1.122-.86zm.027 4.172a1 1 0 1 1-.541 1.308v-.002a1 1 0 0 1 .54-1.306zm2.108 3.6a1 1 0 1 1 .185 1.403 1 1 0 0 1-.185-1.403zm3.626 2.064a1 1 0 1 1 1.983.262 1 1 0 0 1-1.983-.262z" clip-rule="evenodd"/>
</svg>
