<svg fill="none" stroke="currentColor" viewBox="0 0 24 24">
  <path fill="#1F2937" fill-rule="evenodd" d="M11.91 2.962a9.03 9.03 0 0 1 3.464.653 1 1 0 0 1-.747 1.855A7.032 7.032 0 0 0 8 17.775v-2.782a1 1 0 1 1 2 0v4.999a1 1 0 0 1-1 1H4a1 1 0 1 1 0-2h2.293a9.03 9.03 0 0 1 5.618-16.03zM17.692 6.355a1 1 0 1 1 1.217 1.587 1 1 0 0 1-1.217-1.587zm2.061 3.626a1 1 0 0 1 1.122.861v.001a1 1 0 1 1-1.122-.862zm-.026 4.172a1 1 0 1 1-.766 1.85 1 1 0 0 1 .765-1.85zm-2.11 3.6a1 1 0 0 1-.183 1.402l-.001.001a1 1 0 1 1 .185-1.403zm-3.625 2.064a1 1 0 1 1-1.982.262 1 1 0 0 1 1.982-.262z" clip-rule="evenodd"/>
</svg>
