<svg fill="none" stroke="currentColor" viewBox="0 0 24 24">
  <path fill="#1F2937" fill-rule="evenodd" d="M5 14.008a1 1 0 0 0-1 1v4a1 1 0 0 0 1 1h14a1 1 0 0 0 1-1v-4a1 1 0 0 0-1-1H5zm-3 1a3 3 0 0 1 3-3h14a3 3 0 0 1 3 3v4a3 3 0 0 1-3 3H5a3 3 0 0 1-3-3v-4z" clip-rule="evenodd"/>
  <path fill="#1F2937" fill-rule="evenodd" d="M17 15.992a1 1 0 0 1 1 1v.01a1 1 0 1 1-2 0v-.01a1 1 0 0 1 1-1zM13 15.992a1 1 0 0 1 1 1v.01a1 1 0 1 1-2 0v-.01a1 1 0 0 1 1-1zM15 9.992a1 1 0 0 1 1 1v2a1 1 0 1 1-2 0v-2a1 1 0 0 1 1-1zM15 8.078a3 3 0 0 0-2.437 1.251 1 1 0 0 1-1.625-1.166 5 5 0 0 1 8.125 0 1 1 0 0 1-1.625 1.166A3 3 0 0 0 15 8.08z" clip-rule="evenodd"/>
  <path fill="#1F2937" fill-rule="evenodd" d="M15 4.164a7 7 0 0 0-5.687 2.919 1 1 0 1 1-1.625-1.166 9 9 0 0 1 14.625 0 1 1 0 0 1-1.625 1.166A7 7 0 0 0 15 4.163z" clip-rule="evenodd"/>
</svg>
