<svg fill="none" stroke="currentColor" viewBox="0 0 24 24">
  <path fill="#1F2937" fill-rule="evenodd" d="M3.586 3.593A2 2 0 0 1 5 3.007h14a2 2 0 0 1 2 2v5a2 2 0 0 1-2 2h-7v7a2 2 0 0 1-2 2H5a2 2 0 0 1-2-2v-14a2 2 0 0 1 .586-1.414zM19 5.007H5v14h5v-7a2 2 0 0 1 2-2h7v-5z" clip-rule="evenodd"/>
  <path fill="#1F2937" fill-rule="evenodd" d="M3 7.993a1 1 0 0 1 1-1h2a1 1 0 0 1 0 2H4a1 1 0 0 1-1-1zM3 12a1 1 0 0 1 1-1h3a1 1 0 1 1 0 2H4a1 1 0 0 1-1-1zM3 16.007a1 1 0 0 1 1-1h2a1 1 0 0 1 0 2H4a1 1 0 0 1-1-1zM8 3.007a1 1 0 0 1 1 1v2a1 1 0 0 1-2 0v-2a1 1 0 0 1 1-1zM12 3.007a1 1 0 0 1 1 1v3a1 1 0 1 1-2 0v-3a1 1 0 0 1 1-1zM16 3.007a1 1 0 0 1 1 1v2a1 1 0 1 1-2 0v-2a1 1 0 0 1 1-1z" clip-rule="evenodd"/>
</svg>
