<svg fill="none" stroke="currentColor" viewBox="0 0 24 24">
  <path fill="#1F2937" fill-rule="evenodd" d="M12 2a1 1 0 0 1 1 1v18a1 1 0 1 1-2 0V3a1 1 0 0 1 1-1z" clip-rule="evenodd"/>
  <path fill="#1F2937" fill-rule="evenodd" d="M8 21a1 1 0 0 1 1-1h6a1 1 0 1 1 0 2H9a1 1 0 0 1-1-1zM11.684 4.044a1 1 0 0 1 .632 0L18 5.938l2.684-.894a1 1 0 0 1 .632 1.897l-3 1a1 1 0 0 1-.632 0L12 6.047 6.316 7.94a1 1 0 0 1-.632 0l-3-1a1 1 0 1 1 .632-1.897L6 5.938l5.684-1.894z" clip-rule="evenodd"/>
  <path fill="#1F2937" fill-rule="evenodd" d="M6 6.007a1 1 0 0 1 .949.684l3 9a1 1 0 0 1-.349 1.116 6 6 0 0 1-7.2 0 1 1 0 0 1-.349-1.116l3-9a1 1 0 0 1 .95-.684zm-1.803 9.571a4 4 0 0 0 3.606 0L6 10.17l-1.803 5.408zM18 6.007a1 1 0 0 1 .949.684l3 9a1 1 0 0 1-.349 1.116 6 6 0 0 1-7.2 0 1 1 0 0 1-.349-1.116l3-9a1 1 0 0 1 .95-.684zm-1.803 9.571a4 4 0 0 0 3.606 0L18 10.17l-1.803 5.408z" clip-rule="evenodd"/>
</svg>
