<svg fill="none" stroke="currentColor" viewBox="0 0 24 24">
  <path fill="#1F2937" fill-rule="evenodd" d="M6 5.007a1 1 0 0 0-1 1v1a1 1 0 0 1-2 0v-1a3 3 0 0 1 3-3h2a1 1 0 1 1 0 2H6zM4 15.993a1 1 0 0 1 1 1v1a1 1 0 0 0 1 1h2a1 1 0 1 1 0 2H6a3 3 0 0 1-3-3v-1a1 1 0 0 1 1-1zM15 4.007a1 1 0 0 1 1-1h2a3 3 0 0 1 3 3v1a1 1 0 1 1-2 0v-1a1 1 0 0 0-1-1h-2a1 1 0 0 1-1-1zM20 15.993a1 1 0 0 1 1 1v1a3 3 0 0 1-3 3h-2a1 1 0 0 1 0-2h2a1 1 0 0 0 1-1v-1a1 1 0 0 1 1-1zM4 12a1 1 0 0 1 1-1h14a1 1 0 1 1 0 2H5a1 1 0 0 1-1-1z" clip-rule="evenodd"/>
</svg>
