<svg fill="none" stroke="currentColor" viewBox="0 0 24 24">
  <path fill="#1F2937" fill-rule="evenodd" d="M21.707 2.293a1 1 0 0 1 0 1.414l-11 11a1 1 0 0 1-1.414-1.414l11-11a1 1 0 0 1 1.414 0z" clip-rule="evenodd"/>
  <path fill="#1F2937" fill-rule="evenodd" d="M21.707 2.293a1 1 0 0 1 .234 1.047l-6.5 18a1.55 1.55 0 0 1-2.84.096l-3.346-6.69-6.69-3.346a1.55 1.55 0 0 1 .095-2.84l18-6.5a1 1 0 0 1 1.047.233zM4.372 10.068l6.075 3.038a1 1 0 0 1 .448.447l3.037 6.075 5.404-14.964-14.964 5.404z" clip-rule="evenodd"/>
</svg>
