<svg fill="none" stroke="currentColor" viewBox="0 0 24 24">
  <path fill="#1F2937" fill-rule="evenodd" d="M6 5.007a2 2 0 0 0-2 2v2a2 2 0 0 0 2 2h12a2 2 0 0 0 2-2v-2a2 2 0 0 0-2-2H6zm-4 2a4 4 0 0 1 4-4h12a4 4 0 0 1 4 4v2a4 4 0 0 1-4 4H6a4 4 0 0 1-4-4v-2z" clip-rule="evenodd"/>
  <path fill="#1F2937" fill-rule="evenodd" d="M6 13a2 2 0 0 0-2 2v2a2 2 0 0 0 2 2h12a2 2 0 0 0 2-2v-2a2 2 0 0 0-2-2H6zm-4 2a4 4 0 0 1 4-4h12a4 4 0 0 1 4 4v2a4 4 0 0 1-4 4H6a4 4 0 0 1-4-4v-2zM7 6.993a1 1 0 0 1 1 1v.01a1 1 0 1 1-2 0v-.01a1 1 0 0 1 1-1z" clip-rule="evenodd"/>
  <path fill="#1F2937" fill-rule="evenodd" d="M7 15.007a1 1 0 0 1 1 1v.01a1 1 0 1 1-2 0v-.01a1 1 0 0 1 1-1z" clip-rule="evenodd"/>
</svg>
