<svg fill="none" stroke="currentColor" viewBox="0 0 24 24">
  <path fill="#1F2937" fill-rule="evenodd" d="M6 10a2 2 0 1 0 0 4 2 2 0 0 0 0-4zm-4 2a4 4 0 1 1 8 0 4 4 0 0 1-8 0zM18 4a2 2 0 1 0 0 4 2 2 0 0 0 0-4zm-4 2a4 4 0 1 1 8 0 4 4 0 0 1-8 0zM18 16a2 2 0 1 0 0 4 2 2 0 0 0 0-4zm-4 2a4 4 0 1 1 8 0 4 4 0 0 1-8 0z" clip-rule="evenodd"/>
  <path fill="#1F2937" fill-rule="evenodd" d="M16.19 6.854a1 1 0 0 1-.432 1.347l-6.6 3.4a1 1 0 0 1-.916-1.778l6.6-3.4a1 1 0 0 1 1.347.431zM7.811 12.854a1 1 0 0 1 1.347-.43l6.6 3.4a1 1 0 0 1-.915 1.777l-6.6-3.4a1 1 0 0 1-.432-1.347z" clip-rule="evenodd"/>
</svg>
