<svg fill="none" stroke="currentColor" viewBox="0 0 24 24">
  <path fill="#1F2937" fill-rule="evenodd" d="M15.707 9.3a1 1 0 0 1 0 1.415l-4 4a1 1 0 0 1-1.414 0l-2-2A1 1 0 0 1 9.707 11.3L11 12.593 14.293 9.3a1 1 0 0 1 1.414 0z" clip-rule="evenodd"/>
  <path fill="#1F2937" fill-rule="evenodd" d="M12.672 2.26A.994.994 0 0 0 12 2a.999.999 0 0 0-.672.26A11 11 0 0 1 3.546 5a1 1 0 0 0-1.005.717 13 13 0 0 0 9.208 16.25 1 1 0 0 0 .502 0 13.001 13.001 0 0 0 9.208-16.25 1 1 0 0 0-1.005-.717 11 11 0 0 1-7.782-2.742zM12 4.296a13 13 0 0 1-7.728 2.714A11 11 0 0 0 12 19.964 11.002 11.002 0 0 0 19.728 7.01 13 13 0 0 1 12 4.297z" clip-rule="evenodd"/>
</svg>
