<svg fill="none" stroke="currentColor" viewBox="0 0 24 24">
  <path fill="#1F2937" fill-rule="evenodd" d="M9 17.993a1 1 0 1 0 0 2 1 1 0 0 0 0-2zm-3 1a3 3 0 1 1 6 0 3 3 0 0 1-6 0zM17 17.993a1 1 0 1 0 0 2 1 1 0 0 0 0-2zm-3 1a3 3 0 1 1 6 0 3 3 0 0 1-6 0z" clip-rule="evenodd"/>
  <path fill="#1F2937" fill-rule="evenodd" d="M2 3a1 1 0 0 1 1-1h2a1 1 0 0 1 .986.836L6.68 7H21a1 1 0 0 1 .99 1.141l-1 7c-.01.065-.025.129-.047.19A4 4 0 0 1 16.973 18h-6.947a4 4 0 0 1-3.97-2.668.999.999 0 0 1-.042-.168L4.888 8.411a.996.996 0 0 1-.084-.503L4.153 4H3a1 1 0 0 1-1-1zm5.014 6 .957 5.741a2 2 0 0 0 1.972 1.26A1.07 1.07 0 0 1 10 16h7a2 2 0 0 0 2.025-1.249L19.847 9H7.014z" clip-rule="evenodd"/>
</svg>
