<svg fill="none" stroke="currentColor" viewBox="0 0 24 24">
  <path fill="#1F2937" fill-rule="evenodd" d="M12 .993a1 1 0 0 1 1 1v1h1a1 1 0 0 1 .447 1.894L13 5.611v2.302l2.498 1.432a1 1 0 0 1-.995 1.735l-3-1.72A1 1 0 0 1 11 8.493V5.61l-1.447-.724A1 1 0 0 1 10 2.993h1v-1a1 1 0 0 1 1-1z" clip-rule="evenodd"/>
  <path fill="#1F2937" fill-rule="evenodd" d="M21.526 6.506a1 1 0 0 1-.366 1.366l-.866.5.5.866a1 1 0 0 1-1.417 1.334l-1.35-.891-1.994 1.151.009 2.879a1 1 0 1 1-2 .006l-.01-3.458a1 1 0 0 1 .5-.87l2.495-1.44-.097-1.615a1 1 0 0 1 1.864-.56l.5.866.866-.5a1 1 0 0 1 1.366.366z" clip-rule="evenodd"/>
  <path fill="#1F2937" fill-rule="evenodd" d="M21.526 17.513a1 1 0 0 1-1.366.366l-.866-.5-.5.866a1 1 0 0 1-1.864-.56l.097-1.615-1.994-1.151-2.489 1.447a1 1 0 1 1-1.005-1.73l2.99-1.737a1 1 0 0 1 1.002-.002l2.496 1.441 1.35-.891a1 1 0 0 1 1.417 1.334l-.5.866.866.5a1 1 0 0 1 .366 1.366z" clip-rule="evenodd"/>
  <path fill="#1F2937" fill-rule="evenodd" d="M12 23.007a1 1 0 0 1-1-1v-1h-1a1 1 0 0 1-.447-1.894L11 18.389v-2.302l-2.497-1.432a1 1 0 1 1 .994-1.735l3 1.72a1 1 0 0 1 .503.867v2.882l1.447.724A1 1 0 0 1 14 21.007h-1v1a1 1 0 0 1-1 1z" clip-rule="evenodd"/>
  <path fill="#1F2937" fill-rule="evenodd" d="M2.474 17.494a1 1 0 0 1 .366-1.366l.866-.5-.5-.866a1 1 0 0 1 1.417-1.334l1.35.891 1.994-1.151-.009-2.879a1 1 0 1 1 2-.006l.01 3.458a1 1 0 0 1-.5.87l-2.495 1.44.097 1.616a1 1 0 0 1-1.864.56l-.5-.867-.866.5a1 1 0 0 1-1.366-.366z" clip-rule="evenodd"/>
  <path fill="#1F2937" fill-rule="evenodd" d="M2.474 6.487A1 1 0 0 1 3.84 6.12l.866.5.5-.866a1 1 0 0 1 1.864.56L6.973 7.93 8.967 9.08l2.489-1.447a1 1 0 1 1 1.005 1.73L9.471 11.1a1 1 0 0 1-1.002.002L5.973 9.662l-1.35.891A1 1 0 0 1 3.206 9.22l.5-.866-.866-.5a1 1 0 0 1-.366-1.366z" clip-rule="evenodd"/>
</svg>
