<svg fill="none" stroke="currentColor" viewBox="0 0 24 24">
  <path fill="#1F2937" fill-rule="evenodd" d="M12 4a1 1 0 1 0 0 2 1 1 0 0 0 0-2zM9 5a3 3 0 1 1 6 0 3 3 0 0 1-6 0zM5 17.992a1 1 0 1 0 0 2 1 1 0 0 0 0-2zm-3 1a3 3 0 1 1 6 0 3 3 0 0 1-6 0zM19 17.992a1 1 0 1 0 0 2 1 1 0 0 0 0-2zm-3 1a3 3 0 1 1 6 0 3 3 0 0 1-6 0zM12 11.992a2 2 0 1 0 0 4 2 2 0 0 0 0-4zm-4 2a4 4 0 1 1 8 0 4 4 0 0 1-8 0z" clip-rule="evenodd"/>
  <path fill="#1F2937" fill-rule="evenodd" d="M12 6.008a1 1 0 0 1 1 1v4a1 1 0 1 1-2 0v-4a1 1 0 0 1 1-1zM10.314 15.216a1 1 0 0 1-.233 1.395l-2.8 2a1 1 0 0 1-1.162-1.628l2.8-2a1 1 0 0 1 1.395.233zM13.686 15.216a1 1 0 0 1 1.395-.232l2.8 2a1 1 0 0 1-1.162 1.627l-2.8-2a1 1 0 0 1-.233-1.395z" clip-rule="evenodd"/>
</svg>
