<svg fill="none" stroke="currentColor" viewBox="0 0 24 24">
  <path fill="#1F2937" fill-rule="evenodd" d="M3 6a1 1 0 0 1 1-1h9a1 1 0 1 1 0 2H4a1 1 0 0 1-1-1zM3 12a1 1 0 0 1 1-1h7a1 1 0 1 1 0 2H4a1 1 0 0 1-1-1zM3 18a1 1 0 0 1 1-1h7a1 1 0 1 1 0 2H4a1 1 0 0 1-1-1zM14.293 14.293a1 1 0 0 1 1.414 0L18 16.586l2.293-2.293a1 1 0 0 1 1.414 1.414l-3 3a1 1 0 0 1-1.414 0l-3-3a1 1 0 0 1 0-1.414z" clip-rule="evenodd"/>
  <path fill="#1F2937" fill-rule="evenodd" d="M18 5a1 1 0 0 1 1 1v12a1 1 0 1 1-2 0V6a1 1 0 0 1 1-1z" clip-rule="evenodd"/>
</svg>
