<svg fill="none" stroke="currentColor" viewBox="0 0 24 24">
  <path fill="#1F2937" fill-rule="evenodd" d="M6 5.007a1 1 0 0 0-1 1v12a1 1 0 0 0 1 1h12a1 1 0 0 0 1-1v-12a1 1 0 0 0-1-1H6zm-3 1a3 3 0 0 1 3-3h12a3 3 0 0 1 3 3v12a3 3 0 0 1-3 3H6a3 3 0 0 1-3-3v-12z" clip-rule="evenodd"/>
  <path fill="#1F2937" fill-rule="evenodd" d="M9.293 9.3a1 1 0 0 1 1.414 0L12 10.593 13.293 9.3a1 1 0 1 1 1.414 1.415l-1.293 1.292 1.293 1.293a1 1 0 0 1-1.414 1.415L12 13.422l-1.293 1.293A1 1 0 0 1 9.293 13.3l1.293-1.293-1.293-1.292a1 1 0 0 1 0-1.415z" clip-rule="evenodd"/>
</svg>
