<svg fill="none" stroke="currentColor" viewBox="0 0 24 24">
  <path fill="#1F2937" fill-rule="evenodd" d="M11.553 3.113a1 1 0 0 1 .894 0l8 4a1 1 0 0 1 0 1.789l-8 4a1 1 0 0 1-.894 0l-8-4a1 1 0 0 1 0-1.789l8-4zM6.236 8.007 12 10.89l5.764-2.882L12 5.125 6.236 8.007z" clip-rule="evenodd"/>
  <path fill="#1F2937" fill-rule="evenodd" d="M3.106 11.553a1 1 0 0 1 1.341-.448L12 14.883l7.553-3.777a1 1 0 0 1 .894 1.79l-8 4a1 1 0 0 1-.894 0l-8-4a1 1 0 0 1-.447-1.342z" clip-rule="evenodd"/>
  <path fill="#1F2937" fill-rule="evenodd" d="M3.106 15.56a1 1 0 0 1 1.341-.447L12 18.89l7.553-3.777a1 1 0 1 1 .894 1.789l-8 4a1 1 0 0 1-.894 0l-8-4a1 1 0 0 1-.447-1.342z" clip-rule="evenodd"/>
</svg>
