<svg fill="none" stroke="currentColor" viewBox="0 0 24 24">
  <path fill="#1F2937" fill-rule="evenodd" d="M12 .993a1 1 0 0 1 .896.557l2.854 5.781 6.38.927a1 1 0 0 1 .554 1.706l-4.617 4.5 1.09 6.354a1 1 0 0 1-1.45 1.055l-5.707-3-5.707 3a1 1 0 0 1-1.45-1.055l1.09-6.354-4.617-4.5a1 1 0 0 1 .554-1.706l6.38-.926 2.853-5.782A1 1 0 0 1 12 .993zm0 3.26L9.81 8.687a1 1 0 0 1-.753.547l-4.894.711 3.542 3.453a1 1 0 0 1 .287.885l-.836 4.875 4.378-2.302a1 1 0 0 1 .931 0l4.378 2.302-.836-4.875a1 1 0 0 1 .288-.886l3.542-3.452-4.895-.71a1 1 0 0 1-.753-.548l-2.19-4.436z" clip-rule="evenodd"/>
</svg>
