<svg fill="none" stroke="currentColor" viewBox="0 0 24 24">
  <path fill="#1F2937" fill-rule="evenodd" d="M11.733 3.044a1 1 0 0 1 .974.256l8 8a1 1 0 0 1-.465 1.678l-2 .5a.997.997 0 0 1-.155.026 7 7 0 0 1-7.583-7.584c.004-.052.013-.104.026-.155l.5-2a1 1 0 0 1 .703-.721zm.809 2.92-.052.206a5 5 0 0 0 5.347 5.347l.207-.051-5.502-5.503z" clip-rule="evenodd"/>
  <path fill="#1F2937" fill-rule="evenodd" d="M12 5.007a7 7 0 1 0 7 7 1 1 0 0 1 2 0 9 9 0 1 1-9-9 1 1 0 1 1 0 2z" clip-rule="evenodd"/>
</svg>
