<svg fill="none" stroke="currentColor" viewBox="0 0 24 24">
  <path fill="#1F2937" fill-rule="evenodd" d="M4 12a1 1 0 0 1 1-1h14a1 1 0 1 1 0 2H5a1 1 0 0 1-1-1z" clip-rule="evenodd"/>
  <path fill="#1F2937" fill-rule="evenodd" d="M11.992 3.993c1.01-.015 2.025.14 2.886.463.833.313 1.62.823 2.01 1.58a1 1 0 1 1-1.777.915c-.063-.123-.315-.39-.936-.622-.591-.222-1.355-.348-2.16-.336H11a2.5 2.5 0 0 0 0 5 1 1 0 1 1 0 2 4.5 4.5 0 1 1 0-9h.992zM16.643 15.018a1 1 0 0 1 .847 1.132 4.5 4.5 0 0 1-4.495 3.858h-1.487c-1.01.015-2.025-.14-2.885-.463-.833-.313-1.622-.823-2.012-1.58a1 1 0 1 1 1.778-.916c.064.124.315.39.936.623.592.222 1.355.348 2.16.336h1.525a2.5 2.5 0 0 0 2.5-2.143 1 1 0 0 1 1.133-.847z" clip-rule="evenodd"/>
</svg>
