<svg fill="none" stroke="currentColor" viewBox="0 0 24 24">
  <path fill="#1F2937" fill-rule="evenodd" d="M4.893 9.91a1 1 0 0 1 1.414 0l.7.7a1 1 0 1 1-1.414 1.414l-.7-.7a1 1 0 0 1 0-1.414zm14.214 0a1 1 0 0 1 0 1.414l-.7.7a1 1 0 1 1-1.414-1.414l.7-.7a1 1 0 0 1 1.414 0zM12 14.017a3 3 0 0 0-3 3 1 1 0 1 1-2 0 5 5 0 1 1 10 0 1 1 0 1 1-2 0 3 3 0 0 0-3-3zm-10 3a1 1 0 0 1 1-1h1a1 1 0 1 1 0 2H3a1 1 0 0 1-1-1zm17 0a1 1 0 0 1 1-1h1a1 1 0 1 1 0 2h-1a1 1 0 0 1-1-1zM2 21a1 1 0 0 1 1-1h18a1 1 0 1 1 0 2H3a1 1 0 0 1-1-1zM11.293 2.293a1 1 0 0 1 1.414 0l3 3a1 1 0 0 1-1.414 1.414L13 5.414V9a1 1 0 1 1-2 0V5.414L9.707 6.707a1 1 0 0 1-1.414-1.414l3-3z" clip-rule="evenodd"/>
</svg>
