<svg fill="none" stroke="currentColor" viewBox="0 0 24 24">
  <path fill="#1F2937" fill-rule="evenodd" d="M4.375 6.227a1 1 0 0 1 1.406.156L9 10.407l3.22-4.024a1 1 0 1 1 1.56 1.25l-3.5 4.375 3.5 4.375a1 1 0 0 1-1.56 1.25L9 13.607l-3.22 4.024a1 1 0 0 1-1.56-1.25l3.5-4.375-3.5-4.375a1 1 0 0 1 .155-1.405zM17.957 3.09a3.016 3.016 0 0 1 3.411 4.406.995.995 0 0 1-.115.163L19.203 10H21a1 1 0 1 1 0 2h-4a1 1 0 0 1-.752-1.659L19.67 6.43a1.016 1.016 0 0 0-1.802-.934 1 1 0 0 1-1.736-.992 3.016 3.016 0 0 1 1.825-1.413z" clip-rule="evenodd"/>
</svg>
