<svg fill="none" stroke="currentColor" viewBox="0 0 24 24">
  <path fill="#1F2937" fill-rule="evenodd" d="M15.293 2.293a1 1 0 0 1 1.414 0l4 4a1 1 0 0 1 0 1.414l-4 4a1 1 0 0 1-1.414-1.414L18.586 7l-3.293-3.293a1 1 0 0 1 0-1.414z" clip-rule="evenodd"/>
  <path fill="#1F2937" fill-rule="evenodd" d="M9 7.007a1 1 0 0 1 1-1h10a1 1 0 1 1 0 2H10a1 1 0 0 1-1-1zM8.707 12.3a1 1 0 0 1 0 1.415l-3.293 3.292L8.707 20.3a1 1 0 0 1-1.414 1.415l-4-4a1 1 0 0 1 0-1.415l4-4a1 1 0 0 1 1.414 0z" clip-rule="evenodd"/>
  <path fill="#1F2937" fill-rule="evenodd" d="M3 16.993a1 1 0 0 1 1-1h9a1 1 0 1 1 0 2H4a1 1 0 0 1-1-1z" clip-rule="evenodd"/>
</svg>
