<svg fill="none" stroke="currentColor" viewBox="0 0 24 24">
  <path fill="#1F2937" fill-rule="evenodd" d="M7 3.007a1 1 0 0 1 .707.293l4 4a1 1 0 0 1-1.414 1.415L7 5.422 3.707 8.715A1 1 0 1 1 2.293 7.3l4-4A1 1 0 0 1 7 3.007z" clip-rule="evenodd"/>
  <path fill="#1F2937" fill-rule="evenodd" d="M7 3.007a1 1 0 0 1 1 1v9a1 1 0 1 1-2 0v-9a1 1 0 0 1 1-1zM12.293 15.3a1 1 0 0 1 1.414 0L17 18.593l3.293-3.293a1 1 0 0 1 1.414 1.415l-4 4a1 1 0 0 1-1.414 0l-4-4a1 1 0 0 1 0-1.415z" clip-rule="evenodd"/>
  <path fill="#1F2937" fill-rule="evenodd" d="M17 9.007a1 1 0 0 1 1 1v10a1 1 0 1 1-2 0v-10a1 1 0 0 1 1-1z" clip-rule="evenodd"/>
</svg>
