<svg fill="none" stroke="currentColor" viewBox="0 0 24 24">
  <path fill="#1F2937" fill-rule="evenodd" d="M7 4a3 3 0 0 0-3 3v3.586l8.682 8.682a.5.5 0 0 0 .636 0l5.95-5.95a.5.5 0 0 0 0-.636L10.586 4H7zm-3.536-.536A5 5 0 0 1 7 2h4a1 1 0 0 1 .707.293l9 9 .038.04a2.5 2.5 0 0 1-.038 3.374l-6 6a2.5 2.5 0 0 1-3.414 0l-9-9A1 1 0 0 1 2 11V7a5 5 0 0 1 1.464-3.536z" clip-rule="evenodd"/>
  <path fill="#1F2937" fill-rule="evenodd" d="M9 8.007a1 1 0 1 0 0 2 1 1 0 0 0 0-2zm-3 1a3 3 0 1 1 6 0 3 3 0 0 1-6 0z" clip-rule="evenodd"/>
</svg>
