<svg fill="none" stroke="currentColor" viewBox="0 0 24 24">
  <path fill="#1F2937" fill-rule="evenodd" d="M15.707 7.285a1 1 0 0 1 0 1.415l-6 6a1 1 0 0 1-1.414-1.415l6-6a1 1 0 0 1 1.414 0z" clip-rule="evenodd"/>
  <path fill="#1F2937" d="M9.5 8.992a.5.5 0 1 0 0-1 .5.5 0 0 0 0 1z"/>
  <path fill="#1F2937" fill-rule="evenodd" d="M9.5 8.992a.5.5 0 1 0 0-1 .5.5 0 0 0 0 1zm-1.5-.5a1.5 1.5 0 1 1 3 0 1.5 1.5 0 0 1-3 0z" clip-rule="evenodd"/>
  <path fill="#1F2937" d="M14.5 14.008a.5.5 0 1 0 0-1 .5.5 0 0 0 0 1z"/>
  <path fill="#1F2937" fill-rule="evenodd" d="M14.5 14.008a.5.5 0 1 0 0-1 .5.5 0 0 0 0 1zm-1.5-.5a1.5 1.5 0 1 1 3 0 1.5 1.5 0 0 1-3 0z" clip-rule="evenodd"/>
  <path fill="#1F2937" fill-rule="evenodd" d="M7 4a1 1 0 0 0-1 1v14.131l1.445-.963a1 1 0 0 1 1.262.125L10 19.586l1.293-1.293a1 1 0 0 1 1.414 0L14 19.586l1.293-1.293a1 1 0 0 1 1.262-.125L18 19.13V5a1 1 0 0 0-1-1H7zM4.879 2.879A3 3 0 0 1 7 2h10a3 3 0 0 1 3 3v16a1 1 0 0 1-1.555.832l-2.318-1.545-1.42 1.42a1 1 0 0 1-1.414 0L12 20.414l-1.293 1.293a1 1 0 0 1-1.414 0l-1.42-1.42-2.318 1.545A1 1 0 0 1 4 21V5a3 3 0 0 1 .879-2.121z" clip-rule="evenodd"/>
</svg>
