<svg fill="none" stroke="currentColor" viewBox="0 0 24 24">
  <path fill="#1F2937" fill-rule="evenodd" d="M7.879 2.879A3 3 0 0 1 13 5v7.964a5 5 0 1 1-6 0V5a3 3 0 0 1 .879-2.121zM10 4a1 1 0 0 0-1 1v8.5a1 1 0 0 1-.5.866 3 3 0 1 0 3 0 1 1 0 0 1-.5-.866V5a1 1 0 0 0-1-1z" clip-rule="evenodd"/>
  <path fill="#1F2937" fill-rule="evenodd" d="M7 9a1 1 0 0 1 1-1h4a1 1 0 1 1 0 2H8a1 1 0 0 1-1-1zM15 9a1 1 0 0 1 1-1h6a1 1 0 1 1 0 2h-6a1 1 0 0 1-1-1z" clip-rule="evenodd"/>
  <path fill="#1F2937" fill-rule="evenodd" d="M19 5a1 1 0 0 1 1 1v6a1 1 0 1 1-2 0V6a1 1 0 0 1 1-1z" clip-rule="evenodd"/>
</svg>
