<svg fill="none" stroke="currentColor" viewBox="0 0 24 24">
  <path fill="#1F2937" fill-rule="evenodd" d="M12 4a8 8 0 1 0 0 16 8 8 0 0 0 0-16zM2 12C2 6.477 6.477 2 12 2s10 4.477 10 10-4.477 10-10 10S2 17.523 2 12z" clip-rule="evenodd"/>
  <path fill="#1F2937" fill-rule="evenodd" d="M5.256 4.64a1 1 0 0 1 1.412-.076 10 10 0 0 1 0 14.889 1 1 0 1 1-1.336-1.489 8 8 0 0 0 0-11.911 1 1 0 0 1-.076-1.412zM18.744 19.36a1 1 0 0 1-1.412.076 10 10 0 0 1 0-14.889 1 1 0 1 1 1.336 1.489 7.999 7.999 0 0 0 0 11.911 1 1 0 0 1 .076 1.412z" clip-rule="evenodd"/>
</svg>
