<svg fill="none" stroke="currentColor" viewBox="0 0 24 24">
  <path fill="#1F2937" fill-rule="evenodd" d="M15 3.993a1 1 0 0 1 1 1v2a1 1 0 1 1-2 0v-2a1 1 0 0 1 1-1zM15 9.993a1 1 0 0 1 1 1v2a1 1 0 0 1-2 0v-2a1 1 0 0 1 1-1zM15 15.993a1 1 0 0 1 1 1v2a1 1 0 0 1-2 0v-2a1 1 0 0 1 1-1z" clip-rule="evenodd"/>
  <path fill="#1F2937" fill-rule="evenodd" d="M5 5.993a1 1 0 0 0-1 1v2.171a3 3 0 0 1 0 5.657v2.172a1 1 0 0 0 1 1h14a1 1 0 0 0 1-1V14.82a3 3 0 0 1 0-5.657V6.993a1 1 0 0 0-1-1H5zM2.879 4.87A3 3 0 0 1 5 3.993h14a3 3 0 0 1 3 3v3a1 1 0 0 1-1 1 1 1 0 1 0 0 2 1 1 0 0 1 1 1v3a3 3 0 0 1-3 3H5a3 3 0 0 1-3-3v-3a1 1 0 0 1 1-1 1 1 0 0 0 0-2 1 1 0 0 1-1-1v-3a3 3 0 0 1 .879-2.122z" clip-rule="evenodd"/>
</svg>
