<svg fill="none" stroke="currentColor" viewBox="0 0 24 24">
  <path fill="#1F2937" fill-rule="evenodd" d="m8.379 3.957 2.328 2.328a1 1 0 0 1 .293.708v3a1 1 0 0 1-1 1H7a1 1 0 0 1-.707-.293L3.964 8.37a5 5 0 0 0 7.105 5.22 1 1 0 0 1 1.138.194l6 6a1.121 1.121 0 1 0 1.586-1.585l-6-6a1 1 0 0 1-.195-1.138 5 5 0 0 0-5.22-7.105zM6.069 2.59a7 7 0 0 1 9.61 8.668l5.528 5.527a3.122 3.122 0 0 1-4.414 4.415l-5.528-5.528a7 7 0 0 1-8.668-9.61 1 1 0 0 1 1.61-.277l3.207 3.208H9V7.407L5.793 4.2a1 1 0 0 1 .276-1.61z" clip-rule="evenodd"/>
</svg>
