<svg fill="none" stroke="currentColor" viewBox="0 0 24 24">
  <path fill="#1F2937" fill-rule="evenodd" d="M15.293 3.285A3.828 3.828 0 1 1 20.707 8.7l-13 13a1 1 0 0 1-.707.293H3a1 1 0 0 1-1-1v-4a1 1 0 0 1 .293-.708l13-13zm2.707.88c-.485 0-.95.192-1.293.535L4 17.407v2.585h2.586L19.293 7.285A1.828 1.828 0 0 0 18 4.165z" clip-rule="evenodd"/>
  <path fill="#1F2937" fill-rule="evenodd" d="M13.793 4.8a1 1 0 0 1 1.414 0l4 4a1 1 0 0 1-1.414 1.415l-4-4a1 1 0 0 1 0-1.415zM6.293 2.293a1 1 0 0 1 1.414 0l5 5a1 1 0 0 1-1.414 1.414L7 4.414 4.414 7l4.293 4.293a1 1 0 1 1-1.414 1.414l-5-5a1 1 0 0 1 0-1.414l4-4z" clip-rule="evenodd"/>
  <path fill="#1F2937" fill-rule="evenodd" d="M7.707 7.285a1 1 0 0 1 0 1.415l-1.5 1.5a1 1 0 0 1-1.414-1.415l1.5-1.5a1 1 0 0 1 1.414 0zM15.293 11.293a1 1 0 0 1 1.414 0l5 5a1 1 0 0 1 0 1.414l-4 4a1 1 0 0 1-1.414 0l-5-5a1 1 0 0 1 1.414-1.414L17 19.586 19.586 17l-4.293-4.293a1 1 0 0 1 0-1.414z" clip-rule="evenodd"/>
  <path fill="#1F2937" fill-rule="evenodd" d="M16.707 16.285a1 1 0 0 1 0 1.415l-1.5 1.5a1 1 0 0 1-1.414-1.415l1.5-1.5a1 1 0 0 1 1.414 0z" clip-rule="evenodd"/>
</svg>
