<svg fill="none" stroke="currentColor" viewBox="0 0 24 24">
  <path fill="#1F2937" fill-rule="evenodd" d="M7 11.992a3 3 0 1 0 0 6 3 3 0 0 0 0-6zm-5 3a5 5 0 1 1 10 0 5 5 0 0 1-10 0z" clip-rule="evenodd"/>
  <path fill="#1F2937" fill-rule="evenodd" d="M7 14a1 1 0 0 1 1 1v.01a1 1 0 1 1-2 0V15a1 1 0 0 1 1-1zM19 16a1 1 0 1 0 0 2 1 1 0 0 0 0-2zm-3 1a3 3 0 1 1 6 0 3 3 0 0 1-6 0z" clip-rule="evenodd"/>
  <path fill="#1F2937" fill-rule="evenodd" d="M9.5 16.992a1 1 0 0 1 1-1H17a1 1 0 1 1 0 2h-6.5a1 1 0 0 1-1-1zM4 4.992a1 1 0 0 1 1-1h6a1 1 0 0 1 .928.629l1.749 4.371H19a2 2 0 0 1 2 2v4.2a1 1 0 1 1-2 0v-4.2h-6a1 1 0 0 1-.928-.628l-1.749-4.372H6v5.5a1 1 0 1 1-2 0v-6.5z" clip-rule="evenodd"/>
  <path fill="#1F2937" fill-rule="evenodd" d="M15.586 4.578A2 2 0 0 1 17 3.992h1a1 1 0 1 1 0 2h-1v4a1 1 0 0 1-2 0v-4a2 2 0 0 1 .586-1.414z" clip-rule="evenodd"/>
</svg>
