<svg fill="none" stroke="currentColor" viewBox="0 0 24 24">
  <path fill="#1F2937" fill-rule="evenodd" d="M3 19.993a1 1 0 0 1 1-1h16a1 1 0 1 1 0 2H4a1 1 0 0 1-1-1zM8.4 10.007a1 1 0 0 1 1-1h5.2a1 1 0 1 1 0 2H9.4a1 1 0 0 1-1-1zM6.8 15a1 1 0 0 1 1-1h8.4a1 1 0 1 1 0 2H7.8a1 1 0 0 1-1-1z" clip-rule="evenodd"/>
  <path fill="#1F2937" fill-rule="evenodd" d="M10.051 4.676A1 1 0 0 1 11 3.993h2a1 1 0 0 1 .948.683l5 15a1 1 0 0 1-1.897.633L12.28 5.993h-.559L6.948 20.309a1 1 0 1 1-1.897-.633l5-15z" clip-rule="evenodd"/>
</svg>
