<svg fill="none" stroke="currentColor" viewBox="0 0 24 24">
  <path fill="#1F2937" fill-rule="evenodd" d="M3 7.007a1 1 0 0 1 1-1h16a1 1 0 1 1 0 2H4a1 1 0 0 1-1-1zM10 9.993a1 1 0 0 1 1 1v6a1 1 0 0 1-2 0v-6a1 1 0 0 1 1-1zM14 9.993a1 1 0 0 1 1 1v6a1 1 0 0 1-2 0v-6a1 1 0 0 1 1-1z" clip-rule="evenodd"/>
  <path fill="#1F2937" fill-rule="evenodd" d="M4.917 6.011a1 1 0 0 1 1.08.913l1 12a1 1 0 0 1 .003.084 1 1 0 0 0 1 1h8a1 1 0 0 0 1-1 1 1 0 0 1 .003-.084l1-12a1 1 0 0 1 1.994.167L19 19.053a3 3 0 0 1-3 2.954H8a3 3 0 0 1-3-2.954L4.004 7.091a1 1 0 0 1 .913-1.08z" clip-rule="evenodd"/>
  <path fill="#1F2937" fill-rule="evenodd" d="M8.586 2.586A2 2 0 0 1 10 2h4a2 2 0 0 1 2 2v3a1 1 0 1 1-2 0V4h-4v3a1 1 0 0 1-2 0V4a2 2 0 0 1 .586-1.414z" clip-rule="evenodd"/>
</svg>
