<svg fill="none" stroke="currentColor" viewBox="0 0 24 24">
  <path fill="#1F2937" fill-rule="evenodd" d="M7 16a1 1 0 1 0 0 2 1 1 0 0 0 0-2zm-3 1a3 3 0 1 1 6 0 3 3 0 0 1-6 0zM17 16a1 1 0 1 0 0 2 1 1 0 0 0 0-2zm-3 1a3 3 0 1 1 6 0 3 3 0 0 1-6 0z" clip-rule="evenodd"/>
  <path fill="#1F2937" fill-rule="evenodd" d="M2.586 4.578A2 2 0 0 1 4 3.992h9a1 1 0 0 1 1 1h4a1 1 0 0 1 .858.486l3 5a1 1 0 0 1 .142.514v6a1 1 0 0 1-1 1h-2a1 1 0 1 1 0-2h1v-4h-6v4h1a1 1 0 1 1 0 2H3a1 1 0 0 1-1-1v-11a2 2 0 0 1 .586-1.414zM12 15.992v-10H4v10h8zm2-9v3h5.234l-1.8-3H14z" clip-rule="evenodd"/>
</svg>
