<svg fill="none" stroke="currentColor" viewBox="0 0 24 24">
  <path fill="#47ACDF" d="M8.842 21c-2.427 0-4.688-.706-6.592-1.923 1.616.104 4.469-.146 6.243-1.838-2.67-.123-3.873-2.17-4.03-3.045.227.088 1.308.193 1.919-.052-3.07-.77-3.541-3.464-3.436-4.286.575.402 1.552.542 1.936.507-2.86-2.047-1.832-5.126-1.326-5.79 2.053 2.843 5.13 4.44 8.936 4.53a4.398 4.398 0 0 1-.11-.98 4.367 4.367 0 0 1 4.362-4.373c1.258 0 2.392.535 3.188 1.39.84-.197 2.106-.659 2.725-1.058-.312 1.12-1.283 2.054-1.87 2.4.005.012-.005-.012 0 0 .516-.078 1.912-.346 2.463-.72-.273.629-1.302 1.675-2.147 2.26C21.26 14.953 15.957 21 8.842 21z"/>
</svg>
