<svg fill="none" stroke="currentColor" viewBox="0 0 24 24">
  <path fill="#1F2937" fill-rule="evenodd" d="M12 8.993a3 3 0 0 0-3 3v4a1 1 0 0 1-2 0v-4a5 5 0 1 1 10 0v4a1 1 0 0 1-2 0v-4a3 3 0 0 0-3-3zM12 2a1 1 0 0 1 1 1v1a1 1 0 1 1-2 0V3a1 1 0 0 1 1-1zM4.893 4.893a1 1 0 0 1 1.414 0l.7.7a1 1 0 0 1-1.414 1.414l-.7-.7a1 1 0 0 1 0-1.414zm14.214 0a1 1 0 0 1 0 1.414l-.7.7a1 1 0 1 1-1.414-1.414l.7-.7a1 1 0 0 1 1.414 0zM2 12a1 1 0 0 1 1-1h1a1 1 0 1 1 0 2H3a1 1 0 0 1-1-1zm17 0a1 1 0 0 1 1-1h1a1 1 0 1 1 0 2h-1a1 1 0 0 1-1-1z" clip-rule="evenodd"/>
  <path fill="#1F2937" fill-rule="evenodd" d="M5 17.007a2 2 0 0 1 2-2h10a2 2 0 0 1 2 2v2a2 2 0 0 1-2 2H7a2 2 0 0 1-2-2v-2zm12 0H7v2h10v-2z" clip-rule="evenodd"/>
</svg>
