<svg fill="none" stroke="currentColor" viewBox="0 0 24 24">
  <path fill="#1F2937" fill-rule="evenodd" d="M9 4.6a2.4 2.4 0 1 0 0 4.8 2.4 2.4 0 0 0 0-4.8zM5 7a4 4 0 1 1 8 0 4 4 0 0 1-8 0zM7.286 14.75c-.682 0-1.336.277-1.819.769a2.653 2.653 0 0 0-.753 1.856v1.75a.866.866 0 0 1-.857.875.866.866 0 0 1-.857-.875v-1.75c0-1.16.452-2.273 1.255-3.094A4.242 4.242 0 0 1 7.285 13h3.43c1.136 0 2.226.46 3.03 1.281A4.421 4.421 0 0 1 15 17.375v1.75a.866.866 0 0 1-.857.875.866.866 0 0 1-.857-.875v-1.75c0-.696-.271-1.364-.753-1.856a2.546 2.546 0 0 0-1.819-.769H7.286z" clip-rule="evenodd"/>
  <path fill="#1F2937" d="M22 7a1 1 0 0 0-1-1h-4a1 1 0 1 0 0 2h4a1 1 0 0 0 1-1zM22 11a1 1 0 0 0-1-1h-4a1 1 0 1 0 0 2h4a1 1 0 0 0 1-1zM22 15a1 1 0 0 0-1-1h-4a1 1 0 1 0 0 2h4a1 1 0 0 0 1-1z"/>
</svg>
