<svg fill="none" stroke="currentColor" viewBox="0 0 24 24">
  <path fill="#1F2937" fill-rule="evenodd" d="M9 4a3 3 0 1 0 0 6 3 3 0 0 0 0-6zM4 7a5 5 0 1 1 10 0A5 5 0 0 1 4 7zM7 16a3 3 0 0 0-3 3v2a1 1 0 1 1-2 0v-2a5 5 0 0 1 5-5h4a5 5 0 0 1 5 5v2a1 1 0 1 1-2 0v-2a3 3 0 0 0-3-3H7zM16.293 8.293a1 1 0 0 1 1.414 0L19 9.586l1.293-1.293a1 1 0 1 1 1.414 1.414L20.414 11l1.293 1.293a1 1 0 0 1-1.414 1.414L19 12.414l-1.293 1.293a1 1 0 0 1-1.414-1.414L17.586 11l-1.293-1.293a1 1 0 0 1 0-1.414z" clip-rule="evenodd"/>
</svg>
