<svg fill="none" stroke="currentColor" viewBox="0 0 24 24">
  <path fill="#1F2937" fill-rule="evenodd" d="M9 4a3 3 0 1 0 0 6 3 3 0 0 0 0-6zM4 7a5 5 0 1 1 10 0A5 5 0 0 1 4 7zM7 16a3 3 0 0 0-3 3v2a1 1 0 1 1-2 0v-2a5 5 0 0 1 5-5h4a5 5 0 0 1 5 5v2a1 1 0 1 1-2 0v-2a3 3 0 0 0-3-3H7zM15.031 2.892a1 1 0 0 1 1.217-.72 5 5 0 0 1 0 9.687 1 1 0 0 1-.496-1.937 3 3 0 0 0 0-5.813 1 1 0 0 1-.72-1.217zM17.032 14.89a1 1 0 0 1 1.218-.718A5 5 0 0 1 22 18.985v2.006a1 1 0 1 1-2 0v-1.997a2.999 2.999 0 0 0-2.25-2.885 1 1 0 0 1-.718-1.218z" clip-rule="evenodd"/>
</svg>
