<svg fill="none" stroke="currentColor" viewBox="0 0 24 24">
  <path fill="#1F2937" fill-rule="evenodd" d="M6.293 8.293a1 1 0 0 1 1.414 0l3 3a1 1 0 0 1 0 1.414l-3 3a1 1 0 0 1-1.414-1.414L7.586 13H3a1 1 0 1 1 0-2h4.586L6.293 9.707a1 1 0 0 1 0-1.414zM17.707 8.293a1 1 0 0 1 0 1.414L16.414 11H21a1 1 0 1 1 0 2h-4.586l1.293 1.293a1 1 0 0 1-1.414 1.414l-3-3a1 1 0 0 1 0-1.414l3-3a1 1 0 0 1 1.414 0zM8 3a1 1 0 0 1 1-1h6a1 1 0 0 1 1 1v3a1 1 0 1 1-2 0V4h-4v2a1 1 0 0 1-2 0V3zM9 17a1 1 0 0 1 1 1v2h4v-2a1 1 0 1 1 2 0v3a1 1 0 0 1-1 1H9a1 1 0 0 1-1-1v-3a1 1 0 0 1 1-1z" clip-rule="evenodd"/>
</svg>
