<svg fill="none" stroke="currentColor" viewBox="0 0 24 24">
  <path fill="#1F2937" fill-rule="evenodd" d="M6.707 8.293a1 1 0 0 1 0 1.414L5.414 11H10a1 1 0 1 1 0 2H5.414l1.293 1.293a1 1 0 1 1-1.414 1.414l-3-3a1 1 0 0 1 0-1.414l3-3a1 1 0 0 1 1.414 0zM17.293 8.293a1 1 0 0 1 1.414 0l3 3a1 1 0 0 1 0 1.414l-3 3a1 1 0 0 1-1.414-1.414L18.586 13H14a1 1 0 1 1 0-2h4.586l-1.293-1.293a1 1 0 0 1 0-1.414zM2 3a1 1 0 0 1 1-1h18a1 1 0 0 1 1 1v3a1 1 0 1 1-2 0V4H4v2a1 1 0 0 1-2 0V3zM3 17a1 1 0 0 1 1 1v2h16v-2a1 1 0 1 1 2 0v3a1 1 0 0 1-1 1H3a1 1 0 0 1-1-1v-3a1 1 0 0 1 1-1z" clip-rule="evenodd"/>
</svg>
