<svg fill="none" stroke="currentColor" viewBox="0 0 24 24">
  <path fill="#1F2937" fill-rule="evenodd" d="M12 8.007a4 4 0 1 0 0 8 4 4 0 0 0 0-8zm-6 4a6 6 0 1 1 12 0 6 6 0 0 1-12 0z" clip-rule="evenodd"/>
  <path fill="#1F2937" fill-rule="evenodd" d="M10 3a1 1 0 0 1 1-1h2a1 1 0 1 1 0 2v3a1 1 0 1 1-2 0V4a1 1 0 0 1-1-1zM5.636 4.23A1 1 0 0 1 7.05 5.644l2.122 2.122A1 1 0 1 1 7.757 9.18L5.636 7.059a1 1 0 0 1-1.414-1.415L5.636 4.23zm11.314.008a1 1 0 0 1 1.414 0l1.414 1.414a1 1 0 0 1-1.414 1.414l-2.121 2.121a1 1 0 1 1-1.415-1.414l2.122-2.121a1 1 0 0 1 0-1.414zM21 9.993a1 1 0 0 1 1 1v2a1 1 0 1 1-2 0h-3a1 1 0 1 1 0-2h3a1 1 0 0 1 1-1zm-18 .014a1 1 0 0 1 1 1h3a1 1 0 1 1 0 2H4a1 1 0 1 1-2 0v-2a1 1 0 0 1 1-1zm6.172 4.806a1 1 0 0 1 0 1.414L7.05 18.348a1 1 0 1 1-1.414 1.414l-1.414-1.414a1 1 0 1 1 1.414-1.414l2.121-2.122a1 1 0 0 1 1.415 0zm5.656.007a1 1 0 0 1 1.415 0l2.121 2.121a1 1 0 0 1 1.414 1.415l-.706.706-.002.001-.706.707a1 1 0 0 1-1.414-1.415l-2.122-2.12a1 1 0 0 1 0-1.415zM12 16a1 1 0 0 1 1 1v3a1 1 0 1 1 0 2h-2a1 1 0 1 1 0-2v-3a1 1 0 0 1 1-1z" clip-rule="evenodd"/>
</svg>
