<svg fill="none" stroke="currentColor" viewBox="0 0 24 24">
  <g fill="#1F2937" fill-rule="evenodd" clip-path="url(#clip0)" clip-rule="evenodd">
    <path d="M12 4a8 8 0 1 0 0 16 8 8 0 0 0 0-16zM2 12C2 6.477 6.477 2 12 2s10 4.477 10 10-4.477 10-10 10S2 17.523 2 12z"/>
    <path d="M11.509 11.13a1 1 0 0 1 1.362.378 7 7 0 0 0 7 3.5 1 1 0 0 1 .258 1.984 9 9 0 0 1-9-4.5 1 1 0 0 1 .38-1.363zM7.06 12.601a1 1 0 0 1 1.338.458 11 11 0 0 0 7.792 5.958 1 1 0 1 1-.38 1.964 12.999 12.999 0 0 1-9.208-7.042 1 1 0 0 1 .458-1.338z"/>
    <path d="M13 12.005a1 1 0 0 1-1.01.99 7 7 0 0 0-6.53 4.312 1 1 0 1 1-1.848-.768 9 9 0 0 1 8.398-5.544 1 1 0 0 1 .99 1.01zm.949-4.59a1 1 0 0 1-1.066.93 11 11 0 0 0-9.056 3.769 1 1 0 1 1-1.51-1.31A13 13 0 0 1 13.018 6.35a1 1 0 0 1 .93 1.065z"/>
    <path d="M11.492 12.866a1 1 0 0 1-.353-1.37 7 7 0 0 0-.47-7.811 1 1 0 0 1 1.59-1.216 9 9 0 0 1 .602 10.045 1 1 0 0 1-1.37.352zm3.5 3.116a1 1 0 0 1-.273-1.387 10.999 10.999 0 0 0 1.264-9.727 1 1 0 1 1 1.89-.654A13 13 0 0 1 16.38 15.71a1 1 0 0 1-1.388.272z"/>
  </g>
  <defs>
    <clipPath id="clip0">
      <path fill="#fff" d="M0 0h24v24H0z"/>
    </clipPath>
  </defs>
</svg>
