<svg fill="none" stroke="currentColor" viewBox="0 0 24 24">
  <path fill="#1F2937" fill-rule="evenodd" d="M14.2 7.392a1 1 0 0 1 1.4-.2 6 6 0 0 1 0 9.6 1 1 0 1 1-1.2-1.6 4 4 0 0 0 0-6.4 1 1 0 0 1-.2-1.4z" clip-rule="evenodd"/>
  <path fill="#1F2937" fill-rule="evenodd" d="M16.922 4.364a1 1 0 0 1 1.406-.15 10 10 0 0 1 0 15.556 1 1 0 1 1-1.257-1.555 8 8 0 0 0 0-12.445 1 1 0 0 1-.149-1.406zM10 5.475 6.79 9.603a1 1 0 0 1-.79.386H4v4h2a1 1 0 0 1 .79.386L10 18.503V5.475zm-.468-2.287A1.8 1.8 0 0 1 12 5.056v13.865a1.8 1.8 0 0 1-3.335 1.123l-3.154-4.055H4a2 2 0 0 1-2-2v-4a2 2 0 0 1 2-2h1.51l3.155-4.055a1.8 1.8 0 0 1 .867-.746z" clip-rule="evenodd"/>
</svg>
