<svg fill="none" stroke="currentColor" viewBox="0 0 24 24">
  <path fill="#1F2937" fill-rule="evenodd" d="M10 5.475 6.79 9.603a1 1 0 0 1-.79.386H4v4h2a1 1 0 0 1 .79.386L10 18.503V5.475zm-.468-2.287A1.8 1.8 0 0 1 12 5.056v13.865a1.8 1.8 0 0 1-3.335 1.123l-3.154-4.055H4a2 2 0 0 1-2-2v-4a2 2 0 0 1 2-2h1.51l3.155-4.055a1.8 1.8 0 0 1 .867-.746zM15.293 9.3a1 1 0 0 1 1.414 0L18 10.593 19.293 9.3a1 1 0 1 1 1.414 1.415l-1.293 1.293 1.293 1.293a1 1 0 0 1-1.414 1.414L18 13.422l-1.293 1.293a1 1 0 0 1-1.414-1.415l1.293-1.292-1.293-1.293a1 1 0 0 1 0-1.415z" clip-rule="evenodd"/>
</svg>
