<svg fill="none" stroke="currentColor" viewBox="0 0 24 24">
  <path fill="#1F2937" fill-rule="evenodd" d="M17.293 2.293a1 1 0 0 1 1.414 0l3 3a1 1 0 0 1 0 1.414l-15 15a1 1 0 0 1-1.414 0l-3-3a1 1 0 0 1 0-1.414l15-15zM4.414 18 6 19.586 19.586 6 18 4.414 4.414 18z" clip-rule="evenodd"/>
  <path fill="#1F2937" fill-rule="evenodd" d="M14.293 5.293a1 1 0 0 1 1.414 0l3 3a1 1 0 0 1-1.414 1.414l-3-3a1 1 0 0 1 0-1.414zM9 2a1 1 0 0 1 1 1 1 1 0 0 0 1 1 1 1 0 1 1 0 2 1 1 0 0 0-1 1 1 1 0 0 1-2 0 1 1 0 0 0-1-1 1 1 0 0 1 0-2 1 1 0 0 0 1-1 1 1 0 0 1 1-1zM19 12.007a1 1 0 0 1 1 1 1 1 0 0 0 1 1 1 1 0 0 1 0 2 1 1 0 0 0-1 1 1 1 0 1 1-2 0 1 1 0 0 0-1-1 1 1 0 1 1 0-2 1 1 0 0 0 1-1 1 1 0 0 1 1-1z" clip-rule="evenodd"/>
</svg>
