<svg fill="none" stroke="currentColor" viewBox="0 0 24 24">
  <g fill="#1F2937" fill-rule="evenodd" clip-path="url(#clip0)" clip-rule="evenodd">
    <path d="M11.294 18.708a1.003 1.003 0 0 1 0-1.416l.007-.007a.997.997 0 0 1 1.412 0c.39.39.39 1.025 0 1.416l-.007.007a.997.997 0 0 1-1.412 0zM8.464 15.871a1 1 0 0 1 0-1.414 5 5 0 0 1 7.072 0 1 1 0 0 1-1.415 1.414 3 3 0 0 0-4.242 0 1 1 0 0 1-1.415 0z"/>
    <path d="M5.636 13.059a1 1 0 0 1 0-1.414 9 9 0 0 1 12.728 0 1 1 0 0 1-1.414 1.414 7 7 0 0 0-9.9 0 1 1 0 0 1-1.414 0z"/>
    <path d="M2.807 10.223a1 1 0 0 1 0-1.414 13 13 0 0 1 18.385 0 1 1 0 0 1-1.414 1.414 11 11 0 0 0-15.556 0 1 1 0 0 1-1.415 0z"/>
  </g>
  <defs>
    <clipPath id="clip0">
      <path fill="#fff" d="M0 0h24v24H0z"/>
    </clipPath>
  </defs>
</svg>
