<svg fill="none" stroke="currentColor" viewBox="0 0 24 24">
  <path fill="#1F2937" fill-rule="evenodd" d="M12.982 2.047A3.5 3.5 0 1 1 13.492 9H5a1 1 0 1 1 0-2h8.52a1.5 1.5 0 1 0-1.405-1.944 1 1 0 1 1-1.91-.592 3.5 3.5 0 0 1 2.777-2.417zM19.312 13.209a1.5 1.5 0 0 0-.793-.21L18.5 13H3a1 1 0 1 1 0-2h15.491a3.499 3.499 0 1 1-3.286 4.536 1 1 0 1 1 1.91-.592 1.5 1.5 0 1 0 2.197-1.735z" clip-rule="evenodd"/>
  <path fill="#1F2937" fill-rule="evenodd" d="M10.312 17.194a1.5 1.5 0 0 0-.793-.21l-.019.001H4a1 1 0 1 1 0-2h5.491a3.499 3.499 0 0 1 1.392 6.735 3.5 3.5 0 0 1-4.678-2.199 1 1 0 1 1 1.91-.592 1.5 1.5 0 1 0 2.197-1.735z" clip-rule="evenodd"/>
</svg>
