<svg fill="none" stroke="currentColor" viewBox="0 0 24 24">
  <path fill="#1F2937" fill-rule="evenodd" d="M12 4a8 8 0 1 0 0 16 8 8 0 0 0 0-16zM2 12C2 6.477 6.477 2 12 2s10 4.477 10 10-4.477 10-10 10S2 17.523 2 12z" clip-rule="evenodd"/>
  <path fill="#1F2937" fill-rule="evenodd" d="M8.11 3.61A5.5 5.5 0 0 1 12 2a1 1 0 1 1 0 2 3.5 3.5 0 1 0 0 7 5.5 5.5 0 0 1 0 11 1 1 0 1 1 0-2 3.5 3.5 0 0 0 0-7 5.5 5.5 0 0 1-3.89-9.39z" clip-rule="evenodd"/>
  <path fill="#1F2937" d="M12 8.007a.5.5 0 1 0 0-1 .5.5 0 0 0 0 1z"/>
  <path fill="#1F2937" fill-rule="evenodd" d="M12 8.007a.5.5 0 1 0 0-1 .5.5 0 0 0 0 1zm-1.5-.5a1.5 1.5 0 1 1 3 0 1.5 1.5 0 0 1-3 0z" clip-rule="evenodd"/>
  <path fill="#1F2937" d="M12 17.007a.5.5 0 1 0 0-1 .5.5 0 0 0 0 1z"/>
  <path fill="#1F2937" fill-rule="evenodd" d="M12 17.007a.5.5 0 1 0 0-1 .5.5 0 0 0 0 1zm-1.5-.5a1.5 1.5 0 1 1 3 0 1.5 1.5 0 0 1-3 0z" clip-rule="evenodd"/>
</svg>
