<svg width="24" height="24" viewBox="0 0 24 24" fill="none" xmlns="http://www.w3.org/2000/svg">
<path fill-rule="evenodd" clip-rule="evenodd" d="M12 4C7.58172 4 4 7.58172 4 12C4 16.4183 7.58172 20 12 20C16.4183 20 20 16.4183 20 12C20 7.58172 16.4183 4 12 4ZM2 12C2 6.47715 6.47715 2 12 2C17.5228 2 22 6.47715 22 12C22 17.5228 17.5228 22 12 22C6.47715 22 2 17.5228 2 12Z" fill="#1F2937"/>
<path fill-rule="evenodd" clip-rule="evenodd" d="M8.0511 10.1838C8.22575 9.65986 8.79207 9.3767 9.31601 9.55134L11.9998 10.4459L14.6836 9.55134C15.2075 9.3767 15.7738 9.65986 15.9485 10.1838C16.1231 10.7077 15.84 11.2741 15.316 11.4487L12.9998 12.2208V13.1973L14.8318 15.9453C15.1382 16.4049 15.014 17.0257 14.5545 17.3321C14.095 17.6384 13.4741 17.5143 13.1677 17.0547L11.9998 15.3028L10.8318 17.0547C10.5255 17.5143 9.90461 17.6384 9.44508 17.3321C8.98555 17.0257 8.86138 16.4049 9.16773 15.9453L10.9998 13.1973V12.2208L8.68356 11.4487C8.15961 11.2741 7.87645 10.7077 8.0511 10.1838Z" fill="#1F2937"/>
<path fill-rule="evenodd" clip-rule="evenodd" d="M10.5 7.49622C10.5 6.66779 11.1716 5.99622 12 5.99622C12.8284 5.99622 13.5 6.66779 13.5 7.49622C13.5 8.32464 12.8284 8.99622 12 8.99622C11.1716 8.99622 10.5 8.32464 10.5 7.49622Z" fill="#1F2937"/>
</svg>
