<svg width="24" height="24" viewBox="0 0 24 24" fill="none" xmlns="http://www.w3.org/2000/svg">
<path fill-rule="evenodd" clip-rule="evenodd" d="M12 8C12.5523 8 13 8.44772 13 9V11C13 11.5523 12.5523 12 12 12C11.4477 12 11 11.5523 11 11V9C11 8.44772 11.4477 8 12 8ZM12 14C12.5523 14 13 14.4477 13 15V15.01C13 15.5623 12.5523 16.01 12 16.01C11.4477 16.01 11 15.5623 11 15.01V15C11 14.4477 11.4477 14 12 14Z" fill="#1F2937"/>
<path fill-rule="evenodd" clip-rule="evenodd" d="M10.4764 2.38068C10.9381 2.10851 11.4642 1.96497 12.0001 1.96497C12.5359 1.96497 13.0621 2.10851 13.5237 2.38068C13.9831 2.65156 14.362 3.04 14.6214 3.50596L21.6183 15.7506C21.6404 15.7892 21.6598 15.8292 21.6765 15.8704C21.8566 16.3138 21.928 16.7938 21.8848 17.2704C21.8416 17.7469 21.685 18.2063 21.4281 18.61C21.1711 19.0137 20.8214 19.3501 20.408 19.5911C19.9945 19.8321 19.5294 19.9708 19.0515 19.9954C19.0344 19.9963 19.0172 19.9967 19.0001 19.9967H5.07005C5.05857 19.9967 5.04714 19.9965 5.03575 19.9961C5.00696 19.9971 4.97788 19.9969 4.94857 19.9954C4.47066 19.9708 4.00558 19.8321 3.59216 19.5911C3.17873 19.3501 2.82896 19.0137 2.57204 18.61C2.31513 18.2063 2.15852 17.7469 2.11529 17.2704C2.07207 16.7938 2.14348 16.3138 2.32357 15.8704C2.3403 15.8292 2.35975 15.7892 2.38181 15.7506L9.37874 3.50596C9.63808 3.04 10.017 2.65156 10.4764 2.38068ZM5.03767 17.9972C5.04842 17.9969 5.05922 17.9967 5.07005 17.9967H18.9699C19.1217 17.9856 19.2691 17.94 19.4007 17.8633C19.5385 17.783 19.6551 17.6708 19.7407 17.5362C19.8264 17.4017 19.8786 17.2486 19.893 17.0897C19.9057 16.9492 19.8886 16.8079 19.843 16.6749L12.875 4.48089C12.7885 4.32459 12.6618 4.19426 12.5079 4.10354C12.3541 4.01281 12.1787 3.96497 12.0001 3.96497C11.8214 3.96497 11.6461 4.01281 11.4922 4.10354C11.3383 4.19426 11.2115 4.32454 11.1251 4.48084L11.1184 4.49291L4.15714 16.6749C4.11151 16.8079 4.09438 16.9492 4.10712 17.0897C4.12152 17.2486 4.17373 17.4017 4.25937 17.5362C4.34501 17.6708 4.4616 17.783 4.5994 17.8633C4.73321 17.9413 4.88324 17.9871 5.03767 17.9972Z" fill="#1F2937"/>
</svg>
