<svg width="24" height="24" viewBox="0 0 24 24" fill="none" xmlns="http://www.w3.org/2000/svg">
<path fill-rule="evenodd" clip-rule="evenodd" d="M12 4C7.58172 4 4 7.58172 4 12C4 16.4183 7.58172 20 12 20C16.4183 20 20 16.4183 20 12C20 7.58172 16.4183 4 12 4ZM2 12C2 6.47715 6.47715 2 12 2C17.5228 2 22 6.47715 22 12C22 17.5228 17.5228 22 12 22C6.47715 22 2 17.5228 2 12Z" fill="#1F2937"/>
<path fill-rule="evenodd" clip-rule="evenodd" d="M12 7.00378C12.5523 7.00378 13 7.4515 13 8.00378V12.0038C13 12.5561 12.5523 13.0038 12 13.0038C11.4477 13.0038 11 12.5561 11 12.0038V8.00378C11 7.4515 11.4477 7.00378 12 7.00378Z" fill="#1F2937"/>
<path fill-rule="evenodd" clip-rule="evenodd" d="M11 15.9962C11 15.4439 11.4477 14.9962 12 14.9962H12.01C12.5623 14.9962 13.01 15.4439 13.01 15.9962C13.01 16.5485 12.5623 16.9962 12.01 16.9962H12C11.4477 16.9962 11 16.5485 11 15.9962Z" fill="#1F2937"/>
</svg>
