<svg width="24" height="24" viewBox="0 0 24 24" fill="none" xmlns="http://www.w3.org/2000/svg">
<path fill-rule="evenodd" clip-rule="evenodd" d="M12 4C7.58172 4 4 7.58172 4 12C4 16.4183 7.58172 20 12 20C16.4183 20 20 16.4183 20 12C20 7.58172 16.4183 4 12 4ZM2 12C2 6.47715 6.47715 2 12 2C17.5228 2 22 6.47715 22 12C22 17.5228 17.5228 22 12 22C6.47715 22 2 17.5228 2 12Z" fill="#1F2937"/>
<path fill-rule="evenodd" clip-rule="evenodd" d="M2.6001 15C2.6001 14.4477 3.04781 14 3.6001 14H14.1501C14.7024 14 15.1501 14.4477 15.1501 15C15.1501 15.5523 14.7024 16 14.1501 16H3.6001C3.04781 16 2.6001 15.5523 2.6001 15Z" fill="#1F2937"/>
<path fill-rule="evenodd" clip-rule="evenodd" d="M6.24206 3.9942C6.76731 3.82353 7.33147 4.11098 7.50213 4.63624L10.7623 14.6699C10.9329 15.1951 10.6455 15.7593 10.1202 15.93C9.59497 16.1006 9.03081 15.8132 8.86015 15.2879L5.60002 5.25427C5.42935 4.72902 5.7168 4.16486 6.24206 3.9942Z" fill="#1F2937"/>
<path fill-rule="evenodd" clip-rule="evenodd" d="M17.8414 4.0412C18.166 4.48801 18.067 5.11338 17.6202 5.43801L9.08505 11.6391C8.63825 11.9638 8.01288 11.8647 7.68825 11.4179C7.36363 10.9711 7.46268 10.3457 7.90948 10.0211L16.4446 3.81997C16.8914 3.49535 17.5168 3.59439 17.8414 4.0412Z" fill="#1F2937"/>
<path fill-rule="evenodd" clip-rule="evenodd" d="M21.3681 15.0958C21.0434 15.5426 20.4181 15.6416 19.9713 15.317L11.4361 9.11586C10.9893 8.79124 10.8903 8.16587 11.2149 7.71906C11.5395 7.27225 12.1649 7.1732 12.6117 7.49783L21.1468 13.699C21.5936 14.0236 21.6927 14.649 21.3681 15.0958Z" fill="#1F2937"/>
<path fill-rule="evenodd" clip-rule="evenodd" d="M11.9484 21.8688C11.4231 21.6982 11.1357 21.134 11.3063 20.6088L14.5665 10.5751C14.7371 10.0499 15.3013 9.7624 15.8265 9.93307C16.3518 10.1037 16.6392 10.6679 16.4686 11.1931L13.2084 21.2268C13.0378 21.752 12.4736 22.0395 11.9484 21.8688Z" fill="#1F2937"/>
</svg>
