<svg width="24" height="24" viewBox="0 0 24 24" fill="none" xmlns="http://www.w3.org/2000/svg">
<path fill-rule="evenodd" clip-rule="evenodd" d="M15.5725 6.00644C15.9839 6.03513 16.7173 6.19786 17.4866 6.54806C18.2678 6.90372 19.1773 7.494 19.8248 8.43832C19.9846 8.67138 20.0383 8.96118 19.9727 9.23605C19.907 9.51091 19.7282 9.74518 19.4803 9.88091C19.3889 9.93095 19.2957 9.96844 19.1937 10.0095C18.97 10.0995 18.7036 10.2067 18.3199 10.5009C17.8434 10.8662 17.4945 11.3395 17.5 11.9942C17.5175 13.5671 18.7354 13.8967 19.2036 14.0234C19.2598 14.0386 19.3051 14.0509 19.3363 14.0621C19.7343 14.2042 20 14.5812 20 15.0038C20 16.343 19.2071 17.8154 18.3386 18.8844C17.8874 19.4398 17.3686 19.946 16.8322 20.3224C16.3207 20.6813 15.6774 21.0038 15 21.0038C14.1077 21.0038 13.5769 20.8481 13.1302 20.708C13.1184 20.7043 13.1068 20.7006 13.0953 20.697C12.7329 20.5832 12.4802 20.5038 12 20.5038C11.4682 20.5038 11.0882 20.5918 10.6694 20.703C10.6293 20.7137 10.5883 20.7247 10.5462 20.7361C10.1466 20.8439 9.65263 20.9771 9.04224 21.0029C9.02817 21.0035 9.01409 21.0038 9 21.0038C8.11938 21.0038 7.37897 20.5157 6.82414 19.9609C6.25494 19.3917 5.76025 18.6354 5.35557 17.826C4.55015 16.2152 4 14.1876 4 12.5038C4 11.1464 4.26748 9.57679 5.01307 8.30929C5.78855 6.99098 7.09161 6.00382 9 6.00382C9.80582 6.00382 10.5789 6.35996 11.0858 6.60016C11.1616 6.63611 11.2317 6.66973 11.2975 6.70124C11.4845 6.79093 11.6357 6.86343 11.7805 6.92318C11.8987 6.97194 11.9658 6.99135 11.9948 6.999C12.0243 6.99045 12.1013 6.96767 12.2457 6.90791C12.3834 6.85098 12.4971 6.79924 12.6288 6.73933C12.7494 6.68446 12.8851 6.62273 13.068 6.54388C13.6978 6.27239 14.5974 5.93222 15.5725 6.00644ZM13.0103 8.756C12.7679 8.85627 12.3881 9.00381 12 9.00381C11.6211 9.00381 11.2628 8.87313 11.0176 8.77195C10.8162 8.68883 10.5934 8.58194 10.3934 8.48594C10.3365 8.45863 10.2814 8.43221 10.2292 8.40747C9.68106 8.14767 9.29418 8.00382 9 8.00382C7.90839 8.00382 7.21145 8.51665 6.73693 9.32333C6.23252 10.1808 6 11.3613 6 12.5038C6 13.82 6.44985 15.5424 7.14443 16.9316C7.48975 17.6222 7.87006 18.1784 8.23836 18.5467C8.60573 18.9141 8.85966 18.9973 8.98501 19.0034C9.35163 18.9849 9.63772 18.9084 10.0431 18.8001C10.0796 18.7904 10.1172 18.7803 10.1559 18.7701C10.6348 18.6428 11.2108 18.5038 12 18.5038C12.788 18.5038 13.2782 18.6579 13.685 18.7859C13.6997 18.7905 13.7143 18.7951 13.7288 18.7996C14.0791 18.9095 14.3923 19.0038 15 19.0038C15.0726 19.0038 15.3043 18.9513 15.6834 18.6852C16.0377 18.4366 16.4251 18.0678 16.7864 17.6232C17.3139 16.974 17.6958 16.2778 17.8787 15.6918C16.946 15.2671 15.524 14.2394 15.5001 12.0146L15.5 12.0126C15.4868 10.4976 16.3459 9.49421 17.1029 8.91374C17.1774 8.85664 17.2552 8.80117 17.3344 8.74782C17.1183 8.59937 16.8889 8.47345 16.6579 8.36832C16.0735 8.10229 15.5715 8.0109 15.4328 8.00155L15.4228 8.00088L15.4228 8.00083C14.9668 7.96551 14.4532 8.12468 13.8597 8.3805C13.7638 8.42186 13.6401 8.47751 13.5117 8.53529C13.3329 8.61573 13.145 8.70026 13.0103 8.756Z" fill="#1F2937"/>
<path fill-rule="evenodd" clip-rule="evenodd" d="M11.8787 1.88234C12.4413 1.31973 13.2044 1.00366 14 1.00366C14.2652 1.00366 14.5196 1.10902 14.7071 1.29656C14.8946 1.48409 15 1.73845 15 2.00366C15 2.79931 14.6839 3.56237 14.1213 4.12498C13.5587 4.68759 12.7956 5.00366 12 5.00366C11.4477 5.00366 11 4.55595 11 4.00366C11 3.20801 11.3161 2.44495 11.8787 1.88234Z" fill="#1F2937"/>
</svg>
