<svg width="24" height="24" viewBox="0 0 24 24" fill="none" xmlns="http://www.w3.org/2000/svg">
<path fill-rule="evenodd" clip-rule="evenodd" d="M3 4.99634C3 3.89177 3.89543 2.99634 5 2.99634H9C10.1046 2.99634 11 3.89177 11 4.99634V8.99634C11 10.1009 10.1046 10.9963 9 10.9963H5C3.89543 10.9963 3 10.1009 3 8.99634V4.99634ZM9 4.99634H5V8.99634H9V4.99634Z" fill="#1F2937"/>
<path fill-rule="evenodd" clip-rule="evenodd" d="M3 15.0037C3 13.8991 3.89543 13.0037 5 13.0037H9C10.1046 13.0037 11 13.8991 11 15.0037V19.0037C11 20.1082 10.1046 21.0037 9 21.0037H5C3.89543 21.0037 3 20.1082 3 19.0037V15.0037ZM9 15.0037H5V19.0037H9V15.0037Z" fill="#1F2937"/>
<path fill-rule="evenodd" clip-rule="evenodd" d="M13 15.0037C13 13.8991 13.8954 13.0037 15 13.0037H19C20.1046 13.0037 21 13.8991 21 15.0037V19.0037C21 20.1082 20.1046 21.0037 19 21.0037H15C13.8954 21.0037 13 20.1082 13 19.0037V15.0037ZM19 15.0037H15V19.0037H19V15.0037Z" fill="#1F2937"/>
<path fill-rule="evenodd" clip-rule="evenodd" d="M13 6.99634C13 6.44405 13.4477 5.99634 14 5.99634H20C20.5523 5.99634 21 6.44405 21 6.99634C21 7.54862 20.5523 7.99634 20 7.99634H14C13.4477 7.99634 13 7.54862 13 6.99634Z" fill="#1F2937"/>
<path fill-rule="evenodd" clip-rule="evenodd" d="M17 2.99634C17.5523 2.99634 18 3.44405 18 3.99634V9.99634C18 10.5486 17.5523 10.9963 17 10.9963C16.4477 10.9963 16 10.5486 16 9.99634V3.99634C16 3.44405 16.4477 2.99634 17 2.99634Z" fill="#1F2937"/>
</svg>
