<svg width="24" height="24" viewBox="0 0 24 24" fill="none" xmlns="http://www.w3.org/2000/svg">
<path fill-rule="evenodd" clip-rule="evenodd" d="M5 4.99622C4.44772 4.99622 4 5.44393 4 5.99622C4 6.5485 4.44772 6.99622 5 6.99622H19C19.5523 6.99622 20 6.5485 20 5.99622C20 5.44393 19.5523 4.99622 19 4.99622H5ZM2 5.99622C2 4.33936 3.34315 2.99622 5 2.99622H19C20.6569 2.99622 22 4.33936 22 5.99622C22 7.65307 20.6569 8.99622 19 8.99622H5C3.34315 8.99622 2 7.65307 2 5.99622Z" fill="#1F2937"/>
<path fill-rule="evenodd" clip-rule="evenodd" d="M5 7.00378C5.55228 7.00378 6 7.4515 6 8.00378V18.0038C6 18.269 6.10536 18.5234 6.29289 18.7109C6.48043 18.8984 6.73478 19.0038 7 19.0038H17C17.2652 19.0038 17.5196 18.8984 17.7071 18.7109C17.8946 18.5234 18 18.269 18 18.0038V8.00378C18 7.4515 18.4477 7.00378 19 7.00378C19.5523 7.00378 20 7.4515 20 8.00378V18.0038C20 18.7994 19.6839 19.5625 19.1213 20.1251C18.5587 20.6877 17.7957 21.0038 17 21.0038H7C6.20435 21.0038 5.44129 20.6877 4.87868 20.1251C4.31607 19.5625 4 18.7994 4 18.0038V8.00378C4 7.4515 4.44772 7.00378 5 7.00378Z" fill="#1F2937"/>
<path fill-rule="evenodd" clip-rule="evenodd" d="M9 12C9 11.4477 9.44772 11 10 11H14C14.5523 11 15 11.4477 15 12C15 12.5523 14.5523 13 14 13H10C9.44772 13 9 12.5523 9 12Z" fill="#1F2937"/>
</svg>
