<svg width="24" height="24" viewBox="0 0 24 24" fill="none" xmlns="http://www.w3.org/2000/svg">
<path fill-rule="evenodd" clip-rule="evenodd" d="M14 6.99622C14 6.44393 14.4477 5.99622 15 5.99622H16C17.3261 5.99622 18.5979 6.523 19.5355 7.46068C20.4732 8.39836 21 9.67013 21 10.9962C21 12.3223 20.4732 13.5941 19.5355 14.5317C18.5979 15.4694 17.3261 15.9962 16 15.9962H7.41421L9.70711 18.2891C10.0976 18.6796 10.0976 19.3128 9.70711 19.7033C9.31658 20.0938 8.68342 20.0938 8.29289 19.7033L4.29289 15.7033C3.90237 15.3128 3.90237 14.6796 4.29289 14.2891L8.29289 10.2891C8.68342 9.89859 9.31658 9.89859 9.70711 10.2891C10.0976 10.6796 10.0976 11.3128 9.70711 11.7033L7.41421 13.9962H16C16.7956 13.9962 17.5587 13.6801 18.1213 13.1175C18.6839 12.5549 19 11.7919 19 10.9962C19 10.2006 18.6839 9.4375 18.1213 8.8749C17.5587 8.31229 16.7956 7.99622 16 7.99622H15C14.4477 7.99622 14 7.5485 14 6.99622Z" fill="#1F2937"/>
</svg>
