<svg width="24" height="24" viewBox="0 0 24 24" fill="none" xmlns="http://www.w3.org/2000/svg">
<path fill-rule="evenodd" clip-rule="evenodd" d="M20 14.9962C20.5523 14.9962 21 15.4439 21 15.9962V19.9962C21 20.5485 20.5523 20.9962 20 20.9962H16C15.4477 20.9962 15 20.5485 15 19.9962C15 19.4439 15.4477 18.9962 16 18.9962H19V15.9962C19 15.4439 19.4477 14.9962 20 14.9962Z" fill="#1F2937"/>
<path fill-rule="evenodd" clip-rule="evenodd" d="M13.2929 13.2967C13.6834 12.9062 14.3166 12.9062 14.7071 13.2967L20.7071 19.2967C21.0976 19.6872 21.0976 20.3204 20.7071 20.7109C20.3166 21.1014 19.6834 21.1014 19.2929 20.7109L13.2929 14.7109C12.9024 14.3204 12.9024 13.6872 13.2929 13.2967Z" fill="#1F2937"/>
<path fill-rule="evenodd" clip-rule="evenodd" d="M3 3.99622C3 3.44393 3.44772 2.99622 4 2.99622H8C8.55228 2.99622 9 3.44393 9 3.99622C9 4.5485 8.55228 4.99622 8 4.99622H5V7.99622C5 8.5485 4.55228 8.99622 4 8.99622C3.44772 8.99622 3 8.5485 3 7.99622V3.99622Z" fill="#1F2937"/>
<path fill-rule="evenodd" clip-rule="evenodd" d="M3.29289 3.28911C3.68342 2.89858 4.31658 2.89858 4.70711 3.28911L10.7071 9.28911C11.0976 9.67963 11.0976 10.3128 10.7071 10.7033C10.3166 11.0938 9.68342 11.0938 9.29289 10.7033L3.29289 4.70332C2.90237 4.3128 2.90237 3.67963 3.29289 3.28911Z" fill="#1F2937"/>
</svg>
