<svg width="24" height="24" viewBox="0 0 24 24" fill="none" xmlns="http://www.w3.org/2000/svg">
<path fill-rule="evenodd" clip-rule="evenodd" d="M12 4C7.58172 4 4 7.58172 4 12C4 16.4183 7.58172 20 12 20C16.4183 20 20 16.4183 20 12C20 7.58172 16.4183 4 12 4ZM2 12C2 6.47715 6.47715 2 12 2C17.5228 2 22 6.47715 22 12C22 17.5228 17.5228 22 12 22C6.47715 22 2 17.5228 2 12Z" fill="#1F2937"/>
<path fill-rule="evenodd" clip-rule="evenodd" d="M7 12C7 11.4477 7.44772 11 8 11H16C16.5523 11 17 11.4477 17 12C17 12.5523 16.5523 13 16 13H8C7.44772 13 7 12.5523 7 12Z" fill="#1F2937"/>
<path fill-rule="evenodd" clip-rule="evenodd" d="M16.7071 11.2929C17.0976 11.6834 17.0976 12.3166 16.7071 12.7071L12.7071 16.7071C12.3166 17.0976 11.6834 17.0976 11.2929 16.7071C10.9024 16.3166 10.9024 15.6834 11.2929 15.2929L15.2929 11.2929C15.6834 10.9024 16.3166 10.9024 16.7071 11.2929Z" fill="#1F2937"/>
<path fill-rule="evenodd" clip-rule="evenodd" d="M11.2929 7.29668C11.6834 6.90615 12.3166 6.90615 12.7071 7.29668L16.7071 11.2967C17.0976 11.6872 17.0976 12.3204 16.7071 12.7109C16.3166 13.1014 15.6834 13.1014 15.2929 12.7109L11.2929 8.71089C10.9024 8.32037 10.9024 7.6872 11.2929 7.29668Z" fill="#1F2937"/>
</svg>
