<svg width="24" height="24" viewBox="0 0 24 24" fill="none" xmlns="http://www.w3.org/2000/svg">
<path fill-rule="evenodd" clip-rule="evenodd" d="M6.29289 6.28911C6.68342 5.89858 7.31658 5.89858 7.70711 6.28911L17.7071 16.2891C18.0976 16.6796 18.0976 17.3128 17.7071 17.7033C17.3166 18.0938 16.6834 18.0938 16.2929 17.7033L6.29289 7.70332C5.90237 7.3128 5.90237 6.67963 6.29289 6.28911Z" fill="#1F2937"/>
<path fill-rule="evenodd" clip-rule="evenodd" d="M6 6.99622C6 6.44393 6.44772 5.99622 7 5.99622H16C16.5523 5.99622 17 6.44393 17 6.99622C17 7.5485 16.5523 7.99622 16 7.99622H8V15.9962C8 16.5485 7.55228 16.9962 7 16.9962C6.44772 16.9962 6 16.5485 6 15.9962V6.99622Z" fill="#1F2937"/>
</svg>
