<svg width="24" height="24" viewBox="0 0 24 24" fill="none" xmlns="http://www.w3.org/2000/svg">
<path fill-rule="evenodd" clip-rule="evenodd" d="M15 3.99622C15 3.44393 15.4477 2.99622 16 2.99622H20C20.5523 2.99622 21 3.44393 21 3.99622V7.99622C21 8.5485 20.5523 8.99622 20 8.99622C19.4477 8.99622 19 8.5485 19 7.99622V4.99622H16C15.4477 4.99622 15 4.5485 15 3.99622Z" fill="#1F2937"/>
<path fill-rule="evenodd" clip-rule="evenodd" d="M20.7071 3.28911C21.0976 3.67963 21.0976 4.3128 20.7071 4.70332L14.7071 10.7033C14.3166 11.0938 13.6834 11.0938 13.2929 10.7033C12.9024 10.3128 12.9024 9.67963 13.2929 9.28911L19.2929 3.28911C19.6834 2.89858 20.3166 2.89858 20.7071 3.28911Z" fill="#1F2937"/>
<path fill-rule="evenodd" clip-rule="evenodd" d="M4 14.9962C4.55228 14.9962 5 15.4439 5 15.9962V18.9962H8C8.55228 18.9962 9 19.4439 9 19.9962C9 20.5485 8.55228 20.9962 8 20.9962H4C3.44772 20.9962 3 20.5485 3 19.9962V15.9962C3 15.4439 3.44772 14.9962 4 14.9962Z" fill="#1F2937"/>
<path fill-rule="evenodd" clip-rule="evenodd" d="M10.7071 13.2967C11.0976 13.6872 11.0976 14.3204 10.7071 14.7109L4.70711 20.7109C4.31658 21.1014 3.68342 21.1014 3.29289 20.7109C2.90237 20.3204 2.90237 19.6872 3.29289 19.2967L9.29289 13.2967C9.68342 12.9062 10.3166 12.9062 10.7071 13.2967Z" fill="#1F2937"/>
</svg>
