<svg width="24" height="24" viewBox="0 0 24 24" fill="none" xmlns="http://www.w3.org/2000/svg">
<path fill-rule="evenodd" clip-rule="evenodd" d="M12 4.00378C12.5523 4.00378 13 4.4515 13 5.00378V19.0038C13 19.5561 12.5523 20.0038 12 20.0038C11.4477 20.0038 11 19.5561 11 19.0038V5.00378C11 4.4515 11.4477 4.00378 12 4.00378Z" fill="#1F2937"/>
<path fill-rule="evenodd" clip-rule="evenodd" d="M11.2929 4.29668C11.6834 3.90615 12.3166 3.90615 12.7071 4.29668L16.7071 8.29668C17.0976 8.6872 17.0976 9.32037 16.7071 9.71089C16.3166 10.1014 15.6834 10.1014 15.2929 9.71089L11.2929 5.71089C10.9024 5.32037 10.9024 4.6872 11.2929 4.29668Z" fill="#1F2937"/>
<path fill-rule="evenodd" clip-rule="evenodd" d="M12.7071 4.29668C13.0976 4.6872 13.0976 5.32037 12.7071 5.71089L8.70711 9.71089C8.31658 10.1014 7.68342 10.1014 7.29289 9.71089C6.90237 9.32037 6.90237 8.6872 7.29289 8.29668L11.2929 4.29668C11.6834 3.90615 12.3166 3.90615 12.7071 4.29668Z" fill="#1F2937"/>
</svg>
