<svg width="24" height="24" viewBox="0 0 24 24" fill="none" xmlns="http://www.w3.org/2000/svg">
<path fill-rule="evenodd" clip-rule="evenodd" d="M12 4.00378C12.5523 4.00378 13 4.4515 13 5.00378V19.0038C13 19.5561 12.5523 20.0038 12 20.0038C11.4477 20.0038 11 19.5561 11 19.0038V5.00378C11 4.4515 11.4477 4.00378 12 4.00378Z" fill="#1F2937"/>
<path fill-rule="evenodd" clip-rule="evenodd" d="M16.7071 14.2929C17.0976 14.6834 17.0976 15.3166 16.7071 15.7071L12.7071 19.7071C12.3166 20.0976 11.6834 20.0976 11.2929 19.7071C10.9024 19.3166 10.9024 18.6834 11.2929 18.2929L15.2929 14.2929C15.6834 13.9024 16.3166 13.9024 16.7071 14.2929Z" fill="#1F2937"/>
<path fill-rule="evenodd" clip-rule="evenodd" d="M7.29289 14.2929C7.68342 13.9024 8.31658 13.9024 8.70711 14.2929L12.7071 18.2929C13.0976 18.6834 13.0976 19.3166 12.7071 19.7071C12.3166 20.0976 11.6834 20.0976 11.2929 19.7071L7.29289 15.7071C6.90237 15.3166 6.90237 14.6834 7.29289 14.2929Z" fill="#1F2937"/>
</svg>
