<svg width="24" height="24" viewBox="0 0 24 24" fill="none" xmlns="http://www.w3.org/2000/svg">
<path fill-rule="evenodd" clip-rule="evenodd" d="M8 7.99622C7.20435 7.99622 6.44129 8.31229 5.87868 8.8749C5.31607 9.4375 5 10.2006 5 10.9962C5 11.7919 5.31607 12.5549 5.87868 13.1175C6.44129 13.6801 7.20435 13.9962 8 13.9962H16.5858L14.2929 11.7033C13.9024 11.3128 13.9024 10.6796 14.2929 10.2891C14.6834 9.89859 15.3166 9.89859 15.7071 10.2891L19.7071 14.2891C20.0976 14.6796 20.0976 15.3128 19.7071 15.7033L15.7071 19.7033C15.3166 20.0938 14.6834 20.0938 14.2929 19.7033C13.9024 19.3128 13.9024 18.6796 14.2929 18.2891L16.5858 15.9962H8C6.67392 15.9962 5.40215 15.4694 4.46447 14.5317C3.52678 13.5941 3 12.3223 3 10.9962C3 9.67013 3.52678 8.39836 4.46447 7.46068C5.40215 6.523 6.67392 5.99622 8 5.99622H9C9.55228 5.99622 10 6.44393 10 6.99622C10 7.5485 9.55228 7.99622 9 7.99622H8Z" fill="#1F2937"/>
</svg>
