<svg width="24" height="24" viewBox="0 0 24 24" fill="none" xmlns="http://www.w3.org/2000/svg">
<path fill-rule="evenodd" clip-rule="evenodd" d="M6.29289 4.29668C6.68342 3.90615 7.31658 3.90615 7.70711 4.29668L11.7071 8.29668C12.0976 8.6872 12.0976 9.32037 11.7071 9.71089C11.3166 10.1014 10.6834 10.1014 10.2929 9.71089L8 7.418V19.0038C8 19.5561 7.55228 20.0038 7 20.0038C6.44772 20.0038 6 19.5561 6 19.0038V7.418L3.70711 9.71089C3.31658 10.1014 2.68342 10.1014 2.29289 9.71089C1.90237 9.32037 1.90237 8.6872 2.29289 8.29668L6.29289 4.29668Z" fill="#1F2937"/>
<path fill-rule="evenodd" clip-rule="evenodd" d="M17 4.00378C17.5523 4.00378 18 4.4515 18 5.00378V16.5896L20.2929 14.2967C20.6834 13.9062 21.3166 13.9062 21.7071 14.2967C22.0976 14.6872 22.0976 15.3204 21.7071 15.7109L17.7071 19.7109C17.3166 20.1014 16.6834 20.1014 16.2929 19.7109L12.2929 15.7109C11.9024 15.3204 11.9024 14.6872 12.2929 14.2967C12.6834 13.9062 13.3166 13.9062 13.7071 14.2967L16 16.5896V5.00378C16 4.4515 16.4477 4.00378 17 4.00378Z" fill="#1F2937"/>
</svg>
