<svg width="24" height="24" viewBox="0 0 24 24" fill="none" xmlns="http://www.w3.org/2000/svg">
<path fill-rule="evenodd" clip-rule="evenodd" d="M9 12C9 11.4477 9.44772 11 10 11H20C20.5523 11 21 11.4477 21 12C21 12.5523 20.5523 13 20 13H10C9.44772 13 9 12.5523 9 12Z" fill="#1F2937"/>
<path fill-rule="evenodd" clip-rule="evenodd" d="M20.7071 11.2929C21.0976 11.6834 21.0976 12.3166 20.7071 12.7071L16.7071 16.7071C16.3166 17.0976 15.6834 17.0976 15.2929 16.7071C14.9024 16.3166 14.9024 15.6834 15.2929 15.2929L19.2929 11.2929C19.6834 10.9024 20.3166 10.9024 20.7071 11.2929Z" fill="#1F2937"/>
<path fill-rule="evenodd" clip-rule="evenodd" d="M15.2929 7.29668C15.6834 6.90615 16.3166 6.90615 16.7071 7.29668L20.7071 11.2967C21.0976 11.6872 21.0976 12.3204 20.7071 12.7109C20.3166 13.1014 19.6834 13.1014 19.2929 12.7109L15.2929 8.71089C14.9024 8.32037 14.9024 7.6872 15.2929 7.29668Z" fill="#1F2937"/>
<path fill-rule="evenodd" clip-rule="evenodd" d="M4 2.99622C4.55228 2.99622 5 3.44393 5 3.99622V19.9962C5 20.5485 4.55228 20.9962 4 20.9962C3.44772 20.9962 3 20.5485 3 19.9962V3.99622C3 3.44393 3.44772 2.99622 4 2.99622Z" fill="#1F2937"/>
</svg>
