<svg width="24" height="24" viewBox="0 0 24 24" fill="none" xmlns="http://www.w3.org/2000/svg">
<path fill-rule="evenodd" clip-rule="evenodd" d="M17.7071 6.28911C18.0976 6.67963 18.0976 7.3128 17.7071 7.70332L7.70711 17.7033C7.31658 18.0938 6.68342 18.0938 6.29289 17.7033C5.90237 17.3128 5.90237 16.6796 6.29289 16.2891L16.2929 6.28911C16.6834 5.89858 17.3166 5.89858 17.7071 6.28911Z" fill="#1F2937"/>
<path fill-rule="evenodd" clip-rule="evenodd" d="M7 7.00378C7.55228 7.00378 8 7.4515 8 8.00378V16.0038H16C16.5523 16.0038 17 16.4515 17 17.0038C17 17.5561 16.5523 18.0038 16 18.0038H7C6.44772 18.0038 6 17.5561 6 17.0038V8.00378C6 7.4515 6.44772 7.00378 7 7.00378Z" fill="#1F2937"/>
</svg>
