<svg width="24" height="24" viewBox="0 0 24 24" fill="none" xmlns="http://www.w3.org/2000/svg">
<path fill-rule="evenodd" clip-rule="evenodd" d="M12 4.00378C12.5523 4.00378 13 4.4515 13 5.00378V19.0038C13 19.5561 12.5523 20.0038 12 20.0038C11.4477 20.0038 11 19.5561 11 19.0038V5.00378C11 4.4515 11.4477 4.00378 12 4.00378Z" fill="#1F2937"/>
<path fill-rule="evenodd" clip-rule="evenodd" d="M11.2929 4.29668C11.6834 3.90615 12.3166 3.90615 12.7071 4.29668L18.7071 10.2967C19.0976 10.6872 19.0976 11.3204 18.7071 11.7109C18.3166 12.1014 17.6834 12.1014 17.2929 11.7109L11.2929 5.71089C10.9024 5.32037 10.9024 4.6872 11.2929 4.29668Z" fill="#1F2937"/>
<path fill-rule="evenodd" clip-rule="evenodd" d="M12.7071 4.29668C13.0976 4.6872 13.0976 5.32037 12.7071 5.71089L6.70711 11.7109C6.31658 12.1014 5.68342 12.1014 5.29289 11.7109C4.90237 11.3204 4.90237 10.6872 5.29289 10.2967L11.2929 4.29668C11.6834 3.90615 12.3166 3.90615 12.7071 4.29668Z" fill="#1F2937"/>
</svg>
