<svg width="24" height="24" viewBox="0 0 24 24" fill="none" xmlns="http://www.w3.org/2000/svg">
<path fill-rule="evenodd" clip-rule="evenodd" d="M3 12C3 11.4477 3.44772 11 4 11H14C14.5523 11 15 11.4477 15 12C15 12.5523 14.5523 13 14 13H4C3.44772 13 3 12.5523 3 12Z" fill="#1F2937"/>
<path fill-rule="evenodd" clip-rule="evenodd" d="M3.29289 11.2929C3.68342 10.9024 4.31658 10.9024 4.70711 11.2929L8.70711 15.2929C9.09763 15.6834 9.09763 16.3166 8.70711 16.7071C8.31658 17.0976 7.68342 17.0976 7.29289 16.7071L3.29289 12.7071C2.90237 12.3166 2.90237 11.6834 3.29289 11.2929Z" fill="#1F2937"/>
<path fill-rule="evenodd" clip-rule="evenodd" d="M8.70711 7.29668C9.09763 7.6872 9.09763 8.32037 8.70711 8.71089L4.70711 12.7109C4.31658 13.1014 3.68342 13.1014 3.29289 12.7109C2.90237 12.3204 2.90237 11.6872 3.29289 11.2967L7.29289 7.29668C7.68342 6.90615 8.31658 6.90615 8.70711 7.29668Z" fill="#1F2937"/>
<path fill-rule="evenodd" clip-rule="evenodd" d="M20 2.99622C20.5523 2.99622 21 3.44393 21 3.99622V19.9962C21 20.5485 20.5523 20.9962 20 20.9962C19.4477 20.9962 19 20.5485 19 19.9962V3.99622C19 3.44393 19.4477 2.99622 20 2.99622Z" fill="#1F2937"/>
</svg>
