<svg width="24" height="24" viewBox="0 0 24 24" fill="none" xmlns="http://www.w3.org/2000/svg">
<path fill-rule="evenodd" clip-rule="evenodd" d="M17.7071 6.28911C18.0976 6.67963 18.0976 7.3128 17.7071 7.70332L7.70711 17.7033C7.31658 18.0938 6.68342 18.0938 6.29289 17.7033C5.90237 17.3128 5.90237 16.6796 6.29289 16.2891L16.2929 6.28911C16.6834 5.89858 17.3166 5.89858 17.7071 6.28911Z" fill="#1F2937"/>
<path fill-rule="evenodd" clip-rule="evenodd" d="M7 6.99622C7 6.44393 7.44772 5.99622 8 5.99622H17C17.5523 5.99622 18 6.44393 18 6.99622V15.9962C18 16.5485 17.5523 16.9962 17 16.9962C16.4477 16.9962 16 16.5485 16 15.9962V7.99622H8C7.44772 7.99622 7 7.5485 7 6.99622Z" fill="#1F2937"/>
</svg>
