<svg width="24" height="24" viewBox="0 0 24 24" fill="none" xmlns="http://www.w3.org/2000/svg">
<path fill-rule="evenodd" clip-rule="evenodd" d="M9.70711 4.29668C10.0976 4.6872 10.0976 5.32037 9.70711 5.71089L7.41421 8.00378H16C17.3261 8.00378 18.5979 8.53057 19.5355 9.46825C20.4732 10.4059 21 11.6777 21 13.0038C21 14.3299 20.4732 15.6016 19.5355 16.5393C18.5979 17.477 17.3261 18.0038 16 18.0038H15C14.4477 18.0038 14 17.5561 14 17.0038C14 16.4515 14.4477 16.0038 15 16.0038H16C16.7956 16.0038 17.5587 15.6877 18.1213 15.1251C18.6839 14.5625 19 13.7994 19 13.0038C19 12.2081 18.6839 11.4451 18.1213 10.8825C17.5587 10.3199 16.7956 10.0038 16 10.0038H7.41421L9.70711 12.2967C10.0976 12.6872 10.0976 13.3204 9.70711 13.7109C9.31658 14.1014 8.68342 14.1014 8.29289 13.7109L4.29289 9.71089C3.90237 9.32037 3.90237 8.6872 4.29289 8.29668L8.29289 4.29668C8.68342 3.90615 9.31658 3.90615 9.70711 4.29668Z" fill="#1F2937"/>
</svg>
