<svg width="24" height="24" viewBox="0 0 24 24" fill="none" xmlns="http://www.w3.org/2000/svg">
<path fill-rule="evenodd" clip-rule="evenodd" d="M14.2929 4.29668C14.6834 3.90615 15.3166 3.90615 15.7071 4.29668L19.7071 8.29668C20.0976 8.6872 20.0976 9.32037 19.7071 9.71089L15.7071 13.7109C15.3166 14.1014 14.6834 14.1014 14.2929 13.7109C13.9024 13.3204 13.9024 12.6872 14.2929 12.2967L16.5858 10.0038H8C7.20435 10.0038 6.44129 10.3199 5.87868 10.8825C5.31607 11.4451 5 12.2081 5 13.0038C5 13.7994 5.31607 14.5625 5.87868 15.1251C6.44129 15.6877 7.20435 16.0038 8 16.0038H9C9.55228 16.0038 10 16.4515 10 17.0038C10 17.5561 9.55228 18.0038 9 18.0038H8C6.67392 18.0038 5.40215 17.477 4.46447 16.5393C3.52678 15.6016 3 14.3299 3 13.0038C3 11.6777 3.52678 10.4059 4.46447 9.46825C5.40215 8.53057 6.67392 8.00378 8 8.00378H16.5858L14.2929 5.71089C13.9024 5.32037 13.9024 4.6872 14.2929 4.29668Z" fill="#1F2937"/>
</svg>
