<svg width="24" height="24" viewBox="0 0 24 24" fill="none" xmlns="http://www.w3.org/2000/svg">
<path fill-rule="evenodd" clip-rule="evenodd" d="M12 8.99622C12.5523 8.99622 13 9.44393 13 9.99622V19.9962C13 20.5485 12.5523 20.9962 12 20.9962C11.4477 20.9962 11 20.5485 11 19.9962V9.99622C11 9.44393 11.4477 8.99622 12 8.99622Z" fill="#1F2937"/>
<path fill-rule="evenodd" clip-rule="evenodd" d="M16.7071 15.2891C17.0976 15.6796 17.0976 16.3128 16.7071 16.7033L12.7071 20.7033C12.3166 21.0938 11.6834 21.0938 11.2929 20.7033C10.9024 20.3128 10.9024 19.6796 11.2929 19.2891L15.2929 15.2891C15.6834 14.8986 16.3166 14.8986 16.7071 15.2891Z" fill="#1F2937"/>
<path fill-rule="evenodd" clip-rule="evenodd" d="M7.29289 15.2891C7.68342 14.8986 8.31658 14.8986 8.70711 15.2891L12.7071 19.2891C13.0976 19.6796 13.0976 20.3128 12.7071 20.7033C12.3166 21.0938 11.6834 21.0938 11.2929 20.7033L7.29289 16.7033C6.90237 16.3128 6.90237 15.6796 7.29289 15.2891Z" fill="#1F2937"/>
<path fill-rule="evenodd" clip-rule="evenodd" d="M3 3.99622C3 3.44393 3.44772 2.99622 4 2.99622H20C20.5523 2.99622 21 3.44393 21 3.99622C21 4.5485 20.5523 4.99622 20 4.99622H4C3.44772 4.99622 3 4.5485 3 3.99622Z" fill="#1F2937"/>
</svg>
