<svg width="24" height="24" viewBox="0 0 24 24" fill="none" xmlns="http://www.w3.org/2000/svg">
<path fill-rule="evenodd" clip-rule="evenodd" d="M12 4.00378C12.5523 4.00378 13 4.4515 13 5.00378V19.0038C13 19.5561 12.5523 20.0038 12 20.0038C11.4477 20.0038 11 19.5561 11 19.0038V5.00378C11 4.4515 11.4477 4.00378 12 4.00378Z" fill="#1F2937"/>
<path fill-rule="evenodd" clip-rule="evenodd" d="M18.7071 12.2891C19.0976 12.6796 19.0976 13.3128 18.7071 13.7033L12.7071 19.7033C12.3166 20.0938 11.6834 20.0938 11.2929 19.7033C10.9024 19.3128 10.9024 18.6796 11.2929 18.2891L17.2929 12.2891C17.6834 11.8986 18.3166 11.8986 18.7071 12.2891Z" fill="#1F2937"/>
<path fill-rule="evenodd" clip-rule="evenodd" d="M5.29289 12.2891C5.68342 11.8986 6.31658 11.8986 6.70711 12.2891L12.7071 18.2891C13.0976 18.6796 13.0976 19.3128 12.7071 19.7033C12.3166 20.0938 11.6834 20.0938 11.2929 19.7033L5.29289 13.7033C4.90237 13.3128 4.90237 12.6796 5.29289 12.2891Z" fill="#1F2937"/>
</svg>
