<svg width="24" height="24" viewBox="0 0 24 24" fill="none" xmlns="http://www.w3.org/2000/svg">
<path fill-rule="evenodd" clip-rule="evenodd" d="M6.29289 6.28911C6.68342 5.89858 7.31658 5.89858 7.70711 6.28911L17.7071 16.2891C18.0976 16.6796 18.0976 17.3128 17.7071 17.7033C17.3166 18.0938 16.6834 18.0938 16.2929 17.7033L6.29289 7.70332C5.90237 7.3128 5.90237 6.67963 6.29289 6.28911Z" fill="#1F2937"/>
<path fill-rule="evenodd" clip-rule="evenodd" d="M17 7.00378C17.5523 7.00378 18 7.4515 18 8.00378V17.0038C18 17.5561 17.5523 18.0038 17 18.0038H8C7.44772 18.0038 7 17.5561 7 17.0038C7 16.4515 7.44772 16.0038 8 16.0038H16V8.00378C16 7.4515 16.4477 7.00378 17 7.00378Z" fill="#1F2937"/>
</svg>
