<svg width="24" height="24" viewBox="0 0 24 24" fill="none" xmlns="http://www.w3.org/2000/svg">
<path fill-rule="evenodd" clip-rule="evenodd" d="M12 2.99622C12.5523 2.99622 13 3.44393 13 3.99622V13.9962C13 14.5485 12.5523 14.9962 12 14.9962C11.4477 14.9962 11 14.5485 11 13.9962V3.99622C11 3.44393 11.4477 2.99622 12 2.99622Z" fill="#1F2937"/>
<path fill-rule="evenodd" clip-rule="evenodd" d="M11.2929 3.28911C11.6834 2.89858 12.3166 2.89858 12.7071 3.28911L16.7071 7.28911C17.0976 7.67963 17.0976 8.3128 16.7071 8.70332C16.3166 9.09385 15.6834 9.09385 15.2929 8.70332L11.2929 4.70332C10.9024 4.3128 10.9024 3.67963 11.2929 3.28911Z" fill="#1F2937"/>
<path fill-rule="evenodd" clip-rule="evenodd" d="M12.7071 3.28911C13.0976 3.67963 13.0976 4.3128 12.7071 4.70332L8.70711 8.70332C8.31658 9.09385 7.68342 9.09385 7.29289 8.70332C6.90237 8.3128 6.90237 7.67963 7.29289 7.28911L11.2929 3.28911C11.6834 2.89858 12.3166 2.89858 12.7071 3.28911Z" fill="#1F2937"/>
<path fill-rule="evenodd" clip-rule="evenodd" d="M3 20.0038C3 19.4515 3.44772 19.0038 4 19.0038H20C20.5523 19.0038 21 19.4515 21 20.0038C21 20.5561 20.5523 21.0038 20 21.0038H4C3.44772 21.0038 3 20.5561 3 20.0038Z" fill="#1F2937"/>
</svg>
