<svg width="24" height="24" viewBox="0 0 24 24" fill="none" xmlns="http://www.w3.org/2000/svg">
<path fill-rule="evenodd" clip-rule="evenodd" d="M6 4.99622C5.73478 4.99622 5.48043 5.10157 5.29289 5.28911C5.10536 5.47664 5 5.731 5 5.99622V6.99622C5 7.5485 4.55228 7.99622 4 7.99622C3.44772 7.99622 3 7.5485 3 6.99622V5.99622C3 5.20057 3.31607 4.4375 3.87868 3.8749C4.44129 3.31229 5.20435 2.99622 6 2.99622H8C8.55228 2.99622 9 3.44393 9 3.99622C9 4.5485 8.55228 4.99622 8 4.99622H6Z" fill="#1F2937"/>
<path fill-rule="evenodd" clip-rule="evenodd" d="M4 16.0038C4.55228 16.0038 5 16.4515 5 17.0038V18.0038C5 18.269 5.10536 18.5234 5.29289 18.7109C5.48043 18.8984 5.73478 19.0038 6 19.0038H8C8.55228 19.0038 9 19.4515 9 20.0038C9 20.5561 8.55228 21.0038 8 21.0038H6C5.20435 21.0038 4.44129 20.6877 3.87868 20.1251C3.31607 19.5625 3 18.7994 3 18.0038V17.0038C3 16.4515 3.44772 16.0038 4 16.0038Z" fill="#1F2937"/>
<path fill-rule="evenodd" clip-rule="evenodd" d="M15 3.99622C15 3.44393 15.4477 2.99622 16 2.99622H18C18.7956 2.99622 19.5587 3.31229 20.1213 3.8749C20.6839 4.4375 21 5.20057 21 5.99622V6.99622C21 7.5485 20.5523 7.99622 20 7.99622C19.4477 7.99622 19 7.5485 19 6.99622V5.99622C19 5.731 18.8946 5.47665 18.7071 5.28911C18.5196 5.10157 18.2652 4.99622 18 4.99622H16C15.4477 4.99622 15 4.5485 15 3.99622Z" fill="#1F2937"/>
<path fill-rule="evenodd" clip-rule="evenodd" d="M20 16.0038C20.5523 16.0038 21 16.4515 21 17.0038V18.0038C21 18.7994 20.6839 19.5625 20.1213 20.1251C19.5587 20.6877 18.7957 21.0038 18 21.0038H16C15.4477 21.0038 15 20.5561 15 20.0038C15 19.4515 15.4477 19.0038 16 19.0038H18C18.2652 19.0038 18.5196 18.8984 18.7071 18.7109C18.8946 18.5234 19 18.269 19 18.0038V17.0038C19 16.4515 19.4477 16.0038 20 16.0038Z" fill="#1F2937"/>
<path fill-rule="evenodd" clip-rule="evenodd" d="M4 11.0038C4 10.4515 4.44772 10.0038 5 10.0038H6C6.55228 10.0038 7 10.4515 7 11.0038V13.0038C7 13.5561 6.55228 14.0038 6 14.0038H5C4.44772 14.0038 4 13.5561 4 13.0038V11.0038Z" fill="#1F2937"/>
<path fill-rule="evenodd" clip-rule="evenodd" d="M10 10.0038C10.5523 10.0038 11 10.4515 11 11.0038V13.0038C11 13.5561 10.5523 14.0038 10 14.0038C9.44772 14.0038 9 13.5561 9 13.0038V11.0038C9 10.4515 9.44772 10.0038 10 10.0038Z" fill="#1F2937"/>
<path fill-rule="evenodd" clip-rule="evenodd" d="M13 11.0038C13 10.4515 13.4477 10.0038 14 10.0038H15C15.5523 10.0038 16 10.4515 16 11.0038V13.0038C16 13.5561 15.5523 14.0038 15 14.0038H14C13.4477 14.0038 13 13.5561 13 13.0038V11.0038Z" fill="#1F2937"/>
<path fill-rule="evenodd" clip-rule="evenodd" d="M19 10.0038C19.5523 10.0038 20 10.4515 20 11.0038V13.0038C20 13.5561 19.5523 14.0038 19 14.0038C18.4477 14.0038 18 13.5561 18 13.0038V11.0038C18 10.4515 18.4477 10.0038 19 10.0038Z" fill="#1F2937"/>
</svg>
