<svg width="24" height="24" viewBox="0 0 24 24" fill="none" xmlns="http://www.w3.org/2000/svg">
<path fill-rule="evenodd" clip-rule="evenodd" d="M3 5.99622C3.55228 5.99622 4 6.44393 4 6.99622V12.9962H10V7.99622C10 7.44393 10.4477 6.99622 11 6.99622H19C19.7957 6.99622 20.5587 7.31229 21.1213 7.8749C21.6839 8.4375 22 9.20057 22 9.99622V17.9962C22 18.5485 21.5523 18.9962 21 18.9962C20.4477 18.9962 20 18.5485 20 17.9962V14.9962H4V17.9962C4 18.5485 3.55228 18.9962 3 18.9962C2.44772 18.9962 2 18.5485 2 17.9962V6.99622C2 6.44393 2.44772 5.99622 3 5.99622ZM12 12.9962H20V9.99622C20 9.731 19.8946 9.47665 19.7071 9.28911C19.5196 9.10157 19.2652 8.99622 19 8.99622H12V12.9962Z" fill="#1F2937"/>
<path fill-rule="evenodd" clip-rule="evenodd" d="M5 10C5 8.89543 5.89543 8 7 8C8.10457 8 9 8.89543 9 10C9 11.1046 8.10457 12 7 12C5.89543 12 5 11.1046 5 10Z" fill="#1F2937"/>
</svg>
