<svg width="24" height="24" viewBox="0 0 24 24" fill="none" xmlns="http://www.w3.org/2000/svg">
<path fill-rule="evenodd" clip-rule="evenodd" d="M11.5282 3.11454C11.8534 2.94052 12.248 2.9596 12.5548 3.16417L18.5548 7.16417C18.833 7.34963 19.0001 7.66186 19.0001 7.99622C19.0001 8.33057 18.833 8.6428 18.5548 8.82827L13.8029 11.9962L18.5548 15.1642C18.833 15.3496 19.0001 15.6619 19.0001 15.9962C19.0001 16.3306 18.833 16.6428 18.5548 16.8283L12.5548 20.8283C12.248 21.0328 11.8534 21.0519 11.5282 20.8779C11.2031 20.7039 11.0001 20.365 11.0001 19.9962V13.8647L6.55481 16.8283C6.09528 17.1346 5.47441 17.0104 5.16806 16.5509C4.8617 16.0914 4.98588 15.4705 5.44541 15.1642L10.1973 11.9962L5.44541 8.82827C4.98588 8.52191 4.8617 7.90105 5.16806 7.44152C5.47441 6.98199 6.09528 6.85781 6.55481 7.16417L11.0001 10.1277V3.99622C11.0001 3.62742 11.2031 3.28856 11.5282 3.11454ZM13.0001 13.8647L16.1973 15.9962L13.0001 18.1277V13.8647ZM13.0001 10.1277V5.86473L16.1973 7.99622L13.0001 10.1277Z" fill="#1F2937"/>
</svg>
