<svg width="24" height="24" viewBox="0 0 24 24" fill="none" xmlns="http://www.w3.org/2000/svg">
<path fill-rule="evenodd" clip-rule="evenodd" d="M13.3092 2.04896C13.7212 2.18291 14 2.56681 14 2.99995V8.99995H19C19.3761 8.99995 19.7204 9.211 19.8911 9.54617C20.0618 9.88134 20.03 10.2839 19.8087 10.5881L11.8087 21.5881C11.554 21.9384 11.1027 22.0849 10.6908 21.9509C10.2789 21.817 10 21.4331 10 20.9999V14.9999H5C4.62388 14.9999 4.27957 14.7889 4.10889 14.4537C3.93821 14.1186 3.97004 13.716 4.19127 13.4118L12.1913 2.41177C12.446 2.06148 12.8973 1.91502 13.3092 2.04896ZM6.96377 12.9999H11C11.5523 12.9999 12 13.4477 12 13.9999V17.9248L17.0362 10.9999H13C12.4477 10.9999 12 10.5522 12 9.99995V6.07513L6.96377 12.9999Z" fill="#1F2937"/>
</svg>
