<svg width="24" height="24" viewBox="0 0 24 24" fill="none" xmlns="http://www.w3.org/2000/svg">
<path fill-rule="evenodd" clip-rule="evenodd" d="M9 4.99622C8.73478 4.99622 8.48043 5.10157 8.29289 5.28911C8.10536 5.47664 8 5.731 8 5.99622V18.23L11.4855 16.1387C11.8022 15.9487 12.1978 15.9487 12.5145 16.1387L16 18.23V5.99622C16 5.731 15.8946 5.47665 15.7071 5.28911C15.5196 5.10157 15.2652 4.99622 15 4.99622H9ZM6.87868 3.8749C7.44129 3.31229 8.20435 2.99622 9 2.99622H15C15.7956 2.99622 16.5587 3.31229 17.1213 3.8749C17.6839 4.4375 18 5.20057 18 5.99622V19.9962C18 20.3565 17.8062 20.6889 17.4927 20.8664C17.1792 21.0439 16.7944 21.0391 16.4855 20.8537L12 18.1624L7.5145 20.8537C7.20556 21.0391 6.82081 21.0439 6.5073 20.8664C6.19379 20.6889 6 20.3565 6 19.9962V5.99622C6 5.20057 6.31607 4.4375 6.87868 3.8749Z" fill="#1F2937"/>
</svg>
