<svg width="24" height="24" viewBox="0 0 24 24" fill="none" xmlns="http://www.w3.org/2000/svg">
<path fill-rule="evenodd" clip-rule="evenodd" d="M7.49992 18.7891C6.09563 18.7891 4.71608 19.1587 3.49992 19.8609C3.02163 20.137 2.41004 19.9731 2.1339 19.4948C1.85776 19.0165 2.02163 18.4049 2.49992 18.1288C4.02012 17.2511 5.74456 16.7891 7.49992 16.7891C9.06551 16.7891 10.6065 17.1566 11.9999 17.8588C13.3933 17.1566 14.9343 16.7891 16.4999 16.7891C18.2553 16.7891 19.9797 17.2511 21.4999 18.1288C21.9782 18.4049 22.1421 19.0165 21.8659 19.4948C21.5898 19.9731 20.9782 20.137 20.4999 19.8609C19.2838 19.1587 17.9042 18.7891 16.4999 18.7891C15.0956 18.7891 13.7161 19.1587 12.4999 19.8609C12.1905 20.0395 11.8093 20.0395 11.4999 19.8609C10.2838 19.1587 8.90422 18.7891 7.49992 18.7891Z" fill="#1F2937"/>
<path fill-rule="evenodd" clip-rule="evenodd" d="M7.49992 5.79285C6.09563 5.79285 4.71608 6.1625 3.49992 6.86464C3.02163 7.14079 2.41004 6.97691 2.1339 6.49862C1.85776 6.02033 2.02163 5.40874 2.49992 5.13259C4.02011 4.25491 5.74456 3.79285 7.49992 3.79285C9.06551 3.79285 10.6065 4.1604 11.9999 4.86256C13.3933 4.1604 14.9343 3.79285 16.4999 3.79285C18.2553 3.79285 19.9797 4.25491 21.4999 5.13259C21.9782 5.40874 22.1421 6.02033 21.8659 6.49862C21.5898 6.97691 20.9782 7.14079 20.4999 6.86464C19.2838 6.1625 17.9042 5.79285 16.4999 5.79285C15.0956 5.79285 13.7161 6.1625 12.4999 6.86464C12.1905 7.04328 11.8093 7.04328 11.4999 6.86464C10.2838 6.1625 8.90422 5.79285 7.49992 5.79285Z" fill="#1F2937"/>
<path fill-rule="evenodd" clip-rule="evenodd" d="M3 5C3.55228 5 4 5.44772 4 6V19C4 19.5523 3.55228 20 3 20C2.44772 20 2 19.5523 2 19V6C2 5.44772 2.44772 5 3 5Z" fill="#1F2937"/>
<path fill-rule="evenodd" clip-rule="evenodd" d="M12 5C12.5523 5 13 5.44772 13 6V19C13 19.5523 12.5523 20 12 20C11.4477 20 11 19.5523 11 19V6C11 5.44772 11.4477 5 12 5Z" fill="#1F2937"/>
<path fill-rule="evenodd" clip-rule="evenodd" d="M21 5C21.5523 5 22 5.44772 22 6V19C22 19.5523 21.5523 20 21 20C20.4477 20 20 19.5523 20 19V6C20 5.44772 20.4477 5 21 5Z" fill="#1F2937"/>
</svg>
