<svg width="24" height="24" viewBox="0 0 24 24" fill="none" xmlns="http://www.w3.org/2000/svg">
<path fill-rule="evenodd" clip-rule="evenodd" d="M15.01 3.99622C15.01 3.44393 15.4577 2.99622 16.01 2.99622H16.0105C16.5628 2.99622 17.0105 3.44393 17.0105 3.99622C17.0105 4.5485 16.5628 4.99622 16.0105 4.99622H16.01C15.4577 4.99622 15.01 4.5485 15.01 3.99622ZM19.0095 3.99622C19.0095 3.44393 19.4572 2.99622 20.0095 2.99622H20.01C20.5623 2.99622 21.01 3.44393 21.01 3.99622V3.99671C21.01 4.549 20.5623 4.99671 20.01 4.99671C19.7348 4.99671 19.4856 4.88556 19.3048 4.70569C19.1224 4.52454 19.0095 4.27356 19.0095 3.99622ZM20.01 6.99571C20.5623 6.99571 21.01 7.44343 21.01 7.99572V7.99671C21.01 8.549 20.5623 8.99671 20.01 8.99671C19.4577 8.99671 19.01 8.549 19.01 7.99671V7.99572C19.01 7.44343 19.4577 6.99571 20.01 6.99571ZM20.01 10.9957C20.5623 10.9957 21.01 11.4434 21.01 11.9957V11.9967C21.01 12.549 20.5623 12.9967 20.01 12.9967C19.4577 12.9967 19.01 12.549 19.01 11.9967V11.9957C19.01 11.4434 19.4577 10.9957 20.01 10.9957ZM4.01001 14.9862C4.56229 14.9862 5.01001 15.4339 5.01001 15.9862V15.9867C5.01001 16.539 4.56229 16.9867 4.01001 16.9867C3.45772 16.9867 3.01001 16.539 3.01001 15.9867V15.9862C3.01001 15.4339 3.45772 14.9862 4.01001 14.9862ZM20.01 14.9957C20.5623 14.9957 21.01 15.4434 21.01 15.9957V15.9967C21.01 16.549 20.5623 16.9967 20.01 16.9967C19.4577 16.9967 19.01 16.549 19.01 15.9967V15.9957C19.01 15.4434 19.4577 14.9957 20.01 14.9957ZM4.71948 19.291C4.53834 19.1086 4.28736 18.9957 4.01001 18.9957C3.45772 18.9957 3.01001 19.4434 3.01001 19.9957V19.9962C3.01001 20.5485 3.45772 20.9962 4.01001 20.9962H4.01051C4.56279 20.9962 5.01051 20.5485 5.01051 19.9962C5.01051 19.721 4.89935 19.4718 4.71948 19.291ZM20.01 18.9957C20.5623 18.9957 21.01 19.4434 21.01 19.9957V19.9962C21.01 20.5485 20.5623 20.9962 20.01 20.9962H20.0095C19.4572 20.9962 19.0095 20.5485 19.0095 19.9962C19.0095 19.7199 19.1215 19.4698 19.3027 19.2889C19.4836 19.1077 19.7337 18.9957 20.01 18.9957ZM7.00951 19.9962C7.00951 19.4439 7.45723 18.9962 8.00951 18.9962H8.01051C8.56279 18.9962 9.01051 19.4439 9.01051 19.9962C9.01051 20.5485 8.56279 20.9962 8.01051 20.9962H8.00951C7.45723 20.9962 7.00951 20.5485 7.00951 19.9962ZM11.0095 19.9962C11.0095 19.4439 11.4572 18.9962 12.0095 18.9962H12.0105C12.5628 18.9962 13.0105 19.4439 13.0105 19.9962C13.0105 20.5485 12.5628 20.9962 12.0105 20.9962H12.0095C11.4572 20.9962 11.0095 20.5485 11.0095 19.9962ZM15.0095 19.9962C15.0095 19.4439 15.4572 18.9962 16.0095 18.9962H16.0105C16.5628 18.9962 17.0105 19.4439 17.0105 19.9962C17.0105 20.5485 16.5628 20.9962 16.0105 20.9962H16.0095C15.4572 20.9962 15.0095 20.5485 15.0095 19.9962Z" fill="#1F2937"/>
<path fill-rule="evenodd" clip-rule="evenodd" d="M8 4.99622C7.20435 4.99622 6.44129 5.31229 5.87868 5.8749C5.31607 6.4375 5 7.20057 5 7.99622V11.9962C5 12.5485 4.55228 12.9962 4 12.9962C3.44772 12.9962 3 12.5485 3 11.9962V7.99622C3 6.67013 3.52678 5.39836 4.46447 4.46068C5.40215 3.523 6.67392 2.99622 8 2.99622H12C12.5523 2.99622 13 3.44393 13 3.99622C13 4.5485 12.5523 4.99622 12 4.99622H8Z" fill="#1F2937"/>
</svg>
