<svg width="24" height="24" viewBox="0 0 24 24" fill="none" xmlns="http://www.w3.org/2000/svg">
<path fill-rule="evenodd" clip-rule="evenodd" d="M6 4.99628C5.44772 4.99628 5 5.44399 5 5.99628V17.9963C5 18.5486 5.44772 18.9963 6 18.9963H18C18.5523 18.9963 19 18.5486 19 17.9963V5.99628C19 5.44399 18.5523 4.99628 18 4.99628H6ZM3 5.99628C3 4.33942 4.34315 2.99628 6 2.99628H18C19.6569 2.99628 21 4.33942 21 5.99628V17.9963C21 19.6531 19.6569 20.9963 18 20.9963H6C4.34315 20.9963 3 19.6531 3 17.9963V5.99628Z" fill="#1F2937"/>
<path fill-rule="evenodd" clip-rule="evenodd" d="M3 12C3 11.4477 3.44772 11 4 11H20C20.5523 11 21 11.4477 21 12C21 12.5523 20.5523 13 20 13H4C3.44772 13 3 12.5523 3 12Z" fill="#1F2937"/>
<path fill-rule="evenodd" clip-rule="evenodd" d="M12 2.99628C12.5523 2.99628 13 3.44399 13 3.99628V19.9963C13 20.5486 12.5523 20.9963 12 20.9963C11.4477 20.9963 11 20.5486 11 19.9963V3.99628C11 3.44399 11.4477 2.99628 12 2.99628Z" fill="#1F2937"/>
</svg>
