<svg width="24" height="24" viewBox="0 0 24 24" fill="none" xmlns="http://www.w3.org/2000/svg">
<path fill-rule="evenodd" clip-rule="evenodd" d="M3 12C3 11.4477 3.44772 11 4 11H20C20.5523 11 21 11.4477 21 12C21 12.5523 20.5523 13 20 13H4C3.44772 13 3 12.5523 3 12Z" fill="#1F2937"/>
<path fill-rule="evenodd" clip-rule="evenodd" d="M12 2.99628C12.5523 2.99628 13 3.44399 13 3.99628V19.9963C13 20.5486 12.5523 20.9963 12 20.9963C11.4477 20.9963 11 20.5486 11 19.9963V3.99628C11 3.44399 11.4477 2.99628 12 2.99628Z" fill="#1F2937"/>
<path fill-rule="evenodd" clip-rule="evenodd" d="M3 3.99628C3 3.44399 3.44772 2.99628 4 2.99628H4.0005C4.55278 2.99628 5.0005 3.44399 5.0005 3.99628C5.0005 4.54856 4.55278 4.99628 4.0005 4.99628H4C3.44772 4.99628 3 4.54856 3 3.99628ZM6.9995 3.99628C6.9995 3.44399 7.44722 2.99628 7.9995 2.99628H8.0005C8.55278 2.99628 9.0005 3.44399 9.0005 3.99628C9.0005 4.54856 8.55278 4.99628 8.0005 4.99628H7.9995C7.44722 4.99628 6.9995 4.54856 6.9995 3.99628ZM10.9995 3.99628C10.9995 3.44399 11.4472 2.99628 11.9995 2.99628H12.0005C12.5528 2.99628 13.0005 3.44399 13.0005 3.99628C13.0005 4.54856 12.5528 4.99628 12.0005 4.99628H11.9995C11.4472 4.99628 10.9995 4.54856 10.9995 3.99628ZM14.9995 3.99628C14.9995 3.44399 15.4472 2.99628 15.9995 2.99628H16.0005C16.5528 2.99628 17.0005 3.44399 17.0005 3.99628C17.0005 4.54856 16.5528 4.99628 16.0005 4.99628H15.9995C15.4472 4.99628 14.9995 4.54856 14.9995 3.99628ZM18.9995 3.99628C18.9995 3.44399 19.4472 2.99628 19.9995 2.99628H20C20.5523 2.99628 21 3.44399 21 3.99628C21 4.54856 20.5523 4.99628 20 4.99628H19.9995C19.4472 4.99628 18.9995 4.54856 18.9995 3.99628Z" fill="#1F2937"/>
<path fill-rule="evenodd" clip-rule="evenodd" d="M4 2.99628C4.55228 2.99628 5 3.44399 5 3.99628V3.99678C5 4.54906 4.55228 4.99678 4 4.99678C3.44772 4.99678 3 4.54906 3 3.99678V3.99628C3 3.44399 3.44772 2.99628 4 2.99628ZM4 6.99578C4.55228 6.99578 5 7.44349 5 7.99578V7.99678C5 8.54906 4.55228 8.99678 4 8.99678C3.44772 8.99678 3 8.54906 3 7.99678V7.99578C3 7.44349 3.44772 6.99578 4 6.99578ZM4 10.9958C4.55228 10.9958 5 11.4435 5 11.9958V11.9968C5 12.5491 4.55228 12.9968 4 12.9968C3.44772 12.9968 3 12.5491 3 11.9968V11.9958C3 11.4435 3.44772 10.9958 4 10.9958ZM4 14.9958C4.55228 14.9958 5 15.4435 5 15.9958V15.9968C5 16.5491 4.55228 16.9968 4 16.9968C3.44772 16.9968 3 16.5491 3 15.9968V15.9958C3 15.4435 3.44772 14.9958 4 14.9958ZM4 18.9958C4.55228 18.9958 5 19.4435 5 19.9958V19.9963C5 20.5486 4.55228 20.9963 4 20.9963C3.44772 20.9963 3 20.5486 3 19.9963V19.9958C3 19.4435 3.44772 18.9958 4 18.9958Z" fill="#1F2937"/>
<path fill-rule="evenodd" clip-rule="evenodd" d="M3 19.9926C3 19.4403 3.44772 18.9926 4 18.9926H4.0005C4.55278 18.9926 5.0005 19.4403 5.0005 19.9926C5.0005 20.5448 4.55278 20.9926 4.0005 20.9926H4C3.44772 20.9926 3 20.5448 3 19.9926ZM6.9995 19.9926C6.9995 19.4403 7.44722 18.9926 7.9995 18.9926H8.0005C8.55278 18.9926 9.0005 19.4403 9.0005 19.9926C9.0005 20.5448 8.55278 20.9926 8.0005 20.9926H7.9995C7.44722 20.9926 6.9995 20.5448 6.9995 19.9926ZM10.9995 19.9926C10.9995 19.4403 11.4472 18.9926 11.9995 18.9926H12.0005C12.5528 18.9926 13.0005 19.4403 13.0005 19.9926C13.0005 20.5448 12.5528 20.9926 12.0005 20.9926H11.9995C11.4472 20.9926 10.9995 20.5448 10.9995 19.9926ZM14.9995 19.9926C14.9995 19.4403 15.4472 18.9926 15.9995 18.9926H16.0005C16.5528 18.9926 17.0005 19.4403 17.0005 19.9926C17.0005 20.5448 16.5528 20.9926 16.0005 20.9926H15.9995C15.4472 20.9926 14.9995 20.5448 14.9995 19.9926ZM18.9995 19.9926C18.9995 19.4403 19.4472 18.9926 19.9995 18.9926H20C20.5523 18.9926 21 19.4403 21 19.9926C21 20.5448 20.5523 20.9926 20 20.9926H19.9995C19.4472 20.9926 18.9995 20.5448 18.9995 19.9926Z" fill="#1F2937"/>
<path fill-rule="evenodd" clip-rule="evenodd" d="M20 2.99628C20.5523 2.99628 21 3.44399 21 3.99628V3.99678C21 4.54906 20.5523 4.99678 20 4.99678C19.4477 4.99678 19 4.54906 19 3.99678V3.99628C19 3.44399 19.4477 2.99628 20 2.99628ZM20 6.99578C20.5523 6.99578 21 7.44349 21 7.99578V7.99678C21 8.54906 20.5523 8.99678 20 8.99678C19.4477 8.99678 19 8.54906 19 7.99678V7.99578C19 7.44349 19.4477 6.99578 20 6.99578ZM20 10.9958C20.5523 10.9958 21 11.4435 21 11.9958V11.9968C21 12.5491 20.5523 12.9968 20 12.9968C19.4477 12.9968 19 12.5491 19 11.9968V11.9958C19 11.4435 19.4477 10.9958 20 10.9958ZM20 14.9958C20.5523 14.9958 21 15.4435 21 15.9958V15.9968C21 16.5491 20.5523 16.9968 20 16.9968C19.4477 16.9968 19 16.5491 19 15.9968V15.9958C19 15.4435 19.4477 14.9958 20 14.9958ZM20 18.9958C20.5523 18.9958 21 19.4435 21 19.9958V19.9963C21 20.5486 20.5523 20.9963 20 20.9963C19.4477 20.9963 19 20.5486 19 19.9963V19.9958C19 19.4435 19.4477 18.9958 20 18.9958Z" fill="#1F2937"/>
</svg>
