<svg width="24" height="24" viewBox="0 0 24 24" fill="none" xmlns="http://www.w3.org/2000/svg">
<path fill-rule="evenodd" clip-rule="evenodd" d="M12 4C7.58172 4 4 7.58172 4 12C4 16.4183 7.58172 20 12 20C16.4183 20 20 16.4183 20 12C20 7.58172 16.4183 4 12 4ZM2 12C2 6.47715 6.47715 2 12 2C17.5228 2 22 6.47715 22 12C22 17.5228 17.5228 22 12 22C6.47715 22 2 17.5228 2 12Z" fill="#1F2937"/>
<path fill-rule="evenodd" clip-rule="evenodd" d="M11 8C11.5523 8 12 8.44772 12 9V9.01C12 9.56228 11.5523 10.01 11 10.01C10.4477 10.01 10 9.56228 10 9.01V9C10 8.44772 10.4477 8 11 8Z" fill="#1F2937"/>
<path fill-rule="evenodd" clip-rule="evenodd" d="M15 7.00378C15.5523 7.00378 16 7.4515 16 8.00378V8.01378C16 8.56607 15.5523 9.01378 15 9.01378C14.4477 9.01378 14 8.56607 14 8.01378V8.00378C14 7.4515 14.4477 7.00378 15 7.00378Z" fill="#1F2937"/>
<path fill-rule="evenodd" clip-rule="evenodd" d="M14 11C14.5523 11 15 11.4477 15 12V12.01C15 12.5623 14.5523 13.01 14 13.01C13.4477 13.01 13 12.5623 13 12.01V12C13 11.4477 13.4477 11 14 11Z" fill="#1F2937"/>
</svg>
