<svg width="24" height="24" viewBox="0 0 24 24" fill="none" xmlns="http://www.w3.org/2000/svg">
<path fill-rule="evenodd" clip-rule="evenodd" d="M21.6612 3.24616C21.9416 3.49333 22.0608 3.87625 21.9701 4.23889L17.9701 20.2389C17.8828 20.5884 17.6141 20.8639 17.2669 20.9601C16.9197 21.0562 16.5476 20.9582 16.2929 20.7035L12.1082 16.5188L9.80001 19.5964C9.57684 19.8939 9.20697 20.043 8.83982 19.9834C8.47268 19.9239 8.16894 19.6654 8.05132 19.3126L6.18231 13.7055L2.55279 11.8908C2.19901 11.7139 1.98274 11.3451 2.00108 10.95C2.01942 10.5549 2.26892 10.2077 2.63756 10.0644L20.6376 3.06435C20.9859 2.92887 21.3808 2.999 21.6612 3.24616ZM12.7193 14.3014C12.7119 14.2938 12.7044 14.2863 12.6967 14.2789L12.4142 13.9964L15.7071 10.7035C16.0976 10.3129 16.0976 9.67977 15.7071 9.28925C15.3166 8.89872 14.6834 8.89872 14.2929 9.28925L10.2929 13.2892C10.1054 13.4768 10 13.7311 10 13.9964C10 14.2616 10.1054 14.5159 10.2929 14.7035L10.6796 15.0902L9.34515 16.8695L7.94869 12.6801C7.86482 12.4285 7.68444 12.2205 7.44722 12.1019L5.46487 11.1108L19.5611 5.62889L16.4582 18.0404L12.7193 14.3014Z" fill="black"/>
</svg>
