<svg width="24" height="24" viewBox="0 0 24 24" fill="none" xmlns="http://www.w3.org/2000/svg">
<path fill-rule="evenodd" clip-rule="evenodd" d="M9 4.00366C9.35126 4.00366 9.67677 4.18796 9.85749 4.48917L12.8575 9.48917C13.0475 9.80585 13.0475 10.2015 12.8575 10.5182L6.85749 20.5182C6.67677 20.8194 6.35126 21.0037 6 21.0037C5.64874 21.0037 5.32323 20.8194 5.14251 20.5182L2.14251 15.5182C1.9525 15.2015 1.9525 14.8058 2.14251 14.4892L8.14251 4.48917C8.32323 4.18796 8.64874 4.00366 9 4.00366ZM4.16619 15.0037L6 18.06L10.8338 10.0037L9 6.94731L4.16619 15.0037Z" fill="black"/>
<path fill-rule="evenodd" clip-rule="evenodd" d="M8 15C8 14.4477 8.44772 14 9 14H21C21.3603 14 21.6927 14.1938 21.8702 14.5073C22.0477 14.8208 22.0429 15.2056 21.8575 15.5145L18.8575 20.5145C18.6768 20.8157 18.3513 21 18 21H6C5.44772 21 5 20.5523 5 20C5 19.4477 5.44772 19 6 19H17.4338L19.2338 16H9C8.44772 16 8 15.5523 8 15Z" fill="black"/>
<path fill-rule="evenodd" clip-rule="evenodd" d="M8.1298 4.51096C8.30731 4.19745 8.63973 4.00366 9 4.00366H15C15.3513 4.00366 15.6768 4.18796 15.8575 4.48917L21.8575 14.4892C22.0429 14.7981 22.0477 15.1829 21.8702 15.4964C21.6927 15.8099 21.3603 16.0037 21 16.0037H15C14.6487 16.0037 14.3232 15.8194 14.1425 15.5182L8.14251 5.51816C7.95715 5.20923 7.95229 4.82447 8.1298 4.51096ZM10.7662 6.00366L15.5662 14.0037H19.2338L14.4338 6.00366H10.7662Z" fill="black"/>
</svg>
