<svg width="24" height="24" viewBox="0 0 24 24" fill="none" xmlns="http://www.w3.org/2000/svg">
<path fill-rule="evenodd" clip-rule="evenodd" d="M7.53795 3.00781L16.464 3.00781C16.7893 3.00803 17.1102 3.08775 17.3977 3.24003C17.6849 3.3922 17.9306 3.61221 18.1135 3.88095L21.65 9.07421C22.1725 9.84067 22.1009 10.8674 21.4768 11.5536M21.4768 11.5536L13.4839 20.3435C13.4839 20.3435 13.4839 20.3435 13.4839 20.3435C12.6871 21.2198 11.3097 21.2199 10.513 20.3435L2.5224 11.5549C2.52228 11.5548 2.52251 11.555 2.5224 11.5549C1.89724 10.8677 1.82489 9.84003 2.34872 9.07248L5.88798 3.88156C5.88813 3.88134 5.88783 3.88179 5.88798 3.88156C6.07084 3.61285 6.317 3.39219 6.60421 3.24003C6.89167 3.08775 7.21265 3.00803 7.53795 3.00781M3.26196 10.8818L4.00185 10.2091L11.9928 18.9981L11.9947 19C11.9947 19 11.9947 19 11.9947 19C11.9949 19.0001 11.9964 19.0008 11.9985 19.0008C12.0002 19.0008 12.0013 19.0005 12.0017 19.0004L12.004 18.9981L19.9971 10.208L19.9979 10.207C19.9981 10.2067 19.9984 10.2058 19.9985 10.2045C19.9986 10.2033 19.9984 10.2025 19.9984 10.2022M7.54073 5.00781L4.00118 10.1991C4.0004 10.2003 3.99985 10.2014 3.99983 10.2015C3.99972 10.2019 3.99955 10.2028 3.99965 10.2042C3.99974 10.2055 4.00004 10.2065 4.00024 10.207C4.00032 10.2071 4.00087 10.208 4.00185 10.2091L3.26196 10.8818" fill="black"/>
</svg>
