<svg width="24" height="24" viewBox="0 0 24 24" fill="none" xmlns="http://www.w3.org/2000/svg">
<path fill-rule="evenodd" clip-rule="evenodd" d="M9.06237 3.21883C10.9964 2.78201 13.0035 2.782 14.9375 3.21881C16.048 2.54552 16.9093 2.22779 17.5498 2.09095C17.9054 2.01496 18.1916 1.99509 18.4117 2.00096C18.5215 2.0039 18.6139 2.01321 18.6891 2.02478C18.7267 2.03056 18.7598 2.03687 18.7886 2.04318C18.803 2.04634 18.8163 2.04948 18.8285 2.05256L18.8459 2.0571L18.854 2.05931L18.8579 2.0604L18.8598 2.06094C18.8608 2.06121 18.8617 2.06148 18.587 3.023L18.8617 2.06148C19.1459 2.14266 19.3796 2.34538 19.5001 2.61523C19.7799 3.24182 19.9328 3.91768 19.9498 4.60371C19.9615 5.07888 19.908 5.55241 19.7914 6.01118C20.5664 6.98637 20.9959 8.19909 21 9.45677L21 9.46C21 11.9997 20.2552 13.7475 18.9511 14.8763C18.0756 15.6342 17.0237 16.0442 15.9746 16.2764C16.013 16.575 16.0077 16.9178 16.0029 17.224C16.0014 17.3205 16 17.4133 16 17.5V21C16 21.5523 15.5523 22 15 22C14.4477 22 14 21.5523 14 21V17.5C14 17.3672 14.0016 17.2452 14.0032 17.1371L14.0034 17.119C14.0049 17.0164 14.0061 16.93 14.0061 16.8497C14.006 16.6767 13.9995 16.5799 13.9882 16.5126C13.9791 16.4576 13.9677 16.4288 13.9532 16.4021C13.9356 16.3701 13.8954 16.3089 13.7953 16.2095C13.5217 15.9377 13.4287 15.5328 13.5564 15.1689C13.6841 14.805 14.0097 14.5469 14.3931 14.5057C15.7271 14.3623 16.8506 14.0494 17.6421 13.3642C18.3901 12.7167 18.9997 11.5949 19 9.46154C18.9965 8.52188 18.6224 7.62152 17.9589 6.95609C17.6794 6.67578 17.5915 6.25697 17.7348 5.88797C17.8876 5.49469 17.9608 5.07504 17.9504 4.65327C17.9455 4.45552 17.9222 4.25914 17.8812 4.06662C17.4459 4.17269 16.7151 4.44432 15.6536 5.13001C15.4182 5.28202 15.1299 5.32834 14.8588 5.25767C12.9842 4.76906 11.0158 4.76906 9.14123 5.25767C8.87017 5.32832 8.58191 5.28205 8.34658 5.13011C7.28479 4.44456 6.55406 4.17286 6.11883 4.06671C6.07778 4.2592 6.05453 4.45555 6.04963 4.65327C6.03917 5.07504 6.11243 5.49469 6.26517 5.88797C6.40849 6.257 6.32061 6.67585 6.04106 6.95616C5.70985 7.28825 5.44742 7.68242 5.26877 8.11609C5.09013 8.54976 4.9988 9.01442 5 9.48344L5 9.486C5 11.6002 5.60769 12.707 6.35511 13.3493C7.14934 14.0318 8.2763 14.3464 9.61882 14.5071C9.9993 14.5526 10.3203 14.8116 10.4453 15.1738C10.5703 15.536 10.4773 15.9378 10.2059 16.2083C10.0555 16.3582 10.0123 16.4687 9.98992 16.5924C9.95776 16.7703 9.96552 16.9938 9.99731 17.4268C9.9991 17.4511 10 17.4756 10 17.5V18.9772C10.0004 18.9926 10.0004 19.008 10 19.0233V21C10 21.5523 9.55229 22 9 22C8.44772 22 8 21.5523 8 21V20.2439C7.3441 20.3229 6.75329 20.2803 6.21649 20.1244C5.34142 19.8703 4.73247 19.3505 4.2809 18.8312C4.05838 18.5753 3.86703 18.3112 3.70284 18.0771C3.65246 18.0053 3.60591 17.9382 3.5618 17.8746C3.45316 17.718 3.35938 17.5828 3.25989 17.4511C2.97236 17.0704 2.82601 16.9882 2.74606 16.9672C2.21188 16.827 1.89253 16.2802 2.03278 15.7461C2.17303 15.2119 2.71976 14.8925 3.25394 15.0328C4.03099 15.2368 4.52739 15.8108 4.85586 16.2458C4.98157 16.4122 5.10984 16.5971 5.22658 16.7654C5.26598 16.8222 5.30406 16.8771 5.34028 16.9287C5.49416 17.1481 5.63763 17.3435 5.79011 17.5188C6.08853 17.862 6.39033 18.0922 6.77426 18.2037C7.05634 18.2857 7.44705 18.3219 8 18.2223V17.5367C7.97277 17.1662 7.94069 16.7105 8.01717 16.2631C6.97309 16.0251 5.9245 15.6162 5.05164 14.8662C3.74703 13.7451 3.00025 12.0124 3 9.48724M5.413 3.023C5.13804 2.06154 5.13898 2.06128 5.13992 2.06101L5.14183 2.06047L5.14573 2.05938L5.15384 2.05716L5.17129 2.05261C5.18349 2.04953 5.19678 2.04638 5.21118 2.04322C5.23999 2.0369 5.27316 2.03058 5.31075 2.0248C5.386 2.01322 5.47833 2.0039 5.58812 2.00097C5.80818 1.99509 6.0943 2.01497 6.44986 2.09095C7.09023 2.2278 7.95159 2.54554 9.06237 3.21883" fill="black"/>
</svg>
