<svg width="24" height="24" viewBox="0 0 24 24" fill="none" xmlns="http://www.w3.org/2000/svg">
<path fill-rule="evenodd" clip-rule="evenodd" d="M8 4.99634C6.34315 4.99634 5 6.33948 5 7.99634V15.9963C5 17.6532 6.34315 18.9963 8 18.9963H16C17.6569 18.9963 19 17.6532 19 15.9963V7.99634C19 6.33948 17.6569 4.99634 16 4.99634H8ZM3 7.99634C3 5.23491 5.23858 2.99634 8 2.99634H16C18.7614 2.99634 21 5.23491 21 7.99634V15.9963C21 18.7578 18.7614 20.9963 16 20.9963H8C5.23858 20.9963 3 18.7578 3 15.9963V7.99634Z" fill="black"/>
<path fill-rule="evenodd" clip-rule="evenodd" d="M12 10C10.8954 10 10 10.8954 10 12C10 13.1046 10.8954 14 12 14C13.1046 14 14 13.1046 14 12C14 10.8954 13.1046 10 12 10ZM8 12C8 9.79086 9.79086 8 12 8C14.2091 8 16 9.79086 16 12C16 14.2091 14.2091 16 12 16C9.79086 16 8 14.2091 8 12Z" fill="black"/>
<path fill-rule="evenodd" clip-rule="evenodd" d="M16.5 6.5C17.0523 6.5 17.5 6.94772 17.5 7.5V7.524C17.5 8.07628 17.0523 8.524 16.5 8.524C15.9477 8.524 15.5 8.07628 15.5 7.524V7.5C15.5 6.94772 15.9477 6.5 16.5 6.5Z" fill="black"/>
</svg>
