<svg width="24" height="24" viewBox="0 0 24 24" fill="none" xmlns="http://www.w3.org/2000/svg">
<path fill-rule="evenodd" clip-rule="evenodd" d="M12 4C7.58172 4 4 7.58172 4 12C4 16.4183 7.58172 20 12 20C16.4183 20 20 16.4183 20 12C20 7.58172 16.4183 4 12 4ZM2 12C2 6.47715 6.47715 2 12 2C17.5228 2 22 6.47715 22 12C22 17.5228 17.5228 22 12 22C6.47715 22 2 17.5228 2 12Z" fill="black"/>
<path fill-rule="evenodd" clip-rule="evenodd" d="M10.7362 8.9753C10.3014 9.7 10 10.7657 10 11.9963C10 13.227 10.3014 14.2927 10.7362 15.0174C11.1829 15.762 11.6608 15.9963 12 15.9963C12.3392 15.9963 12.8171 15.762 13.2638 15.0174C13.6986 14.2927 14 13.227 14 11.9963C14 10.7657 13.6986 9.7 13.2638 8.9753C12.8171 8.2307 12.3392 7.99634 12 7.99634C11.6608 7.99634 11.1829 8.2307 10.7362 8.9753ZM9.02119 7.94631C9.66021 6.88127 10.6823 5.99634 12 5.99634C13.3177 5.99634 14.3398 6.88127 14.9788 7.94631C15.6298 9.03126 16 10.4655 16 11.9963C16 13.5271 15.6298 14.9614 14.9788 16.0464C14.3398 17.1114 13.3177 17.9963 12 17.9963C10.6823 17.9963 9.66021 17.1114 9.02119 16.0464C8.37022 14.9614 8 13.5271 8 11.9963C8 10.4655 8.37022 9.03126 9.02119 7.94631Z" fill="black"/>
</svg>
