<svg width="24" height="24" viewBox="0 0 24 24" fill="none" xmlns="http://www.w3.org/2000/svg">
<path fill-rule="evenodd" clip-rule="evenodd" d="M7.84076 3.6874C8.94385 2.58431 10.44 1.9646 12 1.9646C13.56 1.9646 15.0561 2.58431 16.1592 3.6874C17.2623 4.79049 17.882 6.2866 17.882 7.8466C17.882 8.54971 17.8889 9.17088 17.9134 9.7255C18.2996 9.18983 18.7713 8.66206 19.2929 8.14049C19.6834 7.74997 20.3165 7.74997 20.7071 8.14049C21.0976 8.53102 21.0976 9.16418 20.7071 9.55471C19.2105 11.0513 18.7997 11.9964 18.869 12.6283C18.9338 13.2189 19.4867 14.0264 21.4314 15.0625C21.7489 15.2143 21.962 15.5212 21.9954 15.8686C22.0139 16.0574 21.9791 16.2534 21.8837 16.4335C21.7669 16.6541 21.5793 16.813 21.3638 16.8971C20.326 17.3552 20.0413 17.499 19.8321 17.7082C19.6099 17.9303 19.4379 18.2612 18.9042 19.3915C18.739 19.7414 18.3869 19.9646 18 19.9646C16.7585 19.9646 15.9409 20.3644 15.1211 20.8328C15.0383 20.8801 14.9529 20.9301 14.8648 20.9817C14.1222 21.4165 13.186 21.9646 12 21.9646C10.814 21.9646 9.87771 21.4165 9.13509 20.9817C9.04697 20.9301 8.96158 20.8801 8.87882 20.8328C8.059 20.3644 7.24143 19.9646 5.99996 19.9646C5.61306 19.9646 5.26087 19.7414 5.09568 19.3915C4.56201 18.2612 4.38999 17.9303 4.16785 17.7082C3.95866 17.499 3.67389 17.3552 2.63617 16.8971C2.42058 16.813 2.23299 16.6541 2.1162 16.4335C2.02084 16.2534 1.98601 16.0574 2.00455 15.8687C2.03793 15.5213 2.25098 15.2143 2.56851 15.0625C4.51318 14.0264 5.06615 13.2189 5.13092 12.6283C5.20023 11.9964 4.78943 11.0513 3.29285 9.55471C2.90233 9.16418 2.90233 8.53102 3.29285 8.14049C3.68338 7.74997 4.31654 7.74997 4.70707 8.14049C5.22861 8.66203 5.7003 9.18977 6.08642 9.72542C6.11099 9.17081 6.11796 8.54966 6.11796 7.8466C6.11796 6.2866 6.73767 4.79049 7.84076 3.6874ZM5.1568 15.9382C5.30927 16.0459 5.4508 16.1627 5.58207 16.294C6.00771 16.7196 6.30338 17.2755 6.64642 17.9926C8.0565 18.1168 9.05976 18.6327 9.8711 19.0964C9.95133 19.1422 10.0282 19.1864 10.1022 19.2289C10.9225 19.7003 11.3824 19.9646 12 19.9646C12.6175 19.9646 13.0774 19.7003 13.8977 19.2289C13.9717 19.1864 14.0486 19.1422 14.1288 19.0964C14.9402 18.6327 15.9434 18.1168 17.3535 17.9926C17.6965 17.2755 17.9922 16.7196 18.4179 16.294C18.5491 16.1628 18.6905 16.0459 18.843 15.9383C17.7536 15.2081 17.0146 14.3446 16.555 13.2561C15.9213 11.7556 15.882 9.94256 15.882 7.8466C15.882 6.81703 15.473 5.82963 14.7449 5.10161C14.0169 4.37359 13.0295 3.9646 12 3.9646C10.9704 3.9646 9.98299 4.37359 9.25497 5.10161C8.52696 5.82963 8.11796 6.81703 8.11796 7.8466C8.11796 9.9427 8.07831 11.7557 7.44454 13.2562C6.98484 14.3446 6.24591 15.208 5.1568 15.9382Z" fill="black"/>
</svg>
