<svg width="24" height="24" viewBox="0 0 24 24" fill="none" xmlns="http://www.w3.org/2000/svg">
<path fill-rule="evenodd" clip-rule="evenodd" d="M19.2814 3.88315C19.367 3.85949 19.451 3.83648 19.5336 3.81385C20.2554 3.61613 20.8715 3.44736 21.5244 3.13216C21.7014 3.03631 21.9084 2.99313 22.1214 3.01917C22.6231 3.08048 23.0001 3.50642 23.0001 4.01178V4.01278C23.0001 4.10466 22.9875 4.19461 22.9636 4.28058C22.771 5.03169 22.2635 6.06376 21.8659 6.84424C21.7632 7.0458 21.6687 7.22856 21.5821 7.39612C21.4832 7.58759 21.3945 7.75923 21.3154 7.91642C21.2571 8.03241 21.213 8.12313 21.182 8.19058C21.1742 9.49243 20.9951 10.7878 20.6492 12.0434L20.6478 12.0482C19.4203 16.4179 16.2065 19.349 12.3131 20.4801L12.3129 20.4801C8.8769 21.4776 4.99812 20.7757 1.52153 18.8808C1.11374 18.6586 0.912642 18.1848 1.03606 17.737C1.15947 17.2893 1.57491 16.9855 2.039 17.0035C3.44502 17.0583 4.6941 16.7052 5.94842 16.0614C4.65017 15.2591 3.71768 14.3241 3.07835 13.314C2.19621 11.9203 1.91904 10.4577 1.9319 9.15528C1.94469 7.8606 2.24338 6.70781 2.53097 5.88866C2.67574 5.4763 2.82037 5.14095 2.93066 4.90528C2.98588 4.78727 3.03275 4.69371 3.06707 4.62741C3.08423 4.59425 3.09829 4.56786 3.1087 4.54859L3.12155 4.52506L3.12581 4.51737L3.12739 4.51455L3.12803 4.51341C3.12831 4.5129 3.12858 4.51243 4.0001 5.00278L3.12858 4.51243C3.29619 4.21451 3.60438 4.02285 3.9457 4.00426C4.28703 3.98566 4.61421 4.14271 4.8132 4.42065C6.29896 6.49593 8.49453 7.76602 10.9998 7.97535C10.9883 5.87009 12.3127 4.06198 14.2694 3.32928C15.8937 2.72108 17.8162 2.6506 19.2814 3.88315ZM4.3005 6.90903C4.10579 7.54511 3.94013 8.33179 3.93181 9.17502C3.92191 10.1768 4.13337 11.2412 4.7683 12.2444C5.40179 13.2453 6.50381 14.2596 8.39974 15.0861C8.73518 15.2323 8.96396 15.5501 8.99621 15.9146C9.02847 16.2791 8.85905 16.6322 8.5545 16.835C7.60281 17.469 6.62154 18.0232 5.56931 18.4133C7.72357 19.0426 9.85922 19.1098 11.7551 18.5595M4.3005 6.90903C6.314 8.95076 9.03725 10.0789 12.0257 10.0024C12.5678 9.98858 13.0001 9.5451 13.0001 9.00278V8.00278H13.0002L13 7.98906C12.9831 6.75789 13.7462 5.66081 14.9708 5.20227C16.3614 4.68155 17.5144 4.83395 18.2517 5.666C18.509 5.95636 18.911 6.07169 19.2831 5.96189C19.4914 5.90044 19.7106 5.84061 19.938 5.77857C20.0242 5.75504 20.1116 5.73119 20.2 5.70682C20.1617 5.78307 20.1229 5.85965 20.0838 5.93631C19.9951 6.1105 19.9026 6.28967 19.8145 6.46025C19.7078 6.6668 19.6077 6.86075 19.5286 7.01801C19.454 7.16641 19.384 7.30969 19.3312 7.43024C19.3052 7.48957 19.2762 7.55933 19.2521 7.63032C19.2516 7.63155 19.2512 7.63295 19.2506 7.63452C19.2363 7.67624 19.1811 7.83735 19.1821 8.03031C19.1886 9.20581 19.0337 10.3766 18.7216 11.51C17.6906 15.1767 15.0211 17.6107 11.7553 18.5594" fill="black"/>
</svg>
