<svg width="24" height="24" viewBox="0 0 24 24" fill="none" xmlns="http://www.w3.org/2000/svg">
<path fill-rule="evenodd" clip-rule="evenodd" d="M5 7.99622C4.44772 7.99622 4 8.44393 4 8.99622V17.9962C4 18.5485 4.44772 18.9962 5 18.9962H19C19.5523 18.9962 20 18.5485 20 17.9962V8.99622C20 8.44393 19.5523 7.99622 19 7.99622H5ZM2 8.99622C2 7.33936 3.34315 5.99622 5 5.99622H19C20.6569 5.99622 22 7.33936 22 8.99622V17.9962C22 19.6531 20.6569 20.9962 19 20.9962H5C3.34315 20.9962 2 19.6531 2 17.9962V8.99622Z" fill="#1F2937"/>
<path fill-rule="evenodd" clip-rule="evenodd" d="M10 4C9.73478 4 9.48043 4.10536 9.29289 4.29289C9.10536 4.48043 9 4.73478 9 5V7C9 7.55228 8.55228 8 8 8C7.44772 8 7 7.55228 7 7V5C7 4.20435 7.31607 3.44129 7.87868 2.87868C8.44129 2.31607 9.20435 2 10 2H14C14.7956 2 15.5587 2.31607 16.1213 2.87868C16.6839 3.44129 17 4.20435 17 5V7C17 7.55228 16.5523 8 16 8C15.4477 8 15 7.55228 15 7V5C15 4.73478 14.8946 4.48043 14.7071 4.29289C14.5196 4.10536 14.2652 4 14 4H10Z" fill="#1F2937"/>
<path fill-rule="evenodd" clip-rule="evenodd" d="M12 11C12.5523 11 13 11.4477 13 12V12.01C13 12.5623 12.5523 13.01 12 13.01C11.4477 13.01 11 12.5623 11 12.01V12C11 11.4477 11.4477 11 12 11Z" fill="#1F2937"/>
<path fill-rule="evenodd" clip-rule="evenodd" d="M2.10719 12.5463C2.35572 12.0531 2.95701 11.8548 3.45022 12.1033C6.10222 13.4396 9.03054 14.1357 12.0002 14.1357C14.9699 14.1357 17.8982 13.4396 20.5502 12.1033C21.0434 11.8548 21.6447 12.0531 21.8932 12.5463C22.1418 13.0395 21.9434 13.6408 21.4502 13.8893C18.5191 15.3664 15.2825 16.1357 12.0002 16.1357C8.71795 16.1357 5.48138 15.3664 2.55022 13.8893C2.05701 13.6408 1.85866 13.0395 2.10719 12.5463Z" fill="#1F2937"/>
</svg>
