<svg width="24" height="24" viewBox="0 0 24 24" fill="none" xmlns="http://www.w3.org/2000/svg">
<path fill-rule="evenodd" clip-rule="evenodd" d="M3 4.99622C3 3.89165 3.89543 2.99622 5 2.99622H19C20.1046 2.99622 21 3.89165 21 4.99622V18.9962C21 20.1008 20.1046 20.9962 19 20.9962H5C3.89543 20.9962 3 20.1008 3 18.9962V4.99622ZM19 4.99622H5V18.9962H19V4.99622Z" fill="#1F2937"/>
<path fill-rule="evenodd" clip-rule="evenodd" d="M3 8.00378C3 7.4515 3.44772 7.00378 4 7.00378H20C20.5523 7.00378 21 7.4515 21 8.00378C21 8.55607 20.5523 9.00378 20 9.00378H4C3.44772 9.00378 3 8.55607 3 8.00378Z" fill="#1F2937"/>
<path fill-rule="evenodd" clip-rule="evenodd" d="M8 2.99622C8.55228 2.99622 9 3.44393 9 3.99622V7.99622C9 8.5485 8.55228 8.99622 8 8.99622C7.44772 8.99622 7 8.5485 7 7.99622V3.99622C7 3.44393 7.44772 2.99622 8 2.99622Z" fill="#1F2937"/>
</svg>
