<svg width="24" height="24" viewBox="0 0 24 24" fill="none" xmlns="http://www.w3.org/2000/svg">
<path fill-rule="evenodd" clip-rule="evenodd" d="M12 6.00378C11.4696 6.00378 10.9609 6.2145 10.5858 6.58957C10.2107 6.96464 10 7.47335 10 8.00378V9.00378C10 9.55607 9.55228 10.0038 9 10.0038C8.44772 10.0038 8 9.55607 8 9.00378V8.00378C8 6.94292 8.42143 5.9255 9.17157 5.17536C9.92172 4.42521 10.9391 4.00378 12 4.00378C13.0609 4.00378 14.0783 4.42521 14.8284 5.17536C15.5786 5.9255 16 6.94292 16 8.00378V9.00378C16 9.55607 15.5523 10.0038 15 10.0038C14.4477 10.0038 14 9.55607 14 9.00378V8.00378C14 7.47335 13.7893 6.96464 13.4142 6.58957C13.0391 6.2145 12.5304 6.00378 12 6.00378Z" fill="#1F2937"/>
<path fill-rule="evenodd" clip-rule="evenodd" d="M7.15887 8.45893C6.46972 9.49711 6.07013 10.7005 6.00152 11.9449C6.00051 11.9633 6 11.9816 6 12V15C6 16.5913 6.63214 18.1174 7.75736 19.2426C8.88258 20.3678 10.4087 21 12 21C13.5913 21 15.1174 20.3678 16.2426 19.2426C17.3679 18.1174 18 16.5913 18 15V12C18 11.9816 17.9995 11.9633 17.9985 11.9449C17.9296 10.6949 17.5267 9.48629 16.8318 8.44493C16.6463 8.16694 16.3342 7.99998 16 7.99998H8.01548C7.98562 7.99955 7.9558 8.00045 7.92611 8.00267C7.65261 8.02313 7.39008 8.15541 7.21143 8.38496C7.19641 8.40427 7.18198 8.42426 7.16818 8.44493C7.16507 8.4496 7.16197 8.45426 7.15887 8.45893ZM8.56713 9.99998C8.23703 10.6266 8.04293 11.3181 8 12.0288V15C8 16.0609 8.42143 17.0783 9.17157 17.8284C9.92172 18.5786 10.9391 19 12 19C13.0609 19 14.0783 18.5786 14.8284 17.8284C15.5786 17.0783 16 16.0609 16 15V12.0288C15.9571 11.3181 15.763 10.6266 15.4329 9.99998H8.56713Z" fill="#1F2937"/>
<path fill-rule="evenodd" clip-rule="evenodd" d="M2 12.9962C2 12.4439 2.44772 11.9962 3 11.9962H7C7.55228 11.9962 8 12.4439 8 12.9962C8 13.5485 7.55228 13.9962 7 13.9962H3C2.44772 13.9962 2 13.5485 2 12.9962Z" fill="#1F2937"/>
<path fill-rule="evenodd" clip-rule="evenodd" d="M16 12.9962C16 12.4439 16.4477 11.9962 17 11.9962H21C21.5523 11.9962 22 12.4439 22 12.9962C22 13.5485 21.5523 13.9962 21 13.9962H17C16.4477 13.9962 16 13.5485 16 12.9962Z" fill="#1F2937"/>
<path fill-rule="evenodd" clip-rule="evenodd" d="M12 13.0038C12.5523 13.0038 13 13.4515 13 14.0038V20.0038C13 20.5561 12.5523 21.0038 12 21.0038C11.4477 21.0038 11 20.5561 11 20.0038V14.0038C11 13.4515 11.4477 13.0038 12 13.0038Z" fill="#1F2937"/>
<path fill-rule="evenodd" clip-rule="evenodd" d="M8.20877 16.4911C8.49188 16.9653 8.33697 17.5792 7.86276 17.8623L4.51276 19.8623C4.03856 20.1454 3.42464 19.9905 3.14153 19.5163C2.85842 19.0421 3.01334 18.4282 3.48754 18.1451L6.83754 16.1451C7.31175 15.862 7.92567 16.0169 8.20877 16.4911Z" fill="#1F2937"/>
<path fill-rule="evenodd" clip-rule="evenodd" d="M15.7914 16.4911C16.0745 16.0169 16.6885 15.862 17.1627 16.1451L20.5127 18.1451C20.9869 18.4282 21.1418 19.0421 20.8587 19.5163C20.5756 19.9905 19.9616 20.1454 19.4874 19.8623L16.1374 17.8623C15.6632 17.5792 15.5083 16.9653 15.7914 16.4911Z" fill="#1F2937"/>
<path fill-rule="evenodd" clip-rule="evenodd" d="M3.15785 6.45716C3.45556 5.99199 4.074 5.85623 4.53918 6.15395L8.28918 8.55395C8.75435 8.85166 8.89011 9.4701 8.5924 9.93527C8.29468 10.4004 7.67624 10.5362 7.21107 10.2385L3.46107 7.83849C2.9959 7.54078 2.86014 6.92234 3.15785 6.45716Z" fill="#1F2937"/>
<path fill-rule="evenodd" clip-rule="evenodd" d="M20.8424 6.45716C21.1401 6.92234 21.0044 7.54078 20.5392 7.83849L16.7892 10.2385C16.324 10.5362 15.7056 10.4004 15.4079 9.93527C15.1101 9.4701 15.2459 8.85166 15.7111 8.55395L19.4611 6.15395C19.9262 5.85623 20.5447 5.99199 20.8424 6.45716Z" fill="#1F2937"/>
</svg>
