<svg width="24" height="24" viewBox="0 0 24 24" fill="none" xmlns="http://www.w3.org/2000/svg">
<path fill-rule="evenodd" clip-rule="evenodd" d="M6 7.99634C5.73478 7.99634 5.48043 8.10169 5.29289 8.28923C5.10536 8.47677 5 8.73112 5 8.99634V17.9963H7V15.9963C7 14.6703 7.52678 13.3985 8.46447 12.4608C9.40215 11.5231 10.6739 10.9963 12 10.9963C13.3261 10.9963 14.5979 11.5231 15.5355 12.4608C16.4732 13.3985 17 14.6703 17 15.9963V17.9963H19V8.99634C19 8.73112 18.8946 8.47677 18.7071 8.28923C18.5196 8.10169 18.2652 7.99634 18 7.99634H6ZM3.87868 6.87502C4.44129 6.31241 5.20435 5.99634 6 5.99634H18C18.7956 5.99634 19.5587 6.31241 20.1213 6.87502C20.6839 7.43763 21 8.20069 21 8.99634V17.9963C21 18.5268 20.7893 19.0355 20.4142 19.4106C20.0391 19.7856 19.5304 19.9963 19 19.9963H17C16.4696 19.9963 15.9609 19.7856 15.5858 19.4106C15.2107 19.0355 15 18.5268 15 17.9963V15.9963C15 15.2007 14.6839 14.4376 14.1213 13.875C13.5587 13.3124 12.7956 12.9963 12 12.9963C11.2044 12.9963 10.4413 13.3124 9.87868 13.875C9.31607 14.4376 9 15.2007 9 15.9963V17.9963C9 18.5268 8.78929 19.0355 8.41421 19.4106C8.03914 19.7856 7.53043 19.9963 7 19.9963H5C4.46957 19.9963 3.96086 19.7856 3.58579 19.4106C3.21071 19.0355 3 18.5268 3 17.9963V8.99634C3 8.20069 3.31607 7.43763 3.87868 6.87502Z" fill="#1F2937"/>
</svg>
