<svg width="24" height="24" viewBox="0 0 24 24" fill="none" xmlns="http://www.w3.org/2000/svg">
<path fill-rule="evenodd" clip-rule="evenodd" d="M2 21C2 20.4477 2.44772 20 3 20H21C21.5523 20 22 20.4477 22 21C22 21.5523 21.5523 22 21 22H3C2.44772 22 2 21.5523 2 21Z" fill="#1F2937"/>
<path fill-rule="evenodd" clip-rule="evenodd" d="M6 4.99634C5.73478 4.99634 5.48043 5.10169 5.29289 5.28923C5.10536 5.47677 5 5.73112 5 5.99634V20.9963C5 21.5486 4.55228 21.9963 4 21.9963C3.44772 21.9963 3 21.5486 3 20.9963V5.99634C3 5.20069 3.31607 4.43763 3.87868 3.87502C4.44129 3.31241 5.20435 2.99634 6 2.99634H18C18.7956 2.99634 19.5587 3.31241 20.1213 3.87502C20.6839 4.43763 21 5.20069 21 5.99634V20.9963C21 21.5486 20.5523 21.9963 20 21.9963C19.4477 21.9963 19 21.5486 19 20.9963V5.99634C19 5.73112 18.8946 5.47677 18.7071 5.28923C18.5196 5.10169 18.2652 4.99634 18 4.99634H6Z" fill="#1F2937"/>
<path fill-rule="evenodd" clip-rule="evenodd" d="M12 10.9963C11.4696 10.9963 10.9609 11.2071 10.5858 11.5821C10.2107 11.9572 10 12.4659 10 12.9963V20.9963C10 21.5486 9.55228 21.9963 9 21.9963C8.44772 21.9963 8 21.5486 8 20.9963V12.9963C8 11.9355 8.42143 10.9181 9.17157 10.1679C9.92172 9.41776 10.9391 8.99634 12 8.99634C13.0609 8.99634 14.0783 9.41776 14.8284 10.1679C15.5786 10.9181 16 11.9355 16 12.9963V20.9963C16 21.5486 15.5523 21.9963 15 21.9963C14.4477 21.9963 14 21.5486 14 20.9963V12.9963C14 12.4659 13.7893 11.9572 13.4142 11.5821C13.0391 11.2071 12.5304 10.9963 12 10.9963Z" fill="#1F2937"/>
</svg>
