<svg width="24" height="24" viewBox="0 0 24 24" fill="none" xmlns="http://www.w3.org/2000/svg">
<path fill-rule="evenodd" clip-rule="evenodd" d="M2 21C2 20.4477 2.44772 20 3 20H21C21.5523 20 22 20.4477 22 21C22 21.5523 21.5523 22 21 22H3C2.44772 22 2 21.5523 2 21Z" fill="#1F2937"/>
<path fill-rule="evenodd" clip-rule="evenodd" d="M2 9.99634C2 9.44405 2.44772 8.99634 3 8.99634H21C21.5523 8.99634 22 9.44405 22 9.99634C22 10.5486 21.5523 10.9963 21 10.9963H3C2.44772 10.9963 2 10.5486 2 9.99634Z" fill="#1F2937"/>
<path fill-rule="evenodd" clip-rule="evenodd" d="M11.6058 2.08085C11.8574 1.97305 12.1421 1.97305 12.3937 2.08085L19.3937 5.08085C19.9013 5.29841 20.1365 5.88629 19.9189 6.39392C19.7014 6.90155 19.1135 7.1367 18.6058 6.91915L11.9998 4.08797L5.39369 6.91915C4.88606 7.1367 4.29818 6.90155 4.08062 6.39392C3.86307 5.88629 4.09822 5.29841 4.60585 5.08085L11.6058 2.08085Z" fill="#1F2937"/>
<path fill-rule="evenodd" clip-rule="evenodd" d="M4 8.99634C4.55228 8.99634 5 9.44405 5 9.99634V20.9963C5 21.5486 4.55228 21.9963 4 21.9963C3.44772 21.9963 3 21.5486 3 20.9963V9.99634C3 9.44405 3.44772 8.99634 4 8.99634Z" fill="#1F2937"/>
<path fill-rule="evenodd" clip-rule="evenodd" d="M20 8.99634C20.5523 8.99634 21 9.44405 21 9.99634V20.9963C21 21.5486 20.5523 21.9963 20 21.9963C19.4477 21.9963 19 21.5486 19 20.9963V9.99634C19 9.44405 19.4477 8.99634 20 8.99634Z" fill="#1F2937"/>
<path fill-rule="evenodd" clip-rule="evenodd" d="M8 13.0037C8.55228 13.0037 9 13.4514 9 14.0037V17.0037C9 17.5559 8.55228 18.0037 8 18.0037C7.44772 18.0037 7 17.5559 7 17.0037V14.0037C7 13.4514 7.44772 13.0037 8 13.0037Z" fill="#1F2937"/>
<path fill-rule="evenodd" clip-rule="evenodd" d="M12 13.0037C12.5523 13.0037 13 13.4514 13 14.0037V17.0037C13 17.5559 12.5523 18.0037 12 18.0037C11.4477 18.0037 11 17.5559 11 17.0037V14.0037C11 13.4514 11.4477 13.0037 12 13.0037Z" fill="#1F2937"/>
<path fill-rule="evenodd" clip-rule="evenodd" d="M16 13.0037C16.5523 13.0037 17 13.4514 17 14.0037V17.0037C17 17.5559 16.5523 18.0037 16 18.0037C15.4477 18.0037 15 17.5559 15 17.0037V14.0037C15 13.4514 15.4477 13.0037 16 13.0037Z" fill="#1F2937"/>
</svg>
