<svg width="24" height="24" viewBox="0 0 24 24" fill="none" xmlns="http://www.w3.org/2000/svg">
<path fill-rule="evenodd" clip-rule="evenodd" d="M11.5939 3.08253C11.8524 2.96761 12.1476 2.96761 12.4061 3.08253L21.4061 7.08253C21.7673 7.24303 22 7.60115 22 7.99634V20.9963C22 21.5486 21.5523 21.9963 21 21.9963C20.4477 21.9963 20 21.5486 20 20.9963V8.64621L12 5.09066L4 8.64621V20.9963C4 21.5486 3.55228 21.9963 3 21.9963C2.44772 21.9963 2 21.5486 2 20.9963V7.99634C2 7.60115 2.23273 7.24303 2.59386 7.08253L11.5939 3.08253Z" fill="#1F2937"/>
<path fill-rule="evenodd" clip-rule="evenodd" d="M12 12.9963C12 12.4441 12.4477 11.9963 13 11.9963H17C17.5523 11.9963 18 12.4441 18 12.9963V20.9963C18 21.5486 17.5523 21.9963 17 21.9963H7C6.44772 21.9963 6 21.5486 6 20.9963V14.9963C6 14.4441 6.44772 13.9963 7 13.9963H12.9993C12.4473 13.996 12 13.5484 12 12.9963ZM16 13.9963H13.0007C13.5527 13.9967 14 14.4443 14 14.9963C14 15.5486 13.5523 15.9963 13 15.9963H8V19.9963H16V13.9963Z" fill="#1F2937"/>
<path fill-rule="evenodd" clip-rule="evenodd" d="M8.58579 10.5894C8.96086 10.2144 9.46957 10.0037 10 10.0037H12C12.5304 10.0037 13.0391 10.2144 13.4142 10.5894C13.7893 10.9645 14 11.4732 14 12.0037V21.0037C14 21.5559 13.5523 22.0037 13 22.0037C12.4477 22.0037 12 21.5559 12 21.0037V12.0037L10 12.0037L10 15.0037C10 15.5559 9.55228 16.0037 9 16.0037C8.44772 16.0037 8 15.5559 8 15.0037V12.0037C8 11.4732 8.21071 10.9645 8.58579 10.5894Z" fill="#1F2937"/>
</svg>
