<svg width="24" height="24" viewBox="0 0 24 24" fill="none" xmlns="http://www.w3.org/2000/svg">
<path fill-rule="evenodd" clip-rule="evenodd" d="M12 16.9963C11.7348 16.9963 11.4804 17.1017 11.2929 17.2892C11.1054 17.4768 11 17.7311 11 17.9963V20.9963C11 21.5486 10.5523 21.9963 10 21.9963H3C2.44772 21.9963 2 21.5486 2 20.9963C2 20.4441 2.44772 19.9963 3 19.9963H9V17.9963C9 17.2007 9.31607 16.4376 9.87868 15.875C10.4413 15.3124 11.2043 14.9963 12 14.9963C12.7957 14.9963 13.5587 15.3124 14.1213 15.875C14.6839 16.4376 15 17.2007 15 17.9963V19.9963H21C21.5523 19.9963 22 20.4441 22 20.9963C22 21.5486 21.5523 21.9963 21 21.9963H14C13.4477 21.9963 13 21.5486 13 20.9963V17.9963C13 17.7311 12.8946 17.4768 12.7071 17.2892C12.5196 17.1017 12.2652 16.9963 12 16.9963Z" fill="#1F2937"/>
<path fill-rule="evenodd" clip-rule="evenodd" d="M6 11C6.55228 11 7 11.4477 7 12V21C7 21.5523 6.55228 22 6 22C5.44772 22 5 21.5523 5 21V12C5 11.4477 5.44772 11 6 11Z" fill="#1F2937"/>
<path fill-rule="evenodd" clip-rule="evenodd" d="M18 11C18.5523 11 19 11.4477 19 12V21C19 21.5523 18.5523 22 18 22C17.4477 22 17 21.5523 17 21V12C17 11.4477 17.4477 11 18 11Z" fill="#1F2937"/>
<path fill-rule="evenodd" clip-rule="evenodd" d="M12 2C12.4451 2 12.8366 2.29414 12.9605 2.7216C13.4 4.23792 14.4151 5.60197 15.8701 6.57195C17.3265 7.54292 19.1262 8.05231 20.9719 8.0004C21.2419 7.9928 21.5034 8.09474 21.6971 8.28302C21.8907 8.4713 22 8.72991 22 9C22 10.0609 21.5786 11.0783 20.8284 11.8284C20.0783 12.5786 19.0609 13 18 13H6C4.93913 13 3.92172 12.5786 3.17157 11.8284C2.42143 11.0783 2 10.0609 2 9C2 8.72991 2.10925 8.4713 2.3029 8.28302C2.49655 8.09474 2.75813 7.9928 3.02811 8.0004C4.87381 8.05231 6.67348 7.54292 8.12993 6.57195C9.58489 5.60197 10.6 4.23792 11.0395 2.7216C11.1634 2.29414 11.5549 2 12 2ZM12 5.41931C11.3114 6.52091 10.3711 7.48156 9.23933 8.23605C7.76971 9.2158 6.04129 9.80637 4.24672 9.9623C4.33699 10.1268 4.45073 10.2792 4.58579 10.4142C4.96086 10.7893 5.46957 11 6 11H18C18.5304 11 19.0391 10.7893 19.4142 10.4142C19.5493 10.2792 19.663 10.1268 19.7533 9.9623C17.9587 9.80637 16.2303 9.2158 14.7607 8.23605C13.6289 7.48156 12.6886 6.52091 12 5.41931Z" fill="#1F2937"/>
</svg>
