<svg width="24" height="24" viewBox="0 0 24 24" fill="none" xmlns="http://www.w3.org/2000/svg">
<path fill-rule="evenodd" clip-rule="evenodd" d="M8.58579 2.58579C8.96086 2.21071 9.46957 2 10 2H20C20.5304 2 21.0391 2.21071 21.4142 2.58579C21.7893 2.96086 22 3.46957 22 4V21C22 21.5523 21.5523 22 21 22H3C2.44772 22 2 21.5523 2 21V14C2 13.7348 2.10536 13.4804 2.29289 13.2929L7.29289 8.29289C7.48816 8.09763 7.74408 8 8 8V4C8 3.46957 8.21071 2.96086 8.58579 2.58579ZM7 11.4142L4 14.4142V20H7V11.4142ZM9 20H12V14.4142L9 11.4142V20ZM14 20V14C14 13.7348 13.8946 13.4804 13.7071 13.2929L10 9.58579V4H20V20H14Z" fill="#1F2937"/>
<path fill-rule="evenodd" clip-rule="evenodd" d="M13 5.99634C13.5523 5.99634 14 6.44405 14 6.99634V7.00634C14 7.55862 13.5523 8.00634 13 8.00634C12.4477 8.00634 12 7.55862 12 7.00634V6.99634C12 6.44405 12.4477 5.99634 13 5.99634Z" fill="#1F2937"/>
<path fill-rule="evenodd" clip-rule="evenodd" d="M17 5.99634C17.5523 5.99634 18 6.44405 18 6.99634V7.00634C18 7.55862 17.5523 8.00634 17 8.00634C16.4477 8.00634 16 7.55862 16 7.00634V6.99634C16 6.44405 16.4477 5.99634 17 5.99634Z" fill="#1F2937"/>
<path fill-rule="evenodd" clip-rule="evenodd" d="M17 10.0037C17.5523 10.0037 18 10.4514 18 11.0037V11.0137C18 11.5659 17.5523 12.0137 17 12.0137C16.4477 12.0137 16 11.5659 16 11.0137V11.0037C16 10.4514 16.4477 10.0037 17 10.0037Z" fill="#1F2937"/>
<path fill-rule="evenodd" clip-rule="evenodd" d="M17 14C17.5523 14 18 14.4477 18 15V15.01C18 15.5623 17.5523 16.01 17 16.01C16.4477 16.01 16 15.5623 16 15.01V15C16 14.4477 16.4477 14 17 14Z" fill="#1F2937"/>
</svg>
