<svg width="24" height="24" viewBox="0 0 24 24" fill="none" xmlns="http://www.w3.org/2000/svg">
<path fill-rule="evenodd" clip-rule="evenodd" d="M6 16C5.44772 16 5 16.4477 5 17C5 17.5523 5.44772 18 6 18C6.55228 18 7 17.5523 7 17C7 16.4477 6.55228 16 6 16ZM3 17C3 15.3431 4.34315 14 6 14C7.65685 14 9 15.3431 9 17C9 18.6569 7.65685 20 6 20C4.34315 20 3 18.6569 3 17Z" fill="#1F2937"/>
<path fill-rule="evenodd" clip-rule="evenodd" d="M18 16C17.4477 16 17 16.4477 17 17C17 17.5523 17.4477 18 18 18C18.5523 18 19 17.5523 19 17C19 16.4477 18.5523 16 18 16ZM15 17C15 15.3431 16.3431 14 18 14C19.6569 14 21 15.3431 21 17C21 18.6569 19.6569 20 18 20C16.3431 20 15 18.6569 15 17Z" fill="#1F2937"/>
<path fill-rule="evenodd" clip-rule="evenodd" d="M1.58579 4.58945C1.96086 4.21438 2.46957 4.00366 3 4.00366H17C18.7207 4.00366 20.2698 4.96139 21.3493 6.47268C22.4257 7.97973 23 9.97128 23 12.0037V17.0037C23 17.5559 22.5523 18.0037 22 18.0037H2C1.44772 18.0037 1 17.5559 1 17.0037V6.00366C1 5.47323 1.21071 4.96452 1.58579 4.58945ZM21 16.0037V12.0037C21 10.323 20.5207 8.75361 19.7218 7.63515C18.9259 6.52093 17.9315 6.00366 17 6.00366L3 6.00366V16.0037H21Z" fill="#1F2937"/>
<path fill-rule="evenodd" clip-rule="evenodd" d="M15.7907 4.02582C16.3307 3.9101 16.8623 4.25407 16.978 4.7941L18.3086 11.0036H22.0002C22.5525 11.0036 23.0002 11.4513 23.0002 12.0036C23.0002 12.5559 22.5525 13.0036 22.0002 13.0036H17.5002C17.0287 13.0036 16.6212 12.6742 16.5224 12.2132L15.0224 5.21315C14.9067 4.67313 15.2507 4.14154 15.7907 4.02582Z" fill="#1F2937"/>
<path fill-rule="evenodd" clip-rule="evenodd" d="M1 9.99634C1 9.44405 1.44772 8.99634 2 8.99634H17C17.5523 8.99634 18 9.44405 18 9.99634C18 10.5486 17.5523 10.9963 17 10.9963H2C1.44772 10.9963 1 10.5486 1 9.99634Z" fill="#1F2937"/>
<path fill-rule="evenodd" clip-rule="evenodd" d="M7 4.00366C7.55228 4.00366 8 4.45138 8 5.00366V10.0037C8 10.5559 7.55228 11.0037 7 11.0037C6.44772 11.0037 6 10.5559 6 10.0037V5.00366C6 4.45138 6.44772 4.00366 7 4.00366Z" fill="#1F2937"/>
<path fill-rule="evenodd" clip-rule="evenodd" d="M12 4.00366C12.5523 4.00366 13 4.45138 13 5.00366V10.0037C13 10.5559 12.5523 11.0037 12 11.0037C11.4477 11.0037 11 10.5559 11 10.0037V5.00366C11 4.45138 11.4477 4.00366 12 4.00366Z" fill="#1F2937"/>
</svg>
