<svg width="24" height="24" viewBox="0 0 24 24" fill="none" xmlns="http://www.w3.org/2000/svg">
<path fill-rule="evenodd" clip-rule="evenodd" d="M6 4C5.44772 4 5 4.44772 5 5V19C5 19.5523 5.44772 20 6 20H18C18.5523 20 19 19.5523 19 19V5C19 4.44772 18.5523 4 18 4H6ZM3 5C3 3.34315 4.34315 2 6 2H18C19.6569 2 21 3.34315 21 5V19C21 20.6569 19.6569 22 18 22H6C4.34315 22 3 20.6569 3 19V5Z" fill="#1F2937"/>
<path fill-rule="evenodd" clip-rule="evenodd" d="M7 7.99634C7 6.89177 7.89543 5.99634 9 5.99634H15C16.1046 5.99634 17 6.89177 17 7.99634V8.99634C17 10.1009 16.1046 10.9963 15 10.9963H9C7.89543 10.9963 7 10.1009 7 8.99634V7.99634ZM15 7.99634H9V8.99634H15V7.99634Z" fill="#1F2937"/>
<path fill-rule="evenodd" clip-rule="evenodd" d="M8 13.0037C8.55228 13.0037 9 13.4514 9 14.0037V14.0137C9 14.5659 8.55228 15.0137 8 15.0137C7.44772 15.0137 7 14.5659 7 14.0137V14.0037C7 13.4514 7.44772 13.0037 8 13.0037Z" fill="#1F2937"/>
<path fill-rule="evenodd" clip-rule="evenodd" d="M12 13.0037C12.5523 13.0037 13 13.4514 13 14.0037V14.0137C13 14.5659 12.5523 15.0137 12 15.0137C11.4477 15.0137 11 14.5659 11 14.0137V14.0037C11 13.4514 11.4477 13.0037 12 13.0037Z" fill="#1F2937"/>
<path fill-rule="evenodd" clip-rule="evenodd" d="M16 13.0037C16.5523 13.0037 17 13.4514 17 14.0037V14.0137C17 14.5659 16.5523 15.0137 16 15.0137C15.4477 15.0137 15 14.5659 15 14.0137V14.0037C15 13.4514 15.4477 13.0037 16 13.0037Z" fill="#1F2937"/>
<path fill-rule="evenodd" clip-rule="evenodd" d="M8 16.0037C8.55228 16.0037 9 16.4514 9 17.0037V17.0137C9 17.5659 8.55228 18.0137 8 18.0137C7.44772 18.0137 7 17.5659 7 17.0137V17.0037C7 16.4514 7.44772 16.0037 8 16.0037Z" fill="#1F2937"/>
<path fill-rule="evenodd" clip-rule="evenodd" d="M12 16.0037C12.5523 16.0037 13 16.4514 13 17.0037V17.0137C13 17.5659 12.5523 18.0137 12 18.0137C11.4477 18.0137 11 17.5659 11 17.0137V17.0037C11 16.4514 11.4477 16.0037 12 16.0037Z" fill="#1F2937"/>
<path fill-rule="evenodd" clip-rule="evenodd" d="M16 16.0037C16.5523 16.0037 17 16.4514 17 17.0037V17.0137C17 17.5659 16.5523 18.0137 16 18.0137C15.4477 18.0137 15 17.5659 15 17.0137V17.0037C15 16.4514 15.4477 16.0037 16 16.0037Z" fill="#1F2937"/>
</svg>
