<svg width="24" height="24" viewBox="0 0 24 24" fill="none" xmlns="http://www.w3.org/2000/svg">
<path fill-rule="evenodd" clip-rule="evenodd" d="M7.58579 3.59336C7.96086 3.21828 8.46957 3.00757 9 3.00757H15C15.5304 3.00757 16.0391 3.21828 16.4142 3.59336C16.7893 3.96843 17 4.47713 17 5.00757C17 5.27278 17.1054 5.52714 17.2929 5.71468C17.4804 5.90221 17.7348 6.00757 18 6.00757H19C19.7957 6.00757 20.5587 6.32364 21.1213 6.88625C21.6839 7.44886 22 8.21192 22 9.00757V18.0076C22 18.8032 21.6839 19.5663 21.1213 20.1289C20.5587 20.6915 19.7957 21.0076 19 21.0076H5C4.20435 21.0076 3.44129 20.6915 2.87868 20.1289C2.31607 19.5663 2 18.8032 2 18.0076V9.00757C2 8.21192 2.31607 7.44886 2.87868 6.88625C3.44129 6.32364 4.20435 6.00757 5 6.00757H6C6.26522 6.00757 6.51957 5.90221 6.70711 5.71468C6.89464 5.52714 7 5.27279 7 5.00757C7 4.47713 7.21071 3.96843 7.58579 3.59336ZM5 8.00757C4.73478 8.00757 4.48043 8.11293 4.29289 8.30046C4.10536 8.488 4 8.74235 4 9.00757V18.0076C4 18.2728 4.10536 18.5271 4.29289 18.7147C4.48043 18.9022 4.73478 19.0076 5 19.0076H19C19.2652 19.0076 19.5196 18.9022 19.7071 18.7147C19.8946 18.5271 20 18.2728 20 18.0076V9.00757C20 8.74235 19.8946 8.488 19.7071 8.30046C19.5196 8.11293 19.2652 8.00757 19 8.00757H18C17.2044 8.00757 16.4413 7.6915 15.8787 7.12889C15.3161 6.56628 15 5.80322 15 5.00757L9 5.00757C9 5.80322 8.68393 6.56628 8.12132 7.12889C7.55871 7.6915 6.79565 8.00757 6 8.00757H5Z" fill="#1F2937"/>
<path fill-rule="evenodd" clip-rule="evenodd" d="M12 11.0076C10.8954 11.0076 10 11.903 10 13.0076C10 14.1121 10.8954 15.0076 12 15.0076C13.1046 15.0076 14 14.1121 14 13.0076C14 11.903 13.1046 11.0076 12 11.0076ZM8 13.0076C8 10.7984 9.79086 9.00757 12 9.00757C14.2091 9.00757 16 10.7984 16 13.0076C16 15.2167 14.2091 17.0076 12 17.0076C9.79086 17.0076 8 15.2167 8 13.0076Z" fill="#1F2937"/>
</svg>
