<svg width="24" height="24" viewBox="0 0 24 24" fill="none" xmlns="http://www.w3.org/2000/svg">
<path fill-rule="evenodd" clip-rule="evenodd" d="M9 10C8.44772 10 8 10.4477 8 11V17C8 17.5523 8.44772 18 9 18H19C19.5523 18 20 17.5523 20 17V11C20 10.4477 19.5523 10 19 10H9ZM6 11C6 9.34315 7.34315 8 9 8H19C20.6569 8 22 9.34315 22 11V17C22 18.6569 20.6569 20 19 20H9C7.34315 20 6 18.6569 6 17V11Z" fill="#1F2937"/>
<path fill-rule="evenodd" clip-rule="evenodd" d="M14 13C13.4477 13 13 13.4477 13 14C13 14.5523 13.4477 15 14 15C14.5523 15 15 14.5523 15 14C15 13.4477 14.5523 13 14 13ZM11 14C11 12.3431 12.3431 11 14 11C15.6569 11 17 12.3431 17 14C17 15.6569 15.6569 17 14 17C12.3431 17 11 15.6569 11 14Z" fill="#1F2937"/>
<path fill-rule="evenodd" clip-rule="evenodd" d="M2.87868 4.87123C3.44129 4.30862 4.20435 3.99255 5 3.99255H15C15.7956 3.99255 16.5587 4.30862 17.1213 4.87123C17.6839 5.43384 18 6.1969 18 6.99255V8.99255C18 9.54484 17.5523 9.99255 17 9.99255C16.4477 9.99255 16 9.54484 16 8.99255V6.99255C16 6.72734 15.8946 6.47298 15.7071 6.28545C15.5196 6.09791 15.2652 5.99255 15 5.99255H5C4.73478 5.99255 4.48043 6.09791 4.29289 6.28545C4.10536 6.47298 4 6.72734 4 6.99255V12.9926C4 13.2578 4.10536 13.5121 4.29289 13.6997C4.48043 13.8872 4.73478 13.9926 5 13.9926H7C7.55228 13.9926 8 14.4403 8 14.9926C8 15.5448 7.55228 15.9926 7 15.9926H5C4.20435 15.9926 3.44129 15.6765 2.87868 15.1139C2.31607 14.5513 2 13.7882 2 12.9926V6.99255C2 6.1969 2.31607 5.43384 2.87868 4.87123Z" fill="#1F2937"/>
</svg>
