<svg width="24" height="24" viewBox="0 0 24 24" fill="none" xmlns="http://www.w3.org/2000/svg">
<path fill-rule="evenodd" clip-rule="evenodd" d="M2 19.0074C2 18.4552 2.44772 18.0074 3 18.0074H3.01C3.56228 18.0074 4.01 18.4552 4.01 19.0074C4.01 19.5597 3.56228 20.0074 3.01 20.0074H3C2.44772 20.0074 2 19.5597 2 19.0074Z" fill="#1F2937"/>
<path fill-rule="evenodd" clip-rule="evenodd" d="M2 15C2 14.4477 2.44772 14 3 14C4.32608 14 5.59785 14.5268 6.53553 15.4645C7.47322 16.4021 8 17.6739 8 19C8 19.5523 7.55228 20 7 20C6.44772 20 6 19.5523 6 19C6 18.2044 5.68393 17.4413 5.12132 16.8787C4.55871 16.3161 3.79565 16 3 16C2.44772 16 2 15.5523 2 15Z" fill="#1F2937"/>
<path fill-rule="evenodd" clip-rule="evenodd" d="M2 10.9926C2 10.4403 2.44772 9.99255 3 9.99255C5.38695 9.99255 7.67613 10.9408 9.36396 12.6286C11.0518 14.3164 12 16.6056 12 18.9926C12 19.5448 11.5523 19.9926 11 19.9926C10.4477 19.9926 10 19.5448 10 18.9926C10 17.136 9.2625 15.3556 7.94975 14.0428C6.63699 12.7301 4.85652 11.9926 3 11.9926C2.44772 11.9926 2 11.5448 2 10.9926Z" fill="#1F2937"/>
<path fill-rule="evenodd" clip-rule="evenodd" d="M5.99998 3.99243V3.99248H18C19.0608 3.99248 20.0783 4.4139 20.8284 5.16405C21.5786 5.9142 22 6.93161 22 7.99248V15.9925C22 17.0533 21.5786 18.0708 20.8284 18.8209C20.0783 19.571 19.0608 19.9925 18 19.9925H15C14.4477 19.9925 14 19.5448 14 18.9925C14 18.4402 14.4477 17.9925 15 17.9925H18C18.5304 17.9925 19.0391 17.7818 19.4142 17.4067C19.7893 17.0316 20 16.5229 20 15.9925V7.99248C20 7.46204 19.7893 6.95334 19.4142 6.57826C19.0391 6.20319 18.5304 5.99248 18 5.99248H6.0052C5.59636 5.99723 5.19875 6.12718 4.86598 6.36487C4.53205 6.60339 4.27957 6.93886 4.1428 7.32576C3.95873 7.84647 3.3874 8.11937 2.86669 7.9353C2.34598 7.75123 2.07308 7.1799 2.25715 6.65919C2.53069 5.88538 3.03564 5.21445 3.7035 4.73741C4.37136 4.26037 5.16979 4.00031 5.99049 3.99252L5.99998 3.99243Z" fill="#1F2937"/>
</svg>
