<svg width="24" height="24" viewBox="0 0 24 24" fill="none" xmlns="http://www.w3.org/2000/svg">
<path fill-rule="evenodd" clip-rule="evenodd" d="M15 6.99634C15 6.44405 15.4477 5.99634 16 5.99634H17C17.7956 5.99634 18.5587 6.31241 19.1213 6.87502C19.6839 7.43763 20 8.20069 20 8.99634V9.08212C20.209 9.156 20.401 9.27597 20.5607 9.43568C20.842 9.71698 21 10.0985 21 10.4963V13.4963C21 13.8942 20.842 14.2757 20.5607 14.557C20.401 14.7167 20.209 14.8367 20 14.9106V14.9963C20 15.792 19.6839 16.555 19.1213 17.1177C18.5587 17.6803 17.7957 17.9963 17 17.9963H15C14.4477 17.9963 14 17.5486 14 16.9963C14 16.4441 14.4477 15.9963 15 15.9963H17C17.2652 15.9963 17.5196 15.891 17.7071 15.7034C17.8946 15.5159 18 15.2616 18 14.9963V14.4963C18 14.0985 18.158 13.717 18.4393 13.4357C18.599 13.276 18.791 13.156 19 13.0821V10.9106C18.791 10.8367 18.599 10.7167 18.4393 10.557C18.158 10.2757 18 9.89416 18 9.49634V8.99634C18 8.73112 17.8946 8.47677 17.7071 8.28923C17.5196 8.10169 17.2652 7.99634 17 7.99634H16C15.4477 7.99634 15 7.54862 15 6.99634Z" fill="#1F2937"/>
<path fill-rule="evenodd" clip-rule="evenodd" d="M3.87868 6.87502C4.44129 6.31241 5.20435 5.99634 6 5.99634H8C8.55228 5.99634 9 6.44405 9 6.99634C9 7.54862 8.55228 7.99634 8 7.99634H6C5.73478 7.99634 5.48043 8.10169 5.29289 8.28923C5.10536 8.47677 5 8.73112 5 8.99634V14.9963C5 15.2616 5.10536 15.5159 5.29289 15.7034C5.48043 15.891 5.73478 15.9963 6 15.9963H7C7.55228 15.9963 8 16.4441 8 16.9963C8 17.5486 7.55228 17.9963 7 17.9963H6C5.20435 17.9963 4.44129 17.6803 3.87868 17.1177C3.31607 16.555 3 15.792 3 14.9963V8.99634C3 8.20069 3.31607 7.43763 3.87868 6.87502Z" fill="#1F2937"/>
<path fill-rule="evenodd" clip-rule="evenodd" d="M12.4472 7.10921C12.9412 7.3562 13.1414 7.95687 12.8944 8.45085L11.618 11.0036H13C13.3466 11.0036 13.6684 11.1831 13.8507 11.4779C14.0329 11.7727 14.0494 12.1409 13.8944 12.4509L11.8944 16.4509C11.6474 16.9448 11.0468 17.1451 10.5528 16.8981C10.0588 16.6511 9.85858 16.0504 10.1056 15.5564L11.382 13.0036H10C9.65342 13.0036 9.33156 12.8242 9.14935 12.5294C8.96714 12.2346 8.95058 11.8664 9.10557 11.5564L11.1056 7.55642C11.3526 7.06244 11.9532 6.86222 12.4472 7.10921Z" fill="#1F2937"/>
</svg>
