<svg width="24" height="24" viewBox="0 0 24 24" fill="none" xmlns="http://www.w3.org/2000/svg">
<path fill-rule="evenodd" clip-rule="evenodd" d="M3 7C3 5.89543 3.89543 5 5 5H7C8.10457 5 9 5.89543 9 7V10C9 11.1046 8.10457 12 7 12H5C3.89543 12 3 11.1046 3 10V7ZM7 7H5V10H7V7Z" fill="#1F2937"/>
<path fill-rule="evenodd" clip-rule="evenodd" d="M6 3.00745C6.55228 3.00745 7 3.45516 7 4.00745V6.00745C7 6.55973 6.55228 7.00745 6 7.00745C5.44772 7.00745 5 6.55973 5 6.00745V4.00745C5 3.45516 5.44772 3.00745 6 3.00745Z" fill="#1F2937"/>
<path fill-rule="evenodd" clip-rule="evenodd" d="M6 9.99255C6.55228 9.99255 7 10.4403 7 10.9926V19.9926C7 20.5448 6.55228 20.9926 6 20.9926C5.44772 20.9926 5 20.5448 5 19.9926V10.9926C5 10.4403 5.44772 9.99255 6 9.99255Z" fill="#1F2937"/>
<path fill-rule="evenodd" clip-rule="evenodd" d="M9 14.9926C9 13.888 9.89543 12.9926 11 12.9926H13C14.1046 12.9926 15 13.888 15 14.9926V17.9926C15 19.0971 14.1046 19.9926 13 19.9926H11C9.89543 19.9926 9 19.0971 9 17.9926V14.9926ZM13 14.9926L11 14.9926V17.9926H13V14.9926Z" fill="#1F2937"/>
<path fill-rule="evenodd" clip-rule="evenodd" d="M12 3.00745C12.5523 3.00745 13 3.45516 13 4.00745V14.0074C13 14.5597 12.5523 15.0074 12 15.0074C11.4477 15.0074 11 14.5597 11 14.0074V4.00745C11 3.45516 11.4477 3.00745 12 3.00745Z" fill="#1F2937"/>
<path fill-rule="evenodd" clip-rule="evenodd" d="M12 18.0074C12.5523 18.0074 13 18.4552 13 19.0074V20.0074C13 20.5597 12.5523 21.0074 12 21.0074C11.4477 21.0074 11 20.5597 11 20.0074V19.0074C11 18.4552 11.4477 18.0074 12 18.0074Z" fill="#1F2937"/>
<path fill-rule="evenodd" clip-rule="evenodd" d="M15 5.99255C15 4.88798 15.8954 3.99255 17 3.99255H19C20.1046 3.99255 21 4.88798 21 5.99255V9.99255C21 11.0971 20.1046 11.9926 19 11.9926H17C15.8954 11.9926 15 11.0971 15 9.99255V5.99255ZM19 5.99255H17V9.99255H19V5.99255Z" fill="#1F2937"/>
<path fill-rule="evenodd" clip-rule="evenodd" d="M18 3.00745C18.5523 3.00745 19 3.45516 19 4.00745V5.00745C19 5.55973 18.5523 6.00745 18 6.00745C17.4477 6.00745 17 5.55973 17 5.00745V4.00745C17 3.45516 17.4477 3.00745 18 3.00745Z" fill="#1F2937"/>
<path fill-rule="evenodd" clip-rule="evenodd" d="M18 9.99255C18.5523 9.99255 19 10.4403 19 10.9926V19.9926C19 20.5448 18.5523 20.9926 18 20.9926C17.4477 20.9926 17 20.5448 17 19.9926V10.9926C17 10.4403 17.4477 9.99255 18 9.99255Z" fill="#1F2937"/>
</svg>
