<svg width="24" height="24" viewBox="0 0 24 24" fill="none" xmlns="http://www.w3.org/2000/svg">
<path fill-rule="evenodd" clip-rule="evenodd" d="M15.9447 9.00898C16.2287 8.99325 16.506 9.09921 16.7071 9.30034L20.7071 13.3003C20.8946 13.4879 21 13.7422 21 14.0074V19.0074C21 19.5597 20.5523 20.0074 20 20.0074H4C3.63121 20.0074 3.29235 19.8045 3.11833 19.4793C2.94431 19.1541 2.96338 18.7596 3.16795 18.4527L7.16795 12.4527C7.4477 12.0331 7.99613 11.8875 8.44722 12.113L11.7241 13.7515L15.2191 9.38275C15.3968 9.16064 15.6607 9.02471 15.9447 9.00898ZM16.0829 11.5046L12.7809 15.6321C12.4863 16.0004 11.9745 16.1128 11.5528 15.9019L8.34237 14.2967L5.86852 18.0074H19V14.4217L16.0829 11.5046Z" fill="#1F2937"/>
<path fill-rule="evenodd" clip-rule="evenodd" d="M15.9547 3.00847C16.2354 2.99574 16.5085 3.10167 16.7072 3.30034L20.7072 7.30034C21.0977 7.69087 21.0977 8.32403 20.7072 8.71455C20.3166 9.10508 19.6835 9.10508 19.293 8.71455L16.0673 5.48886L11.7683 10.6476C11.4712 11.0041 10.9679 11.1094 10.5528 10.9019L7.29931 9.27511L4.80006 12.6074C4.46869 13.0493 3.84189 13.1388 3.40006 12.8074C2.95823 12.4761 2.86869 11.8493 3.20006 11.4074L6.20006 7.40745C6.49003 7.02082 7.01501 6.89689 7.44727 7.11302L10.7389 8.75882L15.2318 3.36726C15.4117 3.15142 15.6741 3.02121 15.9547 3.00847Z" fill="#1F2937"/>
</svg>
