<svg width="24" height="24" viewBox="0 0 24 24" fill="none" xmlns="http://www.w3.org/2000/svg">
<path fill-rule="evenodd" clip-rule="evenodd" d="M9.8834 2.20021C10.1332 2.17089 10.3863 2.19146 10.628 2.2607C10.8698 2.32995 11.0954 2.4465 11.2918 2.60361C11.4882 2.76071 11.6514 2.95523 11.772 3.1759C11.8927 3.39656 11.9683 3.63898 11.9945 3.8891C11.9981 3.92374 12 3.95856 12 3.99339V10.9934C12 11.2586 12.1053 11.513 12.2929 11.7005C12.4804 11.888 12.7347 11.9934 13 11.9934H19.8C20.3304 11.9934 20.8391 12.2041 21.2142 12.5792C21.5892 12.9543 21.8 13.463 21.8 13.9934C21.8 14.0694 21.7913 14.1452 21.7741 14.2192C21.3712 15.9573 20.5106 17.556 19.2815 18.8494C18.0525 20.1427 16.4998 21.0837 14.7845 21.5747C13.0692 22.0658 11.2537 22.0889 9.52648 21.6418C7.79921 21.1947 6.22302 20.2936 4.9614 19.032C3.69978 17.7703 2.79868 16.1941 2.35156 14.4669C1.90444 12.7396 1.92759 10.9242 2.41861 9.20887C2.90962 7.49356 3.85062 5.94086 5.144 4.71182C6.43737 3.48278 8.03602 2.62216 9.77413 2.21923C9.81017 2.21087 9.84665 2.20452 9.8834 2.20021ZM9.99996 4.22338C8.69694 4.56566 7.50012 5.23187 6.52169 6.16163C5.48699 7.14487 4.73419 8.38703 4.34138 9.75927C3.94857 11.1315 3.93005 12.5839 4.28774 13.9657C4.64544 15.3475 5.36632 16.6084 6.37562 17.6177C7.38491 18.627 8.64586 19.3479 10.0277 19.7056C11.4095 20.0633 12.8618 20.0448 14.2341 19.652C15.6063 19.2592 16.8485 18.5064 17.8317 17.4717C18.7615 16.4932 19.4277 15.2964 19.77 13.9934H13C12.2043 13.9934 11.4413 13.6773 10.8786 13.1147C10.316 12.5521 9.99996 11.789 9.99996 10.9934V4.22338Z" fill="#1F2937"/>
<path fill-rule="evenodd" clip-rule="evenodd" d="M14.4221 2.67643C14.6869 2.48897 15.0261 2.44158 15.3321 2.54932C16.7429 3.04608 18.0243 3.85299 19.0819 4.91061C20.1396 5.96824 20.9465 7.24963 21.4432 8.66044C21.551 8.96643 21.5036 9.30568 21.3161 9.57043C21.1287 9.83519 20.8244 9.99256 20.5 9.99256H16C15.4696 9.99256 14.9609 9.78185 14.5858 9.40677C14.2107 9.0317 14 8.52299 14 7.99256V3.49256C14 3.16815 14.1574 2.8639 14.4221 2.67643ZM16 5.04721V7.99256H18.9454C18.5957 7.38474 18.1666 6.82367 17.6677 6.32483C17.1689 5.82599 16.6078 5.39686 16 5.04721Z" fill="#1F2937"/>
</svg>
