<svg width="24" height="24" viewBox="0 0 24 24" fill="none" xmlns="http://www.w3.org/2000/svg">
<path fill-rule="evenodd" clip-rule="evenodd" d="M9.8834 2.20021C10.1332 2.17089 10.3863 2.19146 10.628 2.2607C10.8698 2.32995 11.0954 2.4465 11.2918 2.60361C11.4882 2.76071 11.6514 2.95523 11.772 3.1759C11.8927 3.39656 11.9683 3.63898 11.9945 3.8891C11.9981 3.92374 12 3.95856 12 3.99339V7.99339C12 8.44873 11.6924 8.84658 11.2517 8.96119C10.7232 9.09865 10.2403 9.37328 9.85206 9.7573C9.46379 10.1413 9.18385 10.6211 9.04057 11.148C8.89729 11.675 8.89576 12.2305 9.03613 12.7582C9.1765 13.286 9.45379 13.7673 9.83994 14.1534C10.2261 14.5396 10.7074 14.8169 11.2351 14.9572C11.7629 15.0976 12.3183 15.0961 12.8453 14.9528C13.3723 14.8095 13.852 14.5296 14.2361 14.1413C14.6201 13.753 14.8947 13.2702 15.0322 12.7417C15.1468 12.301 15.5446 11.9934 16 11.9934H19.8C20.3304 11.9934 20.8391 12.2041 21.2142 12.5792C21.5892 12.9543 21.8 13.463 21.8 13.9934C21.8 14.0694 21.7913 14.1452 21.7741 14.2192C21.3712 15.9573 20.5106 17.556 19.2815 18.8494C18.0525 20.1427 16.4998 21.0837 14.7845 21.5747C13.0692 22.0658 11.2537 22.0889 9.52648 21.6418C7.79921 21.1947 6.22302 20.2936 4.9614 19.032C3.69978 17.7703 2.79868 16.1941 2.35156 14.4669C1.90444 12.7396 1.92759 10.9242 2.41861 9.20887C2.90962 7.49356 3.85062 5.94086 5.144 4.71182C6.43737 3.48278 8.03602 2.62216 9.77413 2.21923C9.81017 2.21087 9.84665 2.20452 9.8834 2.20021ZM9.99996 4.22338C8.69694 4.56566 7.50012 5.23187 6.52169 6.16163C5.48699 7.14487 4.73419 8.38703 4.34138 9.75927C3.94857 11.1315 3.93005 12.5839 4.28774 13.9657C4.64544 15.3475 5.36632 16.6084 6.37562 17.6177C7.38491 18.627 8.64586 19.3479 10.0277 19.7056C11.4095 20.0633 12.8618 20.0448 14.2341 19.652C15.6063 19.2592 16.8485 18.5064 17.8317 17.4717C18.7615 16.4932 19.4277 15.2964 19.77 13.9934H16.7097C16.4592 14.57 16.1033 15.0975 15.658 15.5477C15.0263 16.1865 14.237 16.647 13.3701 16.8827C12.5031 17.1184 11.5893 17.121 10.7211 16.89C9.85282 16.6591 9.061 16.2029 8.42573 15.5676C7.79045 14.9324 7.33426 14.1405 7.10333 13.2723C6.8724 12.4041 6.87492 11.4902 7.11064 10.6233C7.34635 9.75636 7.8069 8.96707 8.44567 8.33531C8.89588 7.89004 9.42336 7.53416 9.99996 7.28367V4.22338Z" fill="#1F2937"/>
<path fill-rule="evenodd" clip-rule="evenodd" d="M14.4221 2.67643C14.6869 2.48897 15.0261 2.44158 15.3321 2.54932C16.7429 3.04608 18.0243 3.85299 19.0819 4.91061C20.1396 5.96824 20.9465 7.24963 21.4432 8.66044C21.551 8.96643 21.5036 9.30568 21.3161 9.57043C21.1287 9.83519 20.8244 9.99256 20.5 9.99256H16C15.7074 9.99256 15.4295 9.86443 15.2395 9.64193C14.967 9.32277 14.6698 9.02556 14.3506 8.75304C14.1281 8.56305 14 8.28514 14 7.99256V3.49256C14 3.16815 14.1574 2.8639 14.4221 2.67643ZM16 5.04721V7.54605C16.1535 7.69015 16.3024 7.83906 16.4465 7.99256H18.9454C18.5957 7.38474 18.1666 6.82367 17.6677 6.32483C17.1689 5.82599 16.6078 5.39686 16 5.04721Z" fill="#1F2937"/>
</svg>
