<svg width="24" height="24" viewBox="0 0 24 24" fill="none" xmlns="http://www.w3.org/2000/svg">
<path fill-rule="evenodd" clip-rule="evenodd" d="M6.29289 6.30034C6.68342 5.90982 7.31658 5.90982 7.70711 6.30034L12 10.5932L16.2929 6.30034C16.6834 5.90982 17.3166 5.90982 17.7071 6.30034C18.0976 6.69086 18.0976 7.32403 17.7071 7.71455L12.7071 12.7146C12.5196 12.9021 12.2652 13.0074 12 13.0074C11.7348 13.0074 11.4804 12.9021 11.2929 12.7146L6.29289 7.71455C5.90237 7.32403 5.90237 6.69086 6.29289 6.30034Z" fill="#1F2937"/>
<path fill-rule="evenodd" clip-rule="evenodd" d="M6.29289 12.3003C6.68342 11.9098 7.31658 11.9098 7.70711 12.3003L12 16.5932L16.2929 12.3003C16.6834 11.9098 17.3166 11.9098 17.7071 12.3003C18.0976 12.6909 18.0976 13.324 17.7071 13.7146L12.7071 18.7146C12.3166 19.1051 11.6834 19.1051 11.2929 18.7146L6.29289 13.7146C5.90237 13.324 5.90237 12.6909 6.29289 12.3003Z" fill="#1F2937"/>
</svg>
