<svg width="24" height="24" viewBox="0 0 24 24" fill="none" xmlns="http://www.w3.org/2000/svg">
<path fill-rule="evenodd" clip-rule="evenodd" d="M6.29289 6.30034C6.68342 5.90982 7.31658 5.90982 7.70711 6.30034L12.7071 11.3003C13.0976 11.6909 13.0976 12.324 12.7071 12.7146L7.70711 17.7146C7.31658 18.1051 6.68342 18.1051 6.29289 17.7146C5.90237 17.324 5.90237 16.6909 6.29289 16.3003L10.5858 12.0074L6.29289 7.71455C5.90237 7.32403 5.90237 6.69086 6.29289 6.30034Z" fill="#1F2937"/>
<path fill-rule="evenodd" clip-rule="evenodd" d="M12.2929 6.30034C12.6834 5.90982 13.3166 5.90982 13.7071 6.30034L18.7071 11.3003C19.0976 11.6909 19.0976 12.324 18.7071 12.7146L13.7071 17.7146C13.3166 18.1051 12.6834 18.1051 12.2929 17.7146C11.9024 17.324 11.9024 16.6909 12.2929 16.3003L16.5858 12.0074L12.2929 7.71455C11.9024 7.32403 11.9024 6.69086 12.2929 6.30034Z" fill="#1F2937"/>
</svg>
