<svg width="24" height="24" viewBox="0 0 24 24" fill="none" xmlns="http://www.w3.org/2000/svg">
<path fill-rule="evenodd" clip-rule="evenodd" d="M11.7071 6.30034C12.0976 6.69086 12.0976 7.32403 11.7071 7.71455L7.41421 12.0074L11.7071 16.3003C12.0976 16.6909 12.0976 17.324 11.7071 17.7146C11.3166 18.1051 10.6834 18.1051 10.2929 17.7146L5.29289 12.7146C4.90237 12.324 4.90237 11.6909 5.29289 11.3003L10.2929 6.30034C10.6834 5.90982 11.3166 5.90982 11.7071 6.30034Z" fill="#1F2937"/>
<path fill-rule="evenodd" clip-rule="evenodd" d="M17.7071 6.30034C18.0976 6.69086 18.0976 7.32403 17.7071 7.71455L13.4142 12.0074L17.7071 16.3003C18.0976 16.6909 18.0976 17.324 17.7071 17.7146C17.3166 18.1051 16.6834 18.1051 16.2929 17.7146L11.2929 12.7146C10.9024 12.324 10.9024 11.6909 11.2929 11.3003L16.2929 6.30034C16.6834 5.90982 17.3166 5.90982 17.7071 6.30034Z" fill="#1F2937"/>
</svg>
