<svg width="24" height="24" viewBox="0 0 24 24" fill="none" xmlns="http://www.w3.org/2000/svg">
<path fill-rule="evenodd" clip-rule="evenodd" d="M12 4C7.58172 4 4 7.58172 4 12C4 16.4183 7.58172 20 12 20C16.4183 20 20 16.4183 20 12C20 7.58172 16.4183 4 12 4ZM2 12C2 6.47715 6.47715 2 12 2C17.5228 2 22 6.47715 22 12C22 17.5228 17.5228 22 12 22C6.47715 22 2 17.5228 2 12Z" fill="#1F2937"/>
<path fill-rule="evenodd" clip-rule="evenodd" d="M12 10C10.8954 10 10 10.8954 10 12C10 13.1046 10.8954 14 12 14C13.1046 14 14 13.1046 14 12C14 10.8954 13.1046 10 12 10ZM8 12C8 9.79086 9.79086 8 12 8C14.2091 8 16 9.79086 16 12C16 14.2091 14.2091 16 12 16C9.79086 16 8 14.2091 8 12Z" fill="#1F2937"/>
<path fill-rule="evenodd" clip-rule="evenodd" d="M11 9C11 8.44772 11.4477 8 12 8H20.4C20.9523 8 21.4 8.44772 21.4 9C21.4 9.55228 20.9523 10 20.4 10H12C11.4477 10 11 9.55228 11 9Z" fill="#1F2937"/>
<path fill-rule="evenodd" clip-rule="evenodd" d="M15.0981 12.634C15.5764 12.9102 15.7403 13.5218 15.4641 14.0001L11.2641 21.2747C10.988 21.753 10.3764 21.9169 9.89809 21.6407C9.4198 21.3646 9.25592 20.753 9.53206 20.2747L13.7321 13.0001C14.0082 12.5218 14.6198 12.3579 15.0981 12.634Z" fill="#1F2937"/>
<path fill-rule="evenodd" clip-rule="evenodd" d="M9.90191 14.366C9.42362 14.6421 8.81203 14.4782 8.53589 13.9999L4.33589 6.72533C4.05975 6.24704 4.22362 5.63545 4.70191 5.3593C5.18021 5.08316 5.7918 5.24704 6.06794 5.72533L10.2679 12.9999C10.5441 13.4782 10.3802 14.0898 9.90191 14.366Z" fill="#1F2937"/>
</svg>
