<svg width="24" height="24" viewBox="0 0 24 24" fill="none" xmlns="http://www.w3.org/2000/svg">
<path fill-rule="evenodd" clip-rule="evenodd" d="M12 4C7.58172 4 4 7.58172 4 12C4 16.4183 7.58172 20 12 20C16.4183 20 20 16.4183 20 12C20 7.58172 16.4183 4 12 4ZM2 12C2 6.47715 6.47715 2 12 2C17.5228 2 22 6.47715 22 12C22 17.5228 17.5228 22 12 22C6.47715 22 2 17.5228 2 12Z" fill="#1F2937"/>
<path fill-rule="evenodd" clip-rule="evenodd" d="M9.29289 9.30034C9.68342 8.90982 10.3166 8.90982 10.7071 9.30034L12 10.5932L13.2929 9.30034C13.6834 8.90982 14.3166 8.90982 14.7071 9.30034C15.0976 9.69086 15.0976 10.324 14.7071 10.7146L13.4142 12.0074L14.7071 13.3003C15.0976 13.6909 15.0976 14.324 14.7071 14.7146C14.3166 15.1051 13.6834 15.1051 13.2929 14.7146L12 13.4217L10.7071 14.7146C10.3166 15.1051 9.68342 15.1051 9.29289 14.7146C8.90237 14.324 8.90237 13.6909 9.29289 13.3003L10.5858 12.0074L9.29289 10.7146C8.90237 10.324 8.90237 9.69086 9.29289 9.30034Z" fill="#1F2937"/>
</svg>
