<svg width="24" height="24" viewBox="0 0 24 24" fill="none" xmlns="http://www.w3.org/2000/svg">
<path fill-rule="evenodd" clip-rule="evenodd" d="M16.2929 14.2929C16.6834 13.9024 17.3166 13.9024 17.7071 14.2929L19 15.5858L20.2929 14.2929C20.6834 13.9024 21.3166 13.9024 21.7071 14.2929C22.0976 14.6834 22.0976 15.3166 21.7071 15.7071L20.4142 17L21.7071 18.2929C22.0976 18.6834 22.0976 19.3166 21.7071 19.7071C21.3166 20.0976 20.6834 20.0976 20.2929 19.7071L19 18.4142L17.7071 19.7071C17.3166 20.0976 16.6834 20.0976 16.2929 19.7071C15.9024 19.3166 15.9024 18.6834 16.2929 18.2929L17.5858 17L16.2929 15.7071C15.9024 15.3166 15.9024 14.6834 16.2929 14.2929Z" fill="#1F2937"/>
<path fill-rule="evenodd" clip-rule="evenodd" d="M6 4.99249C6 4.44021 6.44772 3.99249 7 3.99249H18C18.5523 3.99249 19 4.44021 19 4.99249V5.99249C19 6.54478 18.5523 6.99249 18 6.99249C17.4477 6.99249 17 6.54478 17 5.99249H8C8 6.54478 7.55228 6.99249 7 6.99249C6.44772 6.99249 6 6.54478 6 5.99249V4.99249Z" fill="#1F2937"/>
<path fill-rule="evenodd" clip-rule="evenodd" d="M6 19.0075C6 18.4552 6.44772 18.0075 7 18.0075H11C11.5523 18.0075 12 18.4552 12 19.0075C12 19.5598 11.5523 20.0075 11 20.0075H7C6.44772 20.0075 6 19.5598 6 19.0075Z" fill="#1F2937"/>
<path fill-rule="evenodd" clip-rule="evenodd" d="M13.2745 4.03098C13.8055 4.18271 14.113 4.73619 13.9613 5.26723L9.96129 19.2672C9.80957 19.7983 9.25608 20.1058 8.72505 19.954C8.19401 19.8023 7.88652 19.2488 8.03825 18.7178L12.0382 4.71778C12.19 4.18675 12.7435 3.87926 13.2745 4.03098Z" fill="#1F2937"/>
</svg>
