<svg width="24" height="24" viewBox="0 0 24 24" fill="none" xmlns="http://www.w3.org/2000/svg">
<path fill-rule="evenodd" clip-rule="evenodd" d="M4.87868 4.87111C5.44129 4.3085 6.20435 3.99243 7 3.99243H9C9.55228 3.99243 10 4.44015 10 4.99243C10 5.54472 9.55228 5.99243 9 5.99243H7C6.73478 5.99243 6.48043 6.09779 6.29289 6.28532C6.10536 6.47286 6 6.72721 6 6.99243V18.9924C6 19.2576 6.10536 19.512 6.29289 19.6995C6.48043 19.8871 6.73478 19.9924 7 19.9924H17C17.2652 19.9924 17.5196 19.8871 17.7071 19.6995C17.8946 19.512 18 19.2576 18 18.9924V6.99243C18 6.72722 17.8946 6.47286 17.7071 6.28532C17.5196 6.09779 17.2652 5.99243 17 5.99243H15C14.4477 5.99243 14 5.54472 14 4.99243C14 4.44015 14.4477 3.99243 15 3.99243H17C17.7956 3.99243 18.5587 4.3085 19.1213 4.87111C19.6839 5.43372 20 6.19678 20 6.99243V18.9924C20 19.7881 19.6839 20.5511 19.1213 21.1138C18.5587 21.6764 17.7957 21.9924 17 21.9924H7C6.20435 21.9924 5.44129 21.6764 4.87868 21.1138C4.31607 20.5511 4 19.7881 4 18.9924V6.99243C4 6.19678 4.31607 5.43372 4.87868 4.87111Z" fill="#1F2937"/>
<path fill-rule="evenodd" clip-rule="evenodd" d="M11 4C10.4477 4 10 4.44772 10 5C10 5.55228 10.4477 6 11 6H13C13.5523 6 14 5.55228 14 5C14 4.44772 13.5523 4 13 4H11ZM8 5C8 3.34315 9.34315 2 11 2H13C14.6569 2 16 3.34315 16 5C16 6.65685 14.6569 8 13 8H11C9.34315 8 8 6.65685 8 5Z" fill="#1F2937"/>
<path fill-rule="evenodd" clip-rule="evenodd" d="M8 12C8 11.4477 8.44772 11 9 11H9.01C9.56228 11 10.01 11.4477 10.01 12C10.01 12.5523 9.56228 13 9.01 13H9C8.44772 13 8 12.5523 8 12Z" fill="#1F2937"/>
<path fill-rule="evenodd" clip-rule="evenodd" d="M12 12C12 11.4477 12.4477 11 13 11H15C15.5523 11 16 11.4477 16 12C16 12.5523 15.5523 13 15 13H13C12.4477 13 12 12.5523 12 12Z" fill="#1F2937"/>
<path fill-rule="evenodd" clip-rule="evenodd" d="M8 16.0076C8 15.4553 8.44772 15.0076 9 15.0076H9.01C9.56228 15.0076 10.01 15.4553 10.01 16.0076C10.01 16.5599 9.56228 17.0076 9.01 17.0076H9C8.44772 17.0076 8 16.5599 8 16.0076Z" fill="#1F2937"/>
<path fill-rule="evenodd" clip-rule="evenodd" d="M12 16.0076C12 15.4553 12.4477 15.0076 13 15.0076H15C15.5523 15.0076 16 15.4553 16 16.0076C16 16.5599 15.5523 17.0076 15 17.0076H13C12.4477 17.0076 12 16.5599 12 16.0076Z" fill="#1F2937"/>
</svg>
