<svg width="24" height="24" viewBox="0 0 24 24" fill="none" xmlns="http://www.w3.org/2000/svg">
<path fill-rule="evenodd" clip-rule="evenodd" d="M12.8787 2.87868C13.4413 2.31607 14.2044 2 15 2H19C19.7956 2 20.5587 2.31607 21.1213 2.87868C21.6839 3.44129 22 4.20435 22 5V17C22 18.3261 21.4732 19.5979 20.5355 20.5355C19.5979 21.4732 18.3261 22 17 22C15.6739 22 14.4021 21.4732 13.4645 20.5355C12.5268 19.5979 12 18.3261 12 17V5C12 4.20435 12.3161 3.44129 12.8787 2.87868ZM15 4C14.7348 4 14.4804 4.10536 14.2929 4.29289C14.1054 4.48043 14 4.73478 14 5V17C14 17.7956 14.3161 18.5587 14.8787 19.1213C15.4413 19.6839 16.2044 20 17 20C17.7956 20 18.5587 19.6839 19.1213 19.1213C19.6839 18.5587 20 17.7956 20 17V5C20 4.73478 19.8946 4.48043 19.7071 4.29289C19.5196 4.10536 19.2652 4 19 4H15Z" fill="#1F2937"/>
<path fill-rule="evenodd" clip-rule="evenodd" d="M7.46512 4.63629C8.0277 4.07388 8.79063 3.75793 9.58612 3.75793C10.3816 3.75793 11.1445 4.07388 11.7071 4.63629L13.7072 6.6364C14.0977 7.02692 14.0977 7.66009 13.7072 8.05061C13.3167 8.44114 12.6835 8.44114 12.293 8.05061L10.2931 6.05072C10.2931 6.05069 10.2932 6.05076 10.2931 6.05072C10.1056 5.86332 9.85123 5.75793 9.58612 5.75793C9.321 5.75793 9.06674 5.86321 8.87922 6.05061M8.87922 6.05061L6.05133 8.87851C6.0513 8.87854 6.05137 8.87847 6.05133 8.87851C5.86393 9.06603 5.75854 9.32039 5.75854 9.58551C5.75854 9.85062 5.86382 10.1049 6.05122 10.2924C6.05126 10.2924 6.05119 10.2924 6.05122 10.2924L15.0512 19.2924C15.4417 19.6829 15.4417 20.3161 15.0512 20.7066C14.6607 21.0971 14.0275 21.0971 13.637 20.7066L4.63701 11.7066C4.0746 11.144 3.75854 10.381 3.75854 9.58551C3.75854 8.79001 4.07449 8.02709 4.6369 7.46451L7.46512 4.63629" fill="#1F2937"/>
<path fill-rule="evenodd" clip-rule="evenodd" d="M2.87868 12.8861C3.44129 12.3235 4.20435 12.0074 5 12.0074H7.3C7.85228 12.0074 8.3 12.4552 8.3 13.0074C8.3 13.5597 7.85228 14.0074 7.3 14.0074H5C4.73478 14.0074 4.48043 14.1128 4.29289 14.3003C4.10536 14.4879 4 14.7422 4 15.0074V19.0074C4 19.2727 4.10536 19.527 4.29289 19.7146C4.48043 19.9021 4.73478 20.0074 5 20.0074H17C17.5523 20.0074 18 20.4552 18 21.0074C18 21.5597 17.5523 22.0074 17 22.0074H5C4.20435 22.0074 3.44129 21.6914 2.87868 21.1288C2.31607 20.5662 2 19.8031 2 19.0074V15.0074C2 14.2118 2.31607 13.4487 2.87868 12.8861Z" fill="#1F2937"/>
<path fill-rule="evenodd" clip-rule="evenodd" d="M17 15.9926C17.5523 15.9926 18 16.4403 18 16.9926V17.0026C18 17.5548 17.5523 18.0026 17 18.0026C16.4477 18.0026 16 17.5548 16 17.0026V16.9926C16 16.4403 16.4477 15.9926 17 15.9926Z" fill="#1F2937"/>
</svg>
