<svg width="24" height="24" viewBox="0 0 24 24" fill="none" xmlns="http://www.w3.org/2000/svg">
<path fill-rule="evenodd" clip-rule="evenodd" d="M3 6C3 5.44772 3.44772 5 4 5H9.5C10.0523 5 10.5 5.44772 10.5 6C10.5 6.55228 10.0523 7 9.5 7H4C3.44772 7 3 6.55228 3 6Z" fill="#1F2937"/>
<path fill-rule="evenodd" clip-rule="evenodd" d="M3 10.0075C3 9.45522 3.44772 9.00751 4 9.00751H9.5C10.0523 9.00751 10.5 9.45522 10.5 10.0075C10.5 10.5598 10.0523 11.0075 9.5 11.0075H4C3.44772 11.0075 3 10.5598 3 10.0075Z" fill="#1F2937"/>
<path fill-rule="evenodd" clip-rule="evenodd" d="M3 13.9925C3 13.4402 3.44772 12.9925 4 12.9925H9.5C10.0523 12.9925 10.5 13.4402 10.5 13.9925C10.5 14.5448 10.0523 14.9925 9.5 14.9925H4C3.44772 14.9925 3 14.5448 3 13.9925Z" fill="#1F2937"/>
<path fill-rule="evenodd" clip-rule="evenodd" d="M3 18C3 17.4477 3.44772 17 4 17H9.5C10.0523 17 10.5 17.4477 10.5 18C10.5 18.5523 10.0523 19 9.5 19H4C3.44772 19 3 18.5523 3 18Z" fill="#1F2937"/>
<path fill-rule="evenodd" clip-rule="evenodd" d="M13.5 6C13.5 5.44772 13.9477 5 14.5 5H20C20.5523 5 21 5.44772 21 6C21 6.55228 20.5523 7 20 7H14.5C13.9477 7 13.5 6.55228 13.5 6Z" fill="#1F2937"/>
<path fill-rule="evenodd" clip-rule="evenodd" d="M13.5 10.0075C13.5 9.45522 13.9477 9.00751 14.5 9.00751H20C20.5523 9.00751 21 9.45522 21 10.0075C21 10.5598 20.5523 11.0075 20 11.0075H14.5C13.9477 11.0075 13.5 10.5598 13.5 10.0075Z" fill="#1F2937"/>
<path fill-rule="evenodd" clip-rule="evenodd" d="M13.5 13.9925C13.5 13.4402 13.9477 12.9925 14.5 12.9925H20C20.5523 12.9925 21 13.4402 21 13.9925C21 14.5448 20.5523 14.9925 20 14.9925H14.5C13.9477 14.9925 13.5 14.5448 13.5 13.9925Z" fill="#1F2937"/>
<path fill-rule="evenodd" clip-rule="evenodd" d="M13.5 18C13.5 17.4477 13.9477 17 14.5 17H20C20.5523 17 21 17.4477 21 18C21 18.5523 20.5523 19 20 19H14.5C13.9477 19 13.5 18.5523 13.5 18Z" fill="#1F2937"/>
</svg>
