<svg width="24" height="24" viewBox="0 0 24 24" fill="none" xmlns="http://www.w3.org/2000/svg">
<path fill-rule="evenodd" clip-rule="evenodd" d="M7.38269 6.06868C7.19996 5.99299 6.99889 5.97318 6.80491 6.01177C6.61093 6.05035 6.43275 6.1456 6.29289 6.28545C6.15304 6.4253 6.0578 6.60348 6.01922 6.79746C5.98063 6.99145 6.00043 7.19251 6.07612 7.37524C6.15181 7.55796 6.27998 7.71414 6.44443 7.82402C6.60888 7.93391 6.80222 7.99256 7 7.99256H8V6.99256C8 6.79477 7.94135 6.60143 7.83147 6.43699C7.72159 6.27254 7.56541 6.14436 7.38269 6.06868ZM10 7.99256V6.99256C10 6.39921 9.82405 5.81919 9.49441 5.32584C9.16477 4.8325 8.69623 4.44798 8.14805 4.22092C7.59987 3.99385 6.99667 3.93444 6.41473 4.0502C5.83279 4.16595 5.29824 4.45168 4.87868 4.87123C4.45912 5.29079 4.1734 5.82534 4.05765 6.40728C3.94189 6.98923 4.0013 7.59243 4.22836 8.14061C4.45543 8.68879 4.83994 9.15732 5.33329 9.48696C5.82664 9.81661 6.40666 9.99256 7 9.99256H8V13.9926H7C6.40666 13.9926 5.82664 14.1685 5.33329 14.4981C4.83994 14.8278 4.45543 15.2963 4.22836 15.8445C4.0013 16.3927 3.94189 16.9959 4.05765 17.5778C4.1734 18.1598 4.45912 18.6943 4.87868 19.1139C5.29824 19.5334 5.83279 19.8192 6.41473 19.9349C6.99667 20.0507 7.59987 19.9913 8.14805 19.7642C8.69623 19.5371 9.16477 19.1526 9.49441 18.6593C9.82405 18.1659 10 17.5859 10 16.9926V15.9926H14V16.9926C14 17.5859 14.1759 18.1659 14.5056 18.6593C14.8352 19.1526 15.3038 19.5371 15.8519 19.7642C16.4001 19.9913 17.0033 20.0507 17.5853 19.9349C18.1672 19.8192 18.7018 19.5334 19.1213 19.1139C19.5409 18.6943 19.8266 18.1598 19.9424 17.5778C20.0581 16.9959 19.9987 16.3927 19.7716 15.8445C19.5446 15.2963 19.1601 14.8278 18.6667 14.4981C18.1734 14.1685 17.5933 13.9926 17 13.9926H16V9.99256H17C17.5933 9.99256 18.1734 9.81661 18.6667 9.48696C19.1601 9.15732 19.5446 8.68878 19.7716 8.14061C19.9987 7.59243 20.0581 6.98923 19.9424 6.40728C19.8266 5.82534 19.5409 5.29079 19.1213 4.87123C18.7018 4.45168 18.1672 4.16595 17.5853 4.0502C17.0033 3.93444 16.4001 3.99385 15.8519 4.22092C15.3038 4.44798 14.8352 4.8325 14.5056 5.32584C14.1759 5.81919 14 6.39921 14 6.99256V7.99256H10ZM10 9.99256V13.9926H14V9.99256H10ZM16 7.99256H17C17.1978 7.99256 17.3911 7.93391 17.5556 7.82402C17.72 7.71414 17.8482 7.55797 17.9239 7.37524C17.9996 7.19251 18.0194 6.99145 17.9808 6.79746C17.9422 6.60348 17.847 6.4253 17.7071 6.28545C17.5673 6.1456 17.3891 6.05035 17.1951 6.01177C17.0011 5.97318 16.8 5.99299 16.6173 6.06868C16.4346 6.14436 16.2784 6.27253 16.1685 6.43699C16.0586 6.60143 16 6.79477 16 6.99256V7.99256ZM16 15.9926V16.9926C16 17.1903 16.0587 17.3837 16.1685 17.5481C16.2784 17.7126 16.4346 17.8407 16.6173 17.9164C16.8 17.9921 17.0011 18.0119 17.1951 17.9733C17.3891 17.9348 17.5673 17.8395 17.7071 17.6997C17.847 17.5598 17.9422 17.3816 17.9808 17.1876C18.0194 16.9937 17.9996 16.7926 17.9239 16.6099C17.8482 16.4271 17.72 16.271 17.5556 16.1611C17.3911 16.0512 17.1978 15.9926 17 15.9926H16ZM8 15.9926H7C6.80222 15.9926 6.60888 16.0512 6.44443 16.1611C6.27998 16.271 6.15181 16.4271 6.07612 16.6099C6.00043 16.7926 5.98063 16.9937 6.01922 17.1876C6.0578 17.3816 6.15304 17.5598 6.29289 17.6997C6.43275 17.8395 6.61093 17.9348 6.80491 17.9733C6.99889 18.0119 7.19996 17.9921 7.38269 17.9164C7.56541 17.8407 7.72159 17.7126 7.83147 17.5481C7.94135 17.3837 8 17.1903 8 16.9926V15.9926Z" fill="#1F2937"/>
</svg>
