<svg width="24" height="24" viewBox="0 0 24 24" fill="none" xmlns="http://www.w3.org/2000/svg">
<path fill-rule="evenodd" clip-rule="evenodd" d="M16.7071 7.28535C16.975 7.55318 17.0685 7.94935 16.9487 8.30869L14.9487 14.3087C14.8492 14.6073 14.6149 14.8416 14.3163 14.9411L8.31625 16.9411C7.95692 17.0609 7.56075 16.9674 7.29292 16.6996C7.02509 16.4317 6.93157 16.0356 7.05134 15.6762L9.05134 9.67623C9.15088 9.37763 9.38519 9.14331 9.6838 9.04378L15.6838 7.04378C16.0431 6.924 16.4393 7.01752 16.7071 7.28535ZM10.7906 10.783L9.58117 14.4113L13.2095 13.2019L14.4189 9.5736L10.7906 10.783Z" fill="#1F2937"/>
<path fill-rule="evenodd" clip-rule="evenodd" d="M12 4C7.58172 4 4 7.58172 4 12C4 16.4183 7.58172 20 12 20C16.4183 20 20 16.4183 20 12C20 7.58172 16.4183 4 12 4ZM2 12C2 6.47715 6.47715 2 12 2C17.5228 2 22 6.47715 22 12C22 17.5228 17.5228 22 12 22C6.47715 22 2 17.5228 2 12Z" fill="#1F2937"/>
</svg>
