<svg width="24" height="24" viewBox="0 0 24 24" fill="none" xmlns="http://www.w3.org/2000/svg">
<path fill-rule="evenodd" clip-rule="evenodd" d="M12 4C7.58172 4 4 7.58172 4 12C4 16.4183 7.58172 20 12 20C16.4183 20 20 16.4183 20 12C20 7.58172 16.4183 4 12 4ZM2 12C2 6.47715 6.47715 2 12 2C17.5228 2 22 6.47715 22 12C22 17.5228 17.5228 22 12 22C6.47715 22 2 17.5228 2 12Z" fill="#1F2937"/>
<path fill-rule="evenodd" clip-rule="evenodd" d="M10.2865 7.45812C11.0891 7.04409 11.9899 6.8993 12.8753 7.05157C13.7593 7.20358 14.5678 7.64101 15.21 8.28826C15.599 8.68032 15.5965 9.31348 15.2044 9.70246C14.8123 10.0914 14.1792 10.0889 13.7902 9.69689C13.422 9.3258 12.9845 9.0997 12.5364 9.02263C12.0896 8.94581 11.6288 9.01611 11.2035 9.23552C10.7758 9.45617 10.3926 9.82414 10.1154 10.3146C9.83801 10.8056 9.68506 11.3886 9.68506 11.9926C9.68506 12.5965 9.83801 13.1796 10.1154 13.6706C10.3926 14.161 10.7758 14.529 11.2035 14.7496C11.6288 14.9691 12.0896 15.0394 12.5364 14.9625C12.9845 14.8855 13.422 14.6594 13.7902 14.2883C14.1792 13.8962 14.8123 13.8937 15.2044 14.2827C15.5965 14.6717 15.599 15.3048 15.21 15.6969C14.5678 16.3442 13.7593 16.7816 12.8753 16.9336C11.9899 17.0859 11.0891 16.9411 10.2865 16.527C9.4864 16.1142 8.82784 15.4573 8.37418 14.6544C7.92082 13.8521 7.68506 12.9282 7.68506 11.9926C7.68506 11.0569 7.92082 10.1331 8.37418 9.33073C8.82784 8.52783 9.4864 7.87092 10.2865 7.45812Z" fill="#1F2937"/>
</svg>
