<svg width="24" height="24" viewBox="0 0 24 24" fill="none" xmlns="http://www.w3.org/2000/svg">
<path fill-rule="evenodd" clip-rule="evenodd" d="M10 8.99255C9.44772 8.99255 9 9.44027 9 9.99255V17.9926C9 18.5448 9.44772 18.9926 10 18.9926H18C18.5523 18.9926 19 18.5448 19 17.9926V9.99255C19 9.44027 18.5523 8.99255 18 8.99255H10ZM7 9.99255C7 8.3357 8.34315 6.99255 10 6.99255H18C19.6569 6.99255 21 8.3357 21 9.99255V17.9926C21 19.6494 19.6569 20.9926 18 20.9926H10C8.34315 20.9926 7 19.6494 7 17.9926V9.99255Z" fill="#1F2937"/>
<path fill-rule="evenodd" clip-rule="evenodd" d="M3.87868 3.88613C4.44129 3.32352 5.20435 3.00745 6 3.00745H14C14.7956 3.00745 15.5587 3.32352 16.1213 3.88613C16.6839 4.44873 17 5.2118 17 6.00745V8.00745C17 8.55973 16.5523 9.00745 16 9.00745C15.4477 9.00745 15 8.55973 15 8.00745V6.00745C15 5.74223 14.8946 5.48788 14.7071 5.30034C14.5196 5.1128 14.2652 5.00745 14 5.00745H6C5.73478 5.00745 5.48043 5.1128 5.29289 5.30034C5.10536 5.48788 5 5.74223 5 6.00745V14.0074C5 14.2727 5.10536 14.527 5.29289 14.7146C5.48043 14.9021 5.73478 15.0074 6 15.0074H8C8.55228 15.0074 9 15.4552 9 16.0074C9 16.5597 8.55228 17.0074 8 17.0074H6C5.20435 17.0074 4.44129 16.6914 3.87868 16.1288C3.31607 15.5662 3 14.8031 3 14.0074V6.00745C3 5.2118 3.31607 4.44874 3.87868 3.88613Z" fill="#1F2937"/>
</svg>
