<svg width="24" height="24" viewBox="0 0 24 24" fill="none" xmlns="http://www.w3.org/2000/svg">
<path fill-rule="evenodd" clip-rule="evenodd" d="M10.7071 3.30034C11.0976 3.69086 11.0976 4.32403 10.7071 4.71455L7.41421 8.00745H15C16.0609 8.00745 17.0783 8.42887 17.8284 9.17902C18.5786 9.92916 19 10.9466 19 12.0074V18.0074C19 18.5597 18.5523 19.0074 18 19.0074C17.4477 19.0074 17 18.5597 17 18.0074V12.0074C17 11.477 16.7893 10.9683 16.4142 10.5932C16.0391 10.2182 15.5304 10.0074 15 10.0074H7.41421L10.7071 13.3003C11.0976 13.6909 11.0976 14.324 10.7071 14.7146C10.3166 15.1051 9.68342 15.1051 9.29289 14.7146L4.29289 9.71455C3.90237 9.32403 3.90237 8.69086 4.29289 8.30034L9.29289 3.30034C9.68342 2.90982 10.3166 2.90982 10.7071 3.30034Z" fill="#1F2937"/>
</svg>
