<svg width="24" height="24" viewBox="0 0 24 24" fill="none" xmlns="http://www.w3.org/2000/svg">
<path fill-rule="evenodd" clip-rule="evenodd" d="M13.2929 3.30034C13.6834 2.90982 14.3166 2.90982 14.7071 3.30034L19.7071 8.30034C20.0976 8.69086 20.0976 9.32403 19.7071 9.71455L14.7071 14.7146C14.3166 15.1051 13.6834 15.1051 13.2929 14.7146C12.9024 14.324 12.9024 13.6909 13.2929 13.3003L16.5858 10.0074H9C8.46957 10.0074 7.96086 10.2182 7.58579 10.5932C7.21071 10.9683 7 11.477 7 12.0074V18.0074C7 18.5597 6.55228 19.0074 6 19.0074C5.44772 19.0074 5 18.5597 5 18.0074V12.0074C5 10.9466 5.42143 9.92916 6.17157 9.17902C6.92172 8.42887 7.93913 8.00745 9 8.00745H16.5858L13.2929 4.71455C12.9024 4.32403 12.9024 3.69086 13.2929 3.30034Z" fill="#1F2937"/>
</svg>
