<svg width="24" height="24" viewBox="0 0 24 24" fill="none" xmlns="http://www.w3.org/2000/svg">
<path fill-rule="evenodd" clip-rule="evenodd" d="M8.29289 4.28545C8.68342 3.89492 9.31658 3.89492 9.70711 4.28545L14.7071 9.28545C15.0976 9.67597 15.0976 10.3091 14.7071 10.6997C14.3166 11.0902 13.6834 11.0902 13.2929 10.6997L10 7.40677V14.9926C10 15.523 10.2107 16.0317 10.5858 16.4068C10.9609 16.7818 11.4696 16.9926 12 16.9926H18C18.5523 16.9926 19 17.4403 19 17.9926C19 18.5448 18.5523 18.9926 18 18.9926H12C10.9391 18.9926 9.92172 18.5711 9.17157 17.821C8.42143 17.0708 8 16.0534 8 14.9926V7.40677L4.70711 10.6997C4.31658 11.0902 3.68342 11.0902 3.29289 10.6997C2.90237 10.3091 2.90237 9.67597 3.29289 9.28545L8.29289 4.28545Z" fill="#1F2937"/>
</svg>
