<svg width="24" height="24" viewBox="0 0 24 24" fill="none" xmlns="http://www.w3.org/2000/svg">
<path fill-rule="evenodd" clip-rule="evenodd" d="M14.2929 4.28545C14.6834 3.89492 15.3166 3.89492 15.7071 4.28545L20.7071 9.28545C21.0976 9.67597 21.0976 10.3091 20.7071 10.6997C20.3166 11.0902 19.6834 11.0902 19.2929 10.6997L16 7.40677V14.9926C16 16.0534 15.5786 17.0708 14.8284 17.821C14.0783 18.5711 13.0609 18.9926 12 18.9926H6C5.44772 18.9926 5 18.5448 5 17.9926C5 17.4403 5.44772 16.9926 6 16.9926H12C12.5304 16.9926 13.0391 16.7818 13.4142 16.4068C13.7893 16.0317 14 15.523 14 14.9926V7.40677L10.7071 10.6997C10.3166 11.0902 9.68342 11.0902 9.29289 10.6997C8.90237 10.3091 8.90237 9.67597 9.29289 9.28545L14.2929 4.28545Z" fill="#1F2937"/>
</svg>
