<svg width="24" height="24" viewBox="0 0 24 24" fill="none" xmlns="http://www.w3.org/2000/svg">
<path fill-rule="evenodd" clip-rule="evenodd" d="M6 5.99255C4.89543 5.99255 4 6.88798 4 7.99255V15.9926C4 17.0971 4.89543 17.9926 6 17.9926H18C19.1046 17.9926 20 17.0971 20 15.9926V7.99255C20 6.88798 19.1046 5.99255 18 5.99255H6ZM2 7.99255C2 5.78341 3.79086 3.99255 6 3.99255H18C20.2091 3.99255 22 5.78341 22 7.99255V15.9926C22 18.2017 20.2091 19.9926 18 19.9926H6C3.79086 19.9926 2 18.2017 2 15.9926V7.99255Z" fill="#1F2937"/>
<path fill-rule="evenodd" clip-rule="evenodd" d="M2 10.0074C2 9.45516 2.44772 9.00745 3 9.00745H21C21.5523 9.00745 22 9.45516 22 10.0074C22 10.5597 21.5523 11.0074 21 11.0074H3C2.44772 11.0074 2 10.5597 2 10.0074Z" fill="#1F2937"/>
<path fill-rule="evenodd" clip-rule="evenodd" d="M6 15C6 14.4477 6.44772 14 7 14H7.01C7.56228 14 8.01 14.4477 8.01 15C8.01 15.5523 7.56228 16 7.01 16H7C6.44772 16 6 15.5523 6 15Z" fill="#1F2937"/>
<path fill-rule="evenodd" clip-rule="evenodd" d="M10 15C10 14.4477 10.4477 14 11 14H13C13.5523 14 14 14.4477 14 15C14 15.5523 13.5523 16 13 16H11C10.4477 16 10 15.5523 10 15Z" fill="#1F2937"/>
</svg>
