<svg width="24" height="24" viewBox="0 0 24 24" fill="none" xmlns="http://www.w3.org/2000/svg">
<path fill-rule="evenodd" clip-rule="evenodd" d="M6.00003 6C6.00003 5.44772 6.44774 5 7.00003 5H18C18.5523 5 19 5.44772 19 6C19 6.55228 18.5523 7 18 7H14.0001C14.6454 7.8604 15 8.91191 15 10C15 11.3261 14.4732 12.5979 13.5356 13.5355C12.5979 14.4732 11.3261 15 10 15H9.41424L13.7071 19.2929C14.0977 19.6834 14.0977 20.3166 13.7071 20.7071C13.3166 21.0976 12.6834 21.0976 12.2929 20.7071L6.29292 14.7071C6.00692 14.4211 5.92137 13.991 6.07615 13.6173C6.23093 13.2436 6.59557 13 7.00003 13H10C10.7957 13 11.5587 12.6839 12.1213 12.1213C12.684 11.5587 13 10.7956 13 10C13 9.20435 12.684 8.44129 12.1213 7.87868C11.5587 7.31607 10.7957 7 10 7H7.00003C6.44774 7 6.00003 6.55228 6.00003 6Z" fill="#1F2937"/>
<path fill-rule="evenodd" clip-rule="evenodd" d="M6 10.0074C6 9.45516 6.44772 9.00745 7 9.00745H18C18.5523 9.00745 19 9.45516 19 10.0074C19 10.5597 18.5523 11.0074 18 11.0074H7C6.44772 11.0074 6 10.5597 6 10.0074Z" fill="#1F2937"/>
</svg>
