<svg width="24" height="24" viewBox="0 0 24 24" fill="none" xmlns="http://www.w3.org/2000/svg">
<path fill-rule="evenodd" clip-rule="evenodd" d="M14.1376 6.23973C13.5296 5.99055 12.8566 5.94786 12.222 6.11822C11.5874 6.28858 11.0263 6.66257 10.6248 7.18274C10.224 7.70218 10.0045 8.33869 9.9999 8.99476V11.9915H13.8999C14.4522 11.9915 14.8999 12.4392 14.8999 12.9915C14.8999 13.5438 14.4522 13.9915 13.8999 13.9915H9.9999V16.4915C9.9999 16.5288 9.99781 16.5661 9.99365 16.6032C9.97228 16.7933 9.93738 16.981 9.88951 17.1648C10.7165 17.1467 11.5416 17.2754 12.3262 17.5463C12.3569 17.5569 12.3871 17.5689 12.4166 17.5825C13.0702 17.8821 13.7808 18.0372 14.4999 18.0372C15.219 18.0372 15.9296 17.8821 16.5832 17.5825C17.0853 17.3523 17.6788 17.5728 17.909 18.0749C18.1391 18.5769 17.9186 19.1705 17.4166 19.4006C16.5014 19.82 15.5066 20.0372 14.4999 20.0372C13.5108 20.0372 12.5332 19.8276 11.6313 19.4224C10.9603 19.1975 10.2491 19.1175 9.54454 19.1879C9.07431 19.2349 8.61439 19.3483 8.17819 19.5235C7.91306 19.6935 7.62752 19.8325 7.32698 19.9365C6.84134 20.1046 6.30736 19.8772 6.09197 19.4106C5.87658 18.944 6.04992 18.3902 6.49288 18.1296C6.72665 17.9921 6.96768 17.8686 7.21466 17.7595C7.35047 17.6582 7.47351 17.5395 7.5804 17.4059C7.80587 17.1241 7.95067 16.7868 7.9999 16.4298V13.9915H6.8999C6.34762 13.9915 5.8999 13.5438 5.8999 12.9915C5.8999 12.4392 6.34762 11.9915 6.8999 11.9915H7.9999V8.9855C8.0065 7.89041 8.37246 6.82777 9.04153 5.96082C9.7106 5.09386 10.6458 4.47055 11.7034 4.18661C12.7611 3.90268 13.8827 3.97383 14.896 4.38914C15.9093 4.80445 16.7583 5.54094 17.3124 6.4855C17.5919 6.96185 17.4323 7.57457 16.9559 7.85404C16.4796 8.13351 15.8669 7.9739 15.5874 7.49755C15.2549 6.93082 14.7455 6.48892 14.1376 6.23973Z" fill="#1F2937"/>
</svg>
