<svg width="24" height="24" viewBox="0 0 24 24" fill="none" xmlns="http://www.w3.org/2000/svg">
<path fill-rule="evenodd" clip-rule="evenodd" d="M10.2364 4.64126C11.5251 4.00949 12.9568 3.83172 14.3439 4.14076C15.7286 4.44925 16.9803 5.22259 17.9527 6.33415C18.3164 6.74982 18.2742 7.38158 17.8585 7.74522C17.4429 8.10886 16.8111 8.06668 16.4475 7.651C15.732 6.83322 14.8453 6.30151 13.909 6.09289C12.975 5.88482 12.0065 6.00089 11.1168 6.43707C10.2238 6.87487 9.43649 7.62336 8.87261 8.61337C8.30841 9.60395 8.00098 10.7799 8.00098 11.9926C8.00098 13.2052 8.30841 14.3812 8.87261 15.3718C9.43649 16.3618 10.2238 17.1103 11.1168 17.5481C12.0065 17.9843 12.975 18.1004 13.909 17.8923C14.8453 17.6837 15.732 17.1519 16.4475 16.3342C16.8111 15.9185 17.4429 15.8763 17.8585 16.2399C18.2742 16.6036 18.3164 17.2353 17.9527 17.651C16.9803 18.7626 15.7286 19.5359 14.3439 19.8444C12.9568 20.1534 11.5251 19.9757 10.2364 19.3439C8.95102 18.7137 7.87862 17.6677 7.13473 16.3616C6.39117 15.0561 6.00098 13.5367 6.00098 11.9926C6.00098 10.4485 6.39117 8.92902 7.13473 7.62353C7.87862 6.31746 8.95102 5.27142 10.2364 4.64126Z" fill="#1F2937"/>
<path fill-rule="evenodd" clip-rule="evenodd" d="M4 10.0074C4 9.45516 4.44772 9.00745 5 9.00745H13C13.5523 9.00745 14 9.45516 14 10.0074C14 10.5597 13.5523 11.0074 13 11.0074H5C4.44772 11.0074 4 10.5597 4 10.0074ZM4 14.0074C4 13.4552 4.44772 13.0074 5 13.0074H13C13.5523 13.0074 14 13.4552 14 14.0074C14 14.5597 13.5523 15.0074 13 15.0074H5C4.44772 15.0074 4 14.5597 4 14.0074Z" fill="#1F2937"/>
</svg>
