<svg width="24" height="24" viewBox="0 0 24 24" fill="none" xmlns="http://www.w3.org/2000/svg">
<path fill-rule="evenodd" clip-rule="evenodd" d="M12 11.9926C11.4477 11.9926 11 12.4403 11 12.9926C11 13.5448 11.4477 13.9926 12 13.9926C12.5523 13.9926 13 13.5448 13 12.9926C13 12.4403 12.5523 11.9926 12 11.9926ZM9 12.9926C9 11.3357 10.3431 9.99255 12 9.99255C13.6569 9.99255 15 11.3357 15 12.9926C15 14.6494 13.6569 15.9926 12 15.9926C10.3431 15.9926 9 14.6494 9 12.9926Z" fill="#1F2937"/>
<path fill-rule="evenodd" clip-rule="evenodd" d="M16.2073 8.78545C16.5978 9.17597 16.5978 9.80914 16.2073 10.1997L14.1573 12.2497C13.7668 12.6402 13.1336 12.6402 12.7431 12.2497C12.3526 11.8591 12.3526 11.226 12.7431 10.8354L14.7931 8.78545C15.1836 8.39492 15.8168 8.39492 16.2073 8.78545Z" fill="#1F2937"/>
<path fill-rule="evenodd" clip-rule="evenodd" d="M12 4.96094C10.3401 4.96094 8.72133 5.47725 7.36799 6.43833C6.01464 7.3994 4.99375 8.75764 4.4468 10.3248C3.89984 11.892 3.85391 13.5905 4.31536 15.185C4.74525 16.6704 5.59567 17.9969 6.76061 19.0065H17.2394C18.4043 17.9969 19.2547 16.6704 19.6846 15.185C20.1461 13.5905 20.1002 11.892 19.5532 10.3248C19.0062 8.75764 17.9854 7.3994 16.632 6.43833C15.2787 5.47725 13.6599 4.96094 12 4.96094ZM6.20998 4.80767C7.90167 3.60633 9.92515 2.96094 12 2.96094C14.0749 2.96094 16.0983 3.60633 17.79 4.80767C19.4817 6.00902 20.7578 7.70682 21.4415 9.66579C22.1252 11.6248 22.1826 13.7479 21.6058 15.741C21.029 17.734 19.8465 19.4983 18.2222 20.7893C18.0453 20.93 17.826 21.0065 17.6 21.0065H6.4C6.17401 21.0065 5.95469 20.93 5.77778 20.7893C4.1535 19.4983 2.97101 17.734 2.3942 15.741C1.81738 13.7479 1.8748 11.6248 2.55849 9.66579C3.24219 7.70682 4.5183 6.00902 6.20998 4.80767Z" fill="#1F2937"/>
</svg>
