<svg width="24" height="24" viewBox="0 0 24 24" fill="none" xmlns="http://www.w3.org/2000/svg">
<path fill-rule="evenodd" clip-rule="evenodd" d="M12.1067 4.00584L5.26496 16.0992L11.8931 20.0392L18.7349 7.94582L12.1067 4.00584ZM18.74 7.93586C18.74 7.93566 18.74 7.93566 18.74 7.93589L18.74 7.93586ZM11.8872 20.0487L11.8873 20.0487L11.8872 20.0487ZM5.25983 16.1092C5.2598 16.1094 5.25978 16.1094 5.25983 16.1091L5.25983 16.1092ZM10.3908 2.97816C10.9222 2.03871 12.1126 1.6832 13.0666 2.25033L19.7445 6.21986C20.6986 6.787 20.9888 8.02257 20.4573 8.96202L13.6091 21.0669C13.0776 22.0063 11.8873 22.3618 10.9332 21.7947L4.25529 17.8252C3.30121 17.258 3.01103 16.0224 3.54252 15.083L10.3908 2.97816Z" fill="#1F2937"/>
<path fill-rule="evenodd" clip-rule="evenodd" d="M13.3959 4.8661C13.6466 4.37402 14.2488 4.17836 14.7409 4.42909L16.5229 5.33707C17.015 5.5878 17.2106 6.18998 16.9599 6.68207C16.7092 7.17416 16.107 7.36982 15.6149 7.11908L13.8329 6.2111C13.3408 5.96037 13.1451 5.35819 13.3959 4.8661Z" fill="#1F2937"/>
<path fill-rule="evenodd" clip-rule="evenodd" d="M10.1848 15.5625C10.6768 15.8134 10.872 16.4155 10.6209 16.9074L10.6163 16.9163C10.3652 17.4081 9.76272 17.6035 9.27072 17.3526C8.77872 17.1017 8.58348 16.4995 8.83464 16.0077L8.83918 15.9988C9.09034 15.5069 9.69279 15.3116 10.1848 15.5625Z" fill="#1F2937"/>
<path fill-rule="evenodd" clip-rule="evenodd" d="M6.89443 3.56033C7.14142 4.05431 6.94119 4.65498 6.44721 4.90197L5 5.62558V7.50754C5 7.88632 4.786 8.23258 4.44721 8.40197L3 9.12558V11.0075C3 11.5598 2.55228 12.0075 2 12.0075C1.44772 12.0075 1 11.5598 1 11.0075V8.50754C1 8.12877 1.214 7.78251 1.55279 7.61312L3 6.88951V5.00754C3 4.62877 3.214 4.28251 3.55279 4.11312L5.55279 3.11312C6.04676 2.86613 6.64744 3.06635 6.89443 3.56033Z" fill="#1F2937"/>
<path fill-rule="evenodd" clip-rule="evenodd" d="M22 12.0076C22.5523 12.0076 23 12.4553 23 13.0076V15.5076C23 15.8863 22.786 16.2326 22.4472 16.402L21 17.1256V19.0076C21 19.3863 20.786 19.7326 20.4472 19.902L18.4472 20.902C17.9532 21.149 17.3525 20.9488 17.1055 20.4548C16.8586 19.9608 17.0588 19.3601 17.5528 19.1131L19 18.3895V16.5076C19 16.1288 19.214 15.7825 19.5528 15.6131L21 14.8895V13.0076C21 12.4553 21.4477 12.0076 22 12.0076Z" fill="#1F2937"/>
</svg>
