<svg width="24" height="24" viewBox="0 0 24 24" fill="none" xmlns="http://www.w3.org/2000/svg">
<path fill-rule="evenodd" clip-rule="evenodd" d="M12 8.99243C12 7.88786 12.8954 6.99243 14 6.99243H20C21.1046 6.99243 22 7.88786 22 8.99243V18.9924C22 20.097 21.1046 20.9924 20 20.9924H14C12.8954 20.9924 12 20.097 12 18.9924V8.99243ZM20 8.99243H14V18.9924H20V8.99243Z" fill="#1F2937"/>
<path fill-rule="evenodd" clip-rule="evenodd" d="M2.58579 3.59336C2.96086 3.21828 3.46957 3.00757 4 3.00757H17C17.5304 3.00757 18.0391 3.21828 18.4142 3.59336C18.7893 3.96843 19 4.47714 19 5.00757V8.00757C19 8.55985 18.5523 9.00757 18 9.00757C17.4477 9.00757 17 8.55985 17 8.00757L17 5.00757H4V17.0076H13C13.5523 17.0076 14 17.4553 14 18.0076C14 18.5599 13.5523 19.0076 13 19.0076H4C3.46957 19.0076 2.96086 18.7969 2.58579 18.4218C2.21071 18.0467 2 17.538 2 17.0076V5.00757C2 4.47714 2.21071 3.96843 2.58579 3.59336Z" fill="#1F2937"/>
<path fill-rule="evenodd" clip-rule="evenodd" d="M15 9C15 8.44772 15.4477 8 16 8H18C18.5523 8 19 8.44772 19 9C19 9.55228 18.5523 10 18 10H16C15.4477 10 15 9.55228 15 9Z" fill="#1F2937"/>
</svg>
