<svg width="24" height="24" viewBox="0 0 24 24" fill="none" xmlns="http://www.w3.org/2000/svg">
<path fill-rule="evenodd" clip-rule="evenodd" d="M7 4C6.44772 4 6 4.44772 6 5V19C6 19.5523 6.44772 20 7 20H17C17.5523 20 18 19.5523 18 19V5C18 4.44772 17.5523 4 17 4H7ZM4 5C4 3.34315 5.34315 2 7 2H17C18.6569 2 20 3.34315 20 5V19C20 20.6569 18.6569 22 17 22H7C5.34315 22 4 20.6569 4 19V5Z" fill="#1F2937"/>
<path fill-rule="evenodd" clip-rule="evenodd" d="M12 11.9924C10.8954 11.9924 10 12.8879 10 13.9924C10 15.097 10.8954 15.9924 12 15.9924C13.1046 15.9924 14 15.097 14 13.9924C14 12.8879 13.1046 11.9924 12 11.9924ZM8 13.9924C8 11.7833 9.79086 9.99243 12 9.99243C14.2091 9.99243 16 11.7833 16 13.9924C16 16.2016 14.2091 17.9924 12 17.9924C9.79086 17.9924 8 16.2016 8 13.9924Z" fill="#1F2937"/>
<path fill-rule="evenodd" clip-rule="evenodd" d="M12 6.00757C12.5523 6.00757 13 6.45528 13 7.00757V7.01757C13 7.56985 12.5523 8.01757 12 8.01757C11.4477 8.01757 11 7.56985 11 7.01757V7.00757C11 6.45528 11.4477 6.00757 12 6.00757Z" fill="#1F2937"/>
</svg>
