<svg width="24" height="24" viewBox="0 0 24 24" fill="none" xmlns="http://www.w3.org/2000/svg">
<path fill-rule="evenodd" clip-rule="evenodd" d="M2 5.00757C2 3.903 2.89543 3.00757 4 3.00757H20C21.1046 3.00757 22 3.903 22 5.00757V15.0076C22 16.1121 21.1046 17.0076 20 17.0076H4C2.89543 17.0076 2 16.1121 2 15.0076V5.00757ZM20 5.00757H4V15.0076H20V5.00757Z" fill="#1F2937"/>
<path fill-rule="evenodd" clip-rule="evenodd" d="M6 19.9924C6 19.4401 6.44772 18.9924 7 18.9924H17C17.5523 18.9924 18 19.4401 18 19.9924C18 20.5447 17.5523 20.9924 17 20.9924H7C6.44772 20.9924 6 20.5447 6 19.9924Z" fill="#1F2937"/>
<path fill-rule="evenodd" clip-rule="evenodd" d="M9 15.0076C9.55228 15.0076 10 15.4553 10 16.0076V20.0076C10 20.5599 9.55228 21.0076 9 21.0076C8.44772 21.0076 8 20.5599 8 20.0076V16.0076C8 15.4553 8.44772 15.0076 9 15.0076Z" fill="#1F2937"/>
<path fill-rule="evenodd" clip-rule="evenodd" d="M15 15.0076C15.5523 15.0076 16 15.4553 16 16.0076V20.0076C16 20.5599 15.5523 21.0076 15 21.0076C14.4477 21.0076 14 20.5599 14 20.0076V16.0076C14 15.4553 14.4477 15.0076 15 15.0076Z" fill="#1F2937"/>
</svg>
