<svg width="24" height="24" viewBox="0 0 24 24" fill="none" xmlns="http://www.w3.org/2000/svg">
<path fill-rule="evenodd" clip-rule="evenodd" d="M6 5.00757C6 3.903 6.89543 3.00757 8 3.00757H16C17.1046 3.00757 18 3.903 18 5.00757V19.0076C18 20.1121 17.1046 21.0076 16 21.0076H8C6.89543 21.0076 6 20.1121 6 19.0076V5.00757ZM16 5.00757H8V19.0076H16V5.00757Z" fill="#1F2937"/>
<path fill-rule="evenodd" clip-rule="evenodd" d="M10 4.99243C10 4.44015 10.4477 3.99243 11 3.99243H13C13.5523 3.99243 14 4.44015 14 4.99243C14 5.54472 13.5523 5.99243 13 5.99243H11C10.4477 5.99243 10 5.54472 10 4.99243Z" fill="#1F2937"/>
<path fill-rule="evenodd" clip-rule="evenodd" d="M12 15.9924C12.5523 15.9924 13 16.4401 13 16.9924V17.0024C13 17.5547 12.5523 18.0024 12 18.0024C11.4477 18.0024 11 17.5547 11 17.0024V16.9924C11 16.4401 11.4477 15.9924 12 15.9924Z" fill="#1F2937"/>
</svg>
