<svg width="24" height="24" viewBox="0 0 24 24" fill="none" xmlns="http://www.w3.org/2000/svg">
<path fill-rule="evenodd" clip-rule="evenodd" d="M4 7C3.44772 7 3 7.44772 3 8V16C3 16.5523 3.44772 17 4 17H20C20.5523 17 21 16.5523 21 16V8C21 7.44772 20.5523 7 20 7H4ZM1 8C1 6.34315 2.34315 5 4 5H20C21.6569 5 23 6.34315 23 8V16C23 17.6569 21.6569 19 20 19H4C2.34315 19 1 17.6569 1 16V8Z" fill="#1F2937"/>
<path fill-rule="evenodd" clip-rule="evenodd" d="M8 9.00757C8.55228 9.00757 9 9.45528 9 10.0076V11.0076H10C10.5523 11.0076 11 11.4553 11 12.0076C11 12.5599 10.5523 13.0076 10 13.0076H9V14.0076C9 14.5599 8.55228 15.0076 8 15.0076C7.44772 15.0076 7 14.5599 7 14.0076V13.0076H6C5.44772 13.0076 5 12.5599 5 12.0076C5 11.4553 5.44772 11.0076 6 11.0076H7V10.0076C7 9.45528 7.44772 9.00757 8 9.00757Z" fill="#1F2937"/>
<path fill-rule="evenodd" clip-rule="evenodd" d="M15 9.99243C15.5523 9.99243 16 10.4401 16 10.9924V11.0024C16 11.5547 15.5523 12.0024 15 12.0024C14.4477 12.0024 14 11.5547 14 11.0024V10.9924C14 10.4401 14.4477 9.99243 15 9.99243Z" fill="#1F2937"/>
<path fill-rule="evenodd" clip-rule="evenodd" d="M18 12.0076C18.5523 12.0076 19 12.4553 19 13.0076V13.0176C19 13.5699 18.5523 14.0176 18 14.0176C17.4477 14.0176 17 13.5699 17 13.0176V13.0076C17 12.4553 17.4477 12.0076 18 12.0076Z" fill="#1F2937"/>
</svg>
