<svg width="24" height="24" viewBox="0 0 24 24" fill="none" xmlns="http://www.w3.org/2000/svg">
<path fill-rule="evenodd" clip-rule="evenodd" d="M5 8.00757C4.44772 8.00757 4 8.45528 4 9.00757V18.0076C4 18.5599 4.44772 19.0076 5 19.0076H19C19.5523 19.0076 20 18.5599 20 18.0076V9.00757C20 8.45528 19.5523 8.00757 19 8.00757H5ZM2 9.00757C2 7.35071 3.34315 6.00757 5 6.00757H19C20.6569 6.00757 22 7.35071 22 9.00757V18.0076C22 19.6644 20.6569 21.0076 19 21.0076H5C3.34315 21.0076 2 19.6644 2 18.0076V9.00757Z" fill="#1F2937"/>
<path fill-rule="evenodd" clip-rule="evenodd" d="M7.29289 2.29289C7.68342 1.90237 8.31658 1.90237 8.70711 2.29289L12 5.58579L15.2929 2.29289C15.6834 1.90237 16.3166 1.90237 16.7071 2.29289C17.0976 2.68342 17.0976 3.31658 16.7071 3.70711L12.7071 7.70711C12.3166 8.09763 11.6834 8.09763 11.2929 7.70711L7.29289 3.70711C6.90237 3.31658 6.90237 2.68342 7.29289 2.29289Z" fill="#1F2937"/>
</svg>
