<svg width="24" height="24" viewBox="0 0 24 24" fill="none" xmlns="http://www.w3.org/2000/svg">
<path fill-rule="evenodd" clip-rule="evenodd" d="M6 5.00757C5.73478 5.00757 5.48043 5.11293 5.29289 5.30046C5.10536 5.488 5 5.74235 5 6.00757V18.0076C5 18.2728 5.10536 18.5271 5.29289 18.7147C5.48043 18.9022 5.73478 19.0076 6 19.0076H18C18.2652 19.0076 18.5196 18.9022 18.7071 18.7147C18.8946 18.5271 19 18.2728 19 18.0076V8.42178L15.5858 5.00757H6ZM3.87868 3.88625C4.44129 3.32364 5.20435 3.00757 6 3.00757H16C16.2652 3.00757 16.5196 3.11293 16.7071 3.30046L20.7071 7.30046C20.8946 7.488 21 7.74235 21 8.00757V18.0076C21 18.8032 20.6839 19.5663 20.1213 20.1289C19.5587 20.6915 18.7957 21.0076 18 21.0076H6C5.20435 21.0076 4.44129 20.6915 3.87868 20.1289C3.31607 19.5663 3 18.8032 3 18.0076V6.00757C3 5.21192 3.31607 4.44886 3.87868 3.88625Z" fill="#1F2937"/>
<path fill-rule="evenodd" clip-rule="evenodd" d="M12 13C11.4477 13 11 13.4477 11 14C11 14.5523 11.4477 15 12 15C12.5523 15 13 14.5523 13 14C13 13.4477 12.5523 13 12 13ZM9 14C9 12.3431 10.3431 11 12 11C13.6569 11 15 12.3431 15 14C15 15.6569 13.6569 17 12 17C10.3431 17 9 15.6569 9 14Z" fill="#1F2937"/>
<path fill-rule="evenodd" clip-rule="evenodd" d="M8 3.00757C8.55228 3.00757 9 3.45528 9 4.00757V7.00757H13V4.00757C13 3.45528 13.4477 3.00757 14 3.00757C14.5523 3.00757 15 3.45528 15 4.00757V8.00757C15 8.55985 14.5523 9.00757 14 9.00757H8C7.44772 9.00757 7 8.55985 7 8.00757V4.00757C7 3.45528 7.44772 3.00757 8 3.00757Z" fill="#1F2937"/>
</svg>
