<svg width="24" height="24" viewBox="0 0 24 24" fill="none" xmlns="http://www.w3.org/2000/svg">
<path fill-rule="evenodd" clip-rule="evenodd" d="M6 5.00745C5.44772 5.00745 5 5.45516 5 6.00745V18.0074C5 18.5597 5.44772 19.0074 6 19.0074H18C18.5523 19.0074 19 18.5597 19 18.0074V6.00745C19 5.45516 18.5523 5.00745 18 5.00745H6ZM3 6.00745C3 4.35059 4.34315 3.00745 6 3.00745H18C19.6569 3.00745 21 4.35059 21 6.00745V18.0074C21 19.6643 19.6569 21.0074 18 21.0074H6C4.34315 21.0074 3 19.6643 3 18.0074V6.00745Z" fill="#1F2937"/>
<path d="M8.5 8.99255C8.77614 8.99255 9 8.7687 9 8.49255C9 8.21641 8.77614 7.99255 8.5 7.99255C8.22386 7.99255 8 8.21641 8 8.49255C8 8.7687 8.22386 8.99255 8.5 8.99255Z" fill="#1F2937"/>
<path fill-rule="evenodd" clip-rule="evenodd" d="M8.5 8.99255C8.77614 8.99255 9 8.7687 9 8.49255C9 8.21641 8.77614 7.99255 8.5 7.99255C8.22386 7.99255 8 8.21641 8 8.49255C8 8.7687 8.22386 8.99255 8.5 8.99255ZM7 8.49255C7 7.66413 7.67157 6.99255 8.5 6.99255C9.32843 6.99255 10 7.66413 10 8.49255C10 9.32098 9.32843 9.99255 8.5 9.99255C7.67157 9.99255 7 9.32098 7 8.49255Z" fill="#1F2937"/>
<path d="M15.5 8.99255C15.7761 8.99255 16 8.7687 16 8.49255C16 8.21641 15.7761 7.99255 15.5 7.99255C15.2239 7.99255 15 8.21641 15 8.49255C15 8.7687 15.2239 8.99255 15.5 8.99255Z" fill="#1F2937"/>
<path fill-rule="evenodd" clip-rule="evenodd" d="M15.5 8.99255C15.7761 8.99255 16 8.7687 16 8.49255C16 8.21641 15.7761 7.99255 15.5 7.99255C15.2239 7.99255 15 8.21641 15 8.49255C15 8.7687 15.2239 8.99255 15.5 8.99255ZM14 8.49255C14 7.66413 14.6716 6.99255 15.5 6.99255C16.3284 6.99255 17 7.66413 17 8.49255C17 9.32098 16.3284 9.99255 15.5 9.99255C14.6716 9.99255 14 9.32098 14 8.49255Z" fill="#1F2937"/>
<path d="M15.5 16C15.7761 16 16 15.7761 16 15.5C16 15.2239 15.7761 15 15.5 15C15.2239 15 15 15.2239 15 15.5C15 15.7761 15.2239 16 15.5 16Z" fill="#1F2937"/>
<path fill-rule="evenodd" clip-rule="evenodd" d="M15.5 16C15.7761 16 16 15.7761 16 15.5C16 15.2239 15.7761 15 15.5 15C15.2239 15 15 15.2239 15 15.5C15 15.7761 15.2239 16 15.5 16ZM14 15.5C14 14.6716 14.6716 14 15.5 14C16.3284 14 17 14.6716 17 15.5C17 16.3284 16.3284 17 15.5 17C14.6716 17 14 16.3284 14 15.5Z" fill="#1F2937"/>
<path d="M8.5 16C8.77614 16 9 15.7761 9 15.5C9 15.2239 8.77614 15 8.5 15C8.22386 15 8 15.2239 8 15.5C8 15.7761 8.22386 16 8.5 16Z" fill="#1F2937"/>
<path fill-rule="evenodd" clip-rule="evenodd" d="M8.5 16C8.77614 16 9 15.7761 9 15.5C9 15.2239 8.77614 15 8.5 15C8.22386 15 8 15.2239 8 15.5C8 15.7761 8.22386 16 8.5 16ZM7 15.5C7 14.6716 7.67157 14 8.5 14C9.32843 14 10 14.6716 10 15.5C10 16.3284 9.32843 17 8.5 17C7.67157 17 7 16.3284 7 15.5Z" fill="#1F2937"/>
</svg>
