<svg width="24" height="24" viewBox="0 0 24 24" fill="none" xmlns="http://www.w3.org/2000/svg">
<path fill-rule="evenodd" clip-rule="evenodd" d="M7.58579 4.57834C7.96086 4.20327 8.46957 3.99255 9 3.99255H19C19.2652 3.99255 19.5196 4.09791 19.7071 4.28545L21.7071 6.28545C21.8946 6.47298 22 6.72734 22 6.99255C22 7.25777 21.8946 7.51212 21.7071 7.69966L19.7071 9.69966C19.5196 9.8872 19.2652 9.99255 19 9.99255H9C8.46957 9.99255 7.96086 9.78184 7.58579 9.40677C7.21071 9.03169 7 8.52299 7 7.99255V5.99255C7 5.46212 7.21071 4.95341 7.58579 4.57834ZM18.5858 5.99255L9 5.99255V7.99255H18.5858L19.5858 6.99255L18.5858 5.99255Z" fill="#1F2937"/>
<path fill-rule="evenodd" clip-rule="evenodd" d="M5.29289 12.3003C5.48043 12.1128 5.73478 12.0074 6 12.0074H13C13.5304 12.0074 14.0391 12.2182 14.4142 12.5932C14.7893 12.9683 15 13.477 15 14.0074V16.0074C15 16.5379 14.7893 17.0466 14.4142 17.4217C14.0391 17.7967 13.5304 18.0074 13 18.0074H6C5.73478 18.0074 5.48043 17.9021 5.29289 17.7146L3.29289 15.7146C3.10536 15.527 3 15.2727 3 15.0074C3 14.7422 3.10536 14.4879 3.29289 14.3003L5.29289 12.3003ZM6.41421 14.0074L5.41421 15.0074L6.41421 16.0074L13 16.0074V14.0074H6.41421Z" fill="#1F2937"/>
<path fill-rule="evenodd" clip-rule="evenodd" d="M12 15.9926C12.5523 15.9926 13 16.4403 13 16.9926V21.9926C13 22.5448 12.5523 22.9926 12 22.9926C11.4477 22.9926 11 22.5448 11 21.9926V16.9926C11 16.4403 11.4477 15.9926 12 15.9926Z" fill="#1F2937"/>
<path fill-rule="evenodd" clip-rule="evenodd" d="M12 8C12.5523 8 13 8.44772 13 9V13C13 13.5523 12.5523 14 12 14C11.4477 14 11 13.5523 11 13V9C11 8.44772 11.4477 8 12 8Z" fill="#1F2937"/>
<path fill-rule="evenodd" clip-rule="evenodd" d="M12 2C12.5523 2 13 2.44772 13 3V5C13 5.55228 12.5523 6 12 6C11.4477 6 11 5.55228 11 5V3C11 2.44772 11.4477 2 12 2Z" fill="#1F2937"/>
</svg>
