<svg width="24" height="24" viewBox="0 0 24 24" fill="none" xmlns="http://www.w3.org/2000/svg">
<path fill-rule="evenodd" clip-rule="evenodd" d="M11 4C10.4477 4 10 4.44772 10 5C10 5.55228 10.4477 6 11 6C11.5523 6 12 5.55228 12 5C12 4.44772 11.5523 4 11 4ZM8 5C8 3.34315 9.34315 2 11 2C12.6569 2 14 3.34315 14 5C14 6.65685 12.6569 8 11 8C9.34315 8 8 6.65685 8 5Z" fill="#1F2937"/>
<path fill-rule="evenodd" clip-rule="evenodd" d="M11 6.00757C11.5523 6.00757 12 6.45528 12 7.00757V14.0076H15C15.3038 14.0076 15.5911 14.1457 15.7809 14.3829L19.7809 19.3829C20.1259 19.8141 20.056 20.4434 19.6247 20.7884C19.1934 21.1334 18.5641 21.0635 18.2191 20.6323L14.5194 16.0076H11C10.4477 16.0076 10 15.5599 10 15.0076V7.00757C10 6.45528 10.4477 6.00757 11 6.00757Z" fill="#1F2937"/>
<path fill-rule="evenodd" clip-rule="evenodd" d="M10 10.9924C10 10.4401 10.4477 9.99243 11 9.99243H16C16.5523 9.99243 17 10.4401 17 10.9924C17 11.5447 16.5523 11.9924 16 11.9924H11C10.4477 11.9924 10 11.5447 10 10.9924Z" fill="#1F2937"/>
<path fill-rule="evenodd" clip-rule="evenodd" d="M7.9152 11.1051C8.1375 11.6106 7.90787 12.2007 7.4023 12.423C6.84526 12.6679 6.35199 13.0376 5.96057 13.5035C5.56916 13.9695 5.29008 14.5191 5.14491 15.1101C4.99974 15.701 4.99235 16.3174 5.12331 16.9116C5.25428 17.5059 5.52009 18.0621 5.90022 18.5372C6.28036 19.0124 6.76463 19.3938 7.31563 19.652C7.86664 19.9103 8.46962 20.0384 9.07801 20.0264C9.6864 20.0145 10.2839 19.8629 10.8244 19.5833C11.3649 19.3037 11.8338 18.9036 12.1951 18.414C12.5229 17.9695 13.149 17.875 13.5934 18.2029C14.0379 18.5307 14.1324 19.1568 13.8045 19.6012C13.2613 20.3376 12.5561 20.9393 11.7433 21.3597C10.9306 21.7802 10.0321 22.0081 9.11718 22.0261C8.2023 22.044 7.29554 21.8514 6.46695 21.463C5.63836 21.0747 4.91012 20.5012 4.33849 19.7866C3.76685 19.0721 3.36713 18.2357 3.17018 17.3421C2.97324 16.4485 2.98435 15.5215 3.20266 14.6329C3.42097 13.7443 3.84064 12.9177 4.42923 12.2171C5.01783 11.5164 5.75961 10.9605 6.59727 10.5922C7.10284 10.3699 7.6929 10.5995 7.9152 11.1051Z" fill="#1F2937"/>
</svg>
