<svg width="24" height="24" viewBox="0 0 24 24" fill="none" xmlns="http://www.w3.org/2000/svg">
<path fill-rule="evenodd" clip-rule="evenodd" d="M15.7071 8.29289C16.0976 8.68342 16.0976 9.31658 15.7071 9.70711L9.70711 15.7071C9.31658 16.0976 8.68342 16.0976 8.29289 15.7071C7.90237 15.3166 7.90237 14.6834 8.29289 14.2929L14.2929 8.29289C14.6834 7.90237 15.3166 7.90237 15.7071 8.29289Z" fill="#1F2937"/>
<path d="M9.5 10C9.77614 10 10 9.77614 10 9.5C10 9.22386 9.77614 9 9.5 9C9.22386 9 9 9.22386 9 9.5C9 9.77614 9.22386 10 9.5 10Z" fill="#1F2937"/>
<path fill-rule="evenodd" clip-rule="evenodd" d="M9.5 10C9.77614 10 10 9.77614 10 9.5C10 9.22386 9.77614 9 9.5 9C9.22386 9 9 9.22386 9 9.5C9 9.77614 9.22386 10 9.5 10ZM8 9.5C8 8.67157 8.67157 8 9.5 8C10.3284 8 11 8.67157 11 9.5C11 10.3284 10.3284 11 9.5 11C8.67157 11 8 10.3284 8 9.5Z" fill="#1F2937"/>
<path d="M14.5 14.9926C14.7761 14.9926 15 14.7687 15 14.4926C15 14.2164 14.7761 13.9926 14.5 13.9926C14.2239 13.9926 14 14.2164 14 14.4926C14 14.7687 14.2239 14.9926 14.5 14.9926Z" fill="#1F2937"/>
<path fill-rule="evenodd" clip-rule="evenodd" d="M14.5 14.9926C14.7761 14.9926 15 14.7687 15 14.4926C15 14.2164 14.7761 13.9926 14.5 13.9926C14.2239 13.9926 14 14.2164 14 14.4926C14 14.7687 14.2239 14.9926 14.5 14.9926ZM13 14.4926C13 13.6641 13.6716 12.9926 14.5 12.9926C15.3284 12.9926 16 13.6641 16 14.4926C16 15.321 15.3284 15.9926 14.5 15.9926C13.6716 15.9926 13 15.321 13 14.4926Z" fill="#1F2937"/>
<path fill-rule="evenodd" clip-rule="evenodd" d="M12.01 4C11.8518 4 11.6952 4.03126 11.5492 4.09199C11.4032 4.15272 11.2706 4.24171 11.1591 4.35386L11.1571 4.35585L10.4571 5.05585L10.4551 5.05783C9.85595 5.65362 9.04549 5.98826 8.20054 5.98874L7.19997 5.98874C6.88171 5.98874 6.57649 6.11517 6.35145 6.34021C6.1264 6.56526 5.99997 6.87048 5.99997 7.18874V8.18874C5.99949 9.03369 5.66485 9.84472 5.06906 10.4439L5.06708 10.4459L4.36708 11.1458L4.36509 11.1478C4.25294 11.2593 4.16395 11.3919 4.10322 11.538C4.04249 11.684 4.01123 11.8406 4.01123 11.9987C4.01123 12.1569 4.04249 12.3135 4.10322 12.4595C4.16395 12.6055 4.25294 12.7381 4.36509 12.8497L4.36708 12.8516L5.06907 13.5536C5.66485 14.1528 5.99949 14.9632 5.99997 15.8082L5.99997 16.8087C5.99997 17.127 6.1264 17.4322 6.35145 17.6573C6.57649 17.8823 6.88171 18.0087 7.19997 18.0087H8.19997C9.04492 18.0092 9.85595 18.3439 10.4551 18.9397L10.4571 18.9416L11.1591 19.6436C11.2706 19.7558 11.4032 19.8448 11.5492 19.9055C11.6952 19.9662 11.8518 19.9975 12.01 19.9975C12.1681 19.9975 12.3247 19.9662 12.4707 19.9055C12.6168 19.8448 12.7494 19.7558 12.8609 19.6436L12.8629 19.6416L13.5629 18.9416L13.5649 18.9397C14.164 18.3439 14.9745 18.0092 15.8194 18.0087H16.82C17.1382 18.0087 17.4435 17.8823 17.6685 17.6573C17.8935 17.4322 18.02 17.127 18.02 16.8087V15.8087C18.0205 14.9638 18.3551 14.1528 18.9509 13.5536L18.9529 13.5516L19.6529 12.8516L19.6549 12.8497C19.767 12.7381 19.856 12.6056 19.9167 12.4595C19.9775 12.3135 20.0087 12.1569 20.0087 11.9987C20.0087 11.8406 19.9775 11.684 19.9167 11.538C19.856 11.3919 19.767 11.2593 19.6549 11.1478L19.6529 11.1458L18.9529 10.4458L18.9509 10.4439C18.3551 9.84472 18.0205 9.03426 18.02 8.18931V7.18874C18.02 6.87048 17.8935 6.56526 17.6685 6.34021C17.4435 6.11517 17.1382 5.98874 16.82 5.98874H15.82C14.975 5.98826 14.164 5.65362 13.5649 5.05783L13.5629 5.05585L12.8629 4.35585L12.8609 4.35386C12.7494 4.24171 12.6168 4.15272 12.4707 4.09199C12.3247 4.03126 12.1681 4 12.01 4ZM3.99997 8.18843C3.99972 8.50479 3.87456 8.80823 3.65174 9.03276C3.65146 9.03305 3.65117 9.03334 3.65088 9.03363L2.95486 9.72965C2.95447 9.73004 2.95408 9.73042 2.95369 9.73081C2.65518 10.0279 2.41827 10.3811 2.25654 10.77C2.0946 11.1594 2.01123 11.577 2.01123 11.9987C2.01123 12.4205 2.0946 12.8381 2.25654 13.2275C2.41829 13.6164 2.65524 13.9696 2.95379 14.2668C2.95415 14.2671 2.9545 14.2675 2.95486 14.2678L3.65088 14.9639C3.65117 14.9641 3.65146 14.9644 3.65174 14.9647C3.87456 15.1893 3.99972 15.4927 3.99997 15.8091V16.8087C3.99997 17.6574 4.33711 18.4714 4.93723 19.0715C5.53735 19.6716 6.35128 20.0087 7.19997 20.0087H8.1994C8.51594 20.0089 8.81957 20.1342 9.04418 20.3572C9.04396 20.3569 9.04441 20.3574 9.04418 20.3572L9.74088 21.0539C9.74125 21.0542 9.74162 21.0546 9.74199 21.055C10.0391 21.3535 10.3923 21.5904 10.7812 21.7522C11.1706 21.9141 11.5882 21.9975 12.01 21.9975C12.4317 21.9975 12.8493 21.9141 13.2387 21.7522C13.6275 21.5905 13.9806 21.3536 14.2777 21.0552C14.2782 21.0547 14.2786 21.0543 14.2791 21.0539L14.9751 20.3578C14.9754 20.3575 14.9757 20.3573 14.976 20.357C15.2005 20.1341 15.5041 20.0089 15.8205 20.0087H16.82C17.6687 20.0087 18.4826 19.6716 19.0827 19.0715C19.6828 18.4714 20.02 17.6574 20.02 16.8087V15.8093C20.0202 15.4929 20.1453 15.1893 20.3682 14.9647C20.3685 14.9644 20.3688 14.9641 20.3691 14.9639L21.0651 14.2678C21.0655 14.2674 21.066 14.267 21.0664 14.2665C21.3649 13.9694 21.6017 13.6163 21.7634 13.2275C21.9253 12.8381 22.0087 12.4205 22.0087 11.9987C22.0087 11.577 21.9253 11.1594 21.7634 10.77C21.6017 10.3811 21.3647 10.0279 21.0662 9.73076C21.0658 9.73039 21.0655 9.73002 21.0651 9.72965L20.3691 9.03363C20.3693 9.03385 20.3688 9.0334 20.3691 9.03363C20.1461 8.80901 20.0202 8.50471 20.02 8.18817V7.18874C20.02 6.34005 19.6828 5.52612 19.0827 4.926C18.4826 4.32588 17.6687 3.98874 16.82 3.98874H15.8203C15.5039 3.98849 15.2005 3.86333 14.976 3.64051C14.9757 3.64022 14.9754 3.63994 14.9751 3.63965L14.2791 2.94363C14.2787 2.94327 14.2784 2.94292 14.278 2.94256C13.9808 2.64401 13.6277 2.40706 13.2387 2.24531C12.8493 2.08337 12.4317 2 12.01 2C11.5882 2 11.1706 2.08337 10.7812 2.24531C10.3923 2.40704 10.0392 2.64395 9.74204 2.94246C9.74165 2.94285 9.74127 2.94324 9.74088 2.94363L9.04486 3.63965C9.04457 3.63994 9.04428 3.64022 9.04399 3.64051C8.81946 3.86333 8.51602 3.98849 8.19966 3.98874H7.19997C6.35128 3.98874 5.53735 4.32588 4.93723 4.926C4.33712 5.52612 3.99997 6.34005 3.99997 7.18874V8.18843Z" fill="#1F2937"/>
</svg>
