<svg width="24" height="24" viewBox="0 0 24 24" fill="none" xmlns="http://www.w3.org/2000/svg">
<path fill-rule="evenodd" clip-rule="evenodd" d="M3 11.9926C3 10.888 3.89543 9.99255 5 9.99255C6.10457 9.99255 7 10.888 7 11.9926C7 13.0971 6.10457 13.9926 5 13.9926C3.89543 13.9926 3 13.0971 3 11.9926Z" fill="#1F2937"/>
<path fill-rule="evenodd" clip-rule="evenodd" d="M10 11.9926C10 10.888 10.8954 9.99255 12 9.99255C13.1046 9.99255 14 10.888 14 11.9926C14 13.0971 13.1046 13.9926 12 13.9926C10.8954 13.9926 10 13.0971 10 11.9926Z" fill="#1F2937"/>
<path fill-rule="evenodd" clip-rule="evenodd" d="M17 11.9926C17 10.888 17.8954 9.99255 19 9.99255C20.1046 9.99255 21 10.888 21 11.9926C21 13.0971 20.1046 13.9926 19 13.9926C17.8954 13.9926 17 13.0971 17 11.9926Z" fill="#1F2937"/>
</svg>
