<svg width="24" height="24" viewBox="0 0 24 24" fill="none" xmlns="http://www.w3.org/2000/svg">
<path fill-rule="evenodd" clip-rule="evenodd" d="M10 11.9926C10 10.888 10.8954 9.99255 12 9.99255C13.1046 9.99255 14 10.888 14 11.9926C14 13.0971 13.1046 13.9926 12 13.9926C10.8954 13.9926 10 13.0971 10 11.9926Z" fill="#1F2937"/>
<path fill-rule="evenodd" clip-rule="evenodd" d="M10 19C10 17.8954 10.8954 17 12 17C13.1046 17 14 17.8954 14 19C14 20.1046 13.1046 21 12 21C10.8954 21 10 20.1046 10 19Z" fill="#1F2937"/>
<path fill-rule="evenodd" clip-rule="evenodd" d="M10 5.00745C10 3.90288 10.8954 3.00745 12 3.00745C13.1046 3.00745 14 3.90288 14 5.00745C14 6.11202 13.1046 7.00745 12 7.00745C10.8954 7.00745 10 6.11202 10 5.00745Z" fill="#1F2937"/>
</svg>
