<svg width="24" height="24" viewBox="0 0 24 24" fill="none" xmlns="http://www.w3.org/2000/svg">
<path fill-rule="evenodd" clip-rule="evenodd" d="M5 7C5 5.89543 5.89543 5 7 5C8.10457 5 9 5.89543 9 7C9 8.10457 8.10457 9 7 9C5.89543 9 5 8.10457 5 7Z" fill="#1F2937"/>
<path fill-rule="evenodd" clip-rule="evenodd" d="M10 11.9926C10 10.888 10.8954 9.99255 12 9.99255C13.1046 9.99255 14 10.888 14 11.9926C14 13.0971 13.1046 13.9926 12 13.9926C10.8954 13.9926 10 13.0971 10 11.9926Z" fill="#1F2937"/>
<path fill-rule="evenodd" clip-rule="evenodd" d="M15 17.0074C15 15.9029 15.8954 15.0074 17 15.0074C18.1046 15.0074 19 15.9029 19 17.0074C19 18.112 18.1046 19.0074 17 19.0074C15.8954 19.0074 15 18.112 15 17.0074Z" fill="#1F2937"/>
</svg>
