<svg width="24" height="24" viewBox="0 0 24 24" fill="none" xmlns="http://www.w3.org/2000/svg">
<path fill-rule="evenodd" clip-rule="evenodd" d="M4 15.9926C4.55228 15.9926 5 16.4403 5 16.9926V18.9926C5 19.2578 5.10536 19.5121 5.29289 19.6997C5.48043 19.8872 5.73478 19.9926 6 19.9926H18C18.2652 19.9926 18.5196 19.8872 18.7071 19.6997C18.8946 19.5121 19 19.2578 19 18.9926V16.9926C19 16.4403 19.4477 15.9926 20 15.9926C20.5523 15.9926 21 16.4403 21 16.9926V18.9926C21 19.7882 20.6839 20.5513 20.1213 21.1139C19.5587 21.6765 18.7957 21.9926 18 21.9926H6C5.20435 21.9926 4.44129 21.6765 3.87868 21.1139C3.31607 20.5513 3 19.7882 3 18.9926V16.9926C3 16.4403 3.44772 15.9926 4 15.9926Z" fill="#1F2937"/>
<path fill-rule="evenodd" clip-rule="evenodd" d="M6.29289 10.2854C6.68342 9.89492 7.31658 9.89492 7.70711 10.2854L12 14.5783L16.2929 10.2854C16.6834 9.89492 17.3166 9.89492 17.7071 10.2854C18.0976 10.676 18.0976 11.3091 17.7071 11.6997L12.7071 16.6997C12.5196 16.8872 12.2652 16.9926 12 16.9926C11.7348 16.9926 11.4804 16.8872 11.2929 16.6997L6.29289 11.6997C5.90237 11.3091 5.90237 10.676 6.29289 10.2854Z" fill="#1F2937"/>
<path fill-rule="evenodd" clip-rule="evenodd" d="M12 3.00745C12.5523 3.00745 13 3.45516 13 4.00745V16.0074C13 16.5597 12.5523 17.0074 12 17.0074C11.4477 17.0074 11 16.5597 11 16.0074V4.00745C11 3.45516 11.4477 3.00745 12 3.00745Z" fill="#1F2937"/>
</svg>
