<svg width="24" height="24" viewBox="0 0 24 24" fill="none" xmlns="http://www.w3.org/2000/svg">
<path fill-rule="evenodd" clip-rule="evenodd" d="M3 4.00745C3 3.45516 3.44772 3.00745 4 3.00745H4.0005C4.55278 3.00745 5.0005 3.45516 5.0005 4.00745C5.0005 4.28311 4.88896 4.53273 4.70854 4.71362C4.52746 4.89543 4.27687 5.00795 4 5.00795C3.44772 5.00795 3 4.56023 3 4.00795V4.00745ZM6.9995 4.00745C6.9995 3.45516 7.44722 3.00745 7.9995 3.00745H8.0005C8.55278 3.00745 9.0005 3.45516 9.0005 4.00745C9.0005 4.55973 8.55278 5.00745 8.0005 5.00745H7.9995C7.44722 5.00745 6.9995 4.55973 6.9995 4.00745ZM10.9995 4.00745C10.9995 3.45516 11.4472 3.00745 11.9995 3.00745H12.0005C12.5528 3.00745 13.0005 3.45516 13.0005 4.00745C13.0005 4.55973 12.5528 5.00745 12.0005 5.00745H11.9995C11.4472 5.00745 10.9995 4.55973 10.9995 4.00745ZM14.9995 4.00745C14.9995 3.45516 15.4472 3.00745 15.9995 3.00745H16C16.5523 3.00745 17 3.45516 17 4.00745V4.00795C17 4.56023 16.5523 5.00795 16 5.00795C15.7237 5.00795 15.4735 4.89588 15.2926 4.71472C15.1115 4.53374 14.9995 4.28367 14.9995 4.00745ZM16 7.00695C16.5523 7.00695 17 7.45466 17 8.00695V8.00745C17 8.55973 16.5523 9.00745 16 9.00745C15.4477 9.00745 15 8.55973 15 8.00745V8.00695C15 7.45466 15.4477 7.00695 16 7.00695ZM4 7.01028C4.55228 7.01028 5 7.45799 5 8.01028V8.01128C5 8.56356 4.55228 9.01128 4 9.01128C3.44772 9.01128 3 8.56356 3 8.01128V8.01028C3 7.45799 3.44772 7.01028 4 7.01028ZM4 11.0136C4.55228 11.0136 5 11.4613 5 12.0136V12.0146C5 12.5669 4.55228 13.0146 4 13.0146C3.44772 13.0146 3 12.5669 3 12.0146V12.0136C3 11.4613 3.44772 11.0136 4 11.0136ZM4.70947 15.3122C4.52833 15.1299 4.27735 15.0169 4 15.0169C3.44772 15.0169 3 15.4647 3 16.0169V16.0174C3 16.5697 3.44772 17.0174 4 17.0174H4.0005C4.55278 17.0174 5.0005 16.5697 5.0005 16.0174C5.0005 15.7423 4.88934 15.493 4.70947 15.3122ZM6.9995 16.0174C6.9995 15.4652 7.44722 15.0174 7.9995 15.0174H8C8.55228 15.0174 9 15.4652 9 16.0174C9 16.5697 8.55228 17.0174 8 17.0174H7.9995C7.44722 17.0174 6.9995 16.5697 6.9995 16.0174Z" fill="#1F2937"/>
<path fill-rule="evenodd" clip-rule="evenodd" d="M10 8.99255C9.44772 8.99255 9 9.44027 9 9.99255V17.9926C9 18.5448 9.44772 18.9926 10 18.9926H18C18.5523 18.9926 19 18.5448 19 17.9926V9.99255C19 9.44027 18.5523 8.99255 18 8.99255H10ZM7 9.99255C7 8.3357 8.34315 6.99255 10 6.99255H18C19.6569 6.99255 21 8.3357 21 9.99255V17.9926C21 19.6494 19.6569 20.9926 18 20.9926H10C8.34315 20.9926 7 19.6494 7 17.9926V9.99255Z" fill="#1F2937"/>
</svg>
