<svg width="24" height="24" viewBox="0 0 24 24" fill="none" xmlns="http://www.w3.org/2000/svg">
<path fill-rule="evenodd" clip-rule="evenodd" d="M12 4C7.58172 4 4 7.58172 4 12C4 16.4183 7.58172 20 12 20C16.4183 20 20 16.4183 20 12C20 7.58172 16.4183 4 12 4ZM2 12C2 6.47715 6.47715 2 12 2C17.5228 2 22 6.47715 22 12C22 17.5228 17.5228 22 12 22C6.47715 22 2 17.5228 2 12Z" fill="#1F2937"/>
<path fill-rule="evenodd" clip-rule="evenodd" d="M8.35984 2.82946C8.78412 2.4759 9.41468 2.53322 9.76825 2.9575C14.8616 9.06957 16.9739 13.756 17.4962 19.7103C17.5445 20.2605 17.1376 20.7456 16.5874 20.7939C16.0372 20.8421 15.5521 20.4352 15.5039 19.8851C15.0262 14.4393 13.1384 10.1258 8.2318 4.23787C7.87824 3.81359 7.93556 3.18302 8.35984 2.82946Z" fill="#1F2937"/>
<path fill-rule="evenodd" clip-rule="evenodd" d="M7.64927 19.1626C7.47209 19.3409 7.29169 19.5225 7.10701 19.7072C6.71649 20.0977 6.08332 20.0977 5.6928 19.7072C5.30227 19.3167 5.30227 18.6835 5.6928 18.293C5.87514 18.1106 6.05639 17.9278 6.23746 17.7452C7.75307 16.2164 9.25657 14.6999 11.291 13.575C13.6051 12.2954 16.537 11.5487 20.9117 11.6002C21.4639 11.6067 21.9063 12.0596 21.8998 12.6118C21.8933 13.1641 21.4404 13.6065 20.8881 13.6C16.7628 13.5515 14.1947 14.2548 12.2588 15.3252C10.4897 16.3034 9.1908 17.6109 7.64927 19.1626Z" fill="#1F2937"/>
<path fill-rule="evenodd" clip-rule="evenodd" d="M19.1798 5.11049C19.535 5.53338 19.4802 6.16416 19.0573 6.51939C13.2931 11.3613 8.19534 11.7537 3.1001 11.7537C2.54781 11.7537 2.1001 11.306 2.1001 10.7537C2.1001 10.2014 2.54781 9.75368 3.1001 9.75368C8.00486 9.75368 12.5351 9.38603 17.7709 4.98798C18.1938 4.63276 18.8246 4.68761 19.1798 5.11049Z" fill="#1F2937"/>
</svg>
