<svg width="24" height="24" viewBox="0 0 24 24" fill="none" xmlns="http://www.w3.org/2000/svg">
<path fill-rule="evenodd" clip-rule="evenodd" d="M14.6013 4.21774C13.7099 3.97089 12.7734 3.93347 11.8652 4.10842C10.9569 4.28336 10.1014 4.66593 9.36545 5.22623C8.62951 5.78653 8.03307 6.50939 7.62273 7.33835C7.2124 8.16731 6.99927 9.07992 7 10.0049C7.00044 10.5572 6.55308 11.0052 6.00079 11.0057C5.44851 11.0061 5.00044 10.5587 5 10.0065C4.99903 8.77318 5.2832 7.55638 5.83031 6.4511C6.37743 5.34582 7.17268 4.382 8.15394 3.63493C9.1352 2.88786 10.2759 2.37777 11.4869 2.14452C12.6979 1.91126 13.9465 1.96115 15.135 2.29028C16.3236 2.61942 17.4199 3.21889 18.3385 4.04187C19.257 4.86485 19.9728 5.88905 20.43 7.03445C20.8872 8.17986 21.0734 9.41546 20.974 10.6447C20.8746 11.874 20.4924 13.0637 19.8571 14.1207C19.8396 14.15 19.8205 14.1784 19.8 14.2057C19.1865 15.0237 18.4619 15.7522 17.6473 16.37C16.8904 17.0938 16.3054 17.9783 15.9357 18.9586C15.9208 18.9979 15.9035 19.0363 15.8839 19.0734C15.5046 19.7901 14.9715 20.4141 14.3228 20.9007C13.6742 21.3873 12.9259 21.7244 12.1316 21.8879C11.3374 22.0515 10.5168 22.0373 9.72868 21.8466C8.94054 21.6558 8.20432 21.2931 7.57277 20.7845C7.14263 20.4381 7.07476 19.8086 7.42117 19.3784C7.76758 18.9483 8.3971 18.8804 8.82724 19.2268C9.22914 19.5505 9.69763 19.7813 10.1992 19.9027C10.7007 20.0241 11.2229 20.0331 11.7283 19.929C12.2338 19.825 12.7099 19.6104 13.1227 19.3008C13.5203 19.0026 13.8495 18.6233 14.0889 18.1884C14.5736 16.9325 15.334 15.8011 16.3144 14.8777C16.3415 14.8521 16.3701 14.8281 16.4 14.8057C17.0684 14.3044 17.6637 13.7125 18.1688 13.0471C18.6297 12.2652 18.9073 11.3887 18.9805 10.4836C19.055 9.56163 18.9154 8.63493 18.5725 7.77587C18.2296 6.91681 17.6927 6.14867 17.0038 5.53143C16.315 4.9142 15.4927 4.46459 14.6013 4.21774Z" fill="#1F2937"/>
<path fill-rule="evenodd" clip-rule="evenodd" d="M13.8055 8.13067C13.4992 7.99591 13.164 7.94015 12.8306 7.96849C12.4972 7.99684 12.1762 8.10838 11.8971 8.29291C11.6179 8.47745 11.3896 8.72906 11.2329 9.02472C11.0762 9.32038 10.9961 9.65063 11.0001 9.98523C11.0067 10.5375 10.5644 10.9905 10.0122 10.9971C9.45993 11.0037 9.00689 10.5614 9.00029 10.0091C8.99228 9.33996 9.15231 8.67946 9.4657 8.08814C9.7791 7.49682 10.2359 6.99359 10.7941 6.62452C11.3524 6.25546 11.9943 6.03237 12.6612 5.97568C13.328 5.91899 13.9984 6.03052 14.611 6.30005C15.2235 6.56957 15.7587 6.98848 16.1674 7.51841C16.5761 8.04834 16.8453 8.67235 16.9504 9.33329C17.0555 9.99422 16.993 10.671 16.7688 11.3015C16.5446 11.9321 16.1657 12.4963 15.667 12.9425C15.2553 13.3107 14.6232 13.2755 14.2549 12.8639C13.8867 12.4523 13.9219 11.8201 14.3335 11.4519C14.5829 11.2288 14.7723 10.9467 14.8844 10.6314C14.9965 10.3161 15.0277 9.97777 14.9752 9.6473C14.9227 9.31683 14.788 9.00482 14.5837 8.73986C14.3793 8.47489 14.1118 8.26544 13.8055 8.13067Z" fill="#1F2937"/>
</svg>
