<svg width="24" height="24" viewBox="0 0 24 24" fill="none" xmlns="http://www.w3.org/2000/svg">
<path fill-rule="evenodd" clip-rule="evenodd" d="M5 17.0074C4.44772 17.0074 4 17.4552 4 18.0074C4 18.5597 4.44772 19.0074 5 19.0074C5.55228 19.0074 6 18.5597 6 18.0074C6 17.4552 5.55228 17.0074 5 17.0074ZM2 18.0074C2 16.3506 3.34315 15.0074 5 15.0074C6.65685 15.0074 8 16.3506 8 18.0074C8 19.6643 6.65685 21.0074 5 21.0074C3.34315 21.0074 2 19.6643 2 18.0074Z" fill="#1F2937"/>
<path fill-rule="evenodd" clip-rule="evenodd" d="M19 5.00745C18.4477 5.00745 18 5.45516 18 6.00745C18 6.55973 18.4477 7.00745 19 7.00745C19.5523 7.00745 20 6.55973 20 6.00745C20 5.45516 19.5523 5.00745 19 5.00745ZM16 6.00745C16 4.35059 17.3431 3.00745 19 3.00745C20.6569 3.00745 22 4.35059 22 6.00745C22 7.6643 20.6569 9.00745 19 9.00745C17.3431 9.00745 16 7.6643 16 6.00745Z" fill="#1F2937"/>
<path fill-rule="evenodd" clip-rule="evenodd" d="M19 6.99255C19.5523 6.99255 20 7.44027 20 7.99255V12.9926C20 14.5839 19.3679 16.11 18.2426 17.2352C17.1174 18.3604 15.5913 18.9926 14 18.9926H13.4142L14.7071 20.2854C15.0976 20.676 15.0976 21.3091 14.7071 21.6997C14.3166 22.0902 13.6834 22.0902 13.2929 21.6997L10.2929 18.6997C9.90237 18.3091 9.90237 17.676 10.2929 17.2854L13.2929 14.2854C13.6834 13.8949 14.3166 13.8949 14.7071 14.2854C15.0976 14.676 15.0976 15.3091 14.7071 15.6997L13.4142 16.9926H14C15.0609 16.9926 16.0783 16.5711 16.8284 15.821C17.5786 15.0708 18 14.0534 18 12.9926V7.99255C18 7.44027 18.4477 6.99255 19 6.99255Z" fill="#1F2937"/>
<path fill-rule="evenodd" clip-rule="evenodd" d="M9.29289 2.29289C9.68342 1.90237 10.3166 1.90237 10.7071 2.29289L13.7071 5.29289C14.0976 5.68342 14.0976 6.31658 13.7071 6.70711L10.7071 9.70711C10.3166 10.0976 9.68342 10.0976 9.29289 9.70711C8.90237 9.31658 8.90237 8.68342 9.29289 8.29289L10.5858 7H10C8.93913 7 7.92172 7.42143 7.17157 8.17157C6.42143 8.92172 6 9.93913 6 11V16C6 16.5523 5.55228 17 5 17C4.44772 17 4 16.5523 4 16V11C4 9.4087 4.63214 7.88258 5.75736 6.75736C6.88258 5.63214 8.4087 5 10 5H10.5858L9.29289 3.70711C8.90237 3.31658 8.90237 2.68342 9.29289 2.29289Z" fill="#1F2937"/>
</svg>
