<svg width="24" height="24" viewBox="0 0 24 24" fill="none" xmlns="http://www.w3.org/2000/svg">
<path fill-rule="evenodd" clip-rule="evenodd" d="M6 5.00745C5.44772 5.00745 5 5.45516 5 6.00745V18.0074C5 18.5597 5.44772 19.0074 6 19.0074H18C18.5523 19.0074 19 18.5597 19 18.0074V6.00745C19 5.45516 18.5523 5.00745 18 5.00745H6ZM3 6.00745C3 4.35059 4.34315 3.00745 6 3.00745H18C19.6569 3.00745 21 4.35059 21 6.00745V18.0074C21 19.6643 19.6569 21.0074 18 21.0074H6C4.34315 21.0074 3 19.6643 3 18.0074V6.00745Z" fill="#1F2937"/>
<path fill-rule="evenodd" clip-rule="evenodd" d="M20.1072 3.90971C20.4977 4.30024 20.4977 4.9334 20.1072 5.32393L5.3072 20.1239C4.91668 20.5145 4.28352 20.5145 3.89299 20.1239C3.50247 19.7334 3.50247 19.1002 3.89299 18.7097L18.693 3.90971C19.0835 3.51919 19.7167 3.51919 20.1072 3.90971Z" fill="#1F2937"/>
<path fill-rule="evenodd" clip-rule="evenodd" d="M9 6.00745C9.55228 6.00745 10 6.45516 10 7.00745V8.00745H11C11.5523 8.00745 12 8.45516 12 9.00745C12 9.55973 11.5523 10.0074 11 10.0074H10V11.0074C10 11.5597 9.55228 12.0074 9 12.0074C8.44772 12.0074 8 11.5597 8 11.0074V10.0074H7C6.44772 10.0074 6 9.55973 6 9.00745C6 8.45516 6.44772 8.00745 7 8.00745H8V7.00745C8 6.45516 8.44772 6.00745 9 6.00745Z" fill="#1F2937"/>
<path fill-rule="evenodd" clip-rule="evenodd" d="M12 16.0074C12 15.4552 12.4477 15.0074 13 15.0074H17C17.5523 15.0074 18 15.4552 18 16.0074C18 16.5597 17.5523 17.0074 17 17.0074H13C12.4477 17.0074 12 16.5597 12 16.0074Z" fill="#1F2937"/>
</svg>
