<svg width="24" height="24" viewBox="0 0 24 24" fill="none" xmlns="http://www.w3.org/2000/svg">
<path fill-rule="evenodd" clip-rule="evenodd" d="M3.87868 6.88613C4.44129 6.32352 5.20435 6.00745 6 6.00745H11C11.5523 6.00745 12 6.45516 12 7.00745C12 7.55973 11.5523 8.00745 11 8.00745H6C5.73478 8.00745 5.48043 8.1128 5.29289 8.30034C5.10536 8.48788 5 8.74223 5 9.00745V18.0074C5 18.2727 5.10536 18.527 5.29289 18.7146C5.48043 18.9021 5.73478 19.0074 6 19.0074H15C15.2652 19.0074 15.5196 18.9021 15.7071 18.7146C15.8946 18.527 16 18.2727 16 18.0074V13.0074C16 12.4552 16.4477 12.0074 17 12.0074C17.5523 12.0074 18 12.4552 18 13.0074V18.0074C18 18.8031 17.6839 19.5662 17.1213 20.1288C16.5587 20.6914 15.7957 21.0074 15 21.0074H6C5.20435 21.0074 4.44129 20.6914 3.87868 20.1288C3.31607 19.5662 3 18.8031 3 18.0074V9.00745C3 8.2118 3.31607 7.44874 3.87868 6.88613Z" fill="#1F2937"/>
<path fill-rule="evenodd" clip-rule="evenodd" d="M20.7071 3.30034C21.0976 3.69086 21.0976 4.32403 20.7071 4.71455L10.7071 14.7146C10.3166 15.1051 9.68342 15.1051 9.29289 14.7146C8.90237 14.324 8.90237 13.6909 9.29289 13.3003L19.2929 3.30034C19.6834 2.90982 20.3166 2.90982 20.7071 3.30034Z" fill="#1F2937"/>
<path fill-rule="evenodd" clip-rule="evenodd" d="M14 4.00745C14 3.45516 14.4477 3.00745 15 3.00745H20C20.5523 3.00745 21 3.45516 21 4.00745V9.00745C21 9.55973 20.5523 10.0074 20 10.0074C19.4477 10.0074 19 9.55973 19 9.00745V5.00745H15C14.4477 5.00745 14 4.55973 14 4.00745Z" fill="#1F2937"/>
</svg>
