<svg width="24" height="24" viewBox="0 0 24 24" fill="none" xmlns="http://www.w3.org/2000/svg">
<path fill-rule="evenodd" clip-rule="evenodd" d="M12 11.0074C11.4477 11.0074 11 11.4552 11 12.0074C11 12.5597 11.4477 13.0074 12 13.0074C12.5523 13.0074 13 12.5597 13 12.0074C13 11.4552 12.5523 11.0074 12 11.0074ZM9 12.0074C9 10.3506 10.3431 9.00745 12 9.00745C13.6569 9.00745 15 10.3506 15 12.0074C15 13.6643 13.6569 15.0074 12 15.0074C10.3431 15.0074 9 13.6643 9 12.0074Z" fill="#1F2937"/>
<path fill-rule="evenodd" clip-rule="evenodd" d="M1.40006 11.2001C1.84189 10.8687 2.46869 10.9582 2.80006 11.4001L4.28649 13.382C5.22233 14.5163 6.39689 15.4303 7.72652 16.0588C9.06266 16.6904 10.5222 17.0179 12.0001 17.0179C13.4779 17.0179 14.9375 16.6904 16.2736 16.0588C17.6032 15.4303 18.7778 14.5163 19.7136 13.3819L21.2001 11.4001C21.5314 10.9582 22.1582 10.8687 22.6001 11.2001C23.0419 11.5314 23.1314 12.1582 22.8001 12.6001L21.3001 14.6001C21.2912 14.6118 21.2821 14.6234 21.2728 14.6348C20.1471 16.0052 18.7317 17.1091 17.1283 17.867C15.5249 18.6248 13.7735 19.0179 12.0001 19.0179C10.2266 19.0179 8.47518 18.6248 6.87182 17.867C5.26846 17.1091 3.85302 16.0052 2.72733 14.6348C2.71799 14.6234 2.70889 14.6118 2.70006 14.6001L1.20006 12.6001C0.868688 12.1582 0.958231 11.5314 1.40006 11.2001Z" fill="#1F2937"/>
<path fill-rule="evenodd" clip-rule="evenodd" d="M12.0001 6.97656C10.5222 6.97656 9.06266 7.30414 7.72653 7.93572C6.39689 8.56423 5.22234 9.47824 4.28649 10.6125L2.80006 12.5945C2.46869 13.0363 1.84189 13.1258 1.40006 12.7945C0.958232 12.4631 0.868688 11.8363 1.20006 11.3945L2.70006 9.39445C2.70889 9.38267 2.71799 9.37109 2.72733 9.35971C3.85302 7.98931 5.26846 6.88545 6.87182 6.12755C8.47518 5.36965 10.2266 4.97656 12.0001 4.97656C13.7735 4.97656 15.5249 5.36965 17.1283 6.12755C18.7317 6.88545 20.1471 7.98931 21.2728 9.35971C21.2821 9.37109 21.2912 9.38267 21.3001 9.39445L22.8001 11.3945C23.1314 11.8363 23.0419 12.4631 22.6001 12.7945C22.1582 13.1258 21.5314 13.0363 21.2001 12.5945L19.7136 10.6125C18.7778 9.47824 17.6032 8.56422 16.2736 7.93572C14.9375 7.30414 13.4779 6.97656 12.0001 6.97656Z" fill="#1F2937"/>
</svg>
