<svg width="24" height="24" viewBox="0 0 24 24" fill="none" xmlns="http://www.w3.org/2000/svg">
<path fill-rule="evenodd" clip-rule="evenodd" d="M14 2C14.5523 2 15 2.44772 15 3V7H19C19.5523 7 20 7.44772 20 8C20 8.55228 19.5523 9 19 9H15C14.4696 9 13.9609 8.78929 13.5858 8.41421C13.2107 8.03914 13 7.53043 13 7V3C13 2.44772 13.4477 2 14 2Z" fill="#1F2937"/>
<path fill-rule="evenodd" clip-rule="evenodd" d="M7 4C6.73478 4 6.48043 4.10536 6.29289 4.29289C6.10536 4.48043 6 4.73478 6 5V12C6 12.5523 5.55228 13 5 13C4.44772 13 4 12.5523 4 12V5C4 4.20435 4.31607 3.44129 4.87868 2.87868C5.44129 2.31607 6.20435 2 7 2H14C14.2652 2 14.5196 2.10536 14.7071 2.29289L19.7071 7.29289C19.8946 7.48043 20 7.73478 20 8V12C20 12.5523 19.5523 13 19 13C18.4477 13 18 12.5523 18 12V8.41421L13.5858 4H7Z" fill="#1F2937"/>
<path fill-rule="evenodd" clip-rule="evenodd" d="M2 12C2 11.4477 2.44772 11 3 11H21C21.5523 11 22 11.4477 22 12C22 12.5523 21.5523 13 21 13H3C2.44772 13 2 12.5523 2 12Z" fill="#1F2937"/>
<path fill-rule="evenodd" clip-rule="evenodd" d="M6 15.0076C6.55228 15.0076 7 15.4553 7 16.0076V18.0076C7 18.5599 6.55228 19.0076 6 19.0076C5.44772 19.0076 5 18.5599 5 18.0076V16.0076C5 15.4553 5.44772 15.0076 6 15.0076Z" fill="#1F2937"/>
<path fill-rule="evenodd" clip-rule="evenodd" d="M10 15.0076C10.5523 15.0076 11 15.4553 11 16.0076V22.0076C11 22.5599 10.5523 23.0076 10 23.0076C9.44772 23.0076 9 22.5599 9 22.0076V16.0076C9 15.4553 9.44772 15.0076 10 15.0076Z" fill="#1F2937"/>
<path fill-rule="evenodd" clip-rule="evenodd" d="M14 15.0076C14.5523 15.0076 15 15.4553 15 16.0076V18.0076C15 18.5599 14.5523 19.0076 14 19.0076C13.4477 19.0076 13 18.5599 13 18.0076V16.0076C13 15.4553 13.4477 15.0076 14 15.0076Z" fill="#1F2937"/>
<path fill-rule="evenodd" clip-rule="evenodd" d="M18 15.0076C18.5523 15.0076 19 15.4553 19 16.0076V20.0076C19 20.5599 18.5523 21.0076 18 21.0076C17.4477 21.0076 17 20.5599 17 20.0076V16.0076C17 15.4553 17.4477 15.0076 18 15.0076Z" fill="#1F2937"/>
</svg>
