<svg width="24" height="24" viewBox="0 0 24 24" fill="none" xmlns="http://www.w3.org/2000/svg">
<path fill-rule="evenodd" clip-rule="evenodd" d="M16 3.99243C16.5523 3.99243 17 4.44015 17 4.99243V8.99243H21C21.5523 8.99243 22 9.44015 22 9.99243C22 10.5447 21.5523 10.9924 21 10.9924H17C16.4696 10.9924 15.9609 10.7817 15.5858 10.4066C15.2107 10.0316 15 9.52286 15 8.99243V4.99243C15 4.44015 15.4477 3.99243 16 3.99243Z" fill="#1F2937"/>
<path fill-rule="evenodd" clip-rule="evenodd" d="M2.87868 4.87111C3.44129 4.3085 4.20435 3.99243 5 3.99243H16C16.2652 3.99243 16.5196 4.09779 16.7071 4.28532L21.7071 9.28533C21.8946 9.47286 22 9.72722 22 9.99243V16.9924C22 17.7881 21.6839 18.5511 21.1213 19.1138C20.5587 19.6764 19.7957 19.9924 19 19.9924H5C4.20435 19.9924 3.44129 19.6764 2.87868 19.1138C2.31607 18.5511 2 17.7881 2 16.9924V6.99243C2 6.19678 2.31607 5.43372 2.87868 4.87111ZM5 5.99243C4.73478 5.99243 4.48043 6.09779 4.29289 6.28532C4.10536 6.47286 4 6.72721 4 6.99243V16.9924C4 17.2576 4.10536 17.512 4.29289 17.6995C4.48043 17.8871 4.73478 17.9924 5 17.9924H19C19.2652 17.9924 19.5196 17.8871 19.7071 17.6995C19.8946 17.512 20 17.2576 20 16.9924V10.4066L15.5858 5.99243H5Z" fill="#1F2937"/>
</svg>
