<svg width="24" height="24" viewBox="0 0 24 24" fill="none" xmlns="http://www.w3.org/2000/svg">
<path fill-rule="evenodd" clip-rule="evenodd" d="M14 2C14.5523 2 15 2.44772 15 3V7H19C19.5523 7 20 7.44772 20 8C20 8.55228 19.5523 9 19 9H15C14.4696 9 13.9609 8.78929 13.5858 8.41421C13.2107 8.03914 13 7.53043 13 7V3C13 2.44772 13.4477 2 14 2Z" fill="#1F2937"/>
<path fill-rule="evenodd" clip-rule="evenodd" d="M7 4C6.73478 4 6.48043 4.10536 6.29289 4.29289C6.10536 4.48043 6 4.73478 6 5V19C6 19.2652 6.10536 19.5196 6.29289 19.7071C6.48043 19.8946 6.73478 20 7 20H17C17.2652 20 17.5196 19.8946 17.7071 19.7071C17.8946 19.5196 18 19.2652 18 19V8.41421L13.5858 4H7ZM4.87868 2.87868C5.44129 2.31607 6.20435 2 7 2H14C14.2652 2 14.5196 2.10536 14.7071 2.29289L19.7071 7.29289C19.8946 7.48043 20 7.73478 20 8V19C20 19.7957 19.6839 20.5587 19.1213 21.1213C18.5587 21.6839 17.7957 22 17 22H7C6.20435 22 5.44129 21.6839 4.87868 21.1213C4.31607 20.5587 4 19.7957 4 19V5C4 4.20435 4.31607 3.44129 4.87868 2.87868Z" fill="#1F2937"/>
<path fill-rule="evenodd" clip-rule="evenodd" d="M10.4472 12.1131C10.9412 12.3601 11.1414 12.9608 10.8944 13.4548L10.118 15.0075L10.8944 16.5603C11.1414 17.0543 10.9412 17.655 10.4472 17.902C9.95324 18.149 9.35256 17.9487 9.10557 17.4548L8.10557 15.4548C7.96481 15.1732 7.96481 14.8419 8.10557 14.5603L9.10557 12.5603C9.35256 12.0664 9.95324 11.8661 10.4472 12.1131Z" fill="#1F2937"/>
<path fill-rule="evenodd" clip-rule="evenodd" d="M13.5528 12.1131C14.0467 11.8661 14.6474 12.0664 14.8944 12.5603L15.8944 14.5603C16.0352 14.8419 16.0352 15.1732 15.8944 15.4548L14.8944 17.4548C14.6474 17.9487 14.0467 18.149 13.5528 17.902C13.0588 17.655 12.8586 17.0543 13.1055 16.5603L13.8819 15.0075L13.1055 13.4548C12.8586 12.9608 13.0588 12.3601 13.5528 12.1131Z" fill="#1F2937"/>
</svg>
