<svg width="24" height="24" viewBox="0 0 24 24" fill="none" xmlns="http://www.w3.org/2000/svg">
<path fill-rule="evenodd" clip-rule="evenodd" d="M8 5.99249C8 4.88792 8.89543 3.99249 10 3.99249H14C15.1046 3.99249 16 4.88792 16 5.99249V9.99249C16 11.0971 15.1046 11.9925 14 11.9925H10C8.89543 11.9925 8 11.0971 8 9.99249V5.99249ZM14 5.99249H10V9.99249H14V5.99249Z" fill="#1F2937"/>
<path fill-rule="evenodd" clip-rule="evenodd" d="M3 7.00751C3 6.45522 3.44772 6.00751 4 6.00751H5C5.55228 6.00751 6 6.45522 6 7.00751C6 7.55979 5.55228 8.00751 5 8.00751H4C3.44772 8.00751 3 7.55979 3 7.00751Z" fill="#1F2937"/>
<path fill-rule="evenodd" clip-rule="evenodd" d="M3 10.9925C3 10.4402 3.44772 9.99249 4 9.99249H5C5.55228 9.99249 6 10.4402 6 10.9925C6 11.5448 5.55228 11.9925 5 11.9925H4C3.44772 11.9925 3 11.5448 3 10.9925Z" fill="#1F2937"/>
<path fill-rule="evenodd" clip-rule="evenodd" d="M18 7.00751C18 6.45522 18.4477 6.00751 19 6.00751H20C20.5523 6.00751 21 6.45522 21 7.00751C21 7.55979 20.5523 8.00751 20 8.00751H19C18.4477 8.00751 18 7.55979 18 7.00751Z" fill="#1F2937"/>
<path fill-rule="evenodd" clip-rule="evenodd" d="M18 10.9925C18 10.4402 18.4477 9.99249 19 9.99249H20C20.5523 9.99249 21 10.4402 21 10.9925C21 11.5448 20.5523 11.9925 20 11.9925H19C18.4477 11.9925 18 11.5448 18 10.9925Z" fill="#1F2937"/>
<path fill-rule="evenodd" clip-rule="evenodd" d="M3 15C3 14.4477 3.44772 14 4 14H20C20.5523 14 21 14.4477 21 15C21 15.5523 20.5523 16 20 16H4C3.44772 16 3 15.5523 3 15Z" fill="#1F2937"/>
<path fill-rule="evenodd" clip-rule="evenodd" d="M3 19.0075C3 18.4552 3.44772 18.0075 4 18.0075H20C20.5523 18.0075 21 18.4552 21 19.0075C21 19.5598 20.5523 20.0075 20 20.0075H4C3.44772 20.0075 3 19.5598 3 19.0075Z" fill="#1F2937"/>
</svg>
