<svg width="24" height="24" viewBox="0 0 24 24" fill="none" xmlns="http://www.w3.org/2000/svg">
<path fill-rule="evenodd" clip-rule="evenodd" d="M13 5.99249C13 4.88792 13.8954 3.99249 15 3.99249H19C20.1046 3.99249 21 4.88792 21 5.99249V9.99249C21 11.0971 20.1046 11.9925 19 11.9925H15C13.8954 11.9925 13 11.0971 13 9.99249V5.99249ZM19 5.99249H15V9.99249H19V5.99249Z" fill="#1F2937"/>
<path fill-rule="evenodd" clip-rule="evenodd" d="M3 7.00751C3 6.45522 3.44772 6.00751 4 6.00751H10C10.5523 6.00751 11 6.45522 11 7.00751C11 7.55979 10.5523 8.00751 10 8.00751H4C3.44772 8.00751 3 7.55979 3 7.00751Z" fill="#1F2937"/>
<path fill-rule="evenodd" clip-rule="evenodd" d="M3 10.9925C3 10.4402 3.44772 9.99249 4 9.99249H10C10.5523 9.99249 11 10.4402 11 10.9925C11 11.5448 10.5523 11.9925 10 11.9925H4C3.44772 11.9925 3 11.5448 3 10.9925Z" fill="#1F2937"/>
<path fill-rule="evenodd" clip-rule="evenodd" d="M3 15C3 14.4477 3.44772 14 4 14H20C20.5523 14 21 14.4477 21 15C21 15.5523 20.5523 16 20 16H4C3.44772 16 3 15.5523 3 15Z" fill="#1F2937"/>
<path fill-rule="evenodd" clip-rule="evenodd" d="M3 19.0075C3 18.4552 3.44772 18.0075 4 18.0075H20C20.5523 18.0075 21 18.4552 21 19.0075C21 19.5598 20.5523 20.0075 20 20.0075H4C3.44772 20.0075 3 19.5598 3 19.0075Z" fill="#1F2937"/>
</svg>
