<svg width="24" height="24" viewBox="0 0 24 24" fill="none" xmlns="http://www.w3.org/2000/svg">
<path fill-rule="evenodd" clip-rule="evenodd" d="M3 5.99249C3 4.88792 3.89543 3.99249 5 3.99249H9C10.1046 3.99249 11 4.88792 11 5.99249V9.99249C11 11.0971 10.1046 11.9925 9 11.9925H5C3.89543 11.9925 3 11.0971 3 9.99249V5.99249ZM9 5.99249H5V9.99249H9V5.99249Z" fill="#1F2937"/>
<path fill-rule="evenodd" clip-rule="evenodd" d="M13 7.00751C13 6.45522 13.4477 6.00751 14 6.00751H20C20.5523 6.00751 21 6.45522 21 7.00751C21 7.55979 20.5523 8.00751 20 8.00751H14C13.4477 8.00751 13 7.55979 13 7.00751Z" fill="#1F2937"/>
<path fill-rule="evenodd" clip-rule="evenodd" d="M13 10.9925C13 10.4402 13.4477 9.99249 14 9.99249H20C20.5523 9.99249 21 10.4402 21 10.9925C21 11.5448 20.5523 11.9925 20 11.9925H14C13.4477 11.9925 13 11.5448 13 10.9925Z" fill="#1F2937"/>
<path fill-rule="evenodd" clip-rule="evenodd" d="M3 15C3 14.4477 3.44772 14 4 14H20C20.5523 14 21 14.4477 21 15C21 15.5523 20.5523 16 20 16H4C3.44772 16 3 15.5523 3 15Z" fill="#1F2937"/>
<path fill-rule="evenodd" clip-rule="evenodd" d="M3 19.0075C3 18.4552 3.44772 18.0075 4 18.0075H20C20.5523 18.0075 21 18.4552 21 19.0075C21 19.5598 20.5523 20.0075 20 20.0075H4C3.44772 20.0075 3 19.5598 3 19.0075Z" fill="#1F2937"/>
</svg>
