<svg width="24" height="24" viewBox="0 0 24 24" fill="none" xmlns="http://www.w3.org/2000/svg">
<path fill-rule="evenodd" clip-rule="evenodd" d="M6 5.00757C5.73478 5.00757 5.48043 5.11293 5.29289 5.30046C5.10536 5.488 5 5.74235 5 6.00757V18.0076C5 18.2728 5.10536 18.5271 5.29289 18.7147C5.48043 18.9022 5.73478 19.0076 6 19.0076H18C18.2652 19.0076 18.5196 18.9022 18.7071 18.7147C18.8946 18.5271 19 18.2728 19 18.0076V9.42178L14.5858 5.00757H6ZM3.87868 3.88625C4.44129 3.32364 5.20435 3.00757 6 3.00757H15C15.2652 3.00757 15.5196 3.11293 15.7071 3.30046L20.7071 8.30046C20.8946 8.488 21 8.74235 21 9.00757V18.0076C21 18.8032 20.6839 19.5663 20.1213 20.1289C19.5587 20.6915 18.7957 21.0076 18 21.0076H6C5.20435 21.0076 4.44129 20.6915 3.87868 20.1289C3.31607 19.5663 3 18.8032 3 18.0076V6.00757C3 5.21192 3.31607 4.44886 3.87868 3.88625Z" fill="#1F2937"/>
<path fill-rule="evenodd" clip-rule="evenodd" d="M12 11.9924C11.4477 11.9924 11 12.4401 11 12.9924C11 13.5447 11.4477 13.9924 12 13.9924C12.5523 13.9924 13 13.5447 13 12.9924C13 12.4401 12.5523 11.9924 12 11.9924ZM9 12.9924C9 11.3356 10.3431 9.99243 12 9.99243C13.6569 9.99243 15 11.3356 15 12.9924C15 14.6493 13.6569 15.9924 12 15.9924C10.3431 15.9924 9 14.6493 9 12.9924Z" fill="#1F2937"/>
<path fill-rule="evenodd" clip-rule="evenodd" d="M10 3.00757C10.5523 3.00757 11 3.45528 11 4.00757V8.00757C11 8.55985 10.5523 9.00757 10 9.00757H4C3.44772 9.00757 3 8.55985 3 8.00757C3 7.45528 3.44772 7.00757 4 7.00757H9V4.00757C9 3.45528 9.44772 3.00757 10 3.00757Z" fill="#1F2937"/>
</svg>
