<svg width="24" height="24" viewBox="0 0 24 24" fill="none" xmlns="http://www.w3.org/2000/svg">
<path d="M12 12.5074C12.2761 12.5074 12.5 12.2836 12.5 12.0074C12.5 11.7313 12.2761 11.5074 12 11.5074C11.7239 11.5074 11.5 11.7313 11.5 12.0074C11.5 12.2836 11.7239 12.5074 12 12.5074Z" fill="#1F2937"/>
<path fill-rule="evenodd" clip-rule="evenodd" d="M12 12.5074C12.2761 12.5074 12.5 12.2836 12.5 12.0074C12.5 11.7313 12.2761 11.5074 12 11.5074C11.7239 11.5074 11.5 11.7313 11.5 12.0074C11.5 12.2836 11.7239 12.5074 12 12.5074ZM10.5 12.0074C10.5 11.179 11.1716 10.5074 12 10.5074C12.8284 10.5074 13.5 11.179 13.5 12.0074C13.5 12.8359 12.8284 13.5074 12 13.5074C11.1716 13.5074 10.5 12.8359 10.5 12.0074Z" fill="#1F2937"/>
<path fill-rule="evenodd" clip-rule="evenodd" d="M12 4C7.58172 4 4 7.58172 4 12C4 16.4183 7.58172 20 12 20C16.4183 20 20 16.4183 20 12C20 7.58172 16.4183 4 12 4ZM2 12C2 6.47715 6.47715 2 12 2C17.5228 2 22 6.47715 22 12C22 17.5228 17.5228 22 12 22C6.47715 22 2 17.5228 2 12Z" fill="#1F2937"/>
</svg>
