<svg width="24" height="24" viewBox="0 0 24 24" fill="none" xmlns="http://www.w3.org/2000/svg">
<path d="M12 12.5074C12.2761 12.5074 12.5 12.2836 12.5 12.0074C12.5 11.7313 12.2761 11.5074 12 11.5074C11.7239 11.5074 11.5 11.7313 11.5 12.0074C11.5 12.2836 11.7239 12.5074 12 12.5074Z" fill="#1F2937"/>
<path fill-rule="evenodd" clip-rule="evenodd" d="M12 12.5074C12.2761 12.5074 12.5 12.2836 12.5 12.0074C12.5 11.7313 12.2761 11.5074 12 11.5074C11.7239 11.5074 11.5 11.7313 11.5 12.0074C11.5 12.2836 11.7239 12.5074 12 12.5074ZM10.5 12.0074C10.5 11.179 11.1716 10.5074 12 10.5074C12.8284 10.5074 13.5 11.179 13.5 12.0074C13.5 12.8359 12.8284 13.5074 12 13.5074C11.1716 13.5074 10.5 12.8359 10.5 12.0074Z" fill="#1F2937"/>
<path fill-rule="evenodd" clip-rule="evenodd" d="M12 5.99255C8.68629 5.99255 6 8.67885 6 11.9926C6 15.3063 8.68629 17.9926 12 17.9926C15.3137 17.9926 18 15.3063 18 11.9926C18 8.67885 15.3137 5.99255 12 5.99255ZM4 11.9926C4 7.57428 7.58172 3.99255 12 3.99255C16.4183 3.99255 20 7.57428 20 11.9926C20 16.4108 16.4183 19.9926 12 19.9926C7.58172 19.9926 4 16.4108 4 11.9926Z" fill="#1F2937"/>
<path fill-rule="evenodd" clip-rule="evenodd" d="M12 2C12.5523 2 13 2.44772 13 3V5C13 5.55228 12.5523 6 12 6C11.4477 6 11 5.55228 11 5V3C11 2.44772 11.4477 2 12 2Z" fill="#1F2937"/>
<path fill-rule="evenodd" clip-rule="evenodd" d="M2 12C2 11.4477 2.44772 11 3 11H5C5.55228 11 6 11.4477 6 12C6 12.5523 5.55228 13 5 13H3C2.44772 13 2 12.5523 2 12Z" fill="#1F2937"/>
<path fill-rule="evenodd" clip-rule="evenodd" d="M12 18.0074C12.5523 18.0074 13 18.4552 13 19.0074V21.0074C13 21.5597 12.5523 22.0074 12 22.0074C11.4477 22.0074 11 21.5597 11 21.0074V19.0074C11 18.4552 11.4477 18.0074 12 18.0074Z" fill="#1F2937"/>
<path fill-rule="evenodd" clip-rule="evenodd" d="M18 12C18 11.4477 18.4477 11 19 11H21C21.5523 11 22 11.4477 22 12C22 12.5523 21.5523 13 21 13H19C18.4477 13 18 12.5523 18 12Z" fill="#1F2937"/>
</svg>
