<svg width="24" height="24" viewBox="0 0 24 24" fill="none" xmlns="http://www.w3.org/2000/svg">
<path fill-rule="evenodd" clip-rule="evenodd" d="M5 5.00757C4.73478 5.00757 4.48043 5.11293 4.29289 5.30046C4.10536 5.488 4 5.74235 4 6.00757V17.0076C4 17.2728 4.10536 17.5271 4.29289 17.7147C4.48043 17.9022 4.73478 18.0076 5 18.0076H19C19.2652 18.0076 19.5196 17.9022 19.7071 17.7147C19.8946 17.5271 20 17.2728 20 17.0076V9.00757C20 8.74235 19.8946 8.488 19.7071 8.30046C19.5196 8.11293 19.2652 8.00757 19 8.00757H12C11.7348 8.00757 11.4804 7.90221 11.2929 7.71467L8.58579 5.00757H5ZM2.87868 3.88625C3.44129 3.32364 4.20435 3.00757 5 3.00757H9C9.26522 3.00757 9.51957 3.11293 9.70711 3.30046L12.4142 6.00757H19C19.7957 6.00757 20.5587 6.32364 21.1213 6.88625C21.6839 7.44886 22 8.21192 22 9.00757V17.0076C22 17.8032 21.6839 18.5663 21.1213 19.1289C20.5587 19.6915 19.7957 20.0076 19 20.0076H5C4.20435 20.0076 3.44129 19.6915 2.87868 19.1289C2.31607 18.5663 2 17.8032 2 17.0076V6.00757C2 5.21192 2.31607 4.44886 2.87868 3.88625Z" fill="#1F2937"/>
<path fill-rule="evenodd" clip-rule="evenodd" d="M9.29289 10.2853C9.68342 9.8948 10.3166 9.8948 10.7071 10.2853L12 11.5782L13.2929 10.2853C13.6834 9.8948 14.3166 9.8948 14.7071 10.2853C15.0976 10.6758 15.0976 11.309 14.7071 11.6995L13.4142 12.9924L14.7071 14.2853C15.0976 14.6758 15.0976 15.309 14.7071 15.6995C14.3166 16.0901 13.6834 16.0901 13.2929 15.6995L12 14.4066L10.7071 15.6995C10.3166 16.0901 9.68342 16.0901 9.29289 15.6995C8.90237 15.309 8.90237 14.6758 9.29289 14.2853L10.5858 12.9924L9.29289 11.6995C8.90237 11.309 8.90237 10.6758 9.29289 10.2853Z" fill="#1F2937"/>
</svg>
