<svg width="24" height="24" viewBox="0 0 24 24" fill="none" xmlns="http://www.w3.org/2000/svg">
<path fill-rule="evenodd" clip-rule="evenodd" d="M9 5.00757C8.73478 5.00757 8.48043 5.11293 8.29289 5.30046C8.10536 5.488 8 5.74235 8 6.00757V15.0076C8 15.2728 8.10536 15.5271 8.29289 15.7147C8.48043 15.9022 8.73478 16.0076 9 16.0076H19C19.2652 16.0076 19.5196 15.9022 19.7071 15.7147C19.8946 15.5271 20 15.2728 20 15.0076V8.00757C20 7.74235 19.8946 7.488 19.7071 7.30046C19.5196 7.11293 19.2652 7.00757 19 7.00757H14C13.7348 7.00757 13.4804 6.90221 13.2929 6.71468L11.5858 5.00757H9ZM6.87868 3.88625C7.44129 3.32364 8.20435 3.00757 9 3.00757H12C12.2652 3.00757 12.5196 3.11293 12.7071 3.30046L14.4142 5.00757H19C19.7956 5.00757 20.5587 5.32364 21.1213 5.88625C21.6839 6.44886 22 7.21192 22 8.00757V15.0076C22 15.8032 21.6839 16.5663 21.1213 17.1289C20.5587 17.6915 19.7957 18.0076 19 18.0076H9C8.20435 18.0076 7.44129 17.6915 6.87868 17.1289C6.31607 16.5663 6 15.8032 6 15.0076V6.00757C6 5.21192 6.31607 4.44886 6.87868 3.88625Z" fill="#1F2937"/>
<path fill-rule="evenodd" clip-rule="evenodd" d="M5 8.99243C4.73478 8.99243 4.48043 9.09779 4.29289 9.28533C4.10536 9.47286 4 9.72722 4 9.99243V18.9924C4 19.2576 4.10536 19.512 4.29289 19.6995C4.48043 19.8871 4.73478 19.9924 5 19.9924H15C15.2652 19.9924 15.5196 19.8871 15.7071 19.6995C15.8946 19.512 16 19.2576 16 18.9924V16.9924C16 16.4401 16.4477 15.9924 17 15.9924C17.5523 15.9924 18 16.4401 18 16.9924V18.9924C18 19.7881 17.6839 20.5511 17.1213 21.1138C16.5587 21.6764 15.7957 21.9924 15 21.9924H5C4.20435 21.9924 3.44129 21.6764 2.87868 21.1138C2.31607 20.5511 2 19.7881 2 18.9924V9.99243C2 9.19678 2.31607 8.43372 2.87868 7.87111C3.44129 7.3085 4.20435 6.99243 5 6.99243H7C7.55228 6.99243 8 7.44015 8 7.99243C8 8.54472 7.55228 8.99243 7 8.99243H5Z" fill="#1F2937"/>
</svg>
