<svg width="24" height="24" viewBox="0 0 24 24" fill="none" xmlns="http://www.w3.org/2000/svg">
<path fill-rule="evenodd" clip-rule="evenodd" d="M5 16C4.44772 16 4 16.4477 4 17C4 17.5523 4.44772 18 5 18C5.55228 18 6 17.5523 6 17C6 16.4477 5.55228 16 5 16ZM2 17C2 15.3431 3.34315 14 5 14C6.65685 14 8 15.3431 8 17C8 18.6569 6.65685 20 5 20C3.34315 20 2 18.6569 2 17Z" fill="#1F2937"/>
<path fill-rule="evenodd" clip-rule="evenodd" d="M14 16C13.4477 16 13 16.4477 13 17C13 17.5523 13.4477 18 14 18C14.5523 18 15 17.5523 15 17C15 16.4477 14.5523 16 14 16ZM11 17C11 15.3431 12.3431 14 14 14C15.6569 14 17 15.3431 17 17C17 18.6569 15.6569 20 14 20C12.3431 20 11 18.6569 11 17Z" fill="#1F2937"/>
<path fill-rule="evenodd" clip-rule="evenodd" d="M6 16.9924C6 16.4401 6.44772 15.9924 7 15.9924H12C12.5523 15.9924 13 16.4401 13 16.9924C13 17.5447 12.5523 17.9924 12 17.9924H7C6.44772 17.9924 6 17.5447 6 16.9924Z" fill="#1F2937"/>
<path fill-rule="evenodd" clip-rule="evenodd" d="M2 10.9924C2 10.4401 2.44772 9.99243 3 9.99243H16C16.5523 9.99243 17 10.4401 17 10.9924V16.9924C17 17.5447 16.5523 17.9924 16 17.9924C15.4477 17.9924 15 17.5447 15 16.9924V11.9924H4V16.9924C4 17.5447 3.55228 17.9924 3 17.9924C2.44772 17.9924 2 17.5447 2 16.9924V10.9924Z" fill="#1F2937"/>
<path fill-rule="evenodd" clip-rule="evenodd" d="M4 7.00757C4 6.45528 4.44772 6.00757 5 6.00757H9C9.55228 6.00757 10 6.45528 10 7.00757C10 7.55985 9.55228 8.00757 9 8.00757H6V11.0076C6 11.5599 5.55228 12.0076 5 12.0076C4.44772 12.0076 4 11.5599 4 11.0076V7.00757Z" fill="#1F2937"/>
<path fill-rule="evenodd" clip-rule="evenodd" d="M8 4.99243C8 4.44015 8.44772 3.99243 9 3.99243H13C13.3788 3.99243 13.725 4.20643 13.8944 4.54522L16.8944 10.5452C17.1414 11.0392 16.9412 11.6399 16.4472 11.8869C15.9532 12.1338 15.3526 11.9336 15.1056 11.4396L12.382 5.99243H10V10.9924C10 11.5447 9.55228 11.9924 9 11.9924C8.44772 11.9924 8 11.5447 8 10.9924V4.99243Z" fill="#1F2937"/>
<path fill-rule="evenodd" clip-rule="evenodd" d="M19 3.99243C19.5523 3.99243 20 4.44015 20 4.99243V13.9924H22C22.5523 13.9924 23 14.4401 23 14.9924C23 15.5447 22.5523 15.9924 22 15.9924H19C18.4477 15.9924 18 15.5447 18 14.9924V4.99243C18 4.44015 18.4477 3.99243 19 3.99243Z" fill="#1F2937"/>
<path fill-rule="evenodd" clip-rule="evenodd" d="M15 13.0076C15 12.4553 15.4477 12.0076 16 12.0076H19C19.5523 12.0076 20 12.4553 20 13.0076C20 13.5599 19.5523 14.0076 19 14.0076H16C15.4477 14.0076 15 13.5599 15 13.0076Z" fill="#1F2937"/>
</svg>
