<svg width="24" height="24" viewBox="0 0 24 24" fill="none" xmlns="http://www.w3.org/2000/svg">
<path fill-rule="evenodd" clip-rule="evenodd" d="M7 4C6.44772 4 6 4.44772 6 5C6 5.55228 6.44772 6 7 6C7.55228 6 8 5.55228 8 5C8 4.44772 7.55228 4 7 4ZM4 5C4 3.34315 5.34315 2 7 2C8.65685 2 10 3.34315 10 5C10 6.65685 8.65685 8 7 8C5.34315 8 4 6.65685 4 5Z" fill="#1F2937"/>
<path fill-rule="evenodd" clip-rule="evenodd" d="M3.58579 10.5782C3.96086 10.2031 4.46957 9.99243 5 9.99243H9C9.53043 9.99243 10.0391 10.2031 10.4142 10.5782C10.7893 10.9533 11 11.462 11 11.9924V15.9924C11 16.2576 10.8946 16.512 10.7071 16.6995L10 17.4066V21.9924C10 22.5447 9.55228 22.9924 9 22.9924C8.44772 22.9924 8 22.5447 8 21.9924V16.9924C8 16.7272 8.10536 16.4729 8.29289 16.2853L9 15.5782V11.9924L5 11.9924L5 15.5782L5.70711 16.2853C5.89464 16.4729 6 16.7272 6 16.9924V21.9924C6 22.5447 5.55228 22.9924 5 22.9924C4.44772 22.9924 4 22.5447 4 21.9924V17.4066L3.29289 16.6995C3.10536 16.512 3 16.2576 3 15.9924V11.9924C3 11.462 3.21071 10.9533 3.58579 10.5782Z" fill="#1F2937"/>
<path fill-rule="evenodd" clip-rule="evenodd" d="M17 4C16.4477 4 16 4.44772 16 5C16 5.55228 16.4477 6 17 6C17.5523 6 18 5.55228 18 5C18 4.44772 17.5523 4 17 4ZM14 5C14 3.34315 15.3431 2 17 2C18.6569 2 20 3.34315 20 5C20 6.65685 18.6569 8 17 8C15.3431 8 14 6.65685 14 5Z" fill="#1F2937"/>
<path fill-rule="evenodd" clip-rule="evenodd" d="M14.5858 10.5782C14.9609 10.2031 15.4696 9.99243 16 9.99243H18C18.5304 9.99243 19.0391 10.2031 19.4142 10.5782C19.7444 10.9084 19.9473 11.3423 19.991 11.8033L21.9487 17.6762C22.0503 17.9812 21.9992 18.3164 21.8112 18.5771C21.6233 18.8379 21.3215 18.9924 21 18.9924H20V21.9924C20 22.5447 19.5523 22.9924 19 22.9924C18.4477 22.9924 18 22.5447 18 21.9924V17.9924C18 17.4401 18.4477 16.9924 19 16.9924H19.6126L18.0513 12.3087C18.0173 12.2067 18 12.0999 18 11.9924L16 11.9924C16 12.0999 15.9827 12.2067 15.9487 12.3087L14.3874 16.9924H15C15.5523 16.9924 16 17.4401 16 17.9924V21.9924C16 22.5447 15.5523 22.9924 15 22.9924C14.4477 22.9924 14 22.5447 14 21.9924V18.9924H13C12.6786 18.9924 12.3767 18.8379 12.1888 18.5771C12.0008 18.3164 11.9497 17.9812 12.0513 17.6762L14.009 11.8033C14.0527 11.3423 14.2556 10.9084 14.5858 10.5782Z" fill="#1F2937"/>
</svg>
