<svg width="24" height="24" viewBox="0 0 24 24" fill="none" xmlns="http://www.w3.org/2000/svg">
<path fill-rule="evenodd" clip-rule="evenodd" d="M12 4C7.58172 4 4 7.58172 4 12C4 16.4183 7.58172 20 12 20C16.4183 20 20 16.4183 20 12C20 7.58172 16.4183 4 12 4ZM2 12C2 6.47715 6.47715 2 12 2C17.5228 2 22 6.47715 22 12C22 17.5228 17.5228 22 12 22C6.47715 22 2 17.5228 2 12Z" fill="#1F2937"/>
<path fill-rule="evenodd" clip-rule="evenodd" d="M10 11.9926C10 10.888 10.8954 9.99255 12 9.99255C13.1046 9.99255 14 10.888 14 11.9926C14 13.0971 13.1046 13.9926 12 13.9926C10.8954 13.9926 10 13.0971 10 11.9926Z" fill="#1F2937"/>
<path fill-rule="evenodd" clip-rule="evenodd" d="M16.707 7.28545C17.0975 7.67597 17.0975 8.30914 16.707 8.69966L14.117 11.2897C13.7265 11.6802 13.0933 11.6802 12.7028 11.2897C12.3123 10.8991 12.3123 10.266 12.7028 9.87545L15.2928 7.28545C15.6833 6.89492 16.3165 6.89492 16.707 7.28545Z" fill="#1F2937"/>
<path fill-rule="evenodd" clip-rule="evenodd" d="M12 8.00745C10.9391 8.00745 9.92172 8.42887 9.17157 9.17902C8.42143 9.92917 8 10.9466 8 12.0074C8 12.5597 7.55228 13.0074 7 13.0074C6.44772 13.0074 6 12.5597 6 12.0074C6 10.4161 6.63214 8.89002 7.75736 7.76481C8.88258 6.63959 10.4087 6.00745 12 6.00745C12.5523 6.00745 13 6.45516 13 7.00745C13 7.55973 12.5523 8.00745 12 8.00745Z" fill="#1F2937"/>
</svg>
