<svg width="24" height="24" viewBox="0 0 24 24" fill="none" xmlns="http://www.w3.org/2000/svg">
<path fill-rule="evenodd" clip-rule="evenodd" d="M2 8.99255C2 7.88798 2.89543 6.99255 4 6.99255H20C21.1046 6.99255 22 7.88798 22 8.99255V10.9926C22 12.0971 21.1046 12.9926 20 12.9926H4C2.89543 12.9926 2 12.0971 2 10.9926V8.99255ZM20 8.99255L4 8.99255V10.9926H20V8.99255Z" fill="#1F2937"/>
<path fill-rule="evenodd" clip-rule="evenodd" d="M12 6.99255C12.5523 6.99255 13 7.44027 13 7.99255V20.9926C13 21.5448 12.5523 21.9926 12 21.9926C11.4477 21.9926 11 21.5448 11 20.9926V7.99255C11 7.44027 11.4477 6.99255 12 6.99255Z" fill="#1F2937"/>
<path fill-rule="evenodd" clip-rule="evenodd" d="M5 11C5.55228 11 6 11.4477 6 12V19C6 19.2652 6.10536 19.5196 6.29289 19.7071C6.48043 19.8946 6.73478 20 7 20H17C17.2652 20 17.5196 19.8946 17.7071 19.7071C17.8946 19.5196 18 19.2652 18 19V12C18 11.4477 18.4477 11 19 11C19.5523 11 20 11.4477 20 12V19C20 19.7957 19.6839 20.5587 19.1213 21.1213C18.5587 21.6839 17.7957 22 17 22H7C6.20435 22 5.44129 21.6839 4.87868 21.1213C4.31607 20.5587 4 19.7956 4 19V12C4 11.4477 4.44772 11 5 11Z" fill="#1F2937"/>
<path fill-rule="evenodd" clip-rule="evenodd" d="M9.46944 5.01208C8.80934 4.27863 8.12408 3.98923 7.51742 3.9998L7.5 3.99996C7.10218 3.99996 6.72065 4.15799 6.43934 4.4393C6.15804 4.7206 6 5.10213 6 5.49996C6 5.89779 6.15804 6.27932 6.43934 6.56063C6.72065 6.84193 7.10218 6.99997 7.5 6.99997C8.05228 6.99997 8.5 7.44768 8.5 7.99997C8.5 8.55225 8.05228 8.99997 7.5 8.99997C6.57174 8.99997 5.6815 8.63122 5.02513 7.97484C4.36875 7.31846 4 6.42822 4 5.49996C4 4.5717 4.36875 3.68146 5.02513 3.02508C5.67943 2.37078 6.56612 2.00229 7.4912 1.99997C8.81053 1.97987 10.0128 2.62608 10.956 3.67416C11.3497 4.11155 11.6987 4.61777 12 5.17653C12.3013 4.61777 12.6503 4.11155 13.044 3.67416C13.9872 2.62608 15.1895 1.97987 16.5088 1.99997C17.4339 2.00229 18.3206 2.37078 18.9749 3.02508C19.6313 3.68146 20 4.5717 20 5.49996C20 6.42822 19.6313 7.31846 18.9749 7.97484C18.3185 8.63122 17.4283 8.99997 16.5 8.99997C15.9477 8.99997 15.5 8.55225 15.5 7.99997C15.5 7.44768 15.9477 6.99997 16.5 6.99997C16.8978 6.99997 17.2794 6.84193 17.5607 6.56063C17.842 6.27932 18 5.89779 18 5.49996C18 5.10213 17.842 4.7206 17.5607 4.4393C17.2794 4.15799 16.8978 3.99996 16.5 3.99996L16.4826 3.9998C15.8759 3.98923 15.1907 4.27863 14.5306 5.01208C13.8654 5.75118 13.305 6.86256 12.9718 8.23579C12.863 8.68422 12.4614 8.99997 12 8.99997C11.5386 8.99997 11.137 8.68422 11.0282 8.23579C10.695 6.86256 10.1346 5.75118 9.46944 5.01208Z" fill="#1F2937"/>
</svg>
