<svg width="24" height="24" viewBox="0 0 24 24" fill="none" xmlns="http://www.w3.org/2000/svg">
<path fill-rule="evenodd" clip-rule="evenodd" d="M12 17.0076C11.4477 17.0076 11 17.4553 11 18.0076C11 18.5599 11.4477 19.0076 12 19.0076C12.5523 19.0076 13 18.5599 13 18.0076C13 17.4553 12.5523 17.0076 12 17.0076ZM9 18.0076C9 16.3507 10.3431 15.0076 12 15.0076C13.6569 15.0076 15 16.3507 15 18.0076C15 19.6644 13.6569 21.0076 12 21.0076C10.3431 21.0076 9 19.6644 9 18.0076Z" fill="#1F2937"/>
<path fill-rule="evenodd" clip-rule="evenodd" d="M7 5.00757C6.44772 5.00757 6 5.45528 6 6.00757C6 6.55985 6.44772 7.00757 7 7.00757C7.55228 7.00757 8 6.55985 8 6.00757C8 5.45528 7.55228 5.00757 7 5.00757ZM4 6.00757C4 4.35071 5.34315 3.00757 7 3.00757C8.65685 3.00757 10 4.35071 10 6.00757C10 7.66442 8.65685 9.00757 7 9.00757C5.34315 9.00757 4 7.66442 4 6.00757Z" fill="#1F2937"/>
<path fill-rule="evenodd" clip-rule="evenodd" d="M17 5.00757C16.4477 5.00757 16 5.45528 16 6.00757C16 6.55985 16.4477 7.00757 17 7.00757C17.5523 7.00757 18 6.55985 18 6.00757C18 5.45528 17.5523 5.00757 17 5.00757ZM14 6.00757C14 4.35071 15.3431 3.00757 17 3.00757C18.6569 3.00757 20 4.35071 20 6.00757C20 7.66442 18.6569 9.00757 17 9.00757C15.3431 9.00757 14 7.66442 14 6.00757Z" fill="#1F2937"/>
<path fill-rule="evenodd" clip-rule="evenodd" d="M7 6.99243C7.55228 6.99243 8 7.44015 8 7.99243V9.99243C8 10.2576 8.10536 10.512 8.29289 10.6995C8.48043 10.8871 8.73478 10.9924 9 10.9924H15C15.2652 10.9924 15.5196 10.8871 15.7071 10.6995C15.8946 10.512 16 10.2576 16 9.99243V7.99243C16 7.44015 16.4477 6.99243 17 6.99243C17.5523 6.99243 18 7.44015 18 7.99243V9.99243C18 10.7881 17.6839 11.5511 17.1213 12.1138C16.5587 12.6764 15.7957 12.9924 15 12.9924H9C8.20435 12.9924 7.44129 12.6764 6.87868 12.1138C6.31607 11.5511 6 10.7881 6 9.99243V7.99243C6 7.44015 6.44772 6.99243 7 6.99243Z" fill="#1F2937"/>
<path fill-rule="evenodd" clip-rule="evenodd" d="M12 11C12.5523 11 13 11.4477 13 12V16C13 16.5523 12.5523 17 12 17C11.4477 17 11 16.5523 11 16V12C11 11.4477 11.4477 11 12 11Z" fill="#1F2937"/>
</svg>
