<svg width="24" height="24" viewBox="0 0 24 24" fill="none" xmlns="http://www.w3.org/2000/svg">
<path fill-rule="evenodd" clip-rule="evenodd" d="M7 17.0076C6.44772 17.0076 6 17.4553 6 18.0076C6 18.5599 6.44772 19.0076 7 19.0076C7.55228 19.0076 8 18.5599 8 18.0076C8 17.4553 7.55228 17.0076 7 17.0076ZM4 18.0076C4 16.3507 5.34315 15.0076 7 15.0076C8.65685 15.0076 10 16.3507 10 18.0076C10 19.6644 8.65685 21.0076 7 21.0076C5.34315 21.0076 4 19.6644 4 18.0076Z" fill="#1F2937"/>
<path fill-rule="evenodd" clip-rule="evenodd" d="M7 5.00757C6.44772 5.00757 6 5.45528 6 6.00757C6 6.55985 6.44772 7.00757 7 7.00757C7.55228 7.00757 8 6.55985 8 6.00757C8 5.45528 7.55228 5.00757 7 5.00757ZM4 6.00757C4 4.35071 5.34315 3.00757 7 3.00757C8.65685 3.00757 10 4.35071 10 6.00757C10 7.66442 8.65685 9.00757 7 9.00757C5.34315 9.00757 4 7.66442 4 6.00757Z" fill="#1F2937"/>
<path fill-rule="evenodd" clip-rule="evenodd" d="M17 5.00757C16.4477 5.00757 16 5.45528 16 6.00757C16 6.55985 16.4477 7.00757 17 7.00757C17.5523 7.00757 18 6.55985 18 6.00757C18 5.45528 17.5523 5.00757 17 5.00757ZM14 6.00757C14 4.35071 15.3431 3.00757 17 3.00757C18.6569 3.00757 20 4.35071 20 6.00757C20 7.66442 18.6569 9.00757 17 9.00757C15.3431 9.00757 14 7.66442 14 6.00757Z" fill="#1F2937"/>
<path fill-rule="evenodd" clip-rule="evenodd" d="M7 6.99243C7.55228 6.99243 8 7.44015 8 7.99243V15.9924C8 16.5447 7.55228 16.9924 7 16.9924C6.44772 16.9924 6 16.5447 6 15.9924V7.99243C6 7.44015 6.44772 6.99243 7 6.99243Z" fill="#1F2937"/>
<path fill-rule="evenodd" clip-rule="evenodd" d="M17 9.99243C17.5523 9.99243 18 10.4401 18 10.9924V15.9924C18 16.7881 17.6839 17.5511 17.1213 18.1138C16.5587 18.6764 15.7957 18.9924 15 18.9924H9C8.44772 18.9924 8 18.5447 8 17.9924C8 17.4401 8.44772 16.9924 9 16.9924H15C15.2652 16.9924 15.5196 16.8871 15.7071 16.6995C15.8946 16.512 16 16.2576 16 15.9924V10.9924C16 10.4401 16.4477 9.99243 17 9.99243Z" fill="#1F2937"/>
<path fill-rule="evenodd" clip-rule="evenodd" d="M16.2929 10.2853C16.6834 9.8948 17.3166 9.8948 17.7071 10.2853L20.7071 13.2853C21.0976 13.6758 21.0976 14.309 20.7071 14.6995C20.3166 15.0901 19.6834 15.0901 19.2929 14.6995L17 12.4066L14.7071 14.6995C14.3166 15.0901 13.6834 15.0901 13.2929 14.6995C12.9024 14.309 12.9024 13.6758 13.2929 13.2853L16.2929 10.2853Z" fill="#1F2937"/>
</svg>
