<svg width="24" height="24" viewBox="0 0 24 24" fill="none" xmlns="http://www.w3.org/2000/svg">
<path fill-rule="evenodd" clip-rule="evenodd" d="M6 17.0076C5.44772 17.0076 5 17.4553 5 18.0076C5 18.5599 5.44772 19.0076 6 19.0076C6.55228 19.0076 7 18.5599 7 18.0076C7 17.4553 6.55228 17.0076 6 17.0076ZM3 18.0076C3 16.3507 4.34315 15.0076 6 15.0076C7.65685 15.0076 9 16.3507 9 18.0076C9 19.6644 7.65685 21.0076 6 21.0076C4.34315 21.0076 3 19.6644 3 18.0076Z" fill="#1F2937"/>
<path fill-rule="evenodd" clip-rule="evenodd" d="M6 5.00757C5.44772 5.00757 5 5.45528 5 6.00757C5 6.55985 5.44772 7.00757 6 7.00757C6.55228 7.00757 7 6.55985 7 6.00757C7 5.45528 6.55228 5.00757 6 5.00757ZM3 6.00757C3 4.35071 4.34315 3.00757 6 3.00757C7.65685 3.00757 9 4.35071 9 6.00757C9 7.66442 7.65685 9.00757 6 9.00757C4.34315 9.00757 3 7.66442 3 6.00757Z" fill="#1F2937"/>
<path fill-rule="evenodd" clip-rule="evenodd" d="M18 17.0076C17.4477 17.0076 17 17.4553 17 18.0076C17 18.5599 17.4477 19.0076 18 19.0076C18.5523 19.0076 19 18.5599 19 18.0076C19 17.4553 18.5523 17.0076 18 17.0076ZM15 18.0076C15 16.3507 16.3431 15.0076 18 15.0076C19.6569 15.0076 21 16.3507 21 18.0076C21 19.6644 19.6569 21.0076 18 21.0076C16.3431 21.0076 15 19.6644 15 18.0076Z" fill="#1F2937"/>
<path fill-rule="evenodd" clip-rule="evenodd" d="M6 6.99243C6.55228 6.99243 7 7.44015 7 7.99243V15.9924C7 16.5447 6.55228 16.9924 6 16.9924C5.44772 16.9924 5 16.5447 5 15.9924V7.99243C5 7.44015 5.44772 6.99243 6 6.99243Z" fill="#1F2937"/>
<path fill-rule="evenodd" clip-rule="evenodd" d="M10 6C10 5.44772 10.4477 5 11 5H16C16.7956 5 17.5587 5.31607 18.1213 5.87868C18.6839 6.44129 19 7.20435 19 8V16C19 16.5523 18.5523 17 18 17C17.4477 17 17 16.5523 17 16V8C17 7.73478 16.8946 7.48043 16.7071 7.29289C16.5196 7.10536 16.2652 7 16 7H11C10.4477 7 10 6.55228 10 6Z" fill="#1F2937"/>
<path fill-rule="evenodd" clip-rule="evenodd" d="M14.7071 2.29289C15.0976 2.68342 15.0976 3.31658 14.7071 3.70711L12.4142 6L14.7071 8.29289C15.0976 8.68342 15.0976 9.31658 14.7071 9.70711C14.3166 10.0976 13.6834 10.0976 13.2929 9.70711L10.2929 6.70711C9.90237 6.31658 9.90237 5.68342 10.2929 5.29289L13.2929 2.29289C13.6834 1.90237 14.3166 1.90237 14.7071 2.29289Z" fill="#1F2937"/>
</svg>
