<svg width="24" height="24" viewBox="0 0 24 24" fill="none" xmlns="http://www.w3.org/2000/svg">
<path fill-rule="evenodd" clip-rule="evenodd" d="M7 17.0076C6.44772 17.0076 6 17.4553 6 18.0076C6 18.5599 6.44772 19.0076 7 19.0076C7.55228 19.0076 8 18.5599 8 18.0076C8 17.4553 7.55228 17.0076 7 17.0076ZM4 18.0076C4 16.3507 5.34315 15.0076 7 15.0076C8.65685 15.0076 10 16.3507 10 18.0076C10 19.6644 8.65685 21.0076 7 21.0076C5.34315 21.0076 4 19.6644 4 18.0076Z" fill="#1F2937"/>
<path fill-rule="evenodd" clip-rule="evenodd" d="M7 5.00757C6.44772 5.00757 6 5.45528 6 6.00757C6 6.55985 6.44772 7.00757 7 7.00757C7.55228 7.00757 8 6.55985 8 6.00757C8 5.45528 7.55228 5.00757 7 5.00757ZM4 6.00757C4 4.35071 5.34315 3.00757 7 3.00757C8.65685 3.00757 10 4.35071 10 6.00757C10 7.66442 8.65685 9.00757 7 9.00757C5.34315 9.00757 4 7.66442 4 6.00757Z" fill="#1F2937"/>
<path fill-rule="evenodd" clip-rule="evenodd" d="M17 11.0076C16.4477 11.0076 16 11.4553 16 12.0076C16 12.5599 16.4477 13.0076 17 13.0076C17.5523 13.0076 18 12.5599 18 12.0076C18 11.4553 17.5523 11.0076 17 11.0076ZM14 12.0076C14 10.3507 15.3431 9.00757 17 9.00757C18.6569 9.00757 20 10.3507 20 12.0076C20 13.6644 18.6569 15.0076 17 15.0076C15.3431 15.0076 14 13.6644 14 12.0076Z" fill="#1F2937"/>
<path fill-rule="evenodd" clip-rule="evenodd" d="M7 6.99243C7.55228 6.99243 8 7.44015 8 7.99243V15.9924C8 16.5447 7.55228 16.9924 7 16.9924C6.44772 16.9924 6 16.5447 6 15.9924V7.99243C6 7.44015 6.44772 6.99243 7 6.99243Z" fill="#1F2937"/>
<path fill-rule="evenodd" clip-rule="evenodd" d="M7 6.99243C7.55228 6.99243 8 7.44015 8 7.99243C8 8.78808 8.31607 9.55114 8.87868 10.1138C9.44129 10.6764 10.2044 10.9924 11 10.9924H15C15.5523 10.9924 16 11.4401 16 11.9924C16 12.5447 15.5523 12.9924 15 12.9924H11C9.67392 12.9924 8.40215 12.4656 7.46447 11.528C6.52678 10.5903 6 9.31851 6 7.99243C6 7.44015 6.44772 6.99243 7 6.99243Z" fill="#1F2937"/>
</svg>
