<svg width="24" height="24" viewBox="0 0 24 24" fill="none" xmlns="http://www.w3.org/2000/svg">
<path fill-rule="evenodd" clip-rule="evenodd" d="M12 7C10.3431 7 9 8.34315 9 10C9 11.6569 10.3431 13 12 13C13.6569 13 15 11.6569 15 10C15 8.34315 13.6569 7 12 7ZM7 10C7 7.23858 9.23858 5 12 5C14.7614 5 17 7.23858 17 10C17 12.7614 14.7614 15 12 15C9.23858 15 7 12.7614 7 10Z" fill="#1F2937"/>
<path fill-rule="evenodd" clip-rule="evenodd" d="M15.133 2.50172C15.4082 2.0229 16.0195 1.85784 16.4983 2.13306C17.5884 2.75961 18.5354 3.60725 19.2784 4.62152C20.0214 5.6358 20.544 6.79429 20.8127 8.02255C21.0814 9.25082 21.0902 10.5217 20.8385 11.7536C20.5868 12.9854 20.0802 14.151 19.3513 15.1755C18.6223 16.1999 17.6872 17.0605 16.6059 17.7021C15.5246 18.3436 14.321 18.7519 13.0725 18.9007C11.824 19.0494 10.5582 18.9354 9.35646 18.5658C8.15468 18.1963 7.04348 17.5795 6.09425 16.755C5.6773 16.3928 5.63288 15.7612 5.99505 15.3443C6.35721 14.9273 6.98882 14.8829 7.40578 15.2451C8.14442 15.8867 9.00909 16.3666 9.94426 16.6542C10.8794 16.9417 11.8644 17.0305 12.8359 16.9147C13.8074 16.799 14.7439 16.4813 15.5854 15.982C16.4268 15.4828 17.1545 14.8131 17.7217 14.016C18.2889 13.2188 18.6831 12.3118 18.879 11.3532C19.0748 10.3946 19.068 9.40571 18.8589 8.44993C18.6498 7.49416 18.2431 6.59269 17.665 5.80343C17.0868 5.01417 16.3499 4.35458 15.5017 3.86704C15.0229 3.59182 14.8578 2.98055 15.133 2.50172Z" fill="#1F2937"/>
<path fill-rule="evenodd" clip-rule="evenodd" d="M12 17C12.5523 17 13 17.4477 13 18V22C13 22.5523 12.5523 23 12 23C11.4477 23 11 22.5523 11 22V18C11 17.4477 11.4477 17 12 17Z" fill="#1F2937"/>
<path fill-rule="evenodd" clip-rule="evenodd" d="M7 22.0074C7 21.4552 7.44772 21.0074 8 21.0074H16C16.5523 21.0074 17 21.4552 17 22.0074C17 22.5597 16.5523 23.0074 16 23.0074H8C7.44772 23.0074 7 22.5597 7 22.0074Z" fill="#1F2937"/>
</svg>
