<svg width="24" height="24" viewBox="0 0 24 24" fill="none" xmlns="http://www.w3.org/2000/svg">
<path fill-rule="evenodd" clip-rule="evenodd" d="M3 5.00757C3 3.903 3.89543 3.00757 5 3.00757C6.10457 3.00757 7 3.903 7 5.00757C7 6.11214 6.10457 7.00757 5 7.00757C3.89543 7.00757 3 6.11214 3 5.00757Z" fill="#1F2937"/>
<path fill-rule="evenodd" clip-rule="evenodd" d="M10 5.00757C10 3.903 10.8954 3.00757 12 3.00757C13.1046 3.00757 14 3.903 14 5.00757C14 6.11214 13.1046 7.00757 12 7.00757C10.8954 7.00757 10 6.11214 10 5.00757Z" fill="#1F2937"/>
<path fill-rule="evenodd" clip-rule="evenodd" d="M17 5.00757C17 3.903 17.8954 3.00757 19 3.00757C20.1046 3.00757 21 3.903 21 5.00757C21 6.11214 20.1046 7.00757 19 7.00757C17.8954 7.00757 17 6.11214 17 5.00757Z" fill="#1F2937"/>
<path fill-rule="evenodd" clip-rule="evenodd" d="M3 11.9924C3 10.8879 3.89543 9.99243 5 9.99243C6.10457 9.99243 7 10.8879 7 11.9924C7 13.097 6.10457 13.9924 5 13.9924C3.89543 13.9924 3 13.097 3 11.9924Z" fill="#1F2937"/>
<path fill-rule="evenodd" clip-rule="evenodd" d="M10 11.9924C10 10.8879 10.8954 9.99243 12 9.99243C13.1046 9.99243 14 10.8879 14 11.9924C14 13.097 13.1046 13.9924 12 13.9924C10.8954 13.9924 10 13.097 10 11.9924Z" fill="#1F2937"/>
<path fill-rule="evenodd" clip-rule="evenodd" d="M17 11.9924C17 10.8879 17.8954 9.99243 19 9.99243C20.1046 9.99243 21 10.8879 21 11.9924C21 13.097 20.1046 13.9924 19 13.9924C17.8954 13.9924 17 13.097 17 11.9924Z" fill="#1F2937"/>
<path fill-rule="evenodd" clip-rule="evenodd" d="M3 19C3 17.8954 3.89543 17 5 17C6.10457 17 7 17.8954 7 19C7 20.1046 6.10457 21 5 21C3.89543 21 3 20.1046 3 19Z" fill="#1F2937"/>
<path fill-rule="evenodd" clip-rule="evenodd" d="M10 19C10 17.8954 10.8954 17 12 17C13.1046 17 14 17.8954 14 19C14 20.1046 13.1046 21 12 21C10.8954 21 10 20.1046 10 19Z" fill="#1F2937"/>
<path fill-rule="evenodd" clip-rule="evenodd" d="M17 19C17 17.8954 17.8954 17 19 17C20.1046 17 21 17.8954 21 19C21 20.1046 20.1046 21 19 21C17.8954 21 17 20.1046 17 19Z" fill="#1F2937"/>
</svg>
