<svg width="24" height="24" viewBox="0 0 24 24" fill="none" xmlns="http://www.w3.org/2000/svg">
<path fill-rule="evenodd" clip-rule="evenodd" d="M3 5.00757C3 3.903 3.89543 3.00757 5 3.00757H9C10.1046 3.00757 11 3.903 11 5.00757V9.00757C11 10.1121 10.1046 11.0076 9 11.0076H5C3.89543 11.0076 3 10.1121 3 9.00757V5.00757ZM9 5.00757H5V9.00757H9V5.00757Z" fill="#1F2937"/>
<path fill-rule="evenodd" clip-rule="evenodd" d="M13 5.00757C13 3.903 13.8954 3.00757 15 3.00757H19C20.1046 3.00757 21 3.903 21 5.00757V9.00757C21 10.1121 20.1046 11.0076 19 11.0076H15C13.8954 11.0076 13 10.1121 13 9.00757V5.00757ZM19 5.00757H15V9.00757H19V5.00757Z" fill="#1F2937"/>
<path fill-rule="evenodd" clip-rule="evenodd" d="M3 14.9924C3 13.8879 3.89543 12.9924 5 12.9924H9C10.1046 12.9924 11 13.8879 11 14.9924V18.9924C11 20.097 10.1046 20.9924 9 20.9924H5C3.89543 20.9924 3 20.097 3 18.9924V14.9924ZM9 14.9924H5V18.9924H9V14.9924Z" fill="#1F2937"/>
<path fill-rule="evenodd" clip-rule="evenodd" d="M13 14.9924C13 13.8879 13.8954 12.9924 15 12.9924H19C20.1046 12.9924 21 13.8879 21 14.9924V18.9924C21 20.097 20.1046 20.9924 19 20.9924H15C13.8954 20.9924 13 20.097 13 18.9924V14.9924ZM19 14.9924H15V18.9924H19V14.9924Z" fill="#1F2937"/>
</svg>
