<svg width="24" height="24" viewBox="0 0 24 24" fill="none" xmlns="http://www.w3.org/2000/svg">
<path fill-rule="evenodd" clip-rule="evenodd" d="M3 8.99255C3 7.88798 3.89543 6.99255 5 6.99255C6.10457 6.99255 7 7.88798 7 8.99255C7 10.0971 6.10457 10.9926 5 10.9926C3.89543 10.9926 3 10.0971 3 8.99255Z" fill="#1F2937"/>
<path fill-rule="evenodd" clip-rule="evenodd" d="M3 14.9926C3 13.888 3.89543 12.9926 5 12.9926C6.10457 12.9926 7 13.888 7 14.9926C7 16.0971 6.10457 16.9926 5 16.9926C3.89543 16.9926 3 16.0971 3 14.9926Z" fill="#1F2937"/>
<path fill-rule="evenodd" clip-rule="evenodd" d="M10 8.99255C10 7.88798 10.8954 6.99255 12 6.99255C13.1046 6.99255 14 7.88798 14 8.99255C14 10.0971 13.1046 10.9926 12 10.9926C10.8954 10.9926 10 10.0971 10 8.99255Z" fill="#1F2937"/>
<path fill-rule="evenodd" clip-rule="evenodd" d="M10 14.9926C10 13.888 10.8954 12.9926 12 12.9926C13.1046 12.9926 14 13.888 14 14.9926C14 16.0971 13.1046 16.9926 12 16.9926C10.8954 16.9926 10 16.0971 10 14.9926Z" fill="#1F2937"/>
<path fill-rule="evenodd" clip-rule="evenodd" d="M17 8.99255C17 7.88798 17.8954 6.99255 19 6.99255C20.1046 6.99255 21 7.88798 21 8.99255C21 10.0971 20.1046 10.9926 19 10.9926C17.8954 10.9926 17 10.0971 17 8.99255Z" fill="#1F2937"/>
<path fill-rule="evenodd" clip-rule="evenodd" d="M17 14.9926C17 13.888 17.8954 12.9926 19 12.9926C20.1046 12.9926 21 13.888 21 14.9926C21 16.0971 20.1046 16.9926 19 16.9926C17.8954 16.9926 17 16.0971 17 14.9926Z" fill="#1F2937"/>
</svg>
