<svg width="24" height="24" viewBox="0 0 24 24" fill="none" xmlns="http://www.w3.org/2000/svg">
<path fill-rule="evenodd" clip-rule="evenodd" d="M7 5.00745C7 3.90288 7.89543 3.00745 9 3.00745C10.1046 3.00745 11 3.90288 11 5.00745C11 6.11202 10.1046 7.00745 9 7.00745C7.89543 7.00745 7 6.11202 7 5.00745Z" fill="#1F2937"/>
<path fill-rule="evenodd" clip-rule="evenodd" d="M7 11.9926C7 10.888 7.89543 9.99255 9 9.99255C10.1046 9.99255 11 10.888 11 11.9926C11 13.0971 10.1046 13.9926 9 13.9926C7.89543 13.9926 7 13.0971 7 11.9926Z" fill="#1F2937"/>
<path fill-rule="evenodd" clip-rule="evenodd" d="M7 19C7 17.8954 7.89543 17 9 17C10.1046 17 11 17.8954 11 19C11 20.1046 10.1046 21 9 21C7.89543 21 7 20.1046 7 19Z" fill="#1F2937"/>
<path fill-rule="evenodd" clip-rule="evenodd" d="M13 5.00745C13 3.90288 13.8954 3.00745 15 3.00745C16.1046 3.00745 17 3.90288 17 5.00745C17 6.11202 16.1046 7.00745 15 7.00745C13.8954 7.00745 13 6.11202 13 5.00745Z" fill="#1F2937"/>
<path fill-rule="evenodd" clip-rule="evenodd" d="M13 11.9926C13 10.888 13.8954 9.99255 15 9.99255C16.1046 9.99255 17 10.888 17 11.9926C17 13.0971 16.1046 13.9926 15 13.9926C13.8954 13.9926 13 13.0971 13 11.9926Z" fill="#1F2937"/>
<path fill-rule="evenodd" clip-rule="evenodd" d="M13 19C13 17.8954 13.8954 17 15 17C16.1046 17 17 17.8954 17 19C17 20.1046 16.1046 21 15 21C13.8954 21 13 20.1046 13 19Z" fill="#1F2937"/>
</svg>
