<svg width="24" height="24" viewBox="0 0 24 24" fill="none" xmlns="http://www.w3.org/2000/svg">
<path fill-rule="evenodd" clip-rule="evenodd" d="M12.5 2.99255C12.3674 2.99255 12.2403 3.04523 12.1465 3.139C12.0527 3.23277 12 3.35995 12 3.49255V11.9926C12 12.5448 11.5523 12.9926 11 12.9926C10.4478 12.9926 10 12.5448 10 11.9926V9.49255C10 9.35995 9.94737 9.23277 9.8536 9.139C9.75983 9.04523 9.63266 8.99255 9.50005 8.99255C9.36744 8.99255 9.24026 9.04523 9.14649 9.139C9.05273 9.23277 9.00005 9.35995 9.00005 9.49255V13.4926C9.00005 14.0448 8.55233 14.4926 8.00005 14.4926C7.99322 14.4926 7.98641 14.4925 7.97961 14.4923C7.60669 14.5031 7.24277 14.3038 7.06076 13.9499L6.20375 12.2835C6.09609 12.1595 5.94773 12.0767 5.78425 12.0509C5.60082 12.022 5.4134 12.0671 5.26322 12.1763C5.11304 12.2855 5.0124 12.4499 4.98343 12.6334C4.95447 12.8168 4.99956 13.0042 5.10878 13.1544C5.13895 13.1959 5.16588 13.2396 5.18934 13.2852L7.86487 18.4876C8.28977 19.1261 8.88336 19.689 9.61301 20.1267C10.3404 20.5632 11.1796 20.861 12.071 20.9926H14C15.3261 20.9926 16.5979 20.4658 17.5356 19.5281C18.4733 18.5904 19 17.3186 19 15.9926V10.4926C19 10.3599 18.9474 10.2328 18.8536 10.139C18.7598 10.0452 18.6327 9.99255 18.5 9.99255C18.3674 9.99255 18.2403 10.0452 18.1465 10.139C18.0527 10.2328 18 10.3599 18 10.4926V11.9926C18 12.5448 17.5523 12.9926 17 12.9926C16.4478 12.9926 16 12.5448 16 11.9926V9.49255C16 9.35995 15.9474 9.23277 15.8536 9.139C15.7598 9.04523 15.6327 8.99255 15.5 8.99255C15.3674 8.99255 15.2403 9.04523 15.1465 9.139C15.0527 9.23277 15 9.35995 15 9.49255V11.9926C15 12.5448 14.5523 12.9926 14 12.9926C13.4478 12.9926 13 12.5448 13 11.9926V3.49255C13 3.35995 12.9474 3.23277 12.8536 3.139C12.7598 3.04523 12.6327 2.99255 12.5 2.99255ZM15 7.04305V3.49255C15 2.82951 14.7367 2.19363 14.2678 1.72479C13.799 1.25595 13.1631 0.992554 12.5 0.992554C11.837 0.992554 11.2011 1.25595 10.7323 1.72479C10.2634 2.19363 10 2.82951 10 3.49255V7.04305C9.8367 7.00971 9.66926 6.99255 9.50005 6.99255C8.83701 6.99255 8.20112 7.25595 7.73228 7.72479C7.26344 8.19363 7.00005 8.82951 7.00005 9.49255V10.3898C6.7225 10.2335 6.41687 10.126 6.09618 10.0754C5.38881 9.96372 4.66604 10.1376 4.08688 10.5588C3.50771 10.98 3.1196 11.6141 3.00791 12.3214C2.90069 13.0005 3.05664 13.6937 3.44193 14.2605L6.11076 19.4499C6.12633 19.4802 6.14343 19.5096 6.162 19.5381C6.76556 20.4653 7.5972 21.2496 8.58401 21.8417C9.57062 22.4337 10.692 22.8215 11.8633 22.9832C11.9086 22.9894 11.9543 22.9926 12 22.9926H14C15.8566 22.9926 17.637 22.2551 18.9498 20.9423C20.2626 19.6295 21 17.8491 21 15.9926V10.4926C21 9.82951 20.7367 9.19363 20.2678 8.72479C19.799 8.25595 19.1631 7.99255 18.5 7.99255C18.1938 7.99255 17.8933 8.04875 17.6124 8.15544C17.5146 8.00081 17.3993 7.85623 17.2678 7.72479C16.799 7.25595 16.1631 6.99255 15.5 6.99255C15.3308 6.99255 15.1634 7.00971 15 7.04305Z" fill="#1F2937"/>
</svg>
