<svg width="24" height="24" viewBox="0 0 24 24" fill="none" xmlns="http://www.w3.org/2000/svg">
<path fill-rule="evenodd" clip-rule="evenodd" d="M4 9C4 8.44772 4.44772 8 5 8H19C19.5523 8 20 8.44772 20 9C20 9.55228 19.5523 10 19 10H5C4.44772 10 4 9.55228 4 9Z" fill="#1F2937"/>
<path fill-rule="evenodd" clip-rule="evenodd" d="M4 15C4 14.4477 4.44772 14 5 14H19C19.5523 14 20 14.4477 20 15C20 15.5523 19.5523 16 19 16H5C4.44772 16 4 15.5523 4 15Z" fill="#1F2937"/>
<path fill-rule="evenodd" clip-rule="evenodd" d="M11.2425 3.0373C11.7783 3.17124 12.1041 3.71418 11.9701 4.24997L7.97013 20.25C7.83619 20.7858 7.29325 21.1115 6.75746 20.9776C6.22166 20.8436 5.8959 20.3007 6.02985 19.7649L10.0299 3.7649C10.1638 3.22911 10.7067 2.90335 11.2425 3.0373Z" fill="#1F2937"/>
<path fill-rule="evenodd" clip-rule="evenodd" d="M17.2425 3.0373C17.7783 3.17124 18.1041 3.71418 17.9701 4.24997L13.9701 20.25C13.8362 20.7858 13.2933 21.1115 12.7575 20.9776C12.2217 20.8436 11.8959 20.3007 12.0298 19.7649L16.0299 3.7649C16.1638 3.22911 16.7067 2.90335 17.2425 3.0373Z" fill="#1F2937"/>
</svg>
