<svg width="24" height="24" viewBox="0 0 24 24" fill="none" xmlns="http://www.w3.org/2000/svg">
<path fill-rule="evenodd" clip-rule="evenodd" d="M6 14.0076C5.44772 14.0076 5 14.4553 5 15.0076V18.0076C5 18.5599 5.44772 19.0076 6 19.0076H7C7.55229 19.0076 8 18.5599 8 18.0076V15.0076C8 14.4553 7.55229 14.0076 7 14.0076H6ZM3 15.0076C3 13.3507 4.34315 12.0076 6 12.0076H7C8.65685 12.0076 10 13.3507 10 15.0076V18.0076C10 19.6644 8.65685 21.0076 7 21.0076H6C4.34315 21.0076 3 19.6644 3 18.0076V15.0076Z" fill="#1F2937"/>
<path fill-rule="evenodd" clip-rule="evenodd" d="M17 14.0076C16.4477 14.0076 16 14.4553 16 15.0076V18.0076C16 18.5599 16.4477 19.0076 17 19.0076H18C18.5523 19.0076 19 18.5599 19 18.0076V15.0076C19 14.4553 18.5523 14.0076 18 14.0076H17ZM14 15.0076C14 13.3507 15.3431 12.0076 17 12.0076H18C19.6569 12.0076 21 13.3507 21 15.0076V18.0076C21 19.6644 19.6569 21.0076 18 21.0076H17C15.3431 21.0076 14 19.6644 14 18.0076V15.0076Z" fill="#1F2937"/>
<path fill-rule="evenodd" clip-rule="evenodd" d="M12 5.00757C10.1435 5.00757 8.36301 5.74507 7.05025 7.05782C5.7375 8.37058 5 10.1511 5 12.0076V15.0076C5 15.5599 4.55228 16.0076 4 16.0076C3.44772 16.0076 3 15.5599 3 15.0076V12.0076C3 9.62062 3.94821 7.33143 5.63604 5.64361C7.32387 3.95578 9.61305 3.00757 12 3.00757C14.3869 3.00757 16.6761 3.95578 18.364 5.64361C20.0518 7.33144 21 9.62062 21 12.0076V15.0076C21 15.5599 20.5523 16.0076 20 16.0076C19.4477 16.0076 19 15.5599 19 15.0076V12.0076C19 10.1511 18.2625 8.37058 16.9497 7.05782C15.637 5.74507 13.8565 5.00757 12 5.00757Z" fill="#1F2937"/>
</svg>
