<svg width="24" height="24" viewBox="0 0 24 24" fill="none" xmlns="http://www.w3.org/2000/svg">
<path fill-rule="evenodd" clip-rule="evenodd" d="M6 14.0076C5.44772 14.0076 5 14.4553 5 15.0076V17.0076C5 17.5599 5.44772 18.0076 6 18.0076C6.55228 18.0076 7 17.5599 7 17.0076V15.0076C7 14.4553 6.55228 14.0076 6 14.0076ZM3 15.0076C3 13.3507 4.34315 12.0076 6 12.0076C7.65685 12.0076 9 13.3507 9 15.0076V17.0076C9 18.6644 7.65685 20.0076 6 20.0076C4.34315 20.0076 3 18.6644 3 17.0076V15.0076Z" fill="#1F2937"/>
<path fill-rule="evenodd" clip-rule="evenodd" d="M18 14.0076C17.4477 14.0076 17 14.4553 17 15.0076V17.0076C17 17.5599 17.4477 18.0076 18 18.0076C18.5523 18.0076 19 17.5599 19 17.0076V15.0076C19 14.4553 18.5523 14.0076 18 14.0076ZM15 15.0076C15 13.3507 16.3431 12.0076 18 12.0076C19.6569 12.0076 21 13.3507 21 15.0076V17.0076C21 18.6644 19.6569 20.0076 18 20.0076C16.3431 20.0076 15 18.6644 15 17.0076V15.0076Z" fill="#1F2937"/>
<path fill-rule="evenodd" clip-rule="evenodd" d="M12 5.00757C10.1435 5.00757 8.36301 5.74507 7.05025 7.05782C5.7375 8.37058 5 10.1511 5 12.0076V15.0076C5 15.5599 4.55228 16.0076 4 16.0076C3.44772 16.0076 3 15.5599 3 15.0076V12.0076C3 9.62062 3.94821 7.33143 5.63604 5.64361C7.32387 3.95578 9.61305 3.00757 12 3.00757C14.3869 3.00757 16.6761 3.95578 18.364 5.64361C20.0518 7.33144 21 9.62062 21 12.0076V15.0076C21 15.5599 20.5523 16.0076 20 16.0076C19.4477 16.0076 19 15.5599 19 15.0076V12.0076C19 10.1511 18.2625 8.37058 16.9497 7.05782C15.637 5.74507 13.8565 5.00757 12 5.00757Z" fill="#1F2937"/>
<path fill-rule="evenodd" clip-rule="evenodd" d="M18 18.0076C18.5523 18.0076 19 18.4553 19 19.0076C19 20.3738 17.939 21.3987 16.6899 22.0233C15.3939 22.6713 13.7065 23.0076 12 23.0076C11.4477 23.0076 11 22.5599 11 22.0076C11 21.4553 11.4477 21.0076 12 21.0076C13.4761 21.0076 14.8409 20.7117 15.7954 20.2345C16.7967 19.7338 17 19.2326 17 19.0076C17 18.4553 17.4477 18.0076 18 18.0076Z" fill="#1F2937"/>
</svg>
