<svg width="24" height="24" viewBox="0 0 24 24" fill="none" xmlns="http://www.w3.org/2000/svg">
<path fill-rule="evenodd" clip-rule="evenodd" d="M12 4C7.58172 4 4 7.58172 4 12C4 16.4183 7.58172 20 12 20C16.4183 20 20 16.4183 20 12C20 7.58172 16.4183 4 12 4ZM2 12C2 6.47715 6.47715 2 12 2C17.5228 2 22 6.47715 22 12C22 17.5228 17.5228 22 12 22C6.47715 22 2 17.5228 2 12Z" fill="#1F2937"/>
<path fill-rule="evenodd" clip-rule="evenodd" d="M12 15.9926C12.5523 15.9926 13 16.4403 13 16.9926V17.0026C13 17.5548 12.5523 18.0026 12 18.0026C11.4477 18.0026 11 17.5548 11 17.0026V16.9926C11 16.4403 11.4477 15.9926 12 15.9926Z" fill="#1F2937"/>
<path fill-rule="evenodd" clip-rule="evenodd" d="M10.4748 6.33457C10.9742 6.08746 11.5242 5.95965 12.0814 5.9612C12.6385 5.96274 13.1878 6.0936 13.6858 6.34348C14.1838 6.59335 14.6171 6.95542 14.9514 7.40118C15.2857 7.84694 15.512 8.36421 15.6124 8.91228C15.7128 9.46035 15.6847 10.0242 15.5302 10.5596C15.3756 11.0949 15.0989 11.5871 14.7219 11.9973C14.3448 12.4076 13.8777 12.7247 13.3572 12.9237C13.3488 12.9269 13.3403 12.93 13.3318 12.933C13.2295 12.969 13.1417 13.0372 13.0816 13.1274C13.0215 13.2175 12.9923 13.3248 12.9984 13.433C13.0297 13.9844 12.6081 14.4568 12.0567 14.4881C11.5053 14.5193 11.0329 14.0977 11.0017 13.5463C10.971 13.0052 11.1169 12.4689 11.4175 12.018C11.715 11.5717 12.148 11.2331 12.6524 11.0519C12.8799 10.9633 13.0841 10.8237 13.2494 10.6439C13.417 10.4616 13.5399 10.2428 13.6086 10.0049C13.6773 9.76698 13.6898 9.51636 13.6452 9.27278C13.6005 9.02919 13.5 8.79929 13.3514 8.60118C13.2028 8.40307 13.0102 8.24215 12.7889 8.13109C12.5676 8.02004 12.3234 7.96187 12.0758 7.96119C11.8282 7.9605 11.5837 8.01731 11.3618 8.12713C11.1398 8.23696 10.9464 8.39681 10.7967 8.59409C10.4629 9.03408 9.83561 9.12014 9.39563 8.78632C8.95564 8.45251 8.86958 7.82522 9.2034 7.38524C9.54018 6.94134 9.97541 6.58168 10.4748 6.33457Z" fill="#1F2937"/>
</svg>
