<svg width="24" height="24" viewBox="0 0 24 24" fill="none" xmlns="http://www.w3.org/2000/svg">
<path fill-rule="evenodd" clip-rule="evenodd" d="M12 6.99243C12.5523 6.99243 13 7.44015 13 7.99243V11.5782L14.7071 13.2853C15.0976 13.6758 15.0976 14.309 14.7071 14.6995C14.3166 15.0901 13.6834 15.0901 13.2929 14.6995L11.2929 12.6995C11.1054 12.512 11 12.2576 11 11.9924V7.99243C11 7.44015 11.4477 6.99243 12 6.99243Z" fill="#1F2937"/>
<path fill-rule="evenodd" clip-rule="evenodd" d="M17.2991 5.87893C15.8147 4.58651 13.9053 3.88457 11.9352 3.90702C9.96518 3.92947 8.07236 4.67474 6.61791 6.00065C5.19063 7.30178 4.28354 9.07267 4.06147 10.9863L4.43836 13.9945H8.06397C8.61754 13.9945 9.06629 14.4422 9.06629 14.9945C9.06629 15.5467 8.61754 15.9945 8.06397 15.9945H5.13416C5.87539 17.2384 6.94632 18.267 8.24145 18.959C9.97829 19.8869 11.9967 20.1444 13.9117 19.6823C15.8267 19.2203 17.5042 18.071 18.624 16.4538C19.7439 14.8366 20.2278 12.8647 19.9835 10.9142C19.7391 8.96377 18.7835 7.17135 17.2991 5.87893ZM4.05469 17.9678C4.91781 19.0977 6.01946 20.0405 7.29511 20.7221C9.46616 21.882 11.9892 22.2039 14.383 21.6263C16.7767 21.0487 18.8735 19.6121 20.2733 17.5906C21.6732 15.5691 22.2781 13.1042 21.9726 10.6661C21.6672 8.22809 20.4727 5.98757 18.6172 4.37204C16.7616 2.75652 14.3749 1.87908 11.9123 1.90715C9.44977 1.93521 7.08374 2.8668 5.26568 4.52419C3.44761 6.18157 2.30478 8.44873 2.05521 10.8931C2.04755 10.9681 2.04842 11.0437 2.05779 11.1185L2.44384 14.1998C2.20445 14.3825 2.05005 14.6705 2.05005 14.9945V19.9945C2.05005 20.5467 2.4988 20.9945 3.05237 20.9945C3.60594 20.9945 4.05469 20.5467 4.05469 19.9945V17.9678Z" fill="#1F2937"/>
</svg>
