<svg width="24" height="24" viewBox="0 0 24 24" fill="none" xmlns="http://www.w3.org/2000/svg">
<path fill-rule="evenodd" clip-rule="evenodd" d="M6 5.00745C5.44772 5.00745 5 5.45516 5 6.00745V18.0074C5 18.5597 5.44772 19.0074 6 19.0074H18C18.5523 19.0074 19 18.5597 19 18.0074V6.00745C19 5.45516 18.5523 5.00745 18 5.00745H6ZM3 6.00745C3 4.35059 4.34315 3.00745 6 3.00745H18C19.6569 3.00745 21 4.35059 21 6.00745V18.0074C21 19.6643 19.6569 21.0074 18 21.0074H6C4.34315 21.0074 3 19.6643 3 18.0074V6.00745Z" fill="#1F2937"/>
<path fill-rule="evenodd" clip-rule="evenodd" d="M3 13.0074C3 12.4552 3.44772 12.0074 4 12.0074H7C7.26522 12.0074 7.51957 12.1128 7.70711 12.3003L10.4142 15.0074H13.5858L16.2929 12.3003C16.4804 12.1128 16.7348 12.0074 17 12.0074H20C20.5523 12.0074 21 12.4552 21 13.0074C21 13.5597 20.5523 14.0074 20 14.0074H17.4142L14.7071 16.7146C14.5196 16.9021 14.2652 17.0074 14 17.0074H10C9.73478 17.0074 9.48043 16.9021 9.29289 16.7146L6.58579 14.0074H4C3.44772 14.0074 3 13.5597 3 13.0074Z" fill="#1F2937"/>
</svg>
