<svg width="24" height="24" viewBox="0 0 24 24" fill="none" xmlns="http://www.w3.org/2000/svg">
<path fill-rule="evenodd" clip-rule="evenodd" d="M10 4.99249C10 4.44021 10.4477 3.99249 11 3.99249H17C17.5523 3.99249 18 4.44021 18 4.99249C18 5.54478 17.5523 5.99249 17 5.99249H11C10.4477 5.99249 10 5.54478 10 4.99249Z" fill="#1F2937"/>
<path fill-rule="evenodd" clip-rule="evenodd" d="M6 19.0075C6 18.4552 6.44772 18.0075 7 18.0075H13C13.5523 18.0075 14 18.4552 14 19.0075C14 19.5598 13.5523 20.0075 13 20.0075H7C6.44772 20.0075 6 19.5598 6 19.0075Z" fill="#1F2937"/>
<path fill-rule="evenodd" clip-rule="evenodd" d="M14.2747 4.03098C14.8058 4.18271 15.1133 4.73619 14.9615 5.26723L10.9615 19.2672C10.8098 19.7983 10.2563 20.1058 9.72529 19.954C9.19426 19.8023 8.88677 19.2488 9.03849 18.7178L13.0385 4.71778C13.1902 4.18675 13.7437 3.87926 14.2747 4.03098Z" fill="#1F2937"/>
</svg>
