<svg width="24" height="24" viewBox="0 0 24 24" fill="none" xmlns="http://www.w3.org/2000/svg">
<path fill-rule="evenodd" clip-rule="evenodd" d="M8 11.9926C6.34315 11.9926 5 13.3357 5 14.9926C5 16.6494 6.34315 17.9926 8 17.9926C9.65685 17.9926 11 16.6494 11 14.9926C11 13.3357 9.65685 11.9926 8 11.9926ZM3 14.9926C3 12.2311 5.23858 9.99255 8 9.99255C10.7614 9.99255 13 12.2311 13 14.9926C13 17.754 10.7614 19.9926 8 19.9926C5.23858 19.9926 3 17.754 3 14.9926Z" fill="#1F2937"/>
<path fill-rule="evenodd" clip-rule="evenodd" d="M19.7072 3.30034C20.0977 3.69086 20.0977 4.32403 19.7072 4.71455L11.5572 12.8646C11.1667 13.2551 10.5335 13.2551 10.143 12.8646C9.75247 12.474 9.75247 11.8409 10.143 11.4503L18.293 3.30034C18.6835 2.90982 19.3167 2.90982 19.7072 3.30034Z" fill="#1F2937"/>
<path fill-rule="evenodd" clip-rule="evenodd" d="M17.2929 4.28545C17.6834 3.89492 18.3166 3.89492 18.7071 4.28545L20.7071 6.28545C21.0976 6.67597 21.0976 7.30914 20.7071 7.69966C20.3166 8.09018 19.6834 8.09018 19.2929 7.69966L17.2929 5.69966C16.9024 5.30914 16.9024 4.67597 17.2929 4.28545Z" fill="#1F2937"/>
<path fill-rule="evenodd" clip-rule="evenodd" d="M14.2929 7.28545C14.6834 6.89492 15.3166 6.89492 15.7071 7.28545L17.7071 9.28545C18.0976 9.67597 18.0976 10.3091 17.7071 10.6997C17.3166 11.0902 16.6834 11.0902 16.2929 10.6997L14.2929 8.69966C13.9024 8.30914 13.9024 7.67597 14.2929 7.28545Z" fill="#1F2937"/>
</svg>
