<svg width="24" height="24" viewBox="0 0 24 24" fill="none" xmlns="http://www.w3.org/2000/svg">
<path fill-rule="evenodd" clip-rule="evenodd" d="M5 5.00745C4.44772 5.00745 4 5.45516 4 6.00745V18.0074C4 18.5597 4.44772 19.0074 5 19.0074H19C19.5523 19.0074 20 18.5597 20 18.0074V6.00745C20 5.45516 19.5523 5.00745 19 5.00745H5ZM2 6.00745C2 4.35059 3.34315 3.00745 5 3.00745H19C20.6569 3.00745 22 4.35059 22 6.00745V18.0074C22 19.6643 20.6569 21.0074 19 21.0074H5C3.34315 21.0074 2 19.6643 2 18.0074V6.00745Z" fill="#1F2937"/>
<path fill-rule="evenodd" clip-rule="evenodd" d="M7 6.99255C7.55228 6.99255 8 7.44027 8 7.99255V8.00255C8 8.55484 7.55228 9.00255 7 9.00255C6.44772 9.00255 6 8.55484 6 8.00255V7.99255C6 7.44027 6.44772 6.99255 7 6.99255Z" fill="#1F2937"/>
<path fill-rule="evenodd" clip-rule="evenodd" d="M12 6.99255C12.5523 6.99255 13 7.44027 13 7.99255V8.00255C13 8.55484 12.5523 9.00255 12 9.00255C11.4477 9.00255 11 8.55484 11 8.00255V7.99255C11 7.44027 11.4477 6.99255 12 6.99255Z" fill="#1F2937"/>
<path fill-rule="evenodd" clip-rule="evenodd" d="M17 6.99255C17.5523 6.99255 18 7.44027 18 7.99255V8.00255C18 8.55484 17.5523 9.00255 17 9.00255C16.4477 9.00255 16 8.55484 16 8.00255V7.99255C16 7.44027 16.4477 6.99255 17 6.99255Z" fill="#1F2937"/>
<path fill-rule="evenodd" clip-rule="evenodd" d="M7 11C7.55228 11 8 11.4477 8 12V12.01C8 12.5623 7.55228 13.01 7 13.01C6.44772 13.01 6 12.5623 6 12.01V12C6 11.4477 6.44772 11 7 11Z" fill="#1F2937"/>
<path fill-rule="evenodd" clip-rule="evenodd" d="M12 11C12.5523 11 13 11.4477 13 12V12.01C13 12.5623 12.5523 13.01 12 13.01C11.4477 13.01 11 12.5623 11 12.01V12C11 11.4477 11.4477 11 12 11Z" fill="#1F2937"/>
<path fill-rule="evenodd" clip-rule="evenodd" d="M17 11C17.5523 11 18 11.4477 18 12V12.01C18 12.5623 17.5523 13.01 17 13.01C16.4477 13.01 16 12.5623 16 12.01V12C16 11.4477 16.4477 11 17 11Z" fill="#1F2937"/>
<path fill-rule="evenodd" clip-rule="evenodd" d="M6 16.0074C6 15.4552 6.44772 15.0074 7 15.0074H17C17.5523 15.0074 18 15.4552 18 16.0074C18 16.5597 17.5523 17.0074 17 17.0074H7C6.44772 17.0074 6 16.5597 6 16.0074Z" fill="#1F2937"/>
</svg>
