<svg width="24" height="24" viewBox="0 0 24 24" fill="none" xmlns="http://www.w3.org/2000/svg">
<path fill-rule="evenodd" clip-rule="evenodd" d="M10 3.99255C10.5523 3.99255 11 4.44027 11 4.99255V5.99255H12C12.5523 5.99255 13 6.44027 13 6.99255C13 7.54484 12.5523 7.99255 12 7.99255H10.9636C10.8238 9.90887 10.2832 11.7399 9.38353 13.1794C9.35415 13.2264 9.32437 13.273 9.29422 13.3192C10.2611 13.7163 11.4505 13.9616 12.7245 13.9929C13.2766 14.0064 13.7132 14.4649 13.6997 15.0171C13.6862 15.5692 13.2276 16.0058 12.6755 15.9923C10.9512 15.95 9.26926 15.571 7.91296 14.8858C7.06557 15.5814 6.07537 15.9926 5 15.9926C4.44772 15.9926 4 15.5448 4 14.9926C4 14.4403 4.44772 13.9926 5 13.9926C5.37973 13.9926 5.7834 13.8865 6.18627 13.6573C5.45694 12.9167 4.99836 12.0109 5 10.9909C5.00089 10.4387 5.44932 9.99167 6.00161 9.99256C6.55389 9.99344 7.00089 10.4419 7 10.9942C6.99941 11.359 7.16706 11.8022 7.60404 12.2495C7.63206 12.207 7.65989 12.1636 7.68754 12.1194C8.36717 11.032 8.8217 9.58027 8.95749 7.99255H5C4.44772 7.99255 4 7.54484 4 6.99255C4 6.44027 4.44772 5.99255 5 5.99255H9V4.99255C9 4.44027 9.44772 3.99255 10 3.99255Z" fill="#1F2937"/>
<path fill-rule="evenodd" clip-rule="evenodd" d="M15 9.00745C15.3952 9.00745 15.7533 9.24018 15.9138 9.60131L19.9138 18.6013C20.1381 19.106 19.9108 19.697 19.4061 19.9213C18.9015 20.1456 18.3105 19.9183 18.0862 19.4136L17.4612 18.0074H12.5388L11.9138 19.4136C11.6895 19.9183 11.0986 20.1456 10.5939 19.9213C10.0892 19.697 9.86189 19.106 10.0862 18.6013L14.0862 9.60131C14.2467 9.24018 14.6048 9.00745 15 9.00745ZM13.4277 16.0074H16.5724L15 12.4697L13.4277 16.0074Z" fill="#1F2937"/>
</svg>
