<svg width="24" height="24" viewBox="0 0 24 24" fill="none" xmlns="http://www.w3.org/2000/svg">
<path fill-rule="evenodd" clip-rule="evenodd" d="M6 5.00757C5.44772 5.00757 5 5.45528 5 6.00757V18.0076C5 18.5599 5.44772 19.0076 6 19.0076H18C18.5523 19.0076 19 18.5599 19 18.0076V6.00757C19 5.45528 18.5523 5.00757 18 5.00757H6ZM3 6.00757C3 4.35071 4.34315 3.00757 6 3.00757H18C19.6569 3.00757 21 4.35071 21 6.00757V18.0076C21 19.6644 19.6569 21.0076 18 21.0076H6C4.34315 21.0076 3 19.6644 3 18.0076V6.00757Z" fill="#1F2937"/>
<path fill-rule="evenodd" clip-rule="evenodd" d="M9 3.00757C9.55228 3.00757 10 3.45528 10 4.00757V20.0076C10 20.5599 9.55228 21.0076 9 21.0076C8.44772 21.0076 8 20.5599 8 20.0076V4.00757C8 3.45528 8.44772 3.00757 9 3.00757Z" fill="#1F2937"/>
</svg>
