<svg width="24" height="24" viewBox="0 0 24 24" fill="none" xmlns="http://www.w3.org/2000/svg">
<path fill-rule="evenodd" clip-rule="evenodd" d="M6 5.00757C5.44772 5.00757 5 5.45528 5 6.00757V18.0076C5 18.5599 5.44772 19.0076 6 19.0076H8C8.55228 19.0076 9 18.5599 9 18.0076V6.00757C9 5.45528 8.55228 5.00757 8 5.00757H6ZM3 6.00757C3 4.35071 4.34315 3.00757 6 3.00757H8C9.65685 3.00757 11 4.35071 11 6.00757V18.0076C11 19.6644 9.65685 21.0076 8 21.0076H6C4.34315 21.0076 3 19.6644 3 18.0076V6.00757Z" fill="#1F2937"/>
<path fill-rule="evenodd" clip-rule="evenodd" d="M16 5.00757C15.4477 5.00757 15 5.45528 15 6.00757V12.0076C15 12.5599 15.4477 13.0076 16 13.0076H18C18.5523 13.0076 19 12.5599 19 12.0076V6.00757C19 5.45528 18.5523 5.00757 18 5.00757H16ZM13 6.00757C13 4.35071 14.3431 3.00757 16 3.00757H18C19.6569 3.00757 21 4.35071 21 6.00757V12.0076C21 13.6644 19.6569 15.0076 18 15.0076H16C14.3431 15.0076 13 13.6644 13 12.0076V6.00757Z" fill="#1F2937"/>
</svg>
