<svg width="24" height="24" viewBox="0 0 24 24" fill="none" xmlns="http://www.w3.org/2000/svg">
<path fill-rule="evenodd" clip-rule="evenodd" d="M3 4.00757C3 3.45528 3.44772 3.00757 4 3.00757H20C20.5523 3.00757 21 3.45528 21 4.00757C21 4.55985 20.5523 5.00757 20 5.00757H4C3.44772 5.00757 3 4.55985 3 4.00757Z" fill="#1F2937"/>
<path fill-rule="evenodd" clip-rule="evenodd" d="M11 8.99243C10.4477 8.99243 10 9.44015 10 9.99243V17.9924C10 18.5447 10.4477 18.9924 11 18.9924H13C13.5523 18.9924 14 18.5447 14 17.9924V9.99243C14 9.44015 13.5523 8.99243 13 8.99243H11ZM8 9.99243C8 8.33558 9.34315 6.99243 11 6.99243H13C14.6569 6.99243 16 8.33558 16 9.99243V17.9924C16 19.6493 14.6569 20.9924 13 20.9924H11C9.34315 20.9924 8 19.6493 8 17.9924V9.99243Z" fill="#1F2937"/>
</svg>
