<svg width="24" height="24" viewBox="0 0 24 24" fill="none" xmlns="http://www.w3.org/2000/svg">
<path fill-rule="evenodd" clip-rule="evenodd" d="M6 5.00757C5.44772 5.00757 5 5.45528 5 6.00757V8.00757C5 8.55985 5.44772 9.00757 6 9.00757H18C18.5523 9.00757 19 8.55985 19 8.00757V6.00757C19 5.45528 18.5523 5.00757 18 5.00757H6ZM3 6.00757C3 4.35071 4.34315 3.00757 6 3.00757H18C19.6569 3.00757 21 4.35071 21 6.00757V8.00757C21 9.66442 19.6569 11.0076 18 11.0076H6C4.34315 11.0076 3 9.66442 3 8.00757V6.00757Z" fill="#1F2937"/>
<path fill-rule="evenodd" clip-rule="evenodd" d="M6 14.9924C5.44772 14.9924 5 15.4401 5 15.9924V17.9924C5 18.5447 5.44772 18.9924 6 18.9924H18C18.5523 18.9924 19 18.5447 19 17.9924V15.9924C19 15.4401 18.5523 14.9924 18 14.9924H6ZM3 15.9924C3 14.3356 4.34315 12.9924 6 12.9924H18C19.6569 12.9924 21 14.3356 21 15.9924V17.9924C21 19.6493 19.6569 20.9924 18 20.9924H6C4.34315 20.9924 3 19.6493 3 17.9924V15.9924Z" fill="#1F2937"/>
</svg>
