<svg width="24" height="24" viewBox="0 0 24 24" fill="none" xmlns="http://www.w3.org/2000/svg">
<path fill-rule="evenodd" clip-rule="evenodd" d="M20 3.00757C20.5523 3.00757 21 3.45528 21 4.00757V20.0076C21 20.5599 20.5523 21.0076 20 21.0076C19.4477 21.0076 19 20.5599 19 20.0076V4.00757C19 3.45528 19.4477 3.00757 20 3.00757Z" fill="#1F2937"/>
<path fill-rule="evenodd" clip-rule="evenodd" d="M6 10C5.44772 10 5 10.4477 5 11V13C5 13.5523 5.44772 14 6 14H14C14.5523 14 15 13.5523 15 13V11C15 10.4477 14.5523 10 14 10H6ZM3 11C3 9.34315 4.34315 8 6 8H14C15.6569 8 17 9.34315 17 11V13C17 14.6569 15.6569 16 14 16H6C4.34315 16 3 14.6569 3 13V11Z" fill="#1F2937"/>
</svg>
