<svg width="24" height="24" viewBox="0 0 24 24" fill="none" xmlns="http://www.w3.org/2000/svg">
<path fill-rule="evenodd" clip-rule="evenodd" d="M3 4.00757C3 3.45528 3.44772 3.00757 4 3.00757H20C20.5523 3.00757 21 3.45528 21 4.00757C21 4.55985 20.5523 5.00757 20 5.00757H4C3.44772 5.00757 3 4.55985 3 4.00757Z" fill="#1F2937"/>
<path fill-rule="evenodd" clip-rule="evenodd" d="M3 19.9924C3 19.4401 3.44772 18.9924 4 18.9924H20C20.5523 18.9924 21 19.4401 21 19.9924C21 20.5447 20.5523 20.9924 20 20.9924H4C3.44772 20.9924 3 20.5447 3 19.9924Z" fill="#1F2937"/>
<path fill-rule="evenodd" clip-rule="evenodd" d="M8 10C7.44772 10 7 10.4477 7 11V13C7 13.5523 7.44772 14 8 14H16C16.5523 14 17 13.5523 17 13V11C17 10.4477 16.5523 10 16 10H8ZM5 11C5 9.34315 6.34315 8 8 8H16C17.6569 8 19 9.34315 19 11V13C19 14.6569 17.6569 16 16 16H8C6.34315 16 5 14.6569 5 13V11Z" fill="#1F2937"/>
</svg>
