<svg width="24" height="24" viewBox="0 0 24 24" fill="none" xmlns="http://www.w3.org/2000/svg">
<path fill-rule="evenodd" clip-rule="evenodd" d="M6 5.00757C5.44772 5.00757 5 5.45528 5 6.00757V7.00757C5 7.55985 5.44772 8.00757 6 8.00757H8C8.55228 8.00757 9 7.55985 9 7.00757V6.00757C9 5.45528 8.55228 5.00757 8 5.00757H6ZM3 6.00757C3 4.35071 4.34315 3.00757 6 3.00757H8C9.65685 3.00757 11 4.35071 11 6.00757V7.00757C11 8.66442 9.65685 10.0076 8 10.0076H6C4.34315 10.0076 3 8.66442 3 7.00757V6.00757Z" fill="#1F2937"/>
<path fill-rule="evenodd" clip-rule="evenodd" d="M6 14.0076C5.44772 14.0076 5 14.4553 5 15.0076V18.0076C5 18.5599 5.44772 19.0076 6 19.0076H8C8.55228 19.0076 9 18.5599 9 18.0076V15.0076C9 14.4553 8.55228 14.0076 8 14.0076H6ZM3 15.0076C3 13.3507 4.34315 12.0076 6 12.0076H8C9.65685 12.0076 11 13.3507 11 15.0076V18.0076C11 19.6644 9.65685 21.0076 8 21.0076H6C4.34315 21.0076 3 19.6644 3 18.0076V15.0076Z" fill="#1F2937"/>
<path fill-rule="evenodd" clip-rule="evenodd" d="M16 5.00757C15.4477 5.00757 15 5.45528 15 6.00757V9.00757C15 9.55985 15.4477 10.0076 16 10.0076H18C18.5523 10.0076 19 9.55985 19 9.00757V6.00757C19 5.45528 18.5523 5.00757 18 5.00757H16ZM13 6.00757C13 4.35071 14.3431 3.00757 16 3.00757H18C19.6569 3.00757 21 4.35071 21 6.00757V9.00757C21 10.6644 19.6569 12.0076 18 12.0076H16C14.3431 12.0076 13 10.6644 13 9.00757V6.00757Z" fill="#1F2937"/>
<path fill-rule="evenodd" clip-rule="evenodd" d="M16 16C15.4477 16 15 16.4477 15 17V18C15 18.5523 15.4477 19 16 19H18C18.5523 19 19 18.5523 19 18V17C19 16.4477 18.5523 16 18 16H16ZM13 17C13 15.3431 14.3431 14 16 14H18C19.6569 14 21 15.3431 21 17V18C21 19.6569 19.6569 21 18 21H16C14.3431 21 13 19.6569 13 18V17Z" fill="#1F2937"/>
</svg>
