<svg width="24" height="24" viewBox="0 0 24 24" fill="none" xmlns="http://www.w3.org/2000/svg">
<path fill-rule="evenodd" clip-rule="evenodd" d="M3 19.9924C3 19.4401 3.44772 18.9924 4 18.9924H20C20.5523 18.9924 21 19.4401 21 19.9924C21 20.5447 20.5523 20.9924 20 20.9924H4C3.44772 20.9924 3 20.5447 3 19.9924Z" fill="#1F2937"/>
<path fill-rule="evenodd" clip-rule="evenodd" d="M11 5.00757C10.4477 5.00757 10 5.45528 10 6.00757V14.0076C10 14.5599 10.4477 15.0076 11 15.0076H13C13.5523 15.0076 14 14.5599 14 14.0076V6.00757C14 5.45528 13.5523 5.00757 13 5.00757H11ZM8 6.00757C8 4.35071 9.34315 3.00757 11 3.00757H13C14.6569 3.00757 16 4.35071 16 6.00757V14.0076C16 15.6644 14.6569 17.0076 13 17.0076H11C9.34315 17.0076 8 15.6644 8 14.0076V6.00757Z" fill="#1F2937"/>
</svg>
