<svg width="24" height="24" viewBox="0 0 24 24" fill="none" xmlns="http://www.w3.org/2000/svg">
<path fill-rule="evenodd" clip-rule="evenodd" d="M5.29289 4.28539C5.68342 3.89486 6.31658 3.89486 6.70711 4.28539L9.70711 7.28539C10.0976 7.67591 10.0976 8.30908 9.70711 8.6996C9.31658 9.09012 8.68342 9.09012 8.29289 8.6996L6 6.40671L3.70711 8.6996C3.31658 9.09012 2.68342 9.09012 2.29289 8.6996C1.90237 8.30908 1.90237 7.67591 2.29289 7.28539L5.29289 4.28539Z" fill="#1F2937"/>
<path fill-rule="evenodd" clip-rule="evenodd" d="M2.29289 15.3004C2.68342 14.9099 3.31658 14.9099 3.70711 15.3004L6 17.5933L8.29289 15.3004C8.68342 14.9099 9.31658 14.9099 9.70711 15.3004C10.0976 15.6909 10.0976 16.3241 9.70711 16.7146L6.70711 19.7146C6.31658 20.1051 5.68342 20.1051 5.29289 19.7146L2.29289 16.7146C1.90237 16.3241 1.90237 15.6909 2.29289 15.3004Z" fill="#1F2937"/>
<path fill-rule="evenodd" clip-rule="evenodd" d="M6 3.99249C6.55228 3.99249 7 4.44021 7 4.99249V18.9925C7 19.5448 6.55228 19.9925 6 19.9925C5.44772 19.9925 5 19.5448 5 18.9925V4.99249C5 4.44021 5.44772 3.99249 6 3.99249Z" fill="#1F2937"/>
<path fill-rule="evenodd" clip-rule="evenodd" d="M12 6C12 5.44772 12.4477 5 13 5H20C20.5523 5 21 5.44772 21 6C21 6.55228 20.5523 7 20 7H13C12.4477 7 12 6.55228 12 6Z" fill="#1F2937"/>
<path fill-rule="evenodd" clip-rule="evenodd" d="M12 12C12 11.4477 12.4477 11 13 11H20C20.5523 11 21 11.4477 21 12C21 12.5523 20.5523 13 20 13H13C12.4477 13 12 12.5523 12 12Z" fill="#1F2937"/>
<path fill-rule="evenodd" clip-rule="evenodd" d="M12 18C12 17.4477 12.4477 17 13 17H20C20.5523 17 21 17.4477 21 18C21 18.5523 20.5523 19 20 19H13C12.4477 19 12 18.5523 12 18Z" fill="#1F2937"/>
</svg>
