<svg width="24" height="24" viewBox="0 0 24 24" fill="none" xmlns="http://www.w3.org/2000/svg">
<path fill-rule="evenodd" clip-rule="evenodd" d="M7 11.9926C6.44772 11.9926 6 12.4403 6 12.9926V18.9926C6 19.5448 6.44772 19.9926 7 19.9926H17C17.5523 19.9926 18 19.5448 18 18.9926V12.9926C18 12.4403 17.5523 11.9926 17 11.9926H7ZM4 12.9926C4 11.3357 5.34315 9.99255 7 9.99255H17C18.6569 9.99255 20 11.3357 20 12.9926V18.9926C20 20.6494 18.6569 21.9926 17 21.9926H7C5.34315 21.9926 4 20.6494 4 18.9926V12.9926Z" fill="#1F2937"/>
<path fill-rule="evenodd" clip-rule="evenodd" d="M10 16C10 14.8954 10.8954 14 12 14C13.1046 14 14 14.8954 14 16C14 17.1046 13.1046 18 12 18C10.8954 18 10 17.1046 10 16Z" fill="#1F2937"/>
<path fill-rule="evenodd" clip-rule="evenodd" d="M12 2.99255C11.2044 2.99255 10.4413 3.30862 9.87868 3.87123C9.31607 4.43384 9 5.1969 9 5.99255V10.9926C9 11.5448 8.55228 11.9926 8 11.9926C7.44772 11.9926 7 11.5448 7 10.9926V5.99255C7 4.66647 7.52678 3.3947 8.46447 2.45702C9.40215 1.51934 10.6739 0.992554 12 0.992554C13.3261 0.992554 14.5979 1.51934 15.5355 2.45702C16.4732 3.3947 17 4.66647 17 5.99255C17 6.54484 16.5523 6.99255 16 6.99255C15.4477 6.99255 15 6.54484 15 5.99255C15 5.1969 14.6839 4.43384 14.1213 3.87123C13.5587 3.30862 12.7956 2.99255 12 2.99255Z" fill="#1F2937"/>
</svg>
