<svg width="24" height="24" viewBox="0 0 24 24" fill="none" xmlns="http://www.w3.org/2000/svg">
<path fill-rule="evenodd" clip-rule="evenodd" d="M2.87868 3.88613C3.44129 3.32352 4.20435 3.00745 5 3.00745H12C12.7956 3.00745 13.5587 3.32352 14.1213 3.88613C14.6839 4.44873 15 5.2118 15 6.00745V8.00745C15 8.55973 14.5523 9.00745 14 9.00745C13.4477 9.00745 13 8.55973 13 8.00745V6.00745C13 5.74223 12.8946 5.48788 12.7071 5.30034C12.5196 5.1128 12.2652 5.00745 12 5.00745H5C4.73478 5.00745 4.48043 5.1128 4.29289 5.30034C4.10536 5.48788 4 5.74223 4 6.00745V18.0074C4 18.2727 4.10536 18.527 4.29289 18.7146C4.48043 18.9021 4.73478 19.0074 5 19.0074H12C12.2652 19.0074 12.5196 18.9021 12.7071 18.7146C12.8946 18.527 13 18.2727 13 18.0074V16.0074C13 15.4552 13.4477 15.0074 14 15.0074C14.5523 15.0074 15 15.4552 15 16.0074V18.0074C15 18.8031 14.6839 19.5662 14.1213 20.1288C13.5587 20.6914 12.7957 21.0074 12 21.0074H5C4.20435 21.0074 3.44129 20.6914 2.87868 20.1288C2.31607 19.5662 2 18.8031 2 18.0074V6.00745C2 5.2118 2.31607 4.44874 2.87868 3.88613Z" fill="#1F2937"/>
<path fill-rule="evenodd" clip-rule="evenodd" d="M17.2929 8.29289C17.6834 7.90237 18.3166 7.90237 18.7071 8.29289L21.7071 11.2929C22.0976 11.6834 22.0976 12.3166 21.7071 12.7071L18.7071 15.7071C18.3166 16.0976 17.6834 16.0976 17.2929 15.7071C16.9024 15.3166 16.9024 14.6834 17.2929 14.2929L18.5858 13H7C6.44772 13 6 12.5523 6 12C6 11.4477 6.44772 11 7 11H18.5858L17.2929 9.70711C16.9024 9.31658 16.9024 8.68342 17.2929 8.29289Z" fill="#1F2937"/>
</svg>
