<svg width="24" height="24" viewBox="0 0 24 24" fill="none" xmlns="http://www.w3.org/2000/svg">
<path fill-rule="evenodd" clip-rule="evenodd" d="M5 5.99243C4.44772 5.99243 4 6.44015 4 6.99243V16.9924C4 17.5447 4.44772 17.9924 5 17.9924H19C19.5523 17.9924 20 17.5447 20 16.9924V6.99243C20 6.44015 19.5523 5.99243 19 5.99243H5ZM2 6.99243C2 5.33558 3.34315 3.99243 5 3.99243H19C20.6569 3.99243 22 5.33558 22 6.99243V16.9924C22 18.6493 20.6569 19.9924 19 19.9924H5C3.34315 19.9924 2 18.6493 2 16.9924V6.99243Z" fill="#1F2937"/>
<path fill-rule="evenodd" clip-rule="evenodd" d="M2.16806 6.45273C2.47441 5.9932 3.09528 5.86903 3.55481 6.17538L12.0001 11.8056L20.4454 6.17538C20.9049 5.86903 21.5258 5.9932 21.8322 6.45273C22.1385 6.91226 22.0143 7.53313 21.5548 7.83948L12.5548 13.8395C12.2189 14.0634 11.7813 14.0634 11.4454 13.8395L2.44541 7.83948C1.98588 7.53313 1.8617 6.91226 2.16806 6.45273Z" fill="#1F2937"/>
</svg>
