<svg width="24" height="24" viewBox="0 0 24 24" fill="none" xmlns="http://www.w3.org/2000/svg">
<path fill-rule="evenodd" clip-rule="evenodd" d="M12 4C11.4477 4 11 4.44772 11 5C11 5.55228 11.4477 6 12 6C12.5523 6 13 5.55228 13 5C13 4.44772 12.5523 4 12 4ZM9 5C9 3.34315 10.3431 2 12 2C13.6569 2 15 3.34315 15 5C15 6.65685 13.6569 8 12 8C10.3431 8 9 6.65685 9 5Z" fill="#1F2937"/>
<path fill-rule="evenodd" clip-rule="evenodd" d="M8.58579 10.5782C8.96086 10.2031 9.46957 9.99243 10 9.99243H14C14.5304 9.99243 15.0391 10.2031 15.4142 10.5782C15.7893 10.9533 16 11.462 16 11.9924V15.9924C16 16.2576 15.8946 16.512 15.7071 16.6995L15 17.4066V21.9924C15 22.5447 14.5523 22.9924 14 22.9924C13.4477 22.9924 13 22.5447 13 21.9924V16.9924C13 16.7272 13.1054 16.4729 13.2929 16.2853L14 15.5782V11.9924L10 11.9924L10 15.5782L10.7071 16.2853C10.8946 16.4729 11 16.7272 11 16.9924V21.9924C11 22.5447 10.5523 22.9924 10 22.9924C9.44772 22.9924 9 22.5447 9 21.9924V17.4066L8.29289 16.6995C8.10536 16.512 8 16.2576 8 15.9924V11.9924C8 11.462 8.21071 10.9533 8.58579 10.5782Z" fill="#1F2937"/>
</svg>
