<svg width="24" height="24" viewBox="0 0 24 24" fill="none" xmlns="http://www.w3.org/2000/svg">
<path fill-rule="evenodd" clip-rule="evenodd" d="M18 5C18.5523 5 19 5.44772 19 6V6.01C19 6.56228 18.5523 7.01 18 7.01C17.4477 7.01 17 6.56228 17 6.01V6C17 5.44772 17.4477 5 18 5Z" fill="#1F2937"/>
<path fill-rule="evenodd" clip-rule="evenodd" d="M18 3.06262C17.478 3.06262 16.9651 3.19881 16.5119 3.45773C16.0586 3.71665 15.6808 4.08935 15.4157 4.53899C15.1506 4.98863 15.0074 5.49966 15.0003 6.02158C14.9934 6.52717 15.1144 7.02604 15.3516 7.47195L18 11.2553L20.6484 7.47195C20.8856 7.02604 21.0066 6.52717 20.9997 6.02158C20.9926 5.49966 20.8494 4.98863 20.5843 4.53899C20.3192 4.08935 19.9414 3.71665 19.4881 3.45773C19.0349 3.19881 18.522 3.06262 18 3.06262ZM15.5198 1.72114C16.2751 1.2896 17.13 1.06262 18 1.06262C18.87 1.06262 19.7249 1.2896 20.4802 1.72114C21.2356 2.15268 21.8653 2.77383 22.3071 3.52323C22.749 4.27264 22.9876 5.12435 22.9995 5.99422C23.0114 6.86409 22.7962 7.72202 22.375 8.48323C22.358 8.51396 22.3394 8.54379 22.3192 8.57256L18.8192 13.5726C18.6321 13.8399 18.3263 13.9991 18 13.9991C17.6737 13.9991 17.3679 13.8399 17.1808 13.5726L13.6808 8.57256C13.6606 8.54379 13.642 8.51396 13.625 8.48323C13.2038 7.72202 12.9886 6.86409 13.0005 5.99422C13.0124 5.12435 13.251 4.27264 13.6929 3.52323C14.1347 2.77383 14.7644 2.15268 15.5198 1.72114Z" fill="#1F2937"/>
<path fill-rule="evenodd" clip-rule="evenodd" d="M8.55279 3.11302C8.83431 2.97226 9.16569 2.97226 9.44721 3.11302L10.9472 3.86302C11.4412 4.11001 11.6414 4.71068 11.3944 5.20466C11.1474 5.69864 10.5468 5.89886 10.0528 5.65187L9 5.12548L4 7.62548V18.3894L8.55279 16.113C8.83431 15.9723 9.16569 15.9723 9.44721 16.113L15 18.8894L20 16.3894V15.0074C20 14.4552 20.4477 14.0074 21 14.0074C21.5523 14.0074 22 14.4552 22 15.0074V17.0074C22 17.3862 21.786 17.7325 21.4472 17.9019L15.4472 20.9019C15.1657 21.0426 14.8343 21.0426 14.5528 20.9019L9 18.1255L3.44721 20.9019C3.13723 21.0569 2.76909 21.0403 2.47427 20.8581C2.17945 20.6759 2 20.354 2 20.0074V7.00745C2 6.62867 2.214 6.28241 2.55279 6.11302L8.55279 3.11302Z" fill="#1F2937"/>
<path fill-rule="evenodd" clip-rule="evenodd" d="M9 3.00745C9.55228 3.00745 10 3.45516 10 4.00745V17.0074C10 17.5597 9.55228 18.0074 9 18.0074C8.44772 18.0074 8 17.5597 8 17.0074V4.00745C8 3.45516 8.44772 3.00745 9 3.00745Z" fill="#1F2937"/>
<path fill-rule="evenodd" clip-rule="evenodd" d="M15 14C15.5523 14 16 14.4477 16 15V20C16 20.5523 15.5523 21 15 21C14.4477 21 14 20.5523 14 20V15C14 14.4477 14.4477 14 15 14Z" fill="#1F2937"/>
</svg>
