<svg width="24" height="24" viewBox="0 0 24 24" fill="none" xmlns="http://www.w3.org/2000/svg">
<path fill-rule="evenodd" clip-rule="evenodd" d="M21.5257 3.1568C21.8205 3.339 22 3.66087 22 4.00745V17.0074C22 17.3862 21.786 17.7325 21.4472 17.9019L15.4472 20.9019C15.1657 21.0426 14.8343 21.0426 14.5528 20.9019L9 18.1255L3.44721 20.9019C3.13723 21.0569 2.76909 21.0403 2.47427 20.8581C2.17945 20.6759 2 20.354 2 20.0074V7.00745C2 6.62868 2.214 6.28241 2.55279 6.11302L8.55279 3.11302C8.83431 2.97226 9.16569 2.97226 9.44721 3.11302L15 5.88941L20.5528 3.11302C20.8628 2.95803 21.2309 2.97459 21.5257 3.1568ZM4 7.62548V18.3894L8.55279 16.113C8.83431 15.9723 9.16569 15.9723 9.44721 16.113L15 18.8894L20 16.3894V5.62548L15.4472 7.90187C15.1657 8.04264 14.8343 8.04264 14.5528 7.90187L9 5.12548L4 7.62548Z" fill="#1F2937"/>
<path fill-rule="evenodd" clip-rule="evenodd" d="M9 3.00745C9.55228 3.00745 10 3.45516 10 4.00745V17.0074C10 17.5597 9.55228 18.0074 9 18.0074C8.44772 18.0074 8 17.5597 8 17.0074V4.00745C8 3.45516 8.44772 3.00745 9 3.00745Z" fill="#1F2937"/>
<path fill-rule="evenodd" clip-rule="evenodd" d="M15 6.00745C15.5523 6.00745 16 6.45516 16 7.00745V20.0074C16 20.5597 15.5523 21.0074 15 21.0074C14.4477 21.0074 14 20.5597 14 20.0074V7.00745C14 6.45516 14.4477 6.00745 15 6.00745Z" fill="#1F2937"/>
</svg>
