<svg width="24" height="24" viewBox="0 0 24 24" fill="none" xmlns="http://www.w3.org/2000/svg">
<path fill-rule="evenodd" clip-rule="evenodd" d="M7 5.99243C6.46957 5.99243 5.96086 6.20315 5.58579 6.57822C5.21071 6.95329 5 7.462 5 7.99243V18.5782L7.29289 16.2853C7.48043 16.0978 7.73478 15.9924 8 15.9924H17C17.5304 15.9924 18.0391 15.7817 18.4142 15.4066C18.7893 15.0316 19 14.5229 19 13.9924V7.99243C19 7.462 18.7893 6.95329 18.4142 6.57822C18.0391 6.20315 17.5304 5.99243 17 5.99243H7ZM4.17157 5.164C4.92172 4.41386 5.93913 3.99243 7 3.99243H17C18.0609 3.99243 19.0783 4.41386 19.8284 5.164C20.5786 5.91415 21 6.93157 21 7.99243V13.9924C21 15.0533 20.5786 16.0707 19.8284 16.8209C19.0783 17.571 18.0609 17.9924 17 17.9924H8.41421L4.70711 21.6995C4.42111 21.9855 3.99099 22.0711 3.61732 21.9163C3.24364 21.7615 3 21.3969 3 20.9924V7.99243C3 6.93157 3.42143 5.91415 4.17157 5.164Z" fill="#1F2937"/>
<path fill-rule="evenodd" clip-rule="evenodd" d="M7 9C7 8.44772 7.44772 8 8 8H16C16.5523 8 17 8.44772 17 9C17 9.55228 16.5523 10 16 10H8C7.44772 10 7 9.55228 7 9Z" fill="#1F2937"/>
<path fill-rule="evenodd" clip-rule="evenodd" d="M7 13.0076C7 12.4553 7.44772 12.0076 8 12.0076H14C14.5523 12.0076 15 12.4553 15 13.0076C15 13.5599 14.5523 14.0076 14 14.0076H8C7.44772 14.0076 7 13.5599 7 13.0076Z" fill="#1F2937"/>
</svg>
