<svg width="24" height="24" viewBox="0 0 24 24" fill="none" xmlns="http://www.w3.org/2000/svg">
<path fill-rule="evenodd" clip-rule="evenodd" d="M7 5.99243C6.46957 5.99243 5.96086 6.20315 5.58579 6.57822C5.21071 6.95329 5 7.462 5 7.99243V18.5782L7.29289 16.2853C7.48043 16.0978 7.73478 15.9924 8 15.9924H17C17.5304 15.9924 18.0391 15.7817 18.4142 15.4066C18.7893 15.0316 19 14.5229 19 13.9924V7.99243C19 7.462 18.7893 6.95329 18.4142 6.57822C18.0391 6.20315 17.5304 5.99243 17 5.99243H7ZM4.17157 5.164C4.92172 4.41386 5.93913 3.99243 7 3.99243H17C18.0609 3.99243 19.0783 4.41386 19.8284 5.164C20.5786 5.91415 21 6.93157 21 7.99243V13.9924C21 15.0533 20.5786 16.0707 19.8284 16.8209C19.0783 17.571 18.0609 17.9924 17 17.9924H8.41421L4.70711 21.6995C4.42111 21.9855 3.99099 22.0711 3.61732 21.9163C3.24364 21.7615 3 21.3969 3 20.9924V7.99243C3 6.93157 3.42143 5.91415 4.17157 5.164Z" fill="#1F2937"/>
<path fill-rule="evenodd" clip-rule="evenodd" d="M12 9.99243C12.5523 9.99243 13 10.4401 13 10.9924V11.0024C13 11.5547 12.5523 12.0024 12 12.0024C11.4477 12.0024 11 11.5547 11 11.0024V10.9924C11 10.4401 11.4477 9.99243 12 9.99243Z" fill="#1F2937"/>
<path fill-rule="evenodd" clip-rule="evenodd" d="M8 9.99243C8.55228 9.99243 9 10.4401 9 10.9924V11.0024C9 11.5547 8.55228 12.0024 8 12.0024C7.44772 12.0024 7 11.5547 7 11.0024V10.9924C7 10.4401 7.44772 9.99243 8 9.99243Z" fill="#1F2937"/>
<path fill-rule="evenodd" clip-rule="evenodd" d="M16 9.99243C16.5523 9.99243 17 10.4401 17 10.9924V11.0024C17 11.5547 16.5523 12.0024 16 12.0024C15.4477 12.0024 15 11.5547 15 11.0024V10.9924C15 10.4401 15.4477 9.99243 16 9.99243Z" fill="#1F2937"/>
</svg>
