<svg width="24" height="24" viewBox="0 0 24 24" fill="none" xmlns="http://www.w3.org/2000/svg">
<path fill-rule="evenodd" clip-rule="evenodd" d="M12.3836 4.99211C10.4155 4.91231 8.49451 5.47197 6.97842 6.54756C5.46444 7.62164 4.4682 9.12699 4.13637 10.7664C3.80515 12.4027 4.15004 14.0985 5.12844 15.5456C5.30257 15.8031 5.34702 16.127 5.24871 16.4219L4.50139 18.6639L7.49192 18.0276C7.70961 17.9813 7.93654 18.0089 8.13676 18.1061C9.85091 18.9383 11.8576 19.1924 13.7775 18.8121C15.6971 18.4318 17.3708 17.4494 18.5022 16.0768C19.6306 14.7078 20.1469 13.0423 19.9849 11.3882C19.8227 9.73242 18.9875 8.15963 17.5964 6.97308C16.2027 5.78434 14.3517 5.07191 12.3836 4.99211ZM2.94399 21.0044C3.03938 21.0098 3.13381 21.0013 3.22471 20.9803L7.58163 20.0533C9.62137 20.9602 11.9447 21.2141 14.1662 20.774C16.5043 20.3108 18.5988 19.104 20.0455 17.3489C21.4953 15.59 22.1917 13.4019 21.9753 11.1932C21.7591 8.98604 20.6507 6.94952 18.8943 5.45142C17.1404 3.95551 14.8542 3.09064 12.4646 2.99375C10.0751 2.89686 7.71449 3.57316 5.82117 4.91637C3.92574 6.26108 2.61674 8.19277 2.17612 10.3696C1.7678 12.3869 2.13815 14.4556 3.20114 16.2401L2.0567 19.6734C2.02562 19.7614 2.00664 19.8543 2.00135 19.9496C1.99439 20.0724 2.01039 20.1935 2.04661 20.3076C2.09026 20.446 2.1621 20.5692 2.25429 20.6722C2.34629 20.7753 2.46071 20.8605 2.59337 20.9193C2.70266 20.9681 2.82125 20.9976 2.94399 21.0044Z" fill="#1F2937"/>
<path fill-rule="evenodd" clip-rule="evenodd" d="M12 11C12.5523 11 13 11.4477 13 12V12.01C13 12.5623 12.5523 13.01 12 13.01C11.4477 13.01 11 12.5623 11 12.01V12C11 11.4477 11.4477 11 12 11Z" fill="#1F2937"/>
<path fill-rule="evenodd" clip-rule="evenodd" d="M8 11C8.55228 11 9 11.4477 9 12V12.01C9 12.5623 8.55228 13.01 8 13.01C7.44772 13.01 7 12.5623 7 12.01V12C7 11.4477 7.44772 11 8 11Z" fill="#1F2937"/>
<path fill-rule="evenodd" clip-rule="evenodd" d="M16 11C16.5523 11 17 11.4477 17 12V12.01C17 12.5623 16.5523 13.01 16 13.01C15.4477 13.01 15 12.5623 15 12.01V12C15 11.4477 15.4477 11 16 11Z" fill="#1F2937"/>
</svg>
