<svg width="24" height="24" viewBox="0 0 24 24" fill="none" xmlns="http://www.w3.org/2000/svg">
<path fill-rule="evenodd" clip-rule="evenodd" d="M9.58579 2.58579C9.96086 2.21071 10.4696 2 11 2H20C20.5304 2 21.0391 2.21071 21.4142 2.58579C21.7893 2.96086 22 3.46957 22 4V14C22 14.4045 21.7564 14.7691 21.3827 14.9239C21.009 15.0787 20.5789 14.9931 20.2929 14.7071L17.5858 12H11C10.4696 12 9.96086 11.7893 9.58579 11.4142C9.21071 11.0391 9 10.5304 9 10V4C9 3.46957 9.21071 2.96086 9.58579 2.58579ZM20 4H11L11 10H18C18.2652 10 18.5196 10.1054 18.7071 10.2929L20 11.5858V4Z" fill="#1F2937"/>
<path fill-rule="evenodd" clip-rule="evenodd" d="M2.58579 9.59335C2.96086 9.21828 3.46957 9.00757 4 9.00757H6C6.55228 9.00757 7 9.45528 7 10.0076C7 10.5599 6.55228 11.0076 6 11.0076L4 11.0076V18.5934L5.29289 17.3005C5.48043 17.1129 5.73478 17.0076 6 17.0076H13V15.0076C13 14.4553 13.4477 14.0076 14 14.0076C14.5523 14.0076 15 14.4553 15 15.0076V17.0076C15 17.538 14.7893 18.0467 14.4142 18.4218C14.0391 18.7969 13.5304 19.0076 13 19.0076H6.41421L3.70711 21.7147C3.42111 22.0007 2.99099 22.0862 2.61732 21.9314C2.24364 21.7767 2 21.412 2 21.0076V11.0076C2 10.4771 2.21071 9.96843 2.58579 9.59335Z" fill="#1F2937"/>
</svg>
