<svg width="24" height="24" viewBox="0 0 24 24" fill="none" xmlns="http://www.w3.org/2000/svg">
<path fill-rule="evenodd" clip-rule="evenodd" d="M12 2.99243C10.8954 2.99243 10 3.88786 10 4.99243V9.99243C10 11.097 10.8954 11.9924 12 11.9924C13.1046 11.9924 14 11.097 14 9.99243V4.99243C14 3.88786 13.1046 2.99243 12 2.99243ZM8 4.99243C8 2.78329 9.79086 0.992432 12 0.992432C14.2091 0.992432 16 2.78329 16 4.99243V9.99243C16 12.2016 14.2091 13.9924 12 13.9924C9.79086 13.9924 8 12.2016 8 9.99243V4.99243Z" fill="#1F2937"/>
<path fill-rule="evenodd" clip-rule="evenodd" d="M5 9.00757C5.55228 9.00757 6 9.45528 6 10.0076C6 11.5989 6.63214 13.125 7.75736 14.2502C8.88258 15.3754 10.4087 16.0076 12 16.0076C13.5913 16.0076 15.1174 15.3754 16.2426 14.2502C17.3679 13.125 18 11.5989 18 10.0076C18 9.45528 18.4477 9.00757 19 9.00757C19.5523 9.00757 20 9.45528 20 10.0076C20 12.1293 19.1571 14.1641 17.6569 15.6644C16.1566 17.1647 14.1217 18.0076 12 18.0076C9.87827 18.0076 7.84344 17.1647 6.34315 15.6644C4.84285 14.1641 4 12.1293 4 10.0076C4 9.45528 4.44772 9.00757 5 9.00757Z" fill="#1F2937"/>
<path fill-rule="evenodd" clip-rule="evenodd" d="M7 21C7 20.4477 7.44772 20 8 20H16C16.5523 20 17 20.4477 17 21C17 21.5523 16.5523 22 16 22H8C7.44772 22 7 21.5523 7 21Z" fill="#1F2937"/>
<path fill-rule="evenodd" clip-rule="evenodd" d="M12 15.9924C12.5523 15.9924 13 16.4401 13 16.9924V20.9924C13 21.5447 12.5523 21.9924 12 21.9924C11.4477 21.9924 11 21.5447 11 20.9924V16.9924C11 16.4401 11.4477 15.9924 12 15.9924Z" fill="#1F2937"/>
</svg>
