<svg width="24" height="24" viewBox="0 0 24 24" fill="none" xmlns="http://www.w3.org/2000/svg">
<path fill-rule="evenodd" clip-rule="evenodd" d="M12 4C7.58172 4 4 7.58172 4 12C4 16.4183 7.58172 20 12 20C16.4183 20 20 16.4183 20 12C20 7.58172 16.4183 4 12 4ZM2 12C2 6.47715 6.47715 2 12 2C17.5228 2 22 6.47715 22 12C22 17.5228 17.5228 22 12 22C6.47715 22 2 17.5228 2 12Z" fill="#1F2937"/>
<path fill-rule="evenodd" clip-rule="evenodd" d="M8 10.0076C8 9.45528 8.44772 9.00757 9 9.00757H9.01C9.56228 9.00757 10.01 9.45528 10.01 10.0076C10.01 10.5599 9.56228 11.0076 9.01 11.0076H9C8.44772 11.0076 8 10.5599 8 10.0076Z" fill="#1F2937"/>
<path fill-rule="evenodd" clip-rule="evenodd" d="M14 10.0076C14 9.45528 14.4477 9.00757 15 9.00757H15.01C15.5623 9.00757 16.01 9.45528 16.01 10.0076C16.01 10.5599 15.5623 11.0076 15.01 11.0076H15C14.4477 11.0076 14 10.5599 14 10.0076Z" fill="#1F2937"/>
<path fill-rule="evenodd" clip-rule="evenodd" d="M7.5 13.9924C7.5 13.4401 7.94772 12.9924 8.5 12.9924H15.5C16.0523 12.9924 16.5 13.4401 16.5 13.9924C16.5 14.5447 16.0523 14.9924 15.5 14.9924H15V15.9924C15 16.7881 14.6839 17.5511 14.1213 18.1138C13.5587 18.6764 12.7957 18.9924 12 18.9924C11.2043 18.9924 10.4413 18.6764 9.87868 18.1138C9.31607 17.5511 9 16.7881 9 15.9924V14.9924H8.5C7.94772 14.9924 7.5 14.5447 7.5 13.9924ZM11 14.9924V15.9924C11 16.2576 11.1054 16.512 11.2929 16.6995C11.4804 16.8871 11.7348 16.9924 12 16.9924C12.2652 16.9924 12.5196 16.8871 12.7071 16.6995C12.8946 16.512 13 16.2576 13 15.9924V14.9924H11Z" fill="#1F2937"/>
</svg>
