<svg width="24" height="24" viewBox="0 0 24 24" fill="none" xmlns="http://www.w3.org/2000/svg">
<path fill-rule="evenodd" clip-rule="evenodd" d="M12 4C7.58172 4 4 7.58172 4 12C4 16.4183 7.58172 20 12 20C16.4183 20 20 16.4183 20 12C20 7.58172 16.4183 4 12 4ZM2 12C2 6.47715 6.47715 2 12 2C17.5228 2 22 6.47715 22 12C22 17.5228 17.5228 22 12 22C6.47715 22 2 17.5228 2 12Z" fill="#1F2937"/>
<path fill-rule="evenodd" clip-rule="evenodd" d="M8 10.0076C8 9.45528 8.44772 9.00757 9 9.00757H9.01C9.56228 9.00757 10.01 9.45528 10.01 10.0076C10.01 10.5599 9.56228 11.0076 9.01 11.0076H9C8.44772 11.0076 8 10.5599 8 10.0076Z" fill="#1F2937"/>
<path fill-rule="evenodd" clip-rule="evenodd" d="M14 10.0076C14 9.45528 14.4477 9.00757 15 9.00757H15.01C15.5623 9.00757 16.01 9.45528 16.01 10.0076C16.01 10.5599 15.5623 11.0076 15.01 11.0076H15C14.4477 11.0076 14 10.5599 14 10.0076Z" fill="#1F2937"/>
<path fill-rule="evenodd" clip-rule="evenodd" d="M8 15C8 14.4477 8.44772 14 9 14H15C15.5523 14 16 14.4477 16 15C16 15.5523 15.5523 16 15 16H9C8.44772 16 8 15.5523 8 15Z" fill="#1F2937"/>
</svg>
