<svg width="24" height="24" viewBox="0 0 24 24" fill="none" xmlns="http://www.w3.org/2000/svg">
<path fill-rule="evenodd" clip-rule="evenodd" d="M12 4C7.58172 4 4 7.58172 4 12C4 16.4183 7.58172 20 12 20C16.4183 20 20 16.4183 20 12C20 7.58172 16.4183 4 12 4ZM2 12C2 6.47715 6.47715 2 12 2C17.5228 2 22 6.47715 22 12C22 17.5228 17.5228 22 12 22C6.47715 22 2 17.5228 2 12Z" fill="#1F2937"/>
<path fill-rule="evenodd" clip-rule="evenodd" d="M8 10.0076C8 9.45528 8.44772 9.00757 9 9.00757H9.01C9.56228 9.00757 10.01 9.45528 10.01 10.0076C10.01 10.5599 9.56228 11.0076 9.01 11.0076H9C8.44772 11.0076 8 10.5599 8 10.0076Z" fill="#1F2937"/>
<path fill-rule="evenodd" clip-rule="evenodd" d="M14 10.0076C14 9.45528 14.4477 9.00757 15 9.00757H15.01C15.5623 9.00757 16.01 9.45528 16.01 10.0076C16.01 10.5599 15.5623 11.0076 15.01 11.0076H15C14.4477 11.0076 14 10.5599 14 10.0076Z" fill="#1F2937"/>
<path fill-rule="evenodd" clip-rule="evenodd" d="M12 15.2031C11.6674 15.2031 11.3381 15.2695 11.0315 15.3983C10.7249 15.5272 10.4471 15.7159 10.2143 15.9535C9.82777 16.348 9.19464 16.3544 8.80015 15.9679C8.40566 15.5814 8.3992 14.9483 8.78571 14.5538C9.2047 14.1262 9.70481 13.7864 10.2567 13.5545C10.8087 13.3226 11.4013 13.2031 12 13.2031C12.5987 13.2031 13.1913 13.3226 13.7433 13.5545C14.2952 13.7864 14.7953 14.1262 15.2143 14.5538C15.6008 14.9483 15.5943 15.5814 15.1999 15.9679C14.8054 16.3544 14.1722 16.348 13.7857 15.9535C13.5529 15.7159 13.2751 15.5272 12.9685 15.3983C12.6619 15.2695 12.3326 15.2031 12 15.2031Z" fill="#1F2937"/>
</svg>
