<svg width="24" height="24" viewBox="0 0 24 24" fill="none" xmlns="http://www.w3.org/2000/svg">
<path fill-rule="evenodd" clip-rule="evenodd" d="M11 5.00757C9.34315 5.00757 8 6.35071 8 8.00757V16.0076C8 17.6644 9.34315 19.0076 11 19.0076H13C14.6569 19.0076 16 17.6644 16 16.0076V8.00757C16 6.35071 14.6569 5.00757 13 5.00757H11ZM6 8.00757C6 5.24614 8.23858 3.00757 11 3.00757H13C15.7614 3.00757 18 5.24614 18 8.00757V16.0076C18 18.769 15.7614 21.0076 13 21.0076H11C8.23858 21.0076 6 18.769 6 16.0076V8.00757Z" fill="#1F2937"/>
<path fill-rule="evenodd" clip-rule="evenodd" d="M12 6.99243C12.5523 6.99243 13 7.44015 13 7.99243V10.9924C13 11.5447 12.5523 11.9924 12 11.9924C11.4477 11.9924 11 11.5447 11 10.9924V7.99243C11 7.44015 11.4477 6.99243 12 6.99243Z" fill="#1F2937"/>
</svg>
