<svg width="24" height="24" viewBox="0 0 24 24" fill="none" xmlns="http://www.w3.org/2000/svg">
<path fill-rule="evenodd" clip-rule="evenodd" d="M6 5.00757C5.44772 5.00757 5 5.45528 5 6.00757V18.0076C5 18.5599 5.44772 19.0076 6 19.0076H18C18.5523 19.0076 19 18.5599 19 18.0076V6.00757C19 5.45528 18.5523 5.00757 18 5.00757H6ZM3 6.00757C3 4.35071 4.34315 3.00757 6 3.00757H18C19.6569 3.00757 21 4.35071 21 6.00757V18.0076C21 19.6644 19.6569 21.0076 18 21.0076H6C4.34315 21.0076 3 19.6644 3 18.0076V6.00757Z" fill="#1F2937"/>
<path fill-rule="evenodd" clip-rule="evenodd" d="M8 3.00757C8.55228 3.00757 9 3.45528 9 4.00757V20.0076C9 20.5599 8.55228 21.0076 8 21.0076C7.44772 21.0076 7 20.5599 7 20.0076V4.00757C7 3.45528 7.44772 3.00757 8 3.00757Z" fill="#1F2937"/>
<path fill-rule="evenodd" clip-rule="evenodd" d="M16 3.00757C16.5523 3.00757 17 3.45528 17 4.00757V20.0076C17 20.5599 16.5523 21.0076 16 21.0076C15.4477 21.0076 15 20.5599 15 20.0076V4.00757C15 3.45528 15.4477 3.00757 16 3.00757Z" fill="#1F2937"/>
<path fill-rule="evenodd" clip-rule="evenodd" d="M3 7.99243C3 7.44015 3.44772 6.99243 4 6.99243H8C8.55228 6.99243 9 7.44015 9 7.99243C9 8.54472 8.55228 8.99243 8 8.99243H4C3.44772 8.99243 3 8.54472 3 7.99243Z" fill="#1F2937"/>
<path fill-rule="evenodd" clip-rule="evenodd" d="M3 16.0076C3 15.4553 3.44772 15.0076 4 15.0076H8C8.55228 15.0076 9 15.4553 9 16.0076C9 16.5599 8.55228 17.0076 8 17.0076H4C3.44772 17.0076 3 16.5599 3 16.0076Z" fill="#1F2937"/>
<path fill-rule="evenodd" clip-rule="evenodd" d="M3 12C3 11.4477 3.44772 11 4 11H20C20.5523 11 21 11.4477 21 12C21 12.5523 20.5523 13 20 13H4C3.44772 13 3 12.5523 3 12Z" fill="#1F2937"/>
<path fill-rule="evenodd" clip-rule="evenodd" d="M15 7.99243C15 7.44015 15.4477 6.99243 16 6.99243H20C20.5523 6.99243 21 7.44015 21 7.99243C21 8.54472 20.5523 8.99243 20 8.99243H16C15.4477 8.99243 15 8.54472 15 7.99243Z" fill="#1F2937"/>
<path fill-rule="evenodd" clip-rule="evenodd" d="M15 16.0076C15 15.4553 15.4477 15.0076 16 15.0076H20C20.5523 15.0076 21 15.4553 21 16.0076C21 16.5599 20.5523 17.0076 20 17.0076H16C15.4477 17.0076 15 16.5599 15 16.0076Z" fill="#1F2937"/>
</svg>
