<svg width="24" height="24" viewBox="0 0 24 24" fill="none" xmlns="http://www.w3.org/2000/svg">
<path fill-rule="evenodd" clip-rule="evenodd" d="M6 14.9924C4.89543 14.9924 4 15.8879 4 16.9924C4 18.097 4.89543 18.9924 6 18.9924C7.10457 18.9924 8 18.097 8 16.9924C8 15.8879 7.10457 14.9924 6 14.9924ZM2 16.9924C2 14.7833 3.79086 12.9924 6 12.9924C8.20914 12.9924 10 14.7833 10 16.9924C10 19.2016 8.20914 20.9924 6 20.9924C3.79086 20.9924 2 19.2016 2 16.9924Z" fill="#1F2937"/>
<path fill-rule="evenodd" clip-rule="evenodd" d="M16 14.9924C14.8954 14.9924 14 15.8879 14 16.9924C14 18.097 14.8954 18.9924 16 18.9924C17.1046 18.9924 18 18.097 18 16.9924C18 15.8879 17.1046 14.9924 16 14.9924ZM12 16.9924C12 14.7833 13.7909 12.9924 16 12.9924C18.2091 12.9924 20 14.7833 20 16.9924C20 19.2016 18.2091 20.9924 16 20.9924C13.7909 20.9924 12 19.2016 12 16.9924Z" fill="#1F2937"/>
<path fill-rule="evenodd" clip-rule="evenodd" d="M8 4.00757C8 3.45528 8.44772 3.00757 9 3.00757H19C19.5523 3.00757 20 3.45528 20 4.00757V17.0076C20 17.5599 19.5523 18.0076 19 18.0076C18.4477 18.0076 18 17.5599 18 17.0076V5.00757H10V17.0076C10 17.5599 9.55228 18.0076 9 18.0076C8.44772 18.0076 8 17.5599 8 17.0076V4.00757Z" fill="#1F2937"/>
<path fill-rule="evenodd" clip-rule="evenodd" d="M8 7.99243C8 7.44015 8.44772 6.99243 9 6.99243H19C19.5523 6.99243 20 7.44015 20 7.99243C20 8.54472 19.5523 8.99243 19 8.99243H9C8.44772 8.99243 8 8.54472 8 7.99243Z" fill="#1F2937"/>
</svg>
