<svg width="24" height="24" viewBox="0 0 24 24" fill="none" xmlns="http://www.w3.org/2000/svg">
<path fill-rule="evenodd" clip-rule="evenodd" d="M3.58579 3.59336C3.96086 3.21828 4.46957 3.00757 5 3.00757H15C15.5304 3.00757 16.0391 3.21828 16.4142 3.59336C16.7893 3.96843 17 4.47713 17 5.00757H19C19.5304 5.00757 20.0391 5.21828 20.4142 5.59335C20.7893 5.96843 21 6.47714 21 7.00757V18.0076C21 18.8032 20.6839 19.5663 20.1213 20.1289C19.5587 20.6915 18.7957 21.0076 18 21.0076H7C5.93913 21.0076 4.92172 20.5861 4.17157 19.836C3.42143 19.0858 3 18.0684 3 17.0076V5.00757C3 4.47713 3.21071 3.96843 3.58579 3.59336ZM15.1716 19.0076H7C6.46957 19.0076 5.96086 18.7969 5.58579 18.4218C5.21071 18.0467 5 17.538 5 17.0076L5 5.00757L15 5.00757V18.0076C15 18.3515 15.0591 18.6894 15.1716 19.0076ZM17 7.00757V18.0076C17 18.2728 17.1054 18.5271 17.2929 18.7147C17.4804 18.9022 17.7348 19.0076 18 19.0076C18.2652 19.0076 18.5196 18.9022 18.7071 18.7147C18.8946 18.5271 19 18.2728 19 18.0076V7.00757H17Z" fill="#1F2937"/>
<path fill-rule="evenodd" clip-rule="evenodd" d="M7 7.99243C7 7.44015 7.44772 6.99243 8 6.99243H12C12.5523 6.99243 13 7.44015 13 7.99243C13 8.54472 12.5523 8.99243 12 8.99243H8C7.44772 8.99243 7 8.54472 7 7.99243Z" fill="#1F2937"/>
<path fill-rule="evenodd" clip-rule="evenodd" d="M7 12C7 11.4477 7.44772 11 8 11H12C12.5523 11 13 11.4477 13 12C13 12.5523 12.5523 13 12 13H8C7.44772 13 7 12.5523 7 12Z" fill="#1F2937"/>
<path fill-rule="evenodd" clip-rule="evenodd" d="M7 16.0076C7 15.4553 7.44772 15.0076 8 15.0076H12C12.5523 15.0076 13 15.4553 13 16.0076C13 16.5599 12.5523 17.0076 12 17.0076H8C7.44772 17.0076 7 16.5599 7 16.0076Z" fill="#1F2937"/>
</svg>
