<svg width="24" height="24" viewBox="0 0 24 24" fill="none" xmlns="http://www.w3.org/2000/svg">
<path fill-rule="evenodd" clip-rule="evenodd" d="M20.7071 12.3005C21.0976 12.691 21.0976 13.3242 20.7071 13.7147L13.7071 20.7147C13.3166 21.1052 12.6834 21.1052 12.2929 20.7147C11.9024 20.3242 11.9024 19.691 12.2929 19.3005L19.2929 12.3005C19.6834 11.9099 20.3166 11.9099 20.7071 12.3005Z" fill="#1F2937"/>
<path fill-rule="evenodd" clip-rule="evenodd" d="M3.87868 3.88625C4.44129 3.32364 5.20435 3.00757 6 3.00757H18C18.7956 3.00757 19.5587 3.32364 20.1213 3.88625C20.6839 4.44886 21 5.21192 21 6.00757V13.0076C21 13.5599 20.5523 14.0076 20 14.0076H14V20.0076C14 20.5599 13.5523 21.0076 13 21.0076H6C5.20435 21.0076 4.44129 20.6915 3.87868 20.1289C3.31607 19.5663 3 18.8032 3 18.0076V6.00757C3 5.21192 3.31607 4.44886 3.87868 3.88625ZM6 5.00757C5.73478 5.00757 5.48043 5.11293 5.29289 5.30046C5.10536 5.488 5 5.74235 5 6.00757V18.0076C5 18.2728 5.10536 18.5271 5.29289 18.7147C5.48043 18.9022 5.73478 19.0076 6 19.0076H12V14.0076C12 13.4771 12.2107 12.9684 12.5858 12.5934C12.9609 12.2183 13.4696 12.0076 14 12.0076H19V6.00757C19 5.74235 18.8946 5.488 18.7071 5.30046C18.5196 5.11293 18.2652 5.00757 18 5.00757H6Z" fill="#1F2937"/>
</svg>
