<svg width="24" height="24" viewBox="0 0 24 24" fill="none" xmlns="http://www.w3.org/2000/svg">
<path fill-rule="evenodd" clip-rule="evenodd" d="M4.58579 3.59336C4.96086 3.21828 5.46957 3.00757 6 3.00757H17C17.7956 3.00757 18.5587 3.32364 19.1213 3.88625C19.6839 4.44886 20 5.21192 20 6.00757V18.0076C20 18.8032 19.6839 19.5663 19.1213 20.1289C18.5587 20.6915 17.7957 21.0076 17 21.0076H10V22.0076C10 22.5599 9.55228 23.0076 9 23.0076C8.44772 23.0076 8 22.5599 8 22.0076V21.0076H6C5.46957 21.0076 4.96086 20.7969 4.58579 20.4218C4.21071 20.0467 4 19.538 4 19.0076V5.00757C4 4.47713 4.21071 3.96843 4.58579 3.59336ZM10 19.0076H17C17.2652 19.0076 17.5196 18.9022 17.7071 18.7147C17.8946 18.5271 18 18.2728 18 18.0076V6.00757C18 5.74235 17.8946 5.488 17.7071 5.30046C17.5196 5.11293 17.2652 5.00757 17 5.00757H10V19.0076ZM8 5.00757V19.0076H6L6 5.00757L8 5.00757Z" fill="#1F2937"/>
<path fill-rule="evenodd" clip-rule="evenodd" d="M12 7.99243C12 7.44015 12.4477 6.99243 13 6.99243H15C15.5523 6.99243 16 7.44015 16 7.99243C16 8.54472 15.5523 8.99243 15 8.99243H13C12.4477 8.99243 12 8.54472 12 7.99243Z" fill="#1F2937"/>
<path fill-rule="evenodd" clip-rule="evenodd" d="M12 12C12 11.4477 12.4477 11 13 11H15C15.5523 11 16 11.4477 16 12C16 12.5523 15.5523 13 15 13H13C12.4477 13 12 12.5523 12 12Z" fill="#1F2937"/>
</svg>
