<svg width="24" height="24" viewBox="0 0 24 24" fill="none" xmlns="http://www.w3.org/2000/svg">
<path fill-rule="evenodd" clip-rule="evenodd" d="M7 4C6.44772 4 6 4.44772 6 5V19C6 19.5523 6.44772 20 7 20H17C17.5523 20 18 19.5523 18 19V5C18 4.44772 17.5523 4 17 4H7ZM4 5C4 3.34315 5.34315 2 7 2H17C18.6569 2 20 3.34315 20 5V19C20 20.6569 18.6569 22 17 22H7C5.34315 22 4 20.6569 4 19V5Z" fill="#1F2937"/>
<path fill-rule="evenodd" clip-rule="evenodd" d="M8 7.00757C8 6.45528 8.44772 6.00757 9 6.00757H15C15.5523 6.00757 16 6.45528 16 7.00757C16 7.55985 15.5523 8.00757 15 8.00757H9C8.44772 8.00757 8 7.55985 8 7.00757Z" fill="#1F2937"/>
<path fill-rule="evenodd" clip-rule="evenodd" d="M8 10.9924C8 10.4401 8.44772 9.99243 9 9.99243H15C15.5523 9.99243 16 10.4401 16 10.9924C16 11.5447 15.5523 11.9924 15 11.9924H9C8.44772 11.9924 8 11.5447 8 10.9924Z" fill="#1F2937"/>
<path fill-rule="evenodd" clip-rule="evenodd" d="M8 15C8 14.4477 8.44772 14 9 14H13C13.5523 14 14 14.4477 14 15C14 15.5523 13.5523 16 13 16H9C8.44772 16 8 15.5523 8 15Z" fill="#1F2937"/>
</svg>
