<svg width="24" height="24" viewBox="0 0 24 24" fill="none" xmlns="http://www.w3.org/2000/svg">
<path fill-rule="evenodd" clip-rule="evenodd" d="M3.87868 6.88613C4.44129 6.32352 5.20435 6.00745 6 6.00745H9C9.55228 6.00745 10 6.45516 10 7.00745C10 7.55973 9.55228 8.00745 9 8.00745H6C5.73478 8.00745 5.48043 8.1128 5.29289 8.30034C5.10536 8.48788 5 8.74223 5 9.00745V18.0074C5 18.2727 5.10536 18.527 5.29289 18.7146C5.48043 18.9021 5.73478 19.0074 6 19.0074H15C15.2652 19.0074 15.5196 18.9021 15.7071 18.7146C15.8946 18.527 16 18.2727 16 18.0074V15.0074C16 14.4552 16.4477 14.0074 17 14.0074C17.5523 14.0074 18 14.4552 18 15.0074V18.0074C18 18.8031 17.6839 19.5662 17.1213 20.1288C16.5587 20.6914 15.7957 21.0074 15 21.0074H6C5.20435 21.0074 4.44129 20.6914 3.87868 20.1288C3.31607 19.5662 3 18.8031 3 18.0074V9.00745C3 8.2118 3.31607 7.44874 3.87868 6.88613Z" fill="#1F2937"/>
<path fill-rule="evenodd" clip-rule="evenodd" d="M16 5.99255C14.8954 5.99255 14 6.88798 14 7.99255C14 9.09712 14.8954 9.99255 16 9.99255C17.1046 9.99255 18 9.09712 18 7.99255C18 6.88798 17.1046 5.99255 16 5.99255ZM12 7.99255C12 5.78341 13.7909 3.99255 16 3.99255C18.2091 3.99255 20 5.78341 20 7.99255C20 10.2017 18.2091 11.9926 16 11.9926C13.7909 11.9926 12 10.2017 12 7.99255Z" fill="#1F2937"/>
</svg>
