<svg width="24" height="24" viewBox="0 0 24 24" fill="none" xmlns="http://www.w3.org/2000/svg">
<path fill-rule="evenodd" clip-rule="evenodd" d="M12 4.93726C10.546 4.93726 9.13606 5.43624 8.00574 6.35082C6.87542 7.2654 6.09321 8.54019 5.7898 9.96217C5.48638 11.3841 5.68016 12.8672 6.33873 14.1635C6.99731 15.4598 8.0808 16.4908 9.40816 17.0842C9.7682 17.2452 10 17.6028 10 17.9971V18.9971C10 19.5494 9.55228 19.9971 9 19.9971H4C3.44772 19.9971 3 19.5494 3 18.9971C3 18.4449 3.44772 17.9971 4 17.9971H7.03007C5.99592 17.2311 5.14598 16.2313 4.55566 15.0694C3.68965 13.3648 3.43485 11.4147 3.83383 9.54481C4.2328 7.67497 5.26138 5.99868 6.74771 4.79604C8.23403 3.59339 10.0881 2.93726 12 2.93726C13.9119 2.93726 15.766 3.59339 17.2523 4.79604C18.7386 5.99868 19.7672 7.67497 20.1662 9.54481C20.5651 11.4147 20.3103 13.3648 19.4443 15.0694C18.854 16.2313 18.0041 17.2311 16.9699 17.9971H20C20.5523 17.9971 21 18.4449 21 18.9971C21 19.5494 20.5523 19.9971 20 19.9971H15C14.4477 19.9971 14 19.5494 14 18.9971V17.9971C14 17.6028 14.2318 17.2452 14.5918 17.0842C15.9192 16.4908 17.0027 15.4598 17.6613 14.1635C18.3198 12.8672 18.5136 11.3841 18.2102 9.96217C17.9068 8.54019 17.1246 7.2654 15.9943 6.35082C14.8639 5.43624 13.454 4.93726 12 4.93726Z" fill="#1F2937"/>
</svg>
