<svg width="24" height="24" viewBox="0 0 24 24" fill="none" xmlns="http://www.w3.org/2000/svg">
<path fill-rule="evenodd" clip-rule="evenodd" d="M6 5.00745C5.44772 5.00745 5 5.45516 5 6.00745V18.0074C5 18.5597 5.44772 19.0074 6 19.0074H18C18.5523 19.0074 19 18.5597 19 18.0074V6.00745C19 5.45516 18.5523 5.00745 18 5.00745H6ZM3 6.00745C3 4.35059 4.34315 3.00745 6 3.00745H18C19.6569 3.00745 21 4.35059 21 6.00745V18.0074C21 19.6643 19.6569 21.0074 18 21.0074H6C4.34315 21.0074 3 19.6643 3 18.0074V6.00745Z" fill="#1F2937"/>
<path d="M9 12.5074C9.27614 12.5074 9.5 12.2836 9.5 12.0074C9.5 11.7313 9.27614 11.5074 9 11.5074C8.72386 11.5074 8.5 11.7313 8.5 12.0074C8.5 12.2836 8.72386 12.5074 9 12.5074Z" fill="#1F2937"/>
<path fill-rule="evenodd" clip-rule="evenodd" d="M9 12.5074C9.27614 12.5074 9.5 12.2836 9.5 12.0074C9.5 11.7313 9.27614 11.5074 9 11.5074C8.72386 11.5074 8.5 11.7313 8.5 12.0074C8.5 12.2836 8.72386 12.5074 9 12.5074ZM7.5 12.0074C7.5 11.179 8.17157 10.5074 9 10.5074C9.82843 10.5074 10.5 11.179 10.5 12.0074C10.5 12.8359 9.82843 13.5074 9 13.5074C8.17157 13.5074 7.5 12.8359 7.5 12.0074Z" fill="#1F2937"/>
<path d="M15 12.5074C15.2761 12.5074 15.5 12.2836 15.5 12.0074C15.5 11.7313 15.2761 11.5074 15 11.5074C14.7239 11.5074 14.5 11.7313 14.5 12.0074C14.5 12.2836 14.7239 12.5074 15 12.5074Z" fill="#1F2937"/>
<path fill-rule="evenodd" clip-rule="evenodd" d="M15 12.5074C15.2761 12.5074 15.5 12.2836 15.5 12.0074C15.5 11.7313 15.2761 11.5074 15 11.5074C14.7239 11.5074 14.5 11.7313 14.5 12.0074C14.5 12.2836 14.7239 12.5074 15 12.5074ZM13.5 12.0074C13.5 11.179 14.1716 10.5074 15 10.5074C15.8284 10.5074 16.5 11.179 16.5 12.0074C16.5 12.8359 15.8284 13.5074 15 13.5074C14.1716 13.5074 13.5 12.8359 13.5 12.0074Z" fill="#1F2937"/>
</svg>
