<svg width="24" height="24" viewBox="0 0 24 24" fill="none" xmlns="http://www.w3.org/2000/svg">
<path fill-rule="evenodd" clip-rule="evenodd" d="M11.2926 3.27797C12.2758 2.29478 13.6093 1.74243 14.9997 1.74243C16.3901 1.74243 17.7236 2.29478 18.7068 3.27797C19.69 4.26115 20.2423 5.59464 20.2423 6.98507C20.2423 8.37551 19.69 9.70899 18.7068 10.6922L12.2068 17.1922C11.6214 17.7775 10.8275 18.1064 9.9997 18.1064C9.17188 18.1064 8.37796 17.7775 7.7926 17.1922C7.20724 16.6068 6.87838 15.8129 6.87838 14.9851C6.87838 14.1572 7.20724 13.3633 7.7926 12.778L14.2926 6.27797C14.6831 5.88744 15.3163 5.88744 15.7068 6.27797C16.0973 6.66849 16.0973 7.30165 15.7068 7.69218L9.20681 14.1922C8.99652 14.4025 8.87838 14.6877 8.87838 14.9851C8.87838 15.2825 8.99652 15.5677 9.20681 15.778C9.4171 15.9883 9.70231 16.1064 9.9997 16.1064C10.2971 16.1064 10.5823 15.9883 10.7926 15.778L17.2926 9.27797C17.9007 8.66985 18.2423 7.84507 18.2423 6.98507C18.2423 6.12507 17.9007 5.30029 17.2926 4.69218C16.6845 4.08407 15.8597 3.74243 14.9997 3.74243C14.1397 3.74243 13.3149 4.08407 12.7068 4.69218L6.20681 11.1922C5.20087 12.1981 4.63574 13.5625 4.63574 14.9851C4.63574 16.4077 5.20087 17.772 6.20681 18.778C7.21275 19.7839 8.57709 20.349 9.9997 20.349C11.4223 20.349 12.7867 19.7839 13.7926 18.778L20.2926 12.278C20.6831 11.8874 21.3163 11.8874 21.7068 12.278C22.0973 12.6685 22.0973 13.3017 21.7068 13.6922L15.2068 20.1922C13.8258 21.5732 11.9527 22.349 9.9997 22.349C8.04666 22.349 6.17361 21.5732 4.7926 20.1922C3.41159 18.8112 2.63574 16.9381 2.63574 14.9851C2.63574 13.032 3.41159 11.159 4.7926 9.77797L11.2926 3.27797Z" fill="#1F2937"/>
</svg>
