<svg width="24" height="24" viewBox="0 0 24 24" fill="none" xmlns="http://www.w3.org/2000/svg">
<path fill-rule="evenodd" clip-rule="evenodd" d="M6 5.00745C5.44772 5.00745 5 5.45516 5 6.00745V18.0074C5 18.5597 5.44772 19.0074 6 19.0074H18C18.5523 19.0074 19 18.5597 19 18.0074V6.00745C19 5.45516 18.5523 5.00745 18 5.00745H6ZM3 6.00745C3 4.35059 4.34315 3.00745 6 3.00745H18C19.6569 3.00745 21 4.35059 21 6.00745V18.0074C21 19.6643 19.6569 21.0074 18 21.0074H6C4.34315 21.0074 3 19.6643 3 18.0074V6.00745Z" fill="#1F2937"/>
<path fill-rule="evenodd" clip-rule="evenodd" d="M8 7.99255C8 7.44027 8.44772 6.99255 9 6.99255H13C13.7957 6.99255 14.5587 7.30863 15.1213 7.87123C15.6839 8.43384 16 9.1969 16 9.99255C16 10.7882 15.6839 11.5513 15.1213 12.1139C14.5587 12.6765 13.7957 12.9926 13 12.9926H10V15.9926C10 16.5448 9.55228 16.9926 9 16.9926C8.44772 16.9926 8 16.5448 8 15.9926V7.99255ZM10 10.9926H13C13.2652 10.9926 13.5196 10.8872 13.7071 10.6997C13.8946 10.5121 14 10.2578 14 9.99255C14 9.72734 13.8946 9.47298 13.7071 9.28545C13.5196 9.09791 13.2652 8.99255 13 8.99255H10V10.9926Z" fill="#1F2937"/>
</svg>
