<svg width="24" height="24" viewBox="0 0 24 24" fill="none" xmlns="http://www.w3.org/2000/svg">
<path fill-rule="evenodd" clip-rule="evenodd" d="M5 5.00757C4.73478 5.00757 4.48043 5.11293 4.29289 5.30046C4.11141 5.48195 4.00688 5.72601 4.00033 5.98194C4.23032 9.62587 5.78159 13.0613 8.36394 15.6436C10.9463 18.226 14.3817 19.7773 18.0256 20.0072C18.2816 20.0007 18.5256 19.8962 18.7071 19.7147C18.8946 19.5271 19 19.2728 19 19.0076V15.6846L15.4193 14.2523L14.3575 16.0221C14.0897 16.4683 13.5244 16.6346 13.0577 16.4044C10.6887 15.2361 8.77146 13.3188 7.60314 10.9499C7.37294 10.4831 7.53924 9.91784 7.9855 9.65008L9.75523 8.58824L8.32297 5.00757H5ZM2.87868 3.88625C3.44129 3.32364 4.20435 3.00757 5 3.00757H9C9.4089 3.00757 9.77661 3.25652 9.92848 3.63618L11.9285 8.63618C12.1108 9.09189 11.9354 9.61254 11.5145 9.86506L9.8405 10.8695C10.6644 12.2131 11.7945 13.3432 13.1381 14.1671L14.1425 12.4931C14.395 12.0722 14.9157 11.8968 15.3714 12.0791L20.3714 14.0791C20.751 14.231 21 14.5987 21 15.0076V19.0076C21 19.8032 20.6839 20.5663 20.1213 21.1289C19.5587 21.6915 18.7957 22.0076 18 22.0076C17.9798 22.0076 17.9595 22.007 17.9393 22.0057C13.7948 21.7539 9.88576 19.9939 6.94972 17.0578C4.01369 14.1218 2.25371 10.2128 2.00184 6.06823C2.00061 6.04803 2 6.0278 2 6.00757C2 5.21192 2.31607 4.44886 2.87868 3.88625Z" fill="#1F2937"/>
<path fill-rule="evenodd" clip-rule="evenodd" d="M20 2C20.5523 2 21 2.44772 21 3V7C21 7.55228 20.5523 8 20 8C19.4477 8 19 7.55228 19 7V3C19 2.44772 19.4477 2 20 2Z" fill="#1F2937"/>
<path fill-rule="evenodd" clip-rule="evenodd" d="M16 2C16.5523 2 17 2.44772 17 3V7C17 7.55228 16.5523 8 16 8C15.4477 8 15 7.55228 15 7V3C15 2.44772 15.4477 2 16 2Z" fill="#1F2937"/>
</svg>
