<svg width="24" height="24" viewBox="0 0 24 24" fill="none" xmlns="http://www.w3.org/2000/svg">
<path fill-rule="evenodd" clip-rule="evenodd" d="M14 7.99243C14 7.44015 14.4477 6.99243 15 6.99243H15.01C15.5623 6.99243 16.01 7.44015 16.01 7.99243C16.01 8.54472 15.5623 8.99243 15.01 8.99243H15C14.4477 8.99243 14 8.54472 14 7.99243Z" fill="#1F2937"/>
<path fill-rule="evenodd" clip-rule="evenodd" d="M7 5.00757C5.89543 5.00757 5 5.903 5 7.00757V17.0076C5 18.1121 5.89543 19.0076 7 19.0076H17C18.1046 19.0076 19 18.1121 19 17.0076V7.00757C19 5.903 18.1046 5.00757 17 5.00757H7ZM3 7.00757C3 4.79843 4.79086 3.00757 7 3.00757H17C19.2091 3.00757 21 4.79843 21 7.00757V17.0076C21 19.2167 19.2091 21.0076 17 21.0076H7C4.79086 21.0076 3 19.2167 3 17.0076V7.00757Z" fill="#1F2937"/>
<path fill-rule="evenodd" clip-rule="evenodd" d="M8.69966 11.7201L4.70711 15.7127C4.31658 16.1032 3.68342 16.1032 3.29289 15.7127C2.90237 15.3221 2.90237 14.689 3.29289 14.2984L7.29289 10.2985L7.30663 10.285C7.909 9.70535 8.66419 9.33569 9.5 9.33569C10.3358 9.33569 11.091 9.70535 11.6934 10.285L11.7071 10.2985L16.7071 15.2984C17.0976 15.689 17.0976 16.3221 16.7071 16.7126C16.3166 17.1032 15.6834 17.1032 15.2929 16.7127L10.3003 11.7201C9.9931 11.4268 9.71594 11.3357 9.5 11.3357C9.28406 11.3357 9.0069 11.4268 8.69966 11.7201Z" fill="#1F2937"/>
<path fill-rule="evenodd" clip-rule="evenodd" d="M15.6997 13.7128L14.7071 14.7053C14.3166 15.0959 13.6834 15.0959 13.2929 14.7053C12.9024 14.3148 12.9024 13.6817 13.2929 13.2911L14.2929 12.2911L14.3066 12.2777C14.909 11.698 15.6642 11.3284 16.5 11.3284C17.3358 11.3284 18.091 11.698 18.6934 12.2777L18.7071 12.2911L20.7071 14.2911C21.0976 14.6817 21.0976 15.3148 20.7071 15.7053C20.3166 16.0959 19.6834 16.0959 19.2929 15.7053L17.3003 13.7128C16.9931 13.4195 16.7159 13.3284 16.5 13.3284C16.2841 13.3284 16.0069 13.4195 15.6997 13.7128Z" fill="#1F2937"/>
</svg>
