<svg width="24" height="24" viewBox="0 0 24 24" fill="none" xmlns="http://www.w3.org/2000/svg">
<path fill-rule="evenodd" clip-rule="evenodd" d="M16 4.06995C14.9525 4.06995 13.9479 4.48608 13.2071 5.2268L5.20715 13.2268C4.46643 13.9675 4.05029 14.9722 4.05029 16.0197C4.05029 17.0672 4.46643 18.0719 5.20715 18.8126C5.94787 19.5533 6.9525 19.9694 8.00004 19.9694C9.04758 19.9694 10.0522 19.5533 10.7929 18.8126L18.7929 10.8126C19.5337 10.0719 19.9498 9.06723 19.9498 8.01969C19.9498 6.97216 19.5337 5.96752 18.7929 5.2268C18.0522 4.48608 17.0476 4.06995 16 4.06995ZM3.79293 11.8126C2.67714 12.9284 2.05029 14.4417 2.05029 16.0197C2.05029 17.5977 2.67714 19.111 3.79293 20.2268C4.90873 21.3426 6.42207 21.9694 8.00004 21.9694C9.57801 21.9694 11.0914 21.3426 12.2071 20.2268L20.2071 12.2268C21.3229 11.111 21.9498 9.59766 21.9498 8.01969C21.9498 6.44172 21.3229 4.92838 20.2071 3.81259C19.0914 2.69679 17.578 2.06995 16 2.06995C14.4221 2.06995 12.9087 2.69679 11.7929 3.81259L3.79293 11.8126Z" fill="#1F2937"/>
<path fill-rule="evenodd" clip-rule="evenodd" d="M7.79289 7.80034C8.18342 7.40982 8.81658 7.40982 9.20711 7.80034L16.2071 14.8003C16.5976 15.1909 16.5976 15.824 16.2071 16.2146C15.8166 16.6051 15.1834 16.6051 14.7929 16.2146L7.79289 9.21455C7.40237 8.82403 7.40237 8.19086 7.79289 7.80034Z" fill="#1F2937"/>
</svg>
