<svg width="24" height="24" viewBox="0 0 24 24" fill="none" xmlns="http://www.w3.org/2000/svg">
<path fill-rule="evenodd" clip-rule="evenodd" d="M4.11171 7.49376C4.24196 7.48916 4.41101 7.49508 4.62349 7.51928C5.36431 7.60367 6.40604 7.88226 7.66415 8.35946C8.18054 8.55533 8.75793 8.29549 8.95379 7.7791C9.14966 7.26272 8.88982 6.68532 8.37344 6.48946C7.04255 5.98466 5.82527 5.64325 4.84985 5.53213C4.36593 5.47701 3.88297 5.47131 3.45298 5.5652C3.02657 5.65831 2.51913 5.88251 2.21919 6.39629L2.21918 6.39631C1.97944 6.80698 1.96626 7.24729 2.03864 7.6152C2.10922 7.97391 2.26908 8.31662 2.45654 8.62631C2.83182 9.24632 3.43003 9.91574 4.15677 10.5919C5.62243 11.9554 7.78359 13.5044 10.2919 14.9368L10.292 14.9369C12.8008 16.3694 15.237 17.4458 17.1625 18.0191C18.1176 18.3035 19.0009 18.4806 19.7284 18.492C20.0918 18.4977 20.4682 18.4634 20.8133 18.346C21.1658 18.226 21.541 17.9981 21.7801 17.5892L21.7806 17.5883C22.0857 17.0652 22.0238 16.5047 21.886 16.0834C21.7475 15.6598 21.4927 15.2415 21.1944 14.8483C20.5926 14.0554 19.6614 13.1688 18.5272 12.2668C18.095 11.923 17.4659 11.9948 17.1221 12.427C16.7784 12.8593 16.8501 13.4884 17.2823 13.8321C18.3562 14.6861 19.1429 15.4535 19.6012 16.0574C19.7328 16.2308 19.8254 16.3754 19.8885 16.4911C19.8498 16.4925 19.8069 16.493 19.7597 16.4923C19.2948 16.485 18.6111 16.3637 17.7333 16.1023C15.9931 15.5842 13.6998 14.5796 11.2836 13.2001C8.86795 11.8205 6.84214 10.3585 5.51907 9.12757C4.85143 8.50644 4.40483 7.98274 4.16752 7.59067C4.14649 7.55593 4.12798 7.52364 4.11171 7.49376ZM3.8173 7.53707C3.81723 7.53703 3.81847 7.53642 3.82121 7.53535C3.81874 7.53658 3.81736 7.53711 3.8173 7.53707ZM20.0008 16.7657C20.0007 16.7656 20.0005 16.7643 20.0003 16.7619C20.0007 16.7645 20.0008 16.7657 20.0008 16.7657Z" fill="#1F2937"/>
<path fill-rule="evenodd" clip-rule="evenodd" d="M12 7C9.23858 7 7 9.23858 7 12C7 14.7614 9.23858 17 12 17C14.7614 17 17 14.7614 17 12C17 9.23858 14.7614 7 12 7ZM5 12C5 8.13401 8.13401 5 12 5C15.866 5 19 8.13401 19 12C19 15.866 15.866 19 12 19C8.13401 19 5 15.866 5 12Z" fill="#1F2937"/>
</svg>
