<svg width="24" height="24" viewBox="0 0 24 24" fill="none" xmlns="http://www.w3.org/2000/svg">
<g clip-path="url(#clip0)">
<path fill-rule="evenodd" clip-rule="evenodd" d="M9.59148 2.45176C9.83884 2.25869 10.1625 2.19292 10.4656 2.27414L13.3634 3.0506C13.71 3.14348 13.9803 3.41497 14.0716 3.76201L15.9759 10.9976L20.245 12.1415C21.0135 12.3474 21.6688 12.8502 22.0666 13.5393C22.4644 14.2283 22.5722 15.0472 22.3663 15.8157C22.1604 16.5843 21.6576 17.2395 20.9685 17.6373C20.2795 18.0352 19.4606 18.143 18.692 17.937L4.20316 14.0547C3.83729 13.9567 3.55822 13.6604 3.48228 13.2893L2.13742 6.71727C2.06794 6.37773 2.17922 6.02642 2.43152 5.78881C2.68382 5.55119 3.04117 5.46116 3.37593 5.55086L6.27371 6.32732C6.52989 6.39596 6.74831 6.56356 6.88092 6.79325L8.08802 8.88402L9.30515 9.21015L9.2069 3.25656C9.20172 2.94282 9.34412 2.64483 9.59148 2.45176ZM11.2285 4.54912L11.3267 10.5027C11.3319 10.8165 11.1895 11.1144 10.9422 11.3075C10.6948 11.5006 10.3712 11.5663 10.0681 11.4851L7.17029 10.7087C6.91411 10.64 6.69569 10.4724 6.56308 10.2427L5.35597 8.15197L4.4212 7.90149L5.31777 12.2828L19.2097 16.0052C19.4659 16.0738 19.7388 16.0379 19.9685 15.9053C20.1982 15.7727 20.3658 15.5543 20.4344 15.2981C20.5031 15.0419 20.4671 14.7689 20.3345 14.5393C20.2019 14.3096 19.9835 14.142 19.7273 14.0733L14.8977 12.7792C14.5511 12.6863 14.2808 12.4149 14.1894 12.0678L12.2852 4.83225L11.2285 4.54912Z" fill="#1F2937"/>
<path fill-rule="evenodd" clip-rule="evenodd" d="M2 21C2 20.4477 2.44772 20 3 20H21C21.5523 20 22 20.4477 22 21C22 21.5523 21.5523 22 21 22H3C2.44772 22 2 21.5523 2 21Z" fill="#1F2937"/>
</g>
<defs>
<clipPath id="clip0">
<rect width="24" height="24" fill="white"/>
</clipPath>
</defs>
</svg>
