<svg width="24" height="24" viewBox="0 0 24 24" fill="none" xmlns="http://www.w3.org/2000/svg">
<g clip-path="url(#clip0)">
<path fill-rule="evenodd" clip-rule="evenodd" d="M5.1387 4.9393C5.25639 4.64841 5.50379 4.42964 5.80689 4.34842L8.70467 3.57196C9.0513 3.47908 9.42112 3.57906 9.67374 3.83394L14.9407 9.14797L19.2097 8.00408C19.9783 7.79815 20.7971 7.90595 21.4862 8.30378C22.1752 8.7016 22.678 9.35686 22.884 10.1254C23.0899 10.8939 22.9821 11.7128 22.5843 12.4019C22.1864 13.0909 21.5312 13.5937 20.7626 13.7996L6.27376 17.6819C5.90789 17.78 5.51804 17.6629 5.26674 17.3795L0.816047 12.3604C0.586104 12.1011 0.506822 11.7412 0.606516 11.4092C0.70621 11.0773 0.970664 10.8207 1.30543 10.731L4.20321 9.95451C4.45939 9.88587 4.73234 9.92181 4.96203 10.0544L7.0528 11.2615L8.26992 10.9354L5.20805 5.82857C5.04669 5.55944 5.02102 5.23018 5.1387 4.9393ZM7.60508 5.93715L10.667 11.044C10.8283 11.3131 10.854 11.6424 10.7363 11.9332C10.6186 12.2241 10.3712 12.4429 10.0681 12.5241L7.17034 13.3006C6.91416 13.3692 6.6412 13.3333 6.41152 13.2007L4.32075 11.9936L3.38597 12.244L6.3531 15.5901L20.245 11.8678C20.5012 11.7991 20.7196 11.6315 20.8522 11.4019C20.9848 11.1722 21.0208 10.8992 20.9521 10.643C20.8835 10.3869 20.7159 10.1684 20.4862 10.0358C20.2565 9.90322 19.9835 9.86729 19.7274 9.93593L14.8977 11.23C14.5511 11.3229 14.1813 11.2229 13.9287 10.9681L8.66176 5.65401L7.60508 5.93715Z" fill="#1F2937"/>
<path fill-rule="evenodd" clip-rule="evenodd" d="M2 21C2 20.4477 2.44772 20 3 20H21C21.5523 20 22 20.4477 22 21C22 21.5523 21.5523 22 21 22H3C2.44772 22 2 21.5523 2 21Z" fill="#1F2937"/>
</g>
<defs>
<clipPath id="clip0">
<rect width="24" height="24" fill="white"/>
</clipPath>
</defs>
</svg>
