<svg width="24" height="24" viewBox="0 0 24 24" fill="none" xmlns="http://www.w3.org/2000/svg">
<path fill-rule="evenodd" clip-rule="evenodd" d="M6 7.00757C6 6.45528 6.44772 6.00757 7 6.00757H17C17.5523 6.00757 18 6.45528 18 7.00757V13.0076C18 14.0684 17.5786 15.0858 16.8284 15.836C16.0783 16.5861 15.0609 17.0076 14 17.0076H10C8.93913 17.0076 7.92172 16.5861 7.17157 15.836C6.42143 15.0859 6 14.0684 6 13.0076V7.00757ZM8 8.00757V13.0076C8 13.538 8.21071 14.0467 8.58579 14.4218C8.96086 14.7969 9.46957 15.0076 10 15.0076H14C14.5304 15.0076 15.0391 14.7969 15.4142 14.4218C15.7893 14.0467 16 13.538 16 13.0076V8.00757H8Z" fill="#1F2937"/>
<path fill-rule="evenodd" clip-rule="evenodd" d="M9 2C9.55228 2 10 2.44772 10 3V7C10 7.55228 9.55228 8 9 8C8.44772 8 8 7.55228 8 7V3C8 2.44772 8.44772 2 9 2Z" fill="#1F2937"/>
<path fill-rule="evenodd" clip-rule="evenodd" d="M15 2C15.5523 2 16 2.44772 16 3V7C16 7.55228 15.5523 8 15 8C14.4477 8 14 7.55228 14 7V3C14 2.44772 14.4477 2 15 2Z" fill="#1F2937"/>
<path fill-rule="evenodd" clip-rule="evenodd" d="M12 15.0076C12.5523 15.0076 13 15.4553 13 16.0076V18.0076C13 18.2728 13.1054 18.5271 13.2929 18.7147C13.4804 18.9022 13.7348 19.0076 14 19.0076H17C17.5523 19.0076 18 19.4553 18 20.0076C18 20.5599 17.5523 21.0076 17 21.0076H14C13.2043 21.0076 12.4413 20.6915 11.8787 20.1289C11.3161 19.5663 11 18.8032 11 18.0076V16.0076C11 15.4553 11.4477 15.0076 12 15.0076Z" fill="#1F2937"/>
</svg>
