<svg width="24" height="24" viewBox="0 0 24 24" fill="none" xmlns="http://www.w3.org/2000/svg">
<path fill-rule="evenodd" clip-rule="evenodd" d="M2 4.00745C2 3.45516 2.44772 3.00745 3 3.00745H21C21.5523 3.00745 22 3.45516 22 4.00745C22 4.55973 21.5523 5.00745 21 5.00745H3C2.44772 5.00745 2 4.55973 2 4.00745Z" fill="#1F2937"/>
<path fill-rule="evenodd" clip-rule="evenodd" d="M4 3.00745C4.55228 3.00745 5 3.45516 5 4.00745V14.0074C5 14.2727 5.10536 14.527 5.29289 14.7146C5.48043 14.9021 5.73478 15.0074 6 15.0074H18C18.2652 15.0074 18.5196 14.9021 18.7071 14.7146C18.8946 14.527 19 14.2727 19 14.0074V4.00745C19 3.45516 19.4477 3.00745 20 3.00745C20.5523 3.00745 21 3.45516 21 4.00745V14.0074C21 14.8031 20.6839 15.5662 20.1213 16.1288C19.5587 16.6914 18.7957 17.0074 18 17.0074H6C5.20435 17.0074 4.44129 16.6914 3.87868 16.1288C3.31607 15.5662 3 14.8031 3 14.0074V4.00745C3 3.45516 3.44772 3.00745 4 3.00745Z" fill="#1F2937"/>
<path fill-rule="evenodd" clip-rule="evenodd" d="M12 15.0074C12.5523 15.0074 13 15.4552 13 16.0074V20.0074C13 20.5597 12.5523 21.0074 12 21.0074C11.4477 21.0074 11 20.5597 11 20.0074V16.0074C11 15.4552 11.4477 15.0074 12 15.0074Z" fill="#1F2937"/>
<path fill-rule="evenodd" clip-rule="evenodd" d="M8 19.9926C8 19.4403 8.44772 18.9926 9 18.9926H15C15.5523 18.9926 16 19.4403 16 19.9926C16 20.5448 15.5523 20.9926 15 20.9926H9C8.44772 20.9926 8 20.5448 8 19.9926Z" fill="#1F2937"/>
<path fill-rule="evenodd" clip-rule="evenodd" d="M16.7071 7.28545C17.0976 7.67597 17.0976 8.30914 16.7071 8.69966L13.7071 11.6997C13.3166 12.0902 12.6834 12.0902 12.2929 11.6997L11 10.4068L8.70711 12.6997C8.31658 13.0902 7.68342 13.0902 7.29289 12.6997C6.90237 12.3091 6.90237 11.676 7.29289 11.2854L10.2929 8.28545C10.6834 7.89492 11.3166 7.89492 11.7071 8.28545L13 9.57834L15.2929 7.28545C15.6834 6.89492 16.3166 6.89492 16.7071 7.28545Z" fill="#1F2937"/>
</svg>
