<svg width="24" height="24" viewBox="0 0 24 24" fill="none" xmlns="http://www.w3.org/2000/svg">
<path fill-rule="evenodd" clip-rule="evenodd" d="M3 5.00745C3 3.90288 3.89543 3.00745 5 3.00745H9C10.1046 3.00745 11 3.90288 11 5.00745V9.00745C11 10.112 10.1046 11.0074 9 11.0074H5C3.89543 11.0074 3 10.112 3 9.00745V5.00745ZM9 5.00745H5V9.00745H9V5.00745Z" fill="#1F2937"/>
<path fill-rule="evenodd" clip-rule="evenodd" d="M7 15.9926C7.55228 15.9926 8 16.4403 8 16.9926V17.0026C8 17.5548 7.55228 18.0026 7 18.0026C6.44772 18.0026 6 17.5548 6 17.0026V16.9926C6 16.4403 6.44772 15.9926 7 15.9926Z" fill="#1F2937"/>
<path fill-rule="evenodd" clip-rule="evenodd" d="M13 5.00745C13 3.90288 13.8954 3.00745 15 3.00745H19C20.1046 3.00745 21 3.90288 21 5.00745V9.00745C21 10.112 20.1046 11.0074 19 11.0074H15C13.8954 11.0074 13 10.112 13 9.00745V5.00745ZM19 5.00745H15V9.00745H19V5.00745Z" fill="#1F2937"/>
<path fill-rule="evenodd" clip-rule="evenodd" d="M7 6.00745C7.55228 6.00745 8 6.45516 8 7.00745V7.01745C8 7.56973 7.55228 8.01745 7 8.01745C6.44772 8.01745 6 7.56973 6 7.01745V7.00745C6 6.45516 6.44772 6.00745 7 6.00745Z" fill="#1F2937"/>
<path fill-rule="evenodd" clip-rule="evenodd" d="M3 14.9926C3 13.888 3.89543 12.9926 5 12.9926H9C10.1046 12.9926 11 13.888 11 14.9926V18.9926C11 20.0971 10.1046 20.9926 9 20.9926H5C3.89543 20.9926 3 20.0971 3 18.9926V14.9926ZM9 14.9926H5V18.9926H9V14.9926Z" fill="#1F2937"/>
<path fill-rule="evenodd" clip-rule="evenodd" d="M17 6.00745C17.5523 6.00745 18 6.45516 18 7.00745V7.01745C18 7.56973 17.5523 8.01745 17 8.01745C16.4477 8.01745 16 7.56973 16 7.01745V7.00745C16 6.45516 16.4477 6.00745 17 6.00745Z" fill="#1F2937"/>
<path fill-rule="evenodd" clip-rule="evenodd" d="M13 13.9926C13 13.4403 13.4477 12.9926 14 12.9926H17C17.5523 12.9926 18 13.4403 18 13.9926C18 14.5448 17.5523 14.9926 17 14.9926H14C13.4477 14.9926 13 14.5448 13 13.9926Z" fill="#1F2937"/>
<path fill-rule="evenodd" clip-rule="evenodd" d="M20 12.9926C20.5523 12.9926 21 13.4403 21 13.9926V14.0026C21 14.5548 20.5523 15.0026 20 15.0026C19.4477 15.0026 19 14.5548 19 14.0026V13.9926C19 13.4403 19.4477 12.9926 20 12.9926Z" fill="#1F2937"/>
<path fill-rule="evenodd" clip-rule="evenodd" d="M14 12.9926C14.5523 12.9926 15 13.4403 15 13.9926V16.9926C15 17.5448 14.5523 17.9926 14 17.9926C13.4477 17.9926 13 17.5448 13 16.9926V13.9926C13 13.4403 13.4477 12.9926 14 12.9926Z" fill="#1F2937"/>
<path fill-rule="evenodd" clip-rule="evenodd" d="M13 19.9926C13 19.4403 13.4477 18.9926 14 18.9926H17C17.5523 18.9926 18 19.4403 18 19.9926C18 20.5448 17.5523 20.9926 17 20.9926H14C13.4477 20.9926 13 20.5448 13 19.9926Z" fill="#1F2937"/>
<path fill-rule="evenodd" clip-rule="evenodd" d="M16 16.9926C16 16.4403 16.4477 15.9926 17 15.9926H20C20.5523 15.9926 21 16.4403 21 16.9926C21 17.5448 20.5523 17.9926 20 17.9926H17C16.4477 17.9926 16 17.5448 16 16.9926Z" fill="#1F2937"/>
<path fill-rule="evenodd" clip-rule="evenodd" d="M20 15.9926C20.5523 15.9926 21 16.4403 21 16.9926V19.9926C21 20.5448 20.5523 20.9926 20 20.9926C19.4477 20.9926 19 20.5448 19 19.9926V16.9926C19 16.4403 19.4477 15.9926 20 15.9926Z" fill="#1F2937"/>
</svg>
