<svg width="24" height="24" viewBox="0 0 24 24" fill="none" xmlns="http://www.w3.org/2000/svg">
<path fill-rule="evenodd" clip-rule="evenodd" d="M10.7588 2.28963C11.1932 2.08877 11.6693 1.99473 12.1474 2.01536C12.6255 2.036 13.0917 2.1707 13.5071 2.40824C13.9225 2.64577 14.2751 2.97924 14.5354 3.3808C14.5447 3.3952 14.5537 3.40985 14.5623 3.42472L17.5623 8.62087L18.4283 8.12087C18.7786 7.91864 19.2162 7.94732 19.5371 8.19355C19.858 8.43977 19.9989 8.85504 19.8942 9.24572L19.1622 11.9778C19.0193 12.5112 18.4709 12.8278 17.9375 12.6849L15.2054 11.9528C14.8147 11.8481 14.5256 11.5184 14.4728 11.1174C14.42 10.7164 14.6139 10.3231 14.9642 10.1209L15.8302 9.62087L12.8453 4.45087C12.7598 4.32494 12.6467 4.2201 12.5144 4.14446C12.3759 4.06528 12.2205 4.02038 12.0611 4.0135C11.9018 4.00663 11.7431 4.03797 11.5983 4.10493C11.4682 4.16508 11.3528 4.25239 11.2596 4.36079L10.7041 5.27836C10.4181 5.75082 9.80327 5.90196 9.33081 5.61595C8.85835 5.32994 8.7072 4.71508 8.99321 4.24262L9.58424 3.26631C9.60444 3.23293 9.62658 3.20077 9.65055 3.16998C9.94447 2.79234 10.3245 2.49049 10.7588 2.28963ZM8.30397 7.40754C8.53365 7.54014 8.70125 7.75856 8.76989 8.01474L9.50194 10.7468C9.60662 11.1375 9.46566 11.5528 9.14478 11.799C8.8239 12.0452 8.38629 12.0739 8.03602 11.8716L7.16999 11.3716L4.18508 16.5417C4.11878 16.6787 4.08458 16.8291 4.08521 16.9815C4.08588 17.141 4.1247 17.298 4.19843 17.4395C4.27215 17.581 4.37865 17.7027 4.50902 17.7946C4.62615 17.8772 4.75949 17.9335 4.89995 17.96L5.97232 17.9823C6.52448 17.9937 6.96281 18.4506 6.95134 19.0028C6.93988 19.555 6.48297 19.9933 5.9308 19.9818L4.78978 19.9581C4.75077 19.9573 4.71185 19.9542 4.6732 19.9489C4.19919 19.8832 3.74778 19.705 3.35666 19.4293C2.96554 19.1535 2.64605 18.7882 2.42487 18.3639C2.20369 17.9395 2.08724 17.4684 2.08523 16.9899C2.08323 16.5113 2.19573 16.0393 2.41334 15.6131C2.42115 15.5978 2.42935 15.5827 2.43794 15.5678L5.43794 10.3716L4.57191 9.87164C4.22164 9.66941 4.02768 9.27609 4.08047 8.87509C4.13326 8.47409 4.42241 8.14437 4.81309 8.03969L7.54515 7.30764C7.80133 7.23899 8.07428 7.27493 8.30397 7.40754ZM19.7182 14.3813C20.2021 14.1151 20.8102 14.2916 21.0763 14.7756L21.6263 15.7756C21.6451 15.8098 21.6619 15.845 21.6766 15.8812C21.8567 16.3245 21.9281 16.8045 21.8849 17.2811C21.8417 17.7577 21.685 18.217 21.4281 18.6208C21.1712 19.0245 20.8214 19.3609 20.408 19.6019C19.9946 19.8429 19.5295 19.9815 19.0516 20.0062C19.0345 20.007 19.0173 20.0075 19.0001 20.0075H13.0001V21.0075C13.0001 21.412 12.7565 21.7766 12.3828 21.9314C12.0091 22.0861 11.579 22.0006 11.293 21.7146L9.29301 19.7146C8.90249 19.3241 8.90249 18.6909 9.29301 18.3004L11.293 16.3004C11.579 16.0144 12.0091 15.9288 12.3828 16.0836C12.7565 16.2384 13.0001 16.603 13.0001 17.0075V18.0075H18.9699C19.1217 17.9964 19.2691 17.9508 19.4008 17.8741C19.5386 17.7937 19.6552 17.6816 19.7408 17.547C19.8264 17.4124 19.8786 17.2593 19.8931 17.1005C19.906 16.9578 19.8881 16.8141 19.8408 16.6792L19.3239 15.7394C19.0577 15.2555 19.2343 14.6474 19.7182 14.3813Z" fill="#1F2937"/>
</svg>
