<svg width="24" height="24" viewBox="0 0 24 24" fill="none" xmlns="http://www.w3.org/2000/svg">
<path fill-rule="evenodd" clip-rule="evenodd" d="M4 3.00745C4.55228 3.00745 5 3.45516 5 4.00745V6.28031C5.67856 5.46993 6.4976 4.77855 7.42497 4.2428C9.15332 3.24431 11.162 2.84179 13.1416 3.09722C15.1213 3.35266 16.962 4.25189 18.3803 5.65639C19.7986 7.0609 20.7157 8.89276 20.9905 10.8698C21.0665 11.4168 20.6847 11.9219 20.1376 11.9979C19.5906 12.0739 19.0855 11.6921 19.0095 11.1451C18.7952 9.60257 18.0796 8.17332 16.973 7.07749C15.8664 5.98167 14.4302 5.28007 12.8857 5.08078C11.3412 4.88148 9.77393 5.19554 8.42544 5.97458C7.53816 6.48717 6.77797 7.18236 6.19115 8.00745H9C9.55228 8.00745 10 8.45516 10 9.00745C10 9.55973 9.55228 10.0074 9 10.0074H4.52237C4.50722 10.0078 4.49203 10.0078 4.47682 10.0074H4C3.44772 10.0074 3 9.55973 3 9.00745V4.00745C3 3.45516 3.44772 3.00745 4 3.00745Z" fill="#1F2937"/>
<path fill-rule="evenodd" clip-rule="evenodd" d="M3.86223 12.017C4.40926 11.9409 4.91434 12.3228 4.99036 12.8698C5.20473 14.4123 5.92031 15.8416 7.02689 16.9374C8.13346 18.0332 9.56963 18.7348 11.1142 18.9341C12.6587 19.1334 14.226 18.8194 15.5744 18.0403C16.4617 17.5277 17.2219 16.8325 17.8087 16.0074H14.9999C14.4476 16.0074 13.9999 15.5597 13.9999 15.0074C13.9999 14.4552 14.4476 14.0074 14.9999 14.0074H19.4775C19.4927 14.0071 19.5078 14.0071 19.5231 14.0074H19.9999C20.5522 14.0074 20.9999 14.4552 20.9999 15.0074V20.0074C20.9999 20.5597 20.5522 21.0074 19.9999 21.0074C19.4476 21.0074 18.9999 20.5597 18.9999 20.0074V17.7346C18.3213 18.545 17.5023 19.2363 16.5749 19.7721C14.8466 20.7706 12.8379 21.1731 10.8582 20.9177C8.87861 20.6622 7.03788 19.763 5.61959 18.3585C4.20131 16.954 3.28415 15.1221 3.0094 13.1451C2.93338 12.5981 3.3152 12.093 3.86223 12.017Z" fill="#1F2937"/>
</svg>
