<svg width="24" height="24" viewBox="0 0 24 24" fill="none" xmlns="http://www.w3.org/2000/svg">
<path fill-rule="evenodd" clip-rule="evenodd" d="M14.7549 5.52331C13.0391 4.79269 11.1034 4.77356 9.37356 5.47014C8.86125 5.67644 8.2787 5.42837 8.07241 4.91606C7.86611 4.40376 8.11418 3.82121 8.62648 3.61491C10.8484 2.72019 13.3347 2.74476 15.5384 3.68321C17.7422 4.62165 19.4829 6.39711 20.3776 8.61899C21.2724 10.8409 21.2478 13.3272 20.3093 15.5309C19.7301 16.8913 18.8319 18.0751 17.7066 18.9925H20C20.5523 18.9925 21 19.4402 21 19.9925C21 20.5448 20.5523 20.9925 20 20.9925H15C14.4477 20.9925 14 20.5448 14 19.9925V19.4658C13.9997 19.4505 13.9997 19.4352 14 19.4199V14.9925C14 14.4402 14.4477 13.9925 15 13.9925C15.5523 13.9925 16 14.4402 16 14.9925V17.7753C17.084 17.0254 17.9446 15.9793 18.4692 14.7474C19.1999 13.0316 19.219 11.0959 18.5224 9.36606C17.8258 7.63622 16.4706 6.25394 14.7549 5.52331Z" fill="#1F2937"/>
<path fill-rule="evenodd" clip-rule="evenodd" d="M6.30861 6.35461C6.74683 6.69074 6.82959 7.31847 6.49347 7.75669C6.15737 8.19493 5.52937 8.27808 5.09113 7.94198C4.65289 7.60588 4.57008 6.97816 4.90618 6.53991C5.24231 6.1017 5.87039 6.01848 6.30861 6.35461ZM4.24677 9.98106C4.79433 10.0532 5.17976 10.5555 5.10765 11.1031C5.03562 11.6506 4.53321 12.037 3.98565 11.965C3.43808 11.8929 3.05259 11.3906 3.12462 10.8431L3.12477 10.8419C3.19688 10.2944 3.69922 9.90895 4.24677 9.98106ZM4.2736 14.1531C4.78389 13.9418 5.36881 14.1842 5.58006 14.6945C5.79138 15.2048 5.54938 15.7906 5.03912 16.0019C4.52886 16.2132 3.94391 15.9708 3.73259 15.4606L3.73216 15.4595C3.5209 14.9492 3.76332 14.3643 4.2736 14.1531ZM6.38228 17.7531C6.71864 17.315 7.34642 17.2326 7.78446 17.569C8.22254 17.9053 8.30575 18.5336 7.96944 18.9717C7.63314 19.4097 7.00537 19.4922 6.56729 19.1559L6.56638 19.1552C6.12834 18.8189 6.04592 18.1911 6.38228 17.7531ZM10.0081 19.817C10.0805 19.2695 10.583 18.8843 11.1305 18.9566C11.6781 19.029 12.0637 19.5315 11.9914 20.079C11.9191 20.6266 11.4166 21.0118 10.869 20.9395C10.3215 20.8671 9.93575 20.3645 10.0081 19.817Z" fill="#1F2937"/>
</svg>
