<svg width="24" height="24" viewBox="0 0 24 24" fill="none" xmlns="http://www.w3.org/2000/svg">
<g clip-path="url(#clip0)">
<path fill-rule="evenodd" clip-rule="evenodd" d="M2.06206 7.05211C2.06206 6.49982 2.50977 6.05211 3.06206 6.05211L7.05014 6.05211C7.60242 6.05211 8.05014 6.49982 8.05014 7.05211V11.0402C8.05014 11.5925 7.60242 12.0402 7.05014 12.0402C6.49786 12.0402 6.05014 11.5925 6.05014 11.0402L6.05014 9.46632L4.22171 11.2947C4.03418 11.4823 3.92882 11.7366 3.92882 12.0019C3.92882 12.2671 4.03418 12.5214 4.22171 12.709L11.2928 19.78C11.4803 19.9676 11.7347 20.0729 11.9999 20.0729C12.2651 20.0729 12.5195 19.9676 12.707 19.78L19.7781 12.709C19.9656 12.5214 20.071 12.2671 20.071 12.0019C20.071 11.7366 19.9656 11.4823 19.7781 11.2947L12.707 4.22368C12.5195 4.03614 12.2651 3.93079 11.9999 3.93079C11.7347 3.93079 11.4803 4.03614 11.2928 4.22368L10.7978 4.71865C10.4073 5.10918 9.77412 5.10918 9.38359 4.71865C8.99307 4.32813 8.99307 3.69497 9.38359 3.30444L9.87857 2.80947C10.4412 2.24686 11.2042 1.93079 11.9999 1.93079C12.7955 1.93079 13.5586 2.24686 14.1212 2.80947L21.1923 9.88053C21.7549 10.4431 22.071 11.2062 22.071 12.0019C22.071 12.7975 21.7549 13.5606 21.1923 14.1232L14.1212 21.1942C13.5586 21.7569 12.7955 22.0729 11.9999 22.0729C11.2042 22.0729 10.4412 21.7569 9.87857 21.1942L2.8075 14.1232C2.24489 13.5606 1.92882 12.7975 1.92882 12.0019C1.92882 11.2062 2.24489 10.4431 2.8075 9.88053L4.63593 8.05211H3.06206C2.50977 8.05211 2.06206 7.60439 2.06206 7.05211Z" fill="#1F2937"/>
</g>
<defs>
<clipPath id="clip0">
<rect width="24" height="24" fill="white"/>
</clipPath>
</defs>
</svg>
