<svg width="24" height="24" viewBox="0 0 24 24" fill="none" xmlns="http://www.w3.org/2000/svg">
<path fill-rule="evenodd" clip-rule="evenodd" d="M11.9909 3.03129C14.1799 3.02475 16.2962 3.8162 17.9437 5.2575C19.5913 6.6988 20.657 8.69113 20.9415 10.8616C21.0133 11.4092 20.6276 11.9113 20.08 11.983C19.5324 12.0548 19.0303 11.6691 18.9585 11.1215C18.7372 9.43338 17.9083 7.88379 16.6269 6.76278C15.3455 5.64177 13.6994 5.02619 11.9969 5.03128C10.2944 5.03637 8.65206 5.66178 7.37739 6.79043C6.10271 7.91909 5.28307 9.47361 5.0719 11.163C4.86072 12.8524 5.27249 14.5609 6.23012 15.9685C7.18775 17.3762 8.62559 18.3867 10.2745 18.8107C11.9234 19.2347 13.6703 19.0432 15.1882 18.2721C16.2399 17.7379 17.1317 16.9507 17.7899 15.9915H14.95C14.3977 15.9915 13.95 15.5438 13.95 14.9915C13.95 14.4392 14.3977 13.9915 14.95 13.9915H19.4273C19.4426 13.9912 19.4579 13.9912 19.4733 13.9915H19.95C20.5023 13.9915 20.95 14.4392 20.95 14.9915V19.9915C20.95 20.5438 20.5023 20.9915 19.95 20.9915C19.3977 20.9915 18.95 20.5438 18.95 19.9915V17.7711C18.1705 18.7124 17.2012 19.4928 16.094 20.0553C14.1424 21.0467 11.8964 21.2928 9.77639 20.7477C7.65638 20.2025 5.80773 18.9034 4.57649 17.0935C3.34525 15.2836 2.81583 13.087 3.08734 10.9149C3.35885 8.74286 4.41267 6.74418 6.05154 5.29306C7.69041 3.84193 9.80196 3.03784 11.9909 3.03129Z" fill="#1F2937"/>
</svg>
