<svg width="24" height="24" viewBox="0 0 24 24" fill="none" xmlns="http://www.w3.org/2000/svg">
<path fill-rule="evenodd" clip-rule="evenodd" d="M12.003 5.03128C10.3005 5.02619 8.65443 5.64177 7.37303 6.76278C6.09163 7.88379 5.26271 9.43338 5.04144 11.1215C4.96966 11.6691 4.46755 12.0548 3.91995 11.983C3.37235 11.9113 2.98662 11.4092 3.0584 10.8616C3.34289 8.69114 4.40865 6.6988 6.05616 5.2575C7.70368 3.8162 9.82 3.02475 12.009 3.03129C14.1979 3.03784 16.3095 3.84193 17.9484 5.29306C19.5872 6.74418 20.6411 8.74286 20.9126 10.9149C21.1841 13.087 20.6547 15.2836 19.4234 17.0935C18.1922 18.9034 16.3435 20.2025 14.2235 20.7477C12.1035 21.2928 9.85749 21.0467 7.90588 20.0553C6.79872 19.4928 5.82938 18.7124 5.04992 17.7711V19.9915C5.04992 20.5438 4.6022 20.9915 4.04992 20.9915C3.49763 20.9915 3.04992 20.5438 3.04992 19.9915V14.9915C3.04992 14.4392 3.49763 13.9915 4.04992 13.9915H4.52663C4.54199 13.9912 4.55732 13.9912 4.57261 13.9915H9.04992C9.6022 13.9915 10.0499 14.4392 10.0499 14.9915C10.0499 15.5438 9.6022 15.9915 9.04992 15.9915H6.21002C6.86818 16.9507 7.76 17.7379 8.8117 18.2721C10.3296 19.0432 12.0765 19.2347 13.7254 18.8107C15.3743 18.3867 16.8122 17.3762 17.7698 15.9685C18.7274 14.5609 19.1392 12.8524 18.928 11.163C18.7168 9.47361 17.8972 7.91909 16.6225 6.79043C15.3478 5.66178 13.7055 5.03637 12.003 5.03128Z" fill="#1F2937"/>
</svg>
