<svg width="24" height="24" viewBox="0 0 24 24" fill="none" xmlns="http://www.w3.org/2000/svg">
<path fill-rule="evenodd" clip-rule="evenodd" d="M5 14.0076C4.44772 14.0076 4 14.4553 4 15.0076V19.0076C4 19.5599 4.44772 20.0076 5 20.0076H19C19.5523 20.0076 20 19.5599 20 19.0076V15.0076C20 14.4553 19.5523 14.0076 19 14.0076H5ZM2 15.0076C2 13.3507 3.34315 12.0076 5 12.0076H19C20.6569 12.0076 22 13.3507 22 15.0076V19.0076C22 20.6644 20.6569 22.0076 19 22.0076H5C3.34315 22.0076 2 20.6644 2 19.0076V15.0076Z" fill="#1F2937"/>
<path fill-rule="evenodd" clip-rule="evenodd" d="M17 15.9924C17.5523 15.9924 18 16.4401 18 16.9924V17.0024C18 17.5547 17.5523 18.0024 17 18.0024C16.4477 18.0024 16 17.5547 16 17.0024V16.9924C16 16.4401 16.4477 15.9924 17 15.9924Z" fill="#1F2937"/>
<path fill-rule="evenodd" clip-rule="evenodd" d="M13 15.9924C13.5523 15.9924 14 16.4401 14 16.9924V17.0024C14 17.5547 13.5523 18.0024 13 18.0024C12.4477 18.0024 12 17.5547 12 17.0024V16.9924C12 16.4401 12.4477 15.9924 13 15.9924Z" fill="#1F2937"/>
<path fill-rule="evenodd" clip-rule="evenodd" d="M15 9.99243C15.5523 9.99243 16 10.4401 16 10.9924V12.9924C16 13.5447 15.5523 13.9924 15 13.9924C14.4477 13.9924 14 13.5447 14 12.9924V10.9924C14 10.4401 14.4477 9.99243 15 9.99243Z" fill="#1F2937"/>
<path fill-rule="evenodd" clip-rule="evenodd" d="M15.0001 8.07812C14.5236 8.07812 14.054 8.1916 13.6302 8.40917C13.2063 8.62674 12.8403 8.94213 12.5626 9.32925C12.2406 9.77798 11.6158 9.88075 11.1671 9.55879C10.7184 9.23684 10.6156 8.61207 10.9376 8.16333C11.4005 7.51814 12.0104 6.99248 12.7169 6.62987C13.4233 6.26726 14.206 6.07812 15.0001 6.07812C15.7942 6.07812 16.5768 6.26726 17.2833 6.62987C17.9897 6.99248 18.5997 7.51814 19.0626 8.16333C19.3845 8.61207 19.2818 9.23684 18.833 9.55879C18.3843 9.88075 17.7595 9.77798 17.4376 9.32925C17.1598 8.94213 16.7939 8.62674 16.37 8.40917C15.9461 8.1916 15.4765 8.07812 15.0001 8.07812Z" fill="#1F2937"/>
<path fill-rule="evenodd" clip-rule="evenodd" d="M15.0001 4.16357C13.8884 4.16357 12.7926 4.42836 11.8036 4.93601C10.8146 5.44366 9.96066 6.17958 9.31258 7.08285C8.99062 7.53158 8.36585 7.63435 7.91711 7.31238C7.46838 6.99042 7.36562 6.36565 7.68758 5.91692C8.52083 4.75558 9.6187 3.8094 10.8903 3.15671C12.1619 2.50401 13.5707 2.16357 15.0001 2.16357C16.4294 2.16357 17.8382 2.50401 19.1098 3.15671C20.3814 3.8094 21.4793 4.75558 22.3126 5.91692C22.6345 6.36565 22.5318 6.99042 22.083 7.31238C21.6343 7.63435 21.0095 7.53158 20.6876 7.08285C20.0395 6.17958 19.1856 5.44366 18.1966 4.93601C17.2075 4.42836 16.1118 4.16357 15.0001 4.16357Z" fill="#1F2937"/>
</svg>
