<svg width="24" height="24" viewBox="0 0 24 24" fill="none" xmlns="http://www.w3.org/2000/svg">
<path fill-rule="evenodd" clip-rule="evenodd" d="M6 17.9924C5.44772 17.9924 5 18.4401 5 18.9924C5 19.5447 5.44772 19.9924 6 19.9924C6.55228 19.9924 7 19.5447 7 18.9924C7 18.4401 6.55228 17.9924 6 17.9924ZM3 18.9924C3 17.3356 4.34315 15.9924 6 15.9924C7.65685 15.9924 9 17.3356 9 18.9924C9 20.6493 7.65685 21.9924 6 21.9924C4.34315 21.9924 3 20.6493 3 18.9924Z" fill="#1F2937"/>
<path fill-rule="evenodd" clip-rule="evenodd" d="M18 4C17.4477 4 17 4.44772 17 5C17 5.55228 17.4477 6 18 6C18.5523 6 19 5.55228 19 5C19 4.44772 18.5523 4 18 4ZM15 5C15 3.34315 16.3431 2 18 2C19.6569 2 21 3.34315 21 5C21 6.65685 19.6569 8 18 8C16.3431 8 15 6.65685 15 5Z" fill="#1F2937"/>
<path fill-rule="evenodd" clip-rule="evenodd" d="M8.5 5.99243C7.83696 5.99243 7.20107 6.25582 6.73223 6.72466C6.26339 7.19351 6 7.82939 6 8.49243C6 9.15547 6.26339 9.79136 6.73223 10.2602C7.20107 10.729 7.83696 10.9924 8.5 10.9924H16.5C17.6935 10.9924 18.8381 11.4665 19.682 12.3105C20.5259 13.1544 21 14.299 21 15.4924C21 16.6859 20.5259 17.8305 19.682 18.6744C18.8381 19.5183 17.6935 19.9924 16.5 19.9924H12C11.4477 19.9924 11 19.5447 11 18.9924C11 18.4401 11.4477 17.9924 12 17.9924H16.5C17.163 17.9924 17.7989 17.729 18.2678 17.2602C18.7366 16.7914 19 16.1555 19 15.4924C19 14.8294 18.7366 14.1935 18.2678 13.7247C17.7989 13.2558 17.163 12.9924 16.5 12.9924H8.5C7.30653 12.9924 6.16193 12.5183 5.31802 11.6744C4.47411 10.8305 4 9.68591 4 8.49243C4 7.29896 4.47411 6.15436 5.31802 5.31045C6.16193 4.46654 7.30653 3.99243 8.5 3.99243H12C12.5523 3.99243 13 4.44015 13 4.99243C13 5.54472 12.5523 5.99243 12 5.99243H8.5Z" fill="#1F2937"/>
</svg>
