<svg width="24" height="24" viewBox="0 0 24 24" fill="none" xmlns="http://www.w3.org/2000/svg">
<path fill-rule="evenodd" clip-rule="evenodd" d="M3 19C3 17.8954 3.89543 17 5 17C6.10457 17 7 17.8954 7 19C7 20.1046 6.10457 21 5 21C3.89543 21 3 20.1046 3 19Z" fill="#1F2937"/>
<path fill-rule="evenodd" clip-rule="evenodd" d="M3 4.00757C3 3.45528 3.44772 3.00757 4 3.00757C8.50868 3.00757 12.8327 4.79864 16.0208 7.98675C19.2089 11.1749 21 15.4989 21 20.0076C21 20.5599 20.5523 21.0076 20 21.0076C19.4477 21.0076 19 20.5599 19 20.0076C19 16.0293 17.4196 12.214 14.6066 9.40097C11.7936 6.58792 7.97825 5.00757 4 5.00757C3.44772 5.00757 3 4.55985 3 4.00757Z" fill="#1F2937"/>
<path fill-rule="evenodd" clip-rule="evenodd" d="M3 10.9924C3 10.4401 3.44772 9.99243 4 9.99243C6.65216 9.99243 9.1957 11.046 11.0711 12.9214C12.9464 14.7967 14 17.3403 14 19.9924C14 20.5447 13.5523 20.9924 13 20.9924C12.4477 20.9924 12 20.5447 12 19.9924C12 17.8707 11.1571 15.8359 9.65685 14.3356C8.15656 12.8353 6.12173 11.9924 4 11.9924C3.44772 11.9924 3 11.5447 3 10.9924Z" fill="#1F2937"/>
</svg>
