<svg width="24" height="24" viewBox="0 0 24 24" fill="none" xmlns="http://www.w3.org/2000/svg">
<path fill-rule="evenodd" clip-rule="evenodd" d="M12 2C12.5523 2 13 2.44772 13 3V21C13 21.5523 12.5523 22 12 22C11.4477 22 11 21.5523 11 21V3C11 2.44772 11.4477 2 12 2Z" fill="#1F2937"/>
<path fill-rule="evenodd" clip-rule="evenodd" d="M8 21C8 20.4477 8.44772 20 9 20H15C15.5523 20 16 20.4477 16 21C16 21.5523 15.5523 22 15 22H9C8.44772 22 8 21.5523 8 21Z" fill="#1F2937"/>
<path fill-rule="evenodd" clip-rule="evenodd" d="M11.6836 4.04387C11.8888 3.97545 12.1107 3.97545 12.316 4.04387L17.9998 5.93846L20.6836 5.04387C21.2075 4.86922 21.7738 5.15238 21.9485 5.67633C22.1231 6.20027 21.84 6.76659 21.316 6.94124L18.316 7.94124C18.1107 8.00966 17.8888 8.00966 17.6836 7.94124L11.9998 6.04665L6.31601 7.94124C6.11074 8.00966 5.88882 8.00966 5.68356 7.94124L2.68356 6.94124C2.15961 6.76659 1.87645 6.20027 2.0511 5.67633C2.22575 5.15238 2.79207 4.86922 3.31601 5.04387L5.99978 5.93846L11.6836 4.04387Z" fill="#1F2937"/>
<path fill-rule="evenodd" clip-rule="evenodd" d="M6.00006 6.00745C6.43049 6.00745 6.81263 6.28288 6.94875 6.69122L9.94875 15.6912C10.0849 16.0996 9.94441 16.5492 9.60006 16.8074C8.56149 17.5864 7.29829 18.0074 6.00006 18.0074C4.70184 18.0074 3.43864 17.5864 2.40006 16.8074C2.05572 16.5492 1.91527 16.0996 2.05138 15.6912L5.05138 6.69122C5.1875 6.28288 5.56963 6.00745 6.00006 6.00745ZM4.19726 15.5781C4.75342 15.8589 5.37056 16.0074 6.00006 16.0074C6.62956 16.0074 7.24671 15.8589 7.80287 15.5781L6.00006 10.1697L4.19726 15.5781Z" fill="#1F2937"/>
<path fill-rule="evenodd" clip-rule="evenodd" d="M18.0001 6.00745C18.4305 6.00745 18.8126 6.28288 18.9487 6.69122L21.9487 15.6912C22.0849 16.0996 21.9444 16.5492 21.6001 16.8074C20.5615 17.5864 19.2983 18.0074 18.0001 18.0074C16.7018 18.0074 15.4386 17.5864 14.4001 16.8074C14.0557 16.5492 13.9153 16.0996 14.0514 15.6912L17.0514 6.69122C17.1875 6.28288 17.5696 6.00745 18.0001 6.00745ZM16.1973 15.5781C16.7534 15.8589 17.3706 16.0074 18.0001 16.0074C18.6296 16.0074 19.2467 15.8589 19.8029 15.5781L18.0001 10.1697L16.1973 15.5781Z" fill="#1F2937"/>
</svg>
