<svg width="24" height="24" viewBox="0 0 24 24" fill="none" xmlns="http://www.w3.org/2000/svg">
<path fill-rule="evenodd" clip-rule="evenodd" d="M6 5.00745C5.73478 5.00745 5.48043 5.1128 5.29289 5.30034C5.10536 5.48788 5 5.74223 5 6.00745V7.00745C5 7.55973 4.55228 8.00745 4 8.00745C3.44772 8.00745 3 7.55973 3 7.00745V6.00745C3 5.2118 3.31607 4.44874 3.87868 3.88613C4.44129 3.32352 5.20435 3.00745 6 3.00745H8C8.55228 3.00745 9 3.45516 9 4.00745C9 4.55973 8.55228 5.00745 8 5.00745H6Z" fill="#1F2937"/>
<path fill-rule="evenodd" clip-rule="evenodd" d="M4 15.9926C4.55228 15.9926 5 16.4403 5 16.9926V17.9926C5 18.2578 5.10536 18.5121 5.29289 18.6997C5.48043 18.8872 5.73478 18.9926 6 18.9926H8C8.55228 18.9926 9 19.4403 9 19.9926C9 20.5448 8.55228 20.9926 8 20.9926H6C5.20435 20.9926 4.44129 20.6765 3.87868 20.1139C3.31607 19.5513 3 18.7882 3 17.9926V16.9926C3 16.4403 3.44772 15.9926 4 15.9926Z" fill="#1F2937"/>
<path fill-rule="evenodd" clip-rule="evenodd" d="M15 4.00745C15 3.45516 15.4477 3.00745 16 3.00745H18C18.7956 3.00745 19.5587 3.32352 20.1213 3.88613C20.6839 4.44873 21 5.2118 21 6.00745V7.00745C21 7.55973 20.5523 8.00745 20 8.00745C19.4477 8.00745 19 7.55973 19 7.00745V6.00745C19 5.74223 18.8946 5.48788 18.7071 5.30034C18.5196 5.1128 18.2652 5.00745 18 5.00745H16C15.4477 5.00745 15 4.55973 15 4.00745Z" fill="#1F2937"/>
<path fill-rule="evenodd" clip-rule="evenodd" d="M20 15.9926C20.5523 15.9926 21 16.4403 21 16.9926V17.9926C21 18.7882 20.6839 19.5513 20.1213 20.1139C19.5587 20.6765 18.7957 20.9926 18 20.9926H16C15.4477 20.9926 15 20.5448 15 19.9926C15 19.4403 15.4477 18.9926 16 18.9926H18C18.2652 18.9926 18.5196 18.8872 18.7071 18.6997C18.8946 18.5121 19 18.2578 19 17.9926V16.9926C19 16.4403 19.4477 15.9926 20 15.9926Z" fill="#1F2937"/>
<path fill-rule="evenodd" clip-rule="evenodd" d="M4 12C4 11.4477 4.44772 11 5 11H19C19.5523 11 20 11.4477 20 12C20 12.5523 19.5523 13 19 13H5C4.44772 13 4 12.5523 4 12Z" fill="#1F2937"/>
</svg>
