<svg width="24" height="24" viewBox="0 0 24 24" fill="none" xmlns="http://www.w3.org/2000/svg">
<path fill-rule="evenodd" clip-rule="evenodd" d="M6 5.00745C4.89543 5.00745 4 5.90288 4 7.00745C4 8.11202 4.89543 9.00745 6 9.00745C7.10457 9.00745 8 8.11202 8 7.00745C8 5.90288 7.10457 5.00745 6 5.00745ZM2 7.00745C2 4.79831 3.79086 3.00745 6 3.00745C8.20914 3.00745 10 4.79831 10 7.00745C10 9.21659 8.20914 11.0074 6 11.0074C3.79086 11.0074 2 9.21659 2 7.00745Z" fill="#1F2937"/>
<path fill-rule="evenodd" clip-rule="evenodd" d="M6 14.9926C4.89543 14.9926 4 15.888 4 16.9926C4 18.0971 4.89543 18.9926 6 18.9926C7.10457 18.9926 8 18.0971 8 16.9926C8 15.888 7.10457 14.9926 6 14.9926ZM2 16.9926C2 14.7834 3.79086 12.9926 6 12.9926C8.20914 12.9926 10 14.7834 10 16.9926C10 19.2017 8.20914 20.9926 6 20.9926C3.79086 20.9926 2 19.2017 2 16.9926Z" fill="#1F2937"/>
<path fill-rule="evenodd" clip-rule="evenodd" d="M7.8925 7.89482C8.28303 7.5043 8.91619 7.5043 9.30672 7.89482L19.7067 18.2948C20.0972 18.6853 20.0972 19.3185 19.7067 19.709C19.3162 20.0996 18.683 20.0996 18.2925 19.709L7.8925 9.30904C7.50198 8.91851 7.50198 8.28535 7.8925 7.89482Z" fill="#1F2937"/>
<path fill-rule="evenodd" clip-rule="evenodd" d="M19.7067 4.28545C20.0972 4.67597 20.0972 5.30914 19.7067 5.69966L9.30672 16.0997C8.91619 16.4902 8.28303 16.4902 7.8925 16.0997C7.50198 15.7091 7.50198 15.076 7.8925 14.6854L18.2925 4.28545C18.683 3.89492 19.3162 3.89492 19.7067 4.28545Z" fill="#1F2937"/>
</svg>
