<svg width="24" height="24" viewBox="0 0 24 24" fill="none" xmlns="http://www.w3.org/2000/svg">
<path fill-rule="evenodd" clip-rule="evenodd" d="M6 5.00745C4.89543 5.00745 4 5.90288 4 7.00745V9.00745C4 10.112 4.89543 11.0074 6 11.0074H18C19.1046 11.0074 20 10.112 20 9.00745V7.00745C20 5.90288 19.1046 5.00745 18 5.00745H6ZM2 7.00745C2 4.79831 3.79086 3.00745 6 3.00745H18C20.2091 3.00745 22 4.79831 22 7.00745V9.00745C22 11.2166 20.2091 13.0074 18 13.0074H6C3.79086 13.0074 2 11.2166 2 9.00745V7.00745Z" fill="#1F2937"/>
<path fill-rule="evenodd" clip-rule="evenodd" d="M6 13C4.89543 13 4 13.8954 4 15V17C4 18.1046 4.89543 19 6 19H18C19.1046 19 20 18.1046 20 17V15C20 13.8954 19.1046 13 18 13H6ZM2 15C2 12.7909 3.79086 11 6 11H18C20.2091 11 22 12.7909 22 15V17C22 19.2091 20.2091 21 18 21H6C3.79086 21 2 19.2091 2 17V15Z" fill="#1F2937"/>
<path fill-rule="evenodd" clip-rule="evenodd" d="M7 6.99255C7.55228 6.99255 8 7.44027 8 7.99255V8.00255C8 8.55484 7.55228 9.00255 7 9.00255C6.44772 9.00255 6 8.55484 6 8.00255V7.99255C6 7.44027 6.44772 6.99255 7 6.99255Z" fill="#1F2937"/>
<path fill-rule="evenodd" clip-rule="evenodd" d="M7 15.0074C7.55228 15.0074 8 15.4552 8 16.0074V16.0174C8 16.5697 7.55228 17.0174 7 17.0174C6.44772 17.0174 6 16.5697 6 16.0174V16.0074C6 15.4552 6.44772 15.0074 7 15.0074Z" fill="#1F2937"/>
</svg>
