<svg width="24" height="24" viewBox="0 0 24 24" fill="none" xmlns="http://www.w3.org/2000/svg">
<path fill-rule="evenodd" clip-rule="evenodd" d="M4.73223 8.73223C5.20107 8.26339 5.83696 8 6.5 8H9C9.55228 8 10 8.44772 10 9C10 9.55228 9.55228 10 9 10H6.5C6.36739 10 6.24021 10.0527 6.14645 10.1464C6.05268 10.2402 6 10.3674 6 10.5C6 10.6326 6.05268 10.7598 6.14645 10.8536C6.24021 10.9473 6.36739 11 6.5 11H7.5C8.16304 11 8.79893 11.2634 9.26777 11.7322C9.73661 12.2011 10 12.837 10 13.5C10 14.163 9.73661 14.7989 9.26777 15.2678C8.79893 15.7366 8.16304 16 7.5 16H5C4.44772 16 4 15.5523 4 15C4 14.4477 4.44772 14 5 14H7.5C7.63261 14 7.75979 13.9473 7.85355 13.8536C7.94732 13.7598 8 13.6326 8 13.5C8 13.3674 7.94732 13.2402 7.85355 13.1464C7.75979 13.0527 7.63261 13 7.5 13H6.5C5.83696 13 5.20107 12.7366 4.73223 12.2678C4.26339 11.7989 4 11.163 4 10.5C4 9.83696 4.26339 9.20107 4.73223 8.73223Z" fill="#1F2937"/>
<path fill-rule="evenodd" clip-rule="evenodd" d="M12.6838 8.05126C13.0921 7.91514 13.5417 8.0556 13.8 8.39994L16 11.3333L18.2 8.39994C18.4583 8.0556 18.9079 7.91514 19.3162 8.05126C19.7246 8.18737 20 8.56951 20 8.99994V14.9999C20 15.5522 19.5523 15.9999 19 15.9999C18.4477 15.9999 18 15.5522 18 14.9999V11.9999L16.8 13.5999C16.6111 13.8517 16.3148 13.9999 16 13.9999C15.6852 13.9999 15.3889 13.8517 15.2 13.5999L14 11.9999V14.9999C14 15.5522 13.5523 15.9999 13 15.9999C12.4477 15.9999 12 15.5522 12 14.9999V8.99994C12 8.56951 12.2754 8.18737 12.6838 8.05126Z" fill="#1F2937"/>
</svg>
