<svg width="24" height="24" viewBox="0 0 24 24" fill="none" xmlns="http://www.w3.org/2000/svg">
<path fill-rule="evenodd" clip-rule="evenodd" d="M12.6721 2.25938C12.5982 2.19219 12.5164 2.13789 12.4296 2.09667C12.2936 2.03194 12.1467 1.99995 12.0001 2C11.8535 1.99995 11.7065 2.03194 11.5705 2.09667C11.4838 2.13789 11.4019 2.19219 11.328 2.25938C9.18809 4.1483 6.39751 5.13155 3.54579 5.00106C3.08562 4.98 2.67059 5.27602 2.54067 5.71798C2.04928 7.38958 1.89893 9.1429 2.09854 10.8738C2.29815 12.6046 2.84366 14.2777 3.70265 15.7936C4.56164 17.3094 5.71658 18.6371 7.09885 19.6978C8.48111 20.7585 10.0625 21.5305 11.749 21.968C11.9137 22.0107 12.0865 22.0107 12.2512 21.968C13.9377 21.5305 15.519 20.7585 16.9013 19.6978C18.2836 18.6371 19.4385 17.3094 20.2975 15.7936C21.1565 14.2777 21.702 12.6046 21.9016 10.8738C22.1012 9.1429 21.9509 7.38958 21.4595 5.71798C21.3296 5.27602 20.9145 4.98 20.4544 5.00106C17.6026 5.13155 14.8121 4.1483 12.6721 2.25938ZM12.0001 4.29725C9.78442 6.01038 7.07316 6.9626 4.27211 7.01065C4.00893 8.2015 3.94525 9.42961 4.08537 10.6446C4.25427 12.1092 4.71586 13.5249 5.4427 14.8075C6.16953 16.0902 7.14679 17.2136 8.3164 18.1112C9.41716 18.9558 10.6671 19.5841 12.0001 19.9637C13.333 19.5841 14.583 18.9558 15.6838 18.1112C16.8534 17.2136 17.8306 16.0902 18.5575 14.8075C19.2843 13.5249 19.7459 12.1092 19.9148 10.6446C20.0549 9.42961 19.9912 8.2015 19.728 7.01065C16.927 6.96259 14.2157 6.01038 12.0001 4.29725Z" fill="#1F2937"/>
<path fill-rule="evenodd" clip-rule="evenodd" d="M9.29289 9.30034C9.68342 8.90982 10.3166 8.90982 10.7071 9.30034L12 10.5932L13.2929 9.30034C13.6834 8.90982 14.3166 8.90982 14.7071 9.30034C15.0976 9.69086 15.0976 10.324 14.7071 10.7146L13.4142 12.0074L14.7071 13.3003C15.0976 13.6909 15.0976 14.324 14.7071 14.7146C14.3166 15.1051 13.6834 15.1051 13.2929 14.7146L12 13.4217L10.7071 14.7146C10.3166 15.1051 9.68342 15.1051 9.29289 14.7146C8.90237 14.324 8.90237 13.6909 9.29289 13.3003L10.5858 12.0074L9.29289 10.7146C8.90237 10.324 8.90237 9.69086 9.29289 9.30034Z" fill="#1F2937"/>
</svg>
