<svg width="24" height="24" viewBox="0 0 24 24" fill="none" xmlns="http://www.w3.org/2000/svg">
<path fill-rule="evenodd" clip-rule="evenodd" d="M9.58471 3.19621C9.84548 3.38416 10 3.68601 10 4.00745C10 4.53789 10.2107 5.04659 10.5858 5.42167C10.9609 5.79674 11.4696 6.00745 12 6.00745C12.5304 6.00745 13.0391 5.79674 13.4142 5.42167C13.7893 5.04659 14 4.53789 14 4.00745C14 3.68601 14.1545 3.38416 14.4153 3.19621C14.6761 3.00826 15.0113 2.95712 15.3162 3.05877L21.3162 5.05877C21.7246 5.19488 22 5.57702 22 6.00745V11.0075C22 11.5597 21.5523 12.0075 21 12.0075H19V19.0075C19 19.5379 18.7893 20.0466 18.4142 20.4217C18.0391 20.7967 17.5304 21.0075 17 21.0075H7C6.46957 21.0075 5.96086 20.7967 5.58579 20.4217C5.21071 20.0466 5 19.5379 5 19.0075V12.0075H3C2.44772 12.0075 2 11.5597 2 11.0075V6.00745C2 5.57702 2.27543 5.19488 2.68377 5.05877L8.68377 3.05877C8.98872 2.95712 9.32394 3.00826 9.58471 3.19621ZM4 6.72821V10.0075H6C6.55228 10.0075 7 10.4552 7 11.0075V19.0075H17V11.0075C17 10.4552 17.4477 10.0075 18 10.0075H20V6.72821L15.7782 5.32094C15.5818 5.88584 15.2594 6.40496 14.8284 6.83588C14.0783 7.58603 13.0609 8.00745 12 8.00745C10.9391 8.00745 9.92172 7.58603 9.17157 6.83588C8.74065 6.40496 8.4182 5.88584 8.2218 5.32094L4 6.72821Z" fill="#1F2937"/>
</svg>
