<svg width="24" height="24" viewBox="0 0 24 24" fill="none" xmlns="http://www.w3.org/2000/svg">
<path fill-rule="evenodd" clip-rule="evenodd" d="M17.2927 3.30034C17.6832 2.90982 18.3163 2.90982 18.7069 3.30034L21.7069 6.30033C21.8944 6.48787 21.9998 6.74222 21.9998 7.00744C21.9998 7.27266 21.8944 7.52701 21.7069 7.71455L16.414 13.0074L17.7069 14.3003C18.0865 14.6799 18.0986 15.2915 17.7344 15.6859C15.8677 17.7072 13.481 19.1762 10.8354 19.9321C8.19565 20.6863 5.39966 20.7016 2.75203 19.9764C2.66362 19.9539 2.57769 19.9191 2.49694 19.8721C2.39047 19.8103 2.29805 19.7301 2.22273 19.637C2.13131 19.5245 2.06801 19.3967 2.03281 19.263C1.99737 19.1294 1.98926 18.9871 2.01312 18.844C2.03257 18.726 2.07327 18.6107 2.1352 18.5044C2.1821 18.4237 2.23953 18.351 2.30517 18.2878L17.2927 3.30034ZM5.02269 18.3987C6.77905 18.6292 8.57057 18.4992 10.286 18.0091C12.2702 17.4421 14.0865 16.4123 15.588 15.0099L14.2927 13.7145C14.1051 13.527 13.9998 13.2726 13.9998 13.0074C13.9998 12.7422 14.1051 12.4879 14.2927 12.3003L19.5855 7.00744L17.9998 5.42166L5.02269 18.3987Z" fill="#1F2937"/>
</svg>
