<svg width="24" height="24" viewBox="0 0 24 24" fill="none" xmlns="http://www.w3.org/2000/svg">
<path fill-rule="evenodd" clip-rule="evenodd" d="M12.0001 0.992554C12.5524 0.992554 13.0001 1.44027 13.0001 1.99255V2.99255H14.0001C14.4639 2.99255 14.8668 3.31143 14.9733 3.7628C15.0799 4.21417 14.8621 4.67957 14.4473 4.88698L13.0001 5.61059V7.91319L15.4975 9.34502C15.9766 9.61972 16.1423 10.2308 15.8676 10.7099C15.5929 11.1891 14.9818 11.3548 14.5027 11.0801L11.5027 9.36008C11.1918 9.18185 11.0001 8.8509 11.0001 8.49255V5.61059L9.55288 4.88698C9.13807 4.67957 8.92029 4.21417 9.02685 3.7628C9.1334 3.31143 9.53632 2.99255 10.0001 2.99255H11.0001V1.99255C11.0001 1.44027 11.4478 0.992554 12.0001 0.992554Z" fill="#1F2937"/>
<path fill-rule="evenodd" clip-rule="evenodd" d="M21.5264 6.50563C21.8026 6.98393 21.6387 7.59552 21.1604 7.87166L20.2944 8.37166L20.7944 9.23769C21.0263 9.63933 20.9516 10.1477 20.6139 10.4657C20.2763 10.7836 19.7644 10.8277 19.3773 10.5722L18.0271 9.68068L16.033 10.832L16.0417 13.7107C16.0433 14.263 15.597 14.7121 15.0447 14.7137C14.4924 14.7154 14.0433 14.269 14.0417 13.7167L14.0312 10.2587C14.0301 9.90032 14.2209 9.56879 14.5312 9.38962L17.0271 7.94863L16.9301 6.3335C16.9023 5.87055 17.1965 5.44926 17.6407 5.31585C18.0849 5.18244 18.5625 5.37194 18.7944 5.77358L19.2944 6.63961L20.1604 6.13961C20.6387 5.86347 21.2503 6.02734 21.5264 6.50563Z" fill="#1F2937"/>
<path fill-rule="evenodd" clip-rule="evenodd" d="M21.5263 17.5131C21.2502 17.9914 20.6386 18.1552 20.1603 17.8791L19.2943 17.3791L18.7943 18.2451C18.5624 18.6468 18.0848 18.8363 17.6406 18.7029C17.1964 18.5695 16.9023 18.1482 16.93 17.6852L17.027 16.0701L15.0329 14.9188L12.5442 16.3657C12.0667 16.6433 11.4546 16.4812 11.1771 16.0038C10.8995 15.5263 11.0615 14.9142 11.539 14.6366L14.5285 12.8986C14.8383 12.7185 15.2208 12.7179 15.5311 12.8971L18.027 14.338L19.3773 13.4465C19.7643 13.191 20.2762 13.2351 20.6138 13.553C20.9515 13.871 21.0262 14.3794 20.7943 14.781L20.2943 15.6471L21.1603 16.1471C21.6386 16.4232 21.8025 17.0348 21.5263 17.5131Z" fill="#1F2937"/>
<path fill-rule="evenodd" clip-rule="evenodd" d="M11.9999 23.0074C11.4476 23.0074 10.9999 22.5597 10.9999 22.0074V21.0074H9.9999C9.53612 21.0074 9.13321 20.6886 9.02665 20.2372C8.9201 19.7858 9.13787 19.3204 9.55269 19.113L10.9999 18.3894V16.0868L8.50252 14.655C8.02339 14.3803 7.85767 13.7692 8.13237 13.2901C8.40707 12.8109 9.01816 12.6452 9.49729 12.9199L12.4973 14.6399C12.8082 14.8181 12.9999 15.1491 12.9999 15.5074V18.3894L14.4471 19.113C14.8619 19.3204 15.0797 19.7858 14.9732 20.2372C14.8666 20.6886 14.4637 21.0074 13.9999 21.0074H12.9999V22.0074C12.9999 22.5597 12.5522 23.0074 11.9999 23.0074Z" fill="#1F2937"/>
<path fill-rule="evenodd" clip-rule="evenodd" d="M2.47358 17.4944C2.19744 17.0161 2.36132 16.4045 2.83961 16.1283L3.70563 15.6283L3.20563 14.7623C2.97375 14.3607 3.04844 13.8523 3.38606 13.5343C3.72368 13.2164 4.23562 13.1723 4.62265 13.4278L5.97292 14.3193L7.96703 13.168L7.95834 10.2893C7.95667 9.73704 8.40304 9.28797 8.95532 9.28631C9.5076 9.28464 9.95667 9.731 9.95833 10.2833L9.96877 13.7414C9.96985 14.0997 9.77911 14.4312 9.46877 14.6104L6.97292 16.0514L7.06986 17.6665C7.09765 18.1294 6.80349 18.5507 6.35931 18.6842C5.91514 18.8176 5.43752 18.6281 5.20563 18.2264L4.70563 17.3604L3.83961 17.8604C3.36132 18.1365 2.74973 17.9727 2.47358 17.4944Z" fill="#1F2937"/>
<path fill-rule="evenodd" clip-rule="evenodd" d="M2.47368 6.48692C2.74982 6.00863 3.36141 5.84476 3.83971 6.1209L4.70573 6.6209L5.20573 5.75487C5.43762 5.35323 5.91524 5.16373 6.35941 5.29714C6.80359 5.43055 7.09775 5.85184 7.06996 6.31479L6.97302 7.92991L8.96713 9.08121L11.4558 7.63433C11.9333 7.35675 12.5454 7.51878 12.8229 7.99623C13.1005 8.47369 12.9385 9.08577 12.461 9.36336L9.47148 11.1014C9.16169 11.2815 8.77921 11.2821 8.46887 11.1029L5.97302 9.66196L4.62275 10.5535C4.23572 10.809 3.72378 10.7649 3.38616 10.447C3.04854 10.129 2.97384 9.62062 3.20573 9.21897L3.70573 8.35295L2.83971 7.85295C2.36141 7.57681 2.19754 6.96522 2.47368 6.48692Z" fill="#1F2937"/>
</svg>
