<svg width="24" height="24" viewBox="0 0 24 24" fill="none" xmlns="http://www.w3.org/2000/svg">
<path fill-rule="evenodd" clip-rule="evenodd" d="M12 4C11.4477 4 11 4.44772 11 5C11 5.55228 11.4477 6 12 6C12.5523 6 13 5.55228 13 5C13 4.44772 12.5523 4 12 4ZM9 5C9 3.34315 10.3431 2 12 2C13.6569 2 15 3.34315 15 5C15 6.65685 13.6569 8 12 8C10.3431 8 9 6.65685 9 5Z" fill="#1F2937"/>
<path fill-rule="evenodd" clip-rule="evenodd" d="M5 17.9924C4.44772 17.9924 4 18.4401 4 18.9924C4 19.5447 4.44772 19.9924 5 19.9924C5.55228 19.9924 6 19.5447 6 18.9924C6 18.4401 5.55228 17.9924 5 17.9924ZM2 18.9924C2 17.3356 3.34315 15.9924 5 15.9924C6.65685 15.9924 8 17.3356 8 18.9924C8 20.6493 6.65685 21.9924 5 21.9924C3.34315 21.9924 2 20.6493 2 18.9924Z" fill="#1F2937"/>
<path fill-rule="evenodd" clip-rule="evenodd" d="M19 17.9924C18.4477 17.9924 18 18.4401 18 18.9924C18 19.5447 18.4477 19.9924 19 19.9924C19.5523 19.9924 20 19.5447 20 18.9924C20 18.4401 19.5523 17.9924 19 17.9924ZM16 18.9924C16 17.3356 17.3431 15.9924 19 15.9924C20.6569 15.9924 22 17.3356 22 18.9924C22 20.6493 20.6569 21.9924 19 21.9924C17.3431 21.9924 16 20.6493 16 18.9924Z" fill="#1F2937"/>
<path fill-rule="evenodd" clip-rule="evenodd" d="M12 11.9924C10.8954 11.9924 10 12.8879 10 13.9924C10 15.097 10.8954 15.9924 12 15.9924C13.1046 15.9924 14 15.097 14 13.9924C14 12.8879 13.1046 11.9924 12 11.9924ZM8 13.9924C8 11.7833 9.79086 9.99243 12 9.99243C14.2091 9.99243 16 11.7833 16 13.9924C16 16.2016 14.2091 17.9924 12 17.9924C9.79086 17.9924 8 16.2016 8 13.9924Z" fill="#1F2937"/>
<path fill-rule="evenodd" clip-rule="evenodd" d="M12 6.00757C12.5523 6.00757 13 6.45528 13 7.00757V11.0076C13 11.5599 12.5523 12.0076 12 12.0076C11.4477 12.0076 11 11.5599 11 11.0076V7.00757C11 6.45528 11.4477 6.00757 12 6.00757Z" fill="#1F2937"/>
<path fill-rule="evenodd" clip-rule="evenodd" d="M10.3138 15.216C10.6348 15.6654 10.5307 16.2899 10.0813 16.6109L7.28126 18.6109C6.83185 18.9319 6.2073 18.8278 5.88629 18.3784C5.56529 17.929 5.66938 17.3044 6.1188 16.9834L8.9188 14.9835C9.36821 14.6625 9.99276 14.7665 10.3138 15.216Z" fill="#1F2937"/>
<path fill-rule="evenodd" clip-rule="evenodd" d="M13.6863 15.216C14.0073 14.7665 14.6319 14.6625 15.0813 14.9835L17.8813 16.9834C18.3307 17.3044 18.4348 17.929 18.1138 18.3784C17.7928 18.8278 17.1683 18.9319 16.7188 18.6109L13.9188 16.6109C13.4694 16.2899 13.3653 15.6654 13.6863 15.216Z" fill="#1F2937"/>
</svg>
