<svg width="24" height="24" viewBox="0 0 24 24" fill="none" xmlns="http://www.w3.org/2000/svg">
<path fill-rule="evenodd" clip-rule="evenodd" d="M6 5.00745C5.44772 5.00745 5 5.45516 5 6.00745V18.0074C5 18.5597 5.44772 19.0074 6 19.0074H18C18.5523 19.0074 19 18.5597 19 18.0074V6.00745C19 5.45516 18.5523 5.00745 18 5.00745H6ZM3 6.00745C3 4.35059 4.34315 3.00745 6 3.00745H18C19.6569 3.00745 21 4.35059 21 6.00745V18.0074C21 19.6643 19.6569 21.0074 18 21.0074H6C4.34315 21.0074 3 19.6643 3 18.0074V6.00745Z" fill="#1F2937"/>
<path fill-rule="evenodd" clip-rule="evenodd" d="M15.7071 9.30034C16.0976 9.69086 16.0976 10.324 15.7071 10.7146L11.7071 14.7146C11.3166 15.1051 10.6834 15.1051 10.2929 14.7146L8.29289 12.7146C7.90237 12.324 7.90237 11.6909 8.29289 11.3003C8.68342 10.9098 9.31658 10.9098 9.70711 11.3003L11 12.5932L14.2929 9.30034C14.6834 8.90982 15.3166 8.90982 15.7071 9.30034Z" fill="#1F2937"/>
</svg>
