<svg width="24" height="24" viewBox="0 0 24 24" fill="none" xmlns="http://www.w3.org/2000/svg">
<path fill-rule="evenodd" clip-rule="evenodd" d="M11.5528 3.11302C11.8343 2.97226 12.1657 2.97226 12.4472 3.11302L20.4472 7.11302C20.786 7.28241 21 7.62867 21 8.00745C21 8.38622 20.786 8.73248 20.4472 8.90187L12.4472 12.9019C12.1657 13.0426 11.8343 13.0426 11.5528 12.9019L3.55279 8.90187C3.214 8.73248 3 8.38622 3 8.00745C3 7.62867 3.214 7.28241 3.55279 7.11302L11.5528 3.11302ZM6.23607 8.00745L12 10.8894L17.7639 8.00745L12 5.12548L6.23607 8.00745Z" fill="#1F2937"/>
<path fill-rule="evenodd" clip-rule="evenodd" d="M3.10579 11.5528C3.35278 11.0588 3.95345 10.8586 4.44743 11.1055L12.0002 14.8819L19.553 11.1055C20.047 10.8586 20.6477 11.0588 20.8946 11.5528C21.1416 12.0467 20.9414 12.6474 20.4474 12.8944L12.4474 16.8944C12.1659 17.0352 11.8345 17.0352 11.553 16.8944L3.55301 12.8944C3.05903 12.6474 2.8588 12.0467 3.10579 11.5528Z" fill="#1F2937"/>
<path fill-rule="evenodd" clip-rule="evenodd" d="M3.10579 15.5603C3.35278 15.0664 3.95345 14.8661 4.44743 15.1131L12.0002 18.8895L19.553 15.1131C20.047 14.8661 20.6477 15.0664 20.8946 15.5603C21.1416 16.0543 20.9414 16.655 20.4474 16.902L12.4474 20.902C12.1659 21.0427 11.8345 21.0427 11.553 20.902L3.55301 16.902C3.05903 16.655 2.8588 16.0543 3.10579 15.5603Z" fill="#1F2937"/>
</svg>
