<svg width="24" height="24" viewBox="0 0 24 24" fill="none" xmlns="http://www.w3.org/2000/svg">
<path fill-rule="evenodd" clip-rule="evenodd" d="M11.7329 3.04375C12.0801 2.94759 12.4522 3.04561 12.707 3.30036L20.707 11.3004C20.9617 11.5551 21.0598 11.9272 20.9636 12.2744C20.8674 12.6216 20.5919 12.8903 20.2424 12.9776L18.2424 13.4776C18.1914 13.4904 18.1394 13.4991 18.087 13.5037C17.0688 13.5928 16.0433 13.4577 15.0828 13.1081C14.1223 12.7585 13.2501 12.2028 12.5273 11.4801C11.8045 10.7573 11.2488 9.88501 10.8992 8.92451C10.5496 7.96401 10.4146 6.9386 10.5037 5.92034C10.5083 5.86793 10.517 5.81597 10.5297 5.76494L11.0297 3.76493C11.1171 3.41542 11.3857 3.13992 11.7329 3.04375ZM12.5417 5.96347L12.4901 6.16983C12.4393 6.87237 12.5375 7.57802 12.7786 8.24045C13.0283 8.92652 13.4253 9.54958 13.9415 10.0658C14.4578 10.5821 15.0808 10.979 15.7669 11.2288C16.4293 11.4699 17.135 11.5681 17.8375 11.5173L18.0439 11.4657L12.5417 5.96347Z" fill="#1F2937"/>
<path fill-rule="evenodd" clip-rule="evenodd" d="M12 5.00745C10.6155 5.00745 9.26216 5.41799 8.11101 6.18716C6.95987 6.95633 6.06266 8.04958 5.53285 9.32866C5.00303 10.6077 4.86441 12.0152 5.13451 13.3731C5.4046 14.7309 6.07129 15.9782 7.05026 16.9572C8.02922 17.9362 9.2765 18.6028 10.6344 18.8729C11.9922 19.143 13.3997 19.0044 14.6788 18.4746C15.9579 17.9448 17.0511 17.0476 17.8203 15.8964C18.5895 14.7453 19 13.3919 19 12.0074C19 11.4552 19.4477 11.0074 20 11.0074C20.5523 11.0074 21 11.4552 21 12.0074C21 13.7875 20.4722 15.5275 19.4832 17.0076C18.4943 18.4876 17.0887 19.6412 15.4442 20.3224C13.7996 21.0036 11.99 21.1818 10.2442 20.8345C8.49836 20.4872 6.89472 19.6301 5.63604 18.3714C4.37737 17.1127 3.5202 15.5091 3.17294 13.7633C2.82567 12.0174 3.0039 10.2078 3.68509 8.5633C4.36628 6.91876 5.51983 5.51315 6.99987 4.52422C8.47991 3.53529 10.22 3.00745 12 3.00745C12.5523 3.00745 13 3.45516 13 4.00745C13 4.55973 12.5523 5.00745 12 5.00745Z" fill="#1F2937"/>
</svg>
