<svg width="24" height="24" viewBox="0 0 24 24" fill="none" xmlns="http://www.w3.org/2000/svg">
<path fill-rule="evenodd" clip-rule="evenodd" d="M4.37534 6.22661C4.8066 5.8816 5.4359 5.95153 5.78091 6.38279L9.00004 10.4067L12.2192 6.38279C12.5642 5.95153 13.1935 5.8816 13.6247 6.22661C14.056 6.57162 14.1259 7.20092 13.7809 7.63218L10.2807 12.0075L13.7809 16.3828C14.1259 16.8141 14.056 17.4433 13.6247 17.7884C13.1935 18.1334 12.5642 18.0634 12.2192 17.6322L9.00004 13.6083L5.78091 17.6322C5.4359 18.0634 4.8066 18.1334 4.37534 17.7884C3.94408 17.4433 3.87416 16.8141 4.21917 16.3828L7.71941 12.0075L4.21917 7.63218C3.87416 7.20092 3.94408 6.57162 4.37534 6.22661Z" fill="#1F2937"/>
<path fill-rule="evenodd" clip-rule="evenodd" d="M17.9567 12.0907C18.3388 11.9865 18.7376 11.9586 19.1305 12.0085C19.5233 12.0585 19.9025 12.1853 20.2463 12.3818C20.5901 12.5782 20.8919 12.8405 21.1344 13.1536C21.3769 13.4667 21.5553 13.8245 21.6595 14.2066C21.7637 14.5886 21.7916 14.9875 21.7417 15.3803C21.6917 15.7731 21.5649 16.1523 21.3684 16.4961C21.3354 16.554 21.2966 16.6084 21.2527 16.6585L19.2039 19H21.0002C21.5525 19 22.0002 19.4477 22.0002 20C22.0002 20.5523 21.5525 21 21.0002 21H17.0002C16.6078 21 16.2517 20.7705 16.0895 20.4132C15.9274 20.0559 15.9892 19.6368 16.2476 19.3415L19.6703 15.4299C19.7148 15.3346 19.7443 15.2328 19.7576 15.1281C19.7744 14.9958 19.765 14.8615 19.73 14.7328C19.6949 14.6041 19.6348 14.4836 19.5531 14.3782C19.4715 14.2727 19.3698 14.1844 19.254 14.1182C19.1382 14.0521 19.0105 14.0094 18.8782 13.9925C18.7459 13.9757 18.6116 13.9851 18.483 14.0202C18.3543 14.0553 18.2338 14.1154 18.1284 14.1971C18.0229 14.2787 17.9346 14.3803 17.8684 14.4961C17.5944 14.9757 16.9836 15.1423 16.504 14.8682C16.0245 14.5942 15.8579 13.9834 16.1319 13.5039C16.3284 13.16 16.5907 12.8583 16.9038 12.6158C17.2169 12.3733 17.5747 12.1949 17.9567 12.0907Z" fill="#1F2937"/>
</svg>
