<svg width="24" height="24" viewBox="0 0 24 24" fill="none" xmlns="http://www.w3.org/2000/svg">
<path fill-rule="evenodd" clip-rule="evenodd" d="M5.0915 4.57464C5.25469 4.21983 5.60948 3.99249 6.00001 3.99249H17C17.5304 3.99249 18.0392 4.20321 18.4142 4.57828C18.7893 4.95335 19 5.46206 19 5.99249V7.99249C19 8.54478 18.5523 8.99249 18 8.99249C17.4477 8.99249 17 8.54478 17 7.99249L17 5.99249L8.17423 5.99249L12.7593 11.3417C13.0803 11.7162 13.0803 12.2688 12.7593 12.6433L8.17423 17.9925H17V15.9925C17 15.4402 17.4477 14.9925 18 14.9925C18.5523 14.9925 19 15.4402 19 15.9925V17.9925C19 18.5229 18.7893 19.0316 18.4142 19.4067C18.0392 19.7818 17.5304 19.9925 17 19.9925H6.00001C5.60948 19.9925 5.25469 19.7652 5.0915 19.4103C4.92832 19.0555 4.9866 18.6382 5.24076 18.3417L10.6829 11.9925L5.24076 5.64328C4.9866 5.34677 4.92832 4.92944 5.0915 4.57464Z" fill="#1F2937"/>
</svg>
