<svg width="24" height="24" viewBox="0 0 24 24" fill="none" xmlns="http://www.w3.org/2000/svg">
<path fill-rule="evenodd" clip-rule="evenodd" d="M4.37534 6.22661C4.8066 5.8816 5.4359 5.95153 5.78091 6.38279L9.00004 10.4067L12.2192 6.38279C12.5642 5.95153 13.1935 5.8816 13.6247 6.22661C14.056 6.57162 14.1259 7.20092 13.7809 7.63218L10.2807 12.0075L13.7809 16.3828C14.1259 16.8141 14.056 17.4433 13.6247 17.7884C13.1935 18.1334 12.5642 18.0634 12.2192 17.6322L9.00004 13.6083L5.78091 17.6322C5.4359 18.0634 4.8066 18.1334 4.37534 17.7884C3.94408 17.4433 3.87416 16.8141 4.21917 16.3828L7.71941 12.0075L4.21917 7.63218C3.87416 7.20092 3.94408 6.57162 4.37534 6.22661Z" fill="#1F2937"/>
<path fill-rule="evenodd" clip-rule="evenodd" d="M17.9567 3.0907C18.7283 2.88027 19.5519 2.98496 20.2463 3.38176C20.5901 3.57824 20.8919 3.84051 21.1344 4.15361C21.3769 4.46671 21.5553 4.8245 21.6595 5.20656C21.7637 5.58862 21.7916 5.98745 21.7417 6.3803C21.6917 6.77314 21.5649 7.15231 21.3684 7.49614C21.3354 7.55398 21.2966 7.60837 21.2527 7.65851L19.2039 10H21.0002C21.5525 10 22.0002 10.4477 22.0002 11C22.0002 11.5523 21.5525 12 21.0002 12H17.0002C16.6078 12 16.2517 11.7705 16.0895 11.4132C15.9274 11.0559 15.9892 10.6368 16.2476 10.3415L19.6703 6.42986C19.7148 6.33456 19.7443 6.23276 19.7576 6.12808C19.7744 5.99577 19.765 5.86146 19.73 5.73279C19.6949 5.60413 19.6348 5.48363 19.5531 5.37819C19.4715 5.27275 19.3698 5.18442 19.254 5.11825C19.0202 4.98462 18.7428 4.94936 18.483 5.02023C18.2231 5.0911 18.002 5.26229 17.8684 5.49615C17.5944 5.97566 16.9835 6.14226 16.504 5.86825C16.0245 5.59424 15.8579 4.98338 16.1319 4.50387C16.5287 3.80947 17.1851 3.30114 17.9567 3.0907Z" fill="#1F2937"/>
</svg>
