<svg width="24" height="24" viewBox="0 0 24 24" fill="none" xmlns="http://www.w3.org/2000/svg">
<path fill-rule="evenodd" clip-rule="evenodd" d="M14 4.00745C14 3.45516 14.4477 3.00745 15 3.00745H19C19.5523 3.00745 20 3.45516 20 4.00745V8.00745C20 8.55973 19.5523 9.00745 19 9.00745C18.4477 9.00745 18 8.55973 18 8.00745V5.00745H15C14.4477 5.00745 14 4.55973 14 4.00745Z" fill="#1F2937"/>
<path fill-rule="evenodd" clip-rule="evenodd" d="M19.6292 3.23023C20.0585 3.57773 20.1248 4.20742 19.7773 4.63668L15.5273 9.88668C15.1798 10.3159 14.5501 10.3822 14.1208 10.0347C13.6916 9.68723 13.6253 9.05754 13.9728 8.62828L18.2228 3.37828C18.5703 2.94902 19.2 2.88274 19.6292 3.23023Z" fill="#1F2937"/>
<path fill-rule="evenodd" clip-rule="evenodd" d="M9.70711 14.2929C10.0976 14.6834 10.0976 15.3166 9.70711 15.7071L5.70711 19.7071C5.31658 20.0976 4.68342 20.0976 4.29289 19.7071C3.90237 19.3166 3.90237 18.6834 4.29289 18.2929L8.29289 14.2929C8.68342 13.9024 9.31658 13.9024 9.70711 14.2929Z" fill="#1F2937"/>
<path fill-rule="evenodd" clip-rule="evenodd" d="M19 14C19.5523 14 20 14.4477 20 15V19C20 19.5523 19.5523 20 19 20H15C14.4477 20 14 19.5523 14 19C14 18.4477 14.4477 18 15 18H18V15C18 14.4477 18.4477 14 19 14Z" fill="#1F2937"/>
<path fill-rule="evenodd" clip-rule="evenodd" d="M4.29289 4.28545C4.68342 3.89492 5.31658 3.89492 5.70711 4.28545L19.7071 18.2854C20.0976 18.676 20.0976 19.3091 19.7071 19.6997C19.3166 20.0902 18.6834 20.0902 18.2929 19.6997L4.29289 5.69966C3.90237 5.30914 3.90237 4.67597 4.29289 4.28545Z" fill="#1F2937"/>
</svg>
