<svg width="24" height="24" viewBox="0 0 24 24" fill="none" xmlns="http://www.w3.org/2000/svg">
<path fill-rule="evenodd" clip-rule="evenodd" d="M7 3.00745C7.26522 3.00745 7.51957 3.1128 7.70711 3.30034L11.7071 7.30034C12.0976 7.69086 12.0976 8.32403 11.7071 8.71455C11.3166 9.10508 10.6834 9.10508 10.2929 8.71455L7 5.42166L3.70711 8.71455C3.31658 9.10508 2.68342 9.10508 2.29289 8.71455C1.90237 8.32403 1.90237 7.69086 2.29289 7.30034L6.29289 3.30034C6.48043 3.1128 6.73478 3.00745 7 3.00745Z" fill="#1F2937"/>
<path fill-rule="evenodd" clip-rule="evenodd" d="M7 3.00745C7.55228 3.00745 8 3.45516 8 4.00745V13.0074C8 13.5597 7.55228 14.0074 7 14.0074C6.44772 14.0074 6 13.5597 6 13.0074V4.00745C6 3.45516 6.44772 3.00745 7 3.00745Z" fill="#1F2937"/>
<path fill-rule="evenodd" clip-rule="evenodd" d="M12.2929 15.3003C12.6834 14.9098 13.3166 14.9098 13.7071 15.3003L17 18.5932L20.2929 15.3003C20.6834 14.9098 21.3166 14.9098 21.7071 15.3003C22.0976 15.6909 22.0976 16.324 21.7071 16.7146L17.7071 20.7146C17.3166 21.1051 16.6834 21.1051 16.2929 20.7146L12.2929 16.7146C11.9024 16.324 11.9024 15.6909 12.2929 15.3003Z" fill="#1F2937"/>
<path fill-rule="evenodd" clip-rule="evenodd" d="M17 9.00745C17.5523 9.00745 18 9.45516 18 10.0074V20.0074C18 20.5597 17.5523 21.0074 17 21.0074C16.4477 21.0074 16 20.5597 16 20.0074V10.0074C16 9.45516 16.4477 9.00745 17 9.00745Z" fill="#1F2937"/>
</svg>
