<svg width="24" height="24" viewBox="0 0 24 24" fill="none" xmlns="http://www.w3.org/2000/svg">
<path fill-rule="evenodd" clip-rule="evenodd" d="M5 16C4.44772 16 4 16.4477 4 17C4 17.5523 4.44772 18 5 18C5.55228 18 6 17.5523 6 17C6 16.4477 5.55228 16 5 16ZM2 17C2 15.3431 3.34315 14 5 14C6.65685 14 8 15.3431 8 17C8 18.6569 6.65685 20 5 20C3.34315 20 2 18.6569 2 17Z" fill="#1F2937"/>
<path fill-rule="evenodd" clip-rule="evenodd" d="M17 16C16.4477 16 16 16.4477 16 17C16 17.5523 16.4477 18 17 18C17.5523 18 18 17.5523 18 17C18 16.4477 17.5523 16 17 16ZM14 17C14 15.3431 15.3431 14 17 14C18.6569 14 20 15.3431 20 17C20 18.6569 18.6569 20 17 20C15.3431 20 14 18.6569 14 17Z" fill="#1F2937"/>
<path fill-rule="evenodd" clip-rule="evenodd" d="M14.2223 4.36375C14.4122 4.1289 14.698 3.99243 15 3.99243H16C17.7207 3.99243 19.2698 4.95016 20.3493 6.46145C21.4257 7.9685 22 9.96005 22 11.9924V17.9924C22 18.5447 21.5523 18.9924 21 18.9924H19C18.4477 18.9924 18 18.5447 18 17.9924C18 17.4401 18.4477 16.9924 19 16.9924H20V12.9924H16.5C16.0285 12.9924 15.621 12.663 15.5222 12.202L14.0222 5.20196C13.9589 4.90667 14.0325 4.5986 14.2223 4.36375ZM19.9429 10.9924C19.7938 9.6974 19.3597 8.51692 18.7218 7.62392C17.9938 6.60468 17.0996 6.08495 16.2394 6.00376L17.3084 10.9924H19.9429ZM6 17.9924C6 17.4401 6.44772 16.9924 7 16.9924H15C15.5523 16.9924 16 17.4401 16 17.9924C16 18.5447 15.5523 18.9924 15 18.9924H7C6.44772 18.9924 6 18.5447 6 17.9924Z" fill="#1F2937"/>
<path fill-rule="evenodd" clip-rule="evenodd" d="M11 4.99243C11 4.44015 11.4477 3.99243 12 3.99243H15C15.5523 3.99243 16 4.44015 16 4.99243C16 5.54472 15.5523 5.99243 15 5.99243H13V17.9924C13 18.5447 12.5523 18.9924 12 18.9924C11.4477 18.9924 11 18.5447 11 17.9924V4.99243Z" fill="#1F2937"/>
<path fill-rule="evenodd" clip-rule="evenodd" d="M2 12C2 11.4477 2.44772 11 3 11H12C12.5523 11 13 11.4477 13 12C13 12.5523 12.5523 13 12 13H4V17C4 17.5523 3.55228 18 3 18C2.44772 18 2 17.5523 2 17V12Z" fill="#1F2937"/>
</svg>
