<svg width="24" height="24" viewBox="0 0 24 24" fill="none" xmlns="http://www.w3.org/2000/svg">
<path fill-rule="evenodd" clip-rule="evenodd" d="M7 11.9924C5.34315 11.9924 4 13.3356 4 14.9924C4 16.6493 5.34315 17.9924 7 17.9924C8.65685 17.9924 10 16.6493 10 14.9924C10 13.3356 8.65685 11.9924 7 11.9924ZM2 14.9924C2 12.231 4.23858 9.99243 7 9.99243C9.76142 9.99243 12 12.231 12 14.9924C12 17.7539 9.76142 19.9924 7 19.9924C4.23858 19.9924 2 17.7539 2 14.9924Z" fill="#1F2937"/>
<path fill-rule="evenodd" clip-rule="evenodd" d="M7 14C7.55228 14 8 14.4477 8 15V15.01C8 15.5623 7.55228 16.01 7 16.01C6.44772 16.01 6 15.5623 6 15.01V15C6 14.4477 6.44772 14 7 14Z" fill="#1F2937"/>
<path fill-rule="evenodd" clip-rule="evenodd" d="M19 16C18.4477 16 18 16.4477 18 17C18 17.5523 18.4477 18 19 18C19.5523 18 20 17.5523 20 17C20 16.4477 19.5523 16 19 16ZM16 17C16 15.3431 17.3431 14 19 14C20.6569 14 22 15.3431 22 17C22 18.6569 20.6569 20 19 20C17.3431 20 16 18.6569 16 17Z" fill="#1F2937"/>
<path fill-rule="evenodd" clip-rule="evenodd" d="M9.5 16.9924C9.5 16.4401 9.94772 15.9924 10.5 15.9924H17C17.5523 15.9924 18 16.4401 18 16.9924C18 17.5447 17.5523 17.9924 17 17.9924H10.5C9.94772 17.9924 9.5 17.5447 9.5 16.9924Z" fill="#1F2937"/>
<path fill-rule="evenodd" clip-rule="evenodd" d="M4 4.99243C4 4.44015 4.44772 3.99243 5 3.99243H11C11.4089 3.99243 11.7766 4.24138 11.9285 4.62104L13.677 8.99243H19C19.5304 8.99243 20.0391 9.20315 20.4142 9.57822C20.7893 9.95329 21 10.462 21 10.9924V15.1924C21 15.7447 20.5523 16.1924 20 16.1924C19.4477 16.1924 19 15.7447 19 15.1924V10.9924H13C12.5911 10.9924 12.2234 10.7435 12.0715 10.3638L10.323 5.99243H6V11.4924C6 12.0447 5.55228 12.4924 5 12.4924C4.44772 12.4924 4 12.0447 4 11.4924V4.99243Z" fill="#1F2937"/>
<path fill-rule="evenodd" clip-rule="evenodd" d="M15.5858 4.57822C15.9609 4.20315 16.4696 3.99243 17 3.99243H18C18.5523 3.99243 19 4.44015 19 4.99243C19 5.54472 18.5523 5.99243 18 5.99243L17 5.99243V9.99243C17 10.5447 16.5523 10.9924 16 10.9924C15.4477 10.9924 15 10.5447 15 9.99243V5.99243C15 5.462 15.2107 4.95329 15.5858 4.57822Z" fill="#1F2937"/>
</svg>
