<svg width="24" height="24" viewBox="0 0 24 24" fill="none" xmlns="http://www.w3.org/2000/svg">
<path fill-rule="evenodd" clip-rule="evenodd" d="M3.5 9C3.5 8.44772 3.94772 8 4.5 8H9.5C10.0523 8 10.5 8.44772 10.5 9C10.5 9.55228 10.0523 10 9.5 10H8V15C8 15.5523 7.55228 16 7 16C6.44772 16 6 15.5523 6 15V10H4.5C3.94772 10 3.5 9.55228 3.5 9Z" fill="#1F2937"/>
<path fill-rule="evenodd" clip-rule="evenodd" d="M12.6838 8.05126C13.0921 7.91514 13.5417 8.0556 13.8 8.39994L16 11.3333L18.2 8.39994C18.4583 8.0556 18.9079 7.91514 19.3162 8.05126C19.7246 8.18737 20 8.56951 20 8.99994V14.9999C20 15.5522 19.5523 15.9999 19 15.9999C18.4477 15.9999 18 15.5522 18 14.9999V11.9999L16.8 13.5999C16.6111 13.8517 16.3148 13.9999 16 13.9999C15.6852 13.9999 15.3889 13.8517 15.2 13.5999L14 11.9999V14.9999C14 15.5522 13.5523 15.9999 13 15.9999C12.4477 15.9999 12 15.5522 12 14.9999V8.99994C12 8.56951 12.2754 8.18737 12.6838 8.05126Z" fill="#1F2937"/>
</svg>
