<svg width="24" height="24" viewBox="0 0 24 24" fill="none" xmlns="http://www.w3.org/2000/svg">
<path fill-rule="evenodd" clip-rule="evenodd" d="M3 19.9926C3 19.4403 3.44772 18.9926 4 18.9926H20C20.5523 18.9926 21 19.4403 21 19.9926C21 20.5448 20.5523 20.9926 20 20.9926H4C3.44772 20.9926 3 20.5448 3 19.9926Z" fill="#1F2937"/>
<path fill-rule="evenodd" clip-rule="evenodd" d="M8.3999 10.0074C8.3999 9.45516 8.84762 9.00745 9.3999 9.00745H14.5999C15.1522 9.00745 15.5999 9.45516 15.5999 10.0074C15.5999 10.5597 15.1522 11.0074 14.5999 11.0074H9.3999C8.84762 11.0074 8.3999 10.5597 8.3999 10.0074Z" fill="#1F2937"/>
<path fill-rule="evenodd" clip-rule="evenodd" d="M6.7998 15C6.7998 14.4477 7.24752 14 7.7998 14H16.1998C16.7521 14 17.1998 14.4477 17.1998 15C17.1998 15.5523 16.7521 16 16.1998 16H7.7998C7.24752 16 6.7998 15.5523 6.7998 15Z" fill="#1F2937"/>
<path fill-rule="evenodd" clip-rule="evenodd" d="M10.0511 4.67633C10.1872 4.26798 10.5694 3.99255 10.9998 3.99255H12.9998C13.4302 3.99255 13.8124 4.26798 13.9485 4.67633L18.9485 19.6763C19.1231 20.2003 18.84 20.7666 18.316 20.9412C17.7921 21.1159 17.2257 20.8327 17.0511 20.3088L12.279 5.99255H11.7205L6.94847 20.3088C6.77382 20.8327 6.2075 21.1159 5.68356 20.9412C5.15961 20.7666 4.87645 20.2003 5.0511 19.6763L10.0511 4.67633Z" fill="#1F2937"/>
</svg>
