<svg width="24" height="24" viewBox="0 0 24 24" fill="none" xmlns="http://www.w3.org/2000/svg">
<path fill-rule="evenodd" clip-rule="evenodd" d="M8 4C6.34315 4 5 5.34315 5 7V13C5 14.6569 6.34315 16 8 16C9.65685 16 11 14.6569 11 13V7C11 5.34315 9.65685 4 8 4ZM3 7C3 4.23858 5.23858 2 8 2C10.7614 2 13 4.23858 13 7V13C13 15.7614 10.7614 18 8 18C5.23858 18 3 15.7614 3 13V7Z" fill="#1F2937"/>
<path fill-rule="evenodd" clip-rule="evenodd" d="M15 8.00745C13.8954 8.00745 13 8.90288 13 10.0074V14.0074C13 15.112 13.8954 16.0074 15 16.0074H17C18.1046 16.0074 19 15.112 19 14.0074V10.0074C19 8.90288 18.1046 8.00745 17 8.00745H15ZM11 10.0074C11 7.79831 12.7909 6.00745 15 6.00745H17C19.2091 6.00745 21 7.79831 21 10.0074V14.0074C21 16.2166 19.2091 18.0074 17 18.0074H15C12.7909 18.0074 11 16.2166 11 14.0074V10.0074Z" fill="#1F2937"/>
<path fill-rule="evenodd" clip-rule="evenodd" d="M8 12.0074C8.55228 12.0074 9 12.4552 9 13.0074V21.0074C9 21.5597 8.55228 22.0074 8 22.0074C7.44772 22.0074 7 21.5597 7 21.0074V13.0074C7 12.4552 7.44772 12.0074 8 12.0074Z" fill="#1F2937"/>
<path fill-rule="evenodd" clip-rule="evenodd" d="M16 12.9926C16.5523 12.9926 17 13.4403 17 13.9926V20.9926C17 21.5448 16.5523 21.9926 16 21.9926C15.4477 21.9926 15 21.5448 15 20.9926V13.9926C15 13.4403 15.4477 12.9926 16 12.9926Z" fill="#1F2937"/>
</svg>
