<svg width="24" height="24" viewBox="0 0 24 24" fill="none" xmlns="http://www.w3.org/2000/svg">
<path fill-rule="evenodd" clip-rule="evenodd" d="M2.29289 6.30034C2.68342 5.90982 3.31658 5.90982 3.70711 6.30034L9 11.5932L12.2929 8.30034C12.6834 7.90982 13.3166 7.90982 13.7071 8.30034L21.7071 16.3003C22.0976 16.6909 22.0976 17.324 21.7071 17.7146C21.3166 18.1051 20.6834 18.1051 20.2929 17.7146L13 10.4217L9.70711 13.7146C9.31658 14.1051 8.68342 14.1051 8.29289 13.7146L2.29289 7.71455C1.90237 7.32403 1.90237 6.69086 2.29289 6.30034Z" fill="#1F2937"/>
<path fill-rule="evenodd" clip-rule="evenodd" d="M21 9.00745C21.5523 9.00745 22 9.45516 22 10.0074V17.0074C22 17.5597 21.5523 18.0074 21 18.0074H14C13.4477 18.0074 13 17.5597 13 17.0074C13 16.4552 13.4477 16.0074 14 16.0074H20V10.0074C20 9.45516 20.4477 9.00745 21 9.00745Z" fill="#1F2937"/>
</svg>
