<svg width="24" height="24" viewBox="0 0 24 24" fill="none" xmlns="http://www.w3.org/2000/svg">
<path fill-rule="evenodd" clip-rule="evenodd" d="M21.7071 6.30034C22.0976 6.69086 22.0976 7.32403 21.7071 7.71455L13.7071 15.7146C13.3166 16.1051 12.6834 16.1051 12.2929 15.7146L9 12.4217L3.70711 17.7146C3.31658 18.1051 2.68342 18.1051 2.29289 17.7146C1.90237 17.324 1.90237 16.6909 2.29289 16.3003L8.29289 10.3003C8.68342 9.90982 9.31658 9.90982 9.70711 10.3003L13 13.5932L20.2929 6.30034C20.6834 5.90982 21.3166 5.90982 21.7071 6.30034Z" fill="#1F2937"/>
<path fill-rule="evenodd" clip-rule="evenodd" d="M13 7.00745C13 6.45516 13.4477 6.00745 14 6.00745H21C21.5523 6.00745 22 6.45516 22 7.00745V14.0074C22 14.5597 21.5523 15.0074 21 15.0074C20.4477 15.0074 20 14.5597 20 14.0074V8.00745H14C13.4477 8.00745 13 7.55973 13 7.00745Z" fill="#1F2937"/>
</svg>
