<svg width="24" height="24" viewBox="0 0 24 24" fill="none" xmlns="http://www.w3.org/2000/svg">
<path fill-rule="evenodd" clip-rule="evenodd" d="M7 16C6.44772 16 6 16.4477 6 17C6 17.5523 6.44772 18 7 18C7.55228 18 8 17.5523 8 17C8 16.4477 7.55228 16 7 16ZM4 17C4 15.3431 5.34315 14 7 14C8.65685 14 10 15.3431 10 17C10 18.6569 8.65685 20 7 20C5.34315 20 4 18.6569 4 17Z" fill="#1F2937"/>
<path fill-rule="evenodd" clip-rule="evenodd" d="M17 16C16.4477 16 16 16.4477 16 17C16 17.5523 16.4477 18 17 18C17.5523 18 18 17.5523 18 17C18 16.4477 17.5523 16 17 16ZM14 17C14 15.3431 15.3431 14 17 14C18.6569 14 20 15.3431 20 17C20 18.6569 18.6569 20 17 20C15.3431 20 14 18.6569 14 17Z" fill="#1F2937"/>
<path fill-rule="evenodd" clip-rule="evenodd" d="M2.58579 4.57822C2.96086 4.20315 3.46957 3.99243 4 3.99243H13C13.5523 3.99243 14 4.44015 14 4.99243H18C18.3513 4.99243 18.6768 5.17673 18.8575 5.47794L21.8575 10.4779C21.9507 10.6334 22 10.8112 22 10.9924V16.9924C22 17.5447 21.5523 17.9924 21 17.9924H19C18.4477 17.9924 18 17.5447 18 16.9924C18 16.4401 18.4477 15.9924 19 15.9924H20V11.9924H14V15.9924H15C15.5523 15.9924 16 16.4401 16 16.9924C16 17.5447 15.5523 17.9924 15 17.9924H3C2.44772 17.9924 2 17.5447 2 16.9924V5.99243C2 5.462 2.21071 4.95329 2.58579 4.57822ZM12 15.9924V5.99243L4 5.99243V15.9924H12ZM14 6.99243V9.99243H19.2338L17.4338 6.99243H14Z" fill="#1F2937"/>
</svg>
