<svg width="24" height="24" viewBox="0 0 24 24" fill="none" xmlns="http://www.w3.org/2000/svg">
<path fill-rule="evenodd" clip-rule="evenodd" d="M12 5.00745C10.1435 5.00745 8.36301 5.74494 7.05025 7.0577C5.97552 8.13243 5.28635 9.52066 5.07177 11.0074H18.9282C18.7137 9.52066 18.0245 8.13243 16.9497 7.0577C15.637 5.74494 13.8565 5.00745 12 5.00745ZM5.63604 5.64349C7.32387 3.95566 9.61305 3.00745 12 3.00745C14.3869 3.00745 16.6761 3.95566 18.364 5.64349C20.0518 7.33131 21 9.6205 21 12.0074C21 12.2727 20.8946 12.527 20.7071 12.7146C20.5196 12.9021 20.2652 13.0074 20 13.0074H4C3.44772 13.0074 3 12.5597 3 12.0074C3 9.6205 3.94821 7.33131 5.63604 5.64349Z" fill="#1F2937"/>
<path fill-rule="evenodd" clip-rule="evenodd" d="M12 11C12.5523 11 13 11.4477 13 12V18C13 18.2652 13.1054 18.5196 13.2929 18.7071C13.4804 18.8946 13.7348 19 14 19C14.2652 19 14.5196 18.8946 14.7071 18.7071C14.8946 18.5196 15 18.2652 15 18C15 17.4477 15.4477 17 16 17C16.5523 17 17 17.4477 17 18C17 18.7957 16.6839 19.5587 16.1213 20.1213C15.5587 20.6839 14.7957 21 14 21C13.2043 21 12.4413 20.6839 11.8787 20.1213C11.3161 19.5587 11 18.7957 11 18V12C11 11.4477 11.4477 11 12 11Z" fill="#1F2937"/>
</svg>
