<svg width="24" height="24" viewBox="0 0 24 24" fill="none" xmlns="http://www.w3.org/2000/svg">
<path fill-rule="evenodd" clip-rule="evenodd" d="M5 19.9925C5 19.4402 5.44772 18.9925 6 18.9925H18C18.5523 18.9925 19 19.4402 19 19.9925C19 20.5448 18.5523 20.9925 18 20.9925H6C5.44772 20.9925 5 20.5448 5 19.9925Z" fill="#1F2937"/>
<path fill-rule="evenodd" clip-rule="evenodd" d="M8 3.99249C8.55228 3.99249 9 4.44021 9 4.99249V10.9925C9 11.7881 9.31607 12.5512 9.87868 13.1138C10.4413 13.6764 11.2044 13.9925 12 13.9925C12.7956 13.9925 13.5587 13.6764 14.1213 13.1138C14.6839 12.5512 15 11.7881 15 10.9925V4.99249C15 4.44021 15.4477 3.99249 16 3.99249C16.5523 3.99249 17 4.44021 17 4.99249V10.9925C17 12.3186 16.4732 13.5903 15.5355 14.528C14.5979 15.4657 13.3261 15.9925 12 15.9925C10.6739 15.9925 9.40215 15.4657 8.46447 14.528C7.52678 13.5903 7 12.3186 7 10.9925V4.99249C7 4.44021 7.44772 3.99249 8 3.99249Z" fill="#1F2937"/>
</svg>
