<svg width="24" height="24" viewBox="0 0 24 24" fill="none" xmlns="http://www.w3.org/2000/svg">
<path fill-rule="evenodd" clip-rule="evenodd" d="M12 8.99255C11.2044 8.99255 10.4413 9.30862 9.87868 9.87123C9.31607 10.4338 9 11.1969 9 11.9926V15.9926C9 16.5448 8.55228 16.9926 8 16.9926C7.44772 16.9926 7 16.5448 7 15.9926V11.9926C7 10.6665 7.52678 9.3947 8.46447 8.45702C9.40215 7.51934 10.6739 6.99255 12 6.99255C13.3261 6.99255 14.5979 7.51934 15.5355 8.45702C16.4732 9.3947 17 10.6665 17 11.9926V15.9926C17 16.5448 16.5523 16.9926 16 16.9926C15.4477 16.9926 15 16.5448 15 15.9926V11.9926C15 11.1969 14.6839 10.4338 14.1213 9.87123C13.5587 9.30862 12.7956 8.99255 12 8.99255Z" fill="#1F2937"/>
<path fill-rule="evenodd" clip-rule="evenodd" d="M12 2C12.5523 2 13 2.44772 13 3V4C13 4.55228 12.5523 5 12 5C11.4477 5 11 4.55228 11 4V3C11 2.44772 11.4477 2 12 2ZM4.89289 4.89289C5.28342 4.50237 5.91658 4.50237 6.30711 4.89289L7.00711 5.59289C7.39763 5.98342 7.39763 6.61658 7.00711 7.00711C6.61658 7.39763 5.98342 7.39763 5.59289 7.00711L4.89289 6.30711C4.50237 5.91658 4.50237 5.28342 4.89289 4.89289ZM19.1071 4.89289C19.4976 5.28342 19.4976 5.91658 19.1071 6.30711L18.4071 7.00711C18.0166 7.39763 17.3834 7.39763 16.9929 7.00711C16.6024 6.61658 16.6024 5.98342 16.9929 5.59289L17.6929 4.89289C18.0834 4.50237 18.7166 4.50237 19.1071 4.89289ZM2 12C2 11.4477 2.44772 11 3 11H4C4.55228 11 5 11.4477 5 12C5 12.5523 4.55228 13 4 13H3C2.44772 13 2 12.5523 2 12ZM19 12C19 11.4477 19.4477 11 20 11H21C21.5523 11 22 11.4477 22 12C22 12.5523 21.5523 13 21 13H20C19.4477 13 19 12.5523 19 12Z" fill="#1F2937"/>
<path fill-rule="evenodd" clip-rule="evenodd" d="M5 17.0074C5 15.9029 5.89543 15.0074 7 15.0074H17C18.1046 15.0074 19 15.9029 19 17.0074V19.0074C19 20.112 18.1046 21.0074 17 21.0074H7C5.89543 21.0074 5 20.112 5 19.0074V17.0074ZM17 17.0074H7V19.0074H17V17.0074Z" fill="#1F2937"/>
</svg>
