<svg width="24" height="24" viewBox="0 0 24 24" fill="none" xmlns="http://www.w3.org/2000/svg">
<path fill-rule="evenodd" clip-rule="evenodd" d="M9 4C7.34315 4 6 5.34315 6 7C6 8.65685 7.34315 10 9 10C10.6569 10 12 8.65685 12 7C12 5.34315 10.6569 4 9 4ZM4 7C4 4.23858 6.23858 2 9 2C11.7614 2 14 4.23858 14 7C14 9.76142 11.7614 12 9 12C6.23858 12 4 9.76142 4 7Z" fill="#1F2937"/>
<path fill-rule="evenodd" clip-rule="evenodd" d="M7 16C6.20435 16 5.44129 16.3161 4.87868 16.8787C4.31607 17.4413 4 18.2044 4 19V21C4 21.5523 3.55228 22 3 22C2.44772 22 2 21.5523 2 21V19C2 17.6739 2.52678 16.4021 3.46447 15.4645C4.40215 14.5268 5.67392 14 7 14H11C12.3261 14 13.5979 14.5268 14.5355 15.4645C15.4732 16.4021 16 17.6739 16 19V21C16 21.5523 15.5523 22 15 22C14.4477 22 14 21.5523 14 21V19C14 18.2044 13.6839 17.4413 13.1213 16.8787C12.5587 16.3161 11.7956 16 11 16H7Z" fill="#1F2937"/>
<path fill-rule="evenodd" clip-rule="evenodd" d="M15.0315 2.89234C15.1685 2.35731 15.7133 2.03464 16.2483 2.17163C17.3238 2.447 18.2771 3.0725 18.9578 3.94952C19.6386 4.82653 20.0081 5.90516 20.0081 7.01538C20.0081 8.12559 19.6386 9.20423 18.9578 10.0812C18.2771 10.9583 17.3238 11.5838 16.2483 11.8591C15.7133 11.9961 15.1685 11.6734 15.0315 11.1384C14.8945 10.6034 15.2172 10.0586 15.7522 9.92163C16.3975 9.7564 16.9695 9.3811 17.3779 8.85489C17.7864 8.32869 18.0081 7.6815 18.0081 7.01538C18.0081 6.34925 17.7864 5.70207 17.3779 5.17586C16.9695 4.64965 16.3975 4.27435 15.7522 4.10913C15.2172 3.97214 14.8945 3.42736 15.0315 2.89234Z" fill="#1F2937"/>
<path fill-rule="evenodd" clip-rule="evenodd" d="M17.032 14.8906C17.1701 14.3559 17.7155 14.0343 18.2502 14.1724C19.3188 14.4482 20.266 15.0699 20.9443 15.9404C21.6226 16.8109 21.9939 17.8813 22.0002 18.9849L22.0003 18.9906H22.0002V20.9906C22.0002 21.5429 21.5525 21.9906 21.0002 21.9906C20.448 21.9906 20.0002 21.5429 20.0002 20.9906V18.9937C19.9959 18.3325 19.7732 17.6913 19.3667 17.1697C18.9597 16.6474 18.3914 16.2744 17.7503 16.1089C17.2155 15.9708 16.8939 15.4254 17.032 14.8906Z" fill="#1F2937"/>
</svg>
