<svg width="24" height="24" viewBox="0 0 24 24" fill="none" xmlns="http://www.w3.org/2000/svg">
<g clip-path="url(#clip0)">
<path fill-rule="evenodd" clip-rule="evenodd" d="M12 4C7.58172 4 4 7.58172 4 12C4 16.4183 7.58172 20 12 20C16.4183 20 20 16.4183 20 12C20 7.58172 16.4183 4 12 4ZM2 12C2 6.47715 6.47715 2 12 2C17.5228 2 22 6.47715 22 12C22 17.5228 17.5228 22 12 22C6.47715 22 2 17.5228 2 12Z" fill="#1F2937"/>
<path fill-rule="evenodd" clip-rule="evenodd" d="M11.5086 11.1292C11.9895 10.8577 12.5995 11.0275 12.871 11.5084C13.5565 12.7227 14.589 13.7045 15.8362 14.3281C17.0834 14.9517 18.4883 15.1886 19.871 15.0084C20.4187 14.9371 20.9205 15.3232 20.9918 15.8709C21.0632 16.4185 20.6771 16.9203 20.1294 16.9917C18.3517 17.2233 16.5453 16.9187 14.9418 16.1169C13.3383 15.3152 12.0108 14.0528 11.1294 12.4917C10.8579 12.0107 11.0277 11.4008 11.5086 11.1292ZM7.06002 12.6022C7.55592 12.359 8.15501 12.564 8.39812 13.0599C9.14737 14.5881 10.241 15.9217 11.5931 16.9556C12.9451 17.9895 14.5186 18.6955 16.1898 19.0182C16.7321 19.1229 17.0868 19.6473 16.9821 20.1896C16.8774 20.7319 16.3529 21.0866 15.8107 20.9819C13.8356 20.6006 11.976 19.7662 10.3782 18.5443C8.78031 17.3224 7.48779 15.7464 6.60233 13.9403C6.35921 13.4444 6.56413 12.8453 7.06002 12.6022Z" fill="#1F2937"/>
<path fill-rule="evenodd" clip-rule="evenodd" d="M12.9999 12.0045C12.9945 12.5567 12.5425 13.0001 11.9903 12.9948C10.596 12.9813 9.22941 13.3846 8.06579 14.1529C6.90218 14.9211 5.99452 16.0194 5.45918 17.3069C5.24714 17.8169 4.66185 18.0584 4.15189 17.8464C3.64193 17.6343 3.40042 17.049 3.61246 16.5391C4.30075 14.8837 5.46773 13.4716 6.96381 12.4838C8.45989 11.496 10.2169 10.9776 12.0096 10.9949C12.5618 11.0002 13.0052 11.4522 12.9999 12.0045ZM13.9486 7.41542C13.9112 7.96644 13.4342 8.38281 12.8832 8.3454C11.185 8.23013 9.4833 8.5105 7.9119 9.16444C6.34049 9.81838 4.94227 10.8281 3.82726 12.114C3.46545 12.5313 2.83389 12.5763 2.41662 12.2145C1.99934 11.8527 1.95438 11.2211 2.31618 10.8038C3.63392 9.28404 5.28636 8.09079 7.14348 7.31795C9.00059 6.54511 11.0117 6.21377 13.0186 6.35C13.5696 6.3874 13.986 6.86441 13.9486 7.41542Z" fill="#1F2937"/>
<path fill-rule="evenodd" clip-rule="evenodd" d="M11.4915 12.8663C11.0159 12.5855 10.8579 11.9724 11.1387 11.4968C11.8475 10.296 12.1815 8.91092 12.098 7.51906C12.0145 6.12719 11.5171 4.79199 10.6698 3.68462C10.3342 3.24601 10.4177 2.61838 10.8563 2.28276C11.2949 1.94714 11.9225 2.03063 12.2581 2.46924C13.3476 3.893 13.987 5.60969 14.0944 7.39923C14.2018 9.18877 13.7723 10.9696 12.861 12.5135C12.5803 12.9891 11.9671 13.147 11.4915 12.8663ZM14.9914 15.9824C14.5329 15.6745 14.4108 15.0532 14.7187 14.5947C15.6676 13.1817 16.2757 11.5678 16.495 9.87999C16.7144 8.19214 16.5391 6.47641 15.983 4.8678C15.8025 4.34583 16.0793 3.77639 16.6013 3.59593C17.1233 3.41546 17.6927 3.6923 17.8732 4.21427C18.5305 6.11535 18.7376 8.14303 18.4784 10.1378C18.2191 12.1325 17.5005 14.0398 16.3791 15.7097C16.0712 16.1682 15.4499 16.2903 14.9914 15.9824Z" fill="#1F2937"/>
</g>
<defs>
<clipPath id="clip0">
<rect width="24" height="24" fill="white"/>
</clipPath>
</defs>
</svg>
