<svg width="24" height="24" viewBox="0 0 24 24" fill="none" xmlns="http://www.w3.org/2000/svg">
<path fill-rule="evenodd" clip-rule="evenodd" d="M10 5.47471L6.78935 9.60269C6.5999 9.84628 6.30859 9.98875 6 9.98875H4L4 13.9888L6 13.9888C6.30859 13.9888 6.5999 14.1312 6.78935 14.3748L10 18.5028V5.47471ZM9.53226 3.18791C9.93016 3.02584 10.3729 3.01144 10.7805 3.1473C11.1881 3.28316 11.5336 3.56033 11.7547 3.92872C11.9584 4.26819 12.044 4.66448 12 5.05606V18.9214C12.044 19.313 11.9584 19.7093 11.7547 20.0488C11.5336 20.4172 11.1881 20.6943 10.7805 20.8302C10.3729 20.9661 9.93016 20.9517 9.53226 20.7896C9.16889 20.6416 8.8648 20.3793 8.66499 20.044L5.51092 15.9888H4C3.46957 15.9888 2.96086 15.778 2.58579 15.403C2.21071 15.0279 2 14.5192 2 13.9888V9.98875C2 9.45832 2.21071 8.94961 2.58579 8.57454C2.96086 8.19946 3.46957 7.98875 4 7.98875H5.51092L8.66499 3.9335C8.86481 3.59817 9.16889 3.33592 9.53226 3.18791Z" fill="#1F2937"/>
<path fill-rule="evenodd" clip-rule="evenodd" d="M15.2929 9.30046C15.6834 8.90994 16.3166 8.90994 16.7071 9.30046L18 10.5934L19.2929 9.30046C19.6834 8.90994 20.3166 8.90994 20.7071 9.30046C21.0976 9.69099 21.0976 10.3242 20.7071 10.7147L19.4142 12.0076L20.7071 13.3005C21.0976 13.691 21.0976 14.3241 20.7071 14.7147C20.3166 15.1052 19.6834 15.1052 19.2929 14.7147L18 13.4218L16.7071 14.7147C16.3166 15.1052 15.6834 15.1052 15.2929 14.7147C14.9024 14.3241 14.9024 13.691 15.2929 13.3005L16.5858 12.0076L15.2929 10.7147C14.9024 10.3242 14.9024 9.69099 15.2929 9.30046Z" fill="#1F2937"/>
</svg>
