<svg width="24" height="24" viewBox="0 0 24 24" fill="none" xmlns="http://www.w3.org/2000/svg">
<path fill-rule="evenodd" clip-rule="evenodd" d="M14.2001 7.39249C14.5314 6.95066 15.1582 6.86112 15.6001 7.19249C16.3452 7.75137 16.9501 8.47608 17.3666 9.30921C17.7832 10.1423 18.0001 11.061 18.0001 11.9925C18.0001 12.924 17.7832 13.8426 17.3666 14.6758C16.9501 15.5089 16.3452 16.2336 15.6001 16.7925C15.1582 17.1239 14.5314 17.0343 14.2001 16.5925C13.8687 16.1507 13.9582 15.5239 14.4001 15.1925C14.8968 14.8199 15.3001 14.3368 15.5778 13.7813C15.8555 13.2259 16.0001 12.6135 16.0001 11.9925C16.0001 11.3715 15.8555 10.7591 15.5778 10.2036C15.3001 9.64821 14.8968 9.16508 14.4001 8.79249C13.9582 8.46112 13.8687 7.83432 14.2001 7.39249Z" fill="#1F2937"/>
<path fill-rule="evenodd" clip-rule="evenodd" d="M10 5.47471L6.78935 9.60269C6.5999 9.84628 6.30859 9.98875 6 9.98875H4L4 13.9888L6 13.9888C6.30859 13.9888 6.5999 14.1312 6.78935 14.3748L10 18.5028V5.47471ZM9.53226 3.18791C9.93016 3.02584 10.3729 3.01144 10.7805 3.1473C11.1881 3.28316 11.5336 3.56033 11.7547 3.92872C11.9584 4.26819 12.044 4.66448 12 5.05606V18.9214C12.044 19.313 11.9584 19.7093 11.7547 20.0488C11.5336 20.4172 11.1881 20.6943 10.7805 20.8302C10.3729 20.9661 9.93016 20.9517 9.53226 20.7896C9.16889 20.6416 8.8648 20.3793 8.66499 20.044L5.51092 15.9888H4C3.46957 15.9888 2.96086 15.778 2.58579 15.403C2.21071 15.0279 2 14.5192 2 13.9888V9.98875C2 9.45832 2.21071 8.94961 2.58579 8.57454C2.96086 8.19946 3.46957 7.98875 4 7.98875H5.51092L8.66499 3.9335C8.86481 3.59817 9.16889 3.33592 9.53226 3.18791Z" fill="#1F2937"/>
</svg>
