<svg width="24" height="24" viewBox="0 0 24 24" fill="none" xmlns="http://www.w3.org/2000/svg">
<path fill-rule="evenodd" clip-rule="evenodd" d="M3.87868 3.88613C4.44129 3.32352 5.20435 3.00745 6 3.00745H16C16.5304 3.00745 17.0391 3.21816 17.4142 3.59323C17.7893 3.96831 18 4.47702 18 5.00745V7.00745C18.5304 7.00745 19.0391 7.21816 19.4142 7.59323C19.7893 7.96831 20 8.47702 20 9.00745V12.0074C20 12.5597 19.5523 13.0074 19 13.0074C18.4477 13.0074 18 12.5597 18 12.0074V9.00745H6C5.65606 9.00745 5.3182 8.94838 5 8.83588V18.0074C5 18.2727 5.10536 18.527 5.29289 18.7146C5.48043 18.9021 5.73478 19.0074 6 19.0074H18V16.0074C18 15.4552 18.4477 15.0074 19 15.0074C19.5523 15.0074 20 15.4552 20 16.0074V19.0074C20 19.5379 19.7893 20.0466 19.4142 20.4217C19.0391 20.7967 18.5304 21.0074 18 21.0074H6C5.20435 21.0074 4.44129 20.6914 3.87868 20.1288C3.31607 19.5662 3 18.8031 3 18.0074V6.00745C3 5.2118 3.31607 4.44874 3.87868 3.88613ZM5 6.00745C5 6.27266 5.10536 6.52702 5.29289 6.71455C5.48043 6.90209 5.73478 7.00745 6 7.00745H16L16 5.00745L6 5.00745C5.73478 5.00745 5.48043 5.1128 5.29289 5.30034C5.10536 5.48788 5 5.74223 5 6.00745Z" fill="#1F2937"/>
<path fill-rule="evenodd" clip-rule="evenodd" d="M16 13C15.7348 13 15.4804 13.1054 15.2929 13.2929C15.1054 13.4804 15 13.7348 15 14C15 14.2652 15.1054 14.5196 15.2929 14.7071C15.4804 14.8946 15.7348 15 16 15H19V13H16ZM13.8787 11.8787C14.4413 11.3161 15.2043 11 16 11H20C20.5523 11 21 11.4477 21 12V16C21 16.5523 20.5523 17 20 17H16C15.2043 17 14.4413 16.6839 13.8787 16.1213C13.3161 15.5587 13 14.7957 13 14C13 13.2043 13.3161 12.4413 13.8787 11.8787Z" fill="#1F2937"/>
</svg>
