<svg width="24" height="24" viewBox="0 0 24 24" fill="none" xmlns="http://www.w3.org/2000/svg">
<path fill-rule="evenodd" clip-rule="evenodd" d="M11.2939 18.708C10.9038 18.317 10.9038 17.683 11.2939 17.292L11.301 17.2849C11.691 16.894 12.3234 16.894 12.7135 17.2849C13.1035 17.6759 13.1035 18.3099 12.7135 18.7009L12.7064 18.708C12.3163 19.099 11.6839 19.099 11.2939 18.708Z" fill="#1F2937"/>
<path fill-rule="evenodd" clip-rule="evenodd" d="M8.46467 15.8946C8.07415 15.5041 8.07415 14.8709 8.46467 14.4804C9.40235 13.5427 10.6741 13.0159 12.0002 13.0159C13.3263 13.0159 14.5981 13.5427 15.5357 14.4804C15.9263 14.8709 15.9263 15.5041 15.5357 15.8946C15.1452 16.2851 14.512 16.2851 14.1215 15.8946C13.5589 15.332 12.7959 15.0159 12.0002 15.0159C11.2046 15.0159 10.4415 15.332 9.87888 15.8946C9.48836 16.2851 8.8552 16.2851 8.46467 15.8946Z" fill="#1F2937"/>
<path fill-rule="evenodd" clip-rule="evenodd" d="M5.63606 13.0587C5.24554 12.6681 5.24554 12.035 5.63606 11.6445C7.32389 9.95663 9.61307 9.00842 12 9.00842C14.387 9.00842 16.6762 9.95663 18.364 11.6445C18.7545 12.035 18.7545 12.6681 18.364 13.0587C17.9735 13.4492 17.3403 13.4492 16.9498 13.0587C15.637 11.7459 13.8565 11.0084 12 11.0084C10.1435 11.0084 8.36303 11.7459 7.05028 13.0587C6.65975 13.4492 6.02659 13.4492 5.63606 13.0587Z" fill="#1F2937"/>
</svg>
