<svg width="24" height="24" viewBox="0 0 24 24" fill="none" xmlns="http://www.w3.org/2000/svg">
<g clip-path="url(#clip0)">
<path fill-rule="evenodd" clip-rule="evenodd" d="M11.2937 18.708C10.9036 18.317 10.9036 17.683 11.2937 17.292L11.3007 17.2849C11.6908 16.894 12.3232 16.894 12.7132 17.2849C13.1033 17.6759 13.1033 18.3099 12.7132 18.7009L12.7061 18.708C12.3161 19.099 11.6837 19.099 11.2937 18.708Z" fill="#1F2937"/>
<path fill-rule="evenodd" clip-rule="evenodd" d="M8.46443 15.8712C8.07391 15.4806 8.07391 14.8475 8.46443 14.457C9.40211 13.5193 10.6739 12.9925 12 12.9925C13.326 12.9925 14.5978 13.5193 15.5355 14.457C15.926 14.8475 15.926 15.4806 15.5355 15.8712C15.145 16.2617 14.5118 16.2617 14.1213 15.8712C13.5587 15.3086 12.7956 14.9925 12 14.9925C11.2043 14.9925 10.4412 15.3086 9.87864 15.8712C9.48812 16.2617 8.85495 16.2617 8.46443 15.8712Z" fill="#1F2937"/>
<path fill-rule="evenodd" clip-rule="evenodd" d="M5.63606 13.0587C5.24554 12.6681 5.24554 12.035 5.63606 11.6445C7.32389 9.95663 9.61307 9.00842 12 9.00842C14.387 9.00842 16.6762 9.95663 18.364 11.6445C18.7545 12.035 18.7545 12.6681 18.364 13.0587C17.9735 13.4492 17.3403 13.4492 16.9498 13.0587C15.637 11.7459 13.8565 11.0084 12 11.0084C10.1435 11.0084 8.36303 11.7459 7.05028 13.0587C6.65975 13.4492 6.02659 13.4492 5.63606 13.0587Z" fill="#1F2937"/>
<path fill-rule="evenodd" clip-rule="evenodd" d="M2.80745 10.2227C2.41692 9.83221 2.41692 9.19904 2.80745 8.80852C5.24542 6.37054 8.55202 5.00091 11.9998 5.00091C15.4476 5.00091 18.7542 6.37054 21.1922 8.80852C21.5827 9.19904 21.5827 9.83221 21.1922 10.2227C20.8017 10.6133 20.1685 10.6133 19.778 10.2227C17.7151 8.15983 14.9172 7.00091 11.9998 7.00091C9.08245 7.00091 6.28456 8.15983 4.22166 10.2227C3.83114 10.6133 3.19797 10.6133 2.80745 10.2227Z" fill="#1F2937"/>
</g>
<defs>
<clipPath id="clip0">
<rect width="24" height="24" fill="white"/>
</clipPath>
</defs>
</svg>
