<svg width="24" height="24" viewBox="0 0 24 24" fill="none" xmlns="http://www.w3.org/2000/svg">
<path fill-rule="evenodd" clip-rule="evenodd" d="M11.2937 18.708C10.9036 18.317 10.9036 17.683 11.2937 17.292L11.3007 17.2849C11.6908 16.894 12.3232 16.894 12.7132 17.2849C13.1033 17.6759 13.1033 18.3099 12.7132 18.7009L12.7061 18.708C12.3161 19.099 11.6837 19.099 11.2937 18.708Z" fill="#1F2937"/>
<path fill-rule="evenodd" clip-rule="evenodd" d="M8.46443 15.8712C8.07391 15.4806 8.07391 14.8475 8.46443 14.457C9.40211 13.5193 10.6739 12.9925 12 12.9925C13.326 12.9925 14.5978 13.5193 15.5355 14.457C15.926 14.8475 15.926 15.4806 15.5355 15.8712C15.145 16.2617 14.5118 16.2617 14.1213 15.8712C13.5587 15.3086 12.7956 14.9925 12 14.9925C11.2043 14.9925 10.4412 15.3086 9.87864 15.8712C9.48811 16.2617 8.85495 16.2617 8.46443 15.8712Z" fill="#1F2937"/>
</svg>
