<svg width="24" height="24" viewBox="0 0 24 24" fill="none" xmlns="http://www.w3.org/2000/svg">
<path fill-rule="evenodd" clip-rule="evenodd" d="M12.9819 2.04654C13.6237 1.94139 14.2821 2.01713 14.8832 2.26525C15.4843 2.51337 16.0044 2.92407 16.3852 3.45127C16.766 3.97847 16.9923 4.60133 17.0389 5.24999C17.0854 5.89864 16.9503 6.54744 16.6487 7.1236C16.3471 7.69977 15.891 8.18051 15.3314 8.51192C14.7749 8.84156 14.1379 9.01048 13.4912 9.00002H5C4.44772 9.00002 4 8.55231 4 8.00002C4 7.44774 4.44772 7.00002 5 7.00002H13.5L13.5191 7.0002C13.7978 7.00554 14.0724 6.93313 14.3122 6.79109C14.552 6.64906 14.7475 6.44303 14.8768 6.1961C15.006 5.94918 15.0639 5.67112 15.044 5.39313C15.024 5.11513 14.927 4.8482 14.7638 4.62225C14.6007 4.39631 14.3778 4.2203 14.1201 4.11396C13.8625 4.00762 13.5803 3.97516 13.3053 4.02023C13.0303 4.06529 12.7732 4.18609 12.563 4.36908C12.3528 4.55207 12.1977 4.79001 12.1151 5.05621C11.9516 5.58372 11.3913 5.87874 10.8638 5.71516C10.3363 5.55158 10.0413 4.99135 10.2049 4.46384C10.3975 3.8427 10.7593 3.2875 11.2499 2.86053C11.7404 2.43355 12.3402 2.15169 12.9819 2.04654Z" fill="#1F2937"/>
<path fill-rule="evenodd" clip-rule="evenodd" d="M19.3122 13.2089C19.0724 13.0669 18.7978 12.9945 18.5191 12.9998L18.5 13H3C2.44772 13 2 12.5523 2 12C2 11.4477 2.44772 11 3 11H18.4912C19.1379 10.9895 19.7749 11.1584 20.3314 11.4881C20.891 11.8195 21.3471 12.3002 21.6487 12.8764C21.9503 13.4526 22.0854 14.1014 22.0389 14.75C21.9923 15.3987 21.766 16.0215 21.3852 16.5488C21.0044 17.076 20.4843 17.4867 19.8832 17.7348C19.2821 17.9829 18.6237 18.0586 17.9819 17.9535C17.3402 17.8483 16.7404 17.5665 16.2499 17.1395C15.7593 16.7125 15.3975 16.1573 15.2049 15.5362C15.0413 15.0087 15.3363 14.4484 15.8638 14.2849C16.3913 14.1213 16.9516 14.4163 17.1151 14.9438C17.1977 15.21 17.3528 15.448 17.563 15.631C17.7732 15.8139 18.0303 15.9347 18.3053 15.9798C18.5803 16.0249 18.8625 15.9924 19.1201 15.8861C19.3778 15.7797 19.6007 15.6037 19.7638 15.3778C19.927 15.1518 20.024 14.8849 20.044 14.6069C20.0639 14.3289 20.006 14.0508 19.8768 13.8039C19.7475 13.557 19.552 13.3509 19.3122 13.2089Z" fill="#1F2937"/>
<path fill-rule="evenodd" clip-rule="evenodd" d="M10.3122 17.194C10.0724 17.052 9.79779 16.9796 9.51913 16.9849L9.5 16.9851H4C3.44772 16.9851 3 16.5374 3 15.9851C3 15.4328 3.44772 14.9851 4 14.9851H9.49123C10.1379 14.9746 10.7749 15.1435 11.3314 15.4732C11.891 15.8046 12.3471 16.2853 12.6487 16.8615C12.9503 17.4377 13.0854 18.0865 13.0389 18.7351C12.9923 19.3838 12.766 20.0066 12.3852 20.5338C12.0044 21.061 11.4843 21.4717 10.8832 21.7198C10.2821 21.968 9.62371 22.0437 8.98194 21.9386C8.34017 21.8334 7.74039 21.5515 7.24987 21.1246C6.75935 20.6976 6.39748 20.1424 6.20487 19.5213C6.04129 18.9937 6.33631 18.4335 6.86382 18.2699C7.39132 18.1064 7.95155 18.4014 8.11513 18.9289C8.19768 19.1951 8.35276 19.433 8.56299 19.616C8.77321 19.799 9.03026 19.9198 9.3053 19.9649C9.58035 20.0099 9.8625 19.9775 10.1201 19.8711C10.3778 19.7648 10.6007 19.5888 10.7638 19.3628C10.927 19.1369 11.024 18.87 11.044 18.592C11.0639 18.314 11.006 18.0359 10.8768 17.789C10.7475 17.5421 10.552 17.336 10.3122 17.194Z" fill="#1F2937"/>
</svg>
