<svg width="24" height="24" viewBox="0 0 24 24" fill="none" xmlns="http://www.w3.org/2000/svg">
<path fill-rule="evenodd" clip-rule="evenodd" d="M12 4C11.4477 4 11 4.44772 11 5C11 5.55228 11.4477 6 12 6C12.5523 6 13 5.55228 13 5C13 4.44772 12.5523 4 12 4ZM9 5C9 3.34315 10.3431 2 12 2C13.6569 2 15 3.34315 15 5C15 6.65685 13.6569 8 12 8C10.3431 8 9 6.65685 9 5Z" fill="#1F2937"/>
<path fill-rule="evenodd" clip-rule="evenodd" d="M9.58579 10.5782C9.96087 10.2031 10.4696 9.99243 11 9.99243H13C13.5304 9.99243 14.0391 10.2031 14.4142 10.5782C14.7444 10.9084 14.9473 11.3423 14.991 11.8033L16.9487 17.6762C17.0503 17.9812 16.9992 18.3164 16.8112 18.5771C16.6233 18.8379 16.3215 18.9924 16 18.9924H15V21.9924C15 22.5447 14.5523 22.9924 14 22.9924C13.4477 22.9924 13 22.5447 13 21.9924V17.9924C13 17.4401 13.4477 16.9924 14 16.9924H14.6126L13.0513 12.3087C13.0173 12.2067 13 12.0999 13 11.9924L11 11.9924C11 12.0999 10.9827 12.2067 10.9487 12.3087L9.38743 16.9924H10C10.5523 16.9924 11 17.4401 11 17.9924V21.9924C11 22.5447 10.5523 22.9924 10 22.9924C9.44772 22.9924 9.00001 22.5447 9.00001 21.9924V18.9924H8.00001C7.67856 18.9924 7.37672 18.8379 7.18877 18.5771C7.00081 18.3164 6.94967 17.9812 7.05132 17.6762L9.00897 11.8033C9.05275 11.3423 9.25557 10.9084 9.58579 10.5782Z" fill="#1F2937"/>
</svg>
