<svg width="24" height="24" viewBox="0 0 24 24" fill="none" xmlns="http://www.w3.org/2000/svg">
<path fill-rule="evenodd" clip-rule="evenodd" d="M12 4C7.58172 4 4 7.58172 4 12C4 16.4183 7.58172 20 12 20C16.4183 20 20 16.4183 20 12C20 7.58172 16.4183 4 12 4ZM2 12C2 6.47715 6.47715 2 12 2C17.5228 2 22 6.47715 22 12C22 17.5228 17.5228 22 12 22C6.47715 22 2 17.5228 2 12Z" fill="#1F2937"/>
<path fill-rule="evenodd" clip-rule="evenodd" d="M2.6001 9C2.6001 8.44772 3.04781 8 3.6001 8H20.4001C20.9524 8 21.4001 8.44772 21.4001 9C21.4001 9.55228 20.9524 10 20.4001 10H3.6001C3.04781 10 2.6001 9.55228 2.6001 9Z" fill="#1F2937"/>
<path fill-rule="evenodd" clip-rule="evenodd" d="M2.6001 15C2.6001 14.4477 3.04781 14 3.6001 14H20.4001C20.9524 14 21.4001 14.4477 21.4001 15C21.4001 15.5523 20.9524 16 20.4001 16H3.6001C3.04781 16 2.6001 15.5523 2.6001 15Z" fill="#1F2937"/>
<path fill-rule="evenodd" clip-rule="evenodd" d="M12.0293 2.15153C12.4979 2.44391 12.6407 3.06076 12.3483 3.5293C10.7627 6.07011 9.92212 9.00494 9.92212 11.9999C9.92212 14.9948 10.7627 17.9297 12.3483 20.4705C12.6407 20.939 12.4979 21.5559 12.0293 21.8483C11.5608 22.1406 10.9439 21.9978 10.6515 21.5293C8.86779 18.6709 7.92212 15.3692 7.92212 11.9999C7.92212 8.63057 8.86779 5.32889 10.6515 2.47048C10.9439 2.00194 11.5608 1.85914 12.0293 2.15153Z" fill="#1F2937"/>
<path fill-rule="evenodd" clip-rule="evenodd" d="M11.9705 2.15153C12.439 1.85914 13.0559 2.00194 13.3483 2.47048C15.132 5.32889 16.0777 8.63057 16.0777 11.9999C16.0777 15.3692 15.132 18.6709 13.3483 21.5293C13.0559 21.9978 12.439 22.1406 11.9705 21.8483C11.5019 21.5559 11.3591 20.939 11.6515 20.4705C13.2371 17.9297 14.0777 14.9948 14.0777 11.9999C14.0777 9.00494 13.2371 6.07011 11.6515 3.5293C11.3591 3.06076 11.5019 2.44391 11.9705 2.15153Z" fill="#1F2937"/>
</svg>
